G04 EAGLE Gerber RS-274X export*
G75*
%MOMM*%
%FSLAX34Y34*%
%LPD*%
%INTop Copper*%
%IPPOS*%
%AMOC8*
5,1,8,0,0,1.08239X$1,22.5*%
G01*
%ADD10R,0.800000X0.800000*%
%ADD11R,1.000000X1.100000*%
%ADD12R,1.100000X1.000000*%
%ADD13C,0.499997*%
%ADD14C,1.000000*%
%ADD15R,0.475000X0.250000*%
%ADD16R,0.250000X0.475000*%
%ADD17R,0.450000X0.350000*%
%ADD18R,0.350000X0.450000*%
%ADD19R,1.300000X1.500000*%
%ADD20C,0.756400*%
%ADD21C,0.304800*%
%ADD22C,0.254000*%
%ADD23C,0.609600*%
%ADD24C,0.406400*%
%ADD25C,0.355600*%
%ADD26C,0.203200*%

G36*
X278630Y195708D02*
X278630Y195708D01*
X278658Y195706D01*
X278726Y195728D01*
X278797Y195742D01*
X278820Y195758D01*
X278847Y195767D01*
X278902Y195814D01*
X278961Y195855D01*
X278976Y195879D01*
X278998Y195897D01*
X279029Y195962D01*
X279068Y196022D01*
X279073Y196050D01*
X279085Y196076D01*
X279094Y196177D01*
X279101Y196219D01*
X279099Y196229D01*
X279100Y196242D01*
X279043Y196957D01*
X326649Y196957D01*
X326688Y196964D01*
X326728Y196962D01*
X326798Y196983D01*
X326870Y196996D01*
X326904Y197017D01*
X326942Y197028D01*
X327000Y197073D01*
X327063Y197111D01*
X327088Y197141D01*
X327120Y197166D01*
X327158Y197228D01*
X327204Y197285D01*
X327217Y197322D01*
X327238Y197356D01*
X327260Y197450D01*
X327276Y197497D01*
X327276Y197516D01*
X327281Y197539D01*
X327346Y198318D01*
X327336Y198421D01*
X327330Y198522D01*
X327325Y198532D01*
X327324Y198542D01*
X327305Y198581D01*
X327264Y198681D01*
X327417Y199284D01*
X327420Y199326D01*
X327434Y199387D01*
X327486Y200007D01*
X327540Y200073D01*
X327608Y200150D01*
X327612Y200160D01*
X327618Y200168D01*
X327633Y200209D01*
X327680Y200323D01*
X327951Y201393D01*
X327958Y201495D01*
X327969Y201597D01*
X327966Y201608D01*
X327967Y201617D01*
X327955Y201659D01*
X327931Y201764D01*
X328180Y202333D01*
X328190Y202375D01*
X328214Y202433D01*
X328367Y203036D01*
X328432Y203092D01*
X328511Y203157D01*
X328517Y203166D01*
X328524Y203172D01*
X328545Y203211D01*
X328611Y203315D01*
X329055Y204326D01*
X329077Y204421D01*
X329095Y204474D01*
X329095Y204486D01*
X329105Y204524D01*
X329105Y204535D01*
X329107Y204544D01*
X329102Y204588D01*
X329095Y204696D01*
X329435Y205216D01*
X329452Y205256D01*
X329485Y205308D01*
X329735Y205878D01*
X329809Y205923D01*
X329897Y205974D01*
X329905Y205982D01*
X329913Y205987D01*
X329940Y206021D01*
X330022Y206114D01*
X330626Y207038D01*
X330666Y207132D01*
X330708Y207225D01*
X330710Y207236D01*
X330713Y207245D01*
X330715Y207288D01*
X330727Y207396D01*
X331148Y207853D01*
X331171Y207889D01*
X331212Y207936D01*
X331553Y208457D01*
X331632Y208489D01*
X331728Y208524D01*
X331737Y208531D01*
X331745Y208535D01*
X331778Y208564D01*
X331874Y208642D01*
X332622Y209454D01*
X332676Y209540D01*
X332734Y209624D01*
X332737Y209635D01*
X332742Y209643D01*
X332751Y209686D01*
X332780Y209790D01*
X333271Y210172D01*
X333299Y210204D01*
X333348Y210243D01*
X333769Y210701D01*
X333853Y210719D01*
X333953Y210738D01*
X333963Y210744D01*
X333972Y210746D01*
X334009Y210770D01*
X334117Y210830D01*
X334988Y211508D01*
X335056Y211585D01*
X335127Y211658D01*
X335132Y211668D01*
X335138Y211675D01*
X335154Y211716D01*
X335200Y211814D01*
X335746Y212110D01*
X335780Y212137D01*
X335834Y212167D01*
X336325Y212549D01*
X336411Y212554D01*
X336513Y212556D01*
X336524Y212560D01*
X336533Y212560D01*
X336573Y212578D01*
X336689Y212620D01*
X337660Y213145D01*
X337740Y213209D01*
X337822Y213270D01*
X337828Y213280D01*
X337836Y213285D01*
X337858Y213323D01*
X337919Y213412D01*
X338507Y213614D01*
X338545Y213635D01*
X338603Y213656D01*
X339151Y213952D01*
X339236Y213942D01*
X339337Y213928D01*
X339348Y213930D01*
X339357Y213929D01*
X339400Y213939D01*
X339521Y213962D01*
X340566Y214320D01*
X340655Y214370D01*
X340746Y214417D01*
X340754Y214425D01*
X340762Y214429D01*
X340790Y214463D01*
X340865Y214540D01*
X341478Y214643D01*
X341519Y214657D01*
X341580Y214668D01*
X342168Y214870D01*
X342251Y214847D01*
X342348Y214816D01*
X342360Y214816D01*
X342369Y214814D01*
X342412Y214817D01*
X342536Y214819D01*
X343625Y215001D01*
X343721Y215035D01*
X343818Y215066D01*
X343827Y215073D01*
X343836Y215076D01*
X343869Y215104D01*
X343956Y215169D01*
X344578Y215169D01*
X344620Y215176D01*
X344682Y215177D01*
X345296Y215280D01*
X345373Y215243D01*
X345465Y215196D01*
X345476Y215195D01*
X345484Y215191D01*
X345527Y215187D01*
X345650Y215169D01*
X346754Y215169D01*
X346855Y215187D01*
X346956Y215202D01*
X346966Y215207D01*
X346975Y215208D01*
X347013Y215231D01*
X347109Y215280D01*
X347722Y215177D01*
X347765Y215178D01*
X347826Y215169D01*
X348125Y215169D01*
X348190Y215180D01*
X348255Y215182D01*
X348299Y215200D01*
X348346Y215208D01*
X348402Y215242D01*
X348463Y215267D01*
X348498Y215298D01*
X348539Y215322D01*
X348580Y215374D01*
X348629Y215418D01*
X348650Y215460D01*
X348680Y215497D01*
X348701Y215559D01*
X348731Y215618D01*
X348739Y215672D01*
X348752Y215709D01*
X348751Y215748D01*
X348759Y215803D01*
X348759Y220010D01*
X351868Y223119D01*
X356264Y223119D01*
X359372Y220010D01*
X359372Y215614D01*
X357300Y213541D01*
X357276Y213507D01*
X357245Y213478D01*
X357212Y213415D01*
X357172Y213357D01*
X357162Y213316D01*
X357142Y213278D01*
X357129Y213189D01*
X357116Y213140D01*
X357118Y213119D01*
X357114Y213093D01*
X357114Y212200D01*
X357118Y212182D01*
X357134Y212069D01*
X357134Y212048D01*
X357138Y212039D01*
X357141Y212019D01*
X357198Y211828D01*
X357244Y211737D01*
X357287Y211644D01*
X357295Y211636D01*
X357299Y211628D01*
X357331Y211598D01*
X357416Y211508D01*
X358287Y210830D01*
X358378Y210783D01*
X358466Y210732D01*
X358478Y210730D01*
X358486Y210726D01*
X358529Y210720D01*
X358635Y210700D01*
X359056Y210243D01*
X359090Y210217D01*
X359133Y210172D01*
X359624Y209790D01*
X359650Y209708D01*
X359677Y209609D01*
X359684Y209600D01*
X359686Y209591D01*
X359713Y209556D01*
X359782Y209454D01*
X360530Y208642D01*
X360612Y208580D01*
X360691Y208516D01*
X360701Y208512D01*
X360709Y208506D01*
X360751Y208493D01*
X360852Y208456D01*
X361192Y207936D01*
X361221Y207904D01*
X361256Y207853D01*
X361678Y207395D01*
X361689Y207310D01*
X361700Y207208D01*
X361705Y207198D01*
X361706Y207189D01*
X361727Y207150D01*
X361778Y207038D01*
X362382Y206114D01*
X362452Y206039D01*
X362520Y205963D01*
X362530Y205957D01*
X362536Y205950D01*
X362575Y205931D01*
X362669Y205877D01*
X362919Y205308D01*
X362943Y205273D01*
X362969Y205216D01*
X363309Y204695D01*
X363307Y204610D01*
X363300Y204507D01*
X363303Y204496D01*
X363303Y204487D01*
X363315Y204451D01*
X363316Y204437D01*
X363327Y204409D01*
X363349Y204326D01*
X363793Y203315D01*
X363850Y203231D01*
X363904Y203144D01*
X363913Y203137D01*
X363918Y203129D01*
X363953Y203104D01*
X364037Y203035D01*
X364190Y202433D01*
X364207Y202393D01*
X364224Y202333D01*
X364474Y201764D01*
X364457Y201679D01*
X364434Y201580D01*
X364435Y201568D01*
X364433Y201559D01*
X364440Y201516D01*
X364453Y201393D01*
X364724Y200323D01*
X364766Y200230D01*
X364805Y200136D01*
X364813Y200127D01*
X364817Y200119D01*
X364847Y200088D01*
X364918Y200006D01*
X364970Y199387D01*
X364981Y199345D01*
X364987Y199284D01*
X365140Y198680D01*
X365109Y198600D01*
X365071Y198505D01*
X365070Y198494D01*
X365067Y198485D01*
X365066Y198442D01*
X365058Y198318D01*
X365123Y197539D01*
X365133Y197500D01*
X365134Y197460D01*
X365162Y197393D01*
X365181Y197322D01*
X365204Y197289D01*
X365219Y197253D01*
X365268Y197198D01*
X365310Y197139D01*
X365343Y197116D01*
X365370Y197087D01*
X365435Y197053D01*
X365496Y197012D01*
X365534Y197003D01*
X365570Y196984D01*
X365665Y196970D01*
X365713Y196958D01*
X365732Y196960D01*
X365755Y196957D01*
X413361Y196957D01*
X413304Y196242D01*
X413308Y196213D01*
X413303Y196185D01*
X413320Y196116D01*
X413328Y196044D01*
X413343Y196020D01*
X413349Y195992D01*
X413392Y195934D01*
X413428Y195872D01*
X413450Y195855D01*
X413467Y195832D01*
X413529Y195795D01*
X413586Y195752D01*
X413614Y195745D01*
X413638Y195730D01*
X413738Y195714D01*
X413779Y195703D01*
X413789Y195705D01*
X413802Y195703D01*
X432802Y195703D01*
X432878Y195718D01*
X432956Y195727D01*
X432975Y195738D01*
X432997Y195742D01*
X433061Y195786D01*
X433129Y195825D01*
X433145Y195844D01*
X433161Y195855D01*
X433185Y195893D01*
X433235Y195953D01*
X442735Y212453D01*
X442744Y212480D01*
X442760Y212504D01*
X442775Y212574D01*
X442798Y212642D01*
X442795Y212670D01*
X442801Y212698D01*
X442788Y212769D01*
X442782Y212840D01*
X442769Y212865D01*
X442763Y212893D01*
X442723Y212953D01*
X442690Y213016D01*
X442668Y213034D01*
X442652Y213058D01*
X442569Y213116D01*
X442537Y213143D01*
X442526Y213146D01*
X442516Y213153D01*
X441888Y213450D01*
X465682Y254663D01*
X465695Y254700D01*
X465717Y254733D01*
X465733Y254805D01*
X465758Y254874D01*
X465757Y254913D01*
X465766Y254952D01*
X465756Y255024D01*
X465756Y255098D01*
X465741Y255135D01*
X465736Y255174D01*
X465702Y255239D01*
X465675Y255308D01*
X465649Y255337D01*
X465631Y255372D01*
X465561Y255438D01*
X465527Y255476D01*
X465511Y255485D01*
X465494Y255501D01*
X464843Y255953D01*
X464751Y255995D01*
X464659Y256041D01*
X464648Y256042D01*
X464639Y256046D01*
X464596Y256049D01*
X464489Y256064D01*
X464043Y256498D01*
X464008Y256522D01*
X463962Y256564D01*
X463451Y256919D01*
X463421Y256999D01*
X463389Y257096D01*
X463382Y257105D01*
X463379Y257114D01*
X463350Y257147D01*
X463275Y257246D01*
X462487Y258014D01*
X462402Y258071D01*
X462319Y258131D01*
X462309Y258134D01*
X462301Y258139D01*
X462259Y258150D01*
X462155Y258182D01*
X461788Y258683D01*
X461756Y258712D01*
X461719Y258762D01*
X461273Y259196D01*
X461257Y259280D01*
X461241Y259381D01*
X461235Y259391D01*
X461234Y259400D01*
X461211Y259438D01*
X461153Y259547D01*
X460502Y260435D01*
X460428Y260505D01*
X460356Y260578D01*
X460346Y260583D01*
X460339Y260589D01*
X460299Y260606D01*
X460202Y260655D01*
X459922Y261210D01*
X459896Y261244D01*
X459867Y261299D01*
X459499Y261801D01*
X459497Y261886D01*
X459498Y261989D01*
X459494Y261999D01*
X459494Y262009D01*
X459477Y262049D01*
X459439Y262166D01*
X458942Y263149D01*
X458881Y263231D01*
X458822Y263314D01*
X458813Y263321D01*
X458807Y263328D01*
X458771Y263352D01*
X458683Y263416D01*
X458498Y264009D01*
X458478Y264047D01*
X458459Y264106D01*
X458178Y264662D01*
X458183Y264698D01*
X458193Y264728D01*
X458192Y264760D01*
X458208Y264847D01*
X458206Y264859D01*
X458207Y264868D01*
X458198Y264910D01*
X458179Y265032D01*
X457851Y266083D01*
X457804Y266174D01*
X457759Y266266D01*
X457751Y266274D01*
X457747Y266282D01*
X457715Y266311D01*
X457639Y266389D01*
X457554Y267004D01*
X457541Y267045D01*
X457532Y267107D01*
X457346Y267701D01*
X457372Y267783D01*
X457406Y267879D01*
X457406Y267891D01*
X457409Y267899D01*
X457406Y267943D01*
X457408Y268067D01*
X457257Y269157D01*
X457226Y269254D01*
X457197Y269352D01*
X457191Y269362D01*
X457188Y269371D01*
X457161Y269405D01*
X457099Y269493D01*
X457116Y270115D01*
X457110Y270157D01*
X457111Y270219D01*
X457015Y270911D01*
X457017Y270924D01*
X457032Y270967D01*
X457030Y271034D01*
X457037Y271101D01*
X457026Y271146D01*
X457025Y271192D01*
X457000Y271254D01*
X456984Y271319D01*
X456958Y271357D01*
X456941Y271400D01*
X456896Y271449D01*
X456858Y271504D01*
X456820Y271531D01*
X456789Y271565D01*
X456730Y271596D01*
X456675Y271635D01*
X456631Y271647D01*
X456590Y271668D01*
X456507Y271680D01*
X456459Y271693D01*
X456435Y271691D01*
X456404Y271695D01*
X453933Y271695D01*
X453891Y271688D01*
X453849Y271690D01*
X453782Y271668D01*
X453712Y271656D01*
X453676Y271634D01*
X453635Y271621D01*
X453563Y271567D01*
X453519Y271542D01*
X453506Y271525D01*
X453485Y271510D01*
X451412Y269437D01*
X447016Y269437D01*
X443908Y272546D01*
X443908Y276942D01*
X447016Y280051D01*
X451412Y280051D01*
X453485Y277979D01*
X453519Y277955D01*
X453548Y277923D01*
X453611Y277891D01*
X453669Y277851D01*
X453710Y277840D01*
X453748Y277821D01*
X453837Y277807D01*
X453886Y277795D01*
X453907Y277797D01*
X453933Y277793D01*
X457898Y277793D01*
X457962Y277804D01*
X458027Y277806D01*
X458072Y277824D01*
X458119Y277833D01*
X458175Y277866D01*
X458235Y277890D01*
X458271Y277922D01*
X458312Y277947D01*
X458353Y277997D01*
X458401Y278041D01*
X458429Y278090D01*
X458454Y278121D01*
X458466Y278157D01*
X458492Y278204D01*
X458555Y278373D01*
X458574Y278474D01*
X458595Y278573D01*
X458594Y278584D01*
X458596Y278593D01*
X458588Y278636D01*
X458576Y278744D01*
X458887Y279282D01*
X458902Y279322D01*
X458932Y279377D01*
X459151Y279959D01*
X459221Y280008D01*
X459307Y280063D01*
X459314Y280072D01*
X459322Y280077D01*
X459347Y280113D01*
X459424Y280210D01*
X459975Y281163D01*
X460010Y281259D01*
X460047Y281354D01*
X460048Y281365D01*
X460051Y281374D01*
X460051Y281418D01*
X460056Y281525D01*
X460452Y282005D01*
X460473Y282043D01*
X460512Y282091D01*
X460823Y282630D01*
X460901Y282667D01*
X460995Y282707D01*
X461003Y282714D01*
X461011Y282718D01*
X461042Y282749D01*
X461134Y282832D01*
X461834Y283682D01*
X461885Y283771D01*
X461937Y283858D01*
X461940Y283869D01*
X461944Y283877D01*
X461951Y283921D01*
X461974Y284026D01*
X462443Y284434D01*
X462470Y284467D01*
X462517Y284509D01*
X462913Y284989D01*
X462995Y285012D01*
X463094Y285037D01*
X463104Y285043D01*
X463113Y285045D01*
X463148Y285071D01*
X463252Y285137D01*
X463406Y285271D01*
X463407Y285271D01*
X464083Y285860D01*
X464147Y285939D01*
X464214Y286017D01*
X464218Y286027D01*
X464224Y286035D01*
X464237Y286076D01*
X464278Y286176D01*
X464808Y286501D01*
X464840Y286530D01*
X464892Y286563D01*
X465362Y286972D01*
X465447Y286981D01*
X465549Y286989D01*
X465559Y286993D01*
X465569Y286994D01*
X465608Y287014D01*
X465721Y287062D01*
X466660Y287638D01*
X466736Y287706D01*
X466814Y287772D01*
X466820Y287781D01*
X466827Y287787D01*
X466848Y287826D01*
X466904Y287918D01*
X467480Y288152D01*
X467516Y288175D01*
X467573Y288199D01*
X468104Y288525D01*
X468189Y288520D01*
X468291Y288510D01*
X468302Y288513D01*
X468312Y288513D01*
X468353Y288525D01*
X468473Y288554D01*
X469494Y288968D01*
X469580Y289022D01*
X469668Y289074D01*
X469676Y289083D01*
X469683Y289088D01*
X469710Y289122D01*
X469781Y289204D01*
X470387Y289340D01*
X470427Y289356D01*
X470487Y289371D01*
X471064Y289605D01*
X471148Y289586D01*
X471247Y289560D01*
X471258Y289561D01*
X471267Y289559D01*
X471310Y289565D01*
X471434Y289573D01*
X472508Y289813D01*
X472603Y289853D01*
X472698Y289890D01*
X472706Y289897D01*
X472715Y289900D01*
X472747Y289930D01*
X472830Y289999D01*
X473451Y290033D01*
X473492Y290043D01*
X473554Y290047D01*
X474162Y290183D01*
X474241Y290150D01*
X474335Y290109D01*
X474346Y290108D01*
X474354Y290104D01*
X474398Y290103D01*
X474521Y290091D01*
X475620Y290151D01*
X475719Y290175D01*
X475820Y290195D01*
X475830Y290201D01*
X475839Y290203D01*
X475875Y290227D01*
X475968Y290281D01*
X476586Y290212D01*
X476629Y290215D01*
X476691Y290210D01*
X477312Y290243D01*
X477386Y290198D01*
X477471Y290142D01*
X477481Y290139D01*
X477489Y290134D01*
X477532Y290126D01*
X477652Y290094D01*
X478746Y289972D01*
X478847Y289979D01*
X478950Y289982D01*
X478961Y289986D01*
X478970Y289987D01*
X479009Y290005D01*
X479111Y290043D01*
X479709Y289874D01*
X479751Y289869D01*
X479811Y289853D01*
X480430Y289785D01*
X480476Y289744D01*
X480528Y289687D01*
X480550Y289676D01*
X480569Y289658D01*
X480580Y289654D01*
X480587Y289648D01*
X480627Y289632D01*
X480698Y289600D01*
X480728Y289585D01*
X480734Y289584D01*
X480740Y289581D01*
X481799Y289281D01*
X481901Y289271D01*
X482002Y289258D01*
X482013Y289260D01*
X482022Y289259D01*
X482065Y289270D01*
X482171Y289291D01*
X482733Y289025D01*
X482774Y289014D01*
X482831Y288988D01*
X483430Y288819D01*
X483484Y288753D01*
X483546Y288671D01*
X483556Y288665D01*
X483561Y288658D01*
X483599Y288636D01*
X483702Y288567D01*
X484395Y288240D01*
X484433Y288229D01*
X484468Y288210D01*
X484541Y288200D01*
X484611Y288181D01*
X484651Y288185D01*
X484691Y288179D01*
X484762Y288195D01*
X484835Y288202D01*
X484871Y288219D01*
X484910Y288228D01*
X484971Y288267D01*
X485037Y288299D01*
X485065Y288328D01*
X485098Y288349D01*
X485158Y288424D01*
X485193Y288460D01*
X485200Y288477D01*
X485215Y288496D01*
X509010Y329711D01*
X509618Y329291D01*
X509645Y329280D01*
X509667Y329261D01*
X509736Y329241D01*
X509801Y329213D01*
X509830Y329213D01*
X509858Y329205D01*
X509929Y329213D01*
X510000Y329213D01*
X510027Y329224D01*
X510056Y329227D01*
X510118Y329262D01*
X510183Y329290D01*
X510204Y329310D01*
X510229Y329325D01*
X510292Y329402D01*
X510322Y329432D01*
X510326Y329442D01*
X510335Y329453D01*
X519835Y345953D01*
X519845Y345985D01*
X519854Y345998D01*
X519858Y346022D01*
X519859Y346026D01*
X519890Y346096D01*
X519890Y346120D01*
X519898Y346142D01*
X519892Y346218D01*
X519893Y346295D01*
X519883Y346319D01*
X519882Y346340D01*
X519861Y346379D01*
X519835Y346451D01*
X510335Y362951D01*
X510316Y362973D01*
X510303Y362999D01*
X510250Y363047D01*
X510203Y363100D01*
X510177Y363113D01*
X510156Y363132D01*
X510088Y363155D01*
X510024Y363186D01*
X509995Y363188D01*
X509968Y363197D01*
X509896Y363192D01*
X509825Y363195D01*
X509798Y363185D01*
X509769Y363183D01*
X509679Y363141D01*
X509639Y363126D01*
X509631Y363119D01*
X509618Y363113D01*
X509010Y362693D01*
X485215Y403908D01*
X485189Y403939D01*
X485171Y403974D01*
X485117Y404024D01*
X485070Y404080D01*
X485035Y404099D01*
X485006Y404126D01*
X484938Y404154D01*
X484875Y404190D01*
X484835Y404196D01*
X484798Y404211D01*
X484725Y404214D01*
X484653Y404225D01*
X484614Y404217D01*
X484574Y404219D01*
X484483Y404191D01*
X484433Y404181D01*
X484417Y404171D01*
X484395Y404164D01*
X483702Y403837D01*
X483619Y403778D01*
X483534Y403721D01*
X483527Y403712D01*
X483519Y403707D01*
X483495Y403671D01*
X483429Y403585D01*
X482831Y403416D01*
X482792Y403397D01*
X482733Y403379D01*
X482170Y403113D01*
X482085Y403127D01*
X481985Y403147D01*
X481974Y403146D01*
X481965Y403147D01*
X481922Y403139D01*
X481799Y403123D01*
X480740Y402823D01*
X480649Y402778D01*
X480555Y402736D01*
X480547Y402728D01*
X480538Y402724D01*
X480509Y402693D01*
X480429Y402619D01*
X479811Y402551D01*
X479770Y402538D01*
X479709Y402530D01*
X479110Y402361D01*
X479029Y402389D01*
X478933Y402425D01*
X478922Y402425D01*
X478913Y402428D01*
X478869Y402427D01*
X478746Y402432D01*
X477652Y402310D01*
X477554Y402281D01*
X477455Y402255D01*
X477446Y402249D01*
X477437Y402246D01*
X477402Y402220D01*
X477312Y402161D01*
X476691Y402194D01*
X476648Y402189D01*
X476586Y402192D01*
X475968Y402123D01*
X475892Y402163D01*
X475804Y402215D01*
X475793Y402217D01*
X475785Y402222D01*
X475742Y402228D01*
X475620Y402253D01*
X475209Y402275D01*
X475104Y402262D01*
X474998Y402251D01*
X474992Y402248D01*
X474986Y402248D01*
X474892Y402199D01*
X474797Y402152D01*
X474793Y402147D01*
X474787Y402144D01*
X474716Y402066D01*
X474643Y401988D01*
X474641Y401983D01*
X474636Y401978D01*
X474597Y401880D01*
X474556Y401782D01*
X474555Y401775D01*
X474553Y401770D01*
X474551Y401664D01*
X474546Y401558D01*
X474548Y401552D01*
X474548Y401545D01*
X474582Y401445D01*
X474614Y401344D01*
X474619Y401339D01*
X474620Y401333D01*
X474643Y401306D01*
X474726Y401193D01*
X474770Y401150D01*
X474770Y396753D01*
X471661Y393645D01*
X470700Y393645D01*
X470613Y393629D01*
X470524Y393620D01*
X470503Y393609D01*
X470479Y393605D01*
X470403Y393560D01*
X470323Y393520D01*
X470307Y393503D01*
X470286Y393491D01*
X470230Y393422D01*
X470169Y393357D01*
X470160Y393335D01*
X470145Y393317D01*
X470116Y393232D01*
X470082Y393150D01*
X470081Y393127D01*
X470073Y393104D01*
X470076Y393015D01*
X470072Y392926D01*
X470079Y392904D01*
X470080Y392880D01*
X470113Y392797D01*
X470140Y392713D01*
X470156Y392691D01*
X470164Y392672D01*
X470198Y392635D01*
X470252Y392562D01*
X471297Y391517D01*
X471297Y383183D01*
X468939Y380825D01*
X465872Y380825D01*
X465807Y380814D01*
X465741Y380812D01*
X465697Y380794D01*
X465651Y380786D01*
X465594Y380752D01*
X465533Y380727D01*
X465498Y380696D01*
X465458Y380672D01*
X465416Y380620D01*
X465368Y380576D01*
X465346Y380534D01*
X465316Y380497D01*
X465295Y380435D01*
X465265Y380376D01*
X465257Y380322D01*
X465244Y380285D01*
X465245Y380245D01*
X465237Y380191D01*
X465237Y377710D01*
X465245Y377668D01*
X465243Y377626D01*
X465250Y377603D01*
X465251Y377587D01*
X465266Y377550D01*
X465277Y377489D01*
X465299Y377453D01*
X465312Y377412D01*
X465334Y377382D01*
X465335Y377380D01*
X465339Y377375D01*
X465365Y377340D01*
X465391Y377296D01*
X465407Y377283D01*
X465423Y377262D01*
X467495Y375190D01*
X467495Y370793D01*
X464387Y367685D01*
X459990Y367685D01*
X456882Y370793D01*
X456882Y375190D01*
X458954Y377262D01*
X458978Y377297D01*
X459010Y377325D01*
X459042Y377388D01*
X459043Y377389D01*
X459061Y377412D01*
X459064Y377419D01*
X459082Y377446D01*
X459093Y377487D01*
X459112Y377525D01*
X459122Y377593D01*
X459133Y377624D01*
X459132Y377641D01*
X459138Y377663D01*
X459136Y377684D01*
X459140Y377710D01*
X459140Y380191D01*
X459128Y380256D01*
X459126Y380322D01*
X459109Y380365D01*
X459100Y380412D01*
X459067Y380469D01*
X459042Y380530D01*
X459010Y380564D01*
X458986Y380605D01*
X458935Y380647D01*
X458891Y380695D01*
X458849Y380717D01*
X458812Y380746D01*
X458750Y380768D01*
X458691Y380798D01*
X458637Y380806D01*
X458599Y380818D01*
X458560Y380817D01*
X458506Y380825D01*
X454832Y380825D01*
X454745Y380810D01*
X454656Y380800D01*
X454635Y380790D01*
X454611Y380786D01*
X454535Y380740D01*
X454455Y380701D01*
X454439Y380684D01*
X454418Y380672D01*
X454362Y380602D01*
X454301Y380538D01*
X454292Y380516D01*
X454277Y380497D01*
X454248Y380413D01*
X454214Y380331D01*
X454213Y380307D01*
X454205Y380285D01*
X454208Y380196D01*
X454204Y380107D01*
X454211Y380084D01*
X454212Y380061D01*
X454245Y379978D01*
X454272Y379893D01*
X454288Y379872D01*
X454296Y379853D01*
X454330Y379815D01*
X454384Y379743D01*
X455578Y378549D01*
X455578Y374152D01*
X455029Y373604D01*
X455005Y373569D01*
X454974Y373541D01*
X454942Y373478D01*
X454901Y373420D01*
X454891Y373379D01*
X454871Y373341D01*
X454858Y373252D01*
X454845Y373203D01*
X454848Y373182D01*
X454844Y373156D01*
X454844Y365536D01*
X454851Y365494D01*
X454849Y365452D01*
X454871Y365385D01*
X454883Y365315D01*
X454905Y365279D01*
X454918Y365238D01*
X454972Y365165D01*
X454997Y365122D01*
X455014Y365109D01*
X455029Y365088D01*
X455672Y364445D01*
X455672Y360049D01*
X452563Y356940D01*
X448167Y356940D01*
X445058Y360049D01*
X445058Y364445D01*
X445512Y364900D01*
X445537Y364934D01*
X445568Y364963D01*
X445600Y365026D01*
X445640Y365084D01*
X445651Y365125D01*
X445670Y365163D01*
X445684Y365252D01*
X445696Y365301D01*
X445694Y365322D01*
X445698Y365348D01*
X445698Y373156D01*
X445691Y373198D01*
X445693Y373240D01*
X445671Y373307D01*
X445658Y373377D01*
X445637Y373413D01*
X445624Y373454D01*
X445570Y373526D01*
X445544Y373570D01*
X445528Y373583D01*
X445512Y373604D01*
X444964Y374152D01*
X444964Y378549D01*
X448073Y381657D01*
X452242Y381657D01*
X452329Y381673D01*
X452418Y381682D01*
X452439Y381693D01*
X452463Y381697D01*
X452539Y381742D01*
X452619Y381782D01*
X452635Y381799D01*
X452656Y381811D01*
X452712Y381880D01*
X452773Y381945D01*
X452782Y381967D01*
X452797Y381985D01*
X452826Y382070D01*
X452860Y382152D01*
X452861Y382175D01*
X452869Y382198D01*
X452866Y382287D01*
X452870Y382376D01*
X452863Y382398D01*
X452862Y382422D01*
X452829Y382505D01*
X452802Y382589D01*
X452786Y382611D01*
X452778Y382630D01*
X452744Y382667D01*
X452690Y382740D01*
X452247Y383183D01*
X452247Y391517D01*
X454605Y393875D01*
X465504Y393875D01*
X465591Y393890D01*
X465680Y393900D01*
X465701Y393910D01*
X465725Y393914D01*
X465801Y393960D01*
X465881Y393999D01*
X465897Y394016D01*
X465918Y394028D01*
X465974Y394098D01*
X466035Y394162D01*
X466044Y394184D01*
X466059Y394203D01*
X466088Y394287D01*
X466122Y394369D01*
X466123Y394393D01*
X466131Y394415D01*
X466128Y394504D01*
X466132Y394593D01*
X466125Y394616D01*
X466124Y394639D01*
X466091Y394722D01*
X466064Y394807D01*
X466048Y394828D01*
X466040Y394847D01*
X466006Y394885D01*
X465952Y394957D01*
X464156Y396753D01*
X464156Y401150D01*
X466229Y403222D01*
X466253Y403257D01*
X466284Y403285D01*
X466316Y403348D01*
X466357Y403406D01*
X466367Y403447D01*
X466387Y403485D01*
X466400Y403575D01*
X466413Y403623D01*
X466410Y403644D01*
X466414Y403670D01*
X466414Y404562D01*
X466414Y404566D01*
X466414Y404569D01*
X466394Y404675D01*
X466375Y404782D01*
X466373Y404786D01*
X466372Y404790D01*
X466316Y404882D01*
X466261Y404976D01*
X466257Y404978D01*
X466255Y404982D01*
X466112Y405102D01*
X465721Y405342D01*
X465626Y405379D01*
X465532Y405419D01*
X465521Y405420D01*
X465512Y405423D01*
X465469Y405424D01*
X465361Y405433D01*
X464892Y405841D01*
X464855Y405863D01*
X464807Y405903D01*
X464277Y406228D01*
X464243Y406307D01*
X464205Y406402D01*
X464197Y406410D01*
X464194Y406419D01*
X464163Y406450D01*
X464083Y406544D01*
X463252Y407267D01*
X463165Y407319D01*
X463079Y407374D01*
X463068Y407377D01*
X463060Y407382D01*
X463017Y407390D01*
X462912Y407416D01*
X462517Y407895D01*
X462484Y407923D01*
X462443Y407970D01*
X461974Y408379D01*
X461953Y408462D01*
X461931Y408562D01*
X461925Y408572D01*
X461923Y408581D01*
X461898Y408617D01*
X461834Y408722D01*
X461134Y409572D01*
X461056Y409638D01*
X460980Y409706D01*
X460970Y409711D01*
X460963Y409717D01*
X460922Y409732D01*
X460823Y409775D01*
X460512Y410313D01*
X460484Y410346D01*
X460452Y410399D01*
X460056Y410879D01*
X460049Y410964D01*
X460044Y411067D01*
X460040Y411077D01*
X460039Y411086D01*
X460020Y411126D01*
X459975Y411241D01*
X459424Y412194D01*
X459358Y412272D01*
X459294Y412352D01*
X459285Y412358D01*
X459279Y412365D01*
X459241Y412387D01*
X459150Y412445D01*
X458932Y413027D01*
X458910Y413064D01*
X458887Y413122D01*
X458576Y413661D01*
X458583Y413746D01*
X458595Y413848D01*
X458592Y413859D01*
X458593Y413868D01*
X458581Y413910D01*
X458555Y414031D01*
X458169Y415062D01*
X458116Y415150D01*
X458067Y415239D01*
X458059Y415247D01*
X458054Y415255D01*
X458020Y415282D01*
X457940Y415355D01*
X457821Y415965D01*
X457805Y416005D01*
X457792Y416066D01*
X457573Y416649D01*
X457595Y416732D01*
X457623Y416830D01*
X457622Y416841D01*
X457625Y416850D01*
X457620Y416894D01*
X457614Y417017D01*
X457403Y418097D01*
X457366Y418193D01*
X457332Y418289D01*
X457325Y418298D01*
X457321Y418307D01*
X457292Y418339D01*
X457226Y418424D01*
X457208Y419045D01*
X457199Y419087D01*
X457196Y419150D01*
X457077Y419760D01*
X457111Y419839D01*
X457155Y419931D01*
X457157Y419942D01*
X457160Y419951D01*
X457163Y419995D01*
X457178Y420117D01*
X457147Y421218D01*
X457126Y421318D01*
X457108Y421418D01*
X457103Y421428D01*
X457101Y421437D01*
X457078Y421474D01*
X457026Y421569D01*
X457111Y422185D01*
X457109Y422228D01*
X457116Y422289D01*
X457099Y422912D01*
X457146Y422983D01*
X457205Y423067D01*
X457208Y423078D01*
X457213Y423086D01*
X457223Y423129D01*
X457257Y423247D01*
X457408Y424337D01*
X457404Y424439D01*
X457403Y424542D01*
X457399Y424552D01*
X457399Y424561D01*
X457382Y424602D01*
X457346Y424704D01*
X457532Y425297D01*
X457537Y425340D01*
X457554Y425399D01*
X457639Y426016D01*
X457698Y426079D01*
X457769Y426152D01*
X457774Y426162D01*
X457780Y426169D01*
X457797Y426209D01*
X457851Y426321D01*
X458179Y427372D01*
X458191Y427473D01*
X458207Y427574D01*
X458206Y427585D01*
X458207Y427594D01*
X458197Y427636D01*
X458179Y427743D01*
X458459Y428298D01*
X458471Y428339D01*
X458498Y428395D01*
X458684Y428989D01*
X458751Y429042D01*
X458834Y429102D01*
X458841Y429111D01*
X458848Y429117D01*
X458871Y429154D01*
X458942Y429255D01*
X459439Y430238D01*
X459468Y430335D01*
X459500Y430432D01*
X459500Y430444D01*
X459503Y430453D01*
X459500Y430496D01*
X459500Y430604D01*
X459867Y431105D01*
X459886Y431144D01*
X459922Y431194D01*
X460203Y431750D01*
X460278Y431791D01*
X460370Y431836D01*
X460378Y431844D01*
X460386Y431849D01*
X460415Y431882D01*
X460502Y431969D01*
X461153Y432857D01*
X461198Y432949D01*
X461246Y433039D01*
X461248Y433050D01*
X461252Y433058D01*
X461256Y433102D01*
X461274Y433208D01*
X461719Y433642D01*
X461744Y433677D01*
X461788Y433721D01*
X462156Y434223D01*
X462237Y434251D01*
X462335Y434281D01*
X462344Y434287D01*
X462353Y434290D01*
X462386Y434318D01*
X462487Y434390D01*
X463275Y435158D01*
X463335Y435242D01*
X463397Y435323D01*
X463401Y435333D01*
X463406Y435341D01*
X463417Y435383D01*
X463452Y435485D01*
X463962Y435840D01*
X463993Y435870D01*
X464043Y435906D01*
X464489Y436341D01*
X464574Y436355D01*
X464675Y436368D01*
X464685Y436373D01*
X464695Y436375D01*
X464732Y436397D01*
X464843Y436451D01*
X465494Y436903D01*
X465522Y436931D01*
X465556Y436952D01*
X465601Y437010D01*
X465653Y437062D01*
X465669Y437098D01*
X465694Y437129D01*
X465716Y437199D01*
X465747Y437266D01*
X465750Y437305D01*
X465761Y437343D01*
X465758Y437416D01*
X465763Y437490D01*
X465752Y437527D01*
X465750Y437567D01*
X465715Y437657D01*
X465701Y437705D01*
X465690Y437720D01*
X465682Y437741D01*
X441888Y478954D01*
X442516Y479251D01*
X442538Y479268D01*
X442565Y479278D01*
X442617Y479327D01*
X442675Y479370D01*
X442689Y479395D01*
X442710Y479414D01*
X442739Y479480D01*
X442775Y479542D01*
X442778Y479570D01*
X442790Y479596D01*
X442791Y479668D01*
X442800Y479739D01*
X442792Y479766D01*
X442793Y479795D01*
X442757Y479890D01*
X442746Y479930D01*
X442739Y479939D01*
X442735Y479951D01*
X433235Y496451D01*
X433183Y496510D01*
X433137Y496572D01*
X433118Y496583D01*
X433103Y496600D01*
X433033Y496634D01*
X432966Y496674D01*
X432942Y496678D01*
X432924Y496686D01*
X432879Y496688D01*
X432802Y496701D01*
X413802Y496701D01*
X413774Y496696D01*
X413746Y496698D01*
X413678Y496676D01*
X413607Y496662D01*
X413584Y496646D01*
X413557Y496637D01*
X413502Y496590D01*
X413443Y496549D01*
X413428Y496525D01*
X413407Y496507D01*
X413375Y496442D01*
X413336Y496382D01*
X413331Y496354D01*
X413319Y496328D01*
X413310Y496227D01*
X413303Y496185D01*
X413305Y496175D01*
X413304Y496162D01*
X413361Y495447D01*
X365755Y495447D01*
X365716Y495440D01*
X365676Y495442D01*
X365606Y495421D01*
X365534Y495408D01*
X365500Y495387D01*
X365462Y495376D01*
X365404Y495331D01*
X365341Y495293D01*
X365316Y495263D01*
X365284Y495238D01*
X365246Y495176D01*
X365200Y495119D01*
X365187Y495082D01*
X365166Y495048D01*
X365144Y494955D01*
X365128Y494907D01*
X365128Y494888D01*
X365123Y494865D01*
X365058Y494086D01*
X365068Y493983D01*
X365074Y493882D01*
X365079Y493872D01*
X365080Y493862D01*
X365099Y493823D01*
X365140Y493723D01*
X364987Y493120D01*
X364984Y493078D01*
X364970Y493017D01*
X364918Y492397D01*
X364864Y492331D01*
X364796Y492254D01*
X364792Y492244D01*
X364786Y492236D01*
X364771Y492195D01*
X364724Y492081D01*
X364453Y491011D01*
X364446Y490909D01*
X364435Y490807D01*
X364438Y490796D01*
X364437Y490787D01*
X364449Y490745D01*
X364473Y490640D01*
X364224Y490071D01*
X364214Y490029D01*
X364190Y489971D01*
X364037Y489368D01*
X363972Y489312D01*
X363893Y489247D01*
X363887Y489238D01*
X363880Y489232D01*
X363859Y489193D01*
X363793Y489089D01*
X363349Y488078D01*
X363326Y487979D01*
X363299Y487880D01*
X363299Y487868D01*
X363297Y487859D01*
X363302Y487816D01*
X363309Y487708D01*
X362969Y487188D01*
X362952Y487148D01*
X362934Y487120D01*
X362930Y487115D01*
X362929Y487112D01*
X362919Y487096D01*
X362669Y486526D01*
X362595Y486481D01*
X362507Y486430D01*
X362499Y486422D01*
X362491Y486417D01*
X362464Y486383D01*
X362382Y486290D01*
X361778Y485366D01*
X361738Y485272D01*
X361696Y485179D01*
X361694Y485168D01*
X361691Y485160D01*
X361689Y485116D01*
X361677Y485008D01*
X361256Y484551D01*
X361233Y484515D01*
X361192Y484468D01*
X360851Y483947D01*
X360772Y483915D01*
X360676Y483880D01*
X360667Y483873D01*
X360659Y483869D01*
X360626Y483840D01*
X360530Y483762D01*
X359782Y482950D01*
X359728Y482864D01*
X359670Y482779D01*
X359667Y482769D01*
X359662Y482761D01*
X359653Y482718D01*
X359624Y482614D01*
X359133Y482232D01*
X359124Y482222D01*
X359113Y482215D01*
X359093Y482191D01*
X359056Y482161D01*
X358635Y481703D01*
X358551Y481685D01*
X358451Y481666D01*
X358441Y481660D01*
X358432Y481658D01*
X358395Y481634D01*
X358287Y481574D01*
X357416Y480896D01*
X357348Y480819D01*
X357277Y480746D01*
X357272Y480736D01*
X357266Y480729D01*
X357250Y480688D01*
X357204Y480590D01*
X356658Y480294D01*
X356624Y480267D01*
X356570Y480237D01*
X356079Y479855D01*
X355993Y479850D01*
X355891Y479848D01*
X355880Y479844D01*
X355871Y479844D01*
X355831Y479826D01*
X355715Y479784D01*
X354744Y479259D01*
X354664Y479195D01*
X354582Y479134D01*
X354576Y479124D01*
X354568Y479119D01*
X354546Y479081D01*
X354485Y478992D01*
X353897Y478790D01*
X353859Y478769D01*
X353801Y478748D01*
X353253Y478452D01*
X353168Y478462D01*
X353067Y478476D01*
X353056Y478474D01*
X353047Y478475D01*
X353004Y478465D01*
X352883Y478442D01*
X351838Y478084D01*
X351749Y478034D01*
X351658Y477987D01*
X351650Y477979D01*
X351642Y477975D01*
X351614Y477941D01*
X351539Y477864D01*
X350926Y477761D01*
X350885Y477747D01*
X350824Y477736D01*
X350236Y477534D01*
X350153Y477557D01*
X350056Y477588D01*
X350044Y477588D01*
X350035Y477590D01*
X349992Y477587D01*
X349868Y477585D01*
X348779Y477403D01*
X348683Y477369D01*
X348586Y477338D01*
X348577Y477331D01*
X348568Y477328D01*
X348535Y477300D01*
X348448Y477235D01*
X347826Y477235D01*
X347784Y477228D01*
X347722Y477227D01*
X347108Y477124D01*
X347031Y477161D01*
X346939Y477208D01*
X346928Y477209D01*
X346920Y477213D01*
X346877Y477217D01*
X346754Y477235D01*
X346293Y477235D01*
X346251Y477228D01*
X346209Y477230D01*
X346142Y477208D01*
X346072Y477196D01*
X346036Y477174D01*
X345995Y477161D01*
X345922Y477107D01*
X345879Y477082D01*
X345866Y477065D01*
X345844Y477050D01*
X344262Y475468D01*
X344238Y475433D01*
X344207Y475404D01*
X344175Y475341D01*
X344134Y475283D01*
X344124Y475242D01*
X344104Y475204D01*
X344091Y475115D01*
X344078Y475066D01*
X344081Y475045D01*
X344077Y475019D01*
X344077Y472088D01*
X340968Y468980D01*
X336572Y468980D01*
X333463Y472088D01*
X333463Y476485D01*
X336103Y479125D01*
X336163Y479210D01*
X336225Y479295D01*
X336227Y479302D01*
X336231Y479309D01*
X336257Y479410D01*
X336286Y479511D01*
X336285Y479519D01*
X336287Y479526D01*
X336276Y479630D01*
X336268Y479734D01*
X336265Y479741D01*
X336264Y479749D01*
X336218Y479843D01*
X336173Y479938D01*
X336168Y479944D01*
X336164Y479950D01*
X336136Y479977D01*
X336044Y480074D01*
X335834Y480237D01*
X335796Y480257D01*
X335746Y480294D01*
X335199Y480591D01*
X335160Y480667D01*
X335117Y480760D01*
X335110Y480768D01*
X335105Y480776D01*
X335073Y480806D01*
X334988Y480896D01*
X334117Y481574D01*
X334026Y481621D01*
X333938Y481672D01*
X333926Y481674D01*
X333918Y481678D01*
X333875Y481684D01*
X333769Y481704D01*
X333348Y482161D01*
X333314Y482187D01*
X333271Y482232D01*
X332780Y482614D01*
X332754Y482696D01*
X332727Y482795D01*
X332720Y482804D01*
X332718Y482813D01*
X332691Y482848D01*
X332622Y482950D01*
X331874Y483762D01*
X331792Y483824D01*
X331713Y483888D01*
X331703Y483892D01*
X331695Y483898D01*
X331653Y483911D01*
X331552Y483948D01*
X331212Y484468D01*
X331183Y484500D01*
X331148Y484551D01*
X330726Y485009D01*
X330715Y485094D01*
X330704Y485196D01*
X330699Y485206D01*
X330698Y485215D01*
X330677Y485254D01*
X330626Y485366D01*
X330022Y486290D01*
X329952Y486365D01*
X329884Y486441D01*
X329874Y486447D01*
X329868Y486454D01*
X329829Y486473D01*
X329735Y486527D01*
X329485Y487096D01*
X329461Y487131D01*
X329455Y487147D01*
X329453Y487149D01*
X329435Y487188D01*
X329095Y487709D01*
X329097Y487794D01*
X329104Y487897D01*
X329101Y487908D01*
X329101Y487917D01*
X329087Y487958D01*
X329055Y488078D01*
X328611Y489089D01*
X328554Y489173D01*
X328500Y489260D01*
X328491Y489267D01*
X328486Y489275D01*
X328451Y489300D01*
X328367Y489369D01*
X328214Y489971D01*
X328197Y490011D01*
X328180Y490071D01*
X327930Y490640D01*
X327947Y490725D01*
X327970Y490824D01*
X327969Y490836D01*
X327971Y490845D01*
X327964Y490888D01*
X327951Y491011D01*
X327680Y492081D01*
X327638Y492174D01*
X327599Y492268D01*
X327591Y492277D01*
X327587Y492285D01*
X327557Y492316D01*
X327486Y492398D01*
X327434Y493017D01*
X327423Y493059D01*
X327417Y493120D01*
X327264Y493724D01*
X327295Y493804D01*
X327333Y493899D01*
X327334Y493910D01*
X327337Y493919D01*
X327338Y493962D01*
X327346Y494086D01*
X327281Y494865D01*
X327271Y494904D01*
X327270Y494944D01*
X327242Y495011D01*
X327223Y495082D01*
X327200Y495115D01*
X327185Y495151D01*
X327136Y495206D01*
X327094Y495265D01*
X327061Y495288D01*
X327034Y495317D01*
X326969Y495351D01*
X326908Y495392D01*
X326870Y495401D01*
X326834Y495420D01*
X326739Y495434D01*
X326691Y495446D01*
X326672Y495444D01*
X326649Y495447D01*
X279043Y495447D01*
X279100Y496162D01*
X279096Y496191D01*
X279101Y496219D01*
X279084Y496288D01*
X279076Y496360D01*
X279062Y496384D01*
X279055Y496412D01*
X279012Y496470D01*
X278977Y496532D01*
X278954Y496549D01*
X278937Y496572D01*
X278875Y496609D01*
X278818Y496652D01*
X278790Y496659D01*
X278766Y496674D01*
X278666Y496690D01*
X278625Y496701D01*
X278615Y496699D01*
X278602Y496701D01*
X259602Y496701D01*
X259526Y496686D01*
X259448Y496677D01*
X259429Y496666D01*
X259407Y496662D01*
X259343Y496618D01*
X259275Y496579D01*
X259259Y496560D01*
X259243Y496549D01*
X259219Y496511D01*
X259169Y496451D01*
X249669Y479951D01*
X249660Y479924D01*
X249644Y479900D01*
X249629Y479830D01*
X249606Y479762D01*
X249609Y479734D01*
X249603Y479706D01*
X249617Y479636D01*
X249622Y479564D01*
X249635Y479539D01*
X249641Y479511D01*
X249681Y479451D01*
X249714Y479388D01*
X249736Y479370D01*
X249752Y479346D01*
X249835Y479288D01*
X249867Y479261D01*
X249878Y479258D01*
X249889Y479251D01*
X250516Y478954D01*
X226722Y437741D01*
X226709Y437704D01*
X226687Y437671D01*
X226671Y437599D01*
X226646Y437530D01*
X226647Y437491D01*
X226638Y437452D01*
X226648Y437380D01*
X226648Y437306D01*
X226663Y437269D01*
X226668Y437230D01*
X226702Y437165D01*
X226729Y437096D01*
X226755Y437067D01*
X226773Y437032D01*
X226843Y436966D01*
X226877Y436928D01*
X226893Y436919D01*
X226910Y436903D01*
X227561Y436451D01*
X227653Y436409D01*
X227745Y436363D01*
X227756Y436362D01*
X227765Y436358D01*
X227808Y436355D01*
X227915Y436340D01*
X228361Y435906D01*
X228396Y435882D01*
X228442Y435840D01*
X228953Y435485D01*
X228983Y435405D01*
X229015Y435308D01*
X229022Y435299D01*
X229025Y435290D01*
X229054Y435257D01*
X229129Y435158D01*
X229917Y434390D01*
X230002Y434333D01*
X230085Y434273D01*
X230095Y434270D01*
X230103Y434265D01*
X230146Y434254D01*
X230249Y434222D01*
X230616Y433721D01*
X230648Y433692D01*
X230685Y433642D01*
X231131Y433208D01*
X231147Y433124D01*
X231163Y433023D01*
X231169Y433013D01*
X231170Y433004D01*
X231193Y432966D01*
X231251Y432857D01*
X231902Y431969D01*
X231976Y431899D01*
X232048Y431826D01*
X232058Y431821D01*
X232065Y431815D01*
X232105Y431798D01*
X232202Y431749D01*
X232482Y431194D01*
X232508Y431160D01*
X232537Y431105D01*
X232905Y430603D01*
X232907Y430518D01*
X232906Y430415D01*
X232910Y430405D01*
X232910Y430395D01*
X232927Y430355D01*
X232965Y430238D01*
X233462Y429255D01*
X233523Y429173D01*
X233582Y429090D01*
X233591Y429083D01*
X233597Y429076D01*
X233633Y429052D01*
X233721Y428988D01*
X233906Y428395D01*
X233926Y428357D01*
X233945Y428298D01*
X234226Y427742D01*
X234214Y427658D01*
X234196Y427557D01*
X234198Y427545D01*
X234197Y427536D01*
X234206Y427494D01*
X234225Y427372D01*
X234553Y426321D01*
X234600Y426230D01*
X234645Y426138D01*
X234653Y426130D01*
X234657Y426122D01*
X234689Y426093D01*
X234765Y426015D01*
X234850Y425399D01*
X234863Y425359D01*
X234872Y425297D01*
X235058Y424703D01*
X235032Y424620D01*
X234998Y424525D01*
X234998Y424514D01*
X234995Y424505D01*
X234998Y424461D01*
X234996Y424337D01*
X235147Y423247D01*
X235178Y423150D01*
X235207Y423052D01*
X235213Y423042D01*
X235216Y423034D01*
X235243Y423000D01*
X235305Y422911D01*
X235288Y422289D01*
X235294Y422247D01*
X235293Y422185D01*
X235378Y421568D01*
X235339Y421492D01*
X235290Y421402D01*
X235288Y421391D01*
X235284Y421383D01*
X235279Y421340D01*
X235257Y421218D01*
X235226Y420117D01*
X235241Y420016D01*
X235253Y419915D01*
X235258Y419905D01*
X235260Y419895D01*
X235281Y419857D01*
X235327Y419760D01*
X235208Y419150D01*
X235207Y419107D01*
X235196Y419045D01*
X235178Y418423D01*
X235128Y418354D01*
X235064Y418274D01*
X235060Y418263D01*
X235055Y418256D01*
X235043Y418214D01*
X235001Y418097D01*
X234790Y417017D01*
X234788Y416915D01*
X234783Y416813D01*
X234786Y416802D01*
X234786Y416793D01*
X234801Y416752D01*
X234830Y416648D01*
X234612Y416066D01*
X234604Y416023D01*
X234583Y415965D01*
X234464Y415354D01*
X234402Y415295D01*
X234326Y415226D01*
X234321Y415216D01*
X234314Y415210D01*
X234295Y415170D01*
X234235Y415062D01*
X233849Y414031D01*
X233830Y413930D01*
X233809Y413831D01*
X233810Y413820D01*
X233808Y413811D01*
X233816Y413767D01*
X233828Y413660D01*
X233517Y413122D01*
X233502Y413082D01*
X233472Y413027D01*
X233253Y412445D01*
X233183Y412396D01*
X233097Y412341D01*
X233090Y412332D01*
X233082Y412326D01*
X233057Y412291D01*
X232980Y412194D01*
X232429Y411241D01*
X232394Y411145D01*
X232357Y411050D01*
X232356Y411039D01*
X232353Y411030D01*
X232353Y410986D01*
X232348Y410878D01*
X231952Y410399D01*
X231931Y410362D01*
X231892Y410313D01*
X231581Y409774D01*
X231503Y409737D01*
X231409Y409697D01*
X231401Y409690D01*
X231392Y409686D01*
X231362Y409654D01*
X231270Y409572D01*
X230570Y408722D01*
X230520Y408633D01*
X230467Y408546D01*
X230464Y408535D01*
X230460Y408527D01*
X230453Y408483D01*
X230430Y408378D01*
X230004Y408008D01*
X229961Y407970D01*
X229934Y407937D01*
X229887Y407895D01*
X229447Y407361D01*
X229420Y407341D01*
X229367Y407315D01*
X229330Y407276D01*
X229286Y407244D01*
X229253Y407195D01*
X229213Y407152D01*
X229192Y407102D01*
X229162Y407057D01*
X229148Y406999D01*
X229125Y406945D01*
X229123Y406891D01*
X229111Y406839D01*
X229118Y406780D01*
X229115Y406721D01*
X229132Y406670D01*
X229139Y406616D01*
X229166Y406564D01*
X229184Y406507D01*
X229222Y406456D01*
X229242Y406417D01*
X229268Y406394D01*
X229296Y406357D01*
X232402Y403250D01*
X232402Y398854D01*
X229293Y395745D01*
X224897Y395745D01*
X221788Y398854D01*
X221788Y401785D01*
X221781Y401826D01*
X221783Y401869D01*
X221761Y401936D01*
X221749Y402006D01*
X221727Y402042D01*
X221714Y402082D01*
X221660Y402155D01*
X221635Y402199D01*
X221618Y402212D01*
X221603Y402233D01*
X221247Y402589D01*
X221246Y402589D01*
X221245Y402590D01*
X221157Y402652D01*
X221063Y402718D01*
X221062Y402718D01*
X221061Y402718D01*
X220952Y402747D01*
X220846Y402774D01*
X220845Y402774D01*
X220844Y402774D01*
X220836Y402774D01*
X220659Y402761D01*
X219896Y402591D01*
X219801Y402551D01*
X219706Y402514D01*
X219698Y402507D01*
X219689Y402504D01*
X219657Y402474D01*
X219574Y402405D01*
X218953Y402371D01*
X218912Y402361D01*
X218850Y402357D01*
X218242Y402221D01*
X218163Y402254D01*
X218069Y402295D01*
X218058Y402296D01*
X218050Y402300D01*
X218006Y402301D01*
X217883Y402313D01*
X216784Y402253D01*
X216685Y402229D01*
X216584Y402209D01*
X216574Y402203D01*
X216565Y402201D01*
X216529Y402177D01*
X216436Y402123D01*
X215818Y402192D01*
X215775Y402189D01*
X215713Y402194D01*
X215092Y402161D01*
X215018Y402206D01*
X214933Y402262D01*
X214923Y402265D01*
X214915Y402270D01*
X214872Y402278D01*
X214752Y402310D01*
X213658Y402432D01*
X213557Y402425D01*
X213454Y402422D01*
X213444Y402418D01*
X213434Y402417D01*
X213395Y402399D01*
X213293Y402361D01*
X212695Y402530D01*
X212653Y402535D01*
X212593Y402551D01*
X211974Y402619D01*
X211910Y402676D01*
X211835Y402746D01*
X211824Y402750D01*
X211817Y402756D01*
X211777Y402772D01*
X211664Y402823D01*
X210605Y403123D01*
X210503Y403133D01*
X210402Y403146D01*
X210391Y403144D01*
X210381Y403145D01*
X210339Y403134D01*
X210233Y403113D01*
X209671Y403379D01*
X209630Y403390D01*
X209573Y403416D01*
X208974Y403585D01*
X208920Y403651D01*
X208858Y403733D01*
X208848Y403739D01*
X208843Y403746D01*
X208805Y403768D01*
X208702Y403837D01*
X208009Y404164D01*
X207971Y404175D01*
X207936Y404194D01*
X207863Y404204D01*
X207793Y404223D01*
X207753Y404219D01*
X207713Y404225D01*
X207642Y404209D01*
X207569Y404202D01*
X207533Y404185D01*
X207494Y404176D01*
X207433Y404137D01*
X207367Y404105D01*
X207339Y404076D01*
X207306Y404055D01*
X207246Y403980D01*
X207211Y403944D01*
X207204Y403927D01*
X207189Y403908D01*
X183394Y362693D01*
X182786Y363113D01*
X182759Y363124D01*
X182737Y363143D01*
X182668Y363163D01*
X182603Y363191D01*
X182574Y363191D01*
X182546Y363199D01*
X182475Y363191D01*
X182404Y363192D01*
X182377Y363180D01*
X182348Y363177D01*
X182286Y363142D01*
X182221Y363114D01*
X182200Y363094D01*
X182175Y363079D01*
X182112Y363002D01*
X182082Y362972D01*
X182078Y362962D01*
X182069Y362951D01*
X172569Y346451D01*
X172545Y346378D01*
X172514Y346308D01*
X172514Y346284D01*
X172506Y346262D01*
X172513Y346186D01*
X172512Y346109D01*
X172521Y346085D01*
X172522Y346064D01*
X172543Y346025D01*
X172562Y345973D01*
X172563Y345967D01*
X172565Y345965D01*
X172569Y345953D01*
X182069Y329453D01*
X182088Y329431D01*
X182101Y329405D01*
X182154Y329357D01*
X182201Y329304D01*
X182227Y329291D01*
X182249Y329272D01*
X182316Y329249D01*
X182380Y329218D01*
X182409Y329217D01*
X182436Y329207D01*
X182508Y329212D01*
X182579Y329209D01*
X182606Y329219D01*
X182635Y329221D01*
X182725Y329263D01*
X182765Y329278D01*
X182773Y329285D01*
X182786Y329291D01*
X183394Y329711D01*
X207189Y288496D01*
X207215Y288465D01*
X207233Y288430D01*
X207287Y288380D01*
X207334Y288324D01*
X207369Y288305D01*
X207398Y288278D01*
X207466Y288250D01*
X207529Y288214D01*
X207569Y288208D01*
X207606Y288193D01*
X207679Y288190D01*
X207751Y288179D01*
X207790Y288187D01*
X207830Y288185D01*
X207921Y288213D01*
X207971Y288223D01*
X207987Y288233D01*
X208009Y288240D01*
X208702Y288567D01*
X208785Y288626D01*
X208870Y288683D01*
X208877Y288692D01*
X208885Y288697D01*
X208909Y288733D01*
X208975Y288819D01*
X209573Y288988D01*
X209612Y289007D01*
X209671Y289025D01*
X210234Y289291D01*
X210319Y289277D01*
X210419Y289257D01*
X210430Y289258D01*
X210439Y289257D01*
X210482Y289265D01*
X210605Y289281D01*
X211664Y289581D01*
X211687Y289592D01*
X211712Y289597D01*
X211778Y289636D01*
X211849Y289668D01*
X211857Y289676D01*
X211866Y289680D01*
X211883Y289698D01*
X211905Y289711D01*
X211934Y289747D01*
X211975Y289785D01*
X212593Y289853D01*
X212634Y289866D01*
X212695Y289874D01*
X213294Y290043D01*
X213376Y290015D01*
X213471Y289979D01*
X213482Y289979D01*
X213491Y289976D01*
X213535Y289977D01*
X213658Y289972D01*
X214752Y290094D01*
X214850Y290123D01*
X214949Y290149D01*
X214958Y290155D01*
X214967Y290158D01*
X215002Y290184D01*
X215092Y290243D01*
X215713Y290210D01*
X215756Y290215D01*
X215818Y290212D01*
X216436Y290281D01*
X216511Y290241D01*
X216600Y290189D01*
X216611Y290187D01*
X216619Y290182D01*
X216662Y290176D01*
X216784Y290151D01*
X217883Y290091D01*
X217984Y290104D01*
X218086Y290113D01*
X218096Y290118D01*
X218106Y290119D01*
X218144Y290139D01*
X218243Y290183D01*
X218850Y290047D01*
X218892Y290045D01*
X218953Y290033D01*
X219575Y289999D01*
X219643Y289946D01*
X219721Y289881D01*
X219732Y289877D01*
X219739Y289871D01*
X219780Y289858D01*
X219896Y289813D01*
X220970Y289573D01*
X221073Y289569D01*
X221174Y289562D01*
X221185Y289564D01*
X221195Y289564D01*
X221236Y289577D01*
X221341Y289604D01*
X221917Y289371D01*
X221959Y289362D01*
X222017Y289340D01*
X222624Y289204D01*
X222682Y289141D01*
X222749Y289063D01*
X222759Y289058D01*
X222765Y289051D01*
X222804Y289031D01*
X222910Y288968D01*
X223931Y288554D01*
X224031Y288533D01*
X224130Y288509D01*
X224141Y288510D01*
X224150Y288508D01*
X224193Y288515D01*
X224301Y288524D01*
X224831Y288199D01*
X224870Y288183D01*
X224924Y288152D01*
X225501Y287918D01*
X225548Y287846D01*
X225601Y287759D01*
X225610Y287751D01*
X225615Y287744D01*
X225650Y287718D01*
X225744Y287638D01*
X226683Y287062D01*
X226778Y287025D01*
X226872Y286985D01*
X226883Y286984D01*
X226892Y286981D01*
X226935Y286980D01*
X227043Y286971D01*
X227512Y286563D01*
X227549Y286541D01*
X227578Y286517D01*
X227578Y286516D01*
X227579Y286516D01*
X227596Y286501D01*
X228127Y286176D01*
X228161Y286097D01*
X228199Y286002D01*
X228207Y285994D01*
X228210Y285985D01*
X228241Y285954D01*
X228321Y285860D01*
X229152Y285137D01*
X229239Y285085D01*
X229325Y285030D01*
X229336Y285027D01*
X229344Y285022D01*
X229387Y285014D01*
X229492Y284988D01*
X229887Y284509D01*
X229920Y284481D01*
X229961Y284434D01*
X230430Y284025D01*
X230451Y283942D01*
X230473Y283842D01*
X230479Y283832D01*
X230481Y283823D01*
X230506Y283787D01*
X230570Y283682D01*
X231270Y282832D01*
X231348Y282766D01*
X231424Y282698D01*
X231434Y282693D01*
X231441Y282687D01*
X231482Y282672D01*
X231581Y282629D01*
X231892Y282091D01*
X231920Y282058D01*
X231952Y282005D01*
X232348Y281525D01*
X232355Y281440D01*
X232360Y281337D01*
X232364Y281327D01*
X232365Y281318D01*
X232384Y281278D01*
X232429Y281163D01*
X232980Y280210D01*
X233046Y280132D01*
X233110Y280052D01*
X233119Y280046D01*
X233125Y280039D01*
X233163Y280017D01*
X233254Y279959D01*
X233472Y279377D01*
X233494Y279340D01*
X233517Y279282D01*
X233828Y278743D01*
X233821Y278658D01*
X233809Y278556D01*
X233812Y278545D01*
X233811Y278536D01*
X233823Y278494D01*
X233849Y278373D01*
X233928Y278160D01*
X233962Y278105D01*
X233986Y278045D01*
X234018Y278009D01*
X234043Y277967D01*
X234093Y277927D01*
X234137Y277879D01*
X234180Y277857D01*
X234218Y277827D01*
X234279Y277806D01*
X234337Y277776D01*
X234393Y277768D01*
X234431Y277755D01*
X234469Y277757D01*
X234522Y277749D01*
X236181Y277749D01*
X236223Y277756D01*
X236265Y277754D01*
X236332Y277776D01*
X236402Y277788D01*
X236439Y277810D01*
X236479Y277823D01*
X236552Y277877D01*
X236595Y277903D01*
X236608Y277919D01*
X236630Y277935D01*
X238702Y280007D01*
X243098Y280007D01*
X244154Y278951D01*
X244186Y278929D01*
X244208Y278905D01*
X244244Y278887D01*
X244296Y278844D01*
X244318Y278837D01*
X244338Y278823D01*
X244397Y278808D01*
X244407Y278803D01*
X244429Y278799D01*
X244508Y278773D01*
X244532Y278773D01*
X244555Y278767D01*
X244644Y278777D01*
X244733Y278779D01*
X244755Y278788D01*
X244778Y278791D01*
X244858Y278830D01*
X244940Y278863D01*
X244958Y278879D01*
X244979Y278890D01*
X245016Y278929D01*
X245017Y278930D01*
X245040Y278955D01*
X245106Y279015D01*
X245117Y279036D01*
X245133Y279053D01*
X245151Y279095D01*
X245157Y279103D01*
X245169Y279138D01*
X245209Y279214D01*
X245212Y279241D01*
X245221Y279260D01*
X245222Y279294D01*
X245229Y279316D01*
X245228Y279347D01*
X245236Y279400D01*
X245236Y287292D01*
X245229Y287334D01*
X245231Y287376D01*
X245209Y287444D01*
X245197Y287513D01*
X245175Y287550D01*
X245162Y287590D01*
X245108Y287663D01*
X245082Y287706D01*
X245066Y287719D01*
X245050Y287741D01*
X244502Y288289D01*
X244502Y292685D01*
X247611Y295794D01*
X252007Y295794D01*
X253628Y294173D01*
X253660Y294150D01*
X253682Y294127D01*
X253718Y294109D01*
X253770Y294066D01*
X253792Y294059D01*
X253812Y294045D01*
X253871Y294030D01*
X253881Y294025D01*
X253902Y294022D01*
X253982Y293994D01*
X254006Y293995D01*
X254029Y293989D01*
X254118Y293998D01*
X254207Y294001D01*
X254229Y294010D01*
X254252Y294012D01*
X254332Y294052D01*
X254415Y294085D01*
X254432Y294101D01*
X254453Y294112D01*
X254490Y294151D01*
X254491Y294151D01*
X254515Y294177D01*
X254580Y294237D01*
X254591Y294258D01*
X254607Y294275D01*
X254625Y294317D01*
X254632Y294325D01*
X254643Y294359D01*
X254683Y294436D01*
X254687Y294462D01*
X254695Y294482D01*
X254696Y294517D01*
X254703Y294538D01*
X254703Y294569D01*
X254710Y294622D01*
X254710Y299268D01*
X256682Y301240D01*
X259896Y304454D01*
X259947Y304527D01*
X260003Y304596D01*
X260010Y304618D01*
X260024Y304638D01*
X260046Y304724D01*
X260075Y304808D01*
X260074Y304832D01*
X260080Y304855D01*
X260071Y304944D01*
X260068Y305033D01*
X260059Y305055D01*
X260057Y305078D01*
X260017Y305158D01*
X259984Y305241D01*
X259968Y305258D01*
X259957Y305279D01*
X259892Y305340D01*
X259832Y305406D01*
X259811Y305417D01*
X259794Y305433D01*
X259712Y305468D01*
X259633Y305509D01*
X259607Y305513D01*
X259587Y305521D01*
X259537Y305523D01*
X259447Y305536D01*
X250549Y305536D01*
X249656Y306429D01*
X249656Y315693D01*
X250549Y316586D01*
X251498Y316586D01*
X251562Y316597D01*
X251628Y316599D01*
X251672Y316617D01*
X251718Y316626D01*
X251775Y316659D01*
X251836Y316684D01*
X251871Y316716D01*
X251912Y316740D01*
X251953Y316791D01*
X252002Y316835D01*
X252023Y316877D01*
X252053Y316914D01*
X252074Y316976D01*
X252104Y317035D01*
X252112Y317089D01*
X252125Y317126D01*
X252124Y317166D01*
X252132Y317220D01*
X252132Y318800D01*
X256280Y322948D01*
X256304Y322983D01*
X256335Y323012D01*
X256368Y323075D01*
X256408Y323133D01*
X256419Y323174D01*
X256438Y323212D01*
X256451Y323301D01*
X256464Y323350D01*
X256462Y323371D01*
X256466Y323397D01*
X256466Y326328D01*
X259574Y329436D01*
X263971Y329436D01*
X267079Y326328D01*
X267079Y321931D01*
X263971Y318823D01*
X261040Y318823D01*
X260998Y318815D01*
X260956Y318817D01*
X260889Y318795D01*
X260819Y318783D01*
X260783Y318761D01*
X260742Y318748D01*
X260669Y318694D01*
X260626Y318669D01*
X260613Y318653D01*
X260591Y318637D01*
X259623Y317669D01*
X259576Y317601D01*
X259544Y317567D01*
X259538Y317553D01*
X259516Y317526D01*
X259509Y317504D01*
X259495Y317484D01*
X259474Y317401D01*
X259456Y317360D01*
X259456Y317347D01*
X259444Y317314D01*
X259445Y317290D01*
X259439Y317267D01*
X259448Y317180D01*
X259446Y317136D01*
X259450Y317124D01*
X259451Y317090D01*
X259460Y317068D01*
X259462Y317044D01*
X259501Y316966D01*
X259515Y316922D01*
X259523Y316911D01*
X259535Y316882D01*
X259551Y316864D01*
X259562Y316843D01*
X259601Y316806D01*
X259626Y316772D01*
X260705Y315693D01*
X260705Y306794D01*
X260721Y306707D01*
X260730Y306618D01*
X260741Y306597D01*
X260745Y306573D01*
X260790Y306497D01*
X260830Y306417D01*
X260847Y306401D01*
X260859Y306380D01*
X260928Y306324D01*
X260993Y306263D01*
X261015Y306254D01*
X261033Y306239D01*
X261118Y306210D01*
X261200Y306176D01*
X261223Y306175D01*
X261246Y306167D01*
X261335Y306170D01*
X261424Y306166D01*
X261446Y306173D01*
X261470Y306174D01*
X261552Y306207D01*
X261637Y306234D01*
X261659Y306250D01*
X261678Y306258D01*
X261715Y306292D01*
X261788Y306346D01*
X291078Y335636D01*
X291102Y335671D01*
X291133Y335699D01*
X291166Y335762D01*
X291206Y335820D01*
X291217Y335861D01*
X291236Y335899D01*
X291249Y335988D01*
X291262Y336037D01*
X291260Y336058D01*
X291264Y336084D01*
X291264Y339015D01*
X293336Y341087D01*
X293360Y341122D01*
X293391Y341151D01*
X293424Y341213D01*
X293464Y341271D01*
X293475Y341312D01*
X293494Y341350D01*
X293507Y341440D01*
X293520Y341489D01*
X293518Y341509D01*
X293522Y341536D01*
X293522Y365092D01*
X302982Y374553D01*
X307479Y374553D01*
X307544Y374564D01*
X307609Y374566D01*
X307653Y374584D01*
X307700Y374593D01*
X307756Y374626D01*
X307817Y374651D01*
X307852Y374683D01*
X307893Y374707D01*
X307934Y374758D01*
X307983Y374802D01*
X308004Y374844D01*
X308034Y374881D01*
X308055Y374943D01*
X308085Y375002D01*
X308094Y375056D01*
X308106Y375093D01*
X308105Y375133D01*
X308113Y375187D01*
X308113Y377136D01*
X309006Y378029D01*
X321269Y378029D01*
X322163Y377136D01*
X322163Y374933D01*
X322174Y374868D01*
X322176Y374803D01*
X322194Y374759D01*
X322202Y374712D01*
X322236Y374655D01*
X322260Y374595D01*
X322292Y374560D01*
X322316Y374519D01*
X322367Y374478D01*
X322412Y374429D01*
X322454Y374407D01*
X322491Y374378D01*
X322553Y374357D01*
X322611Y374327D01*
X322666Y374318D01*
X322703Y374306D01*
X322742Y374307D01*
X322797Y374299D01*
X333983Y374299D01*
X342325Y365957D01*
X342398Y365906D01*
X342467Y365850D01*
X342489Y365843D01*
X342509Y365829D01*
X342595Y365807D01*
X342679Y365778D01*
X342703Y365779D01*
X342726Y365773D01*
X342815Y365782D01*
X342904Y365785D01*
X342926Y365794D01*
X342949Y365796D01*
X343029Y365836D01*
X343111Y365869D01*
X343129Y365885D01*
X343150Y365896D01*
X343211Y365961D01*
X343277Y366021D01*
X343288Y366042D01*
X343304Y366059D01*
X343339Y366141D01*
X343380Y366220D01*
X343383Y366246D01*
X343392Y366266D01*
X343394Y366316D01*
X343407Y366406D01*
X343407Y377279D01*
X343396Y377344D01*
X343394Y377410D01*
X343376Y377453D01*
X343368Y377500D01*
X343334Y377557D01*
X343309Y377617D01*
X343278Y377652D01*
X343253Y377693D01*
X343202Y377735D01*
X343158Y377783D01*
X343116Y377805D01*
X343079Y377834D01*
X343017Y377855D01*
X342958Y377886D01*
X342904Y377894D01*
X342867Y377906D01*
X342827Y377905D01*
X342773Y377913D01*
X334647Y377913D01*
X333754Y378806D01*
X333754Y390070D01*
X334647Y390963D01*
X346911Y390963D01*
X347804Y390070D01*
X347804Y381628D01*
X347811Y381587D01*
X347809Y381544D01*
X347831Y381477D01*
X347844Y381407D01*
X347865Y381371D01*
X347878Y381331D01*
X347932Y381258D01*
X347958Y381214D01*
X347974Y381201D01*
X347990Y381180D01*
X348997Y380173D01*
X348997Y365671D01*
X349008Y365606D01*
X349010Y365541D01*
X349028Y365497D01*
X349036Y365450D01*
X349070Y365393D01*
X349095Y365333D01*
X349126Y365298D01*
X349151Y365257D01*
X349202Y365216D01*
X349246Y365167D01*
X349288Y365145D01*
X349325Y365116D01*
X349387Y365095D01*
X349446Y365065D01*
X349500Y365056D01*
X349537Y365044D01*
X349577Y365045D01*
X349631Y365037D01*
X362083Y365037D01*
X371704Y355415D01*
X371704Y296539D01*
X369733Y294568D01*
X365870Y290705D01*
X363899Y288734D01*
X335706Y288734D01*
X334801Y289639D01*
X334728Y289690D01*
X334659Y289746D01*
X334637Y289753D01*
X334617Y289767D01*
X334531Y289789D01*
X334447Y289817D01*
X334423Y289817D01*
X334400Y289823D01*
X334311Y289813D01*
X334222Y289811D01*
X334200Y289802D01*
X334177Y289799D01*
X334097Y289760D01*
X334014Y289727D01*
X333997Y289711D01*
X333976Y289700D01*
X333914Y289635D01*
X333849Y289575D01*
X333838Y289554D01*
X333822Y289537D01*
X333787Y289455D01*
X333746Y289376D01*
X333742Y289349D01*
X333734Y289330D01*
X333732Y289280D01*
X333719Y289190D01*
X333719Y288033D01*
X333730Y287969D01*
X333732Y287903D01*
X333750Y287859D01*
X333758Y287813D01*
X333792Y287756D01*
X333817Y287695D01*
X333848Y287660D01*
X333872Y287619D01*
X333924Y287578D01*
X333968Y287529D01*
X334010Y287508D01*
X334047Y287478D01*
X334109Y287457D01*
X334168Y287427D01*
X334222Y287419D01*
X334259Y287406D01*
X334298Y287407D01*
X334353Y287399D01*
X337496Y287399D01*
X340605Y284291D01*
X340605Y279894D01*
X337496Y276786D01*
X333100Y276786D01*
X330926Y278959D01*
X330891Y278984D01*
X330862Y279015D01*
X330800Y279047D01*
X330742Y279088D01*
X330701Y279098D01*
X330663Y279118D01*
X330573Y279131D01*
X330524Y279144D01*
X330504Y279141D01*
X330477Y279145D01*
X325232Y279145D01*
X318281Y286097D01*
X318246Y286121D01*
X318217Y286152D01*
X318154Y286185D01*
X318097Y286225D01*
X318055Y286236D01*
X318018Y286255D01*
X317928Y286268D01*
X317879Y286281D01*
X317859Y286279D01*
X317832Y286283D01*
X280106Y286283D01*
X280065Y286275D01*
X280022Y286277D01*
X279955Y286255D01*
X279886Y286243D01*
X279849Y286221D01*
X279809Y286208D01*
X279736Y286155D01*
X279692Y286129D01*
X279679Y286113D01*
X279658Y286097D01*
X277558Y283997D01*
X277534Y283962D01*
X277502Y283933D01*
X277470Y283870D01*
X277430Y283813D01*
X277419Y283771D01*
X277400Y283734D01*
X277386Y283644D01*
X277374Y283595D01*
X277376Y283575D01*
X277372Y283548D01*
X277372Y283190D01*
X277380Y283148D01*
X277378Y283105D01*
X277399Y283038D01*
X277412Y282969D01*
X277433Y282932D01*
X277446Y282892D01*
X277500Y282819D01*
X277526Y282776D01*
X277542Y282762D01*
X277558Y282741D01*
X277796Y282503D01*
X277796Y276740D01*
X276903Y275847D01*
X267140Y275847D01*
X266925Y276061D01*
X266893Y276084D01*
X266871Y276108D01*
X266869Y276109D01*
X266862Y276116D01*
X266799Y276149D01*
X266741Y276189D01*
X266700Y276199D01*
X266662Y276219D01*
X266573Y276232D01*
X266524Y276245D01*
X266503Y276243D01*
X266477Y276247D01*
X261442Y276247D01*
X261377Y276235D01*
X261312Y276233D01*
X261268Y276215D01*
X261221Y276207D01*
X261165Y276173D01*
X261104Y276149D01*
X261069Y276117D01*
X261028Y276093D01*
X260987Y276042D01*
X260938Y275997D01*
X260917Y275955D01*
X260887Y275919D01*
X260866Y275856D01*
X260836Y275798D01*
X260827Y275743D01*
X260815Y275706D01*
X260815Y275698D01*
X260815Y275697D01*
X260816Y275665D01*
X260808Y275612D01*
X260808Y269398D01*
X260815Y269357D01*
X260814Y269314D01*
X260835Y269247D01*
X260848Y269178D01*
X260869Y269141D01*
X260882Y269101D01*
X260936Y269028D01*
X260962Y268984D01*
X260978Y268971D01*
X260994Y268950D01*
X261962Y267982D01*
X261997Y267958D01*
X262025Y267926D01*
X262088Y267894D01*
X262146Y267854D01*
X262187Y267843D01*
X262225Y267824D01*
X262315Y267810D01*
X262363Y267798D01*
X262384Y267800D01*
X262410Y267796D01*
X266477Y267796D01*
X266519Y267804D01*
X266561Y267802D01*
X266628Y267823D01*
X266698Y267836D01*
X266734Y267857D01*
X266775Y267870D01*
X266848Y267924D01*
X266891Y267950D01*
X266904Y267966D01*
X266925Y267982D01*
X267140Y268196D01*
X271148Y268196D01*
X271213Y268208D01*
X271279Y268210D01*
X271323Y268227D01*
X271369Y268236D01*
X271426Y268269D01*
X271487Y268294D01*
X271522Y268326D01*
X271562Y268350D01*
X271604Y268401D01*
X271652Y268445D01*
X271664Y268467D01*
X273233Y270037D01*
X273234Y270037D01*
X275056Y271860D01*
X275541Y271860D01*
X275583Y271868D01*
X275625Y271866D01*
X275692Y271887D01*
X275762Y271900D01*
X275798Y271921D01*
X275839Y271934D01*
X275912Y271988D01*
X275955Y272014D01*
X275968Y272030D01*
X275990Y272046D01*
X276740Y272796D01*
X277963Y272796D01*
X278004Y272804D01*
X278047Y272802D01*
X278114Y272823D01*
X278118Y272824D01*
X289576Y272824D01*
X292189Y270211D01*
X292224Y270187D01*
X292253Y270156D01*
X292315Y270123D01*
X292373Y270083D01*
X292414Y270072D01*
X292452Y270053D01*
X292542Y270040D01*
X292591Y270027D01*
X292611Y270029D01*
X292638Y270025D01*
X300005Y270025D01*
X300721Y269310D01*
X300755Y269285D01*
X300784Y269254D01*
X300847Y269222D01*
X300905Y269182D01*
X300946Y269171D01*
X300984Y269152D01*
X301073Y269138D01*
X301122Y269126D01*
X301143Y269128D01*
X301169Y269124D01*
X305347Y269124D01*
X305689Y268782D01*
X305717Y268763D01*
X305722Y268757D01*
X305733Y268751D01*
X305762Y268731D01*
X305831Y268675D01*
X305854Y268668D01*
X305873Y268654D01*
X305959Y268632D01*
X306044Y268603D01*
X306067Y268604D01*
X306090Y268598D01*
X306179Y268607D01*
X306268Y268610D01*
X306290Y268619D01*
X306313Y268621D01*
X306394Y268661D01*
X306476Y268694D01*
X306493Y268710D01*
X306515Y268721D01*
X306576Y268786D01*
X306641Y268846D01*
X306652Y268867D01*
X306668Y268884D01*
X306703Y268966D01*
X306744Y269045D01*
X306748Y269071D01*
X306756Y269091D01*
X306758Y269141D01*
X306760Y269155D01*
X306765Y269168D01*
X306764Y269181D01*
X306772Y269231D01*
X306772Y269310D01*
X307665Y270203D01*
X318928Y270203D01*
X319821Y269310D01*
X319821Y268385D01*
X319833Y268321D01*
X319835Y268255D01*
X319852Y268211D01*
X319861Y268165D01*
X319894Y268108D01*
X319919Y268047D01*
X319951Y268012D01*
X319975Y267971D01*
X320026Y267930D01*
X320070Y267881D01*
X320112Y267860D01*
X320149Y267830D01*
X320211Y267809D01*
X320270Y267779D01*
X320324Y267771D01*
X320362Y267758D01*
X320401Y267759D01*
X320455Y267751D01*
X364318Y267751D01*
X371662Y260407D01*
X371697Y260383D01*
X371725Y260351D01*
X371788Y260319D01*
X371846Y260279D01*
X371887Y260268D01*
X371925Y260249D01*
X372015Y260235D01*
X372063Y260223D01*
X372084Y260225D01*
X372110Y260221D01*
X372886Y260221D01*
X375994Y257113D01*
X375994Y252716D01*
X372886Y249608D01*
X368489Y249608D01*
X365381Y252716D01*
X365381Y253492D01*
X365373Y253533D01*
X365375Y253576D01*
X365354Y253643D01*
X365341Y253712D01*
X365320Y253749D01*
X365307Y253789D01*
X365253Y253862D01*
X365227Y253906D01*
X365211Y253919D01*
X365195Y253940D01*
X360715Y258420D01*
X360680Y258444D01*
X360652Y258475D01*
X360589Y258508D01*
X360531Y258548D01*
X360490Y258559D01*
X360452Y258578D01*
X360363Y258591D01*
X360314Y258604D01*
X360293Y258602D01*
X360267Y258606D01*
X320455Y258606D01*
X320390Y258594D01*
X320325Y258592D01*
X320281Y258574D01*
X320234Y258566D01*
X320178Y258532D01*
X320117Y258508D01*
X320082Y258476D01*
X320041Y258452D01*
X320000Y258401D01*
X319951Y258356D01*
X319930Y258314D01*
X319900Y258278D01*
X319879Y258215D01*
X319849Y258157D01*
X319841Y258102D01*
X319828Y258065D01*
X319829Y258026D01*
X319821Y257971D01*
X319821Y257047D01*
X318928Y256154D01*
X307665Y256154D01*
X306772Y257047D01*
X306772Y257971D01*
X306760Y258036D01*
X306758Y258102D01*
X306740Y258146D01*
X306732Y258192D01*
X306698Y258249D01*
X306674Y258310D01*
X306642Y258345D01*
X306618Y258385D01*
X306567Y258427D01*
X306522Y258475D01*
X306480Y258497D01*
X306444Y258527D01*
X306381Y258548D01*
X306323Y258578D01*
X306268Y258586D01*
X306231Y258599D01*
X306192Y258598D01*
X306137Y258606D01*
X305705Y258606D01*
X305663Y258598D01*
X305621Y258600D01*
X305554Y258578D01*
X305484Y258566D01*
X305448Y258544D01*
X305407Y258531D01*
X305379Y258510D01*
X301532Y258510D01*
X301467Y258499D01*
X301402Y258497D01*
X301358Y258479D01*
X301311Y258471D01*
X301255Y258437D01*
X301194Y258412D01*
X301159Y258381D01*
X301118Y258357D01*
X301077Y258305D01*
X301028Y258261D01*
X301007Y258219D01*
X300977Y258182D01*
X300956Y258120D01*
X300926Y258061D01*
X300918Y258007D01*
X300905Y257970D01*
X300906Y257941D01*
X300905Y257938D01*
X300905Y257925D01*
X300898Y257876D01*
X300898Y256869D01*
X300005Y255976D01*
X292380Y255976D01*
X292293Y255960D01*
X292204Y255951D01*
X292183Y255940D01*
X292159Y255936D01*
X292083Y255891D01*
X292003Y255851D01*
X291987Y255834D01*
X291966Y255822D01*
X291910Y255753D01*
X291849Y255688D01*
X291840Y255666D01*
X291825Y255648D01*
X291796Y255564D01*
X291762Y255482D01*
X291761Y255458D01*
X291753Y255435D01*
X291756Y255346D01*
X291752Y255257D01*
X291759Y255235D01*
X291760Y255211D01*
X291793Y255129D01*
X291820Y255044D01*
X291836Y255023D01*
X291844Y255003D01*
X291878Y254966D01*
X291932Y254893D01*
X293029Y253796D01*
X293064Y253771D01*
X293093Y253740D01*
X293156Y253708D01*
X293214Y253668D01*
X293255Y253657D01*
X293292Y253638D01*
X293382Y253624D01*
X293431Y253612D01*
X293452Y253614D01*
X293478Y253610D01*
X330500Y253610D01*
X330542Y253617D01*
X330585Y253615D01*
X330652Y253637D01*
X330721Y253650D01*
X330758Y253671D01*
X330798Y253684D01*
X330871Y253738D01*
X330915Y253764D01*
X330928Y253780D01*
X330949Y253796D01*
X333374Y256221D01*
X337770Y256221D01*
X340879Y253112D01*
X340879Y248716D01*
X337770Y245607D01*
X333374Y245607D01*
X331146Y247835D01*
X331112Y247859D01*
X331083Y247890D01*
X331020Y247922D01*
X330962Y247963D01*
X330921Y247973D01*
X330883Y247993D01*
X330794Y248006D01*
X330745Y248019D01*
X330724Y248016D01*
X330698Y248020D01*
X290900Y248020D01*
X289077Y249843D01*
X286920Y252000D01*
X286847Y252051D01*
X286778Y252107D01*
X286756Y252114D01*
X286736Y252128D01*
X286650Y252150D01*
X286566Y252179D01*
X286542Y252178D01*
X286519Y252184D01*
X286430Y252175D01*
X286341Y252172D01*
X286319Y252163D01*
X286296Y252161D01*
X286216Y252121D01*
X286133Y252088D01*
X286116Y252072D01*
X286095Y252061D01*
X286034Y251996D01*
X285968Y251936D01*
X285957Y251915D01*
X285941Y251898D01*
X285906Y251816D01*
X285865Y251737D01*
X285861Y251711D01*
X285853Y251691D01*
X285851Y251641D01*
X285838Y251551D01*
X285838Y238579D01*
X284945Y237685D01*
X270681Y237685D01*
X269788Y238579D01*
X269788Y254842D01*
X270713Y255766D01*
X270759Y255775D01*
X270816Y255808D01*
X270876Y255833D01*
X270911Y255865D01*
X270952Y255889D01*
X270994Y255940D01*
X271042Y255984D01*
X271064Y256026D01*
X271093Y256063D01*
X271114Y256125D01*
X271145Y256184D01*
X271153Y256238D01*
X271165Y256275D01*
X271164Y256315D01*
X271172Y256369D01*
X271172Y256779D01*
X271156Y256867D01*
X271147Y256955D01*
X271137Y256976D01*
X271133Y257000D01*
X271087Y257076D01*
X271048Y257156D01*
X271031Y257172D01*
X271018Y257193D01*
X270949Y257249D01*
X270885Y257310D01*
X270863Y257319D01*
X270844Y257334D01*
X270760Y257363D01*
X270678Y257397D01*
X270654Y257398D01*
X270632Y257406D01*
X270543Y257403D01*
X270454Y257407D01*
X270431Y257400D01*
X270407Y257399D01*
X270325Y257366D01*
X270240Y257339D01*
X270219Y257323D01*
X270200Y257315D01*
X270162Y257281D01*
X270090Y257227D01*
X267023Y254161D01*
X266999Y254126D01*
X266968Y254098D01*
X266936Y254035D01*
X266895Y253977D01*
X266885Y253936D01*
X266865Y253898D01*
X266852Y253808D01*
X266839Y253760D01*
X266842Y253739D01*
X266838Y253713D01*
X266838Y238579D01*
X265945Y237685D01*
X251681Y237685D01*
X250788Y238579D01*
X250788Y254842D01*
X251681Y255735D01*
X260430Y255735D01*
X260472Y255742D01*
X260514Y255741D01*
X260581Y255762D01*
X260651Y255775D01*
X260687Y255796D01*
X260728Y255809D01*
X260800Y255863D01*
X260844Y255889D01*
X260857Y255905D01*
X260878Y255921D01*
X265121Y260164D01*
X265172Y260237D01*
X265228Y260306D01*
X265236Y260328D01*
X265250Y260348D01*
X265272Y260434D01*
X265300Y260519D01*
X265300Y260542D01*
X265306Y260565D01*
X265296Y260654D01*
X265294Y260743D01*
X265285Y260765D01*
X265282Y260788D01*
X265243Y260868D01*
X265209Y260951D01*
X265193Y260968D01*
X265183Y260990D01*
X265118Y261051D01*
X265058Y261116D01*
X265037Y261127D01*
X265020Y261144D01*
X264938Y261178D01*
X264858Y261219D01*
X264832Y261223D01*
X264813Y261231D01*
X264763Y261233D01*
X264673Y261247D01*
X261540Y261247D01*
X261500Y261287D01*
X261465Y261311D01*
X261436Y261342D01*
X261373Y261375D01*
X261315Y261415D01*
X261274Y261425D01*
X261236Y261445D01*
X261147Y261458D01*
X261098Y261471D01*
X261077Y261469D01*
X261051Y261473D01*
X259848Y261473D01*
X257876Y263444D01*
X256198Y265122D01*
X256125Y265173D01*
X256056Y265229D01*
X256034Y265237D01*
X256014Y265250D01*
X255928Y265272D01*
X255844Y265301D01*
X255820Y265300D01*
X255797Y265306D01*
X255708Y265297D01*
X255619Y265294D01*
X255597Y265285D01*
X255574Y265283D01*
X255494Y265243D01*
X255412Y265210D01*
X255394Y265194D01*
X255373Y265183D01*
X255312Y265119D01*
X255246Y265059D01*
X255235Y265037D01*
X255219Y265020D01*
X255184Y264938D01*
X255143Y264859D01*
X255140Y264833D01*
X255131Y264814D01*
X255129Y264763D01*
X255116Y264674D01*
X255116Y264159D01*
X252007Y261050D01*
X247611Y261050D01*
X244502Y264159D01*
X244502Y268555D01*
X245050Y269103D01*
X245075Y269138D01*
X245106Y269167D01*
X245138Y269230D01*
X245179Y269288D01*
X245189Y269329D01*
X245209Y269367D01*
X245222Y269456D01*
X245235Y269505D01*
X245232Y269526D01*
X245236Y269552D01*
X245236Y270000D01*
X245221Y270088D01*
X245211Y270176D01*
X245201Y270198D01*
X245197Y270221D01*
X245151Y270298D01*
X245112Y270377D01*
X245095Y270394D01*
X245082Y270414D01*
X245013Y270470D01*
X244949Y270531D01*
X244927Y270541D01*
X244908Y270556D01*
X244824Y270584D01*
X244742Y270619D01*
X244718Y270620D01*
X244696Y270627D01*
X244607Y270625D01*
X244518Y270629D01*
X244495Y270622D01*
X244471Y270621D01*
X244389Y270587D01*
X244304Y270560D01*
X244283Y270544D01*
X244264Y270537D01*
X244226Y270503D01*
X244154Y270449D01*
X243098Y269393D01*
X238702Y269393D01*
X236630Y271465D01*
X236595Y271490D01*
X236566Y271521D01*
X236503Y271553D01*
X236445Y271594D01*
X236404Y271604D01*
X236367Y271624D01*
X236277Y271637D01*
X236228Y271650D01*
X236207Y271647D01*
X236181Y271651D01*
X236033Y271651D01*
X235988Y271643D01*
X235941Y271645D01*
X235878Y271623D01*
X235812Y271612D01*
X235772Y271588D01*
X235729Y271573D01*
X235677Y271531D01*
X235619Y271497D01*
X235590Y271462D01*
X235554Y271433D01*
X235520Y271375D01*
X235478Y271323D01*
X235463Y271279D01*
X235439Y271240D01*
X235427Y271174D01*
X235406Y271111D01*
X235407Y271065D01*
X235399Y271019D01*
X235402Y271004D01*
X235293Y270219D01*
X235295Y270176D01*
X235288Y270115D01*
X235305Y269493D01*
X235258Y269421D01*
X235199Y269337D01*
X235196Y269326D01*
X235191Y269318D01*
X235182Y269276D01*
X235147Y269157D01*
X234996Y268067D01*
X235000Y267965D01*
X235001Y267862D01*
X235005Y267852D01*
X235005Y267842D01*
X235022Y267802D01*
X235058Y267700D01*
X234872Y267107D01*
X234867Y267064D01*
X234850Y267004D01*
X234765Y266388D01*
X234706Y266325D01*
X234635Y266252D01*
X234630Y266242D01*
X234624Y266235D01*
X234607Y266195D01*
X234553Y266083D01*
X234225Y265032D01*
X234213Y264931D01*
X234197Y264830D01*
X234198Y264819D01*
X234197Y264810D01*
X234207Y264768D01*
X234217Y264713D01*
X234217Y264691D01*
X234223Y264678D01*
X234225Y264661D01*
X233945Y264106D01*
X233933Y264065D01*
X233906Y264009D01*
X233720Y263415D01*
X233653Y263362D01*
X233570Y263302D01*
X233563Y263293D01*
X233556Y263287D01*
X233533Y263250D01*
X233462Y263149D01*
X232965Y262166D01*
X232936Y262069D01*
X232904Y261972D01*
X232904Y261960D01*
X232901Y261951D01*
X232904Y261908D01*
X232904Y261800D01*
X232537Y261299D01*
X232518Y261260D01*
X232482Y261210D01*
X232201Y260654D01*
X232126Y260613D01*
X232034Y260568D01*
X232026Y260560D01*
X232018Y260555D01*
X231989Y260522D01*
X231902Y260435D01*
X231251Y259547D01*
X231206Y259456D01*
X231158Y259365D01*
X231156Y259354D01*
X231152Y259346D01*
X231148Y259302D01*
X231130Y259196D01*
X230685Y258762D01*
X230660Y258727D01*
X230616Y258683D01*
X230248Y258181D01*
X230167Y258153D01*
X230069Y258123D01*
X230060Y258117D01*
X230051Y258114D01*
X230017Y258086D01*
X229917Y258014D01*
X229129Y257246D01*
X229069Y257162D01*
X229007Y257081D01*
X229003Y257071D01*
X228998Y257063D01*
X228987Y257021D01*
X228952Y256919D01*
X228442Y256564D01*
X228411Y256534D01*
X228361Y256498D01*
X227915Y256063D01*
X227830Y256049D01*
X227729Y256036D01*
X227719Y256031D01*
X227709Y256029D01*
X227672Y256007D01*
X227561Y255953D01*
X226910Y255501D01*
X226882Y255473D01*
X226848Y255452D01*
X226803Y255394D01*
X226751Y255342D01*
X226735Y255306D01*
X226710Y255275D01*
X226688Y255205D01*
X226657Y255138D01*
X226654Y255099D01*
X226643Y255061D01*
X226646Y254988D01*
X226641Y254914D01*
X226652Y254877D01*
X226654Y254837D01*
X226689Y254747D01*
X226703Y254699D01*
X226714Y254684D01*
X226722Y254663D01*
X250516Y213450D01*
X249889Y213153D01*
X249866Y213136D01*
X249839Y213126D01*
X249787Y213077D01*
X249729Y213034D01*
X249715Y213009D01*
X249694Y212990D01*
X249665Y212924D01*
X249629Y212862D01*
X249626Y212834D01*
X249614Y212808D01*
X249613Y212736D01*
X249604Y212665D01*
X249612Y212638D01*
X249612Y212609D01*
X249647Y212514D01*
X249658Y212474D01*
X249665Y212465D01*
X249669Y212453D01*
X259169Y195953D01*
X259221Y195895D01*
X259267Y195832D01*
X259286Y195821D01*
X259301Y195804D01*
X259371Y195770D01*
X259438Y195730D01*
X259463Y195726D01*
X259480Y195718D01*
X259525Y195716D01*
X259602Y195703D01*
X278602Y195703D01*
X278630Y195708D01*
G37*
G36*
X351403Y294847D02*
X351403Y294847D01*
X351491Y294856D01*
X351512Y294867D01*
X351536Y294871D01*
X351613Y294916D01*
X351692Y294956D01*
X351709Y294973D01*
X351729Y294985D01*
X351785Y295054D01*
X351846Y295119D01*
X351855Y295141D01*
X351870Y295159D01*
X351899Y295243D01*
X351934Y295326D01*
X351935Y295349D01*
X351942Y295372D01*
X351940Y295461D01*
X351944Y295550D01*
X351936Y295572D01*
X351936Y295596D01*
X351902Y295678D01*
X351875Y295763D01*
X351859Y295785D01*
X351851Y295804D01*
X351817Y295841D01*
X351763Y295914D01*
X351222Y296455D01*
X351222Y300851D01*
X354331Y303960D01*
X357262Y303960D01*
X357303Y303967D01*
X357346Y303966D01*
X357413Y303987D01*
X357482Y304000D01*
X357519Y304021D01*
X357559Y304034D01*
X357632Y304088D01*
X357676Y304114D01*
X357689Y304130D01*
X357710Y304146D01*
X360659Y307094D01*
X360683Y307129D01*
X360714Y307158D01*
X360746Y307221D01*
X360787Y307278D01*
X360797Y307320D01*
X360817Y307357D01*
X360830Y307447D01*
X360843Y307496D01*
X360840Y307517D01*
X360844Y307543D01*
X360844Y338936D01*
X360837Y338978D01*
X360839Y339020D01*
X360817Y339087D01*
X360805Y339157D01*
X360783Y339193D01*
X360770Y339234D01*
X360716Y339307D01*
X360691Y339350D01*
X360674Y339363D01*
X360659Y339385D01*
X360172Y339871D01*
X360162Y339930D01*
X360140Y339967D01*
X360127Y340007D01*
X360073Y340080D01*
X360047Y340123D01*
X360031Y340137D01*
X360015Y340158D01*
X359685Y340488D01*
X359651Y340512D01*
X359622Y340543D01*
X359559Y340576D01*
X359501Y340616D01*
X359460Y340626D01*
X359422Y340646D01*
X359333Y340659D01*
X359284Y340672D01*
X359263Y340670D01*
X359237Y340674D01*
X356564Y340674D01*
X356476Y340762D01*
X356445Y340783D01*
X356429Y340801D01*
X356426Y340803D01*
X356412Y340817D01*
X356350Y340850D01*
X356292Y340890D01*
X356251Y340900D01*
X356213Y340920D01*
X356123Y340933D01*
X356075Y340946D01*
X356054Y340944D01*
X356027Y340948D01*
X354611Y340948D01*
X354546Y340936D01*
X354480Y340934D01*
X354437Y340916D01*
X354390Y340908D01*
X354333Y340874D01*
X354273Y340850D01*
X354238Y340818D01*
X354197Y340794D01*
X354155Y340743D01*
X354107Y340698D01*
X354085Y340656D01*
X354056Y340620D01*
X354035Y340557D01*
X354004Y340499D01*
X353996Y340444D01*
X353984Y340407D01*
X353984Y340392D01*
X353984Y340391D01*
X353984Y340365D01*
X353977Y340313D01*
X353977Y338897D01*
X353984Y338855D01*
X353982Y338813D01*
X354004Y338746D01*
X354016Y338676D01*
X354038Y338639D01*
X354051Y338599D01*
X354105Y338526D01*
X354131Y338483D01*
X354147Y338470D01*
X354163Y338448D01*
X354251Y338360D01*
X354251Y335834D01*
X354163Y335746D01*
X354138Y335711D01*
X354107Y335683D01*
X354075Y335620D01*
X354034Y335562D01*
X354024Y335521D01*
X354004Y335483D01*
X353991Y335394D01*
X353978Y335345D01*
X353981Y335324D01*
X353977Y335298D01*
X353977Y334091D01*
X353435Y333549D01*
X353384Y333476D01*
X353328Y333406D01*
X353320Y333384D01*
X353307Y333364D01*
X353284Y333278D01*
X353256Y333194D01*
X353257Y333170D01*
X353251Y333147D01*
X353260Y333059D01*
X353262Y332970D01*
X353271Y332948D01*
X353274Y332924D01*
X353313Y332844D01*
X353347Y332762D01*
X353363Y332744D01*
X353373Y332723D01*
X353438Y332662D01*
X353498Y332596D01*
X353519Y332585D01*
X353537Y332569D01*
X353619Y332534D01*
X353698Y332494D01*
X353724Y332490D01*
X353743Y332482D01*
X353794Y332479D01*
X353818Y332476D01*
X354721Y331573D01*
X354721Y319310D01*
X353828Y318416D01*
X342564Y318416D01*
X341671Y319310D01*
X341671Y320285D01*
X341660Y320350D01*
X341658Y320416D01*
X341640Y320459D01*
X341631Y320506D01*
X341598Y320563D01*
X341573Y320624D01*
X341541Y320658D01*
X341517Y320699D01*
X341466Y320741D01*
X341422Y320789D01*
X341380Y320811D01*
X341343Y320840D01*
X341281Y320862D01*
X341222Y320892D01*
X341168Y320900D01*
X341131Y320912D01*
X341091Y320911D01*
X341037Y320919D01*
X337257Y320919D01*
X337193Y320908D01*
X337127Y320906D01*
X337083Y320888D01*
X337037Y320880D01*
X336980Y320846D01*
X336919Y320821D01*
X336884Y320790D01*
X336843Y320766D01*
X336802Y320714D01*
X336753Y320670D01*
X336732Y320628D01*
X336702Y320591D01*
X336681Y320529D01*
X336651Y320470D01*
X336643Y320416D01*
X336630Y320379D01*
X336631Y320339D01*
X336623Y320285D01*
X336623Y319360D01*
X335730Y318467D01*
X324467Y318467D01*
X323574Y319360D01*
X323574Y331624D01*
X324467Y332517D01*
X335730Y332517D01*
X336623Y331624D01*
X336623Y330699D01*
X336635Y330634D01*
X336637Y330568D01*
X336654Y330525D01*
X336663Y330478D01*
X336696Y330421D01*
X336721Y330361D01*
X336753Y330326D01*
X336777Y330285D01*
X336828Y330244D01*
X336872Y330195D01*
X336914Y330173D01*
X336951Y330144D01*
X337013Y330123D01*
X337072Y330092D01*
X337126Y330084D01*
X337164Y330072D01*
X337203Y330073D01*
X337257Y330065D01*
X341037Y330065D01*
X341102Y330076D01*
X341167Y330078D01*
X341211Y330096D01*
X341258Y330104D01*
X341315Y330138D01*
X341375Y330163D01*
X341410Y330194D01*
X341451Y330219D01*
X341492Y330270D01*
X341541Y330314D01*
X341563Y330356D01*
X341592Y330393D01*
X341613Y330455D01*
X341643Y330514D01*
X341652Y330568D01*
X341664Y330605D01*
X341663Y330645D01*
X341671Y330699D01*
X341671Y331573D01*
X342564Y332466D01*
X342773Y332466D01*
X342838Y332478D01*
X342904Y332480D01*
X342947Y332497D01*
X342994Y332506D01*
X343051Y332539D01*
X343111Y332564D01*
X343146Y332596D01*
X343187Y332620D01*
X343229Y332671D01*
X343277Y332715D01*
X343299Y332757D01*
X343328Y332794D01*
X343349Y332856D01*
X343380Y332915D01*
X343388Y332969D01*
X343400Y333006D01*
X343399Y333046D01*
X343407Y333100D01*
X343407Y335318D01*
X343400Y335360D01*
X343402Y335402D01*
X343380Y335469D01*
X343368Y335539D01*
X343346Y335575D01*
X343333Y335616D01*
X343279Y335688D01*
X343253Y335732D01*
X343237Y335745D01*
X343221Y335766D01*
X343153Y335834D01*
X343153Y338360D01*
X343221Y338428D01*
X343246Y338463D01*
X343277Y338492D01*
X343309Y338555D01*
X343350Y338613D01*
X343360Y338654D01*
X343380Y338691D01*
X343393Y338781D01*
X343406Y338830D01*
X343403Y338851D01*
X343407Y338877D01*
X343407Y339140D01*
X343413Y339178D01*
X343425Y339227D01*
X343423Y339248D01*
X343427Y339274D01*
X343427Y340104D01*
X343663Y340339D01*
X343700Y340393D01*
X343745Y340441D01*
X343764Y340485D01*
X343791Y340524D01*
X343807Y340587D01*
X343833Y340648D01*
X343835Y340695D01*
X343847Y340741D01*
X343840Y340806D01*
X343843Y340872D01*
X343828Y340917D01*
X343824Y340964D01*
X343794Y341023D01*
X343774Y341086D01*
X343742Y341130D01*
X343724Y341165D01*
X343695Y341192D01*
X343663Y341236D01*
X343435Y341464D01*
X343435Y345860D01*
X346544Y348969D01*
X350940Y348969D01*
X352845Y347064D01*
X352918Y347013D01*
X352987Y346957D01*
X353009Y346950D01*
X353029Y346936D01*
X353115Y346914D01*
X353199Y346886D01*
X353223Y346886D01*
X353246Y346880D01*
X353335Y346890D01*
X353424Y346892D01*
X353446Y346901D01*
X353469Y346904D01*
X353549Y346943D01*
X353631Y346976D01*
X353649Y346992D01*
X353670Y347003D01*
X353731Y347068D01*
X353797Y347128D01*
X353808Y347149D01*
X353824Y347166D01*
X353859Y347248D01*
X353900Y347327D01*
X353903Y347354D01*
X353912Y347373D01*
X353914Y347423D01*
X353927Y347513D01*
X353927Y350604D01*
X354097Y350774D01*
X354135Y350828D01*
X354180Y350876D01*
X354198Y350919D01*
X354225Y350958D01*
X354242Y351022D01*
X354267Y351082D01*
X354269Y351130D01*
X354281Y351175D01*
X354274Y351241D01*
X354277Y351306D01*
X354263Y351351D01*
X354258Y351398D01*
X354229Y351457D01*
X354209Y351520D01*
X354176Y351564D01*
X354159Y351600D01*
X354130Y351627D01*
X354097Y351671D01*
X353927Y351841D01*
X353927Y355604D01*
X354820Y356497D01*
X360468Y356497D01*
X360556Y356513D01*
X360644Y356522D01*
X360665Y356533D01*
X360689Y356537D01*
X360766Y356582D01*
X360845Y356621D01*
X360862Y356639D01*
X360882Y356651D01*
X360938Y356720D01*
X360999Y356785D01*
X361008Y356807D01*
X361023Y356825D01*
X361052Y356909D01*
X361087Y356991D01*
X361088Y357015D01*
X361095Y357038D01*
X361093Y357127D01*
X361097Y357216D01*
X361089Y357238D01*
X361089Y357262D01*
X361055Y357344D01*
X361028Y357429D01*
X361012Y357450D01*
X361004Y357470D01*
X360970Y357507D01*
X360916Y357580D01*
X359743Y358754D01*
X359708Y358778D01*
X359679Y358809D01*
X359616Y358841D01*
X359558Y358882D01*
X359517Y358892D01*
X359480Y358912D01*
X359390Y358925D01*
X359341Y358938D01*
X359320Y358935D01*
X359294Y358939D01*
X349631Y358939D01*
X349566Y358928D01*
X349500Y358926D01*
X349457Y358908D01*
X349410Y358900D01*
X349353Y358866D01*
X349293Y358841D01*
X349258Y358810D01*
X349217Y358786D01*
X349175Y358734D01*
X349127Y358690D01*
X349105Y358648D01*
X349076Y358611D01*
X349055Y358549D01*
X349024Y358490D01*
X349016Y358436D01*
X349004Y358399D01*
X349005Y358360D01*
X348997Y358305D01*
X348997Y354041D01*
X348991Y354003D01*
X348978Y353954D01*
X348981Y353933D01*
X348977Y353907D01*
X348977Y352341D01*
X348084Y351448D01*
X344320Y351448D01*
X344151Y351618D01*
X344096Y351655D01*
X344049Y351700D01*
X344005Y351719D01*
X343966Y351746D01*
X343903Y351762D01*
X343842Y351788D01*
X343795Y351790D01*
X343749Y351802D01*
X343684Y351795D01*
X343618Y351798D01*
X343573Y351783D01*
X343526Y351778D01*
X343467Y351749D01*
X343404Y351729D01*
X343360Y351696D01*
X343325Y351679D01*
X343298Y351650D01*
X343254Y351618D01*
X343084Y351448D01*
X339320Y351448D01*
X338427Y352341D01*
X338427Y353907D01*
X338420Y353949D01*
X338422Y353991D01*
X338407Y354036D01*
X338407Y361707D01*
X338400Y361749D01*
X338402Y361791D01*
X338380Y361858D01*
X338368Y361928D01*
X338346Y361964D01*
X338333Y362005D01*
X338279Y362078D01*
X338253Y362121D01*
X338237Y362134D01*
X338221Y362155D01*
X331853Y368524D01*
X331819Y368548D01*
X331790Y368579D01*
X331727Y368611D01*
X331669Y368652D01*
X331628Y368662D01*
X331590Y368682D01*
X331501Y368695D01*
X331452Y368708D01*
X331431Y368705D01*
X331405Y368709D01*
X322797Y368709D01*
X322732Y368698D01*
X322666Y368696D01*
X322623Y368678D01*
X322576Y368670D01*
X322519Y368636D01*
X322458Y368611D01*
X322423Y368580D01*
X322383Y368556D01*
X322341Y368504D01*
X322293Y368460D01*
X322271Y368418D01*
X322241Y368381D01*
X322220Y368319D01*
X322190Y368260D01*
X322182Y368206D01*
X322170Y368169D01*
X322171Y368130D01*
X322163Y368075D01*
X322163Y365872D01*
X321269Y364979D01*
X309006Y364979D01*
X308113Y365872D01*
X308113Y367821D01*
X308101Y367886D01*
X308099Y367952D01*
X308082Y367995D01*
X308073Y368042D01*
X308040Y368099D01*
X308015Y368160D01*
X307983Y368194D01*
X307959Y368235D01*
X307908Y368277D01*
X307864Y368325D01*
X307822Y368347D01*
X307785Y368377D01*
X307723Y368398D01*
X307664Y368428D01*
X307610Y368436D01*
X307573Y368448D01*
X307533Y368447D01*
X307479Y368455D01*
X305770Y368455D01*
X305729Y368448D01*
X305686Y368450D01*
X305619Y368428D01*
X305550Y368416D01*
X305513Y368394D01*
X305473Y368381D01*
X305400Y368327D01*
X305356Y368302D01*
X305343Y368285D01*
X305322Y368270D01*
X299805Y362753D01*
X299781Y362718D01*
X299749Y362689D01*
X299717Y362626D01*
X299677Y362568D01*
X299666Y362527D01*
X299647Y362489D01*
X299633Y362400D01*
X299621Y362351D01*
X299623Y362330D01*
X299619Y362304D01*
X299619Y341536D01*
X299627Y341494D01*
X299625Y341451D01*
X299646Y341384D01*
X299659Y341315D01*
X299680Y341278D01*
X299693Y341238D01*
X299747Y341165D01*
X299773Y341122D01*
X299789Y341108D01*
X299805Y341087D01*
X301877Y339015D01*
X301877Y334619D01*
X298769Y331510D01*
X295838Y331510D01*
X295796Y331502D01*
X295754Y331504D01*
X295687Y331483D01*
X295617Y331470D01*
X295581Y331449D01*
X295540Y331436D01*
X295467Y331382D01*
X295424Y331356D01*
X295411Y331340D01*
X295389Y331324D01*
X278267Y314202D01*
X278216Y314129D01*
X278160Y314060D01*
X278153Y314037D01*
X278139Y314018D01*
X278117Y313931D01*
X278088Y313847D01*
X278089Y313823D01*
X278083Y313800D01*
X278092Y313712D01*
X278095Y313623D01*
X278104Y313601D01*
X278106Y313577D01*
X278146Y313497D01*
X278179Y313415D01*
X278195Y313397D01*
X278206Y313376D01*
X278271Y313315D01*
X278331Y313249D01*
X278352Y313239D01*
X278369Y313222D01*
X278451Y313188D01*
X278530Y313147D01*
X278556Y313143D01*
X278576Y313135D01*
X278626Y313133D01*
X278716Y313119D01*
X289814Y313119D01*
X289879Y313131D01*
X289945Y313133D01*
X289988Y313151D01*
X290035Y313159D01*
X290092Y313192D01*
X290153Y313217D01*
X290187Y313249D01*
X290228Y313273D01*
X290270Y313324D01*
X290318Y313368D01*
X290340Y313411D01*
X290369Y313447D01*
X290391Y313509D01*
X290421Y313568D01*
X290429Y313623D01*
X290441Y313660D01*
X290440Y313699D01*
X290448Y313753D01*
X290448Y320566D01*
X293110Y323228D01*
X293134Y323263D01*
X293166Y323291D01*
X293198Y323354D01*
X293238Y323412D01*
X293249Y323453D01*
X293268Y323491D01*
X293281Y323581D01*
X293294Y323629D01*
X293292Y323650D01*
X293296Y323676D01*
X293296Y326607D01*
X296404Y329716D01*
X300801Y329716D01*
X303909Y326607D01*
X303909Y325627D01*
X303925Y325539D01*
X303934Y325451D01*
X303945Y325430D01*
X303949Y325406D01*
X303994Y325329D01*
X304034Y325250D01*
X304051Y325233D01*
X304063Y325213D01*
X304132Y325157D01*
X304197Y325096D01*
X304219Y325086D01*
X304237Y325072D01*
X304321Y325043D01*
X304403Y325008D01*
X304427Y325007D01*
X304450Y325000D01*
X304539Y325002D01*
X304628Y324998D01*
X304650Y325006D01*
X304674Y325006D01*
X304756Y325040D01*
X304841Y325067D01*
X304863Y325083D01*
X304882Y325091D01*
X304919Y325125D01*
X304992Y325178D01*
X319613Y339799D01*
X321584Y341771D01*
X335840Y341771D01*
X335928Y341683D01*
X335963Y341659D01*
X335992Y341627D01*
X336054Y341595D01*
X336112Y341555D01*
X336153Y341544D01*
X336191Y341525D01*
X336281Y341511D01*
X336330Y341499D01*
X336350Y341501D01*
X336377Y341497D01*
X337584Y341497D01*
X338477Y340604D01*
X338477Y336841D01*
X337584Y335948D01*
X336377Y335948D01*
X336335Y335940D01*
X336292Y335942D01*
X336225Y335920D01*
X336156Y335908D01*
X336119Y335886D01*
X336079Y335873D01*
X336006Y335819D01*
X335963Y335794D01*
X335949Y335778D01*
X335928Y335762D01*
X335840Y335674D01*
X324373Y335674D01*
X324331Y335666D01*
X324289Y335668D01*
X324222Y335646D01*
X324152Y335634D01*
X324115Y335612D01*
X324075Y335599D01*
X324002Y335545D01*
X323959Y335520D01*
X323946Y335504D01*
X323924Y335488D01*
X307514Y319077D01*
X307490Y319042D01*
X307458Y319014D01*
X307426Y318951D01*
X307386Y318893D01*
X307375Y318852D01*
X307356Y318814D01*
X307342Y318725D01*
X307330Y318676D01*
X307332Y318655D01*
X307328Y318629D01*
X307328Y318523D01*
X307336Y318481D01*
X307334Y318439D01*
X307355Y318372D01*
X307368Y318302D01*
X307389Y318266D01*
X307402Y318225D01*
X307456Y318153D01*
X307482Y318109D01*
X307498Y318096D01*
X307514Y318075D01*
X309586Y316002D01*
X309586Y311606D01*
X306477Y308498D01*
X302081Y308498D01*
X298973Y311606D01*
X298973Y316002D01*
X300990Y318019D01*
X301040Y318093D01*
X301096Y318162D01*
X301104Y318184D01*
X301118Y318204D01*
X301140Y318290D01*
X301168Y318374D01*
X301168Y318398D01*
X301174Y318421D01*
X301164Y318509D01*
X301162Y318598D01*
X301153Y318620D01*
X301150Y318644D01*
X301111Y318724D01*
X301077Y318806D01*
X301061Y318824D01*
X301051Y318845D01*
X300986Y318906D01*
X300926Y318972D01*
X300905Y318983D01*
X300888Y318999D01*
X300806Y319034D01*
X300726Y319074D01*
X300700Y319078D01*
X300681Y319086D01*
X300631Y319089D01*
X300541Y319102D01*
X297870Y319102D01*
X297828Y319095D01*
X297786Y319096D01*
X297719Y319075D01*
X297649Y319062D01*
X297613Y319041D01*
X297572Y319028D01*
X297499Y318974D01*
X297456Y318948D01*
X297443Y318932D01*
X297422Y318916D01*
X296732Y318226D01*
X296707Y318192D01*
X296676Y318163D01*
X296644Y318100D01*
X296603Y318042D01*
X296593Y318001D01*
X296573Y317963D01*
X296560Y317874D01*
X296548Y317825D01*
X296550Y317804D01*
X296546Y317778D01*
X296546Y311596D01*
X296553Y311554D01*
X296551Y311512D01*
X296573Y311445D01*
X296585Y311375D01*
X296607Y311339D01*
X296620Y311298D01*
X296674Y311225D01*
X296700Y311182D01*
X296716Y311169D01*
X296732Y311148D01*
X305725Y302154D01*
X305759Y302130D01*
X305788Y302099D01*
X305851Y302067D01*
X305909Y302026D01*
X305950Y302016D01*
X305988Y301996D01*
X306077Y301983D01*
X306126Y301970D01*
X306147Y301973D01*
X306173Y301969D01*
X331095Y301969D01*
X338046Y295017D01*
X338081Y294993D01*
X338110Y294961D01*
X338173Y294929D01*
X338230Y294889D01*
X338271Y294878D01*
X338309Y294859D01*
X338399Y294846D01*
X338448Y294833D01*
X338468Y294835D01*
X338495Y294831D01*
X351315Y294831D01*
X351403Y294847D01*
G37*
G36*
X363231Y195709D02*
X363231Y195709D01*
X363260Y195706D01*
X363327Y195728D01*
X363397Y195742D01*
X363421Y195759D01*
X363449Y195768D01*
X363502Y195815D01*
X363561Y195855D01*
X363577Y195879D01*
X363599Y195899D01*
X363630Y195963D01*
X363668Y196022D01*
X363673Y196051D01*
X363685Y196077D01*
X363694Y196177D01*
X363701Y196219D01*
X363698Y196229D01*
X363700Y196243D01*
X363468Y199041D01*
X363458Y199075D01*
X363454Y199123D01*
X362765Y201844D01*
X362750Y201876D01*
X362738Y201922D01*
X361610Y204494D01*
X361590Y204522D01*
X361571Y204566D01*
X360035Y206917D01*
X360011Y206941D01*
X359985Y206982D01*
X358083Y209047D01*
X358055Y209068D01*
X358022Y209103D01*
X355807Y210828D01*
X355776Y210843D01*
X355738Y210873D01*
X353268Y212209D01*
X353235Y212219D01*
X353193Y212242D01*
X352007Y212650D01*
X350553Y213149D01*
X350537Y213154D01*
X350503Y213159D01*
X350457Y213174D01*
X347688Y213636D01*
X347653Y213635D01*
X347606Y213643D01*
X344798Y213643D01*
X344764Y213636D01*
X344716Y213636D01*
X341947Y213174D01*
X341914Y213162D01*
X341867Y213154D01*
X339211Y212242D01*
X339181Y212225D01*
X339136Y212209D01*
X336666Y210873D01*
X336640Y210851D01*
X336597Y210828D01*
X334382Y209103D01*
X334359Y209077D01*
X334321Y209047D01*
X332419Y206982D01*
X332401Y206952D01*
X332369Y206917D01*
X330833Y204566D01*
X330820Y204534D01*
X330794Y204494D01*
X329666Y201922D01*
X329659Y201889D01*
X329656Y201882D01*
X329650Y201873D01*
X329649Y201867D01*
X329639Y201844D01*
X328950Y199123D01*
X328948Y199088D01*
X328936Y199041D01*
X328704Y196243D01*
X328708Y196214D01*
X328703Y196185D01*
X328720Y196116D01*
X328728Y196046D01*
X328742Y196020D01*
X328749Y195992D01*
X328791Y195935D01*
X328826Y195873D01*
X328850Y195855D01*
X328867Y195832D01*
X328928Y195796D01*
X328985Y195753D01*
X329013Y195745D01*
X329038Y195730D01*
X329136Y195714D01*
X329177Y195703D01*
X329188Y195705D01*
X329202Y195703D01*
X363202Y195703D01*
X363231Y195709D01*
G37*
G36*
X347640Y478768D02*
X347640Y478768D01*
X347688Y478768D01*
X350457Y479230D01*
X350490Y479242D01*
X350537Y479250D01*
X353193Y480162D01*
X353223Y480179D01*
X353268Y480195D01*
X355738Y481531D01*
X355764Y481553D01*
X355807Y481576D01*
X358022Y483301D01*
X358045Y483327D01*
X358083Y483357D01*
X359985Y485422D01*
X360003Y485452D01*
X360035Y485487D01*
X361571Y487838D01*
X361584Y487870D01*
X361610Y487910D01*
X362738Y490482D01*
X362745Y490515D01*
X362765Y490560D01*
X363454Y493281D01*
X363456Y493316D01*
X363468Y493363D01*
X363700Y496161D01*
X363696Y496190D01*
X363701Y496219D01*
X363685Y496288D01*
X363676Y496358D01*
X363662Y496384D01*
X363655Y496412D01*
X363613Y496469D01*
X363578Y496531D01*
X363554Y496549D01*
X363537Y496572D01*
X363476Y496608D01*
X363419Y496651D01*
X363391Y496659D01*
X363366Y496674D01*
X363268Y496690D01*
X363227Y496701D01*
X363216Y496699D01*
X363202Y496701D01*
X329202Y496701D01*
X329173Y496695D01*
X329144Y496698D01*
X329077Y496676D01*
X329007Y496662D01*
X328983Y496645D01*
X328955Y496636D01*
X328902Y496589D01*
X328843Y496549D01*
X328828Y496525D01*
X328806Y496505D01*
X328774Y496441D01*
X328736Y496382D01*
X328731Y496353D01*
X328719Y496327D01*
X328710Y496227D01*
X328703Y496185D01*
X328706Y496175D01*
X328704Y496161D01*
X328936Y493363D01*
X328946Y493329D01*
X328950Y493281D01*
X329639Y490560D01*
X329654Y490528D01*
X329666Y490482D01*
X330794Y487910D01*
X330814Y487882D01*
X330833Y487838D01*
X332369Y485487D01*
X332393Y485463D01*
X332419Y485422D01*
X334321Y483357D01*
X334349Y483336D01*
X334382Y483301D01*
X336597Y481576D01*
X336628Y481561D01*
X336666Y481531D01*
X339136Y480195D01*
X339169Y480185D01*
X339211Y480162D01*
X341867Y479250D01*
X341901Y479246D01*
X341947Y479230D01*
X344716Y478768D01*
X344751Y478769D01*
X344798Y478761D01*
X347606Y478761D01*
X347640Y478768D01*
G37*
G36*
X224809Y256012D02*
X224809Y256012D01*
X224880Y256009D01*
X224907Y256019D01*
X224936Y256021D01*
X225026Y256063D01*
X225066Y256078D01*
X225074Y256086D01*
X225087Y256092D01*
X227390Y257691D01*
X227414Y257717D01*
X227454Y257744D01*
X229463Y259701D01*
X229482Y259730D01*
X229517Y259763D01*
X231176Y262024D01*
X231191Y262055D01*
X231220Y262094D01*
X232484Y264597D01*
X232493Y264631D01*
X232515Y264674D01*
X233351Y267351D01*
X233354Y267385D01*
X233369Y267431D01*
X233752Y270210D01*
X233750Y270244D01*
X233756Y270292D01*
X233677Y273095D01*
X233669Y273129D01*
X233668Y273177D01*
X233129Y275929D01*
X233115Y275961D01*
X233106Y276009D01*
X232121Y278634D01*
X232106Y278659D01*
X232101Y278679D01*
X232093Y278690D01*
X232086Y278709D01*
X230682Y281137D01*
X230659Y281163D01*
X230635Y281205D01*
X228851Y283368D01*
X228824Y283390D01*
X228793Y283427D01*
X226677Y285268D01*
X226647Y285285D01*
X226611Y285317D01*
X224220Y286784D01*
X224188Y286795D01*
X224147Y286821D01*
X221548Y287874D01*
X221514Y287881D01*
X221469Y287899D01*
X218732Y288510D01*
X218697Y288511D01*
X218650Y288522D01*
X215850Y288674D01*
X215816Y288669D01*
X215768Y288672D01*
X212980Y288362D01*
X212947Y288351D01*
X212899Y288346D01*
X210201Y287581D01*
X210171Y287565D01*
X210124Y287552D01*
X207589Y286353D01*
X207565Y286336D01*
X207538Y286326D01*
X207486Y286277D01*
X207429Y286234D01*
X207415Y286209D01*
X207394Y286189D01*
X207365Y286124D01*
X207329Y286063D01*
X207326Y286034D01*
X207314Y286007D01*
X207313Y285936D01*
X207304Y285865D01*
X207312Y285837D01*
X207312Y285808D01*
X207346Y285715D01*
X207358Y285674D01*
X207365Y285665D01*
X207370Y285652D01*
X224370Y256252D01*
X224389Y256230D01*
X224402Y256204D01*
X224455Y256156D01*
X224502Y256103D01*
X224528Y256091D01*
X224550Y256071D01*
X224617Y256048D01*
X224681Y256018D01*
X224710Y256016D01*
X224738Y256007D01*
X224809Y256012D01*
G37*
G36*
X476588Y403735D02*
X476588Y403735D01*
X476636Y403732D01*
X479424Y404042D01*
X479457Y404053D01*
X479505Y404058D01*
X482203Y404823D01*
X482233Y404839D01*
X482280Y404852D01*
X484815Y406051D01*
X484839Y406068D01*
X484866Y406078D01*
X484918Y406127D01*
X484975Y406170D01*
X484989Y406195D01*
X485011Y406215D01*
X485039Y406280D01*
X485075Y406342D01*
X485078Y406370D01*
X485090Y406397D01*
X485091Y406468D01*
X485100Y406539D01*
X485092Y406567D01*
X485092Y406596D01*
X485058Y406689D01*
X485046Y406730D01*
X485039Y406739D01*
X485034Y406752D01*
X468034Y436152D01*
X468015Y436174D01*
X468002Y436200D01*
X467949Y436248D01*
X467902Y436301D01*
X467876Y436313D01*
X467854Y436333D01*
X467787Y436356D01*
X467723Y436386D01*
X467694Y436388D01*
X467666Y436397D01*
X467595Y436392D01*
X467524Y436395D01*
X467497Y436385D01*
X467468Y436383D01*
X467378Y436341D01*
X467338Y436326D01*
X467330Y436318D01*
X467317Y436312D01*
X465014Y434713D01*
X464990Y434688D01*
X464950Y434660D01*
X462941Y432703D01*
X462922Y432674D01*
X462887Y432641D01*
X461228Y430380D01*
X461213Y430349D01*
X461184Y430310D01*
X459920Y427807D01*
X459911Y427773D01*
X459889Y427730D01*
X459053Y425053D01*
X459050Y425019D01*
X459035Y424973D01*
X458652Y422194D01*
X458654Y422160D01*
X458648Y422112D01*
X458727Y419309D01*
X458735Y419275D01*
X458736Y419227D01*
X459275Y416475D01*
X459289Y416443D01*
X459298Y416395D01*
X460283Y413770D01*
X460301Y413740D01*
X460318Y413695D01*
X461722Y411267D01*
X461745Y411241D01*
X461769Y411200D01*
X463553Y409036D01*
X463580Y409014D01*
X463611Y408977D01*
X465727Y407136D01*
X465757Y407119D01*
X465793Y407088D01*
X468184Y405620D01*
X468216Y405609D01*
X468257Y405583D01*
X470856Y404530D01*
X470890Y404523D01*
X470935Y404505D01*
X473672Y403894D01*
X473707Y403893D01*
X473754Y403882D01*
X476554Y403730D01*
X476588Y403735D01*
G37*
G36*
X467628Y256013D02*
X467628Y256013D01*
X467699Y256012D01*
X467726Y256023D01*
X467755Y256027D01*
X467817Y256061D01*
X467882Y256089D01*
X467903Y256110D01*
X467928Y256124D01*
X467991Y256200D01*
X468021Y256231D01*
X468025Y256241D01*
X468034Y256252D01*
X485034Y285652D01*
X485043Y285680D01*
X485060Y285704D01*
X485075Y285773D01*
X485097Y285841D01*
X485095Y285870D01*
X485101Y285898D01*
X485088Y285968D01*
X485082Y286039D01*
X485069Y286065D01*
X485063Y286093D01*
X485023Y286152D01*
X484991Y286215D01*
X484968Y286234D01*
X484952Y286258D01*
X484870Y286315D01*
X484837Y286342D01*
X484827Y286345D01*
X484815Y286353D01*
X482280Y287552D01*
X482246Y287560D01*
X482203Y287581D01*
X479505Y288346D01*
X479470Y288348D01*
X479424Y288362D01*
X476636Y288672D01*
X476602Y288669D01*
X476554Y288674D01*
X473754Y288522D01*
X473720Y288513D01*
X473672Y288510D01*
X470935Y287899D01*
X470903Y287885D01*
X470856Y287874D01*
X468257Y286821D01*
X468228Y286802D01*
X468184Y286784D01*
X465793Y285317D01*
X465768Y285293D01*
X465727Y285268D01*
X463611Y283427D01*
X463590Y283400D01*
X463553Y283368D01*
X461769Y281205D01*
X461753Y281174D01*
X461722Y281137D01*
X460318Y278709D01*
X460307Y278676D01*
X460300Y278663D01*
X460290Y278649D01*
X460290Y278646D01*
X460283Y278634D01*
X459298Y276009D01*
X459292Y275974D01*
X459275Y275929D01*
X458736Y273177D01*
X458736Y273143D01*
X458727Y273095D01*
X458648Y270292D01*
X458654Y270258D01*
X458652Y270210D01*
X459035Y267431D01*
X459047Y267399D01*
X459053Y267351D01*
X459889Y264674D01*
X459906Y264643D01*
X459920Y264597D01*
X461184Y262094D01*
X461206Y262067D01*
X461228Y262024D01*
X462887Y259763D01*
X462913Y259740D01*
X462941Y259701D01*
X464950Y257744D01*
X464979Y257725D01*
X465014Y257691D01*
X467317Y256092D01*
X467344Y256080D01*
X467367Y256062D01*
X467435Y256041D01*
X467500Y256013D01*
X467529Y256013D01*
X467557Y256005D01*
X467628Y256013D01*
G37*
G36*
X218650Y403882D02*
X218650Y403882D01*
X218684Y403891D01*
X218732Y403894D01*
X221469Y404505D01*
X221501Y404519D01*
X221548Y404530D01*
X224147Y405583D01*
X224176Y405602D01*
X224220Y405620D01*
X226611Y407088D01*
X226636Y407111D01*
X226677Y407136D01*
X228793Y408977D01*
X228814Y409004D01*
X228851Y409036D01*
X230635Y411200D01*
X230651Y411230D01*
X230682Y411267D01*
X232086Y413695D01*
X232097Y413728D01*
X232121Y413770D01*
X233106Y416395D01*
X233112Y416430D01*
X233129Y416475D01*
X233668Y419227D01*
X233668Y419262D01*
X233677Y419309D01*
X233756Y422112D01*
X233751Y422146D01*
X233752Y422194D01*
X233369Y424973D01*
X233357Y425005D01*
X233351Y425053D01*
X232515Y427730D01*
X232498Y427761D01*
X232484Y427807D01*
X231220Y430310D01*
X231198Y430337D01*
X231176Y430380D01*
X229517Y432641D01*
X229491Y432664D01*
X229463Y432703D01*
X227454Y434660D01*
X227425Y434679D01*
X227390Y434713D01*
X225087Y436312D01*
X225060Y436324D01*
X225037Y436342D01*
X224969Y436363D01*
X224904Y436391D01*
X224875Y436391D01*
X224847Y436399D01*
X224776Y436391D01*
X224705Y436392D01*
X224678Y436381D01*
X224649Y436377D01*
X224587Y436343D01*
X224522Y436315D01*
X224501Y436294D01*
X224476Y436280D01*
X224413Y436204D01*
X224383Y436173D01*
X224379Y436163D01*
X224370Y436152D01*
X207370Y406752D01*
X207361Y406724D01*
X207344Y406700D01*
X207329Y406631D01*
X207307Y406563D01*
X207309Y406534D01*
X207303Y406506D01*
X207316Y406436D01*
X207322Y406365D01*
X207335Y406339D01*
X207341Y406311D01*
X207381Y406252D01*
X207413Y406189D01*
X207436Y406170D01*
X207452Y406146D01*
X207534Y406089D01*
X207567Y406062D01*
X207577Y406059D01*
X207589Y406051D01*
X210124Y404852D01*
X210158Y404844D01*
X210201Y404823D01*
X212899Y404058D01*
X212934Y404056D01*
X212980Y404042D01*
X215768Y403732D01*
X215802Y403735D01*
X215850Y403730D01*
X218650Y403882D01*
G37*
%LPC*%
G36*
X234090Y336732D02*
X234090Y336732D01*
X233197Y337625D01*
X233197Y348888D01*
X234090Y349782D01*
X236539Y349782D01*
X236603Y349793D01*
X236669Y349795D01*
X236713Y349813D01*
X236759Y349821D01*
X236816Y349855D01*
X236877Y349879D01*
X236912Y349911D01*
X236953Y349935D01*
X236994Y349986D01*
X237043Y350031D01*
X237064Y350073D01*
X237094Y350110D01*
X237115Y350172D01*
X237145Y350230D01*
X237153Y350285D01*
X237166Y350322D01*
X237165Y350349D01*
X237166Y350352D01*
X237165Y350366D01*
X237173Y350416D01*
X237173Y356419D01*
X245435Y364681D01*
X253434Y364681D01*
X253476Y364689D01*
X253518Y364687D01*
X253585Y364708D01*
X253655Y364721D01*
X253691Y364742D01*
X253732Y364755D01*
X253805Y364809D01*
X253848Y364835D01*
X253861Y364851D01*
X253883Y364867D01*
X256018Y367003D01*
X260415Y367003D01*
X263523Y363894D01*
X263523Y359498D01*
X260415Y356389D01*
X256018Y356389D01*
X254010Y358398D01*
X253975Y358422D01*
X253946Y358454D01*
X253883Y358486D01*
X253825Y358526D01*
X253784Y358537D01*
X253746Y358556D01*
X253657Y358569D01*
X253608Y358582D01*
X253587Y358580D01*
X253561Y358584D01*
X248223Y358584D01*
X248181Y358576D01*
X248139Y358578D01*
X248072Y358557D01*
X248002Y358544D01*
X247966Y358523D01*
X247925Y358510D01*
X247852Y358456D01*
X247809Y358430D01*
X247796Y358414D01*
X247775Y358398D01*
X243456Y354079D01*
X243432Y354045D01*
X243400Y354016D01*
X243368Y353953D01*
X243328Y353895D01*
X243317Y353854D01*
X243298Y353816D01*
X243286Y353736D01*
X243277Y353710D01*
X243278Y353699D01*
X243272Y353678D01*
X243274Y353657D01*
X243270Y353631D01*
X243270Y350416D01*
X243282Y350351D01*
X243284Y350285D01*
X243302Y350242D01*
X243310Y350195D01*
X243343Y350138D01*
X243368Y350077D01*
X243400Y350042D01*
X243424Y350002D01*
X243475Y349960D01*
X243520Y349912D01*
X243562Y349890D01*
X243598Y349860D01*
X243660Y349839D01*
X243719Y349809D01*
X243774Y349801D01*
X243811Y349788D01*
X243850Y349790D01*
X243904Y349782D01*
X246353Y349782D01*
X247246Y348888D01*
X247246Y337625D01*
X246353Y336732D01*
X234090Y336732D01*
G37*
%LPD*%
%LPC*%
G36*
X372309Y457025D02*
X372309Y457025D01*
X369951Y459383D01*
X369951Y459867D01*
X369940Y459932D01*
X369938Y459998D01*
X369920Y460041D01*
X369912Y460088D01*
X369878Y460145D01*
X369853Y460205D01*
X369822Y460240D01*
X369798Y460281D01*
X369746Y460323D01*
X369702Y460371D01*
X369660Y460393D01*
X369623Y460422D01*
X369561Y460443D01*
X369502Y460474D01*
X369448Y460482D01*
X369411Y460494D01*
X369371Y460493D01*
X369317Y460501D01*
X368226Y460501D01*
X368184Y460494D01*
X368142Y460496D01*
X368075Y460474D01*
X368005Y460462D01*
X367969Y460440D01*
X367928Y460427D01*
X367855Y460373D01*
X367812Y460347D01*
X367799Y460331D01*
X367777Y460315D01*
X365741Y458279D01*
X361344Y458279D01*
X358236Y461387D01*
X358236Y465784D01*
X361344Y468892D01*
X365741Y468892D01*
X367849Y466785D01*
X367883Y466760D01*
X367912Y466729D01*
X367975Y466697D01*
X368033Y466656D01*
X368074Y466646D01*
X368112Y466626D01*
X368201Y466613D01*
X368250Y466600D01*
X368271Y466603D01*
X368297Y466599D01*
X369317Y466599D01*
X369382Y466610D01*
X369448Y466612D01*
X369491Y466630D01*
X369538Y466638D01*
X369595Y466672D01*
X369656Y466697D01*
X369690Y466728D01*
X369731Y466753D01*
X369773Y466804D01*
X369821Y466848D01*
X369843Y466890D01*
X369872Y466927D01*
X369894Y466989D01*
X369924Y467048D01*
X369932Y467102D01*
X369944Y467139D01*
X369943Y467179D01*
X369951Y467233D01*
X369951Y467717D01*
X372309Y470075D01*
X386643Y470075D01*
X389001Y467717D01*
X389001Y459383D01*
X386643Y457025D01*
X372309Y457025D01*
G37*
%LPD*%
%LPC*%
G36*
X290775Y446103D02*
X290775Y446103D01*
X288417Y448461D01*
X288417Y456795D01*
X290775Y459153D01*
X305109Y459153D01*
X307467Y456795D01*
X307467Y456311D01*
X307478Y456246D01*
X307480Y456180D01*
X307498Y456137D01*
X307506Y456090D01*
X307540Y456033D01*
X307565Y455973D01*
X307596Y455938D01*
X307620Y455897D01*
X307672Y455855D01*
X307716Y455807D01*
X307758Y455785D01*
X307795Y455756D01*
X307857Y455735D01*
X307916Y455704D01*
X307970Y455696D01*
X308007Y455684D01*
X308047Y455685D01*
X308101Y455677D01*
X308529Y455677D01*
X308571Y455684D01*
X308613Y455682D01*
X308681Y455704D01*
X308750Y455716D01*
X308787Y455738D01*
X308827Y455751D01*
X308900Y455805D01*
X308943Y455831D01*
X308956Y455847D01*
X308978Y455863D01*
X311050Y457935D01*
X315446Y457935D01*
X318555Y454826D01*
X318555Y450430D01*
X315446Y447321D01*
X311050Y447321D01*
X308978Y449393D01*
X308943Y449418D01*
X308914Y449449D01*
X308851Y449481D01*
X308793Y449522D01*
X308752Y449532D01*
X308715Y449552D01*
X308625Y449565D01*
X308576Y449578D01*
X308555Y449575D01*
X308529Y449579D01*
X308101Y449579D01*
X308036Y449568D01*
X307970Y449566D01*
X307927Y449548D01*
X307880Y449540D01*
X307823Y449506D01*
X307762Y449481D01*
X307728Y449450D01*
X307687Y449425D01*
X307645Y449374D01*
X307597Y449330D01*
X307575Y449288D01*
X307546Y449251D01*
X307524Y449189D01*
X307494Y449130D01*
X307486Y449076D01*
X307474Y449039D01*
X307475Y448999D01*
X307467Y448945D01*
X307467Y448461D01*
X305109Y446103D01*
X290775Y446103D01*
G37*
%LPD*%
%LPC*%
G36*
X290775Y420703D02*
X290775Y420703D01*
X288565Y422913D01*
X288511Y422951D01*
X288463Y422996D01*
X288419Y423015D01*
X288381Y423042D01*
X288317Y423058D01*
X288256Y423084D01*
X288209Y423086D01*
X288163Y423097D01*
X288098Y423091D01*
X288032Y423094D01*
X287987Y423079D01*
X287940Y423074D01*
X287881Y423045D01*
X287818Y423025D01*
X287774Y422992D01*
X287739Y422975D01*
X287712Y422946D01*
X287668Y422913D01*
X286676Y421921D01*
X282279Y421921D01*
X279171Y425030D01*
X279171Y429426D01*
X282279Y432535D01*
X286676Y432535D01*
X287668Y431543D01*
X287722Y431505D01*
X287770Y431460D01*
X287813Y431441D01*
X287852Y431414D01*
X287916Y431398D01*
X287976Y431372D01*
X288024Y431370D01*
X288069Y431359D01*
X288135Y431365D01*
X288201Y431362D01*
X288245Y431377D01*
X288292Y431382D01*
X288351Y431411D01*
X288414Y431431D01*
X288458Y431464D01*
X288494Y431481D01*
X288521Y431510D01*
X288565Y431543D01*
X290775Y433753D01*
X305109Y433753D01*
X307467Y431395D01*
X307467Y423061D01*
X305109Y420703D01*
X290775Y420703D01*
G37*
%LPD*%
%LPC*%
G36*
X235549Y305536D02*
X235549Y305536D01*
X234656Y306429D01*
X234656Y315693D01*
X235549Y316586D01*
X236539Y316586D01*
X236603Y316597D01*
X236669Y316599D01*
X236713Y316617D01*
X236759Y316626D01*
X236816Y316659D01*
X236877Y316684D01*
X236912Y316716D01*
X236953Y316740D01*
X236994Y316791D01*
X237043Y316835D01*
X237064Y316877D01*
X237094Y316914D01*
X237115Y316976D01*
X237145Y317035D01*
X237153Y317089D01*
X237166Y317126D01*
X237165Y317166D01*
X237173Y317220D01*
X237173Y319098D01*
X237161Y319163D01*
X237159Y319228D01*
X237141Y319272D01*
X237133Y319319D01*
X237100Y319375D01*
X237075Y319436D01*
X237043Y319471D01*
X237019Y319512D01*
X236968Y319553D01*
X236923Y319602D01*
X236881Y319623D01*
X236845Y319653D01*
X236783Y319674D01*
X236724Y319704D01*
X236669Y319712D01*
X236632Y319725D01*
X236593Y319724D01*
X236539Y319732D01*
X234090Y319732D01*
X233197Y320625D01*
X233197Y331888D01*
X234090Y332782D01*
X246353Y332782D01*
X247246Y331888D01*
X247246Y320625D01*
X246353Y319732D01*
X243904Y319732D01*
X243840Y319720D01*
X243774Y319718D01*
X243730Y319701D01*
X243684Y319692D01*
X243627Y319659D01*
X243566Y319634D01*
X243531Y319602D01*
X243490Y319578D01*
X243449Y319527D01*
X243400Y319483D01*
X243379Y319441D01*
X243349Y319404D01*
X243328Y319342D01*
X243298Y319283D01*
X243290Y319229D01*
X243277Y319192D01*
X243278Y319152D01*
X243270Y319098D01*
X243270Y317220D01*
X243282Y317155D01*
X243284Y317090D01*
X243302Y317046D01*
X243310Y316999D01*
X243343Y316942D01*
X243368Y316882D01*
X243400Y316847D01*
X243424Y316806D01*
X243475Y316765D01*
X243520Y316716D01*
X243562Y316694D01*
X243598Y316665D01*
X243660Y316644D01*
X243719Y316614D01*
X243774Y316605D01*
X243811Y316593D01*
X243850Y316594D01*
X243904Y316586D01*
X244812Y316586D01*
X245705Y315693D01*
X245705Y306429D01*
X244812Y305536D01*
X235549Y305536D01*
G37*
%LPD*%
%LPC*%
G36*
X467156Y352998D02*
X467156Y352998D01*
X464047Y356107D01*
X464047Y360503D01*
X467156Y363612D01*
X471552Y363612D01*
X472100Y363064D01*
X472135Y363039D01*
X472164Y363008D01*
X472227Y362976D01*
X472284Y362936D01*
X472326Y362925D01*
X472363Y362906D01*
X472453Y362892D01*
X472502Y362880D01*
X472523Y362882D01*
X472549Y362878D01*
X490289Y362878D01*
X490331Y362885D01*
X490373Y362883D01*
X490440Y362905D01*
X490510Y362918D01*
X490546Y362939D01*
X490587Y362952D01*
X490660Y363006D01*
X490703Y363032D01*
X490716Y363048D01*
X490738Y363064D01*
X491286Y363612D01*
X495682Y363612D01*
X498791Y360503D01*
X498791Y356107D01*
X495682Y352998D01*
X491286Y352998D01*
X490738Y353547D01*
X490703Y353571D01*
X490674Y353602D01*
X490611Y353634D01*
X490553Y353675D01*
X490512Y353685D01*
X490474Y353705D01*
X490385Y353718D01*
X490336Y353731D01*
X490315Y353728D01*
X490289Y353732D01*
X472549Y353732D01*
X472507Y353725D01*
X472465Y353727D01*
X472397Y353705D01*
X472328Y353693D01*
X472291Y353671D01*
X472251Y353658D01*
X472178Y353604D01*
X472135Y353579D01*
X472122Y353562D01*
X472100Y353547D01*
X471552Y352998D01*
X467156Y352998D01*
G37*
%LPD*%
%LPC*%
G36*
X457171Y321863D02*
X457171Y321863D01*
X454062Y324972D01*
X454062Y329368D01*
X456135Y331440D01*
X456159Y331475D01*
X456190Y331504D01*
X456223Y331567D01*
X456263Y331624D01*
X456273Y331665D01*
X456293Y331703D01*
X456306Y331793D01*
X456319Y331842D01*
X456317Y331862D01*
X456320Y331889D01*
X456320Y335256D01*
X456309Y335321D01*
X456307Y335387D01*
X456289Y335430D01*
X456281Y335477D01*
X456247Y335534D01*
X456223Y335595D01*
X456191Y335630D01*
X456167Y335670D01*
X456116Y335712D01*
X456071Y335760D01*
X456029Y335782D01*
X455992Y335812D01*
X455930Y335833D01*
X455872Y335863D01*
X455817Y335871D01*
X455780Y335884D01*
X455741Y335882D01*
X455686Y335890D01*
X453732Y335890D01*
X452839Y336784D01*
X452839Y349047D01*
X453732Y349940D01*
X464995Y349940D01*
X465888Y349047D01*
X465888Y336784D01*
X464995Y335890D01*
X463052Y335890D01*
X462987Y335879D01*
X462922Y335877D01*
X462878Y335859D01*
X462831Y335851D01*
X462775Y335817D01*
X462714Y335793D01*
X462679Y335761D01*
X462638Y335737D01*
X462597Y335686D01*
X462548Y335641D01*
X462526Y335599D01*
X462497Y335562D01*
X462476Y335500D01*
X462446Y335442D01*
X462437Y335387D01*
X462425Y335350D01*
X462426Y335320D01*
X462425Y335317D01*
X462425Y335305D01*
X462418Y335256D01*
X462418Y331889D01*
X462425Y331847D01*
X462424Y331804D01*
X462445Y331737D01*
X462458Y331668D01*
X462479Y331631D01*
X462492Y331591D01*
X462546Y331518D01*
X462572Y331475D01*
X462588Y331461D01*
X462604Y331440D01*
X464676Y329368D01*
X464676Y324972D01*
X461567Y321863D01*
X457171Y321863D01*
G37*
%LPD*%
D10*
X240181Y311061D03*
X255181Y311061D03*
D11*
X459364Y342915D03*
X476364Y342915D03*
D12*
X240222Y326257D03*
X240222Y343257D03*
D13*
X292442Y429728D02*
X303442Y429728D01*
X303442Y424728D01*
X292442Y424728D01*
X292442Y429728D01*
X292442Y429478D02*
X303442Y429478D01*
X303442Y450128D02*
X292442Y450128D01*
X292442Y455128D01*
X303442Y455128D01*
X303442Y450128D01*
X303442Y454878D02*
X292442Y454878D01*
X373976Y461050D02*
X384976Y461050D01*
X373976Y461050D02*
X373976Y466050D01*
X384976Y466050D01*
X384976Y461050D01*
X384976Y465800D02*
X373976Y465800D01*
X456272Y384850D02*
X467272Y384850D01*
X456272Y384850D02*
X456272Y389850D01*
X467272Y389850D01*
X467272Y384850D01*
X467272Y389600D02*
X456272Y389600D01*
D14*
X428802Y489302D03*
X511402Y346202D03*
X428802Y203102D03*
X263602Y203102D03*
X181002Y346202D03*
X263602Y489302D03*
X470102Y417702D03*
X470102Y274702D03*
X346202Y203102D03*
X222302Y274702D03*
X222302Y417702D03*
X346202Y489302D03*
D15*
X334577Y353722D03*
X334577Y348722D03*
X334577Y343722D03*
X334577Y338722D03*
D16*
X341202Y337097D03*
X346202Y337097D03*
X351202Y337097D03*
D15*
X357827Y338722D03*
X357827Y343722D03*
X357827Y348722D03*
X357827Y353722D03*
D16*
X351202Y355347D03*
X346202Y355347D03*
X341202Y355347D03*
D17*
X264421Y279521D03*
X264421Y274521D03*
X264421Y269521D03*
X264421Y264521D03*
D18*
X269521Y264421D03*
X274521Y264421D03*
D17*
X279621Y264521D03*
X279621Y269521D03*
X279621Y274521D03*
X279621Y279521D03*
D18*
X274521Y279621D03*
X269521Y279621D03*
D12*
X315138Y371504D03*
X315138Y354504D03*
X340779Y384438D03*
X340779Y401438D03*
D11*
X330098Y308492D03*
X330098Y325492D03*
X348196Y308441D03*
X348196Y325441D03*
X313296Y280178D03*
X313296Y263178D03*
X294373Y280001D03*
X294373Y263001D03*
D19*
X258813Y246710D03*
X277813Y246710D03*
D20*
X450365Y362247D03*
X450271Y376351D03*
D21*
X348742Y343662D02*
X348742Y339637D01*
X346202Y337097D01*
D20*
X348742Y343662D03*
X276479Y257467D03*
D21*
X290808Y259436D02*
X294373Y263001D01*
D20*
X370688Y254914D03*
X493484Y358305D03*
X261772Y324129D03*
D21*
X346202Y337097D02*
X347980Y337097D01*
X351202Y337097D01*
X255181Y317538D02*
X255181Y311061D01*
X255181Y317538D02*
X261772Y324129D01*
D22*
X279621Y269521D02*
X279165Y269065D01*
X276214Y269065D01*
X274577Y267429D01*
X274577Y264477D01*
X274521Y264421D01*
X274577Y264365D01*
X294373Y263001D02*
X294373Y266364D01*
X294373Y263001D02*
X293069Y263001D01*
D23*
X330098Y325492D02*
X348145Y325492D01*
X348196Y325441D01*
X347980Y325657D02*
X347980Y337097D01*
X347980Y325657D02*
X348196Y325441D01*
D22*
X276479Y257467D02*
X274577Y259369D01*
X274577Y264365D01*
D24*
X276479Y257467D02*
X276479Y248044D01*
X277813Y246710D01*
D23*
X294551Y263178D02*
X313296Y263178D01*
X294551Y263178D02*
X294373Y263001D01*
D25*
X288208Y269521D02*
X279621Y269521D01*
X288208Y269521D02*
X294551Y263178D01*
D20*
X303149Y263817D03*
D23*
X313296Y263178D02*
X362424Y263178D01*
X370688Y254914D01*
D20*
X249809Y266357D03*
X249809Y290487D03*
D23*
X249809Y266357D01*
D20*
X469354Y358305D03*
D23*
X493484Y358305D01*
X450271Y362341D02*
X450271Y376351D01*
X450271Y362341D02*
X450365Y362247D01*
D20*
X397507Y401384D03*
X309900Y387490D03*
D22*
X264421Y274521D02*
X264421Y269521D01*
X279621Y274521D02*
X279621Y279521D01*
D20*
X313233Y309588D03*
D21*
X317404Y307011D02*
X330098Y308492D01*
X317404Y307011D02*
X313233Y309588D01*
X338883Y334779D02*
X341202Y337097D01*
D26*
X334580Y343726D02*
X334577Y343722D01*
D22*
X338992Y343722D01*
X341205Y341509D01*
X341205Y337100D01*
D26*
X341202Y337097D01*
D21*
X397507Y401384D02*
X397507Y458007D01*
X428802Y489302D01*
X340779Y401438D02*
X323849Y401438D01*
X309900Y387490D01*
X357827Y338722D02*
X357827Y314152D01*
X355584Y401438D02*
X340779Y401438D01*
D22*
X334577Y343722D02*
X325920Y343722D01*
X315138Y354504D01*
X309900Y387490D02*
X296075Y387490D01*
X261595Y353009D02*
X261595Y338734D01*
D20*
X261595Y338188D03*
D22*
X261595Y338734D01*
X261595Y353009D02*
X296075Y387490D01*
D21*
X266311Y274521D02*
X264421Y274521D01*
X266311Y274521D02*
X266509Y274323D01*
X277534Y274323D02*
X277732Y274521D01*
X279621Y274521D01*
X277534Y274323D02*
X266509Y274323D01*
X476364Y342915D02*
X508115Y342915D01*
X511402Y346202D01*
X421653Y352362D02*
X397472Y376542D01*
X397472Y401348D01*
X397507Y401384D01*
X355638Y401384D01*
X355584Y401438D01*
X377190Y381066D02*
X397507Y401384D01*
X263602Y419963D02*
X263602Y489302D01*
X263602Y419963D02*
X296075Y387490D01*
X192432Y334772D02*
X181002Y346202D01*
X257632Y334772D02*
X261595Y338734D01*
X257632Y334772D02*
X192432Y334772D01*
D22*
X428802Y204661D02*
X428802Y203102D01*
X285125Y224625D02*
X263602Y203102D01*
X428802Y203102D02*
X428802Y204661D01*
X428802Y203102D02*
X407279Y224625D01*
X285125Y224625D01*
D20*
X240900Y274700D03*
D21*
X222304Y274700D01*
X222302Y274702D01*
D20*
X227095Y401052D03*
D21*
X222302Y405845D01*
X222302Y417702D01*
D20*
X258216Y361696D03*
D21*
X246698Y361633D02*
X240222Y355157D01*
X246698Y361633D02*
X258153Y361633D01*
X258216Y361696D01*
X240222Y355157D02*
X240222Y343257D01*
X240222Y326257D02*
X240222Y311102D01*
X240181Y311061D01*
D20*
X459369Y327170D03*
D21*
X459369Y342910D01*
X459364Y342915D01*
D20*
X338770Y474287D03*
D21*
X346202Y481719D01*
X346202Y489302D01*
X363578Y463550D02*
X379476Y463550D01*
X363578Y463550D02*
X363543Y463586D01*
D20*
X363543Y463586D03*
X462189Y372991D03*
D21*
X462189Y386933D02*
X461772Y387350D01*
X462189Y386933D02*
X462189Y372991D01*
D20*
X449214Y274744D03*
D21*
X470060Y274744D01*
X470102Y274702D01*
D20*
X354066Y217812D03*
D21*
X354066Y210966D01*
X346202Y203102D01*
D20*
X469463Y398951D03*
D21*
X469463Y417063D02*
X470102Y417702D01*
X469463Y417063D02*
X469463Y398951D01*
X297942Y427228D02*
X284477Y427228D01*
D20*
X284477Y427228D03*
D21*
X297942Y452628D02*
X313248Y452628D01*
D20*
X313248Y452628D03*
D22*
X269521Y264421D02*
X269521Y260611D01*
X258813Y249903D02*
X258813Y246710D01*
X258813Y249903D02*
X269521Y260611D01*
D20*
X335572Y250914D03*
D22*
X292057Y250815D02*
X284136Y258736D01*
X292057Y250815D02*
X335473Y250815D01*
X335572Y250914D01*
X284136Y260006D02*
X279621Y264521D01*
X284136Y260006D02*
X284136Y258736D01*
D20*
X335298Y282092D03*
D22*
X274521Y282067D02*
X274521Y279621D01*
X274521Y282067D02*
X274577Y282123D01*
X274577Y284969D01*
X278686Y289077D01*
X319253Y289077D02*
X326390Y281940D01*
X335145Y281940D01*
X319253Y289077D02*
X278686Y289077D01*
X335145Y281940D02*
X335298Y282092D01*
D20*
X328412Y289446D03*
D22*
X269521Y286882D02*
X269521Y279621D01*
X328298Y289331D02*
X328412Y289446D01*
X328298Y289331D02*
X325909Y289331D01*
X321871Y293370D01*
X276009Y293370D01*
X269521Y286882D01*
X346202Y355347D02*
X346202Y362077D01*
X346202Y379015D01*
X340779Y384438D01*
D20*
X298602Y324409D03*
D21*
X362636Y291783D02*
X368656Y297802D01*
X368656Y354152D01*
X360820Y361988D01*
X346291Y361988D01*
D26*
X346202Y362077D01*
D21*
X264723Y279823D02*
X264421Y279521D01*
X264723Y279823D02*
X264723Y296918D01*
X293497Y310070D02*
X304648Y298920D01*
X293497Y319303D02*
X298602Y324409D01*
X293497Y319303D02*
X293497Y310070D01*
X336969Y291783D02*
X362636Y291783D01*
X336969Y291783D02*
X329832Y298920D01*
X304648Y298920D01*
X277876Y310070D02*
X264723Y296918D01*
X277876Y310070D02*
X293497Y310070D01*
D22*
X341202Y355347D02*
X341202Y363127D01*
X332825Y371504D02*
X315138Y371504D01*
X332825Y371504D02*
X341202Y363127D01*
D20*
X296570Y336817D03*
D21*
X296570Y363830D01*
X304245Y371504D02*
X315138Y371504D01*
X304245Y371504D02*
X296570Y363830D01*
X296570Y336817D02*
X257759Y298005D01*
X257759Y267873D01*
X261111Y264521D01*
X264421Y264521D01*
X363250Y341105D02*
X363250Y341235D01*
X363250Y341105D02*
X363893Y340462D01*
X360763Y343722D02*
X357827Y343722D01*
X360763Y343722D02*
X363250Y341235D01*
X363893Y340462D02*
X363893Y306017D01*
D20*
X356529Y298653D03*
D21*
X363893Y306017D01*
D20*
X304279Y313804D03*
D21*
X304279Y320154D02*
X322847Y338722D01*
X304279Y320154D02*
X304279Y313804D01*
X322847Y338722D02*
X334577Y338722D01*
M02*
