G04 EAGLE Gerber RS-274X export*
G75*
%MOMM*%
%FSLAX34Y34*%
%LPD*%
%INSilkscreen Top*%
%IPPOS*%
%AMOC8*
5,1,8,0,0,1.08239X$1,22.5*%
G01*
%ADD10C,0.101600*%
%ADD11C,0.152400*%
%ADD12R,0.014731X0.014731*%
%ADD13R,0.147319X0.014731*%
%ADD14R,0.265175X0.014731*%
%ADD15R,0.383031X0.014731*%
%ADD16R,0.515619X0.014731*%
%ADD17R,0.633475X0.014731*%
%ADD18R,0.751331X0.014731*%
%ADD19R,0.883919X0.014731*%
%ADD20R,1.001775X0.014731*%
%ADD21R,1.119631X0.014731*%
%ADD22R,1.134363X0.014731*%
%ADD23R,1.149094X0.014731*%
%ADD24R,1.163825X0.014731*%
%ADD25R,1.178556X0.014731*%
%ADD26R,1.193288X0.014731*%
%ADD27R,1.222756X0.014731*%
%ADD28R,1.237488X0.014731*%
%ADD29R,1.266950X0.014731*%
%ADD30R,1.281681X0.014731*%
%ADD31R,1.311144X0.014731*%
%ADD32R,1.325881X0.014731*%
%ADD33R,1.355344X0.014731*%
%ADD34R,1.370075X0.014731*%
%ADD35R,1.384806X0.014731*%
%ADD36R,1.399538X0.014731*%
%ADD37R,1.414275X0.014731*%
%ADD38R,1.443738X0.014731*%
%ADD39R,1.458469X0.014731*%
%ADD40R,1.487931X0.014731*%
%ADD41R,1.502663X0.014731*%
%ADD42R,1.517394X0.014731*%
%ADD43R,1.532125X0.014731*%
%ADD44R,1.546856X0.014731*%
%ADD45R,1.576319X0.014731*%
%ADD46R,1.605788X0.014731*%
%ADD47R,1.620519X0.014731*%
%ADD48R,1.649981X0.014731*%
%ADD49R,1.664713X0.014731*%
%ADD50R,1.694175X0.014731*%
%ADD51R,1.708913X0.014731*%
%ADD52R,1.738375X0.014731*%
%ADD53R,1.753106X0.014731*%
%ADD54R,1.767838X0.014731*%
%ADD55R,1.782569X0.014731*%
%ADD56R,1.797306X0.014731*%
%ADD57R,0.117856X0.014731*%
%ADD58R,1.826769X0.014731*%
%ADD59R,0.235713X0.014731*%
%ADD60R,0.353569X0.014731*%
%ADD61R,1.856231X0.014731*%
%ADD62R,0.486156X0.014731*%
%ADD63R,1.870963X0.014731*%
%ADD64R,0.604013X0.014731*%
%ADD65R,0.721869X0.014731*%
%ADD66R,1.885694X0.014731*%
%ADD67R,0.839719X0.014731*%
%ADD68R,0.972306X0.014731*%
%ADD69R,1.090169X0.014731*%
%ADD70R,1.208025X0.014731*%
%ADD71R,1.252219X0.014731*%
%ADD72R,1.296412X0.014731*%
%ADD73R,1.340612X0.014731*%
%ADD74R,1.826763X0.014731*%
%ADD75R,1.414269X0.014731*%
%ADD76R,1.812031X0.014731*%
%ADD77R,1.429000X0.014731*%
%ADD78R,1.458462X0.014731*%
%ADD79R,1.473200X0.014731*%
%ADD80R,1.723644X0.014731*%
%ADD81R,1.694181X0.014731*%
%ADD82R,1.679450X0.014731*%
%ADD83R,1.561594X0.014731*%
%ADD84R,1.576325X0.014731*%
%ADD85R,1.591056X0.014731*%
%ADD86R,1.635250X0.014731*%
%ADD87R,1.561588X0.014731*%
%ADD88R,1.443731X0.014731*%
%ADD89R,1.797300X0.014731*%
%ADD90R,1.841500X0.014731*%
%ADD91R,1.311150X0.014731*%
%ADD92R,1.296419X0.014731*%
%ADD93R,1.193294X0.014731*%
%ADD94R,0.957575X0.014731*%
%ADD95R,0.589281X0.014731*%
%ADD96R,0.471425X0.014731*%
%ADD97R,0.220975X0.014731*%
%ADD98R,1.812038X0.014731*%
%ADD99R,0.103119X0.014731*%
%ADD100R,0.029463X0.014731*%
%ADD101R,0.162050X0.014731*%
%ADD102R,0.397763X0.014731*%
%ADD103R,0.648206X0.014731*%
%ADD104R,1.679444X0.014731*%
%ADD105R,1.016506X0.014731*%
%ADD106R,1.104900X0.014731*%
%ADD107R,1.222750X0.014731*%
%ADD108R,1.429006X0.014731*%
%ADD109R,1.208019X0.014731*%
%ADD110R,0.987044X0.014731*%
%ADD111R,0.854456X0.014731*%
%ADD112R,0.618744X0.014731*%
%ADD113R,0.500888X0.014731*%
%ADD114R,0.368300X0.014731*%
%ADD115R,0.132587X0.014731*%
%ADD116R,1.664719X0.014731*%
%ADD117R,1.075438X0.014731*%
%ADD118R,0.942844X0.014731*%
%ADD119R,0.707131X0.014731*%
%ADD120R,0.456694X0.014731*%
%ADD121R,0.088388X0.014731*%
%ADD122C,0.304800*%
%ADD123C,0.127000*%
%ADD124C,0.076200*%
%ADD125C,0.200000*%


D10*
X403428Y475532D02*
X406086Y473670D01*
X406180Y473607D01*
X406276Y473547D01*
X406374Y473490D01*
X406474Y473437D01*
X406576Y473387D01*
X406680Y473341D01*
X406785Y473299D01*
X406891Y473260D01*
X406999Y473225D01*
X407108Y473194D01*
X407218Y473166D01*
X407329Y473143D01*
X407440Y473123D01*
X407552Y473107D01*
X407665Y473095D01*
X407778Y473087D01*
X407891Y473083D01*
X408005Y473083D01*
X408118Y473087D01*
X408231Y473095D01*
X408344Y473107D01*
X408456Y473123D01*
X408567Y473143D01*
X408678Y473166D01*
X408788Y473194D01*
X408897Y473225D01*
X409005Y473260D01*
X409111Y473299D01*
X409216Y473341D01*
X409320Y473387D01*
X409422Y473437D01*
X409522Y473490D01*
X409620Y473547D01*
X409716Y473607D01*
X409810Y473670D01*
X409901Y473737D01*
X409991Y473806D01*
X410078Y473879D01*
X410162Y473955D01*
X410243Y474034D01*
X410322Y474115D01*
X410398Y474199D01*
X410471Y474286D01*
X410540Y474376D01*
X410607Y474467D01*
X410670Y474561D01*
X410730Y474657D01*
X410787Y474755D01*
X410840Y474855D01*
X410890Y474957D01*
X410936Y475061D01*
X410978Y475166D01*
X411017Y475272D01*
X411052Y475380D01*
X411083Y475489D01*
X411111Y475599D01*
X411134Y475710D01*
X411154Y475821D01*
X411170Y475933D01*
X411182Y476046D01*
X411190Y476159D01*
X411194Y476272D01*
X411194Y476386D01*
X411190Y476499D01*
X411182Y476612D01*
X411170Y476725D01*
X411154Y476837D01*
X411134Y476948D01*
X411111Y477059D01*
X411083Y477169D01*
X411052Y477278D01*
X411017Y477386D01*
X410978Y477492D01*
X410936Y477597D01*
X410890Y477701D01*
X410840Y477803D01*
X410787Y477903D01*
X410730Y478001D01*
X410670Y478097D01*
X410607Y478191D01*
X410540Y478282D01*
X410471Y478372D01*
X410398Y478459D01*
X410322Y478543D01*
X410243Y478624D01*
X410162Y478703D01*
X410078Y478779D01*
X409991Y478852D01*
X409902Y478921D01*
X409810Y478988D01*
X413320Y482869D02*
X410129Y485103D01*
X413319Y482869D02*
X413400Y482809D01*
X413479Y482747D01*
X413556Y482681D01*
X413630Y482613D01*
X413701Y482542D01*
X413769Y482468D01*
X413835Y482391D01*
X413897Y482312D01*
X413957Y482231D01*
X414013Y482147D01*
X414066Y482062D01*
X414115Y481974D01*
X414161Y481885D01*
X414204Y481793D01*
X414243Y481700D01*
X414278Y481606D01*
X414310Y481511D01*
X414338Y481414D01*
X414362Y481316D01*
X414382Y481218D01*
X414399Y481118D01*
X414411Y481018D01*
X414420Y480918D01*
X414425Y480818D01*
X414426Y480717D01*
X414423Y480616D01*
X414416Y480516D01*
X414405Y480416D01*
X414391Y480316D01*
X414372Y480217D01*
X414350Y480119D01*
X414324Y480022D01*
X414294Y479925D01*
X414261Y479831D01*
X414224Y479737D01*
X414183Y479645D01*
X414138Y479554D01*
X414091Y479466D01*
X414039Y479379D01*
X413985Y479295D01*
X413927Y479212D01*
X413866Y479132D01*
X413802Y479054D01*
X413735Y478979D01*
X413666Y478906D01*
X413593Y478837D01*
X413518Y478770D01*
X413440Y478706D01*
X413360Y478645D01*
X413277Y478587D01*
X413193Y478533D01*
X413106Y478481D01*
X413018Y478434D01*
X412927Y478389D01*
X412835Y478348D01*
X412741Y478311D01*
X412647Y478278D01*
X412550Y478248D01*
X412453Y478222D01*
X412355Y478200D01*
X412256Y478181D01*
X412156Y478167D01*
X412056Y478156D01*
X411956Y478149D01*
X411855Y478146D01*
X411754Y478147D01*
X411654Y478152D01*
X411554Y478161D01*
X411454Y478173D01*
X411354Y478190D01*
X411256Y478210D01*
X411158Y478234D01*
X411061Y478262D01*
X410966Y478294D01*
X410872Y478329D01*
X410779Y478368D01*
X410687Y478411D01*
X410598Y478457D01*
X410510Y478506D01*
X410425Y478559D01*
X410341Y478615D01*
X408214Y480105D01*
X418960Y478919D02*
X415449Y467114D01*
X425341Y474452D01*
X422153Y462420D02*
X424812Y460558D01*
X424906Y460495D01*
X425002Y460435D01*
X425100Y460378D01*
X425200Y460325D01*
X425302Y460275D01*
X425406Y460229D01*
X425511Y460187D01*
X425617Y460148D01*
X425725Y460113D01*
X425834Y460082D01*
X425944Y460054D01*
X426055Y460031D01*
X426166Y460011D01*
X426278Y459995D01*
X426391Y459983D01*
X426504Y459975D01*
X426617Y459971D01*
X426731Y459971D01*
X426844Y459975D01*
X426957Y459983D01*
X427070Y459995D01*
X427182Y460011D01*
X427293Y460031D01*
X427404Y460054D01*
X427514Y460082D01*
X427623Y460113D01*
X427731Y460148D01*
X427837Y460187D01*
X427942Y460229D01*
X428046Y460275D01*
X428148Y460325D01*
X428248Y460378D01*
X428346Y460435D01*
X428442Y460495D01*
X428536Y460558D01*
X428627Y460625D01*
X428717Y460694D01*
X428804Y460767D01*
X428888Y460843D01*
X428969Y460922D01*
X429048Y461003D01*
X429124Y461087D01*
X429197Y461174D01*
X429266Y461264D01*
X429333Y461355D01*
X429396Y461449D01*
X429456Y461545D01*
X429513Y461643D01*
X429566Y461743D01*
X429616Y461845D01*
X429662Y461949D01*
X429704Y462054D01*
X429743Y462160D01*
X429778Y462268D01*
X429809Y462377D01*
X429837Y462487D01*
X429860Y462598D01*
X429880Y462709D01*
X429896Y462821D01*
X429908Y462934D01*
X429916Y463047D01*
X429920Y463160D01*
X429920Y463274D01*
X429916Y463387D01*
X429908Y463500D01*
X429896Y463613D01*
X429880Y463725D01*
X429860Y463836D01*
X429837Y463947D01*
X429809Y464057D01*
X429778Y464166D01*
X429743Y464274D01*
X429704Y464380D01*
X429662Y464485D01*
X429616Y464589D01*
X429566Y464691D01*
X429513Y464791D01*
X429456Y464889D01*
X429396Y464985D01*
X429333Y465079D01*
X429266Y465170D01*
X429197Y465260D01*
X429124Y465347D01*
X429048Y465431D01*
X428969Y465512D01*
X428888Y465591D01*
X428804Y465667D01*
X428717Y465740D01*
X428628Y465809D01*
X428536Y465876D01*
X432045Y469757D02*
X428855Y471991D01*
X432045Y469757D02*
X432126Y469697D01*
X432205Y469635D01*
X432282Y469569D01*
X432356Y469501D01*
X432427Y469430D01*
X432495Y469356D01*
X432561Y469279D01*
X432623Y469200D01*
X432683Y469119D01*
X432739Y469035D01*
X432792Y468950D01*
X432841Y468862D01*
X432887Y468773D01*
X432930Y468681D01*
X432969Y468588D01*
X433004Y468494D01*
X433036Y468399D01*
X433064Y468302D01*
X433088Y468204D01*
X433108Y468106D01*
X433125Y468006D01*
X433137Y467906D01*
X433146Y467806D01*
X433151Y467706D01*
X433152Y467605D01*
X433149Y467504D01*
X433142Y467404D01*
X433131Y467304D01*
X433117Y467204D01*
X433098Y467105D01*
X433076Y467007D01*
X433050Y466910D01*
X433020Y466813D01*
X432987Y466719D01*
X432950Y466625D01*
X432909Y466533D01*
X432864Y466442D01*
X432817Y466354D01*
X432765Y466267D01*
X432711Y466183D01*
X432653Y466100D01*
X432592Y466020D01*
X432528Y465942D01*
X432461Y465867D01*
X432392Y465794D01*
X432319Y465725D01*
X432244Y465658D01*
X432166Y465594D01*
X432086Y465533D01*
X432003Y465475D01*
X431919Y465421D01*
X431832Y465369D01*
X431744Y465322D01*
X431653Y465277D01*
X431561Y465236D01*
X431467Y465199D01*
X431373Y465166D01*
X431276Y465136D01*
X431179Y465110D01*
X431081Y465088D01*
X430982Y465069D01*
X430882Y465055D01*
X430782Y465044D01*
X430682Y465037D01*
X430581Y465034D01*
X430480Y465035D01*
X430380Y465040D01*
X430280Y465049D01*
X430180Y465061D01*
X430080Y465078D01*
X429982Y465098D01*
X429884Y465122D01*
X429787Y465150D01*
X429692Y465182D01*
X429598Y465217D01*
X429505Y465256D01*
X429413Y465299D01*
X429324Y465345D01*
X429236Y465394D01*
X429151Y465447D01*
X429067Y465503D01*
X426940Y466993D01*
X497242Y334770D02*
X497242Y331524D01*
X497242Y334770D02*
X497240Y334883D01*
X497234Y334996D01*
X497224Y335109D01*
X497210Y335222D01*
X497193Y335334D01*
X497171Y335445D01*
X497146Y335555D01*
X497116Y335665D01*
X497083Y335773D01*
X497046Y335880D01*
X497006Y335986D01*
X496961Y336090D01*
X496913Y336193D01*
X496862Y336294D01*
X496807Y336393D01*
X496749Y336490D01*
X496687Y336585D01*
X496622Y336678D01*
X496554Y336768D01*
X496483Y336856D01*
X496408Y336942D01*
X496331Y337025D01*
X496251Y337105D01*
X496168Y337182D01*
X496082Y337257D01*
X495994Y337328D01*
X495904Y337396D01*
X495811Y337461D01*
X495716Y337523D01*
X495619Y337581D01*
X495520Y337636D01*
X495419Y337687D01*
X495316Y337735D01*
X495212Y337780D01*
X495106Y337820D01*
X494999Y337857D01*
X494891Y337890D01*
X494781Y337920D01*
X494671Y337945D01*
X494560Y337967D01*
X494448Y337984D01*
X494335Y337998D01*
X494222Y338008D01*
X494109Y338014D01*
X493996Y338016D01*
X493883Y338014D01*
X493770Y338008D01*
X493657Y337998D01*
X493544Y337984D01*
X493432Y337967D01*
X493321Y337945D01*
X493211Y337920D01*
X493101Y337890D01*
X492993Y337857D01*
X492886Y337820D01*
X492780Y337780D01*
X492676Y337735D01*
X492573Y337687D01*
X492472Y337636D01*
X492373Y337581D01*
X492276Y337523D01*
X492181Y337461D01*
X492088Y337396D01*
X491998Y337328D01*
X491910Y337257D01*
X491824Y337182D01*
X491741Y337105D01*
X491661Y337025D01*
X491584Y336942D01*
X491509Y336856D01*
X491438Y336768D01*
X491370Y336678D01*
X491305Y336585D01*
X491243Y336490D01*
X491185Y336393D01*
X491130Y336294D01*
X491079Y336193D01*
X491031Y336090D01*
X490986Y335986D01*
X490946Y335880D01*
X490909Y335773D01*
X490876Y335665D01*
X490846Y335555D01*
X490821Y335445D01*
X490799Y335334D01*
X490782Y335222D01*
X490768Y335109D01*
X490758Y334996D01*
X490752Y334883D01*
X490750Y334770D01*
X485558Y335419D02*
X485558Y331524D01*
X485558Y335419D02*
X485560Y335520D01*
X485566Y335620D01*
X485576Y335720D01*
X485589Y335820D01*
X485607Y335919D01*
X485628Y336018D01*
X485653Y336115D01*
X485682Y336212D01*
X485715Y336307D01*
X485751Y336401D01*
X485791Y336493D01*
X485834Y336584D01*
X485881Y336673D01*
X485931Y336760D01*
X485985Y336846D01*
X486042Y336929D01*
X486102Y337009D01*
X486165Y337088D01*
X486232Y337164D01*
X486301Y337237D01*
X486373Y337307D01*
X486447Y337375D01*
X486524Y337440D01*
X486604Y337501D01*
X486686Y337560D01*
X486770Y337615D01*
X486856Y337667D01*
X486944Y337716D01*
X487034Y337761D01*
X487126Y337803D01*
X487219Y337841D01*
X487314Y337875D01*
X487409Y337906D01*
X487506Y337933D01*
X487604Y337956D01*
X487703Y337976D01*
X487803Y337991D01*
X487903Y338003D01*
X488003Y338011D01*
X488104Y338015D01*
X488204Y338015D01*
X488305Y338011D01*
X488405Y338003D01*
X488505Y337991D01*
X488605Y337976D01*
X488704Y337956D01*
X488802Y337933D01*
X488899Y337906D01*
X488994Y337875D01*
X489089Y337841D01*
X489182Y337803D01*
X489274Y337761D01*
X489364Y337716D01*
X489452Y337667D01*
X489538Y337615D01*
X489622Y337560D01*
X489704Y337501D01*
X489784Y337440D01*
X489861Y337375D01*
X489935Y337307D01*
X490007Y337237D01*
X490076Y337164D01*
X490143Y337088D01*
X490206Y337009D01*
X490266Y336929D01*
X490323Y336846D01*
X490377Y336760D01*
X490427Y336673D01*
X490474Y336584D01*
X490517Y336493D01*
X490557Y336401D01*
X490593Y336307D01*
X490626Y336212D01*
X490655Y336115D01*
X490680Y336018D01*
X490701Y335919D01*
X490719Y335820D01*
X490732Y335720D01*
X490742Y335620D01*
X490748Y335520D01*
X490750Y335419D01*
X490751Y335419D02*
X490751Y332823D01*
X485558Y342305D02*
X497242Y346200D01*
X485558Y350095D01*
X497242Y354384D02*
X497242Y357630D01*
X497240Y357743D01*
X497234Y357856D01*
X497224Y357969D01*
X497210Y358082D01*
X497193Y358194D01*
X497171Y358305D01*
X497146Y358415D01*
X497116Y358525D01*
X497083Y358633D01*
X497046Y358740D01*
X497006Y358846D01*
X496961Y358950D01*
X496913Y359053D01*
X496862Y359154D01*
X496807Y359253D01*
X496749Y359350D01*
X496687Y359445D01*
X496622Y359538D01*
X496554Y359628D01*
X496483Y359716D01*
X496408Y359802D01*
X496331Y359885D01*
X496251Y359965D01*
X496168Y360042D01*
X496082Y360117D01*
X495994Y360188D01*
X495904Y360256D01*
X495811Y360321D01*
X495716Y360383D01*
X495619Y360441D01*
X495520Y360496D01*
X495419Y360547D01*
X495316Y360595D01*
X495212Y360640D01*
X495106Y360680D01*
X494999Y360717D01*
X494891Y360750D01*
X494781Y360780D01*
X494671Y360805D01*
X494560Y360827D01*
X494448Y360844D01*
X494335Y360858D01*
X494222Y360868D01*
X494109Y360874D01*
X493996Y360876D01*
X493883Y360874D01*
X493770Y360868D01*
X493657Y360858D01*
X493544Y360844D01*
X493432Y360827D01*
X493321Y360805D01*
X493211Y360780D01*
X493101Y360750D01*
X492993Y360717D01*
X492886Y360680D01*
X492780Y360640D01*
X492676Y360595D01*
X492573Y360547D01*
X492472Y360496D01*
X492373Y360441D01*
X492276Y360383D01*
X492181Y360321D01*
X492088Y360256D01*
X491998Y360188D01*
X491910Y360117D01*
X491824Y360042D01*
X491741Y359965D01*
X491661Y359885D01*
X491584Y359802D01*
X491509Y359716D01*
X491438Y359628D01*
X491370Y359538D01*
X491305Y359445D01*
X491243Y359350D01*
X491185Y359253D01*
X491130Y359154D01*
X491079Y359053D01*
X491031Y358950D01*
X490986Y358846D01*
X490946Y358740D01*
X490909Y358633D01*
X490876Y358525D01*
X490846Y358415D01*
X490821Y358305D01*
X490799Y358194D01*
X490782Y358082D01*
X490768Y357969D01*
X490758Y357856D01*
X490752Y357743D01*
X490750Y357630D01*
X485558Y358279D02*
X485558Y354384D01*
X485558Y358279D02*
X485560Y358380D01*
X485566Y358480D01*
X485576Y358580D01*
X485589Y358680D01*
X485607Y358779D01*
X485628Y358878D01*
X485653Y358975D01*
X485682Y359072D01*
X485715Y359167D01*
X485751Y359261D01*
X485791Y359353D01*
X485834Y359444D01*
X485881Y359533D01*
X485931Y359620D01*
X485985Y359706D01*
X486042Y359789D01*
X486102Y359869D01*
X486165Y359948D01*
X486232Y360024D01*
X486301Y360097D01*
X486373Y360167D01*
X486447Y360235D01*
X486524Y360300D01*
X486604Y360361D01*
X486686Y360420D01*
X486770Y360475D01*
X486856Y360527D01*
X486944Y360576D01*
X487034Y360621D01*
X487126Y360663D01*
X487219Y360701D01*
X487314Y360735D01*
X487409Y360766D01*
X487506Y360793D01*
X487604Y360816D01*
X487703Y360836D01*
X487803Y360851D01*
X487903Y360863D01*
X488003Y360871D01*
X488104Y360875D01*
X488204Y360875D01*
X488305Y360871D01*
X488405Y360863D01*
X488505Y360851D01*
X488605Y360836D01*
X488704Y360816D01*
X488802Y360793D01*
X488899Y360766D01*
X488994Y360735D01*
X489089Y360701D01*
X489182Y360663D01*
X489274Y360621D01*
X489364Y360576D01*
X489452Y360527D01*
X489538Y360475D01*
X489622Y360420D01*
X489704Y360361D01*
X489784Y360300D01*
X489861Y360235D01*
X489935Y360167D01*
X490007Y360097D01*
X490076Y360024D01*
X490143Y359948D01*
X490206Y359869D01*
X490266Y359789D01*
X490323Y359706D01*
X490377Y359620D01*
X490427Y359533D01*
X490474Y359444D01*
X490517Y359353D01*
X490557Y359261D01*
X490593Y359167D01*
X490626Y359072D01*
X490655Y358975D01*
X490680Y358878D01*
X490701Y358779D01*
X490719Y358680D01*
X490732Y358580D01*
X490742Y358480D01*
X490748Y358380D01*
X490750Y358279D01*
X490751Y358279D02*
X490751Y355683D01*
X412788Y209159D02*
X410129Y207297D01*
X412788Y209158D02*
X412879Y209225D01*
X412969Y209294D01*
X413056Y209367D01*
X413140Y209443D01*
X413221Y209522D01*
X413300Y209603D01*
X413376Y209687D01*
X413449Y209774D01*
X413518Y209864D01*
X413585Y209955D01*
X413648Y210049D01*
X413708Y210145D01*
X413765Y210243D01*
X413818Y210343D01*
X413868Y210445D01*
X413914Y210549D01*
X413956Y210654D01*
X413995Y210760D01*
X414030Y210868D01*
X414061Y210977D01*
X414089Y211087D01*
X414112Y211198D01*
X414132Y211309D01*
X414148Y211421D01*
X414160Y211534D01*
X414168Y211647D01*
X414172Y211760D01*
X414172Y211874D01*
X414168Y211987D01*
X414160Y212100D01*
X414148Y212213D01*
X414132Y212325D01*
X414112Y212436D01*
X414089Y212547D01*
X414061Y212657D01*
X414030Y212766D01*
X413995Y212874D01*
X413956Y212980D01*
X413914Y213085D01*
X413868Y213189D01*
X413818Y213291D01*
X413765Y213391D01*
X413708Y213489D01*
X413648Y213585D01*
X413585Y213679D01*
X413518Y213770D01*
X413449Y213860D01*
X413376Y213947D01*
X413300Y214031D01*
X413221Y214112D01*
X413140Y214191D01*
X413056Y214267D01*
X412969Y214340D01*
X412880Y214409D01*
X412788Y214476D01*
X412694Y214539D01*
X412598Y214599D01*
X412500Y214656D01*
X412400Y214709D01*
X412298Y214759D01*
X412194Y214805D01*
X412089Y214847D01*
X411983Y214886D01*
X411875Y214921D01*
X411766Y214952D01*
X411656Y214980D01*
X411545Y215003D01*
X411434Y215023D01*
X411322Y215039D01*
X411209Y215051D01*
X411096Y215059D01*
X410983Y215063D01*
X410869Y215063D01*
X410756Y215059D01*
X410643Y215051D01*
X410530Y215039D01*
X410418Y215023D01*
X410307Y215003D01*
X410196Y214980D01*
X410086Y214952D01*
X409977Y214921D01*
X409869Y214886D01*
X409763Y214847D01*
X409658Y214805D01*
X409554Y214759D01*
X409452Y214709D01*
X409352Y214656D01*
X409254Y214599D01*
X409158Y214539D01*
X409064Y214476D01*
X406618Y219102D02*
X403428Y216868D01*
X406618Y219102D02*
X406702Y219158D01*
X406787Y219211D01*
X406875Y219260D01*
X406964Y219306D01*
X407056Y219349D01*
X407149Y219388D01*
X407243Y219423D01*
X407338Y219455D01*
X407435Y219483D01*
X407533Y219507D01*
X407631Y219527D01*
X407731Y219544D01*
X407831Y219556D01*
X407931Y219565D01*
X408032Y219570D01*
X408132Y219571D01*
X408233Y219568D01*
X408333Y219561D01*
X408433Y219550D01*
X408533Y219536D01*
X408632Y219517D01*
X408730Y219495D01*
X408827Y219469D01*
X408924Y219439D01*
X409019Y219406D01*
X409112Y219369D01*
X409204Y219328D01*
X409295Y219283D01*
X409383Y219236D01*
X409470Y219184D01*
X409554Y219130D01*
X409637Y219072D01*
X409717Y219011D01*
X409795Y218947D01*
X409870Y218880D01*
X409943Y218811D01*
X410012Y218738D01*
X410079Y218663D01*
X410143Y218585D01*
X410204Y218505D01*
X410262Y218422D01*
X410316Y218338D01*
X410368Y218251D01*
X410415Y218163D01*
X410460Y218072D01*
X410501Y217980D01*
X410538Y217886D01*
X410571Y217792D01*
X410601Y217695D01*
X410627Y217598D01*
X410649Y217500D01*
X410668Y217401D01*
X410682Y217301D01*
X410693Y217201D01*
X410700Y217101D01*
X410703Y217000D01*
X410702Y216900D01*
X410697Y216799D01*
X410688Y216699D01*
X410676Y216599D01*
X410659Y216499D01*
X410639Y216401D01*
X410615Y216303D01*
X410587Y216206D01*
X410555Y216111D01*
X410520Y216017D01*
X410481Y215924D01*
X410438Y215832D01*
X410392Y215743D01*
X410343Y215655D01*
X410290Y215570D01*
X410234Y215486D01*
X410174Y215405D01*
X410112Y215326D01*
X410046Y215249D01*
X409978Y215175D01*
X409907Y215104D01*
X409833Y215036D01*
X409756Y214970D01*
X409677Y214908D01*
X409596Y214848D01*
X407470Y213359D01*
X412259Y223052D02*
X422151Y215714D01*
X418639Y227519D01*
X428855Y220409D02*
X431514Y222270D01*
X431605Y222337D01*
X431695Y222406D01*
X431782Y222479D01*
X431866Y222555D01*
X431947Y222634D01*
X432026Y222715D01*
X432102Y222799D01*
X432175Y222886D01*
X432244Y222976D01*
X432311Y223067D01*
X432374Y223161D01*
X432434Y223257D01*
X432491Y223355D01*
X432544Y223455D01*
X432594Y223557D01*
X432640Y223661D01*
X432682Y223766D01*
X432721Y223872D01*
X432756Y223980D01*
X432787Y224089D01*
X432815Y224199D01*
X432838Y224310D01*
X432858Y224421D01*
X432874Y224533D01*
X432886Y224646D01*
X432894Y224759D01*
X432898Y224872D01*
X432898Y224986D01*
X432894Y225099D01*
X432886Y225212D01*
X432874Y225325D01*
X432858Y225437D01*
X432838Y225548D01*
X432815Y225659D01*
X432787Y225769D01*
X432756Y225878D01*
X432721Y225986D01*
X432682Y226092D01*
X432640Y226197D01*
X432594Y226301D01*
X432544Y226403D01*
X432491Y226503D01*
X432434Y226601D01*
X432374Y226697D01*
X432311Y226791D01*
X432244Y226882D01*
X432175Y226972D01*
X432102Y227059D01*
X432026Y227143D01*
X431947Y227224D01*
X431866Y227303D01*
X431782Y227379D01*
X431695Y227452D01*
X431606Y227521D01*
X431514Y227588D01*
X431420Y227651D01*
X431324Y227711D01*
X431226Y227768D01*
X431126Y227821D01*
X431024Y227871D01*
X430920Y227917D01*
X430815Y227959D01*
X430709Y227998D01*
X430601Y228033D01*
X430492Y228064D01*
X430382Y228092D01*
X430271Y228115D01*
X430160Y228135D01*
X430048Y228151D01*
X429935Y228163D01*
X429822Y228171D01*
X429709Y228175D01*
X429595Y228175D01*
X429482Y228171D01*
X429369Y228163D01*
X429256Y228151D01*
X429144Y228135D01*
X429033Y228115D01*
X428922Y228092D01*
X428812Y228064D01*
X428703Y228033D01*
X428595Y227998D01*
X428489Y227959D01*
X428384Y227917D01*
X428280Y227871D01*
X428178Y227821D01*
X428078Y227768D01*
X427980Y227711D01*
X427884Y227651D01*
X427790Y227588D01*
X425344Y232214D02*
X422153Y229980D01*
X425344Y232214D02*
X425428Y232270D01*
X425513Y232323D01*
X425601Y232372D01*
X425690Y232418D01*
X425782Y232461D01*
X425875Y232500D01*
X425969Y232535D01*
X426064Y232567D01*
X426161Y232595D01*
X426259Y232619D01*
X426357Y232639D01*
X426457Y232656D01*
X426557Y232668D01*
X426657Y232677D01*
X426758Y232682D01*
X426858Y232683D01*
X426959Y232680D01*
X427059Y232673D01*
X427159Y232662D01*
X427259Y232648D01*
X427358Y232629D01*
X427456Y232607D01*
X427553Y232581D01*
X427650Y232551D01*
X427745Y232518D01*
X427838Y232481D01*
X427930Y232440D01*
X428021Y232395D01*
X428109Y232348D01*
X428196Y232296D01*
X428280Y232242D01*
X428363Y232184D01*
X428443Y232123D01*
X428521Y232059D01*
X428596Y231992D01*
X428669Y231923D01*
X428738Y231850D01*
X428805Y231775D01*
X428869Y231697D01*
X428930Y231617D01*
X428988Y231534D01*
X429042Y231450D01*
X429094Y231363D01*
X429141Y231275D01*
X429186Y231184D01*
X429227Y231092D01*
X429264Y230998D01*
X429297Y230904D01*
X429327Y230807D01*
X429353Y230710D01*
X429375Y230612D01*
X429394Y230513D01*
X429408Y230413D01*
X429419Y230313D01*
X429426Y230213D01*
X429429Y230112D01*
X429428Y230012D01*
X429423Y229911D01*
X429414Y229811D01*
X429402Y229711D01*
X429385Y229611D01*
X429365Y229513D01*
X429341Y229415D01*
X429313Y229318D01*
X429281Y229223D01*
X429246Y229129D01*
X429207Y229036D01*
X429164Y228944D01*
X429118Y228855D01*
X429069Y228767D01*
X429016Y228682D01*
X428960Y228598D01*
X428900Y228517D01*
X428838Y228438D01*
X428772Y228361D01*
X428704Y228287D01*
X428633Y228216D01*
X428559Y228148D01*
X428482Y228082D01*
X428403Y228020D01*
X428322Y227960D01*
X426195Y226471D01*
X260886Y222270D02*
X258228Y224132D01*
X260886Y222270D02*
X260980Y222207D01*
X261076Y222147D01*
X261174Y222090D01*
X261274Y222037D01*
X261376Y221987D01*
X261480Y221941D01*
X261585Y221899D01*
X261691Y221860D01*
X261799Y221825D01*
X261908Y221794D01*
X262018Y221766D01*
X262129Y221743D01*
X262240Y221723D01*
X262352Y221707D01*
X262465Y221695D01*
X262578Y221687D01*
X262691Y221683D01*
X262805Y221683D01*
X262918Y221687D01*
X263031Y221695D01*
X263144Y221707D01*
X263256Y221723D01*
X263367Y221743D01*
X263478Y221766D01*
X263588Y221794D01*
X263697Y221825D01*
X263805Y221860D01*
X263911Y221899D01*
X264016Y221941D01*
X264120Y221987D01*
X264222Y222037D01*
X264322Y222090D01*
X264420Y222147D01*
X264516Y222207D01*
X264610Y222270D01*
X264701Y222337D01*
X264791Y222406D01*
X264878Y222479D01*
X264962Y222555D01*
X265043Y222634D01*
X265122Y222715D01*
X265198Y222799D01*
X265271Y222886D01*
X265340Y222976D01*
X265407Y223067D01*
X265470Y223161D01*
X265530Y223257D01*
X265587Y223355D01*
X265640Y223455D01*
X265690Y223557D01*
X265736Y223661D01*
X265778Y223766D01*
X265817Y223872D01*
X265852Y223980D01*
X265883Y224089D01*
X265911Y224199D01*
X265934Y224310D01*
X265954Y224421D01*
X265970Y224533D01*
X265982Y224646D01*
X265990Y224759D01*
X265994Y224872D01*
X265994Y224986D01*
X265990Y225099D01*
X265982Y225212D01*
X265970Y225325D01*
X265954Y225437D01*
X265934Y225548D01*
X265911Y225659D01*
X265883Y225769D01*
X265852Y225878D01*
X265817Y225986D01*
X265778Y226092D01*
X265736Y226197D01*
X265690Y226301D01*
X265640Y226403D01*
X265587Y226503D01*
X265530Y226601D01*
X265470Y226697D01*
X265407Y226791D01*
X265340Y226882D01*
X265271Y226972D01*
X265198Y227059D01*
X265122Y227143D01*
X265043Y227224D01*
X264962Y227303D01*
X264878Y227379D01*
X264791Y227452D01*
X264702Y227521D01*
X264610Y227588D01*
X268120Y231469D02*
X264929Y233703D01*
X268119Y231469D02*
X268200Y231409D01*
X268279Y231347D01*
X268356Y231281D01*
X268430Y231213D01*
X268501Y231142D01*
X268569Y231068D01*
X268635Y230991D01*
X268697Y230912D01*
X268757Y230831D01*
X268813Y230747D01*
X268866Y230662D01*
X268915Y230574D01*
X268961Y230485D01*
X269004Y230393D01*
X269043Y230300D01*
X269078Y230206D01*
X269110Y230111D01*
X269138Y230014D01*
X269162Y229916D01*
X269182Y229818D01*
X269199Y229718D01*
X269211Y229618D01*
X269220Y229518D01*
X269225Y229418D01*
X269226Y229317D01*
X269223Y229216D01*
X269216Y229116D01*
X269205Y229016D01*
X269191Y228916D01*
X269172Y228817D01*
X269150Y228719D01*
X269124Y228622D01*
X269094Y228525D01*
X269061Y228431D01*
X269024Y228337D01*
X268983Y228245D01*
X268938Y228154D01*
X268891Y228066D01*
X268839Y227979D01*
X268785Y227895D01*
X268727Y227812D01*
X268666Y227732D01*
X268602Y227654D01*
X268535Y227579D01*
X268466Y227506D01*
X268393Y227437D01*
X268318Y227370D01*
X268240Y227306D01*
X268160Y227245D01*
X268077Y227187D01*
X267993Y227133D01*
X267906Y227081D01*
X267818Y227034D01*
X267727Y226989D01*
X267635Y226948D01*
X267541Y226911D01*
X267447Y226878D01*
X267350Y226848D01*
X267253Y226822D01*
X267155Y226800D01*
X267056Y226781D01*
X266956Y226767D01*
X266856Y226756D01*
X266756Y226749D01*
X266655Y226746D01*
X266554Y226747D01*
X266454Y226752D01*
X266354Y226761D01*
X266254Y226773D01*
X266154Y226790D01*
X266056Y226810D01*
X265958Y226834D01*
X265861Y226862D01*
X265766Y226894D01*
X265672Y226929D01*
X265579Y226968D01*
X265487Y227011D01*
X265398Y227057D01*
X265310Y227106D01*
X265225Y227159D01*
X265141Y227215D01*
X263014Y228705D01*
X273760Y227519D02*
X270249Y215714D01*
X280141Y223052D01*
X276953Y211020D02*
X279612Y209158D01*
X279706Y209095D01*
X279802Y209035D01*
X279900Y208978D01*
X280000Y208925D01*
X280102Y208875D01*
X280206Y208829D01*
X280311Y208787D01*
X280417Y208748D01*
X280525Y208713D01*
X280634Y208682D01*
X280744Y208654D01*
X280855Y208631D01*
X280966Y208611D01*
X281078Y208595D01*
X281191Y208583D01*
X281304Y208575D01*
X281417Y208571D01*
X281531Y208571D01*
X281644Y208575D01*
X281757Y208583D01*
X281870Y208595D01*
X281982Y208611D01*
X282093Y208631D01*
X282204Y208654D01*
X282314Y208682D01*
X282423Y208713D01*
X282531Y208748D01*
X282637Y208787D01*
X282742Y208829D01*
X282846Y208875D01*
X282948Y208925D01*
X283048Y208978D01*
X283146Y209035D01*
X283242Y209095D01*
X283336Y209158D01*
X283427Y209225D01*
X283517Y209294D01*
X283604Y209367D01*
X283688Y209443D01*
X283769Y209522D01*
X283848Y209603D01*
X283924Y209687D01*
X283997Y209774D01*
X284066Y209864D01*
X284133Y209955D01*
X284196Y210049D01*
X284256Y210145D01*
X284313Y210243D01*
X284366Y210343D01*
X284416Y210445D01*
X284462Y210549D01*
X284504Y210654D01*
X284543Y210760D01*
X284578Y210868D01*
X284609Y210977D01*
X284637Y211087D01*
X284660Y211198D01*
X284680Y211309D01*
X284696Y211421D01*
X284708Y211534D01*
X284716Y211647D01*
X284720Y211760D01*
X284720Y211874D01*
X284716Y211987D01*
X284708Y212100D01*
X284696Y212213D01*
X284680Y212325D01*
X284660Y212436D01*
X284637Y212547D01*
X284609Y212657D01*
X284578Y212766D01*
X284543Y212874D01*
X284504Y212980D01*
X284462Y213085D01*
X284416Y213189D01*
X284366Y213291D01*
X284313Y213391D01*
X284256Y213489D01*
X284196Y213585D01*
X284133Y213679D01*
X284066Y213770D01*
X283997Y213860D01*
X283924Y213947D01*
X283848Y214031D01*
X283769Y214112D01*
X283688Y214191D01*
X283604Y214267D01*
X283517Y214340D01*
X283428Y214409D01*
X283336Y214476D01*
X286845Y218357D02*
X283655Y220591D01*
X286845Y218357D02*
X286926Y218297D01*
X287005Y218235D01*
X287082Y218169D01*
X287156Y218101D01*
X287227Y218030D01*
X287295Y217956D01*
X287361Y217879D01*
X287423Y217800D01*
X287483Y217719D01*
X287539Y217635D01*
X287592Y217550D01*
X287641Y217462D01*
X287687Y217373D01*
X287730Y217281D01*
X287769Y217188D01*
X287804Y217094D01*
X287836Y216999D01*
X287864Y216902D01*
X287888Y216804D01*
X287908Y216706D01*
X287925Y216606D01*
X287937Y216506D01*
X287946Y216406D01*
X287951Y216306D01*
X287952Y216205D01*
X287949Y216104D01*
X287942Y216004D01*
X287931Y215904D01*
X287917Y215804D01*
X287898Y215705D01*
X287876Y215607D01*
X287850Y215510D01*
X287820Y215413D01*
X287787Y215319D01*
X287750Y215225D01*
X287709Y215133D01*
X287664Y215042D01*
X287617Y214954D01*
X287565Y214867D01*
X287511Y214783D01*
X287453Y214700D01*
X287392Y214620D01*
X287328Y214542D01*
X287261Y214467D01*
X287192Y214394D01*
X287119Y214325D01*
X287044Y214258D01*
X286966Y214194D01*
X286886Y214133D01*
X286803Y214075D01*
X286719Y214021D01*
X286632Y213969D01*
X286544Y213922D01*
X286453Y213877D01*
X286361Y213836D01*
X286267Y213799D01*
X286173Y213766D01*
X286076Y213736D01*
X285979Y213710D01*
X285881Y213688D01*
X285782Y213669D01*
X285682Y213655D01*
X285582Y213644D01*
X285482Y213637D01*
X285381Y213634D01*
X285280Y213635D01*
X285180Y213640D01*
X285080Y213649D01*
X284980Y213661D01*
X284880Y213678D01*
X284782Y213698D01*
X284684Y213722D01*
X284587Y213750D01*
X284492Y213782D01*
X284398Y213817D01*
X284305Y213856D01*
X284213Y213899D01*
X284124Y213945D01*
X284036Y213994D01*
X283951Y214047D01*
X283867Y214103D01*
X281740Y215593D01*
X206842Y331524D02*
X206842Y334770D01*
X206840Y334883D01*
X206834Y334996D01*
X206824Y335109D01*
X206810Y335222D01*
X206793Y335334D01*
X206771Y335445D01*
X206746Y335555D01*
X206716Y335665D01*
X206683Y335773D01*
X206646Y335880D01*
X206606Y335986D01*
X206561Y336090D01*
X206513Y336193D01*
X206462Y336294D01*
X206407Y336393D01*
X206349Y336490D01*
X206287Y336585D01*
X206222Y336678D01*
X206154Y336768D01*
X206083Y336856D01*
X206008Y336942D01*
X205931Y337025D01*
X205851Y337105D01*
X205768Y337182D01*
X205682Y337257D01*
X205594Y337328D01*
X205504Y337396D01*
X205411Y337461D01*
X205316Y337523D01*
X205219Y337581D01*
X205120Y337636D01*
X205019Y337687D01*
X204916Y337735D01*
X204812Y337780D01*
X204706Y337820D01*
X204599Y337857D01*
X204491Y337890D01*
X204381Y337920D01*
X204271Y337945D01*
X204160Y337967D01*
X204048Y337984D01*
X203935Y337998D01*
X203822Y338008D01*
X203709Y338014D01*
X203596Y338016D01*
X203483Y338014D01*
X203370Y338008D01*
X203257Y337998D01*
X203144Y337984D01*
X203032Y337967D01*
X202921Y337945D01*
X202811Y337920D01*
X202701Y337890D01*
X202593Y337857D01*
X202486Y337820D01*
X202380Y337780D01*
X202276Y337735D01*
X202173Y337687D01*
X202072Y337636D01*
X201973Y337581D01*
X201876Y337523D01*
X201781Y337461D01*
X201688Y337396D01*
X201598Y337328D01*
X201510Y337257D01*
X201424Y337182D01*
X201341Y337105D01*
X201261Y337025D01*
X201184Y336942D01*
X201109Y336856D01*
X201038Y336768D01*
X200970Y336678D01*
X200905Y336585D01*
X200843Y336490D01*
X200785Y336393D01*
X200730Y336294D01*
X200679Y336193D01*
X200631Y336090D01*
X200586Y335986D01*
X200546Y335880D01*
X200509Y335773D01*
X200476Y335665D01*
X200446Y335555D01*
X200421Y335445D01*
X200399Y335334D01*
X200382Y335222D01*
X200368Y335109D01*
X200358Y334996D01*
X200352Y334883D01*
X200350Y334770D01*
X195158Y335419D02*
X195158Y331524D01*
X195158Y335419D02*
X195160Y335520D01*
X195166Y335620D01*
X195176Y335720D01*
X195189Y335820D01*
X195207Y335919D01*
X195228Y336018D01*
X195253Y336115D01*
X195282Y336212D01*
X195315Y336307D01*
X195351Y336401D01*
X195391Y336493D01*
X195434Y336584D01*
X195481Y336673D01*
X195531Y336760D01*
X195585Y336846D01*
X195642Y336929D01*
X195702Y337009D01*
X195765Y337088D01*
X195832Y337164D01*
X195901Y337237D01*
X195973Y337307D01*
X196047Y337375D01*
X196124Y337440D01*
X196204Y337501D01*
X196286Y337560D01*
X196370Y337615D01*
X196456Y337667D01*
X196544Y337716D01*
X196634Y337761D01*
X196726Y337803D01*
X196819Y337841D01*
X196914Y337875D01*
X197009Y337906D01*
X197106Y337933D01*
X197204Y337956D01*
X197303Y337976D01*
X197403Y337991D01*
X197503Y338003D01*
X197603Y338011D01*
X197704Y338015D01*
X197804Y338015D01*
X197905Y338011D01*
X198005Y338003D01*
X198105Y337991D01*
X198205Y337976D01*
X198304Y337956D01*
X198402Y337933D01*
X198499Y337906D01*
X198594Y337875D01*
X198689Y337841D01*
X198782Y337803D01*
X198874Y337761D01*
X198964Y337716D01*
X199052Y337667D01*
X199138Y337615D01*
X199222Y337560D01*
X199304Y337501D01*
X199384Y337440D01*
X199461Y337375D01*
X199535Y337307D01*
X199607Y337237D01*
X199676Y337164D01*
X199743Y337088D01*
X199806Y337009D01*
X199866Y336929D01*
X199923Y336846D01*
X199977Y336760D01*
X200027Y336673D01*
X200074Y336584D01*
X200117Y336493D01*
X200157Y336401D01*
X200193Y336307D01*
X200226Y336212D01*
X200255Y336115D01*
X200280Y336018D01*
X200301Y335919D01*
X200319Y335820D01*
X200332Y335720D01*
X200342Y335620D01*
X200348Y335520D01*
X200350Y335419D01*
X200351Y335419D02*
X200351Y332823D01*
X195158Y342305D02*
X206842Y346200D01*
X195158Y350095D01*
X206842Y354384D02*
X206842Y357630D01*
X206840Y357743D01*
X206834Y357856D01*
X206824Y357969D01*
X206810Y358082D01*
X206793Y358194D01*
X206771Y358305D01*
X206746Y358415D01*
X206716Y358525D01*
X206683Y358633D01*
X206646Y358740D01*
X206606Y358846D01*
X206561Y358950D01*
X206513Y359053D01*
X206462Y359154D01*
X206407Y359253D01*
X206349Y359350D01*
X206287Y359445D01*
X206222Y359538D01*
X206154Y359628D01*
X206083Y359716D01*
X206008Y359802D01*
X205931Y359885D01*
X205851Y359965D01*
X205768Y360042D01*
X205682Y360117D01*
X205594Y360188D01*
X205504Y360256D01*
X205411Y360321D01*
X205316Y360383D01*
X205219Y360441D01*
X205120Y360496D01*
X205019Y360547D01*
X204916Y360595D01*
X204812Y360640D01*
X204706Y360680D01*
X204599Y360717D01*
X204491Y360750D01*
X204381Y360780D01*
X204271Y360805D01*
X204160Y360827D01*
X204048Y360844D01*
X203935Y360858D01*
X203822Y360868D01*
X203709Y360874D01*
X203596Y360876D01*
X203483Y360874D01*
X203370Y360868D01*
X203257Y360858D01*
X203144Y360844D01*
X203032Y360827D01*
X202921Y360805D01*
X202811Y360780D01*
X202701Y360750D01*
X202593Y360717D01*
X202486Y360680D01*
X202380Y360640D01*
X202276Y360595D01*
X202173Y360547D01*
X202072Y360496D01*
X201973Y360441D01*
X201876Y360383D01*
X201781Y360321D01*
X201688Y360256D01*
X201598Y360188D01*
X201510Y360117D01*
X201424Y360042D01*
X201341Y359965D01*
X201261Y359885D01*
X201184Y359802D01*
X201109Y359716D01*
X201038Y359628D01*
X200970Y359538D01*
X200905Y359445D01*
X200843Y359350D01*
X200785Y359253D01*
X200730Y359154D01*
X200679Y359053D01*
X200631Y358950D01*
X200586Y358846D01*
X200546Y358740D01*
X200509Y358633D01*
X200476Y358525D01*
X200446Y358415D01*
X200421Y358305D01*
X200399Y358194D01*
X200382Y358082D01*
X200368Y357969D01*
X200358Y357856D01*
X200352Y357743D01*
X200350Y357630D01*
X195158Y358279D02*
X195158Y354384D01*
X195158Y358279D02*
X195160Y358380D01*
X195166Y358480D01*
X195176Y358580D01*
X195189Y358680D01*
X195207Y358779D01*
X195228Y358878D01*
X195253Y358975D01*
X195282Y359072D01*
X195315Y359167D01*
X195351Y359261D01*
X195391Y359353D01*
X195434Y359444D01*
X195481Y359533D01*
X195531Y359620D01*
X195585Y359706D01*
X195642Y359789D01*
X195702Y359869D01*
X195765Y359948D01*
X195832Y360024D01*
X195901Y360097D01*
X195973Y360167D01*
X196047Y360235D01*
X196124Y360300D01*
X196204Y360361D01*
X196286Y360420D01*
X196370Y360475D01*
X196456Y360527D01*
X196544Y360576D01*
X196634Y360621D01*
X196726Y360663D01*
X196819Y360701D01*
X196914Y360735D01*
X197009Y360766D01*
X197106Y360793D01*
X197204Y360816D01*
X197303Y360836D01*
X197403Y360851D01*
X197503Y360863D01*
X197603Y360871D01*
X197704Y360875D01*
X197804Y360875D01*
X197905Y360871D01*
X198005Y360863D01*
X198105Y360851D01*
X198205Y360836D01*
X198304Y360816D01*
X198402Y360793D01*
X198499Y360766D01*
X198594Y360735D01*
X198689Y360701D01*
X198782Y360663D01*
X198874Y360621D01*
X198964Y360576D01*
X199052Y360527D01*
X199138Y360475D01*
X199222Y360420D01*
X199304Y360361D01*
X199384Y360300D01*
X199461Y360235D01*
X199535Y360167D01*
X199607Y360097D01*
X199676Y360024D01*
X199743Y359948D01*
X199806Y359869D01*
X199866Y359789D01*
X199923Y359706D01*
X199977Y359620D01*
X200027Y359533D01*
X200074Y359444D01*
X200117Y359353D01*
X200157Y359261D01*
X200193Y359167D01*
X200226Y359072D01*
X200255Y358975D01*
X200280Y358878D01*
X200301Y358779D01*
X200319Y358680D01*
X200332Y358580D01*
X200342Y358480D01*
X200348Y358380D01*
X200350Y358279D01*
X200351Y358279D02*
X200351Y355683D01*
X264929Y458697D02*
X267588Y460559D01*
X267588Y460558D02*
X267679Y460625D01*
X267769Y460694D01*
X267856Y460767D01*
X267940Y460843D01*
X268021Y460922D01*
X268100Y461003D01*
X268176Y461087D01*
X268249Y461174D01*
X268318Y461264D01*
X268385Y461355D01*
X268448Y461449D01*
X268508Y461545D01*
X268565Y461643D01*
X268618Y461743D01*
X268668Y461845D01*
X268714Y461949D01*
X268756Y462054D01*
X268795Y462160D01*
X268830Y462268D01*
X268861Y462377D01*
X268889Y462487D01*
X268912Y462598D01*
X268932Y462709D01*
X268948Y462821D01*
X268960Y462934D01*
X268968Y463047D01*
X268972Y463160D01*
X268972Y463274D01*
X268968Y463387D01*
X268960Y463500D01*
X268948Y463613D01*
X268932Y463725D01*
X268912Y463836D01*
X268889Y463947D01*
X268861Y464057D01*
X268830Y464166D01*
X268795Y464274D01*
X268756Y464380D01*
X268714Y464485D01*
X268668Y464589D01*
X268618Y464691D01*
X268565Y464791D01*
X268508Y464889D01*
X268448Y464985D01*
X268385Y465079D01*
X268318Y465170D01*
X268249Y465260D01*
X268176Y465347D01*
X268100Y465431D01*
X268021Y465512D01*
X267940Y465591D01*
X267856Y465667D01*
X267769Y465740D01*
X267680Y465809D01*
X267588Y465876D01*
X267494Y465939D01*
X267398Y465999D01*
X267300Y466056D01*
X267200Y466109D01*
X267098Y466159D01*
X266994Y466205D01*
X266889Y466247D01*
X266783Y466286D01*
X266675Y466321D01*
X266566Y466352D01*
X266456Y466380D01*
X266345Y466403D01*
X266234Y466423D01*
X266122Y466439D01*
X266009Y466451D01*
X265896Y466459D01*
X265783Y466463D01*
X265669Y466463D01*
X265556Y466459D01*
X265443Y466451D01*
X265330Y466439D01*
X265218Y466423D01*
X265107Y466403D01*
X264996Y466380D01*
X264886Y466352D01*
X264777Y466321D01*
X264669Y466286D01*
X264563Y466247D01*
X264458Y466205D01*
X264354Y466159D01*
X264252Y466109D01*
X264152Y466056D01*
X264054Y465999D01*
X263958Y465939D01*
X263864Y465876D01*
X261418Y470502D02*
X258228Y468268D01*
X261418Y470502D02*
X261502Y470558D01*
X261587Y470611D01*
X261675Y470660D01*
X261764Y470706D01*
X261856Y470749D01*
X261949Y470788D01*
X262043Y470823D01*
X262138Y470855D01*
X262235Y470883D01*
X262333Y470907D01*
X262431Y470927D01*
X262531Y470944D01*
X262631Y470956D01*
X262731Y470965D01*
X262832Y470970D01*
X262932Y470971D01*
X263033Y470968D01*
X263133Y470961D01*
X263233Y470950D01*
X263333Y470936D01*
X263432Y470917D01*
X263530Y470895D01*
X263627Y470869D01*
X263724Y470839D01*
X263819Y470806D01*
X263912Y470769D01*
X264004Y470728D01*
X264095Y470683D01*
X264183Y470636D01*
X264270Y470584D01*
X264354Y470530D01*
X264437Y470472D01*
X264517Y470411D01*
X264595Y470347D01*
X264670Y470280D01*
X264743Y470211D01*
X264812Y470138D01*
X264879Y470063D01*
X264943Y469985D01*
X265004Y469905D01*
X265062Y469822D01*
X265116Y469738D01*
X265168Y469651D01*
X265215Y469563D01*
X265260Y469472D01*
X265301Y469380D01*
X265338Y469286D01*
X265371Y469192D01*
X265401Y469095D01*
X265427Y468998D01*
X265449Y468900D01*
X265468Y468801D01*
X265482Y468701D01*
X265493Y468601D01*
X265500Y468501D01*
X265503Y468400D01*
X265502Y468300D01*
X265497Y468199D01*
X265488Y468099D01*
X265476Y467999D01*
X265459Y467899D01*
X265439Y467801D01*
X265415Y467703D01*
X265387Y467606D01*
X265355Y467511D01*
X265320Y467417D01*
X265281Y467324D01*
X265238Y467232D01*
X265192Y467143D01*
X265143Y467055D01*
X265090Y466970D01*
X265034Y466886D01*
X264974Y466805D01*
X264912Y466726D01*
X264846Y466649D01*
X264778Y466575D01*
X264707Y466504D01*
X264633Y466436D01*
X264556Y466370D01*
X264477Y466308D01*
X264396Y466248D01*
X262270Y464759D01*
X267059Y474452D02*
X276951Y467114D01*
X273439Y478919D01*
X283655Y471809D02*
X286314Y473670D01*
X286405Y473737D01*
X286495Y473806D01*
X286582Y473879D01*
X286666Y473955D01*
X286747Y474034D01*
X286826Y474115D01*
X286902Y474199D01*
X286975Y474286D01*
X287044Y474376D01*
X287111Y474467D01*
X287174Y474561D01*
X287234Y474657D01*
X287291Y474755D01*
X287344Y474855D01*
X287394Y474957D01*
X287440Y475061D01*
X287482Y475166D01*
X287521Y475272D01*
X287556Y475380D01*
X287587Y475489D01*
X287615Y475599D01*
X287638Y475710D01*
X287658Y475821D01*
X287674Y475933D01*
X287686Y476046D01*
X287694Y476159D01*
X287698Y476272D01*
X287698Y476386D01*
X287694Y476499D01*
X287686Y476612D01*
X287674Y476725D01*
X287658Y476837D01*
X287638Y476948D01*
X287615Y477059D01*
X287587Y477169D01*
X287556Y477278D01*
X287521Y477386D01*
X287482Y477492D01*
X287440Y477597D01*
X287394Y477701D01*
X287344Y477803D01*
X287291Y477903D01*
X287234Y478001D01*
X287174Y478097D01*
X287111Y478191D01*
X287044Y478282D01*
X286975Y478372D01*
X286902Y478459D01*
X286826Y478543D01*
X286747Y478624D01*
X286666Y478703D01*
X286582Y478779D01*
X286495Y478852D01*
X286406Y478921D01*
X286314Y478988D01*
X286220Y479051D01*
X286124Y479111D01*
X286026Y479168D01*
X285926Y479221D01*
X285824Y479271D01*
X285720Y479317D01*
X285615Y479359D01*
X285509Y479398D01*
X285401Y479433D01*
X285292Y479464D01*
X285182Y479492D01*
X285071Y479515D01*
X284960Y479535D01*
X284848Y479551D01*
X284735Y479563D01*
X284622Y479571D01*
X284509Y479575D01*
X284395Y479575D01*
X284282Y479571D01*
X284169Y479563D01*
X284056Y479551D01*
X283944Y479535D01*
X283833Y479515D01*
X283722Y479492D01*
X283612Y479464D01*
X283503Y479433D01*
X283395Y479398D01*
X283289Y479359D01*
X283184Y479317D01*
X283080Y479271D01*
X282978Y479221D01*
X282878Y479168D01*
X282780Y479111D01*
X282684Y479051D01*
X282590Y478988D01*
X280144Y483614D02*
X276953Y481380D01*
X280144Y483614D02*
X280228Y483670D01*
X280313Y483723D01*
X280401Y483772D01*
X280490Y483818D01*
X280582Y483861D01*
X280675Y483900D01*
X280769Y483935D01*
X280864Y483967D01*
X280961Y483995D01*
X281059Y484019D01*
X281157Y484039D01*
X281257Y484056D01*
X281357Y484068D01*
X281457Y484077D01*
X281558Y484082D01*
X281658Y484083D01*
X281759Y484080D01*
X281859Y484073D01*
X281959Y484062D01*
X282059Y484048D01*
X282158Y484029D01*
X282256Y484007D01*
X282353Y483981D01*
X282450Y483951D01*
X282545Y483918D01*
X282638Y483881D01*
X282730Y483840D01*
X282821Y483795D01*
X282909Y483748D01*
X282996Y483696D01*
X283080Y483642D01*
X283163Y483584D01*
X283243Y483523D01*
X283321Y483459D01*
X283396Y483392D01*
X283469Y483323D01*
X283538Y483250D01*
X283605Y483175D01*
X283669Y483097D01*
X283730Y483017D01*
X283788Y482934D01*
X283842Y482850D01*
X283894Y482763D01*
X283941Y482675D01*
X283986Y482584D01*
X284027Y482492D01*
X284064Y482398D01*
X284097Y482304D01*
X284127Y482207D01*
X284153Y482110D01*
X284175Y482012D01*
X284194Y481913D01*
X284208Y481813D01*
X284219Y481713D01*
X284226Y481613D01*
X284229Y481512D01*
X284228Y481412D01*
X284223Y481311D01*
X284214Y481211D01*
X284202Y481111D01*
X284185Y481011D01*
X284165Y480913D01*
X284141Y480815D01*
X284113Y480718D01*
X284081Y480623D01*
X284046Y480529D01*
X284007Y480436D01*
X283964Y480344D01*
X283918Y480255D01*
X283869Y480167D01*
X283816Y480082D01*
X283760Y479998D01*
X283700Y479917D01*
X283638Y479838D01*
X283572Y479761D01*
X283504Y479687D01*
X283433Y479616D01*
X283359Y479548D01*
X283282Y479482D01*
X283203Y479420D01*
X283122Y479360D01*
X280995Y477871D01*
D11*
X427854Y419510D02*
X427854Y401730D01*
X427854Y419510D02*
X432793Y419510D01*
X432933Y419508D01*
X433072Y419502D01*
X433212Y419492D01*
X433351Y419478D01*
X433490Y419461D01*
X433628Y419439D01*
X433765Y419413D01*
X433902Y419384D01*
X434038Y419351D01*
X434172Y419314D01*
X434306Y419273D01*
X434438Y419228D01*
X434570Y419179D01*
X434699Y419127D01*
X434827Y419072D01*
X434954Y419012D01*
X435079Y418949D01*
X435202Y418883D01*
X435323Y418813D01*
X435442Y418740D01*
X435559Y418663D01*
X435673Y418583D01*
X435786Y418500D01*
X435896Y418414D01*
X436003Y418324D01*
X436108Y418232D01*
X436210Y418137D01*
X436310Y418039D01*
X436407Y417938D01*
X436501Y417834D01*
X436591Y417728D01*
X436679Y417619D01*
X436764Y417508D01*
X436845Y417394D01*
X436924Y417279D01*
X436999Y417161D01*
X437070Y417041D01*
X437138Y416918D01*
X437203Y416795D01*
X437264Y416669D01*
X437322Y416541D01*
X437376Y416413D01*
X437426Y416282D01*
X437473Y416150D01*
X437516Y416017D01*
X437555Y415883D01*
X437590Y415748D01*
X437621Y415612D01*
X437649Y415474D01*
X437672Y415337D01*
X437692Y415198D01*
X437708Y415059D01*
X437720Y414920D01*
X437728Y414781D01*
X437732Y414641D01*
X437732Y414501D01*
X437728Y414361D01*
X437720Y414222D01*
X437708Y414083D01*
X437692Y413944D01*
X437672Y413805D01*
X437649Y413668D01*
X437621Y413530D01*
X437590Y413394D01*
X437555Y413259D01*
X437516Y413125D01*
X437473Y412992D01*
X437426Y412860D01*
X437376Y412729D01*
X437322Y412601D01*
X437264Y412473D01*
X437203Y412347D01*
X437138Y412224D01*
X437070Y412102D01*
X436999Y411981D01*
X436924Y411863D01*
X436845Y411748D01*
X436764Y411634D01*
X436679Y411523D01*
X436591Y411414D01*
X436501Y411308D01*
X436407Y411204D01*
X436310Y411103D01*
X436210Y411005D01*
X436108Y410910D01*
X436003Y410818D01*
X435896Y410728D01*
X435786Y410642D01*
X435673Y410559D01*
X435559Y410479D01*
X435442Y410402D01*
X435323Y410329D01*
X435202Y410259D01*
X435079Y410193D01*
X434954Y410130D01*
X434827Y410070D01*
X434699Y410015D01*
X434570Y409963D01*
X434438Y409914D01*
X434306Y409869D01*
X434172Y409828D01*
X434038Y409791D01*
X433902Y409758D01*
X433765Y409729D01*
X433628Y409703D01*
X433490Y409681D01*
X433351Y409664D01*
X433212Y409650D01*
X433072Y409640D01*
X432933Y409634D01*
X432793Y409632D01*
X427854Y409632D01*
X443849Y415559D02*
X448788Y419510D01*
X448788Y401730D01*
X453726Y401730D02*
X443849Y401730D01*
X410786Y265803D02*
X410786Y248023D01*
X410786Y265803D02*
X415725Y265803D01*
X415725Y265804D02*
X415865Y265802D01*
X416004Y265796D01*
X416144Y265786D01*
X416283Y265772D01*
X416422Y265755D01*
X416560Y265733D01*
X416697Y265707D01*
X416834Y265678D01*
X416970Y265645D01*
X417104Y265608D01*
X417238Y265567D01*
X417370Y265522D01*
X417502Y265473D01*
X417631Y265421D01*
X417759Y265366D01*
X417886Y265306D01*
X418011Y265243D01*
X418134Y265177D01*
X418255Y265107D01*
X418374Y265034D01*
X418491Y264957D01*
X418605Y264877D01*
X418718Y264794D01*
X418828Y264708D01*
X418935Y264618D01*
X419040Y264526D01*
X419142Y264431D01*
X419242Y264333D01*
X419339Y264232D01*
X419433Y264128D01*
X419523Y264022D01*
X419611Y263913D01*
X419696Y263802D01*
X419777Y263688D01*
X419856Y263573D01*
X419931Y263455D01*
X420002Y263335D01*
X420070Y263212D01*
X420135Y263089D01*
X420196Y262963D01*
X420254Y262835D01*
X420308Y262707D01*
X420358Y262576D01*
X420405Y262444D01*
X420448Y262311D01*
X420487Y262177D01*
X420522Y262042D01*
X420553Y261906D01*
X420581Y261768D01*
X420604Y261631D01*
X420624Y261492D01*
X420640Y261353D01*
X420652Y261214D01*
X420660Y261075D01*
X420664Y260935D01*
X420664Y260795D01*
X420660Y260655D01*
X420652Y260516D01*
X420640Y260377D01*
X420624Y260238D01*
X420604Y260099D01*
X420581Y259962D01*
X420553Y259824D01*
X420522Y259688D01*
X420487Y259553D01*
X420448Y259419D01*
X420405Y259286D01*
X420358Y259154D01*
X420308Y259023D01*
X420254Y258895D01*
X420196Y258767D01*
X420135Y258641D01*
X420070Y258518D01*
X420002Y258396D01*
X419931Y258275D01*
X419856Y258157D01*
X419777Y258042D01*
X419696Y257928D01*
X419611Y257817D01*
X419523Y257708D01*
X419433Y257602D01*
X419339Y257498D01*
X419242Y257397D01*
X419142Y257299D01*
X419040Y257204D01*
X418935Y257112D01*
X418828Y257022D01*
X418718Y256936D01*
X418605Y256853D01*
X418491Y256773D01*
X418374Y256696D01*
X418255Y256623D01*
X418134Y256553D01*
X418011Y256487D01*
X417886Y256424D01*
X417759Y256364D01*
X417631Y256309D01*
X417502Y256257D01*
X417370Y256208D01*
X417238Y256163D01*
X417104Y256122D01*
X416970Y256085D01*
X416834Y256052D01*
X416697Y256023D01*
X416560Y255997D01*
X416422Y255975D01*
X416283Y255958D01*
X416144Y255944D01*
X416004Y255934D01*
X415865Y255928D01*
X415725Y255926D01*
X410786Y255926D01*
X432214Y265803D02*
X432346Y265801D01*
X432477Y265795D01*
X432609Y265785D01*
X432740Y265772D01*
X432870Y265754D01*
X433000Y265733D01*
X433130Y265708D01*
X433258Y265679D01*
X433386Y265646D01*
X433512Y265609D01*
X433638Y265569D01*
X433762Y265525D01*
X433885Y265477D01*
X434006Y265426D01*
X434126Y265371D01*
X434244Y265313D01*
X434360Y265251D01*
X434474Y265185D01*
X434587Y265117D01*
X434697Y265045D01*
X434805Y264970D01*
X434911Y264891D01*
X435015Y264810D01*
X435116Y264725D01*
X435214Y264638D01*
X435310Y264547D01*
X435403Y264454D01*
X435494Y264358D01*
X435581Y264260D01*
X435666Y264159D01*
X435747Y264055D01*
X435826Y263949D01*
X435901Y263841D01*
X435973Y263731D01*
X436041Y263618D01*
X436107Y263504D01*
X436169Y263388D01*
X436227Y263270D01*
X436282Y263150D01*
X436333Y263029D01*
X436381Y262906D01*
X436425Y262782D01*
X436465Y262656D01*
X436502Y262530D01*
X436535Y262402D01*
X436564Y262274D01*
X436589Y262144D01*
X436610Y262014D01*
X436628Y261884D01*
X436641Y261753D01*
X436651Y261621D01*
X436657Y261490D01*
X436659Y261358D01*
X432214Y265804D02*
X432064Y265802D01*
X431915Y265796D01*
X431766Y265786D01*
X431617Y265773D01*
X431468Y265755D01*
X431320Y265734D01*
X431172Y265708D01*
X431026Y265679D01*
X430880Y265646D01*
X430735Y265609D01*
X430591Y265568D01*
X430448Y265524D01*
X430306Y265476D01*
X430166Y265424D01*
X430027Y265369D01*
X429889Y265310D01*
X429754Y265247D01*
X429619Y265181D01*
X429487Y265111D01*
X429357Y265038D01*
X429228Y264961D01*
X429101Y264881D01*
X428977Y264798D01*
X428855Y264712D01*
X428735Y264622D01*
X428618Y264529D01*
X428503Y264434D01*
X428390Y264335D01*
X428280Y264233D01*
X428173Y264129D01*
X428069Y264022D01*
X427967Y263912D01*
X427869Y263799D01*
X427773Y263684D01*
X427681Y263566D01*
X427591Y263446D01*
X427505Y263324D01*
X427422Y263200D01*
X427342Y263073D01*
X427266Y262945D01*
X427193Y262814D01*
X427123Y262681D01*
X427057Y262547D01*
X426995Y262411D01*
X426936Y262274D01*
X426880Y262135D01*
X426829Y261994D01*
X426781Y261853D01*
X435177Y257901D02*
X435273Y257994D01*
X435365Y258090D01*
X435455Y258189D01*
X435542Y258290D01*
X435627Y258393D01*
X435708Y258498D01*
X435786Y258606D01*
X435861Y258716D01*
X435934Y258828D01*
X436003Y258942D01*
X436069Y259058D01*
X436131Y259176D01*
X436190Y259295D01*
X436246Y259416D01*
X436299Y259539D01*
X436348Y259663D01*
X436393Y259788D01*
X436436Y259915D01*
X436474Y260042D01*
X436509Y260171D01*
X436540Y260300D01*
X436568Y260431D01*
X436592Y260562D01*
X436613Y260694D01*
X436629Y260826D01*
X436642Y260959D01*
X436652Y261092D01*
X436657Y261225D01*
X436659Y261358D01*
X435177Y257901D02*
X426781Y248023D01*
X436659Y248023D01*
X449029Y254938D02*
X449029Y260865D01*
X449029Y254938D02*
X452486Y250493D01*
X449029Y254938D02*
X445572Y250493D01*
X449029Y254938D02*
X454462Y256913D01*
X449029Y254938D02*
X443596Y256913D01*
X333264Y233490D02*
X333264Y215710D01*
X333264Y233490D02*
X338203Y233490D01*
X338343Y233488D01*
X338482Y233482D01*
X338622Y233472D01*
X338761Y233458D01*
X338900Y233441D01*
X339038Y233419D01*
X339175Y233393D01*
X339312Y233364D01*
X339448Y233331D01*
X339582Y233294D01*
X339716Y233253D01*
X339848Y233208D01*
X339980Y233159D01*
X340109Y233107D01*
X340237Y233052D01*
X340364Y232992D01*
X340489Y232929D01*
X340612Y232863D01*
X340733Y232793D01*
X340852Y232720D01*
X340969Y232643D01*
X341083Y232563D01*
X341196Y232480D01*
X341306Y232394D01*
X341413Y232304D01*
X341518Y232212D01*
X341620Y232117D01*
X341720Y232019D01*
X341817Y231918D01*
X341911Y231814D01*
X342001Y231708D01*
X342089Y231599D01*
X342174Y231488D01*
X342255Y231374D01*
X342334Y231259D01*
X342409Y231141D01*
X342480Y231021D01*
X342548Y230898D01*
X342613Y230775D01*
X342674Y230649D01*
X342732Y230521D01*
X342786Y230393D01*
X342836Y230262D01*
X342883Y230130D01*
X342926Y229997D01*
X342965Y229863D01*
X343000Y229728D01*
X343031Y229592D01*
X343059Y229454D01*
X343082Y229317D01*
X343102Y229178D01*
X343118Y229039D01*
X343130Y228900D01*
X343138Y228761D01*
X343142Y228621D01*
X343142Y228481D01*
X343138Y228341D01*
X343130Y228202D01*
X343118Y228063D01*
X343102Y227924D01*
X343082Y227785D01*
X343059Y227648D01*
X343031Y227510D01*
X343000Y227374D01*
X342965Y227239D01*
X342926Y227105D01*
X342883Y226972D01*
X342836Y226840D01*
X342786Y226709D01*
X342732Y226581D01*
X342674Y226453D01*
X342613Y226327D01*
X342548Y226204D01*
X342480Y226082D01*
X342409Y225961D01*
X342334Y225843D01*
X342255Y225728D01*
X342174Y225614D01*
X342089Y225503D01*
X342001Y225394D01*
X341911Y225288D01*
X341817Y225184D01*
X341720Y225083D01*
X341620Y224985D01*
X341518Y224890D01*
X341413Y224798D01*
X341306Y224708D01*
X341196Y224622D01*
X341083Y224539D01*
X340969Y224459D01*
X340852Y224382D01*
X340733Y224309D01*
X340612Y224239D01*
X340489Y224173D01*
X340364Y224110D01*
X340237Y224050D01*
X340109Y223995D01*
X339980Y223943D01*
X339848Y223894D01*
X339716Y223849D01*
X339582Y223808D01*
X339448Y223771D01*
X339312Y223738D01*
X339175Y223709D01*
X339038Y223683D01*
X338900Y223661D01*
X338761Y223644D01*
X338622Y223630D01*
X338482Y223620D01*
X338343Y223614D01*
X338203Y223612D01*
X333264Y223612D01*
X349259Y215710D02*
X354198Y215710D01*
X354338Y215712D01*
X354477Y215718D01*
X354617Y215728D01*
X354756Y215742D01*
X354895Y215759D01*
X355033Y215781D01*
X355170Y215807D01*
X355307Y215836D01*
X355443Y215869D01*
X355577Y215906D01*
X355711Y215947D01*
X355843Y215992D01*
X355975Y216041D01*
X356104Y216093D01*
X356232Y216148D01*
X356359Y216208D01*
X356484Y216271D01*
X356607Y216337D01*
X356728Y216407D01*
X356847Y216480D01*
X356964Y216557D01*
X357078Y216637D01*
X357191Y216720D01*
X357301Y216806D01*
X357408Y216896D01*
X357513Y216988D01*
X357615Y217083D01*
X357715Y217181D01*
X357812Y217282D01*
X357906Y217386D01*
X357996Y217492D01*
X358084Y217601D01*
X358169Y217712D01*
X358250Y217826D01*
X358329Y217941D01*
X358404Y218059D01*
X358475Y218180D01*
X358543Y218302D01*
X358608Y218425D01*
X358669Y218551D01*
X358727Y218679D01*
X358781Y218807D01*
X358831Y218938D01*
X358878Y219070D01*
X358921Y219203D01*
X358960Y219337D01*
X358995Y219472D01*
X359026Y219608D01*
X359054Y219746D01*
X359077Y219883D01*
X359097Y220022D01*
X359113Y220161D01*
X359125Y220300D01*
X359133Y220439D01*
X359137Y220579D01*
X359137Y220719D01*
X359133Y220859D01*
X359125Y220998D01*
X359113Y221137D01*
X359097Y221276D01*
X359077Y221415D01*
X359054Y221552D01*
X359026Y221690D01*
X358995Y221826D01*
X358960Y221961D01*
X358921Y222095D01*
X358878Y222228D01*
X358831Y222360D01*
X358781Y222491D01*
X358727Y222619D01*
X358669Y222747D01*
X358608Y222873D01*
X358543Y222996D01*
X358475Y223119D01*
X358404Y223239D01*
X358329Y223357D01*
X358250Y223472D01*
X358169Y223586D01*
X358084Y223697D01*
X357996Y223806D01*
X357906Y223912D01*
X357812Y224016D01*
X357715Y224117D01*
X357615Y224215D01*
X357513Y224310D01*
X357408Y224402D01*
X357301Y224492D01*
X357191Y224578D01*
X357078Y224661D01*
X356964Y224741D01*
X356847Y224818D01*
X356728Y224891D01*
X356607Y224961D01*
X356484Y225027D01*
X356359Y225090D01*
X356232Y225150D01*
X356104Y225205D01*
X355975Y225257D01*
X355843Y225306D01*
X355711Y225351D01*
X355577Y225392D01*
X355443Y225429D01*
X355307Y225462D01*
X355170Y225491D01*
X355033Y225517D01*
X354895Y225539D01*
X354756Y225556D01*
X354617Y225570D01*
X354477Y225580D01*
X354338Y225586D01*
X354198Y225588D01*
X355185Y233490D02*
X349259Y233490D01*
X355185Y233490D02*
X355309Y233488D01*
X355433Y233482D01*
X355557Y233472D01*
X355680Y233459D01*
X355803Y233441D01*
X355925Y233420D01*
X356047Y233395D01*
X356168Y233366D01*
X356287Y233333D01*
X356406Y233297D01*
X356523Y233256D01*
X356639Y233213D01*
X356754Y233165D01*
X356867Y233114D01*
X356979Y233059D01*
X357088Y233001D01*
X357196Y232940D01*
X357302Y232875D01*
X357406Y232807D01*
X357507Y232735D01*
X357607Y232661D01*
X357703Y232583D01*
X357798Y232503D01*
X357890Y232419D01*
X357979Y232333D01*
X358065Y232244D01*
X358149Y232152D01*
X358229Y232057D01*
X358307Y231961D01*
X358381Y231861D01*
X358453Y231760D01*
X358521Y231656D01*
X358586Y231550D01*
X358647Y231442D01*
X358705Y231333D01*
X358760Y231221D01*
X358811Y231108D01*
X358859Y230993D01*
X358902Y230877D01*
X358943Y230760D01*
X358979Y230641D01*
X359012Y230522D01*
X359041Y230401D01*
X359066Y230279D01*
X359087Y230157D01*
X359105Y230034D01*
X359118Y229911D01*
X359128Y229787D01*
X359134Y229663D01*
X359136Y229539D01*
X359134Y229415D01*
X359128Y229291D01*
X359118Y229167D01*
X359105Y229044D01*
X359087Y228921D01*
X359066Y228799D01*
X359041Y228677D01*
X359012Y228556D01*
X358979Y228437D01*
X358943Y228318D01*
X358902Y228201D01*
X358859Y228085D01*
X358811Y227970D01*
X358760Y227857D01*
X358705Y227745D01*
X358647Y227636D01*
X358586Y227528D01*
X358521Y227422D01*
X358453Y227318D01*
X358381Y227217D01*
X358307Y227117D01*
X358229Y227021D01*
X358149Y226926D01*
X358065Y226834D01*
X357979Y226745D01*
X357890Y226659D01*
X357798Y226575D01*
X357703Y226495D01*
X357607Y226417D01*
X357507Y226343D01*
X357406Y226271D01*
X357302Y226203D01*
X357196Y226138D01*
X357088Y226077D01*
X356979Y226019D01*
X356867Y225964D01*
X356754Y225913D01*
X356639Y225865D01*
X356523Y225822D01*
X356406Y225781D01*
X356287Y225745D01*
X356168Y225712D01*
X356047Y225683D01*
X355925Y225658D01*
X355803Y225637D01*
X355680Y225619D01*
X355557Y225606D01*
X355433Y225596D01*
X355309Y225590D01*
X355185Y225588D01*
X351234Y225588D01*
X230038Y284841D02*
X230038Y302621D01*
X234977Y302621D01*
X235117Y302619D01*
X235256Y302613D01*
X235396Y302603D01*
X235535Y302589D01*
X235674Y302572D01*
X235812Y302550D01*
X235949Y302524D01*
X236086Y302495D01*
X236222Y302462D01*
X236356Y302425D01*
X236490Y302384D01*
X236622Y302339D01*
X236754Y302290D01*
X236883Y302238D01*
X237011Y302183D01*
X237138Y302123D01*
X237263Y302060D01*
X237386Y301994D01*
X237507Y301924D01*
X237626Y301851D01*
X237743Y301774D01*
X237857Y301694D01*
X237970Y301611D01*
X238080Y301525D01*
X238187Y301435D01*
X238292Y301343D01*
X238394Y301248D01*
X238494Y301150D01*
X238591Y301049D01*
X238685Y300945D01*
X238775Y300839D01*
X238863Y300730D01*
X238948Y300619D01*
X239029Y300505D01*
X239108Y300390D01*
X239183Y300272D01*
X239254Y300152D01*
X239322Y300029D01*
X239387Y299906D01*
X239448Y299780D01*
X239506Y299652D01*
X239560Y299524D01*
X239610Y299393D01*
X239657Y299261D01*
X239700Y299128D01*
X239739Y298994D01*
X239774Y298859D01*
X239805Y298723D01*
X239833Y298585D01*
X239856Y298448D01*
X239876Y298309D01*
X239892Y298170D01*
X239904Y298031D01*
X239912Y297892D01*
X239916Y297752D01*
X239916Y297612D01*
X239912Y297472D01*
X239904Y297333D01*
X239892Y297194D01*
X239876Y297055D01*
X239856Y296916D01*
X239833Y296779D01*
X239805Y296641D01*
X239774Y296505D01*
X239739Y296370D01*
X239700Y296236D01*
X239657Y296103D01*
X239610Y295971D01*
X239560Y295840D01*
X239506Y295712D01*
X239448Y295584D01*
X239387Y295458D01*
X239322Y295335D01*
X239254Y295213D01*
X239183Y295092D01*
X239108Y294974D01*
X239029Y294859D01*
X238948Y294745D01*
X238863Y294634D01*
X238775Y294525D01*
X238685Y294419D01*
X238591Y294315D01*
X238494Y294214D01*
X238394Y294116D01*
X238292Y294021D01*
X238187Y293929D01*
X238080Y293839D01*
X237970Y293753D01*
X237857Y293670D01*
X237743Y293590D01*
X237626Y293513D01*
X237507Y293440D01*
X237386Y293370D01*
X237263Y293304D01*
X237138Y293241D01*
X237011Y293181D01*
X236883Y293126D01*
X236754Y293074D01*
X236622Y293025D01*
X236490Y292980D01*
X236356Y292939D01*
X236222Y292902D01*
X236086Y292869D01*
X235949Y292840D01*
X235812Y292814D01*
X235674Y292792D01*
X235535Y292775D01*
X235396Y292761D01*
X235256Y292751D01*
X235117Y292745D01*
X234977Y292743D01*
X230038Y292743D01*
X246033Y288792D02*
X249984Y302621D01*
X246033Y288792D02*
X255910Y288792D01*
X252947Y292743D02*
X252947Y284841D01*
X234864Y394110D02*
X234864Y411890D01*
X239803Y411890D01*
X239943Y411888D01*
X240082Y411882D01*
X240222Y411872D01*
X240361Y411858D01*
X240500Y411841D01*
X240638Y411819D01*
X240775Y411793D01*
X240912Y411764D01*
X241048Y411731D01*
X241182Y411694D01*
X241316Y411653D01*
X241448Y411608D01*
X241580Y411559D01*
X241709Y411507D01*
X241837Y411452D01*
X241964Y411392D01*
X242089Y411329D01*
X242212Y411263D01*
X242333Y411193D01*
X242452Y411120D01*
X242569Y411043D01*
X242683Y410963D01*
X242796Y410880D01*
X242906Y410794D01*
X243013Y410704D01*
X243118Y410612D01*
X243220Y410517D01*
X243320Y410419D01*
X243417Y410318D01*
X243511Y410214D01*
X243601Y410108D01*
X243689Y409999D01*
X243774Y409888D01*
X243855Y409774D01*
X243934Y409659D01*
X244009Y409541D01*
X244080Y409421D01*
X244148Y409298D01*
X244213Y409175D01*
X244274Y409049D01*
X244332Y408921D01*
X244386Y408793D01*
X244436Y408662D01*
X244483Y408530D01*
X244526Y408397D01*
X244565Y408263D01*
X244600Y408128D01*
X244631Y407992D01*
X244659Y407854D01*
X244682Y407717D01*
X244702Y407578D01*
X244718Y407439D01*
X244730Y407300D01*
X244738Y407161D01*
X244742Y407021D01*
X244742Y406881D01*
X244738Y406741D01*
X244730Y406602D01*
X244718Y406463D01*
X244702Y406324D01*
X244682Y406185D01*
X244659Y406048D01*
X244631Y405910D01*
X244600Y405774D01*
X244565Y405639D01*
X244526Y405505D01*
X244483Y405372D01*
X244436Y405240D01*
X244386Y405109D01*
X244332Y404981D01*
X244274Y404853D01*
X244213Y404727D01*
X244148Y404604D01*
X244080Y404482D01*
X244009Y404361D01*
X243934Y404243D01*
X243855Y404128D01*
X243774Y404014D01*
X243689Y403903D01*
X243601Y403794D01*
X243511Y403688D01*
X243417Y403584D01*
X243320Y403483D01*
X243220Y403385D01*
X243118Y403290D01*
X243013Y403198D01*
X242906Y403108D01*
X242796Y403022D01*
X242683Y402939D01*
X242569Y402859D01*
X242452Y402782D01*
X242333Y402709D01*
X242212Y402639D01*
X242089Y402573D01*
X241964Y402510D01*
X241837Y402450D01*
X241709Y402395D01*
X241580Y402343D01*
X241448Y402294D01*
X241316Y402249D01*
X241182Y402208D01*
X241048Y402171D01*
X240912Y402138D01*
X240775Y402109D01*
X240638Y402083D01*
X240500Y402061D01*
X240361Y402044D01*
X240222Y402030D01*
X240082Y402020D01*
X239943Y402014D01*
X239803Y402012D01*
X234864Y402012D01*
X250859Y394110D02*
X256785Y394110D01*
X256909Y394112D01*
X257033Y394118D01*
X257157Y394128D01*
X257280Y394141D01*
X257403Y394159D01*
X257525Y394180D01*
X257647Y394205D01*
X257768Y394234D01*
X257887Y394267D01*
X258006Y394303D01*
X258123Y394344D01*
X258239Y394387D01*
X258354Y394435D01*
X258467Y394486D01*
X258579Y394541D01*
X258688Y394599D01*
X258796Y394660D01*
X258902Y394725D01*
X259006Y394793D01*
X259107Y394865D01*
X259207Y394939D01*
X259303Y395017D01*
X259398Y395097D01*
X259490Y395181D01*
X259579Y395267D01*
X259665Y395356D01*
X259749Y395448D01*
X259829Y395543D01*
X259907Y395639D01*
X259981Y395739D01*
X260053Y395840D01*
X260121Y395944D01*
X260186Y396050D01*
X260247Y396158D01*
X260305Y396267D01*
X260360Y396379D01*
X260411Y396492D01*
X260459Y396607D01*
X260502Y396723D01*
X260543Y396840D01*
X260579Y396959D01*
X260612Y397078D01*
X260641Y397199D01*
X260666Y397321D01*
X260687Y397443D01*
X260705Y397566D01*
X260718Y397689D01*
X260728Y397813D01*
X260734Y397937D01*
X260736Y398061D01*
X260736Y400037D01*
X260734Y400161D01*
X260728Y400285D01*
X260718Y400409D01*
X260705Y400532D01*
X260687Y400655D01*
X260666Y400777D01*
X260641Y400899D01*
X260612Y401020D01*
X260579Y401139D01*
X260543Y401258D01*
X260502Y401375D01*
X260459Y401491D01*
X260411Y401606D01*
X260360Y401719D01*
X260305Y401831D01*
X260247Y401940D01*
X260186Y402048D01*
X260121Y402154D01*
X260053Y402258D01*
X259981Y402359D01*
X259907Y402459D01*
X259829Y402555D01*
X259749Y402650D01*
X259665Y402742D01*
X259579Y402831D01*
X259490Y402917D01*
X259398Y403001D01*
X259303Y403081D01*
X259207Y403159D01*
X259107Y403233D01*
X259006Y403305D01*
X258902Y403373D01*
X258796Y403438D01*
X258688Y403499D01*
X258579Y403557D01*
X258467Y403612D01*
X258354Y403663D01*
X258239Y403711D01*
X258123Y403754D01*
X258006Y403795D01*
X257887Y403831D01*
X257768Y403864D01*
X257647Y403893D01*
X257525Y403918D01*
X257403Y403939D01*
X257280Y403957D01*
X257157Y403970D01*
X257033Y403980D01*
X256909Y403986D01*
X256785Y403988D01*
X250859Y403988D01*
X250859Y411890D01*
X260736Y411890D01*
X333264Y458910D02*
X333264Y476690D01*
X338203Y476690D01*
X338343Y476688D01*
X338482Y476682D01*
X338622Y476672D01*
X338761Y476658D01*
X338900Y476641D01*
X339038Y476619D01*
X339175Y476593D01*
X339312Y476564D01*
X339448Y476531D01*
X339582Y476494D01*
X339716Y476453D01*
X339848Y476408D01*
X339980Y476359D01*
X340109Y476307D01*
X340237Y476252D01*
X340364Y476192D01*
X340489Y476129D01*
X340612Y476063D01*
X340733Y475993D01*
X340852Y475920D01*
X340969Y475843D01*
X341083Y475763D01*
X341196Y475680D01*
X341306Y475594D01*
X341413Y475504D01*
X341518Y475412D01*
X341620Y475317D01*
X341720Y475219D01*
X341817Y475118D01*
X341911Y475014D01*
X342001Y474908D01*
X342089Y474799D01*
X342174Y474688D01*
X342255Y474574D01*
X342334Y474459D01*
X342409Y474341D01*
X342480Y474221D01*
X342548Y474098D01*
X342613Y473975D01*
X342674Y473849D01*
X342732Y473721D01*
X342786Y473593D01*
X342836Y473462D01*
X342883Y473330D01*
X342926Y473197D01*
X342965Y473063D01*
X343000Y472928D01*
X343031Y472792D01*
X343059Y472654D01*
X343082Y472517D01*
X343102Y472378D01*
X343118Y472239D01*
X343130Y472100D01*
X343138Y471961D01*
X343142Y471821D01*
X343142Y471681D01*
X343138Y471541D01*
X343130Y471402D01*
X343118Y471263D01*
X343102Y471124D01*
X343082Y470985D01*
X343059Y470848D01*
X343031Y470710D01*
X343000Y470574D01*
X342965Y470439D01*
X342926Y470305D01*
X342883Y470172D01*
X342836Y470040D01*
X342786Y469909D01*
X342732Y469781D01*
X342674Y469653D01*
X342613Y469527D01*
X342548Y469404D01*
X342480Y469282D01*
X342409Y469161D01*
X342334Y469043D01*
X342255Y468928D01*
X342174Y468814D01*
X342089Y468703D01*
X342001Y468594D01*
X341911Y468488D01*
X341817Y468384D01*
X341720Y468283D01*
X341620Y468185D01*
X341518Y468090D01*
X341413Y467998D01*
X341306Y467908D01*
X341196Y467822D01*
X341083Y467739D01*
X340969Y467659D01*
X340852Y467582D01*
X340733Y467509D01*
X340612Y467439D01*
X340489Y467373D01*
X340364Y467310D01*
X340237Y467250D01*
X340109Y467195D01*
X339980Y467143D01*
X339848Y467094D01*
X339716Y467049D01*
X339582Y467008D01*
X339448Y466971D01*
X339312Y466938D01*
X339175Y466909D01*
X339038Y466883D01*
X338900Y466861D01*
X338761Y466844D01*
X338622Y466830D01*
X338482Y466820D01*
X338343Y466814D01*
X338203Y466812D01*
X333264Y466812D01*
X349259Y468788D02*
X355185Y468788D01*
X355309Y468786D01*
X355433Y468780D01*
X355557Y468770D01*
X355680Y468757D01*
X355803Y468739D01*
X355925Y468718D01*
X356047Y468693D01*
X356168Y468664D01*
X356287Y468631D01*
X356406Y468595D01*
X356523Y468554D01*
X356639Y468511D01*
X356754Y468463D01*
X356867Y468412D01*
X356979Y468357D01*
X357088Y468299D01*
X357196Y468238D01*
X357302Y468173D01*
X357406Y468105D01*
X357507Y468033D01*
X357607Y467959D01*
X357703Y467881D01*
X357798Y467801D01*
X357890Y467717D01*
X357979Y467631D01*
X358065Y467542D01*
X358149Y467450D01*
X358229Y467355D01*
X358307Y467259D01*
X358381Y467159D01*
X358453Y467058D01*
X358521Y466954D01*
X358586Y466848D01*
X358647Y466740D01*
X358705Y466631D01*
X358760Y466519D01*
X358811Y466406D01*
X358859Y466291D01*
X358902Y466175D01*
X358943Y466058D01*
X358979Y465939D01*
X359012Y465820D01*
X359041Y465699D01*
X359066Y465577D01*
X359087Y465455D01*
X359105Y465332D01*
X359118Y465209D01*
X359128Y465085D01*
X359134Y464961D01*
X359136Y464837D01*
X359136Y463849D01*
X359137Y463849D02*
X359135Y463709D01*
X359129Y463570D01*
X359119Y463430D01*
X359105Y463291D01*
X359088Y463152D01*
X359066Y463014D01*
X359040Y462877D01*
X359011Y462740D01*
X358978Y462604D01*
X358941Y462470D01*
X358900Y462336D01*
X358855Y462204D01*
X358806Y462072D01*
X358754Y461943D01*
X358699Y461815D01*
X358639Y461688D01*
X358576Y461563D01*
X358510Y461440D01*
X358440Y461319D01*
X358367Y461200D01*
X358290Y461083D01*
X358210Y460969D01*
X358127Y460856D01*
X358041Y460746D01*
X357951Y460639D01*
X357859Y460534D01*
X357764Y460432D01*
X357666Y460332D01*
X357565Y460235D01*
X357461Y460141D01*
X357355Y460051D01*
X357246Y459963D01*
X357135Y459878D01*
X357021Y459797D01*
X356906Y459718D01*
X356788Y459643D01*
X356668Y459572D01*
X356545Y459504D01*
X356422Y459439D01*
X356296Y459378D01*
X356168Y459320D01*
X356040Y459266D01*
X355909Y459216D01*
X355777Y459169D01*
X355644Y459126D01*
X355510Y459087D01*
X355375Y459052D01*
X355239Y459021D01*
X355101Y458993D01*
X354964Y458970D01*
X354825Y458950D01*
X354686Y458934D01*
X354547Y458922D01*
X354408Y458914D01*
X354268Y458910D01*
X354128Y458910D01*
X353988Y458914D01*
X353849Y458922D01*
X353710Y458934D01*
X353571Y458950D01*
X353432Y458970D01*
X353295Y458993D01*
X353157Y459021D01*
X353021Y459052D01*
X352886Y459087D01*
X352752Y459126D01*
X352619Y459169D01*
X352487Y459216D01*
X352356Y459266D01*
X352228Y459320D01*
X352100Y459378D01*
X351974Y459439D01*
X351851Y459504D01*
X351729Y459572D01*
X351608Y459643D01*
X351490Y459718D01*
X351375Y459797D01*
X351261Y459878D01*
X351150Y459963D01*
X351041Y460051D01*
X350935Y460141D01*
X350831Y460235D01*
X350730Y460332D01*
X350632Y460432D01*
X350537Y460534D01*
X350445Y460639D01*
X350355Y460746D01*
X350269Y460856D01*
X350186Y460969D01*
X350106Y461083D01*
X350029Y461200D01*
X349956Y461319D01*
X349886Y461440D01*
X349820Y461563D01*
X349757Y461688D01*
X349697Y461815D01*
X349642Y461943D01*
X349590Y462072D01*
X349541Y462204D01*
X349496Y462336D01*
X349455Y462470D01*
X349418Y462604D01*
X349385Y462740D01*
X349356Y462877D01*
X349330Y463014D01*
X349308Y463152D01*
X349291Y463291D01*
X349277Y463430D01*
X349267Y463570D01*
X349261Y463709D01*
X349259Y463849D01*
X349259Y468788D01*
X349261Y468982D01*
X349269Y469176D01*
X349280Y469369D01*
X349297Y469563D01*
X349318Y469755D01*
X349345Y469947D01*
X349375Y470139D01*
X349411Y470330D01*
X349451Y470519D01*
X349496Y470708D01*
X349545Y470896D01*
X349599Y471082D01*
X349658Y471267D01*
X349721Y471450D01*
X349788Y471632D01*
X349861Y471812D01*
X349937Y471990D01*
X350018Y472167D01*
X350103Y472341D01*
X350192Y472513D01*
X350286Y472683D01*
X350383Y472850D01*
X350485Y473016D01*
X350591Y473178D01*
X350700Y473338D01*
X350814Y473495D01*
X350931Y473650D01*
X351053Y473801D01*
X351178Y473949D01*
X351306Y474095D01*
X351438Y474237D01*
X351573Y474376D01*
X351712Y474511D01*
X351854Y474643D01*
X352000Y474771D01*
X352148Y474896D01*
X352299Y475018D01*
X352454Y475135D01*
X352611Y475249D01*
X352771Y475358D01*
X352933Y475464D01*
X353099Y475566D01*
X353266Y475663D01*
X353436Y475757D01*
X353608Y475846D01*
X353782Y475931D01*
X353959Y476012D01*
X354137Y476088D01*
X354317Y476161D01*
X354499Y476228D01*
X354682Y476291D01*
X354867Y476350D01*
X355053Y476404D01*
X355241Y476453D01*
X355430Y476498D01*
X355619Y476538D01*
X355810Y476574D01*
X356002Y476604D01*
X356194Y476631D01*
X356386Y476652D01*
X356580Y476669D01*
X356773Y476680D01*
X356967Y476688D01*
X357161Y476690D01*
D12*
X388110Y263632D03*
D13*
X387594Y263779D03*
D14*
X387005Y263926D03*
D15*
X386563Y264074D03*
D16*
X386047Y264221D03*
D17*
X385605Y264368D03*
D18*
X385016Y264516D03*
D19*
X384500Y264663D03*
D20*
X384058Y264810D03*
D21*
X383616Y264958D03*
D22*
X383543Y265105D03*
D23*
X383616Y265252D03*
D24*
X383690Y265400D03*
D25*
X383616Y265547D03*
D26*
X383690Y265694D03*
D27*
X383690Y265841D03*
D28*
X383764Y265989D03*
X383764Y266136D03*
D29*
X383764Y266283D03*
D30*
X383837Y266431D03*
D31*
X383837Y266578D03*
X383837Y266725D03*
D32*
X383911Y266873D03*
D33*
X383911Y267020D03*
D34*
X383985Y267167D03*
D35*
X383911Y267315D03*
D36*
X383985Y267462D03*
D37*
X384058Y267609D03*
D38*
X384058Y267757D03*
X384058Y267904D03*
D39*
X384132Y268051D03*
D40*
X384132Y268199D03*
D41*
X384206Y268346D03*
D42*
X384132Y268493D03*
D43*
X384206Y268641D03*
D44*
X384279Y268788D03*
D45*
X384279Y268935D03*
X384279Y269083D03*
D46*
X384279Y269230D03*
D47*
X384353Y269377D03*
X384353Y269524D03*
D48*
X384353Y269672D03*
D49*
X384427Y269819D03*
D50*
X384427Y269966D03*
X384427Y270114D03*
D51*
X384500Y270261D03*
D52*
X384500Y270408D03*
D53*
X384574Y270556D03*
D54*
X384500Y270703D03*
D55*
X384574Y270850D03*
D56*
X384648Y270998D03*
D57*
X405125Y270998D03*
D58*
X384648Y271145D03*
D59*
X404536Y271145D03*
D58*
X384648Y271292D03*
D60*
X404094Y271292D03*
D61*
X384648Y271440D03*
D62*
X403578Y271440D03*
D63*
X384721Y271587D03*
D64*
X403136Y271587D03*
D63*
X384721Y271734D03*
D65*
X402547Y271734D03*
D66*
X384648Y271882D03*
D67*
X402105Y271882D03*
D66*
X384648Y272029D03*
D68*
X401589Y272029D03*
D63*
X384574Y272176D03*
D69*
X401147Y272176D03*
D66*
X384500Y272324D03*
D21*
X401000Y272324D03*
D66*
X384500Y272471D03*
D23*
X401000Y272471D03*
D66*
X384353Y272618D03*
D24*
X401074Y272618D03*
D66*
X384353Y272766D03*
D25*
X401147Y272766D03*
D63*
X384279Y272913D03*
D26*
X401074Y272913D03*
D66*
X384206Y273060D03*
D70*
X401147Y273060D03*
D66*
X384206Y273207D03*
D28*
X401147Y273207D03*
D66*
X384058Y273355D03*
D71*
X401221Y273355D03*
D66*
X384058Y273502D03*
D71*
X401221Y273502D03*
D63*
X383985Y273649D03*
D30*
X401221Y273649D03*
D66*
X383911Y273797D03*
D72*
X401295Y273797D03*
D66*
X383911Y273944D03*
D32*
X401295Y273944D03*
D66*
X383764Y274091D03*
D32*
X401295Y274091D03*
D66*
X383764Y274239D03*
D73*
X401368Y274239D03*
D63*
X383690Y274386D03*
D34*
X401368Y274386D03*
D61*
X383764Y274533D03*
D35*
X401442Y274533D03*
D61*
X383764Y274681D03*
D36*
X401368Y274681D03*
D74*
X383764Y274828D03*
D75*
X401442Y274828D03*
D76*
X383837Y274975D03*
D77*
X401516Y274975D03*
D55*
X383837Y275123D03*
D78*
X401516Y275123D03*
D55*
X383837Y275270D03*
D78*
X401516Y275270D03*
D54*
X383911Y275417D03*
D79*
X401589Y275417D03*
D52*
X383911Y275565D03*
D41*
X401589Y275565D03*
D80*
X383985Y275712D03*
D41*
X401589Y275712D03*
D51*
X383911Y275859D03*
D43*
X401589Y275859D03*
D81*
X383985Y276007D03*
D44*
X401663Y276007D03*
D82*
X384058Y276154D03*
D83*
X401737Y276154D03*
D48*
X384058Y276301D03*
D84*
X401663Y276301D03*
D48*
X384058Y276449D03*
D85*
X401737Y276449D03*
D86*
X384132Y276596D03*
D47*
X401737Y276596D03*
D46*
X384132Y276743D03*
D86*
X401810Y276743D03*
D46*
X384132Y276890D03*
D86*
X401810Y276890D03*
D84*
X384132Y277038D03*
D49*
X401810Y277038D03*
D87*
X384206Y277185D03*
D82*
X401884Y277185D03*
D44*
X384279Y277332D03*
D51*
X401884Y277332D03*
D43*
X384206Y277480D03*
D51*
X401884Y277480D03*
D42*
X384279Y277627D03*
D80*
X401958Y277627D03*
D40*
X384279Y277774D03*
D53*
X401958Y277774D03*
D79*
X384353Y277922D03*
D54*
X402031Y277922D03*
D79*
X384353Y278069D03*
D55*
X401958Y278069D03*
D88*
X384353Y278216D03*
D89*
X402031Y278216D03*
D77*
X384427Y278364D03*
D76*
X402105Y278364D03*
D36*
X384427Y278511D03*
D90*
X402105Y278511D03*
D36*
X384427Y278658D03*
D90*
X402105Y278658D03*
D35*
X384500Y278806D03*
D63*
X402105Y278806D03*
D33*
X384500Y278953D03*
D66*
X402179Y278953D03*
D73*
X384574Y279100D03*
D63*
X402105Y279100D03*
D32*
X384500Y279248D03*
D66*
X402031Y279248D03*
D91*
X384574Y279395D03*
D66*
X402031Y279395D03*
D92*
X384648Y279542D03*
D63*
X401958Y279542D03*
D29*
X384648Y279690D03*
D66*
X401884Y279690D03*
D29*
X384648Y279837D03*
D66*
X401884Y279837D03*
D71*
X384721Y279984D03*
D66*
X401737Y279984D03*
D27*
X384721Y280132D03*
D66*
X401737Y280132D03*
D70*
X384795Y280279D03*
D63*
X401663Y280279D03*
D93*
X384721Y280426D03*
D66*
X401589Y280426D03*
D25*
X384795Y280573D03*
D66*
X401589Y280573D03*
D24*
X384868Y280721D03*
D66*
X401442Y280721D03*
D23*
X384795Y280868D03*
D66*
X401442Y280868D03*
D22*
X384868Y281015D03*
D63*
X401368Y281015D03*
D69*
X384795Y281163D03*
D66*
X401295Y281163D03*
D94*
X384279Y281310D03*
D66*
X401295Y281310D03*
D67*
X383690Y281457D03*
D66*
X401147Y281457D03*
D65*
X383248Y281605D03*
D66*
X401147Y281605D03*
D95*
X382732Y281752D03*
D61*
X401147Y281752D03*
D96*
X382290Y281899D03*
D90*
X401221Y281899D03*
D60*
X381701Y282047D03*
D90*
X401221Y282047D03*
D97*
X381185Y282194D03*
D98*
X401221Y282194D03*
D99*
X380744Y282341D03*
D56*
X401295Y282341D03*
D100*
X390540Y282489D03*
D55*
X401221Y282489D03*
D101*
X390025Y282636D03*
D54*
X401295Y282636D03*
D14*
X389509Y282783D03*
D53*
X401368Y282783D03*
D102*
X388993Y282931D03*
D80*
X401368Y282931D03*
D16*
X388551Y283078D03*
D80*
X401368Y283078D03*
D103*
X388036Y283225D03*
D81*
X401368Y283225D03*
D18*
X387520Y283373D03*
D104*
X401442Y283373D03*
D19*
X387005Y283520D03*
D49*
X401516Y283520D03*
D105*
X386489Y283667D03*
D48*
X401442Y283667D03*
D106*
X386047Y283815D03*
D86*
X401516Y283815D03*
D22*
X386047Y283962D03*
D47*
X401589Y283962D03*
D23*
X386121Y284109D03*
D85*
X401589Y284109D03*
D24*
X386194Y284256D03*
D85*
X401589Y284256D03*
D25*
X386121Y284404D03*
D87*
X401589Y284404D03*
D26*
X386194Y284551D03*
D44*
X401663Y284551D03*
D107*
X386194Y284698D03*
D43*
X401737Y284698D03*
D28*
X386268Y284846D03*
D42*
X401663Y284846D03*
D28*
X386268Y284993D03*
D41*
X401737Y284993D03*
D29*
X386268Y285140D03*
D79*
X401737Y285140D03*
D30*
X386342Y285288D03*
D39*
X401810Y285288D03*
D31*
X386342Y285435D03*
D39*
X401810Y285435D03*
D31*
X386342Y285582D03*
D108*
X401810Y285582D03*
D32*
X386415Y285730D03*
D75*
X401884Y285730D03*
D33*
X386415Y285877D03*
D35*
X401884Y285877D03*
D34*
X386489Y286024D03*
D35*
X401884Y286024D03*
X386415Y286172D03*
D34*
X401958Y286172D03*
D36*
X386489Y286319D03*
D73*
X401958Y286319D03*
D75*
X386563Y286466D03*
D73*
X401958Y286466D03*
D38*
X386563Y286614D03*
D91*
X401958Y286614D03*
D38*
X386563Y286761D03*
D72*
X402031Y286761D03*
D79*
X386563Y286908D03*
D30*
X402105Y286908D03*
D40*
X386636Y287056D03*
D29*
X402031Y287056D03*
D41*
X386710Y287203D03*
D71*
X402105Y287203D03*
D42*
X386636Y287350D03*
D27*
X402105Y287350D03*
D43*
X386710Y287498D03*
D109*
X402179Y287498D03*
D87*
X386710Y287645D03*
D109*
X402179Y287645D03*
D45*
X386784Y287792D03*
D25*
X402179Y287792D03*
D45*
X386784Y287939D03*
D24*
X402252Y287939D03*
D46*
X386784Y288087D03*
D23*
X402326Y288087D03*
D47*
X386857Y288234D03*
D22*
X402252Y288234D03*
D47*
X386857Y288381D03*
D106*
X402252Y288381D03*
D48*
X386857Y288529D03*
D110*
X401810Y288529D03*
D49*
X386931Y288676D03*
D111*
X401295Y288676D03*
D50*
X386931Y288823D03*
D18*
X400779Y288823D03*
D50*
X386931Y288971D03*
D112*
X400263Y288971D03*
D51*
X387005Y289118D03*
D113*
X399821Y289118D03*
D52*
X387005Y289265D03*
D114*
X399306Y289265D03*
D53*
X387078Y289413D03*
D14*
X398790Y289413D03*
D54*
X387005Y289560D03*
D115*
X398275Y289560D03*
D55*
X387078Y289707D03*
D12*
X397833Y289707D03*
D56*
X387152Y289855D03*
D58*
X387152Y290002D03*
X387152Y290149D03*
D61*
X387152Y290297D03*
D63*
X387226Y290444D03*
X387226Y290591D03*
D66*
X387152Y290739D03*
X387152Y290886D03*
X387005Y291033D03*
X387005Y291181D03*
D63*
X386931Y291328D03*
D66*
X386857Y291475D03*
X386857Y291622D03*
X386710Y291770D03*
X386710Y291917D03*
D63*
X386636Y292064D03*
D66*
X386563Y292212D03*
X386563Y292359D03*
D63*
X386489Y292506D03*
D66*
X386415Y292654D03*
X386415Y292801D03*
X386268Y292948D03*
X386268Y293096D03*
D63*
X386194Y293243D03*
D61*
X386268Y293390D03*
X386268Y293538D03*
D74*
X386268Y293685D03*
D76*
X386342Y293832D03*
D55*
X386342Y293980D03*
X386342Y294127D03*
D54*
X386415Y294274D03*
D52*
X386415Y294422D03*
D80*
X386489Y294569D03*
D51*
X386415Y294716D03*
D81*
X386489Y294864D03*
D82*
X386563Y295011D03*
D116*
X386489Y295158D03*
D48*
X386563Y295305D03*
D47*
X386563Y295453D03*
D46*
X386636Y295600D03*
X386636Y295747D03*
D84*
X386636Y295895D03*
D87*
X386710Y296042D03*
D43*
X386710Y296189D03*
X386710Y296337D03*
D42*
X386784Y296484D03*
D40*
X386784Y296631D03*
D79*
X386857Y296779D03*
X386857Y296926D03*
D88*
X386857Y297073D03*
D77*
X386931Y297221D03*
D36*
X386931Y297368D03*
X386931Y297515D03*
D35*
X387005Y297663D03*
D33*
X387005Y297810D03*
D73*
X387078Y297957D03*
D32*
X387005Y298105D03*
D91*
X387078Y298252D03*
D92*
X387152Y298399D03*
D29*
X387152Y298547D03*
X387152Y298694D03*
D28*
X387152Y298841D03*
D27*
X387226Y298988D03*
D70*
X387299Y299136D03*
D93*
X387226Y299283D03*
D25*
X387299Y299430D03*
D23*
X387299Y299578D03*
X387299Y299725D03*
D22*
X387373Y299872D03*
D117*
X387226Y300020D03*
D118*
X386710Y300167D03*
D67*
X386194Y300314D03*
D119*
X385679Y300462D03*
D95*
X385237Y300609D03*
D120*
X384721Y300756D03*
D60*
X384206Y300904D03*
D97*
X383690Y301051D03*
D121*
X383174Y301198D03*
D122*
X282994Y306984D02*
X282994Y288544D01*
X282994Y306984D02*
X302158Y306984D01*
X283121Y306857D02*
X271843Y318084D01*
X271374Y318084D02*
X272859Y311988D01*
X271615Y318567D02*
X278397Y317716D01*
X279476Y293522D02*
X282511Y288188D01*
X282880Y287820D02*
X286512Y293281D01*
X298158Y303581D02*
X302273Y306984D01*
X302158Y307467D02*
X298272Y310617D01*
X380200Y362496D02*
X380200Y385432D01*
X380200Y362496D02*
X399986Y362509D01*
X380327Y362623D02*
X367386Y350799D01*
X366916Y350799D02*
X368605Y357708D01*
X367157Y350317D02*
X373939Y351168D01*
X376682Y380454D02*
X379717Y385788D01*
X380086Y386156D02*
X383718Y380695D01*
X395986Y365912D02*
X400101Y362509D01*
X399986Y362026D02*
X396100Y358877D01*
D10*
X403174Y358102D02*
X409044Y366907D01*
X403174Y366907D02*
X409044Y358102D01*
X311445Y312729D02*
X305575Y303924D01*
X311445Y303924D02*
X305575Y312729D01*
X386766Y376394D02*
X388233Y376394D01*
X392636Y389602D01*
X386766Y389602D02*
X389701Y380797D01*
X290545Y286376D02*
X289077Y286376D01*
X290545Y286376D02*
X294948Y299584D01*
X289077Y299584D02*
X292012Y290779D01*
X363664Y370044D02*
X369535Y370044D01*
X363664Y361239D01*
X369535Y361239D01*
X287264Y324210D02*
X281394Y324210D01*
X287264Y324210D02*
X281394Y315404D01*
X287264Y315404D01*
D123*
X250181Y311061D02*
X250181Y308561D01*
X250181Y311061D02*
X250181Y313561D01*
X250181Y311061D02*
X245181Y308561D01*
X245181Y313561D02*
X250181Y311061D01*
X245181Y313561D02*
X245181Y308561D01*
X235181Y306061D02*
X235181Y316061D01*
X260181Y316061D01*
X260181Y306061D01*
X235181Y306061D01*
D124*
X214173Y311654D02*
X214173Y321052D01*
X216783Y321052D01*
X216783Y321053D02*
X216883Y321051D01*
X216983Y321045D01*
X217082Y321036D01*
X217182Y321022D01*
X217280Y321005D01*
X217378Y320984D01*
X217475Y320960D01*
X217571Y320931D01*
X217666Y320899D01*
X217759Y320864D01*
X217851Y320825D01*
X217942Y320782D01*
X218030Y320736D01*
X218117Y320686D01*
X218202Y320634D01*
X218285Y320578D01*
X218366Y320519D01*
X218444Y320456D01*
X218520Y320391D01*
X218594Y320323D01*
X218664Y320253D01*
X218732Y320179D01*
X218797Y320103D01*
X218860Y320025D01*
X218919Y319944D01*
X218975Y319861D01*
X219027Y319776D01*
X219077Y319689D01*
X219123Y319601D01*
X219166Y319510D01*
X219205Y319418D01*
X219240Y319325D01*
X219272Y319230D01*
X219301Y319134D01*
X219325Y319037D01*
X219346Y318939D01*
X219363Y318841D01*
X219377Y318741D01*
X219386Y318642D01*
X219392Y318542D01*
X219394Y318442D01*
X219394Y314265D01*
X219392Y314165D01*
X219386Y314065D01*
X219377Y313966D01*
X219363Y313866D01*
X219346Y313768D01*
X219325Y313670D01*
X219301Y313573D01*
X219272Y313477D01*
X219240Y313382D01*
X219205Y313289D01*
X219166Y313197D01*
X219123Y313106D01*
X219077Y313018D01*
X219027Y312931D01*
X218975Y312846D01*
X218919Y312763D01*
X218860Y312682D01*
X218797Y312604D01*
X218732Y312528D01*
X218664Y312454D01*
X218594Y312384D01*
X218520Y312316D01*
X218444Y312251D01*
X218366Y312188D01*
X218285Y312129D01*
X218202Y312073D01*
X218117Y312021D01*
X218030Y311971D01*
X217942Y311925D01*
X217851Y311882D01*
X217759Y311843D01*
X217666Y311808D01*
X217571Y311776D01*
X217475Y311747D01*
X217378Y311723D01*
X217280Y311702D01*
X217182Y311685D01*
X217082Y311671D01*
X216983Y311662D01*
X216883Y311656D01*
X216783Y311654D01*
X214173Y311654D01*
X223622Y318964D02*
X226232Y321052D01*
X226232Y311654D01*
X223622Y311654D02*
X228843Y311654D01*
X453061Y353781D02*
X453061Y363179D01*
X457237Y363179D01*
X457237Y359002D02*
X453061Y359002D01*
X461099Y359002D02*
X463710Y359002D01*
X463710Y359003D02*
X463811Y359001D01*
X463912Y358995D01*
X464013Y358985D01*
X464113Y358972D01*
X464213Y358954D01*
X464312Y358933D01*
X464410Y358907D01*
X464507Y358878D01*
X464603Y358846D01*
X464697Y358809D01*
X464790Y358769D01*
X464882Y358725D01*
X464971Y358678D01*
X465059Y358627D01*
X465145Y358573D01*
X465228Y358516D01*
X465310Y358456D01*
X465388Y358392D01*
X465465Y358326D01*
X465538Y358256D01*
X465609Y358184D01*
X465677Y358109D01*
X465742Y358031D01*
X465804Y357951D01*
X465863Y357869D01*
X465919Y357784D01*
X465971Y357697D01*
X466020Y357609D01*
X466066Y357518D01*
X466107Y357426D01*
X466146Y357332D01*
X466180Y357237D01*
X466211Y357141D01*
X466238Y357043D01*
X466262Y356945D01*
X466281Y356845D01*
X466297Y356745D01*
X466309Y356645D01*
X466317Y356544D01*
X466321Y356443D01*
X466321Y356341D01*
X466317Y356240D01*
X466309Y356139D01*
X466297Y356039D01*
X466281Y355939D01*
X466262Y355839D01*
X466238Y355741D01*
X466211Y355643D01*
X466180Y355547D01*
X466146Y355452D01*
X466107Y355358D01*
X466066Y355266D01*
X466020Y355175D01*
X465971Y355087D01*
X465919Y355000D01*
X465863Y354915D01*
X465804Y354833D01*
X465742Y354753D01*
X465677Y354675D01*
X465609Y354600D01*
X465538Y354528D01*
X465465Y354458D01*
X465388Y354392D01*
X465310Y354328D01*
X465228Y354268D01*
X465145Y354211D01*
X465059Y354157D01*
X464971Y354106D01*
X464882Y354059D01*
X464790Y354015D01*
X464697Y353975D01*
X464603Y353938D01*
X464507Y353906D01*
X464410Y353877D01*
X464312Y353851D01*
X464213Y353830D01*
X464113Y353812D01*
X464013Y353799D01*
X463912Y353789D01*
X463811Y353783D01*
X463710Y353781D01*
X461099Y353781D01*
X461099Y363179D01*
X463710Y363179D01*
X463800Y363177D01*
X463889Y363171D01*
X463979Y363162D01*
X464068Y363148D01*
X464156Y363131D01*
X464243Y363110D01*
X464330Y363085D01*
X464415Y363056D01*
X464499Y363024D01*
X464581Y362989D01*
X464662Y362949D01*
X464741Y362907D01*
X464818Y362861D01*
X464893Y362811D01*
X464966Y362759D01*
X465037Y362703D01*
X465105Y362645D01*
X465170Y362583D01*
X465233Y362519D01*
X465293Y362452D01*
X465350Y362383D01*
X465404Y362311D01*
X465455Y362237D01*
X465503Y362161D01*
X465547Y362083D01*
X465588Y362003D01*
X465626Y361921D01*
X465660Y361838D01*
X465690Y361753D01*
X465717Y361667D01*
X465740Y361581D01*
X465759Y361493D01*
X465774Y361404D01*
X465786Y361315D01*
X465794Y361226D01*
X465798Y361136D01*
X465798Y361046D01*
X465794Y360956D01*
X465786Y360867D01*
X465774Y360778D01*
X465759Y360689D01*
X465740Y360601D01*
X465717Y360515D01*
X465690Y360429D01*
X465660Y360344D01*
X465626Y360261D01*
X465588Y360179D01*
X465547Y360099D01*
X465503Y360021D01*
X465455Y359945D01*
X465404Y359871D01*
X465350Y359799D01*
X465293Y359730D01*
X465233Y359663D01*
X465170Y359599D01*
X465105Y359537D01*
X465037Y359479D01*
X464966Y359423D01*
X464893Y359371D01*
X464818Y359321D01*
X464741Y359275D01*
X464662Y359233D01*
X464581Y359193D01*
X464499Y359158D01*
X464415Y359126D01*
X464330Y359097D01*
X464243Y359072D01*
X464156Y359051D01*
X464068Y359034D01*
X463979Y359020D01*
X463889Y359011D01*
X463800Y359005D01*
X463710Y359003D01*
X469807Y361091D02*
X472418Y363179D01*
X472418Y353781D01*
X475028Y353781D02*
X469807Y353781D01*
X227092Y327088D02*
X217694Y327088D01*
X217694Y329699D01*
X217696Y329800D01*
X217702Y329901D01*
X217712Y330002D01*
X217725Y330102D01*
X217743Y330202D01*
X217764Y330301D01*
X217790Y330399D01*
X217819Y330496D01*
X217851Y330592D01*
X217888Y330686D01*
X217928Y330779D01*
X217972Y330871D01*
X218019Y330960D01*
X218070Y331048D01*
X218124Y331134D01*
X218181Y331217D01*
X218241Y331299D01*
X218305Y331377D01*
X218371Y331454D01*
X218441Y331527D01*
X218513Y331598D01*
X218588Y331666D01*
X218666Y331731D01*
X218746Y331793D01*
X218828Y331852D01*
X218913Y331908D01*
X219000Y331960D01*
X219088Y332009D01*
X219179Y332055D01*
X219271Y332096D01*
X219365Y332135D01*
X219460Y332169D01*
X219556Y332200D01*
X219654Y332227D01*
X219752Y332251D01*
X219852Y332270D01*
X219952Y332286D01*
X220052Y332298D01*
X220153Y332306D01*
X220254Y332310D01*
X220356Y332310D01*
X220457Y332306D01*
X220558Y332298D01*
X220658Y332286D01*
X220758Y332270D01*
X220858Y332251D01*
X220956Y332227D01*
X221054Y332200D01*
X221150Y332169D01*
X221245Y332135D01*
X221339Y332096D01*
X221431Y332055D01*
X221522Y332009D01*
X221611Y331960D01*
X221697Y331908D01*
X221782Y331852D01*
X221864Y331793D01*
X221944Y331731D01*
X222022Y331666D01*
X222097Y331598D01*
X222169Y331527D01*
X222239Y331454D01*
X222305Y331377D01*
X222369Y331299D01*
X222429Y331217D01*
X222486Y331134D01*
X222540Y331048D01*
X222591Y330960D01*
X222638Y330871D01*
X222682Y330779D01*
X222722Y330686D01*
X222759Y330592D01*
X222791Y330496D01*
X222820Y330399D01*
X222846Y330301D01*
X222867Y330202D01*
X222885Y330102D01*
X222898Y330002D01*
X222908Y329901D01*
X222914Y329800D01*
X222916Y329699D01*
X222915Y329699D02*
X222915Y327088D01*
X222915Y330221D02*
X227092Y332310D01*
X219783Y336175D02*
X217694Y338786D01*
X227092Y338786D01*
X227092Y341396D02*
X227092Y336175D01*
D11*
X275705Y419720D02*
X275705Y437500D01*
X280643Y437500D01*
X280782Y437498D01*
X280920Y437492D01*
X281058Y437483D01*
X281196Y437469D01*
X281333Y437452D01*
X281470Y437430D01*
X281607Y437405D01*
X281742Y437376D01*
X281877Y437343D01*
X282010Y437307D01*
X282143Y437267D01*
X282274Y437223D01*
X282404Y437175D01*
X282533Y437124D01*
X282660Y437069D01*
X282786Y437011D01*
X282910Y436949D01*
X283032Y436884D01*
X283152Y436815D01*
X283271Y436743D01*
X283387Y436668D01*
X283501Y436589D01*
X283613Y436507D01*
X283722Y436422D01*
X283830Y436335D01*
X283934Y436244D01*
X284036Y436150D01*
X284135Y436053D01*
X284232Y435954D01*
X284326Y435852D01*
X284417Y435748D01*
X284504Y435640D01*
X284589Y435531D01*
X284671Y435419D01*
X284750Y435305D01*
X284825Y435189D01*
X284897Y435070D01*
X284966Y434950D01*
X285031Y434828D01*
X285093Y434704D01*
X285151Y434578D01*
X285206Y434451D01*
X285257Y434322D01*
X285305Y434192D01*
X285349Y434061D01*
X285389Y433928D01*
X285425Y433795D01*
X285458Y433660D01*
X285487Y433525D01*
X285512Y433388D01*
X285534Y433251D01*
X285551Y433114D01*
X285565Y432976D01*
X285574Y432838D01*
X285580Y432700D01*
X285582Y432561D01*
X285582Y424659D01*
X285580Y424520D01*
X285574Y424382D01*
X285565Y424244D01*
X285551Y424106D01*
X285534Y423969D01*
X285512Y423832D01*
X285487Y423695D01*
X285458Y423560D01*
X285425Y423425D01*
X285389Y423292D01*
X285349Y423159D01*
X285305Y423028D01*
X285257Y422898D01*
X285206Y422769D01*
X285151Y422642D01*
X285093Y422516D01*
X285031Y422392D01*
X284966Y422270D01*
X284897Y422150D01*
X284825Y422031D01*
X284750Y421915D01*
X284671Y421801D01*
X284589Y421689D01*
X284504Y421580D01*
X284417Y421472D01*
X284326Y421368D01*
X284232Y421266D01*
X284135Y421167D01*
X284036Y421070D01*
X283934Y420976D01*
X283830Y420885D01*
X283722Y420798D01*
X283613Y420713D01*
X283501Y420631D01*
X283387Y420552D01*
X283271Y420477D01*
X283152Y420405D01*
X283032Y420336D01*
X282910Y420271D01*
X282786Y420209D01*
X282660Y420151D01*
X282533Y420096D01*
X282404Y420045D01*
X282274Y419997D01*
X282143Y419953D01*
X282010Y419913D01*
X281877Y419877D01*
X281742Y419844D01*
X281607Y419815D01*
X281470Y419790D01*
X281333Y419768D01*
X281196Y419751D01*
X281058Y419737D01*
X280920Y419728D01*
X280782Y419722D01*
X280643Y419720D01*
X275705Y419720D01*
X280554Y444210D02*
X284505Y444210D01*
X280554Y444211D02*
X280430Y444213D01*
X280306Y444219D01*
X280182Y444229D01*
X280059Y444242D01*
X279936Y444260D01*
X279814Y444281D01*
X279692Y444306D01*
X279571Y444335D01*
X279452Y444368D01*
X279333Y444404D01*
X279216Y444445D01*
X279100Y444488D01*
X278985Y444536D01*
X278872Y444587D01*
X278760Y444642D01*
X278651Y444700D01*
X278543Y444761D01*
X278437Y444826D01*
X278333Y444894D01*
X278232Y444966D01*
X278132Y445040D01*
X278036Y445118D01*
X277941Y445198D01*
X277849Y445282D01*
X277760Y445368D01*
X277674Y445457D01*
X277590Y445549D01*
X277510Y445644D01*
X277432Y445740D01*
X277358Y445840D01*
X277286Y445941D01*
X277218Y446045D01*
X277153Y446151D01*
X277092Y446259D01*
X277034Y446368D01*
X276979Y446480D01*
X276928Y446593D01*
X276880Y446708D01*
X276837Y446824D01*
X276796Y446941D01*
X276760Y447060D01*
X276727Y447179D01*
X276698Y447300D01*
X276673Y447422D01*
X276652Y447544D01*
X276634Y447667D01*
X276621Y447790D01*
X276611Y447914D01*
X276605Y448038D01*
X276603Y448162D01*
X276603Y458039D01*
X276605Y458163D01*
X276611Y458287D01*
X276621Y458411D01*
X276634Y458534D01*
X276652Y458657D01*
X276673Y458779D01*
X276698Y458901D01*
X276727Y459022D01*
X276760Y459141D01*
X276796Y459260D01*
X276837Y459377D01*
X276880Y459493D01*
X276928Y459608D01*
X276979Y459721D01*
X277034Y459833D01*
X277092Y459942D01*
X277153Y460050D01*
X277218Y460156D01*
X277286Y460260D01*
X277358Y460361D01*
X277432Y460461D01*
X277510Y460557D01*
X277590Y460652D01*
X277674Y460744D01*
X277760Y460833D01*
X277849Y460919D01*
X277941Y461003D01*
X278036Y461083D01*
X278132Y461161D01*
X278232Y461235D01*
X278333Y461307D01*
X278437Y461375D01*
X278543Y461440D01*
X278651Y461501D01*
X278760Y461559D01*
X278872Y461614D01*
X278985Y461665D01*
X279100Y461713D01*
X279216Y461756D01*
X279333Y461797D01*
X279452Y461833D01*
X279571Y461866D01*
X279692Y461895D01*
X279814Y461920D01*
X279936Y461941D01*
X280059Y461959D01*
X280182Y461972D01*
X280306Y461982D01*
X280430Y461988D01*
X280554Y461990D01*
X284505Y461990D01*
X375346Y447192D02*
X380285Y447192D01*
X380425Y447190D01*
X380564Y447184D01*
X380704Y447174D01*
X380843Y447160D01*
X380982Y447143D01*
X381120Y447121D01*
X381257Y447095D01*
X381394Y447066D01*
X381530Y447033D01*
X381664Y446996D01*
X381798Y446955D01*
X381930Y446910D01*
X382062Y446861D01*
X382191Y446809D01*
X382319Y446754D01*
X382446Y446694D01*
X382571Y446631D01*
X382694Y446565D01*
X382815Y446495D01*
X382934Y446422D01*
X383051Y446345D01*
X383165Y446265D01*
X383278Y446182D01*
X383388Y446096D01*
X383495Y446006D01*
X383600Y445914D01*
X383702Y445819D01*
X383802Y445721D01*
X383899Y445620D01*
X383993Y445516D01*
X384083Y445410D01*
X384171Y445301D01*
X384256Y445190D01*
X384337Y445076D01*
X384416Y444961D01*
X384491Y444843D01*
X384562Y444723D01*
X384630Y444600D01*
X384695Y444477D01*
X384756Y444351D01*
X384814Y444223D01*
X384868Y444095D01*
X384918Y443964D01*
X384965Y443832D01*
X385008Y443699D01*
X385047Y443565D01*
X385082Y443430D01*
X385113Y443294D01*
X385141Y443156D01*
X385164Y443019D01*
X385184Y442880D01*
X385200Y442741D01*
X385212Y442602D01*
X385220Y442463D01*
X385224Y442323D01*
X385224Y442183D01*
X385220Y442043D01*
X385212Y441904D01*
X385200Y441765D01*
X385184Y441626D01*
X385164Y441487D01*
X385141Y441350D01*
X385113Y441212D01*
X385082Y441076D01*
X385047Y440941D01*
X385008Y440807D01*
X384965Y440674D01*
X384918Y440542D01*
X384868Y440411D01*
X384814Y440283D01*
X384756Y440155D01*
X384695Y440029D01*
X384630Y439906D01*
X384562Y439784D01*
X384491Y439663D01*
X384416Y439545D01*
X384337Y439430D01*
X384256Y439316D01*
X384171Y439205D01*
X384083Y439096D01*
X383993Y438990D01*
X383899Y438886D01*
X383802Y438785D01*
X383702Y438687D01*
X383600Y438592D01*
X383495Y438500D01*
X383388Y438410D01*
X383278Y438324D01*
X383165Y438241D01*
X383051Y438161D01*
X382934Y438084D01*
X382815Y438011D01*
X382694Y437941D01*
X382571Y437875D01*
X382446Y437812D01*
X382319Y437752D01*
X382191Y437697D01*
X382062Y437645D01*
X381930Y437596D01*
X381798Y437551D01*
X381664Y437510D01*
X381530Y437473D01*
X381394Y437440D01*
X381257Y437411D01*
X381120Y437385D01*
X380982Y437363D01*
X380843Y437346D01*
X380704Y437332D01*
X380564Y437322D01*
X380425Y437316D01*
X380285Y437314D01*
X375346Y437314D01*
X375346Y455094D01*
X380285Y455094D01*
X380409Y455092D01*
X380533Y455086D01*
X380657Y455076D01*
X380780Y455063D01*
X380903Y455045D01*
X381025Y455024D01*
X381147Y454999D01*
X381268Y454970D01*
X381387Y454937D01*
X381506Y454901D01*
X381623Y454860D01*
X381739Y454817D01*
X381854Y454769D01*
X381967Y454718D01*
X382079Y454663D01*
X382188Y454605D01*
X382296Y454544D01*
X382402Y454479D01*
X382506Y454411D01*
X382607Y454339D01*
X382707Y454265D01*
X382803Y454187D01*
X382898Y454107D01*
X382990Y454023D01*
X383079Y453937D01*
X383165Y453848D01*
X383249Y453756D01*
X383329Y453661D01*
X383407Y453565D01*
X383481Y453465D01*
X383553Y453364D01*
X383621Y453260D01*
X383686Y453154D01*
X383747Y453046D01*
X383805Y452937D01*
X383860Y452825D01*
X383911Y452712D01*
X383959Y452597D01*
X384002Y452481D01*
X384043Y452364D01*
X384079Y452245D01*
X384112Y452126D01*
X384141Y452005D01*
X384166Y451883D01*
X384187Y451761D01*
X384205Y451638D01*
X384218Y451515D01*
X384228Y451391D01*
X384234Y451267D01*
X384236Y451143D01*
X384234Y451019D01*
X384228Y450895D01*
X384218Y450771D01*
X384205Y450648D01*
X384187Y450525D01*
X384166Y450403D01*
X384141Y450281D01*
X384112Y450160D01*
X384079Y450041D01*
X384043Y449922D01*
X384002Y449805D01*
X383959Y449689D01*
X383911Y449574D01*
X383860Y449461D01*
X383805Y449349D01*
X383747Y449240D01*
X383686Y449132D01*
X383621Y449026D01*
X383553Y448922D01*
X383481Y448821D01*
X383407Y448721D01*
X383329Y448625D01*
X383249Y448530D01*
X383165Y448438D01*
X383079Y448349D01*
X382990Y448263D01*
X382898Y448179D01*
X382803Y448099D01*
X382707Y448021D01*
X382607Y447947D01*
X382506Y447875D01*
X382402Y447807D01*
X382296Y447742D01*
X382188Y447681D01*
X382079Y447623D01*
X381967Y447568D01*
X381854Y447517D01*
X381739Y447469D01*
X381623Y447426D01*
X381506Y447385D01*
X381387Y447349D01*
X381268Y447316D01*
X381147Y447287D01*
X381025Y447262D01*
X380903Y447241D01*
X380780Y447223D01*
X380657Y447210D01*
X380533Y447200D01*
X380409Y447194D01*
X380285Y447192D01*
X473964Y396748D02*
X473964Y378968D01*
X473964Y396748D02*
X478903Y396748D01*
X479043Y396746D01*
X479182Y396740D01*
X479322Y396730D01*
X479461Y396716D01*
X479600Y396699D01*
X479738Y396677D01*
X479875Y396651D01*
X480012Y396622D01*
X480148Y396589D01*
X480282Y396552D01*
X480416Y396511D01*
X480548Y396466D01*
X480680Y396417D01*
X480809Y396365D01*
X480937Y396310D01*
X481064Y396250D01*
X481189Y396187D01*
X481312Y396121D01*
X481433Y396051D01*
X481552Y395978D01*
X481669Y395901D01*
X481783Y395821D01*
X481896Y395738D01*
X482006Y395652D01*
X482113Y395562D01*
X482218Y395470D01*
X482320Y395375D01*
X482420Y395277D01*
X482517Y395176D01*
X482611Y395072D01*
X482701Y394966D01*
X482789Y394857D01*
X482874Y394746D01*
X482955Y394632D01*
X483034Y394517D01*
X483109Y394399D01*
X483180Y394279D01*
X483248Y394156D01*
X483313Y394033D01*
X483374Y393907D01*
X483432Y393779D01*
X483486Y393651D01*
X483536Y393520D01*
X483583Y393388D01*
X483626Y393255D01*
X483665Y393121D01*
X483700Y392986D01*
X483731Y392850D01*
X483759Y392712D01*
X483782Y392575D01*
X483802Y392436D01*
X483818Y392297D01*
X483830Y392158D01*
X483838Y392019D01*
X483842Y391879D01*
X483842Y391739D01*
X483838Y391599D01*
X483830Y391460D01*
X483818Y391321D01*
X483802Y391182D01*
X483782Y391043D01*
X483759Y390906D01*
X483731Y390768D01*
X483700Y390632D01*
X483665Y390497D01*
X483626Y390363D01*
X483583Y390230D01*
X483536Y390098D01*
X483486Y389967D01*
X483432Y389839D01*
X483374Y389711D01*
X483313Y389585D01*
X483248Y389462D01*
X483180Y389340D01*
X483109Y389219D01*
X483034Y389101D01*
X482955Y388986D01*
X482874Y388872D01*
X482789Y388761D01*
X482701Y388652D01*
X482611Y388546D01*
X482517Y388442D01*
X482420Y388341D01*
X482320Y388243D01*
X482218Y388148D01*
X482113Y388056D01*
X482006Y387966D01*
X481896Y387880D01*
X481783Y387797D01*
X481669Y387717D01*
X481552Y387640D01*
X481433Y387567D01*
X481312Y387497D01*
X481189Y387431D01*
X481064Y387368D01*
X480937Y387308D01*
X480809Y387253D01*
X480680Y387201D01*
X480548Y387152D01*
X480416Y387107D01*
X480282Y387066D01*
X480148Y387029D01*
X480012Y386996D01*
X479875Y386967D01*
X479738Y386941D01*
X479600Y386919D01*
X479461Y386902D01*
X479322Y386888D01*
X479182Y386878D01*
X479043Y386872D01*
X478903Y386870D01*
X473964Y386870D01*
X479891Y386870D02*
X483842Y378968D01*
D125*
X326882Y356022D02*
X326884Y356055D01*
X326890Y356087D01*
X326900Y356118D01*
X326913Y356147D01*
X326930Y356175D01*
X326950Y356201D01*
X326973Y356224D01*
X326999Y356244D01*
X327027Y356261D01*
X327056Y356274D01*
X327087Y356284D01*
X327119Y356290D01*
X327152Y356292D01*
X327185Y356290D01*
X327217Y356284D01*
X327248Y356274D01*
X327277Y356261D01*
X327305Y356244D01*
X327331Y356224D01*
X327354Y356201D01*
X327374Y356175D01*
X327391Y356147D01*
X327404Y356118D01*
X327414Y356087D01*
X327420Y356055D01*
X327422Y356022D01*
X327420Y355989D01*
X327414Y355957D01*
X327404Y355926D01*
X327391Y355897D01*
X327374Y355869D01*
X327354Y355843D01*
X327331Y355820D01*
X327305Y355800D01*
X327277Y355783D01*
X327248Y355770D01*
X327217Y355760D01*
X327185Y355754D01*
X327152Y355752D01*
X327119Y355754D01*
X327087Y355760D01*
X327056Y355770D01*
X327027Y355783D01*
X326999Y355800D01*
X326973Y355820D01*
X326950Y355843D01*
X326930Y355869D01*
X326913Y355897D01*
X326900Y355926D01*
X326890Y355957D01*
X326884Y355989D01*
X326882Y356022D01*
D124*
X328283Y364674D02*
X328283Y371461D01*
X328283Y364674D02*
X328285Y364573D01*
X328291Y364472D01*
X328301Y364371D01*
X328314Y364271D01*
X328332Y364171D01*
X328353Y364072D01*
X328379Y363974D01*
X328408Y363877D01*
X328440Y363781D01*
X328477Y363687D01*
X328517Y363594D01*
X328561Y363502D01*
X328608Y363413D01*
X328659Y363325D01*
X328713Y363239D01*
X328770Y363156D01*
X328830Y363074D01*
X328894Y362996D01*
X328960Y362919D01*
X329030Y362846D01*
X329102Y362775D01*
X329177Y362707D01*
X329255Y362642D01*
X329335Y362580D01*
X329417Y362521D01*
X329502Y362465D01*
X329589Y362413D01*
X329677Y362364D01*
X329768Y362318D01*
X329860Y362277D01*
X329954Y362238D01*
X330049Y362204D01*
X330145Y362173D01*
X330243Y362146D01*
X330341Y362122D01*
X330441Y362103D01*
X330541Y362087D01*
X330641Y362075D01*
X330742Y362067D01*
X330843Y362063D01*
X330945Y362063D01*
X331046Y362067D01*
X331147Y362075D01*
X331247Y362087D01*
X331347Y362103D01*
X331447Y362122D01*
X331545Y362146D01*
X331643Y362173D01*
X331739Y362204D01*
X331834Y362238D01*
X331928Y362277D01*
X332020Y362318D01*
X332111Y362364D01*
X332199Y362413D01*
X332286Y362465D01*
X332371Y362521D01*
X332453Y362580D01*
X332533Y362642D01*
X332611Y362707D01*
X332686Y362775D01*
X332758Y362846D01*
X332828Y362919D01*
X332894Y362996D01*
X332958Y363074D01*
X333018Y363156D01*
X333075Y363239D01*
X333129Y363325D01*
X333180Y363413D01*
X333227Y363502D01*
X333271Y363594D01*
X333311Y363687D01*
X333348Y363781D01*
X333380Y363877D01*
X333409Y363974D01*
X333435Y364072D01*
X333456Y364171D01*
X333474Y364271D01*
X333487Y364371D01*
X333497Y364472D01*
X333503Y364573D01*
X333505Y364674D01*
X333504Y364674D02*
X333504Y371461D01*
X340603Y371462D02*
X340698Y371460D01*
X340792Y371454D01*
X340886Y371445D01*
X340980Y371432D01*
X341073Y371415D01*
X341165Y371394D01*
X341257Y371369D01*
X341347Y371341D01*
X341436Y371309D01*
X341524Y371274D01*
X341610Y371235D01*
X341695Y371193D01*
X341778Y371147D01*
X341859Y371098D01*
X341938Y371046D01*
X342015Y370991D01*
X342089Y370932D01*
X342161Y370871D01*
X342231Y370807D01*
X342298Y370740D01*
X342362Y370670D01*
X342423Y370598D01*
X342482Y370524D01*
X342537Y370447D01*
X342589Y370368D01*
X342638Y370287D01*
X342684Y370204D01*
X342726Y370119D01*
X342765Y370033D01*
X342800Y369945D01*
X342832Y369856D01*
X342860Y369766D01*
X342885Y369674D01*
X342906Y369582D01*
X342923Y369489D01*
X342936Y369395D01*
X342945Y369301D01*
X342951Y369207D01*
X342953Y369112D01*
X340603Y371461D02*
X340495Y371459D01*
X340386Y371453D01*
X340278Y371443D01*
X340171Y371430D01*
X340064Y371412D01*
X339957Y371391D01*
X339852Y371366D01*
X339747Y371337D01*
X339644Y371305D01*
X339542Y371268D01*
X339441Y371228D01*
X339342Y371185D01*
X339244Y371138D01*
X339148Y371087D01*
X339054Y371033D01*
X338962Y370976D01*
X338872Y370915D01*
X338784Y370851D01*
X338699Y370785D01*
X338616Y370715D01*
X338536Y370642D01*
X338458Y370566D01*
X338383Y370488D01*
X338311Y370407D01*
X338242Y370323D01*
X338176Y370237D01*
X338113Y370149D01*
X338054Y370058D01*
X337997Y369966D01*
X337944Y369871D01*
X337895Y369775D01*
X337849Y369676D01*
X337806Y369577D01*
X337767Y369475D01*
X337732Y369373D01*
X342170Y367284D02*
X342239Y367353D01*
X342305Y367424D01*
X342369Y367497D01*
X342430Y367573D01*
X342488Y367652D01*
X342542Y367732D01*
X342594Y367815D01*
X342642Y367899D01*
X342688Y367985D01*
X342729Y368073D01*
X342768Y368163D01*
X342803Y368254D01*
X342834Y368346D01*
X342862Y368439D01*
X342886Y368533D01*
X342906Y368628D01*
X342923Y368724D01*
X342936Y368821D01*
X342945Y368918D01*
X342951Y369015D01*
X342953Y369112D01*
X342170Y367284D02*
X337732Y362063D01*
X342953Y362063D01*
D125*
X258021Y279021D02*
X258023Y279084D01*
X258029Y279146D01*
X258039Y279208D01*
X258052Y279270D01*
X258070Y279330D01*
X258091Y279389D01*
X258116Y279447D01*
X258145Y279503D01*
X258177Y279557D01*
X258212Y279609D01*
X258250Y279658D01*
X258292Y279706D01*
X258336Y279750D01*
X258384Y279792D01*
X258433Y279830D01*
X258485Y279865D01*
X258539Y279897D01*
X258595Y279926D01*
X258653Y279951D01*
X258712Y279972D01*
X258772Y279990D01*
X258834Y280003D01*
X258896Y280013D01*
X258958Y280019D01*
X259021Y280021D01*
X259084Y280019D01*
X259146Y280013D01*
X259208Y280003D01*
X259270Y279990D01*
X259330Y279972D01*
X259389Y279951D01*
X259447Y279926D01*
X259503Y279897D01*
X259557Y279865D01*
X259609Y279830D01*
X259658Y279792D01*
X259706Y279750D01*
X259750Y279706D01*
X259792Y279658D01*
X259830Y279609D01*
X259865Y279557D01*
X259897Y279503D01*
X259926Y279447D01*
X259951Y279389D01*
X259972Y279330D01*
X259990Y279270D01*
X260003Y279208D01*
X260013Y279146D01*
X260019Y279084D01*
X260021Y279021D01*
X260019Y278958D01*
X260013Y278896D01*
X260003Y278834D01*
X259990Y278772D01*
X259972Y278712D01*
X259951Y278653D01*
X259926Y278595D01*
X259897Y278539D01*
X259865Y278485D01*
X259830Y278433D01*
X259792Y278384D01*
X259750Y278336D01*
X259706Y278292D01*
X259658Y278250D01*
X259609Y278212D01*
X259557Y278177D01*
X259503Y278145D01*
X259447Y278116D01*
X259389Y278091D01*
X259330Y278070D01*
X259270Y278052D01*
X259208Y278039D01*
X259146Y278029D01*
X259084Y278023D01*
X259021Y278021D01*
X258958Y278023D01*
X258896Y278029D01*
X258834Y278039D01*
X258772Y278052D01*
X258712Y278070D01*
X258653Y278091D01*
X258595Y278116D01*
X258539Y278145D01*
X258485Y278177D01*
X258433Y278212D01*
X258384Y278250D01*
X258336Y278292D01*
X258292Y278336D01*
X258250Y278384D01*
X258212Y278433D01*
X258177Y278485D01*
X258145Y278539D01*
X258116Y278595D01*
X258091Y278653D01*
X258070Y278712D01*
X258052Y278772D01*
X258039Y278834D01*
X258029Y278896D01*
X258023Y278958D01*
X258021Y279021D01*
D124*
X252172Y259837D02*
X245385Y259837D01*
X252172Y259837D02*
X252273Y259839D01*
X252374Y259845D01*
X252475Y259855D01*
X252575Y259868D01*
X252675Y259886D01*
X252774Y259907D01*
X252872Y259933D01*
X252969Y259962D01*
X253065Y259994D01*
X253159Y260031D01*
X253252Y260071D01*
X253344Y260115D01*
X253433Y260162D01*
X253521Y260213D01*
X253607Y260267D01*
X253690Y260324D01*
X253772Y260384D01*
X253850Y260448D01*
X253927Y260514D01*
X254000Y260584D01*
X254071Y260656D01*
X254139Y260731D01*
X254204Y260809D01*
X254266Y260889D01*
X254325Y260971D01*
X254381Y261056D01*
X254433Y261142D01*
X254482Y261231D01*
X254528Y261322D01*
X254569Y261414D01*
X254608Y261508D01*
X254642Y261603D01*
X254673Y261699D01*
X254700Y261797D01*
X254724Y261895D01*
X254743Y261995D01*
X254759Y262095D01*
X254771Y262195D01*
X254779Y262296D01*
X254783Y262397D01*
X254783Y262499D01*
X254779Y262600D01*
X254771Y262701D01*
X254759Y262801D01*
X254743Y262901D01*
X254724Y263001D01*
X254700Y263099D01*
X254673Y263197D01*
X254642Y263293D01*
X254608Y263388D01*
X254569Y263482D01*
X254528Y263574D01*
X254482Y263665D01*
X254433Y263753D01*
X254381Y263840D01*
X254325Y263925D01*
X254266Y264007D01*
X254204Y264087D01*
X254139Y264165D01*
X254071Y264240D01*
X254000Y264312D01*
X253927Y264382D01*
X253850Y264448D01*
X253772Y264512D01*
X253690Y264572D01*
X253607Y264629D01*
X253521Y264683D01*
X253433Y264734D01*
X253344Y264781D01*
X253252Y264825D01*
X253159Y264865D01*
X253065Y264902D01*
X252969Y264934D01*
X252872Y264963D01*
X252774Y264989D01*
X252675Y265010D01*
X252575Y265028D01*
X252475Y265041D01*
X252374Y265051D01*
X252273Y265057D01*
X252172Y265059D01*
X245385Y265059D01*
X254783Y269286D02*
X254783Y271897D01*
X254781Y271998D01*
X254775Y272099D01*
X254765Y272200D01*
X254752Y272300D01*
X254734Y272400D01*
X254713Y272499D01*
X254687Y272597D01*
X254658Y272694D01*
X254626Y272790D01*
X254589Y272884D01*
X254549Y272977D01*
X254505Y273069D01*
X254458Y273158D01*
X254407Y273246D01*
X254353Y273332D01*
X254296Y273415D01*
X254236Y273497D01*
X254172Y273575D01*
X254106Y273652D01*
X254036Y273725D01*
X253964Y273796D01*
X253889Y273864D01*
X253811Y273929D01*
X253731Y273991D01*
X253649Y274050D01*
X253564Y274106D01*
X253478Y274158D01*
X253389Y274207D01*
X253298Y274253D01*
X253206Y274294D01*
X253112Y274333D01*
X253017Y274367D01*
X252921Y274398D01*
X252823Y274425D01*
X252725Y274449D01*
X252625Y274468D01*
X252525Y274484D01*
X252425Y274496D01*
X252324Y274504D01*
X252223Y274508D01*
X252121Y274508D01*
X252020Y274504D01*
X251919Y274496D01*
X251819Y274484D01*
X251719Y274468D01*
X251619Y274449D01*
X251521Y274425D01*
X251423Y274398D01*
X251327Y274367D01*
X251232Y274333D01*
X251138Y274294D01*
X251046Y274253D01*
X250955Y274207D01*
X250867Y274158D01*
X250780Y274106D01*
X250695Y274050D01*
X250613Y273991D01*
X250533Y273929D01*
X250455Y273864D01*
X250380Y273796D01*
X250308Y273725D01*
X250238Y273652D01*
X250172Y273575D01*
X250108Y273497D01*
X250048Y273415D01*
X249991Y273332D01*
X249937Y273246D01*
X249886Y273158D01*
X249839Y273069D01*
X249795Y272977D01*
X249755Y272884D01*
X249718Y272790D01*
X249686Y272694D01*
X249657Y272597D01*
X249631Y272499D01*
X249610Y272400D01*
X249592Y272300D01*
X249579Y272200D01*
X249569Y272099D01*
X249563Y271998D01*
X249561Y271897D01*
X245385Y272419D02*
X245385Y269286D01*
X245385Y272419D02*
X245387Y272509D01*
X245393Y272598D01*
X245402Y272688D01*
X245416Y272777D01*
X245433Y272865D01*
X245454Y272952D01*
X245479Y273039D01*
X245508Y273124D01*
X245540Y273208D01*
X245575Y273290D01*
X245615Y273371D01*
X245657Y273450D01*
X245703Y273527D01*
X245753Y273602D01*
X245805Y273675D01*
X245861Y273746D01*
X245919Y273814D01*
X245981Y273879D01*
X246045Y273942D01*
X246112Y274002D01*
X246181Y274059D01*
X246253Y274113D01*
X246327Y274164D01*
X246403Y274212D01*
X246481Y274256D01*
X246561Y274297D01*
X246643Y274335D01*
X246726Y274369D01*
X246811Y274399D01*
X246897Y274426D01*
X246983Y274449D01*
X247071Y274468D01*
X247160Y274483D01*
X247249Y274495D01*
X247338Y274503D01*
X247428Y274507D01*
X247518Y274507D01*
X247608Y274503D01*
X247697Y274495D01*
X247786Y274483D01*
X247875Y274468D01*
X247963Y274449D01*
X248049Y274426D01*
X248135Y274399D01*
X248220Y274369D01*
X248303Y274335D01*
X248385Y274297D01*
X248465Y274256D01*
X248543Y274212D01*
X248619Y274164D01*
X248693Y274113D01*
X248765Y274059D01*
X248834Y274002D01*
X248901Y273942D01*
X248965Y273879D01*
X249027Y273814D01*
X249085Y273746D01*
X249141Y273675D01*
X249193Y273602D01*
X249243Y273527D01*
X249289Y273450D01*
X249331Y273371D01*
X249371Y273290D01*
X249406Y273208D01*
X249438Y273124D01*
X249467Y273039D01*
X249492Y272952D01*
X249513Y272865D01*
X249530Y272777D01*
X249544Y272688D01*
X249553Y272598D01*
X249559Y272509D01*
X249561Y272419D01*
X249562Y272419D02*
X249562Y270330D01*
X294975Y350360D02*
X304373Y350360D01*
X294975Y350360D02*
X294975Y352971D01*
X294977Y353072D01*
X294983Y353173D01*
X294993Y353274D01*
X295006Y353374D01*
X295024Y353474D01*
X295045Y353573D01*
X295071Y353671D01*
X295100Y353768D01*
X295132Y353864D01*
X295169Y353958D01*
X295209Y354051D01*
X295253Y354143D01*
X295300Y354232D01*
X295351Y354320D01*
X295405Y354406D01*
X295462Y354489D01*
X295522Y354571D01*
X295586Y354649D01*
X295652Y354726D01*
X295722Y354799D01*
X295794Y354870D01*
X295869Y354938D01*
X295947Y355003D01*
X296027Y355065D01*
X296109Y355124D01*
X296194Y355180D01*
X296281Y355232D01*
X296369Y355281D01*
X296460Y355327D01*
X296552Y355368D01*
X296646Y355407D01*
X296741Y355441D01*
X296837Y355472D01*
X296935Y355499D01*
X297033Y355523D01*
X297133Y355542D01*
X297233Y355558D01*
X297333Y355570D01*
X297434Y355578D01*
X297535Y355582D01*
X297637Y355582D01*
X297738Y355578D01*
X297839Y355570D01*
X297939Y355558D01*
X298039Y355542D01*
X298139Y355523D01*
X298237Y355499D01*
X298335Y355472D01*
X298431Y355441D01*
X298526Y355407D01*
X298620Y355368D01*
X298712Y355327D01*
X298803Y355281D01*
X298892Y355232D01*
X298978Y355180D01*
X299063Y355124D01*
X299145Y355065D01*
X299225Y355003D01*
X299303Y354938D01*
X299378Y354870D01*
X299450Y354799D01*
X299520Y354726D01*
X299586Y354649D01*
X299650Y354571D01*
X299710Y354489D01*
X299767Y354406D01*
X299821Y354320D01*
X299872Y354232D01*
X299919Y354143D01*
X299963Y354051D01*
X300003Y353958D01*
X300040Y353864D01*
X300072Y353768D01*
X300101Y353671D01*
X300127Y353573D01*
X300148Y353474D01*
X300166Y353374D01*
X300179Y353274D01*
X300189Y353173D01*
X300195Y353072D01*
X300197Y352971D01*
X300196Y352971D02*
X300196Y350360D01*
X300196Y353493D02*
X304373Y355581D01*
X302285Y359447D02*
X294975Y361535D01*
X302285Y359447D02*
X302285Y364668D01*
X300196Y363102D02*
X304373Y363102D01*
X320210Y379989D02*
X329608Y379989D01*
X320210Y379989D02*
X320210Y382600D01*
X320212Y382701D01*
X320218Y382802D01*
X320228Y382903D01*
X320241Y383003D01*
X320259Y383103D01*
X320280Y383202D01*
X320306Y383300D01*
X320335Y383397D01*
X320367Y383493D01*
X320404Y383587D01*
X320444Y383680D01*
X320488Y383772D01*
X320535Y383861D01*
X320586Y383949D01*
X320640Y384035D01*
X320697Y384118D01*
X320757Y384200D01*
X320821Y384278D01*
X320887Y384355D01*
X320957Y384428D01*
X321029Y384499D01*
X321104Y384567D01*
X321182Y384632D01*
X321262Y384694D01*
X321344Y384753D01*
X321429Y384809D01*
X321516Y384861D01*
X321604Y384910D01*
X321695Y384956D01*
X321787Y384997D01*
X321881Y385036D01*
X321976Y385070D01*
X322072Y385101D01*
X322170Y385128D01*
X322268Y385152D01*
X322368Y385171D01*
X322468Y385187D01*
X322568Y385199D01*
X322669Y385207D01*
X322770Y385211D01*
X322872Y385211D01*
X322973Y385207D01*
X323074Y385199D01*
X323174Y385187D01*
X323274Y385171D01*
X323374Y385152D01*
X323472Y385128D01*
X323570Y385101D01*
X323666Y385070D01*
X323761Y385036D01*
X323855Y384997D01*
X323947Y384956D01*
X324038Y384910D01*
X324127Y384861D01*
X324213Y384809D01*
X324298Y384753D01*
X324380Y384694D01*
X324460Y384632D01*
X324538Y384567D01*
X324613Y384499D01*
X324685Y384428D01*
X324755Y384355D01*
X324821Y384278D01*
X324885Y384200D01*
X324945Y384118D01*
X325002Y384035D01*
X325056Y383949D01*
X325107Y383861D01*
X325154Y383772D01*
X325198Y383680D01*
X325238Y383587D01*
X325275Y383493D01*
X325307Y383397D01*
X325336Y383300D01*
X325362Y383202D01*
X325383Y383103D01*
X325401Y383003D01*
X325414Y382903D01*
X325424Y382802D01*
X325430Y382701D01*
X325432Y382600D01*
X325431Y382600D02*
X325431Y379989D01*
X325431Y383122D02*
X329608Y385210D01*
X329608Y389076D02*
X329608Y392209D01*
X329606Y392298D01*
X329600Y392386D01*
X329591Y392474D01*
X329578Y392562D01*
X329561Y392649D01*
X329541Y392735D01*
X329516Y392820D01*
X329489Y392905D01*
X329457Y392988D01*
X329423Y393069D01*
X329384Y393149D01*
X329343Y393227D01*
X329298Y393304D01*
X329250Y393378D01*
X329199Y393451D01*
X329145Y393521D01*
X329087Y393588D01*
X329027Y393654D01*
X328965Y393716D01*
X328899Y393776D01*
X328832Y393834D01*
X328762Y393888D01*
X328689Y393939D01*
X328615Y393987D01*
X328538Y394032D01*
X328460Y394073D01*
X328380Y394112D01*
X328299Y394146D01*
X328216Y394178D01*
X328131Y394205D01*
X328046Y394230D01*
X327960Y394250D01*
X327873Y394267D01*
X327785Y394280D01*
X327697Y394289D01*
X327609Y394295D01*
X327520Y394297D01*
X326476Y394297D01*
X326387Y394295D01*
X326299Y394289D01*
X326211Y394280D01*
X326123Y394267D01*
X326036Y394250D01*
X325950Y394230D01*
X325865Y394205D01*
X325780Y394178D01*
X325697Y394146D01*
X325616Y394112D01*
X325536Y394073D01*
X325458Y394032D01*
X325381Y393987D01*
X325307Y393939D01*
X325234Y393888D01*
X325164Y393834D01*
X325097Y393776D01*
X325031Y393716D01*
X324969Y393654D01*
X324909Y393588D01*
X324851Y393521D01*
X324797Y393451D01*
X324746Y393378D01*
X324698Y393304D01*
X324653Y393227D01*
X324612Y393149D01*
X324573Y393069D01*
X324539Y392988D01*
X324507Y392905D01*
X324480Y392820D01*
X324455Y392735D01*
X324435Y392649D01*
X324418Y392562D01*
X324405Y392474D01*
X324396Y392386D01*
X324390Y392298D01*
X324388Y392209D01*
X324387Y392209D02*
X324387Y389076D01*
X320210Y389076D01*
X320210Y394297D01*
X333985Y278129D02*
X333985Y276040D01*
X333984Y276040D02*
X333982Y275951D01*
X333976Y275863D01*
X333967Y275775D01*
X333954Y275687D01*
X333937Y275600D01*
X333917Y275514D01*
X333892Y275429D01*
X333865Y275344D01*
X333833Y275261D01*
X333799Y275180D01*
X333760Y275100D01*
X333719Y275022D01*
X333674Y274945D01*
X333626Y274871D01*
X333575Y274798D01*
X333521Y274728D01*
X333463Y274661D01*
X333403Y274595D01*
X333341Y274533D01*
X333275Y274473D01*
X333208Y274415D01*
X333138Y274361D01*
X333065Y274310D01*
X332991Y274262D01*
X332914Y274217D01*
X332836Y274176D01*
X332756Y274137D01*
X332675Y274103D01*
X332592Y274071D01*
X332507Y274044D01*
X332422Y274019D01*
X332336Y273999D01*
X332249Y273982D01*
X332161Y273969D01*
X332073Y273960D01*
X331985Y273954D01*
X331896Y273952D01*
X326675Y273952D01*
X326675Y273951D02*
X326584Y273953D01*
X326493Y273959D01*
X326402Y273969D01*
X326312Y273983D01*
X326223Y274001D01*
X326134Y274022D01*
X326047Y274048D01*
X325961Y274077D01*
X325876Y274110D01*
X325792Y274147D01*
X325710Y274187D01*
X325631Y274231D01*
X325553Y274278D01*
X325477Y274329D01*
X325403Y274383D01*
X325332Y274440D01*
X325264Y274500D01*
X325198Y274563D01*
X325135Y274629D01*
X325075Y274697D01*
X325018Y274768D01*
X324964Y274842D01*
X324913Y274918D01*
X324866Y274995D01*
X324822Y275075D01*
X324782Y275157D01*
X324745Y275241D01*
X324712Y275325D01*
X324683Y275412D01*
X324657Y275499D01*
X324636Y275588D01*
X324618Y275677D01*
X324604Y275767D01*
X324594Y275858D01*
X324588Y275949D01*
X324586Y276040D01*
X324587Y276040D02*
X324587Y278129D01*
X326675Y281597D02*
X324587Y284208D01*
X333985Y284208D01*
X333985Y286818D02*
X333985Y281597D01*
X329286Y290741D02*
X329101Y290743D01*
X328916Y290750D01*
X328732Y290761D01*
X328548Y290776D01*
X328364Y290796D01*
X328180Y290820D01*
X327998Y290849D01*
X327816Y290882D01*
X327635Y290919D01*
X327455Y290961D01*
X327275Y291007D01*
X327097Y291057D01*
X326921Y291111D01*
X326745Y291170D01*
X326571Y291232D01*
X326399Y291299D01*
X326228Y291370D01*
X326059Y291445D01*
X325892Y291524D01*
X325891Y291524D02*
X325811Y291554D01*
X325732Y291587D01*
X325655Y291624D01*
X325579Y291664D01*
X325505Y291707D01*
X325433Y291753D01*
X325364Y291803D01*
X325296Y291855D01*
X325231Y291911D01*
X325168Y291969D01*
X325109Y292031D01*
X325051Y292094D01*
X324997Y292161D01*
X324946Y292229D01*
X324898Y292300D01*
X324853Y292373D01*
X324811Y292447D01*
X324773Y292524D01*
X324738Y292602D01*
X324706Y292681D01*
X324678Y292762D01*
X324654Y292844D01*
X324633Y292928D01*
X324616Y293011D01*
X324603Y293096D01*
X324594Y293181D01*
X324588Y293266D01*
X324586Y293352D01*
X324588Y293438D01*
X324594Y293523D01*
X324603Y293608D01*
X324616Y293693D01*
X324633Y293776D01*
X324654Y293860D01*
X324678Y293942D01*
X324706Y294023D01*
X324738Y294102D01*
X324773Y294180D01*
X324811Y294257D01*
X324853Y294331D01*
X324898Y294404D01*
X324946Y294475D01*
X324997Y294543D01*
X325051Y294610D01*
X325109Y294673D01*
X325168Y294735D01*
X325231Y294793D01*
X325296Y294849D01*
X325364Y294901D01*
X325433Y294951D01*
X325505Y294997D01*
X325579Y295040D01*
X325655Y295080D01*
X325732Y295117D01*
X325811Y295150D01*
X325891Y295180D01*
X325892Y295180D02*
X326059Y295259D01*
X326228Y295334D01*
X326399Y295405D01*
X326571Y295472D01*
X326745Y295534D01*
X326921Y295593D01*
X327097Y295647D01*
X327275Y295697D01*
X327455Y295743D01*
X327635Y295785D01*
X327816Y295822D01*
X327998Y295855D01*
X328180Y295884D01*
X328364Y295908D01*
X328548Y295928D01*
X328732Y295943D01*
X328916Y295954D01*
X329101Y295961D01*
X329286Y295963D01*
X329286Y290741D02*
X329471Y290743D01*
X329656Y290750D01*
X329840Y290761D01*
X330024Y290776D01*
X330208Y290796D01*
X330392Y290820D01*
X330574Y290849D01*
X330756Y290882D01*
X330937Y290919D01*
X331117Y290961D01*
X331297Y291007D01*
X331475Y291057D01*
X331651Y291111D01*
X331827Y291170D01*
X332001Y291232D01*
X332173Y291299D01*
X332344Y291370D01*
X332513Y291445D01*
X332680Y291524D01*
X332760Y291554D01*
X332839Y291587D01*
X332916Y291624D01*
X332992Y291664D01*
X333066Y291707D01*
X333138Y291753D01*
X333207Y291803D01*
X333275Y291856D01*
X333340Y291911D01*
X333403Y291970D01*
X333462Y292031D01*
X333520Y292094D01*
X333574Y292161D01*
X333625Y292229D01*
X333673Y292300D01*
X333718Y292373D01*
X333760Y292447D01*
X333798Y292524D01*
X333833Y292602D01*
X333865Y292681D01*
X333893Y292762D01*
X333917Y292844D01*
X333938Y292928D01*
X333955Y293011D01*
X333968Y293096D01*
X333977Y293181D01*
X333983Y293266D01*
X333985Y293352D01*
X332680Y295180D02*
X332513Y295259D01*
X332344Y295334D01*
X332173Y295405D01*
X332001Y295472D01*
X331827Y295534D01*
X331651Y295593D01*
X331475Y295647D01*
X331297Y295697D01*
X331117Y295743D01*
X330937Y295785D01*
X330756Y295822D01*
X330574Y295855D01*
X330392Y295884D01*
X330208Y295908D01*
X330024Y295928D01*
X329840Y295943D01*
X329656Y295954D01*
X329471Y295961D01*
X329286Y295963D01*
X332680Y295180D02*
X332760Y295150D01*
X332839Y295117D01*
X332916Y295080D01*
X332992Y295040D01*
X333066Y294997D01*
X333138Y294951D01*
X333207Y294901D01*
X333275Y294849D01*
X333340Y294793D01*
X333403Y294735D01*
X333462Y294673D01*
X333520Y294610D01*
X333574Y294543D01*
X333625Y294475D01*
X333673Y294404D01*
X333718Y294331D01*
X333760Y294257D01*
X333798Y294180D01*
X333833Y294102D01*
X333865Y294023D01*
X333893Y293942D01*
X333917Y293860D01*
X333938Y293776D01*
X333955Y293693D01*
X333968Y293608D01*
X333977Y293523D01*
X333983Y293438D01*
X333985Y293352D01*
X331896Y291263D02*
X326675Y295440D01*
X352679Y278370D02*
X352679Y276281D01*
X352677Y276192D01*
X352671Y276104D01*
X352662Y276016D01*
X352649Y275928D01*
X352632Y275841D01*
X352612Y275755D01*
X352587Y275670D01*
X352560Y275585D01*
X352528Y275502D01*
X352494Y275421D01*
X352455Y275341D01*
X352414Y275263D01*
X352369Y275186D01*
X352321Y275112D01*
X352270Y275039D01*
X352216Y274969D01*
X352158Y274902D01*
X352098Y274836D01*
X352036Y274774D01*
X351970Y274714D01*
X351903Y274656D01*
X351833Y274602D01*
X351760Y274551D01*
X351686Y274503D01*
X351609Y274458D01*
X351531Y274417D01*
X351451Y274378D01*
X351370Y274344D01*
X351287Y274312D01*
X351202Y274285D01*
X351117Y274260D01*
X351031Y274240D01*
X350944Y274223D01*
X350856Y274210D01*
X350768Y274201D01*
X350680Y274195D01*
X350591Y274193D01*
X345369Y274193D01*
X345278Y274195D01*
X345187Y274201D01*
X345096Y274211D01*
X345006Y274225D01*
X344917Y274243D01*
X344828Y274264D01*
X344741Y274290D01*
X344655Y274319D01*
X344570Y274352D01*
X344486Y274389D01*
X344404Y274429D01*
X344325Y274473D01*
X344247Y274520D01*
X344171Y274571D01*
X344097Y274625D01*
X344026Y274682D01*
X343958Y274742D01*
X343892Y274805D01*
X343829Y274871D01*
X343769Y274939D01*
X343712Y275010D01*
X343658Y275084D01*
X343607Y275160D01*
X343560Y275237D01*
X343516Y275317D01*
X343476Y275399D01*
X343439Y275483D01*
X343406Y275567D01*
X343377Y275654D01*
X343351Y275741D01*
X343330Y275830D01*
X343312Y275919D01*
X343298Y276009D01*
X343288Y276100D01*
X343282Y276191D01*
X343280Y276282D01*
X343281Y276281D02*
X343281Y278370D01*
X345369Y281839D02*
X343281Y284449D01*
X352679Y284449D01*
X352679Y281839D02*
X352679Y287060D01*
X345369Y290983D02*
X343281Y293593D01*
X352679Y293593D01*
X352679Y290983D02*
X352679Y296204D01*
X318186Y236903D02*
X318186Y234814D01*
X318185Y234814D02*
X318183Y234725D01*
X318177Y234637D01*
X318168Y234549D01*
X318155Y234461D01*
X318138Y234374D01*
X318118Y234288D01*
X318093Y234203D01*
X318066Y234118D01*
X318034Y234035D01*
X318000Y233954D01*
X317961Y233874D01*
X317920Y233796D01*
X317875Y233719D01*
X317827Y233645D01*
X317776Y233572D01*
X317722Y233502D01*
X317664Y233435D01*
X317604Y233369D01*
X317542Y233307D01*
X317476Y233247D01*
X317409Y233189D01*
X317339Y233135D01*
X317266Y233084D01*
X317192Y233036D01*
X317115Y232991D01*
X317037Y232950D01*
X316957Y232911D01*
X316876Y232877D01*
X316793Y232845D01*
X316708Y232818D01*
X316623Y232793D01*
X316537Y232773D01*
X316450Y232756D01*
X316362Y232743D01*
X316274Y232734D01*
X316186Y232728D01*
X316097Y232726D01*
X310876Y232726D01*
X310876Y232725D02*
X310785Y232727D01*
X310694Y232733D01*
X310603Y232743D01*
X310513Y232757D01*
X310424Y232775D01*
X310335Y232796D01*
X310248Y232822D01*
X310162Y232851D01*
X310077Y232884D01*
X309993Y232921D01*
X309911Y232961D01*
X309832Y233005D01*
X309754Y233052D01*
X309678Y233103D01*
X309604Y233157D01*
X309533Y233214D01*
X309465Y233274D01*
X309399Y233337D01*
X309336Y233403D01*
X309276Y233471D01*
X309219Y233542D01*
X309165Y233616D01*
X309114Y233692D01*
X309067Y233769D01*
X309023Y233849D01*
X308983Y233931D01*
X308946Y234015D01*
X308913Y234099D01*
X308884Y234186D01*
X308858Y234273D01*
X308837Y234362D01*
X308819Y234451D01*
X308805Y234541D01*
X308795Y234632D01*
X308789Y234723D01*
X308787Y234814D01*
X308788Y234814D02*
X308788Y236903D01*
X310876Y240372D02*
X308788Y242982D01*
X318186Y242982D01*
X318186Y240372D02*
X318186Y245593D01*
X311137Y254737D02*
X311042Y254735D01*
X310948Y254729D01*
X310854Y254720D01*
X310760Y254707D01*
X310667Y254690D01*
X310575Y254669D01*
X310483Y254644D01*
X310393Y254616D01*
X310304Y254584D01*
X310216Y254549D01*
X310130Y254510D01*
X310045Y254468D01*
X309962Y254422D01*
X309881Y254373D01*
X309802Y254321D01*
X309725Y254266D01*
X309651Y254207D01*
X309579Y254146D01*
X309509Y254082D01*
X309442Y254015D01*
X309378Y253945D01*
X309317Y253873D01*
X309258Y253799D01*
X309203Y253722D01*
X309151Y253643D01*
X309102Y253562D01*
X309056Y253479D01*
X309014Y253394D01*
X308975Y253308D01*
X308940Y253220D01*
X308908Y253131D01*
X308880Y253041D01*
X308855Y252949D01*
X308834Y252857D01*
X308817Y252764D01*
X308804Y252670D01*
X308795Y252576D01*
X308789Y252482D01*
X308787Y252387D01*
X308788Y252387D02*
X308790Y252279D01*
X308796Y252170D01*
X308806Y252062D01*
X308819Y251955D01*
X308837Y251848D01*
X308858Y251741D01*
X308883Y251636D01*
X308912Y251531D01*
X308944Y251428D01*
X308981Y251326D01*
X309021Y251225D01*
X309064Y251126D01*
X309111Y251028D01*
X309162Y250932D01*
X309216Y250838D01*
X309273Y250746D01*
X309334Y250656D01*
X309398Y250568D01*
X309464Y250483D01*
X309534Y250400D01*
X309607Y250320D01*
X309683Y250242D01*
X309761Y250167D01*
X309842Y250095D01*
X309926Y250026D01*
X310012Y249960D01*
X310100Y249897D01*
X310191Y249838D01*
X310283Y249781D01*
X310378Y249728D01*
X310475Y249679D01*
X310573Y249633D01*
X310672Y249590D01*
X310774Y249551D01*
X310876Y249516D01*
X312965Y253954D02*
X312896Y254023D01*
X312825Y254089D01*
X312752Y254153D01*
X312676Y254214D01*
X312597Y254272D01*
X312517Y254326D01*
X312434Y254378D01*
X312350Y254426D01*
X312264Y254472D01*
X312176Y254513D01*
X312086Y254552D01*
X311995Y254587D01*
X311903Y254618D01*
X311810Y254646D01*
X311716Y254670D01*
X311621Y254690D01*
X311525Y254707D01*
X311428Y254720D01*
X311331Y254729D01*
X311234Y254735D01*
X311137Y254737D01*
X312965Y253953D02*
X318186Y249515D01*
X318186Y254737D01*
X302247Y236268D02*
X302247Y234179D01*
X302245Y234090D01*
X302239Y234002D01*
X302230Y233914D01*
X302217Y233826D01*
X302200Y233739D01*
X302180Y233653D01*
X302155Y233568D01*
X302128Y233483D01*
X302096Y233400D01*
X302062Y233319D01*
X302023Y233239D01*
X301982Y233161D01*
X301937Y233084D01*
X301889Y233010D01*
X301838Y232937D01*
X301784Y232867D01*
X301726Y232800D01*
X301666Y232734D01*
X301604Y232672D01*
X301538Y232612D01*
X301471Y232554D01*
X301401Y232500D01*
X301328Y232449D01*
X301254Y232401D01*
X301177Y232356D01*
X301099Y232315D01*
X301019Y232276D01*
X300938Y232242D01*
X300855Y232210D01*
X300770Y232183D01*
X300685Y232158D01*
X300599Y232138D01*
X300512Y232121D01*
X300424Y232108D01*
X300336Y232099D01*
X300248Y232093D01*
X300159Y232091D01*
X294938Y232091D01*
X294938Y232090D02*
X294847Y232092D01*
X294756Y232098D01*
X294665Y232108D01*
X294575Y232122D01*
X294486Y232140D01*
X294397Y232161D01*
X294310Y232187D01*
X294224Y232216D01*
X294139Y232249D01*
X294055Y232286D01*
X293973Y232326D01*
X293894Y232370D01*
X293816Y232417D01*
X293740Y232468D01*
X293666Y232522D01*
X293595Y232579D01*
X293527Y232639D01*
X293461Y232702D01*
X293398Y232768D01*
X293338Y232836D01*
X293281Y232907D01*
X293227Y232981D01*
X293176Y233057D01*
X293129Y233134D01*
X293085Y233214D01*
X293045Y233296D01*
X293008Y233380D01*
X292975Y233464D01*
X292946Y233551D01*
X292920Y233638D01*
X292899Y233727D01*
X292881Y233816D01*
X292867Y233906D01*
X292857Y233997D01*
X292851Y234088D01*
X292849Y234179D01*
X292849Y236268D01*
X294938Y239737D02*
X292849Y242347D01*
X302247Y242347D01*
X302247Y239737D02*
X302247Y244958D01*
X302247Y248881D02*
X302247Y251491D01*
X302248Y251491D02*
X302246Y251592D01*
X302240Y251693D01*
X302230Y251794D01*
X302217Y251894D01*
X302199Y251994D01*
X302178Y252093D01*
X302152Y252191D01*
X302123Y252288D01*
X302091Y252384D01*
X302054Y252478D01*
X302014Y252571D01*
X301970Y252663D01*
X301923Y252752D01*
X301872Y252840D01*
X301818Y252926D01*
X301761Y253009D01*
X301701Y253091D01*
X301637Y253169D01*
X301571Y253246D01*
X301501Y253319D01*
X301429Y253390D01*
X301354Y253458D01*
X301276Y253523D01*
X301196Y253585D01*
X301114Y253644D01*
X301029Y253700D01*
X300943Y253752D01*
X300854Y253801D01*
X300763Y253847D01*
X300671Y253888D01*
X300577Y253927D01*
X300482Y253961D01*
X300386Y253992D01*
X300288Y254019D01*
X300190Y254043D01*
X300090Y254062D01*
X299990Y254078D01*
X299890Y254090D01*
X299789Y254098D01*
X299688Y254102D01*
X299586Y254102D01*
X299485Y254098D01*
X299384Y254090D01*
X299284Y254078D01*
X299184Y254062D01*
X299084Y254043D01*
X298986Y254019D01*
X298888Y253992D01*
X298792Y253961D01*
X298697Y253927D01*
X298603Y253888D01*
X298511Y253847D01*
X298420Y253801D01*
X298332Y253752D01*
X298245Y253700D01*
X298160Y253644D01*
X298078Y253585D01*
X297998Y253523D01*
X297920Y253458D01*
X297845Y253390D01*
X297773Y253319D01*
X297703Y253246D01*
X297637Y253169D01*
X297573Y253091D01*
X297513Y253009D01*
X297456Y252926D01*
X297402Y252840D01*
X297351Y252752D01*
X297304Y252663D01*
X297260Y252571D01*
X297220Y252478D01*
X297183Y252384D01*
X297151Y252288D01*
X297122Y252191D01*
X297096Y252093D01*
X297075Y251994D01*
X297057Y251894D01*
X297044Y251794D01*
X297034Y251693D01*
X297028Y251592D01*
X297026Y251491D01*
X292849Y252013D02*
X292849Y248881D01*
X292850Y252013D02*
X292852Y252103D01*
X292858Y252192D01*
X292867Y252282D01*
X292881Y252371D01*
X292898Y252459D01*
X292919Y252546D01*
X292944Y252633D01*
X292973Y252718D01*
X293005Y252802D01*
X293040Y252884D01*
X293080Y252965D01*
X293122Y253044D01*
X293168Y253121D01*
X293218Y253196D01*
X293270Y253269D01*
X293326Y253340D01*
X293384Y253408D01*
X293446Y253473D01*
X293510Y253536D01*
X293577Y253596D01*
X293646Y253653D01*
X293718Y253707D01*
X293792Y253758D01*
X293868Y253806D01*
X293946Y253850D01*
X294026Y253891D01*
X294108Y253929D01*
X294191Y253963D01*
X294276Y253993D01*
X294362Y254020D01*
X294448Y254043D01*
X294536Y254062D01*
X294625Y254077D01*
X294714Y254089D01*
X294803Y254097D01*
X294893Y254101D01*
X294983Y254101D01*
X295073Y254097D01*
X295162Y254089D01*
X295251Y254077D01*
X295340Y254062D01*
X295428Y254043D01*
X295514Y254020D01*
X295600Y253993D01*
X295685Y253963D01*
X295768Y253929D01*
X295850Y253891D01*
X295930Y253850D01*
X296008Y253806D01*
X296084Y253758D01*
X296158Y253707D01*
X296230Y253653D01*
X296299Y253596D01*
X296366Y253536D01*
X296430Y253473D01*
X296492Y253408D01*
X296550Y253340D01*
X296606Y253269D01*
X296658Y253196D01*
X296708Y253121D01*
X296754Y253044D01*
X296796Y252965D01*
X296836Y252884D01*
X296871Y252802D01*
X296903Y252718D01*
X296932Y252633D01*
X296957Y252546D01*
X296978Y252459D01*
X296995Y252371D01*
X297009Y252282D01*
X297018Y252192D01*
X297024Y252103D01*
X297026Y252013D01*
X297026Y249925D01*
X328402Y243624D02*
X330491Y243624D01*
X328402Y243625D02*
X328313Y243627D01*
X328225Y243633D01*
X328137Y243642D01*
X328049Y243655D01*
X327962Y243672D01*
X327876Y243692D01*
X327791Y243717D01*
X327706Y243744D01*
X327623Y243776D01*
X327542Y243810D01*
X327462Y243849D01*
X327384Y243890D01*
X327307Y243935D01*
X327233Y243983D01*
X327160Y244034D01*
X327090Y244088D01*
X327023Y244146D01*
X326957Y244206D01*
X326895Y244268D01*
X326835Y244334D01*
X326777Y244401D01*
X326723Y244471D01*
X326672Y244544D01*
X326624Y244618D01*
X326579Y244695D01*
X326538Y244773D01*
X326499Y244853D01*
X326465Y244934D01*
X326433Y245017D01*
X326406Y245102D01*
X326381Y245187D01*
X326361Y245273D01*
X326344Y245360D01*
X326331Y245448D01*
X326322Y245536D01*
X326316Y245624D01*
X326314Y245713D01*
X326314Y250934D01*
X326316Y251025D01*
X326322Y251116D01*
X326332Y251207D01*
X326346Y251297D01*
X326363Y251386D01*
X326385Y251474D01*
X326411Y251562D01*
X326440Y251648D01*
X326473Y251733D01*
X326510Y251816D01*
X326550Y251898D01*
X326594Y251978D01*
X326641Y252056D01*
X326692Y252132D01*
X326745Y252205D01*
X326802Y252276D01*
X326863Y252345D01*
X326926Y252410D01*
X326991Y252473D01*
X327060Y252533D01*
X327131Y252591D01*
X327204Y252644D01*
X327280Y252695D01*
X327358Y252742D01*
X327438Y252786D01*
X327520Y252826D01*
X327603Y252863D01*
X327688Y252896D01*
X327774Y252925D01*
X327862Y252951D01*
X327950Y252973D01*
X328039Y252990D01*
X328129Y253004D01*
X328220Y253014D01*
X328311Y253020D01*
X328402Y253022D01*
X330491Y253022D01*
X333960Y250934D02*
X336570Y253022D01*
X336570Y243624D01*
X333960Y243624D02*
X339181Y243624D01*
X343103Y245713D02*
X345192Y253022D01*
X343103Y245713D02*
X348325Y245713D01*
X346758Y247801D02*
X346758Y243624D01*
M02*
