G04 EAGLE Gerber RS-274X export*
G75*
%MOMM*%
%FSLAX34Y34*%
%LPD*%
%INSilkscreen Bottom*%
%IPPOS*%
%AMOC8*
5,1,8,0,0,1.08239X$1,22.5*%
G01*
%ADD10C,0.152400*%
%ADD11C,0.101600*%
%ADD12C,0.076200*%
%ADD13C,0.127000*%
%ADD14C,0.254000*%


D10*
X383596Y446920D02*
X378657Y446920D01*
X378517Y446918D01*
X378378Y446912D01*
X378238Y446902D01*
X378099Y446888D01*
X377960Y446871D01*
X377822Y446849D01*
X377685Y446823D01*
X377548Y446794D01*
X377412Y446761D01*
X377278Y446724D01*
X377144Y446683D01*
X377012Y446638D01*
X376880Y446589D01*
X376751Y446537D01*
X376623Y446482D01*
X376496Y446422D01*
X376371Y446359D01*
X376248Y446293D01*
X376127Y446223D01*
X376008Y446150D01*
X375891Y446073D01*
X375777Y445993D01*
X375664Y445910D01*
X375554Y445824D01*
X375447Y445734D01*
X375342Y445642D01*
X375240Y445547D01*
X375140Y445449D01*
X375043Y445348D01*
X374949Y445244D01*
X374859Y445138D01*
X374771Y445029D01*
X374686Y444918D01*
X374605Y444804D01*
X374526Y444689D01*
X374451Y444571D01*
X374380Y444451D01*
X374312Y444328D01*
X374247Y444205D01*
X374186Y444079D01*
X374128Y443951D01*
X374074Y443823D01*
X374024Y443692D01*
X373977Y443560D01*
X373934Y443427D01*
X373895Y443293D01*
X373860Y443158D01*
X373829Y443022D01*
X373801Y442884D01*
X373778Y442747D01*
X373758Y442608D01*
X373742Y442469D01*
X373730Y442330D01*
X373722Y442191D01*
X373718Y442051D01*
X373718Y441911D01*
X373722Y441771D01*
X373730Y441632D01*
X373742Y441493D01*
X373758Y441354D01*
X373778Y441215D01*
X373801Y441078D01*
X373829Y440940D01*
X373860Y440804D01*
X373895Y440669D01*
X373934Y440535D01*
X373977Y440402D01*
X374024Y440270D01*
X374074Y440139D01*
X374128Y440011D01*
X374186Y439883D01*
X374247Y439757D01*
X374312Y439634D01*
X374380Y439512D01*
X374451Y439391D01*
X374526Y439273D01*
X374605Y439158D01*
X374686Y439044D01*
X374771Y438933D01*
X374859Y438824D01*
X374949Y438718D01*
X375043Y438614D01*
X375140Y438513D01*
X375240Y438415D01*
X375342Y438320D01*
X375447Y438228D01*
X375554Y438138D01*
X375664Y438052D01*
X375777Y437969D01*
X375891Y437889D01*
X376008Y437812D01*
X376127Y437739D01*
X376248Y437669D01*
X376371Y437603D01*
X376496Y437540D01*
X376623Y437480D01*
X376751Y437425D01*
X376880Y437373D01*
X377012Y437324D01*
X377144Y437279D01*
X377278Y437238D01*
X377412Y437201D01*
X377548Y437168D01*
X377685Y437139D01*
X377822Y437113D01*
X377960Y437091D01*
X378099Y437074D01*
X378238Y437060D01*
X378378Y437050D01*
X378517Y437044D01*
X378657Y437042D01*
X378657Y437043D02*
X383596Y437043D01*
X383596Y454823D01*
X378657Y454823D01*
X378657Y454822D02*
X378533Y454820D01*
X378409Y454814D01*
X378285Y454804D01*
X378162Y454791D01*
X378039Y454773D01*
X377917Y454752D01*
X377795Y454727D01*
X377674Y454698D01*
X377555Y454665D01*
X377436Y454629D01*
X377319Y454588D01*
X377203Y454545D01*
X377088Y454497D01*
X376975Y454446D01*
X376863Y454391D01*
X376754Y454333D01*
X376646Y454272D01*
X376540Y454207D01*
X376436Y454139D01*
X376335Y454067D01*
X376235Y453993D01*
X376139Y453915D01*
X376044Y453835D01*
X375952Y453751D01*
X375863Y453665D01*
X375777Y453576D01*
X375693Y453484D01*
X375613Y453389D01*
X375535Y453293D01*
X375461Y453193D01*
X375389Y453092D01*
X375321Y452988D01*
X375256Y452882D01*
X375195Y452774D01*
X375137Y452665D01*
X375082Y452553D01*
X375031Y452440D01*
X374983Y452325D01*
X374940Y452209D01*
X374899Y452092D01*
X374863Y451973D01*
X374830Y451854D01*
X374801Y451733D01*
X374776Y451611D01*
X374755Y451489D01*
X374737Y451366D01*
X374724Y451243D01*
X374714Y451119D01*
X374708Y450995D01*
X374706Y450871D01*
X374708Y450747D01*
X374714Y450623D01*
X374724Y450499D01*
X374737Y450376D01*
X374755Y450253D01*
X374776Y450131D01*
X374801Y450009D01*
X374830Y449888D01*
X374863Y449769D01*
X374899Y449650D01*
X374940Y449533D01*
X374983Y449417D01*
X375031Y449302D01*
X375082Y449189D01*
X375137Y449077D01*
X375195Y448968D01*
X375256Y448860D01*
X375321Y448754D01*
X375389Y448650D01*
X375461Y448549D01*
X375535Y448449D01*
X375613Y448353D01*
X375693Y448258D01*
X375777Y448166D01*
X375863Y448077D01*
X375952Y447991D01*
X376044Y447907D01*
X376139Y447827D01*
X376235Y447749D01*
X376335Y447675D01*
X376436Y447603D01*
X376540Y447535D01*
X376646Y447470D01*
X376754Y447409D01*
X376863Y447351D01*
X376975Y447296D01*
X377088Y447245D01*
X377203Y447197D01*
X377319Y447154D01*
X377436Y447113D01*
X377555Y447077D01*
X377674Y447044D01*
X377795Y447015D01*
X377917Y446990D01*
X378039Y446969D01*
X378162Y446951D01*
X378285Y446938D01*
X378409Y446928D01*
X378533Y446922D01*
X378657Y446920D01*
X482922Y394990D02*
X482922Y377210D01*
X482922Y394990D02*
X477983Y394990D01*
X477843Y394988D01*
X477704Y394982D01*
X477564Y394972D01*
X477425Y394958D01*
X477286Y394941D01*
X477148Y394919D01*
X477011Y394893D01*
X476874Y394864D01*
X476738Y394831D01*
X476604Y394794D01*
X476470Y394753D01*
X476338Y394708D01*
X476206Y394659D01*
X476077Y394607D01*
X475949Y394552D01*
X475822Y394492D01*
X475697Y394429D01*
X475574Y394363D01*
X475453Y394293D01*
X475334Y394220D01*
X475217Y394143D01*
X475103Y394063D01*
X474990Y393980D01*
X474880Y393894D01*
X474773Y393804D01*
X474668Y393712D01*
X474566Y393617D01*
X474466Y393519D01*
X474369Y393418D01*
X474275Y393314D01*
X474185Y393208D01*
X474097Y393099D01*
X474012Y392988D01*
X473931Y392874D01*
X473852Y392759D01*
X473777Y392641D01*
X473706Y392521D01*
X473638Y392398D01*
X473573Y392275D01*
X473512Y392149D01*
X473454Y392021D01*
X473400Y391893D01*
X473350Y391762D01*
X473303Y391630D01*
X473260Y391497D01*
X473221Y391363D01*
X473186Y391228D01*
X473155Y391092D01*
X473127Y390954D01*
X473104Y390817D01*
X473084Y390678D01*
X473068Y390539D01*
X473056Y390400D01*
X473048Y390261D01*
X473044Y390121D01*
X473044Y389981D01*
X473048Y389841D01*
X473056Y389702D01*
X473068Y389563D01*
X473084Y389424D01*
X473104Y389285D01*
X473127Y389148D01*
X473155Y389010D01*
X473186Y388874D01*
X473221Y388739D01*
X473260Y388605D01*
X473303Y388472D01*
X473350Y388340D01*
X473400Y388209D01*
X473454Y388081D01*
X473512Y387953D01*
X473573Y387827D01*
X473638Y387704D01*
X473706Y387582D01*
X473777Y387461D01*
X473852Y387343D01*
X473931Y387228D01*
X474012Y387114D01*
X474097Y387003D01*
X474185Y386894D01*
X474275Y386788D01*
X474369Y386684D01*
X474466Y386583D01*
X474566Y386485D01*
X474668Y386390D01*
X474773Y386298D01*
X474880Y386208D01*
X474990Y386122D01*
X475103Y386039D01*
X475217Y385959D01*
X475334Y385882D01*
X475453Y385809D01*
X475574Y385739D01*
X475697Y385673D01*
X475822Y385610D01*
X475949Y385550D01*
X476077Y385495D01*
X476206Y385443D01*
X476338Y385394D01*
X476470Y385349D01*
X476604Y385308D01*
X476738Y385271D01*
X476874Y385238D01*
X477011Y385209D01*
X477148Y385183D01*
X477286Y385161D01*
X477425Y385144D01*
X477564Y385130D01*
X477704Y385120D01*
X477843Y385114D01*
X477983Y385112D01*
X477983Y385113D02*
X482922Y385113D01*
X476996Y385113D02*
X473045Y377210D01*
X284190Y419595D02*
X284190Y437375D01*
X279252Y437375D01*
X279113Y437373D01*
X278975Y437367D01*
X278837Y437358D01*
X278699Y437344D01*
X278562Y437327D01*
X278425Y437305D01*
X278288Y437280D01*
X278153Y437251D01*
X278018Y437218D01*
X277885Y437182D01*
X277752Y437142D01*
X277621Y437098D01*
X277491Y437050D01*
X277362Y436999D01*
X277235Y436944D01*
X277109Y436886D01*
X276985Y436824D01*
X276863Y436759D01*
X276743Y436690D01*
X276624Y436618D01*
X276508Y436543D01*
X276394Y436464D01*
X276282Y436382D01*
X276173Y436297D01*
X276065Y436210D01*
X275961Y436119D01*
X275859Y436025D01*
X275760Y435928D01*
X275663Y435829D01*
X275569Y435727D01*
X275478Y435623D01*
X275391Y435515D01*
X275306Y435406D01*
X275224Y435294D01*
X275145Y435180D01*
X275070Y435064D01*
X274998Y434945D01*
X274929Y434825D01*
X274864Y434703D01*
X274802Y434579D01*
X274744Y434453D01*
X274689Y434326D01*
X274638Y434197D01*
X274590Y434067D01*
X274546Y433936D01*
X274506Y433803D01*
X274470Y433670D01*
X274437Y433535D01*
X274408Y433400D01*
X274383Y433263D01*
X274361Y433126D01*
X274344Y432989D01*
X274330Y432851D01*
X274321Y432713D01*
X274315Y432575D01*
X274313Y432436D01*
X274313Y424534D01*
X274315Y424395D01*
X274321Y424257D01*
X274330Y424119D01*
X274344Y423981D01*
X274361Y423844D01*
X274383Y423707D01*
X274408Y423570D01*
X274437Y423435D01*
X274470Y423300D01*
X274506Y423167D01*
X274546Y423034D01*
X274590Y422903D01*
X274638Y422773D01*
X274689Y422644D01*
X274744Y422517D01*
X274802Y422391D01*
X274864Y422267D01*
X274929Y422145D01*
X274998Y422025D01*
X275070Y421906D01*
X275145Y421790D01*
X275224Y421676D01*
X275306Y421564D01*
X275391Y421455D01*
X275478Y421347D01*
X275569Y421243D01*
X275663Y421141D01*
X275760Y421042D01*
X275859Y420945D01*
X275961Y420851D01*
X276065Y420760D01*
X276173Y420673D01*
X276282Y420588D01*
X276394Y420506D01*
X276508Y420427D01*
X276624Y420352D01*
X276743Y420280D01*
X276863Y420211D01*
X276985Y420146D01*
X277109Y420084D01*
X277235Y420026D01*
X277362Y419971D01*
X277491Y419920D01*
X277621Y419872D01*
X277752Y419828D01*
X277885Y419788D01*
X278018Y419752D01*
X278153Y419719D01*
X278288Y419690D01*
X278425Y419665D01*
X278562Y419643D01*
X278699Y419626D01*
X278837Y419612D01*
X278975Y419603D01*
X279113Y419597D01*
X279252Y419595D01*
X284190Y419595D01*
X280521Y444203D02*
X276570Y444203D01*
X280521Y444203D02*
X280645Y444205D01*
X280769Y444211D01*
X280893Y444221D01*
X281016Y444234D01*
X281139Y444252D01*
X281261Y444273D01*
X281383Y444298D01*
X281504Y444327D01*
X281623Y444360D01*
X281742Y444396D01*
X281859Y444437D01*
X281975Y444480D01*
X282090Y444528D01*
X282203Y444579D01*
X282315Y444634D01*
X282424Y444692D01*
X282532Y444753D01*
X282638Y444818D01*
X282742Y444886D01*
X282843Y444958D01*
X282943Y445032D01*
X283039Y445110D01*
X283134Y445190D01*
X283226Y445274D01*
X283315Y445360D01*
X283401Y445449D01*
X283485Y445541D01*
X283565Y445636D01*
X283643Y445732D01*
X283717Y445832D01*
X283789Y445933D01*
X283857Y446037D01*
X283922Y446143D01*
X283983Y446251D01*
X284041Y446360D01*
X284096Y446472D01*
X284147Y446585D01*
X284195Y446700D01*
X284238Y446816D01*
X284279Y446933D01*
X284315Y447052D01*
X284348Y447171D01*
X284377Y447292D01*
X284402Y447414D01*
X284423Y447536D01*
X284441Y447659D01*
X284454Y447782D01*
X284464Y447906D01*
X284470Y448030D01*
X284472Y448154D01*
X284472Y458032D01*
X284470Y458156D01*
X284464Y458280D01*
X284454Y458404D01*
X284441Y458527D01*
X284423Y458650D01*
X284402Y458772D01*
X284377Y458894D01*
X284348Y459015D01*
X284315Y459134D01*
X284279Y459253D01*
X284238Y459370D01*
X284195Y459486D01*
X284147Y459601D01*
X284096Y459714D01*
X284041Y459826D01*
X283983Y459935D01*
X283922Y460043D01*
X283857Y460149D01*
X283789Y460253D01*
X283717Y460354D01*
X283643Y460454D01*
X283565Y460550D01*
X283485Y460645D01*
X283401Y460737D01*
X283315Y460826D01*
X283226Y460912D01*
X283134Y460996D01*
X283039Y461076D01*
X282943Y461154D01*
X282843Y461228D01*
X282742Y461300D01*
X282638Y461368D01*
X282532Y461433D01*
X282424Y461494D01*
X282315Y461552D01*
X282203Y461607D01*
X282090Y461658D01*
X281976Y461706D01*
X281859Y461749D01*
X281742Y461790D01*
X281623Y461826D01*
X281504Y461859D01*
X281383Y461888D01*
X281261Y461913D01*
X281139Y461934D01*
X281016Y461952D01*
X280893Y461965D01*
X280769Y461975D01*
X280645Y461981D01*
X280521Y461983D01*
X276570Y461983D01*
D11*
X424812Y460559D02*
X427471Y458697D01*
X424812Y460558D02*
X424721Y460625D01*
X424631Y460694D01*
X424544Y460767D01*
X424460Y460843D01*
X424379Y460922D01*
X424300Y461003D01*
X424224Y461087D01*
X424151Y461174D01*
X424082Y461264D01*
X424015Y461355D01*
X423952Y461449D01*
X423892Y461545D01*
X423835Y461643D01*
X423782Y461743D01*
X423732Y461845D01*
X423686Y461949D01*
X423644Y462054D01*
X423605Y462160D01*
X423570Y462268D01*
X423539Y462377D01*
X423511Y462487D01*
X423488Y462598D01*
X423468Y462709D01*
X423452Y462821D01*
X423440Y462934D01*
X423432Y463047D01*
X423428Y463160D01*
X423428Y463274D01*
X423432Y463387D01*
X423440Y463500D01*
X423452Y463613D01*
X423468Y463725D01*
X423488Y463836D01*
X423511Y463947D01*
X423539Y464057D01*
X423570Y464166D01*
X423605Y464274D01*
X423644Y464380D01*
X423686Y464485D01*
X423732Y464589D01*
X423782Y464691D01*
X423835Y464791D01*
X423892Y464889D01*
X423952Y464985D01*
X424015Y465079D01*
X424082Y465170D01*
X424151Y465260D01*
X424224Y465347D01*
X424300Y465431D01*
X424379Y465512D01*
X424460Y465591D01*
X424544Y465667D01*
X424631Y465740D01*
X424720Y465809D01*
X424812Y465876D01*
X424906Y465939D01*
X425002Y465999D01*
X425100Y466056D01*
X425200Y466109D01*
X425302Y466159D01*
X425406Y466205D01*
X425511Y466247D01*
X425617Y466286D01*
X425725Y466321D01*
X425834Y466352D01*
X425944Y466380D01*
X426055Y466403D01*
X426166Y466423D01*
X426278Y466439D01*
X426391Y466451D01*
X426504Y466459D01*
X426617Y466463D01*
X426731Y466463D01*
X426844Y466459D01*
X426957Y466451D01*
X427070Y466439D01*
X427182Y466423D01*
X427293Y466403D01*
X427404Y466380D01*
X427514Y466352D01*
X427623Y466321D01*
X427731Y466286D01*
X427837Y466247D01*
X427942Y466205D01*
X428046Y466159D01*
X428148Y466109D01*
X428248Y466056D01*
X428346Y465999D01*
X428442Y465939D01*
X428536Y465876D01*
X430982Y470502D02*
X434172Y468268D01*
X430982Y470502D02*
X430898Y470558D01*
X430813Y470611D01*
X430725Y470660D01*
X430636Y470706D01*
X430544Y470749D01*
X430451Y470788D01*
X430357Y470823D01*
X430262Y470855D01*
X430165Y470883D01*
X430067Y470907D01*
X429969Y470927D01*
X429869Y470944D01*
X429769Y470956D01*
X429669Y470965D01*
X429569Y470970D01*
X429468Y470971D01*
X429367Y470968D01*
X429267Y470961D01*
X429167Y470950D01*
X429067Y470936D01*
X428968Y470917D01*
X428870Y470895D01*
X428773Y470869D01*
X428676Y470839D01*
X428582Y470806D01*
X428488Y470769D01*
X428396Y470728D01*
X428305Y470683D01*
X428217Y470636D01*
X428130Y470584D01*
X428046Y470530D01*
X427963Y470472D01*
X427883Y470411D01*
X427805Y470347D01*
X427730Y470280D01*
X427657Y470211D01*
X427588Y470138D01*
X427521Y470063D01*
X427457Y469985D01*
X427396Y469905D01*
X427338Y469822D01*
X427284Y469738D01*
X427232Y469651D01*
X427185Y469563D01*
X427140Y469472D01*
X427099Y469380D01*
X427062Y469286D01*
X427029Y469192D01*
X426999Y469095D01*
X426973Y468998D01*
X426951Y468900D01*
X426932Y468801D01*
X426918Y468701D01*
X426907Y468601D01*
X426900Y468501D01*
X426897Y468400D01*
X426898Y468299D01*
X426903Y468199D01*
X426912Y468099D01*
X426924Y467999D01*
X426941Y467899D01*
X426961Y467801D01*
X426985Y467703D01*
X427013Y467606D01*
X427045Y467511D01*
X427080Y467417D01*
X427119Y467324D01*
X427162Y467232D01*
X427208Y467143D01*
X427257Y467055D01*
X427310Y466970D01*
X427366Y466886D01*
X427426Y466805D01*
X427488Y466726D01*
X427554Y466649D01*
X427622Y466575D01*
X427693Y466504D01*
X427767Y466436D01*
X427844Y466370D01*
X427923Y466308D01*
X428004Y466248D01*
X430130Y464759D01*
X425341Y474452D02*
X415449Y467114D01*
X418961Y478919D01*
X408745Y471809D02*
X406086Y473670D01*
X405995Y473737D01*
X405905Y473806D01*
X405818Y473879D01*
X405734Y473955D01*
X405653Y474034D01*
X405574Y474115D01*
X405498Y474199D01*
X405425Y474286D01*
X405356Y474376D01*
X405289Y474467D01*
X405226Y474561D01*
X405166Y474657D01*
X405109Y474755D01*
X405056Y474855D01*
X405006Y474957D01*
X404960Y475061D01*
X404918Y475166D01*
X404879Y475272D01*
X404844Y475380D01*
X404813Y475489D01*
X404785Y475599D01*
X404762Y475710D01*
X404742Y475821D01*
X404726Y475933D01*
X404714Y476046D01*
X404706Y476159D01*
X404702Y476272D01*
X404702Y476386D01*
X404706Y476499D01*
X404714Y476612D01*
X404726Y476725D01*
X404742Y476837D01*
X404762Y476948D01*
X404785Y477059D01*
X404813Y477169D01*
X404844Y477278D01*
X404879Y477386D01*
X404918Y477492D01*
X404960Y477597D01*
X405006Y477701D01*
X405056Y477803D01*
X405109Y477903D01*
X405166Y478001D01*
X405226Y478097D01*
X405289Y478191D01*
X405356Y478282D01*
X405425Y478372D01*
X405498Y478459D01*
X405574Y478543D01*
X405653Y478624D01*
X405734Y478703D01*
X405818Y478779D01*
X405905Y478852D01*
X405994Y478921D01*
X406086Y478988D01*
X406180Y479051D01*
X406276Y479111D01*
X406374Y479168D01*
X406474Y479221D01*
X406576Y479271D01*
X406680Y479317D01*
X406785Y479359D01*
X406891Y479398D01*
X406999Y479433D01*
X407108Y479464D01*
X407218Y479492D01*
X407329Y479515D01*
X407440Y479535D01*
X407552Y479551D01*
X407665Y479563D01*
X407778Y479571D01*
X407891Y479575D01*
X408005Y479575D01*
X408118Y479571D01*
X408231Y479563D01*
X408344Y479551D01*
X408456Y479535D01*
X408567Y479515D01*
X408678Y479492D01*
X408788Y479464D01*
X408897Y479433D01*
X409005Y479398D01*
X409111Y479359D01*
X409216Y479317D01*
X409320Y479271D01*
X409422Y479221D01*
X409522Y479168D01*
X409620Y479111D01*
X409716Y479051D01*
X409810Y478988D01*
X412256Y483614D02*
X415447Y481380D01*
X412256Y483614D02*
X412172Y483670D01*
X412087Y483723D01*
X411999Y483772D01*
X411910Y483818D01*
X411818Y483861D01*
X411725Y483900D01*
X411631Y483935D01*
X411536Y483967D01*
X411439Y483995D01*
X411341Y484019D01*
X411243Y484039D01*
X411143Y484056D01*
X411043Y484068D01*
X410943Y484077D01*
X410843Y484082D01*
X410742Y484083D01*
X410641Y484080D01*
X410541Y484073D01*
X410441Y484062D01*
X410341Y484048D01*
X410242Y484029D01*
X410144Y484007D01*
X410047Y483981D01*
X409950Y483951D01*
X409856Y483918D01*
X409762Y483881D01*
X409670Y483840D01*
X409579Y483795D01*
X409491Y483748D01*
X409404Y483696D01*
X409320Y483642D01*
X409237Y483584D01*
X409157Y483523D01*
X409079Y483459D01*
X409004Y483392D01*
X408931Y483323D01*
X408862Y483250D01*
X408795Y483175D01*
X408731Y483097D01*
X408670Y483017D01*
X408612Y482934D01*
X408558Y482850D01*
X408506Y482763D01*
X408459Y482675D01*
X408414Y482584D01*
X408373Y482492D01*
X408336Y482398D01*
X408303Y482304D01*
X408273Y482207D01*
X408247Y482110D01*
X408225Y482012D01*
X408206Y481913D01*
X408192Y481813D01*
X408181Y481713D01*
X408174Y481613D01*
X408171Y481512D01*
X408172Y481411D01*
X408177Y481311D01*
X408186Y481211D01*
X408198Y481111D01*
X408215Y481011D01*
X408235Y480913D01*
X408259Y480815D01*
X408287Y480718D01*
X408319Y480623D01*
X408354Y480529D01*
X408393Y480436D01*
X408436Y480344D01*
X408482Y480255D01*
X408531Y480167D01*
X408584Y480082D01*
X408640Y479998D01*
X408700Y479917D01*
X408762Y479838D01*
X408828Y479761D01*
X408896Y479687D01*
X408967Y479616D01*
X409041Y479548D01*
X409118Y479482D01*
X409197Y479420D01*
X409278Y479360D01*
X411405Y477871D01*
X485558Y334770D02*
X485558Y331524D01*
X485558Y334770D02*
X485560Y334883D01*
X485566Y334996D01*
X485576Y335109D01*
X485590Y335222D01*
X485607Y335334D01*
X485629Y335445D01*
X485654Y335555D01*
X485684Y335665D01*
X485717Y335773D01*
X485754Y335880D01*
X485794Y335986D01*
X485839Y336090D01*
X485887Y336193D01*
X485938Y336294D01*
X485993Y336393D01*
X486051Y336490D01*
X486113Y336585D01*
X486178Y336678D01*
X486246Y336768D01*
X486317Y336856D01*
X486392Y336942D01*
X486469Y337025D01*
X486549Y337105D01*
X486632Y337182D01*
X486718Y337257D01*
X486806Y337328D01*
X486896Y337396D01*
X486989Y337461D01*
X487084Y337523D01*
X487181Y337581D01*
X487280Y337636D01*
X487381Y337687D01*
X487484Y337735D01*
X487588Y337780D01*
X487694Y337820D01*
X487801Y337857D01*
X487909Y337890D01*
X488019Y337920D01*
X488129Y337945D01*
X488240Y337967D01*
X488352Y337984D01*
X488465Y337998D01*
X488578Y338008D01*
X488691Y338014D01*
X488804Y338016D01*
X488917Y338014D01*
X489030Y338008D01*
X489143Y337998D01*
X489256Y337984D01*
X489368Y337967D01*
X489479Y337945D01*
X489589Y337920D01*
X489699Y337890D01*
X489807Y337857D01*
X489914Y337820D01*
X490020Y337780D01*
X490124Y337735D01*
X490227Y337687D01*
X490328Y337636D01*
X490427Y337581D01*
X490524Y337523D01*
X490619Y337461D01*
X490712Y337396D01*
X490802Y337328D01*
X490890Y337257D01*
X490976Y337182D01*
X491059Y337105D01*
X491139Y337025D01*
X491216Y336942D01*
X491291Y336856D01*
X491362Y336768D01*
X491430Y336678D01*
X491495Y336585D01*
X491557Y336490D01*
X491615Y336393D01*
X491670Y336294D01*
X491721Y336193D01*
X491769Y336090D01*
X491814Y335986D01*
X491854Y335880D01*
X491891Y335773D01*
X491924Y335665D01*
X491954Y335555D01*
X491979Y335445D01*
X492001Y335334D01*
X492018Y335222D01*
X492032Y335109D01*
X492042Y334996D01*
X492048Y334883D01*
X492050Y334770D01*
X497242Y335419D02*
X497242Y331524D01*
X497242Y335419D02*
X497240Y335520D01*
X497234Y335620D01*
X497224Y335720D01*
X497211Y335820D01*
X497193Y335919D01*
X497172Y336018D01*
X497147Y336115D01*
X497118Y336212D01*
X497085Y336307D01*
X497049Y336401D01*
X497009Y336493D01*
X496966Y336584D01*
X496919Y336673D01*
X496869Y336760D01*
X496815Y336846D01*
X496758Y336929D01*
X496698Y337009D01*
X496635Y337088D01*
X496568Y337164D01*
X496499Y337237D01*
X496427Y337307D01*
X496353Y337375D01*
X496276Y337440D01*
X496196Y337501D01*
X496114Y337560D01*
X496030Y337615D01*
X495944Y337667D01*
X495856Y337716D01*
X495766Y337761D01*
X495674Y337803D01*
X495581Y337841D01*
X495486Y337875D01*
X495391Y337906D01*
X495294Y337933D01*
X495196Y337956D01*
X495097Y337976D01*
X494997Y337991D01*
X494897Y338003D01*
X494797Y338011D01*
X494696Y338015D01*
X494596Y338015D01*
X494495Y338011D01*
X494395Y338003D01*
X494295Y337991D01*
X494195Y337976D01*
X494096Y337956D01*
X493998Y337933D01*
X493901Y337906D01*
X493806Y337875D01*
X493711Y337841D01*
X493618Y337803D01*
X493526Y337761D01*
X493436Y337716D01*
X493348Y337667D01*
X493262Y337615D01*
X493178Y337560D01*
X493096Y337501D01*
X493016Y337440D01*
X492939Y337375D01*
X492865Y337307D01*
X492793Y337237D01*
X492724Y337164D01*
X492657Y337088D01*
X492594Y337009D01*
X492534Y336929D01*
X492477Y336846D01*
X492423Y336760D01*
X492373Y336673D01*
X492326Y336584D01*
X492283Y336493D01*
X492243Y336401D01*
X492207Y336307D01*
X492174Y336212D01*
X492145Y336115D01*
X492120Y336018D01*
X492099Y335919D01*
X492081Y335820D01*
X492068Y335720D01*
X492058Y335620D01*
X492052Y335520D01*
X492050Y335419D01*
X492049Y335419D02*
X492049Y332823D01*
X497242Y342305D02*
X485558Y346200D01*
X497242Y350095D01*
X485558Y354384D02*
X485558Y357630D01*
X485560Y357743D01*
X485566Y357856D01*
X485576Y357969D01*
X485590Y358082D01*
X485607Y358194D01*
X485629Y358305D01*
X485654Y358415D01*
X485684Y358525D01*
X485717Y358633D01*
X485754Y358740D01*
X485794Y358846D01*
X485839Y358950D01*
X485887Y359053D01*
X485938Y359154D01*
X485993Y359253D01*
X486051Y359350D01*
X486113Y359445D01*
X486178Y359538D01*
X486246Y359628D01*
X486317Y359716D01*
X486392Y359802D01*
X486469Y359885D01*
X486549Y359965D01*
X486632Y360042D01*
X486718Y360117D01*
X486806Y360188D01*
X486896Y360256D01*
X486989Y360321D01*
X487084Y360383D01*
X487181Y360441D01*
X487280Y360496D01*
X487381Y360547D01*
X487484Y360595D01*
X487588Y360640D01*
X487694Y360680D01*
X487801Y360717D01*
X487909Y360750D01*
X488019Y360780D01*
X488129Y360805D01*
X488240Y360827D01*
X488352Y360844D01*
X488465Y360858D01*
X488578Y360868D01*
X488691Y360874D01*
X488804Y360876D01*
X488917Y360874D01*
X489030Y360868D01*
X489143Y360858D01*
X489256Y360844D01*
X489368Y360827D01*
X489479Y360805D01*
X489589Y360780D01*
X489699Y360750D01*
X489807Y360717D01*
X489914Y360680D01*
X490020Y360640D01*
X490124Y360595D01*
X490227Y360547D01*
X490328Y360496D01*
X490427Y360441D01*
X490524Y360383D01*
X490619Y360321D01*
X490712Y360256D01*
X490802Y360188D01*
X490890Y360117D01*
X490976Y360042D01*
X491059Y359965D01*
X491139Y359885D01*
X491216Y359802D01*
X491291Y359716D01*
X491362Y359628D01*
X491430Y359538D01*
X491495Y359445D01*
X491557Y359350D01*
X491615Y359253D01*
X491670Y359154D01*
X491721Y359053D01*
X491769Y358950D01*
X491814Y358846D01*
X491854Y358740D01*
X491891Y358633D01*
X491924Y358525D01*
X491954Y358415D01*
X491979Y358305D01*
X492001Y358194D01*
X492018Y358082D01*
X492032Y357969D01*
X492042Y357856D01*
X492048Y357743D01*
X492050Y357630D01*
X497242Y358279D02*
X497242Y354384D01*
X497242Y358279D02*
X497240Y358380D01*
X497234Y358480D01*
X497224Y358580D01*
X497211Y358680D01*
X497193Y358779D01*
X497172Y358878D01*
X497147Y358975D01*
X497118Y359072D01*
X497085Y359167D01*
X497049Y359261D01*
X497009Y359353D01*
X496966Y359444D01*
X496919Y359533D01*
X496869Y359620D01*
X496815Y359706D01*
X496758Y359789D01*
X496698Y359869D01*
X496635Y359948D01*
X496568Y360024D01*
X496499Y360097D01*
X496427Y360167D01*
X496353Y360235D01*
X496276Y360300D01*
X496196Y360361D01*
X496114Y360420D01*
X496030Y360475D01*
X495944Y360527D01*
X495856Y360576D01*
X495766Y360621D01*
X495674Y360663D01*
X495581Y360701D01*
X495486Y360735D01*
X495391Y360766D01*
X495294Y360793D01*
X495196Y360816D01*
X495097Y360836D01*
X494997Y360851D01*
X494897Y360863D01*
X494797Y360871D01*
X494696Y360875D01*
X494596Y360875D01*
X494495Y360871D01*
X494395Y360863D01*
X494295Y360851D01*
X494195Y360836D01*
X494096Y360816D01*
X493998Y360793D01*
X493901Y360766D01*
X493806Y360735D01*
X493711Y360701D01*
X493618Y360663D01*
X493526Y360621D01*
X493436Y360576D01*
X493348Y360527D01*
X493262Y360475D01*
X493178Y360420D01*
X493096Y360361D01*
X493016Y360300D01*
X492939Y360235D01*
X492865Y360167D01*
X492793Y360097D01*
X492724Y360024D01*
X492657Y359948D01*
X492594Y359869D01*
X492534Y359789D01*
X492477Y359706D01*
X492423Y359620D01*
X492373Y359533D01*
X492326Y359444D01*
X492283Y359353D01*
X492243Y359261D01*
X492207Y359167D01*
X492174Y359072D01*
X492145Y358975D01*
X492120Y358878D01*
X492099Y358779D01*
X492081Y358680D01*
X492068Y358580D01*
X492058Y358480D01*
X492052Y358380D01*
X492050Y358279D01*
X492049Y358279D02*
X492049Y355683D01*
X434172Y224132D02*
X431514Y222270D01*
X431420Y222207D01*
X431324Y222147D01*
X431226Y222090D01*
X431126Y222037D01*
X431024Y221987D01*
X430920Y221941D01*
X430815Y221899D01*
X430709Y221860D01*
X430601Y221825D01*
X430492Y221794D01*
X430382Y221766D01*
X430271Y221743D01*
X430160Y221723D01*
X430048Y221707D01*
X429935Y221695D01*
X429822Y221687D01*
X429709Y221683D01*
X429595Y221683D01*
X429482Y221687D01*
X429369Y221695D01*
X429256Y221707D01*
X429144Y221723D01*
X429033Y221743D01*
X428922Y221766D01*
X428812Y221794D01*
X428703Y221825D01*
X428595Y221860D01*
X428489Y221899D01*
X428384Y221941D01*
X428280Y221987D01*
X428178Y222037D01*
X428078Y222090D01*
X427980Y222147D01*
X427884Y222207D01*
X427790Y222270D01*
X427699Y222337D01*
X427609Y222406D01*
X427522Y222479D01*
X427438Y222555D01*
X427357Y222634D01*
X427278Y222715D01*
X427202Y222799D01*
X427129Y222886D01*
X427060Y222976D01*
X426993Y223067D01*
X426930Y223161D01*
X426870Y223257D01*
X426813Y223355D01*
X426760Y223455D01*
X426710Y223557D01*
X426664Y223661D01*
X426622Y223766D01*
X426583Y223872D01*
X426548Y223980D01*
X426517Y224089D01*
X426489Y224199D01*
X426466Y224310D01*
X426446Y224421D01*
X426430Y224533D01*
X426418Y224646D01*
X426410Y224759D01*
X426406Y224872D01*
X426406Y224986D01*
X426410Y225099D01*
X426418Y225212D01*
X426430Y225325D01*
X426446Y225437D01*
X426466Y225548D01*
X426489Y225659D01*
X426517Y225769D01*
X426548Y225878D01*
X426583Y225986D01*
X426622Y226092D01*
X426664Y226197D01*
X426710Y226301D01*
X426760Y226403D01*
X426813Y226503D01*
X426870Y226601D01*
X426930Y226697D01*
X426993Y226791D01*
X427060Y226882D01*
X427129Y226972D01*
X427202Y227059D01*
X427278Y227143D01*
X427357Y227224D01*
X427438Y227303D01*
X427522Y227379D01*
X427609Y227452D01*
X427699Y227521D01*
X427790Y227588D01*
X424280Y231469D02*
X427471Y233703D01*
X424281Y231469D02*
X424200Y231409D01*
X424121Y231347D01*
X424044Y231281D01*
X423970Y231213D01*
X423899Y231142D01*
X423831Y231068D01*
X423765Y230991D01*
X423703Y230912D01*
X423643Y230831D01*
X423587Y230747D01*
X423534Y230662D01*
X423485Y230574D01*
X423439Y230485D01*
X423396Y230393D01*
X423357Y230300D01*
X423322Y230206D01*
X423290Y230111D01*
X423262Y230014D01*
X423238Y229916D01*
X423218Y229818D01*
X423201Y229718D01*
X423189Y229618D01*
X423180Y229518D01*
X423175Y229417D01*
X423174Y229317D01*
X423177Y229216D01*
X423184Y229116D01*
X423195Y229016D01*
X423209Y228916D01*
X423228Y228817D01*
X423250Y228719D01*
X423276Y228622D01*
X423306Y228525D01*
X423339Y228431D01*
X423376Y228337D01*
X423417Y228245D01*
X423462Y228154D01*
X423509Y228066D01*
X423561Y227979D01*
X423615Y227895D01*
X423673Y227812D01*
X423734Y227732D01*
X423798Y227654D01*
X423865Y227579D01*
X423934Y227506D01*
X424007Y227437D01*
X424082Y227370D01*
X424160Y227306D01*
X424240Y227245D01*
X424323Y227187D01*
X424407Y227133D01*
X424494Y227081D01*
X424582Y227034D01*
X424673Y226989D01*
X424765Y226948D01*
X424858Y226911D01*
X424953Y226878D01*
X425050Y226848D01*
X425147Y226822D01*
X425245Y226800D01*
X425344Y226781D01*
X425444Y226767D01*
X425544Y226756D01*
X425644Y226749D01*
X425745Y226746D01*
X425845Y226747D01*
X425946Y226752D01*
X426046Y226761D01*
X426146Y226773D01*
X426246Y226790D01*
X426344Y226810D01*
X426442Y226834D01*
X426539Y226862D01*
X426634Y226894D01*
X426728Y226929D01*
X426821Y226968D01*
X426913Y227011D01*
X427002Y227057D01*
X427090Y227106D01*
X427175Y227159D01*
X427259Y227215D01*
X429386Y228705D01*
X418640Y227519D02*
X422151Y215714D01*
X412259Y223052D01*
X415447Y211020D02*
X412788Y209158D01*
X412694Y209095D01*
X412598Y209035D01*
X412500Y208978D01*
X412400Y208925D01*
X412298Y208875D01*
X412194Y208829D01*
X412089Y208787D01*
X411983Y208748D01*
X411875Y208713D01*
X411766Y208682D01*
X411656Y208654D01*
X411545Y208631D01*
X411434Y208611D01*
X411322Y208595D01*
X411209Y208583D01*
X411096Y208575D01*
X410983Y208571D01*
X410869Y208571D01*
X410756Y208575D01*
X410643Y208583D01*
X410530Y208595D01*
X410418Y208611D01*
X410307Y208631D01*
X410196Y208654D01*
X410086Y208682D01*
X409977Y208713D01*
X409869Y208748D01*
X409763Y208787D01*
X409658Y208829D01*
X409554Y208875D01*
X409452Y208925D01*
X409352Y208978D01*
X409254Y209035D01*
X409158Y209095D01*
X409064Y209158D01*
X408973Y209225D01*
X408883Y209294D01*
X408796Y209367D01*
X408712Y209443D01*
X408631Y209522D01*
X408552Y209603D01*
X408476Y209687D01*
X408403Y209774D01*
X408334Y209864D01*
X408267Y209955D01*
X408204Y210049D01*
X408144Y210145D01*
X408087Y210243D01*
X408034Y210343D01*
X407984Y210445D01*
X407938Y210549D01*
X407896Y210654D01*
X407857Y210760D01*
X407822Y210868D01*
X407791Y210977D01*
X407763Y211087D01*
X407740Y211198D01*
X407720Y211309D01*
X407704Y211421D01*
X407692Y211534D01*
X407684Y211647D01*
X407680Y211760D01*
X407680Y211874D01*
X407684Y211987D01*
X407692Y212100D01*
X407704Y212213D01*
X407720Y212325D01*
X407740Y212436D01*
X407763Y212547D01*
X407791Y212657D01*
X407822Y212766D01*
X407857Y212874D01*
X407896Y212980D01*
X407938Y213085D01*
X407984Y213189D01*
X408034Y213291D01*
X408087Y213391D01*
X408144Y213489D01*
X408204Y213585D01*
X408267Y213679D01*
X408334Y213770D01*
X408403Y213860D01*
X408476Y213947D01*
X408552Y214031D01*
X408631Y214112D01*
X408712Y214191D01*
X408796Y214267D01*
X408883Y214340D01*
X408973Y214409D01*
X409064Y214476D01*
X405555Y218357D02*
X408745Y220591D01*
X405555Y218357D02*
X405474Y218297D01*
X405395Y218235D01*
X405318Y218169D01*
X405244Y218101D01*
X405173Y218030D01*
X405105Y217956D01*
X405039Y217879D01*
X404977Y217800D01*
X404917Y217719D01*
X404861Y217635D01*
X404808Y217550D01*
X404759Y217462D01*
X404713Y217373D01*
X404670Y217281D01*
X404631Y217188D01*
X404596Y217094D01*
X404564Y216999D01*
X404536Y216902D01*
X404512Y216804D01*
X404492Y216706D01*
X404475Y216606D01*
X404463Y216506D01*
X404454Y216406D01*
X404449Y216305D01*
X404448Y216205D01*
X404451Y216104D01*
X404458Y216004D01*
X404469Y215904D01*
X404483Y215804D01*
X404502Y215705D01*
X404524Y215607D01*
X404550Y215510D01*
X404580Y215413D01*
X404613Y215319D01*
X404650Y215225D01*
X404691Y215133D01*
X404736Y215042D01*
X404783Y214954D01*
X404835Y214867D01*
X404889Y214783D01*
X404947Y214700D01*
X405008Y214620D01*
X405072Y214542D01*
X405139Y214467D01*
X405208Y214394D01*
X405281Y214325D01*
X405356Y214258D01*
X405434Y214194D01*
X405514Y214133D01*
X405597Y214075D01*
X405681Y214021D01*
X405768Y213969D01*
X405856Y213922D01*
X405947Y213877D01*
X406039Y213836D01*
X406132Y213799D01*
X406227Y213766D01*
X406324Y213736D01*
X406421Y213710D01*
X406519Y213688D01*
X406618Y213669D01*
X406718Y213655D01*
X406818Y213644D01*
X406918Y213637D01*
X407019Y213634D01*
X407119Y213635D01*
X407220Y213640D01*
X407320Y213649D01*
X407420Y213661D01*
X407520Y213678D01*
X407618Y213698D01*
X407716Y213722D01*
X407813Y213750D01*
X407908Y213782D01*
X408002Y213817D01*
X408095Y213856D01*
X408187Y213899D01*
X408276Y213945D01*
X408364Y213994D01*
X408449Y214047D01*
X408533Y214103D01*
X410660Y215593D01*
X282271Y207297D02*
X279612Y209159D01*
X279612Y209158D02*
X279521Y209225D01*
X279431Y209294D01*
X279344Y209367D01*
X279260Y209443D01*
X279179Y209522D01*
X279100Y209603D01*
X279024Y209687D01*
X278951Y209774D01*
X278882Y209864D01*
X278815Y209955D01*
X278752Y210049D01*
X278692Y210145D01*
X278635Y210243D01*
X278582Y210343D01*
X278532Y210445D01*
X278486Y210549D01*
X278444Y210654D01*
X278405Y210760D01*
X278370Y210868D01*
X278339Y210977D01*
X278311Y211087D01*
X278288Y211198D01*
X278268Y211309D01*
X278252Y211421D01*
X278240Y211534D01*
X278232Y211647D01*
X278228Y211760D01*
X278228Y211874D01*
X278232Y211987D01*
X278240Y212100D01*
X278252Y212213D01*
X278268Y212325D01*
X278288Y212436D01*
X278311Y212547D01*
X278339Y212657D01*
X278370Y212766D01*
X278405Y212874D01*
X278444Y212980D01*
X278486Y213085D01*
X278532Y213189D01*
X278582Y213291D01*
X278635Y213391D01*
X278692Y213489D01*
X278752Y213585D01*
X278815Y213679D01*
X278882Y213770D01*
X278951Y213860D01*
X279024Y213947D01*
X279100Y214031D01*
X279179Y214112D01*
X279260Y214191D01*
X279344Y214267D01*
X279431Y214340D01*
X279520Y214409D01*
X279612Y214476D01*
X279706Y214539D01*
X279802Y214599D01*
X279900Y214656D01*
X280000Y214709D01*
X280102Y214759D01*
X280206Y214805D01*
X280311Y214847D01*
X280417Y214886D01*
X280525Y214921D01*
X280634Y214952D01*
X280744Y214980D01*
X280855Y215003D01*
X280966Y215023D01*
X281078Y215039D01*
X281191Y215051D01*
X281304Y215059D01*
X281417Y215063D01*
X281531Y215063D01*
X281644Y215059D01*
X281757Y215051D01*
X281870Y215039D01*
X281982Y215023D01*
X282093Y215003D01*
X282204Y214980D01*
X282314Y214952D01*
X282423Y214921D01*
X282531Y214886D01*
X282637Y214847D01*
X282742Y214805D01*
X282846Y214759D01*
X282948Y214709D01*
X283048Y214656D01*
X283146Y214599D01*
X283242Y214539D01*
X283336Y214476D01*
X285782Y219102D02*
X288972Y216868D01*
X285782Y219102D02*
X285698Y219158D01*
X285613Y219211D01*
X285525Y219260D01*
X285436Y219306D01*
X285344Y219349D01*
X285251Y219388D01*
X285157Y219423D01*
X285062Y219455D01*
X284965Y219483D01*
X284867Y219507D01*
X284769Y219527D01*
X284669Y219544D01*
X284569Y219556D01*
X284469Y219565D01*
X284369Y219570D01*
X284268Y219571D01*
X284167Y219568D01*
X284067Y219561D01*
X283967Y219550D01*
X283867Y219536D01*
X283768Y219517D01*
X283670Y219495D01*
X283573Y219469D01*
X283476Y219439D01*
X283382Y219406D01*
X283288Y219369D01*
X283196Y219328D01*
X283105Y219283D01*
X283017Y219236D01*
X282930Y219184D01*
X282846Y219130D01*
X282763Y219072D01*
X282683Y219011D01*
X282605Y218947D01*
X282530Y218880D01*
X282457Y218811D01*
X282388Y218738D01*
X282321Y218663D01*
X282257Y218585D01*
X282196Y218505D01*
X282138Y218422D01*
X282084Y218338D01*
X282032Y218251D01*
X281985Y218163D01*
X281940Y218072D01*
X281899Y217980D01*
X281862Y217886D01*
X281829Y217792D01*
X281799Y217695D01*
X281773Y217598D01*
X281751Y217500D01*
X281732Y217401D01*
X281718Y217301D01*
X281707Y217201D01*
X281700Y217101D01*
X281697Y217000D01*
X281698Y216899D01*
X281703Y216799D01*
X281712Y216699D01*
X281724Y216599D01*
X281741Y216499D01*
X281761Y216401D01*
X281785Y216303D01*
X281813Y216206D01*
X281845Y216111D01*
X281880Y216017D01*
X281919Y215924D01*
X281962Y215832D01*
X282008Y215743D01*
X282057Y215655D01*
X282110Y215570D01*
X282166Y215486D01*
X282226Y215405D01*
X282288Y215326D01*
X282354Y215249D01*
X282422Y215175D01*
X282493Y215104D01*
X282567Y215036D01*
X282644Y214970D01*
X282723Y214908D01*
X282804Y214848D01*
X284930Y213359D01*
X280141Y223052D02*
X270249Y215714D01*
X273761Y227519D01*
X263545Y220409D02*
X260886Y222270D01*
X260795Y222337D01*
X260705Y222406D01*
X260618Y222479D01*
X260534Y222555D01*
X260453Y222634D01*
X260374Y222715D01*
X260298Y222799D01*
X260225Y222886D01*
X260156Y222976D01*
X260089Y223067D01*
X260026Y223161D01*
X259966Y223257D01*
X259909Y223355D01*
X259856Y223455D01*
X259806Y223557D01*
X259760Y223661D01*
X259718Y223766D01*
X259679Y223872D01*
X259644Y223980D01*
X259613Y224089D01*
X259585Y224199D01*
X259562Y224310D01*
X259542Y224421D01*
X259526Y224533D01*
X259514Y224646D01*
X259506Y224759D01*
X259502Y224872D01*
X259502Y224986D01*
X259506Y225099D01*
X259514Y225212D01*
X259526Y225325D01*
X259542Y225437D01*
X259562Y225548D01*
X259585Y225659D01*
X259613Y225769D01*
X259644Y225878D01*
X259679Y225986D01*
X259718Y226092D01*
X259760Y226197D01*
X259806Y226301D01*
X259856Y226403D01*
X259909Y226503D01*
X259966Y226601D01*
X260026Y226697D01*
X260089Y226791D01*
X260156Y226882D01*
X260225Y226972D01*
X260298Y227059D01*
X260374Y227143D01*
X260453Y227224D01*
X260534Y227303D01*
X260618Y227379D01*
X260705Y227452D01*
X260794Y227521D01*
X260886Y227588D01*
X260980Y227651D01*
X261076Y227711D01*
X261174Y227768D01*
X261274Y227821D01*
X261376Y227871D01*
X261480Y227917D01*
X261585Y227959D01*
X261691Y227998D01*
X261799Y228033D01*
X261908Y228064D01*
X262018Y228092D01*
X262129Y228115D01*
X262240Y228135D01*
X262352Y228151D01*
X262465Y228163D01*
X262578Y228171D01*
X262691Y228175D01*
X262805Y228175D01*
X262918Y228171D01*
X263031Y228163D01*
X263144Y228151D01*
X263256Y228135D01*
X263367Y228115D01*
X263478Y228092D01*
X263588Y228064D01*
X263697Y228033D01*
X263805Y227998D01*
X263911Y227959D01*
X264016Y227917D01*
X264120Y227871D01*
X264222Y227821D01*
X264322Y227768D01*
X264420Y227711D01*
X264516Y227651D01*
X264610Y227588D01*
X267056Y232214D02*
X270247Y229980D01*
X267056Y232214D02*
X266972Y232270D01*
X266887Y232323D01*
X266799Y232372D01*
X266710Y232418D01*
X266618Y232461D01*
X266525Y232500D01*
X266431Y232535D01*
X266336Y232567D01*
X266239Y232595D01*
X266141Y232619D01*
X266043Y232639D01*
X265943Y232656D01*
X265843Y232668D01*
X265743Y232677D01*
X265643Y232682D01*
X265542Y232683D01*
X265441Y232680D01*
X265341Y232673D01*
X265241Y232662D01*
X265141Y232648D01*
X265042Y232629D01*
X264944Y232607D01*
X264847Y232581D01*
X264750Y232551D01*
X264656Y232518D01*
X264562Y232481D01*
X264470Y232440D01*
X264379Y232395D01*
X264291Y232348D01*
X264204Y232296D01*
X264120Y232242D01*
X264037Y232184D01*
X263957Y232123D01*
X263879Y232059D01*
X263804Y231992D01*
X263731Y231923D01*
X263662Y231850D01*
X263595Y231775D01*
X263531Y231697D01*
X263470Y231617D01*
X263412Y231534D01*
X263358Y231450D01*
X263306Y231363D01*
X263259Y231275D01*
X263214Y231184D01*
X263173Y231092D01*
X263136Y230998D01*
X263103Y230904D01*
X263073Y230807D01*
X263047Y230710D01*
X263025Y230612D01*
X263006Y230513D01*
X262992Y230413D01*
X262981Y230313D01*
X262974Y230213D01*
X262971Y230112D01*
X262972Y230011D01*
X262977Y229911D01*
X262986Y229811D01*
X262998Y229711D01*
X263015Y229611D01*
X263035Y229513D01*
X263059Y229415D01*
X263087Y229318D01*
X263119Y229223D01*
X263154Y229129D01*
X263193Y229036D01*
X263236Y228944D01*
X263282Y228855D01*
X263331Y228767D01*
X263384Y228682D01*
X263440Y228598D01*
X263500Y228517D01*
X263562Y228438D01*
X263628Y228361D01*
X263696Y228287D01*
X263767Y228216D01*
X263841Y228148D01*
X263918Y228082D01*
X263997Y228020D01*
X264078Y227960D01*
X266205Y226471D01*
X195158Y331524D02*
X195158Y334770D01*
X195160Y334883D01*
X195166Y334996D01*
X195176Y335109D01*
X195190Y335222D01*
X195207Y335334D01*
X195229Y335445D01*
X195254Y335555D01*
X195284Y335665D01*
X195317Y335773D01*
X195354Y335880D01*
X195394Y335986D01*
X195439Y336090D01*
X195487Y336193D01*
X195538Y336294D01*
X195593Y336393D01*
X195651Y336490D01*
X195713Y336585D01*
X195778Y336678D01*
X195846Y336768D01*
X195917Y336856D01*
X195992Y336942D01*
X196069Y337025D01*
X196149Y337105D01*
X196232Y337182D01*
X196318Y337257D01*
X196406Y337328D01*
X196496Y337396D01*
X196589Y337461D01*
X196684Y337523D01*
X196781Y337581D01*
X196880Y337636D01*
X196981Y337687D01*
X197084Y337735D01*
X197188Y337780D01*
X197294Y337820D01*
X197401Y337857D01*
X197509Y337890D01*
X197619Y337920D01*
X197729Y337945D01*
X197840Y337967D01*
X197952Y337984D01*
X198065Y337998D01*
X198178Y338008D01*
X198291Y338014D01*
X198404Y338016D01*
X198517Y338014D01*
X198630Y338008D01*
X198743Y337998D01*
X198856Y337984D01*
X198968Y337967D01*
X199079Y337945D01*
X199189Y337920D01*
X199299Y337890D01*
X199407Y337857D01*
X199514Y337820D01*
X199620Y337780D01*
X199724Y337735D01*
X199827Y337687D01*
X199928Y337636D01*
X200027Y337581D01*
X200124Y337523D01*
X200219Y337461D01*
X200312Y337396D01*
X200402Y337328D01*
X200490Y337257D01*
X200576Y337182D01*
X200659Y337105D01*
X200739Y337025D01*
X200816Y336942D01*
X200891Y336856D01*
X200962Y336768D01*
X201030Y336678D01*
X201095Y336585D01*
X201157Y336490D01*
X201215Y336393D01*
X201270Y336294D01*
X201321Y336193D01*
X201369Y336090D01*
X201414Y335986D01*
X201454Y335880D01*
X201491Y335773D01*
X201524Y335665D01*
X201554Y335555D01*
X201579Y335445D01*
X201601Y335334D01*
X201618Y335222D01*
X201632Y335109D01*
X201642Y334996D01*
X201648Y334883D01*
X201650Y334770D01*
X206842Y335419D02*
X206842Y331524D01*
X206842Y335419D02*
X206840Y335520D01*
X206834Y335620D01*
X206824Y335720D01*
X206811Y335820D01*
X206793Y335919D01*
X206772Y336018D01*
X206747Y336115D01*
X206718Y336212D01*
X206685Y336307D01*
X206649Y336401D01*
X206609Y336493D01*
X206566Y336584D01*
X206519Y336673D01*
X206469Y336760D01*
X206415Y336846D01*
X206358Y336929D01*
X206298Y337009D01*
X206235Y337088D01*
X206168Y337164D01*
X206099Y337237D01*
X206027Y337307D01*
X205953Y337375D01*
X205876Y337440D01*
X205796Y337501D01*
X205714Y337560D01*
X205630Y337615D01*
X205544Y337667D01*
X205456Y337716D01*
X205366Y337761D01*
X205274Y337803D01*
X205181Y337841D01*
X205086Y337875D01*
X204991Y337906D01*
X204894Y337933D01*
X204796Y337956D01*
X204697Y337976D01*
X204597Y337991D01*
X204497Y338003D01*
X204397Y338011D01*
X204296Y338015D01*
X204196Y338015D01*
X204095Y338011D01*
X203995Y338003D01*
X203895Y337991D01*
X203795Y337976D01*
X203696Y337956D01*
X203598Y337933D01*
X203501Y337906D01*
X203406Y337875D01*
X203311Y337841D01*
X203218Y337803D01*
X203126Y337761D01*
X203036Y337716D01*
X202948Y337667D01*
X202862Y337615D01*
X202778Y337560D01*
X202696Y337501D01*
X202616Y337440D01*
X202539Y337375D01*
X202465Y337307D01*
X202393Y337237D01*
X202324Y337164D01*
X202257Y337088D01*
X202194Y337009D01*
X202134Y336929D01*
X202077Y336846D01*
X202023Y336760D01*
X201973Y336673D01*
X201926Y336584D01*
X201883Y336493D01*
X201843Y336401D01*
X201807Y336307D01*
X201774Y336212D01*
X201745Y336115D01*
X201720Y336018D01*
X201699Y335919D01*
X201681Y335820D01*
X201668Y335720D01*
X201658Y335620D01*
X201652Y335520D01*
X201650Y335419D01*
X201649Y335419D02*
X201649Y332823D01*
X206842Y342305D02*
X195158Y346200D01*
X206842Y350095D01*
X195158Y354384D02*
X195158Y357630D01*
X195160Y357743D01*
X195166Y357856D01*
X195176Y357969D01*
X195190Y358082D01*
X195207Y358194D01*
X195229Y358305D01*
X195254Y358415D01*
X195284Y358525D01*
X195317Y358633D01*
X195354Y358740D01*
X195394Y358846D01*
X195439Y358950D01*
X195487Y359053D01*
X195538Y359154D01*
X195593Y359253D01*
X195651Y359350D01*
X195713Y359445D01*
X195778Y359538D01*
X195846Y359628D01*
X195917Y359716D01*
X195992Y359802D01*
X196069Y359885D01*
X196149Y359965D01*
X196232Y360042D01*
X196318Y360117D01*
X196406Y360188D01*
X196496Y360256D01*
X196589Y360321D01*
X196684Y360383D01*
X196781Y360441D01*
X196880Y360496D01*
X196981Y360547D01*
X197084Y360595D01*
X197188Y360640D01*
X197294Y360680D01*
X197401Y360717D01*
X197509Y360750D01*
X197619Y360780D01*
X197729Y360805D01*
X197840Y360827D01*
X197952Y360844D01*
X198065Y360858D01*
X198178Y360868D01*
X198291Y360874D01*
X198404Y360876D01*
X198517Y360874D01*
X198630Y360868D01*
X198743Y360858D01*
X198856Y360844D01*
X198968Y360827D01*
X199079Y360805D01*
X199189Y360780D01*
X199299Y360750D01*
X199407Y360717D01*
X199514Y360680D01*
X199620Y360640D01*
X199724Y360595D01*
X199827Y360547D01*
X199928Y360496D01*
X200027Y360441D01*
X200124Y360383D01*
X200219Y360321D01*
X200312Y360256D01*
X200402Y360188D01*
X200490Y360117D01*
X200576Y360042D01*
X200659Y359965D01*
X200739Y359885D01*
X200816Y359802D01*
X200891Y359716D01*
X200962Y359628D01*
X201030Y359538D01*
X201095Y359445D01*
X201157Y359350D01*
X201215Y359253D01*
X201270Y359154D01*
X201321Y359053D01*
X201369Y358950D01*
X201414Y358846D01*
X201454Y358740D01*
X201491Y358633D01*
X201524Y358525D01*
X201554Y358415D01*
X201579Y358305D01*
X201601Y358194D01*
X201618Y358082D01*
X201632Y357969D01*
X201642Y357856D01*
X201648Y357743D01*
X201650Y357630D01*
X206842Y358279D02*
X206842Y354384D01*
X206842Y358279D02*
X206840Y358380D01*
X206834Y358480D01*
X206824Y358580D01*
X206811Y358680D01*
X206793Y358779D01*
X206772Y358878D01*
X206747Y358975D01*
X206718Y359072D01*
X206685Y359167D01*
X206649Y359261D01*
X206609Y359353D01*
X206566Y359444D01*
X206519Y359533D01*
X206469Y359620D01*
X206415Y359706D01*
X206358Y359789D01*
X206298Y359869D01*
X206235Y359948D01*
X206168Y360024D01*
X206099Y360097D01*
X206027Y360167D01*
X205953Y360235D01*
X205876Y360300D01*
X205796Y360361D01*
X205714Y360420D01*
X205630Y360475D01*
X205544Y360527D01*
X205456Y360576D01*
X205366Y360621D01*
X205274Y360663D01*
X205181Y360701D01*
X205086Y360735D01*
X204991Y360766D01*
X204894Y360793D01*
X204796Y360816D01*
X204697Y360836D01*
X204597Y360851D01*
X204497Y360863D01*
X204397Y360871D01*
X204296Y360875D01*
X204196Y360875D01*
X204095Y360871D01*
X203995Y360863D01*
X203895Y360851D01*
X203795Y360836D01*
X203696Y360816D01*
X203598Y360793D01*
X203501Y360766D01*
X203406Y360735D01*
X203311Y360701D01*
X203218Y360663D01*
X203126Y360621D01*
X203036Y360576D01*
X202948Y360527D01*
X202862Y360475D01*
X202778Y360420D01*
X202696Y360361D01*
X202616Y360300D01*
X202539Y360235D01*
X202465Y360167D01*
X202393Y360097D01*
X202324Y360024D01*
X202257Y359948D01*
X202194Y359869D01*
X202134Y359789D01*
X202077Y359706D01*
X202023Y359620D01*
X201973Y359533D01*
X201926Y359444D01*
X201883Y359353D01*
X201843Y359261D01*
X201807Y359167D01*
X201774Y359072D01*
X201745Y358975D01*
X201720Y358878D01*
X201699Y358779D01*
X201681Y358680D01*
X201668Y358580D01*
X201658Y358480D01*
X201652Y358380D01*
X201650Y358279D01*
X201649Y358279D02*
X201649Y355683D01*
X286314Y473670D02*
X288972Y475532D01*
X286314Y473670D02*
X286220Y473607D01*
X286124Y473547D01*
X286026Y473490D01*
X285926Y473437D01*
X285824Y473387D01*
X285720Y473341D01*
X285615Y473299D01*
X285509Y473260D01*
X285401Y473225D01*
X285292Y473194D01*
X285182Y473166D01*
X285071Y473143D01*
X284960Y473123D01*
X284848Y473107D01*
X284735Y473095D01*
X284622Y473087D01*
X284509Y473083D01*
X284395Y473083D01*
X284282Y473087D01*
X284169Y473095D01*
X284056Y473107D01*
X283944Y473123D01*
X283833Y473143D01*
X283722Y473166D01*
X283612Y473194D01*
X283503Y473225D01*
X283395Y473260D01*
X283289Y473299D01*
X283184Y473341D01*
X283080Y473387D01*
X282978Y473437D01*
X282878Y473490D01*
X282780Y473547D01*
X282684Y473607D01*
X282590Y473670D01*
X282499Y473737D01*
X282409Y473806D01*
X282322Y473879D01*
X282238Y473955D01*
X282157Y474034D01*
X282078Y474115D01*
X282002Y474199D01*
X281929Y474286D01*
X281860Y474376D01*
X281793Y474467D01*
X281730Y474561D01*
X281670Y474657D01*
X281613Y474755D01*
X281560Y474855D01*
X281510Y474957D01*
X281464Y475061D01*
X281422Y475166D01*
X281383Y475272D01*
X281348Y475380D01*
X281317Y475489D01*
X281289Y475599D01*
X281266Y475710D01*
X281246Y475821D01*
X281230Y475933D01*
X281218Y476046D01*
X281210Y476159D01*
X281206Y476272D01*
X281206Y476386D01*
X281210Y476499D01*
X281218Y476612D01*
X281230Y476725D01*
X281246Y476837D01*
X281266Y476948D01*
X281289Y477059D01*
X281317Y477169D01*
X281348Y477278D01*
X281383Y477386D01*
X281422Y477492D01*
X281464Y477597D01*
X281510Y477701D01*
X281560Y477803D01*
X281613Y477903D01*
X281670Y478001D01*
X281730Y478097D01*
X281793Y478191D01*
X281860Y478282D01*
X281929Y478372D01*
X282002Y478459D01*
X282078Y478543D01*
X282157Y478624D01*
X282238Y478703D01*
X282322Y478779D01*
X282409Y478852D01*
X282499Y478921D01*
X282590Y478988D01*
X279080Y482869D02*
X282271Y485103D01*
X279081Y482869D02*
X279000Y482809D01*
X278921Y482747D01*
X278844Y482681D01*
X278770Y482613D01*
X278699Y482542D01*
X278631Y482468D01*
X278565Y482391D01*
X278503Y482312D01*
X278443Y482231D01*
X278387Y482147D01*
X278334Y482062D01*
X278285Y481974D01*
X278239Y481885D01*
X278196Y481793D01*
X278157Y481700D01*
X278122Y481606D01*
X278090Y481511D01*
X278062Y481414D01*
X278038Y481316D01*
X278018Y481218D01*
X278001Y481118D01*
X277989Y481018D01*
X277980Y480918D01*
X277975Y480817D01*
X277974Y480717D01*
X277977Y480616D01*
X277984Y480516D01*
X277995Y480416D01*
X278009Y480316D01*
X278028Y480217D01*
X278050Y480119D01*
X278076Y480022D01*
X278106Y479925D01*
X278139Y479831D01*
X278176Y479737D01*
X278217Y479645D01*
X278262Y479554D01*
X278309Y479466D01*
X278361Y479379D01*
X278415Y479295D01*
X278473Y479212D01*
X278534Y479132D01*
X278598Y479054D01*
X278665Y478979D01*
X278734Y478906D01*
X278807Y478837D01*
X278882Y478770D01*
X278960Y478706D01*
X279040Y478645D01*
X279123Y478587D01*
X279207Y478533D01*
X279294Y478481D01*
X279382Y478434D01*
X279473Y478389D01*
X279565Y478348D01*
X279658Y478311D01*
X279753Y478278D01*
X279850Y478248D01*
X279947Y478222D01*
X280045Y478200D01*
X280144Y478181D01*
X280244Y478167D01*
X280344Y478156D01*
X280444Y478149D01*
X280545Y478146D01*
X280645Y478147D01*
X280746Y478152D01*
X280846Y478161D01*
X280946Y478173D01*
X281046Y478190D01*
X281144Y478210D01*
X281242Y478234D01*
X281339Y478262D01*
X281434Y478294D01*
X281528Y478329D01*
X281621Y478368D01*
X281713Y478411D01*
X281802Y478457D01*
X281890Y478506D01*
X281975Y478559D01*
X282059Y478615D01*
X284186Y480105D01*
X273440Y478919D02*
X276951Y467114D01*
X267059Y474452D01*
X270247Y462420D02*
X267588Y460558D01*
X267494Y460495D01*
X267398Y460435D01*
X267300Y460378D01*
X267200Y460325D01*
X267098Y460275D01*
X266994Y460229D01*
X266889Y460187D01*
X266783Y460148D01*
X266675Y460113D01*
X266566Y460082D01*
X266456Y460054D01*
X266345Y460031D01*
X266234Y460011D01*
X266122Y459995D01*
X266009Y459983D01*
X265896Y459975D01*
X265783Y459971D01*
X265669Y459971D01*
X265556Y459975D01*
X265443Y459983D01*
X265330Y459995D01*
X265218Y460011D01*
X265107Y460031D01*
X264996Y460054D01*
X264886Y460082D01*
X264777Y460113D01*
X264669Y460148D01*
X264563Y460187D01*
X264458Y460229D01*
X264354Y460275D01*
X264252Y460325D01*
X264152Y460378D01*
X264054Y460435D01*
X263958Y460495D01*
X263864Y460558D01*
X263773Y460625D01*
X263683Y460694D01*
X263596Y460767D01*
X263512Y460843D01*
X263431Y460922D01*
X263352Y461003D01*
X263276Y461087D01*
X263203Y461174D01*
X263134Y461264D01*
X263067Y461355D01*
X263004Y461449D01*
X262944Y461545D01*
X262887Y461643D01*
X262834Y461743D01*
X262784Y461845D01*
X262738Y461949D01*
X262696Y462054D01*
X262657Y462160D01*
X262622Y462268D01*
X262591Y462377D01*
X262563Y462487D01*
X262540Y462598D01*
X262520Y462709D01*
X262504Y462821D01*
X262492Y462934D01*
X262484Y463047D01*
X262480Y463160D01*
X262480Y463274D01*
X262484Y463387D01*
X262492Y463500D01*
X262504Y463613D01*
X262520Y463725D01*
X262540Y463836D01*
X262563Y463947D01*
X262591Y464057D01*
X262622Y464166D01*
X262657Y464274D01*
X262696Y464380D01*
X262738Y464485D01*
X262784Y464589D01*
X262834Y464691D01*
X262887Y464791D01*
X262944Y464889D01*
X263004Y464985D01*
X263067Y465079D01*
X263134Y465170D01*
X263203Y465260D01*
X263276Y465347D01*
X263352Y465431D01*
X263431Y465512D01*
X263512Y465591D01*
X263596Y465667D01*
X263683Y465740D01*
X263773Y465809D01*
X263864Y465876D01*
X260355Y469757D02*
X263545Y471991D01*
X260355Y469757D02*
X260274Y469697D01*
X260195Y469635D01*
X260118Y469569D01*
X260044Y469501D01*
X259973Y469430D01*
X259905Y469356D01*
X259839Y469279D01*
X259777Y469200D01*
X259717Y469119D01*
X259661Y469035D01*
X259608Y468950D01*
X259559Y468862D01*
X259513Y468773D01*
X259470Y468681D01*
X259431Y468588D01*
X259396Y468494D01*
X259364Y468399D01*
X259336Y468302D01*
X259312Y468204D01*
X259292Y468106D01*
X259275Y468006D01*
X259263Y467906D01*
X259254Y467806D01*
X259249Y467705D01*
X259248Y467605D01*
X259251Y467504D01*
X259258Y467404D01*
X259269Y467304D01*
X259283Y467204D01*
X259302Y467105D01*
X259324Y467007D01*
X259350Y466910D01*
X259380Y466813D01*
X259413Y466719D01*
X259450Y466625D01*
X259491Y466533D01*
X259536Y466442D01*
X259583Y466354D01*
X259635Y466267D01*
X259689Y466183D01*
X259747Y466100D01*
X259808Y466020D01*
X259872Y465942D01*
X259939Y465867D01*
X260008Y465794D01*
X260081Y465725D01*
X260156Y465658D01*
X260234Y465594D01*
X260314Y465533D01*
X260397Y465475D01*
X260481Y465421D01*
X260568Y465369D01*
X260656Y465322D01*
X260747Y465277D01*
X260839Y465236D01*
X260932Y465199D01*
X261027Y465166D01*
X261124Y465136D01*
X261221Y465110D01*
X261319Y465088D01*
X261418Y465069D01*
X261518Y465055D01*
X261618Y465044D01*
X261718Y465037D01*
X261819Y465034D01*
X261919Y465035D01*
X262020Y465040D01*
X262120Y465049D01*
X262220Y465061D01*
X262320Y465078D01*
X262418Y465098D01*
X262516Y465122D01*
X262613Y465150D01*
X262708Y465182D01*
X262802Y465217D01*
X262895Y465256D01*
X262987Y465299D01*
X263076Y465345D01*
X263164Y465394D01*
X263249Y465447D01*
X263333Y465503D01*
X265460Y466993D01*
D10*
X453726Y418240D02*
X453726Y400460D01*
X453726Y418240D02*
X448788Y418240D01*
X448648Y418238D01*
X448509Y418232D01*
X448369Y418222D01*
X448230Y418208D01*
X448091Y418191D01*
X447953Y418169D01*
X447816Y418143D01*
X447679Y418114D01*
X447543Y418081D01*
X447409Y418044D01*
X447275Y418003D01*
X447143Y417958D01*
X447011Y417909D01*
X446882Y417857D01*
X446754Y417802D01*
X446627Y417742D01*
X446502Y417679D01*
X446379Y417613D01*
X446258Y417543D01*
X446139Y417470D01*
X446022Y417393D01*
X445908Y417313D01*
X445795Y417230D01*
X445685Y417144D01*
X445578Y417054D01*
X445473Y416962D01*
X445371Y416867D01*
X445271Y416769D01*
X445174Y416668D01*
X445080Y416564D01*
X444990Y416458D01*
X444902Y416349D01*
X444817Y416238D01*
X444736Y416124D01*
X444657Y416009D01*
X444582Y415891D01*
X444511Y415771D01*
X444443Y415648D01*
X444378Y415525D01*
X444317Y415399D01*
X444259Y415271D01*
X444205Y415143D01*
X444155Y415012D01*
X444108Y414880D01*
X444065Y414747D01*
X444026Y414613D01*
X443991Y414478D01*
X443960Y414342D01*
X443932Y414204D01*
X443909Y414067D01*
X443889Y413928D01*
X443873Y413789D01*
X443861Y413650D01*
X443853Y413511D01*
X443849Y413371D01*
X443849Y413231D01*
X443853Y413091D01*
X443861Y412952D01*
X443873Y412813D01*
X443889Y412674D01*
X443909Y412535D01*
X443932Y412398D01*
X443960Y412260D01*
X443991Y412124D01*
X444026Y411989D01*
X444065Y411855D01*
X444108Y411722D01*
X444155Y411590D01*
X444205Y411459D01*
X444259Y411331D01*
X444317Y411203D01*
X444378Y411077D01*
X444443Y410954D01*
X444511Y410832D01*
X444582Y410711D01*
X444657Y410593D01*
X444736Y410478D01*
X444817Y410364D01*
X444902Y410253D01*
X444990Y410144D01*
X445080Y410038D01*
X445174Y409934D01*
X445271Y409833D01*
X445371Y409735D01*
X445473Y409640D01*
X445578Y409548D01*
X445685Y409458D01*
X445795Y409372D01*
X445908Y409289D01*
X446022Y409209D01*
X446139Y409132D01*
X446258Y409059D01*
X446379Y408989D01*
X446502Y408923D01*
X446627Y408860D01*
X446754Y408800D01*
X446882Y408745D01*
X447011Y408693D01*
X447143Y408644D01*
X447275Y408599D01*
X447409Y408558D01*
X447543Y408521D01*
X447679Y408488D01*
X447816Y408459D01*
X447953Y408433D01*
X448091Y408411D01*
X448230Y408394D01*
X448369Y408380D01*
X448509Y408370D01*
X448648Y408364D01*
X448788Y408362D01*
X453726Y408362D01*
X437731Y414289D02*
X432792Y418240D01*
X432792Y400460D01*
X427854Y400460D02*
X437731Y400460D01*
X453141Y268394D02*
X453141Y250614D01*
X453141Y268394D02*
X448202Y268394D01*
X448062Y268392D01*
X447923Y268386D01*
X447783Y268376D01*
X447644Y268362D01*
X447505Y268345D01*
X447367Y268323D01*
X447230Y268297D01*
X447093Y268268D01*
X446957Y268235D01*
X446823Y268198D01*
X446689Y268157D01*
X446557Y268112D01*
X446425Y268063D01*
X446296Y268011D01*
X446168Y267956D01*
X446041Y267896D01*
X445916Y267833D01*
X445793Y267767D01*
X445672Y267697D01*
X445553Y267624D01*
X445436Y267547D01*
X445322Y267467D01*
X445209Y267384D01*
X445099Y267298D01*
X444992Y267208D01*
X444887Y267116D01*
X444785Y267021D01*
X444685Y266923D01*
X444588Y266822D01*
X444494Y266718D01*
X444404Y266612D01*
X444316Y266503D01*
X444231Y266392D01*
X444150Y266278D01*
X444071Y266163D01*
X443996Y266045D01*
X443925Y265925D01*
X443857Y265802D01*
X443792Y265679D01*
X443731Y265553D01*
X443673Y265425D01*
X443619Y265297D01*
X443569Y265166D01*
X443522Y265034D01*
X443479Y264901D01*
X443440Y264767D01*
X443405Y264632D01*
X443374Y264496D01*
X443346Y264358D01*
X443323Y264221D01*
X443303Y264082D01*
X443287Y263943D01*
X443275Y263804D01*
X443267Y263665D01*
X443263Y263525D01*
X443263Y263385D01*
X443267Y263245D01*
X443275Y263106D01*
X443287Y262967D01*
X443303Y262828D01*
X443323Y262689D01*
X443346Y262552D01*
X443374Y262414D01*
X443405Y262278D01*
X443440Y262143D01*
X443479Y262009D01*
X443522Y261876D01*
X443569Y261744D01*
X443619Y261613D01*
X443673Y261485D01*
X443731Y261357D01*
X443792Y261231D01*
X443857Y261108D01*
X443925Y260985D01*
X443996Y260865D01*
X444071Y260747D01*
X444150Y260632D01*
X444231Y260518D01*
X444316Y260407D01*
X444404Y260298D01*
X444494Y260192D01*
X444588Y260088D01*
X444685Y259987D01*
X444785Y259889D01*
X444887Y259794D01*
X444992Y259702D01*
X445099Y259612D01*
X445209Y259526D01*
X445322Y259443D01*
X445436Y259363D01*
X445553Y259286D01*
X445672Y259213D01*
X445793Y259143D01*
X445916Y259077D01*
X446041Y259014D01*
X446168Y258954D01*
X446296Y258899D01*
X446425Y258847D01*
X446557Y258798D01*
X446689Y258753D01*
X446823Y258712D01*
X446957Y258675D01*
X447093Y258642D01*
X447230Y258613D01*
X447367Y258587D01*
X447505Y258565D01*
X447644Y258548D01*
X447783Y258534D01*
X447923Y258524D01*
X448062Y258518D01*
X448202Y258516D01*
X453141Y258516D01*
X431713Y268394D02*
X431581Y268392D01*
X431450Y268386D01*
X431318Y268376D01*
X431187Y268363D01*
X431057Y268345D01*
X430927Y268324D01*
X430797Y268299D01*
X430669Y268270D01*
X430541Y268237D01*
X430415Y268200D01*
X430289Y268160D01*
X430165Y268116D01*
X430042Y268068D01*
X429921Y268017D01*
X429801Y267962D01*
X429683Y267904D01*
X429567Y267842D01*
X429453Y267776D01*
X429340Y267708D01*
X429230Y267636D01*
X429122Y267561D01*
X429016Y267482D01*
X428912Y267401D01*
X428811Y267316D01*
X428713Y267229D01*
X428617Y267138D01*
X428524Y267045D01*
X428433Y266949D01*
X428346Y266851D01*
X428261Y266750D01*
X428180Y266646D01*
X428101Y266540D01*
X428026Y266432D01*
X427954Y266322D01*
X427886Y266209D01*
X427820Y266095D01*
X427758Y265979D01*
X427700Y265861D01*
X427645Y265741D01*
X427594Y265620D01*
X427546Y265497D01*
X427502Y265373D01*
X427462Y265247D01*
X427425Y265121D01*
X427392Y264993D01*
X427363Y264865D01*
X427338Y264735D01*
X427317Y264605D01*
X427299Y264475D01*
X427286Y264344D01*
X427276Y264212D01*
X427270Y264081D01*
X427268Y263949D01*
X431713Y268395D02*
X431863Y268393D01*
X432012Y268387D01*
X432161Y268377D01*
X432310Y268364D01*
X432459Y268346D01*
X432607Y268325D01*
X432755Y268299D01*
X432901Y268270D01*
X433047Y268237D01*
X433192Y268200D01*
X433336Y268159D01*
X433479Y268115D01*
X433621Y268067D01*
X433761Y268015D01*
X433900Y267960D01*
X434038Y267901D01*
X434173Y267838D01*
X434308Y267772D01*
X434440Y267702D01*
X434570Y267629D01*
X434699Y267552D01*
X434826Y267472D01*
X434950Y267389D01*
X435072Y267303D01*
X435192Y267213D01*
X435309Y267120D01*
X435424Y267025D01*
X435537Y266926D01*
X435647Y266824D01*
X435754Y266720D01*
X435858Y266613D01*
X435960Y266503D01*
X436058Y266390D01*
X436154Y266275D01*
X436246Y266157D01*
X436336Y266037D01*
X436422Y265915D01*
X436505Y265791D01*
X436585Y265664D01*
X436661Y265536D01*
X436734Y265405D01*
X436804Y265272D01*
X436870Y265138D01*
X436932Y265002D01*
X436991Y264865D01*
X437047Y264726D01*
X437098Y264585D01*
X437146Y264444D01*
X428750Y260492D02*
X428654Y260585D01*
X428562Y260681D01*
X428472Y260780D01*
X428385Y260881D01*
X428301Y260984D01*
X428219Y261089D01*
X428141Y261197D01*
X428066Y261307D01*
X427993Y261419D01*
X427924Y261533D01*
X427858Y261649D01*
X427796Y261767D01*
X427737Y261886D01*
X427681Y262007D01*
X427628Y262130D01*
X427579Y262254D01*
X427534Y262379D01*
X427491Y262506D01*
X427453Y262633D01*
X427418Y262762D01*
X427387Y262891D01*
X427359Y263022D01*
X427335Y263153D01*
X427314Y263285D01*
X427298Y263417D01*
X427285Y263550D01*
X427275Y263683D01*
X427270Y263816D01*
X427268Y263949D01*
X428750Y260492D02*
X437146Y250614D01*
X427268Y250614D01*
X414898Y257529D02*
X414898Y263455D01*
X414898Y257529D02*
X411441Y253084D01*
X414898Y257529D02*
X418355Y253084D01*
X414898Y257529D02*
X409465Y259504D01*
X414898Y257529D02*
X420331Y259504D01*
X359136Y233490D02*
X359136Y215710D01*
X359136Y233490D02*
X354198Y233490D01*
X354058Y233488D01*
X353919Y233482D01*
X353779Y233472D01*
X353640Y233458D01*
X353501Y233441D01*
X353363Y233419D01*
X353226Y233393D01*
X353089Y233364D01*
X352953Y233331D01*
X352819Y233294D01*
X352685Y233253D01*
X352553Y233208D01*
X352421Y233159D01*
X352292Y233107D01*
X352164Y233052D01*
X352037Y232992D01*
X351912Y232929D01*
X351789Y232863D01*
X351668Y232793D01*
X351549Y232720D01*
X351432Y232643D01*
X351318Y232563D01*
X351205Y232480D01*
X351095Y232394D01*
X350988Y232304D01*
X350883Y232212D01*
X350781Y232117D01*
X350681Y232019D01*
X350584Y231918D01*
X350490Y231814D01*
X350400Y231708D01*
X350312Y231599D01*
X350227Y231488D01*
X350146Y231374D01*
X350067Y231259D01*
X349992Y231141D01*
X349921Y231021D01*
X349853Y230898D01*
X349788Y230775D01*
X349727Y230649D01*
X349669Y230521D01*
X349615Y230393D01*
X349565Y230262D01*
X349518Y230130D01*
X349475Y229997D01*
X349436Y229863D01*
X349401Y229728D01*
X349370Y229592D01*
X349342Y229454D01*
X349319Y229317D01*
X349299Y229178D01*
X349283Y229039D01*
X349271Y228900D01*
X349263Y228761D01*
X349259Y228621D01*
X349259Y228481D01*
X349263Y228341D01*
X349271Y228202D01*
X349283Y228063D01*
X349299Y227924D01*
X349319Y227785D01*
X349342Y227648D01*
X349370Y227510D01*
X349401Y227374D01*
X349436Y227239D01*
X349475Y227105D01*
X349518Y226972D01*
X349565Y226840D01*
X349615Y226709D01*
X349669Y226581D01*
X349727Y226453D01*
X349788Y226327D01*
X349853Y226204D01*
X349921Y226081D01*
X349992Y225961D01*
X350067Y225843D01*
X350146Y225728D01*
X350227Y225614D01*
X350312Y225503D01*
X350400Y225394D01*
X350490Y225288D01*
X350584Y225184D01*
X350681Y225083D01*
X350781Y224985D01*
X350883Y224890D01*
X350988Y224798D01*
X351095Y224708D01*
X351205Y224622D01*
X351318Y224539D01*
X351432Y224459D01*
X351549Y224382D01*
X351668Y224309D01*
X351789Y224239D01*
X351912Y224173D01*
X352037Y224110D01*
X352164Y224050D01*
X352292Y223995D01*
X352421Y223943D01*
X352553Y223894D01*
X352685Y223849D01*
X352819Y223808D01*
X352953Y223771D01*
X353089Y223738D01*
X353226Y223709D01*
X353363Y223683D01*
X353501Y223661D01*
X353640Y223644D01*
X353779Y223630D01*
X353919Y223620D01*
X354058Y223614D01*
X354198Y223612D01*
X359136Y223612D01*
X343141Y215710D02*
X338202Y215710D01*
X338062Y215712D01*
X337923Y215718D01*
X337783Y215728D01*
X337644Y215742D01*
X337505Y215759D01*
X337367Y215781D01*
X337230Y215807D01*
X337093Y215836D01*
X336957Y215869D01*
X336823Y215906D01*
X336689Y215947D01*
X336557Y215992D01*
X336425Y216041D01*
X336296Y216093D01*
X336168Y216148D01*
X336041Y216208D01*
X335916Y216271D01*
X335793Y216337D01*
X335672Y216407D01*
X335553Y216480D01*
X335436Y216557D01*
X335322Y216637D01*
X335209Y216720D01*
X335099Y216806D01*
X334992Y216896D01*
X334887Y216988D01*
X334785Y217083D01*
X334685Y217181D01*
X334588Y217282D01*
X334494Y217386D01*
X334404Y217492D01*
X334316Y217601D01*
X334231Y217712D01*
X334150Y217826D01*
X334071Y217941D01*
X333996Y218059D01*
X333925Y218179D01*
X333857Y218302D01*
X333792Y218425D01*
X333731Y218551D01*
X333673Y218679D01*
X333619Y218807D01*
X333569Y218938D01*
X333522Y219070D01*
X333479Y219203D01*
X333440Y219337D01*
X333405Y219472D01*
X333374Y219608D01*
X333346Y219746D01*
X333323Y219883D01*
X333303Y220022D01*
X333287Y220161D01*
X333275Y220300D01*
X333267Y220439D01*
X333263Y220579D01*
X333263Y220719D01*
X333267Y220859D01*
X333275Y220998D01*
X333287Y221137D01*
X333303Y221276D01*
X333323Y221415D01*
X333346Y221552D01*
X333374Y221690D01*
X333405Y221826D01*
X333440Y221961D01*
X333479Y222095D01*
X333522Y222228D01*
X333569Y222360D01*
X333619Y222491D01*
X333673Y222619D01*
X333731Y222747D01*
X333792Y222873D01*
X333857Y222996D01*
X333925Y223119D01*
X333996Y223239D01*
X334071Y223357D01*
X334150Y223472D01*
X334231Y223586D01*
X334316Y223697D01*
X334404Y223806D01*
X334494Y223912D01*
X334588Y224016D01*
X334685Y224117D01*
X334785Y224215D01*
X334887Y224310D01*
X334992Y224402D01*
X335099Y224492D01*
X335209Y224578D01*
X335322Y224661D01*
X335436Y224741D01*
X335553Y224818D01*
X335672Y224891D01*
X335793Y224961D01*
X335916Y225027D01*
X336041Y225090D01*
X336168Y225150D01*
X336296Y225205D01*
X336425Y225257D01*
X336557Y225306D01*
X336689Y225351D01*
X336823Y225392D01*
X336957Y225429D01*
X337093Y225462D01*
X337230Y225491D01*
X337367Y225517D01*
X337505Y225539D01*
X337644Y225556D01*
X337783Y225570D01*
X337923Y225580D01*
X338062Y225586D01*
X338202Y225588D01*
X337215Y233490D02*
X343141Y233490D01*
X337215Y233490D02*
X337091Y233488D01*
X336967Y233482D01*
X336843Y233472D01*
X336720Y233459D01*
X336597Y233441D01*
X336475Y233420D01*
X336353Y233395D01*
X336232Y233366D01*
X336113Y233333D01*
X335994Y233297D01*
X335877Y233256D01*
X335761Y233213D01*
X335646Y233165D01*
X335533Y233114D01*
X335421Y233059D01*
X335312Y233001D01*
X335204Y232940D01*
X335098Y232875D01*
X334994Y232807D01*
X334893Y232735D01*
X334793Y232661D01*
X334697Y232583D01*
X334602Y232503D01*
X334510Y232419D01*
X334421Y232333D01*
X334335Y232244D01*
X334251Y232152D01*
X334171Y232057D01*
X334093Y231961D01*
X334019Y231861D01*
X333947Y231760D01*
X333879Y231656D01*
X333814Y231550D01*
X333753Y231442D01*
X333695Y231333D01*
X333640Y231221D01*
X333589Y231108D01*
X333541Y230993D01*
X333498Y230877D01*
X333457Y230760D01*
X333421Y230641D01*
X333388Y230522D01*
X333359Y230401D01*
X333334Y230279D01*
X333313Y230157D01*
X333295Y230034D01*
X333282Y229911D01*
X333272Y229787D01*
X333266Y229663D01*
X333264Y229539D01*
X333266Y229415D01*
X333272Y229291D01*
X333282Y229167D01*
X333295Y229044D01*
X333313Y228921D01*
X333334Y228799D01*
X333359Y228677D01*
X333388Y228556D01*
X333421Y228437D01*
X333457Y228318D01*
X333498Y228201D01*
X333541Y228085D01*
X333589Y227970D01*
X333640Y227857D01*
X333695Y227745D01*
X333753Y227636D01*
X333814Y227528D01*
X333879Y227422D01*
X333947Y227318D01*
X334019Y227217D01*
X334093Y227117D01*
X334171Y227021D01*
X334251Y226926D01*
X334335Y226834D01*
X334421Y226745D01*
X334510Y226659D01*
X334602Y226575D01*
X334697Y226495D01*
X334793Y226417D01*
X334893Y226343D01*
X334994Y226271D01*
X335098Y226203D01*
X335204Y226138D01*
X335312Y226077D01*
X335421Y226019D01*
X335533Y225964D01*
X335646Y225913D01*
X335761Y225865D01*
X335877Y225822D01*
X335994Y225781D01*
X336113Y225745D01*
X336232Y225712D01*
X336353Y225683D01*
X336475Y225658D01*
X336597Y225637D01*
X336720Y225619D01*
X336843Y225606D01*
X336967Y225596D01*
X337091Y225590D01*
X337215Y225588D01*
X341166Y225588D01*
X261079Y249306D02*
X261079Y267086D01*
X256140Y267086D01*
X256000Y267084D01*
X255861Y267078D01*
X255721Y267068D01*
X255582Y267054D01*
X255443Y267037D01*
X255305Y267015D01*
X255168Y266989D01*
X255031Y266960D01*
X254895Y266927D01*
X254761Y266890D01*
X254627Y266849D01*
X254495Y266804D01*
X254363Y266755D01*
X254234Y266703D01*
X254106Y266648D01*
X253979Y266588D01*
X253854Y266525D01*
X253731Y266459D01*
X253610Y266389D01*
X253491Y266316D01*
X253374Y266239D01*
X253260Y266159D01*
X253147Y266076D01*
X253037Y265990D01*
X252930Y265900D01*
X252825Y265808D01*
X252723Y265713D01*
X252623Y265615D01*
X252526Y265514D01*
X252432Y265410D01*
X252342Y265304D01*
X252254Y265195D01*
X252169Y265084D01*
X252088Y264970D01*
X252009Y264855D01*
X251934Y264737D01*
X251863Y264617D01*
X251795Y264494D01*
X251730Y264371D01*
X251669Y264245D01*
X251611Y264117D01*
X251557Y263989D01*
X251507Y263858D01*
X251460Y263726D01*
X251417Y263593D01*
X251378Y263459D01*
X251343Y263324D01*
X251312Y263188D01*
X251284Y263050D01*
X251261Y262913D01*
X251241Y262774D01*
X251225Y262635D01*
X251213Y262496D01*
X251205Y262357D01*
X251201Y262217D01*
X251201Y262077D01*
X251205Y261937D01*
X251213Y261798D01*
X251225Y261659D01*
X251241Y261520D01*
X251261Y261381D01*
X251284Y261244D01*
X251312Y261106D01*
X251343Y260970D01*
X251378Y260835D01*
X251417Y260701D01*
X251460Y260568D01*
X251507Y260436D01*
X251557Y260305D01*
X251611Y260177D01*
X251669Y260049D01*
X251730Y259923D01*
X251795Y259800D01*
X251863Y259677D01*
X251934Y259557D01*
X252009Y259439D01*
X252088Y259324D01*
X252169Y259210D01*
X252254Y259099D01*
X252342Y258990D01*
X252432Y258884D01*
X252526Y258780D01*
X252623Y258679D01*
X252723Y258581D01*
X252825Y258486D01*
X252930Y258394D01*
X253037Y258304D01*
X253147Y258218D01*
X253260Y258135D01*
X253374Y258055D01*
X253491Y257978D01*
X253610Y257905D01*
X253731Y257835D01*
X253854Y257769D01*
X253979Y257706D01*
X254106Y257646D01*
X254234Y257591D01*
X254363Y257539D01*
X254495Y257490D01*
X254627Y257445D01*
X254761Y257404D01*
X254895Y257367D01*
X255031Y257334D01*
X255168Y257305D01*
X255305Y257279D01*
X255443Y257257D01*
X255582Y257240D01*
X255721Y257226D01*
X255861Y257216D01*
X256000Y257210D01*
X256140Y257208D01*
X261079Y257208D01*
X245084Y253257D02*
X241133Y267086D01*
X245084Y253257D02*
X235207Y253257D01*
X238170Y257208D02*
X238170Y249306D01*
X256926Y385220D02*
X256926Y403000D01*
X251988Y403000D01*
X251848Y402998D01*
X251709Y402992D01*
X251569Y402982D01*
X251430Y402968D01*
X251291Y402951D01*
X251153Y402929D01*
X251016Y402903D01*
X250879Y402874D01*
X250743Y402841D01*
X250609Y402804D01*
X250475Y402763D01*
X250343Y402718D01*
X250211Y402669D01*
X250082Y402617D01*
X249954Y402562D01*
X249827Y402502D01*
X249702Y402439D01*
X249579Y402373D01*
X249458Y402303D01*
X249339Y402230D01*
X249222Y402153D01*
X249108Y402073D01*
X248995Y401990D01*
X248885Y401904D01*
X248778Y401814D01*
X248673Y401722D01*
X248571Y401627D01*
X248471Y401529D01*
X248374Y401428D01*
X248280Y401324D01*
X248190Y401218D01*
X248102Y401109D01*
X248017Y400998D01*
X247936Y400884D01*
X247857Y400769D01*
X247782Y400651D01*
X247711Y400531D01*
X247643Y400408D01*
X247578Y400285D01*
X247517Y400159D01*
X247459Y400031D01*
X247405Y399903D01*
X247355Y399772D01*
X247308Y399640D01*
X247265Y399507D01*
X247226Y399373D01*
X247191Y399238D01*
X247160Y399102D01*
X247132Y398964D01*
X247109Y398827D01*
X247089Y398688D01*
X247073Y398549D01*
X247061Y398410D01*
X247053Y398271D01*
X247049Y398131D01*
X247049Y397991D01*
X247053Y397851D01*
X247061Y397712D01*
X247073Y397573D01*
X247089Y397434D01*
X247109Y397295D01*
X247132Y397158D01*
X247160Y397020D01*
X247191Y396884D01*
X247226Y396749D01*
X247265Y396615D01*
X247308Y396482D01*
X247355Y396350D01*
X247405Y396219D01*
X247459Y396091D01*
X247517Y395963D01*
X247578Y395837D01*
X247643Y395714D01*
X247711Y395592D01*
X247782Y395471D01*
X247857Y395353D01*
X247936Y395238D01*
X248017Y395124D01*
X248102Y395013D01*
X248190Y394904D01*
X248280Y394798D01*
X248374Y394694D01*
X248471Y394593D01*
X248571Y394495D01*
X248673Y394400D01*
X248778Y394308D01*
X248885Y394218D01*
X248995Y394132D01*
X249108Y394049D01*
X249222Y393969D01*
X249339Y393892D01*
X249458Y393819D01*
X249579Y393749D01*
X249702Y393683D01*
X249827Y393620D01*
X249954Y393560D01*
X250082Y393505D01*
X250211Y393453D01*
X250343Y393404D01*
X250475Y393359D01*
X250609Y393318D01*
X250743Y393281D01*
X250879Y393248D01*
X251016Y393219D01*
X251153Y393193D01*
X251291Y393171D01*
X251430Y393154D01*
X251569Y393140D01*
X251709Y393130D01*
X251848Y393124D01*
X251988Y393122D01*
X256926Y393122D01*
X240931Y385220D02*
X235005Y385220D01*
X234881Y385222D01*
X234757Y385228D01*
X234633Y385238D01*
X234510Y385251D01*
X234387Y385269D01*
X234265Y385290D01*
X234143Y385315D01*
X234022Y385344D01*
X233903Y385377D01*
X233784Y385413D01*
X233667Y385454D01*
X233551Y385497D01*
X233436Y385545D01*
X233323Y385596D01*
X233211Y385651D01*
X233102Y385709D01*
X232994Y385770D01*
X232888Y385835D01*
X232784Y385903D01*
X232683Y385975D01*
X232583Y386049D01*
X232487Y386127D01*
X232392Y386207D01*
X232300Y386291D01*
X232211Y386377D01*
X232125Y386466D01*
X232041Y386558D01*
X231961Y386653D01*
X231883Y386749D01*
X231809Y386849D01*
X231737Y386950D01*
X231669Y387054D01*
X231604Y387160D01*
X231543Y387268D01*
X231485Y387377D01*
X231430Y387489D01*
X231379Y387602D01*
X231331Y387717D01*
X231288Y387833D01*
X231247Y387950D01*
X231211Y388069D01*
X231178Y388188D01*
X231149Y388309D01*
X231124Y388431D01*
X231103Y388553D01*
X231085Y388676D01*
X231072Y388799D01*
X231062Y388923D01*
X231056Y389047D01*
X231054Y389171D01*
X231054Y391147D01*
X231056Y391271D01*
X231062Y391395D01*
X231072Y391519D01*
X231085Y391642D01*
X231103Y391765D01*
X231124Y391887D01*
X231149Y392009D01*
X231178Y392130D01*
X231211Y392249D01*
X231247Y392368D01*
X231288Y392485D01*
X231331Y392601D01*
X231379Y392716D01*
X231430Y392829D01*
X231485Y392941D01*
X231543Y393050D01*
X231604Y393158D01*
X231669Y393264D01*
X231737Y393368D01*
X231809Y393469D01*
X231883Y393569D01*
X231961Y393665D01*
X232041Y393760D01*
X232125Y393852D01*
X232211Y393941D01*
X232300Y394027D01*
X232392Y394111D01*
X232487Y394191D01*
X232583Y394269D01*
X232683Y394343D01*
X232784Y394415D01*
X232888Y394483D01*
X232994Y394548D01*
X233102Y394609D01*
X233211Y394667D01*
X233323Y394722D01*
X233436Y394773D01*
X233551Y394821D01*
X233667Y394864D01*
X233784Y394905D01*
X233903Y394941D01*
X234022Y394974D01*
X234143Y395003D01*
X234265Y395028D01*
X234387Y395049D01*
X234510Y395067D01*
X234633Y395080D01*
X234757Y395090D01*
X234881Y395096D01*
X235005Y395098D01*
X240931Y395098D01*
X240931Y403000D01*
X231054Y403000D01*
X359136Y458910D02*
X359136Y476690D01*
X354198Y476690D01*
X354058Y476688D01*
X353919Y476682D01*
X353779Y476672D01*
X353640Y476658D01*
X353501Y476641D01*
X353363Y476619D01*
X353226Y476593D01*
X353089Y476564D01*
X352953Y476531D01*
X352819Y476494D01*
X352685Y476453D01*
X352553Y476408D01*
X352421Y476359D01*
X352292Y476307D01*
X352164Y476252D01*
X352037Y476192D01*
X351912Y476129D01*
X351789Y476063D01*
X351668Y475993D01*
X351549Y475920D01*
X351432Y475843D01*
X351318Y475763D01*
X351205Y475680D01*
X351095Y475594D01*
X350988Y475504D01*
X350883Y475412D01*
X350781Y475317D01*
X350681Y475219D01*
X350584Y475118D01*
X350490Y475014D01*
X350400Y474908D01*
X350312Y474799D01*
X350227Y474688D01*
X350146Y474574D01*
X350067Y474459D01*
X349992Y474341D01*
X349921Y474221D01*
X349853Y474098D01*
X349788Y473975D01*
X349727Y473849D01*
X349669Y473721D01*
X349615Y473593D01*
X349565Y473462D01*
X349518Y473330D01*
X349475Y473197D01*
X349436Y473063D01*
X349401Y472928D01*
X349370Y472792D01*
X349342Y472654D01*
X349319Y472517D01*
X349299Y472378D01*
X349283Y472239D01*
X349271Y472100D01*
X349263Y471961D01*
X349259Y471821D01*
X349259Y471681D01*
X349263Y471541D01*
X349271Y471402D01*
X349283Y471263D01*
X349299Y471124D01*
X349319Y470985D01*
X349342Y470848D01*
X349370Y470710D01*
X349401Y470574D01*
X349436Y470439D01*
X349475Y470305D01*
X349518Y470172D01*
X349565Y470040D01*
X349615Y469909D01*
X349669Y469781D01*
X349727Y469653D01*
X349788Y469527D01*
X349853Y469404D01*
X349921Y469282D01*
X349992Y469161D01*
X350067Y469043D01*
X350146Y468928D01*
X350227Y468814D01*
X350312Y468703D01*
X350400Y468594D01*
X350490Y468488D01*
X350584Y468384D01*
X350681Y468283D01*
X350781Y468185D01*
X350883Y468090D01*
X350988Y467998D01*
X351095Y467908D01*
X351205Y467822D01*
X351318Y467739D01*
X351432Y467659D01*
X351549Y467582D01*
X351668Y467509D01*
X351789Y467439D01*
X351912Y467373D01*
X352037Y467310D01*
X352164Y467250D01*
X352292Y467195D01*
X352421Y467143D01*
X352553Y467094D01*
X352685Y467049D01*
X352819Y467008D01*
X352953Y466971D01*
X353089Y466938D01*
X353226Y466909D01*
X353363Y466883D01*
X353501Y466861D01*
X353640Y466844D01*
X353779Y466830D01*
X353919Y466820D01*
X354058Y466814D01*
X354198Y466812D01*
X359136Y466812D01*
X343141Y468788D02*
X337215Y468788D01*
X337091Y468786D01*
X336967Y468780D01*
X336843Y468770D01*
X336720Y468757D01*
X336597Y468739D01*
X336475Y468718D01*
X336353Y468693D01*
X336232Y468664D01*
X336113Y468631D01*
X335994Y468595D01*
X335877Y468554D01*
X335761Y468511D01*
X335646Y468463D01*
X335533Y468412D01*
X335421Y468357D01*
X335312Y468299D01*
X335204Y468238D01*
X335098Y468173D01*
X334994Y468105D01*
X334893Y468033D01*
X334793Y467959D01*
X334697Y467881D01*
X334602Y467801D01*
X334510Y467717D01*
X334421Y467631D01*
X334335Y467542D01*
X334251Y467450D01*
X334171Y467355D01*
X334093Y467259D01*
X334019Y467159D01*
X333947Y467058D01*
X333879Y466954D01*
X333814Y466848D01*
X333753Y466740D01*
X333695Y466631D01*
X333640Y466519D01*
X333589Y466406D01*
X333541Y466291D01*
X333498Y466175D01*
X333457Y466058D01*
X333421Y465939D01*
X333388Y465820D01*
X333359Y465699D01*
X333334Y465577D01*
X333313Y465455D01*
X333295Y465332D01*
X333282Y465209D01*
X333272Y465085D01*
X333266Y464961D01*
X333264Y464837D01*
X333264Y463849D01*
X333263Y463849D02*
X333265Y463709D01*
X333271Y463570D01*
X333281Y463430D01*
X333295Y463291D01*
X333312Y463152D01*
X333334Y463014D01*
X333360Y462877D01*
X333389Y462740D01*
X333422Y462604D01*
X333459Y462470D01*
X333500Y462336D01*
X333545Y462204D01*
X333594Y462072D01*
X333646Y461943D01*
X333701Y461815D01*
X333761Y461688D01*
X333824Y461563D01*
X333890Y461440D01*
X333960Y461319D01*
X334033Y461200D01*
X334110Y461083D01*
X334190Y460969D01*
X334273Y460856D01*
X334359Y460746D01*
X334449Y460639D01*
X334541Y460534D01*
X334636Y460432D01*
X334734Y460332D01*
X334835Y460235D01*
X334939Y460141D01*
X335045Y460051D01*
X335154Y459963D01*
X335265Y459878D01*
X335379Y459797D01*
X335494Y459718D01*
X335612Y459643D01*
X335733Y459572D01*
X335855Y459504D01*
X335978Y459439D01*
X336104Y459378D01*
X336232Y459320D01*
X336360Y459266D01*
X336491Y459216D01*
X336623Y459169D01*
X336756Y459126D01*
X336890Y459087D01*
X337025Y459052D01*
X337161Y459021D01*
X337299Y458993D01*
X337436Y458970D01*
X337575Y458950D01*
X337714Y458934D01*
X337853Y458922D01*
X337992Y458914D01*
X338132Y458910D01*
X338272Y458910D01*
X338412Y458914D01*
X338551Y458922D01*
X338690Y458934D01*
X338829Y458950D01*
X338968Y458970D01*
X339105Y458993D01*
X339243Y459021D01*
X339379Y459052D01*
X339514Y459087D01*
X339648Y459126D01*
X339781Y459169D01*
X339913Y459216D01*
X340044Y459266D01*
X340172Y459320D01*
X340300Y459378D01*
X340426Y459439D01*
X340549Y459504D01*
X340672Y459572D01*
X340792Y459643D01*
X340910Y459718D01*
X341025Y459797D01*
X341139Y459878D01*
X341250Y459963D01*
X341359Y460051D01*
X341465Y460141D01*
X341569Y460235D01*
X341670Y460332D01*
X341768Y460432D01*
X341863Y460534D01*
X341955Y460639D01*
X342045Y460746D01*
X342131Y460856D01*
X342214Y460969D01*
X342294Y461083D01*
X342371Y461200D01*
X342444Y461319D01*
X342514Y461440D01*
X342580Y461563D01*
X342643Y461688D01*
X342703Y461815D01*
X342758Y461943D01*
X342810Y462072D01*
X342859Y462204D01*
X342904Y462336D01*
X342945Y462470D01*
X342982Y462604D01*
X343015Y462740D01*
X343044Y462877D01*
X343070Y463014D01*
X343092Y463152D01*
X343109Y463291D01*
X343123Y463430D01*
X343133Y463570D01*
X343139Y463709D01*
X343141Y463849D01*
X343141Y468788D01*
X343139Y468982D01*
X343131Y469176D01*
X343120Y469369D01*
X343103Y469563D01*
X343082Y469755D01*
X343055Y469947D01*
X343025Y470139D01*
X342989Y470330D01*
X342949Y470519D01*
X342904Y470708D01*
X342855Y470896D01*
X342801Y471082D01*
X342742Y471267D01*
X342679Y471450D01*
X342612Y471632D01*
X342540Y471812D01*
X342463Y471990D01*
X342382Y472167D01*
X342297Y472341D01*
X342208Y472513D01*
X342114Y472683D01*
X342017Y472850D01*
X341915Y473016D01*
X341809Y473178D01*
X341700Y473338D01*
X341586Y473495D01*
X341469Y473650D01*
X341347Y473801D01*
X341222Y473949D01*
X341094Y474095D01*
X340962Y474237D01*
X340827Y474376D01*
X340688Y474511D01*
X340546Y474643D01*
X340400Y474771D01*
X340252Y474896D01*
X340101Y475017D01*
X339946Y475135D01*
X339789Y475249D01*
X339629Y475358D01*
X339467Y475464D01*
X339301Y475566D01*
X339134Y475663D01*
X338964Y475757D01*
X338792Y475846D01*
X338618Y475931D01*
X338441Y476012D01*
X338263Y476088D01*
X338083Y476160D01*
X337901Y476228D01*
X337718Y476291D01*
X337533Y476350D01*
X337347Y476404D01*
X337159Y476453D01*
X336970Y476498D01*
X336781Y476538D01*
X336590Y476574D01*
X336399Y476604D01*
X336206Y476631D01*
X336014Y476652D01*
X335820Y476669D01*
X335627Y476680D01*
X335433Y476688D01*
X335239Y476690D01*
X393575Y268493D02*
X393575Y250713D01*
X393575Y260591D02*
X383698Y260591D01*
X383698Y268493D02*
X383698Y250713D01*
X376267Y259603D02*
X376263Y259953D01*
X376250Y260302D01*
X376229Y260651D01*
X376200Y261000D01*
X376163Y261348D01*
X376117Y261695D01*
X376063Y262040D01*
X376001Y262384D01*
X375930Y262727D01*
X375851Y263068D01*
X375765Y263407D01*
X375670Y263743D01*
X375567Y264078D01*
X375456Y264409D01*
X375338Y264739D01*
X375211Y265065D01*
X375077Y265388D01*
X374935Y265707D01*
X374785Y266024D01*
X374745Y266137D01*
X374701Y266247D01*
X374653Y266357D01*
X374602Y266464D01*
X374547Y266570D01*
X374489Y266675D01*
X374427Y266777D01*
X374362Y266877D01*
X374294Y266975D01*
X374223Y267071D01*
X374148Y267164D01*
X374071Y267255D01*
X373991Y267343D01*
X373908Y267428D01*
X373822Y267511D01*
X373733Y267591D01*
X373642Y267668D01*
X373548Y267742D01*
X373452Y267813D01*
X373354Y267881D01*
X373254Y267945D01*
X373151Y268007D01*
X373047Y268064D01*
X372941Y268119D01*
X372833Y268170D01*
X372723Y268217D01*
X372612Y268261D01*
X372500Y268301D01*
X372386Y268337D01*
X372272Y268370D01*
X372156Y268399D01*
X372039Y268424D01*
X371922Y268445D01*
X371804Y268463D01*
X371685Y268476D01*
X371566Y268486D01*
X371447Y268492D01*
X371328Y268494D01*
X371328Y268493D02*
X371209Y268491D01*
X371090Y268485D01*
X370971Y268475D01*
X370852Y268462D01*
X370734Y268444D01*
X370617Y268423D01*
X370500Y268398D01*
X370384Y268369D01*
X370270Y268336D01*
X370156Y268300D01*
X370044Y268260D01*
X369933Y268216D01*
X369823Y268169D01*
X369715Y268118D01*
X369609Y268063D01*
X369505Y268006D01*
X369402Y267944D01*
X369302Y267880D01*
X369204Y267812D01*
X369108Y267741D01*
X369014Y267667D01*
X368923Y267590D01*
X368834Y267510D01*
X368749Y267427D01*
X368665Y267342D01*
X368585Y267254D01*
X368508Y267163D01*
X368433Y267070D01*
X368362Y266974D01*
X368294Y266876D01*
X368229Y266776D01*
X368167Y266674D01*
X368109Y266569D01*
X368054Y266464D01*
X368003Y266356D01*
X367955Y266246D01*
X367911Y266136D01*
X367871Y266023D01*
X367871Y266024D02*
X367721Y265707D01*
X367579Y265388D01*
X367445Y265065D01*
X367318Y264739D01*
X367200Y264409D01*
X367089Y264078D01*
X366986Y263743D01*
X366891Y263407D01*
X366805Y263068D01*
X366726Y262727D01*
X366655Y262384D01*
X366593Y262040D01*
X366539Y261695D01*
X366493Y261348D01*
X366456Y261000D01*
X366427Y260651D01*
X366406Y260302D01*
X366393Y259953D01*
X366389Y259603D01*
X376266Y259603D02*
X376262Y259253D01*
X376249Y258904D01*
X376228Y258555D01*
X376199Y258206D01*
X376162Y257858D01*
X376116Y257511D01*
X376062Y257166D01*
X376000Y256822D01*
X375929Y256479D01*
X375850Y256138D01*
X375764Y255799D01*
X375669Y255463D01*
X375566Y255128D01*
X375455Y254797D01*
X375337Y254468D01*
X375210Y254141D01*
X375076Y253818D01*
X374934Y253499D01*
X374784Y253183D01*
X374785Y253183D02*
X374745Y253070D01*
X374701Y252960D01*
X374653Y252850D01*
X374602Y252743D01*
X374547Y252637D01*
X374489Y252532D01*
X374427Y252430D01*
X374362Y252330D01*
X374294Y252232D01*
X374223Y252136D01*
X374148Y252043D01*
X374071Y251952D01*
X373991Y251864D01*
X373908Y251779D01*
X373822Y251696D01*
X373733Y251616D01*
X373642Y251539D01*
X373548Y251465D01*
X373452Y251394D01*
X373354Y251326D01*
X373254Y251262D01*
X373151Y251200D01*
X373047Y251143D01*
X372941Y251088D01*
X372833Y251037D01*
X372723Y250990D01*
X372612Y250946D01*
X372500Y250906D01*
X372386Y250870D01*
X372272Y250837D01*
X372156Y250808D01*
X372039Y250783D01*
X371922Y250762D01*
X371804Y250744D01*
X371685Y250731D01*
X371566Y250721D01*
X371447Y250715D01*
X371328Y250713D01*
X367871Y253183D02*
X367721Y253499D01*
X367579Y253818D01*
X367445Y254141D01*
X367318Y254468D01*
X367200Y254797D01*
X367089Y255128D01*
X366986Y255463D01*
X366891Y255799D01*
X366805Y256138D01*
X366726Y256479D01*
X366655Y256822D01*
X366593Y257166D01*
X366539Y257511D01*
X366493Y257858D01*
X366456Y258206D01*
X366427Y258555D01*
X366406Y258904D01*
X366393Y259253D01*
X366389Y259603D01*
X367871Y253183D02*
X367911Y253070D01*
X367955Y252960D01*
X368003Y252850D01*
X368054Y252742D01*
X368109Y252636D01*
X368167Y252532D01*
X368229Y252430D01*
X368294Y252330D01*
X368362Y252232D01*
X368433Y252136D01*
X368508Y252043D01*
X368585Y251952D01*
X368665Y251864D01*
X368749Y251779D01*
X368834Y251696D01*
X368923Y251616D01*
X369014Y251539D01*
X369108Y251465D01*
X369204Y251394D01*
X369302Y251326D01*
X369402Y251262D01*
X369505Y251200D01*
X369609Y251142D01*
X369715Y251088D01*
X369823Y251037D01*
X369933Y250990D01*
X370044Y250946D01*
X370156Y250906D01*
X370270Y250870D01*
X370384Y250837D01*
X370500Y250808D01*
X370617Y250783D01*
X370734Y250762D01*
X370852Y250744D01*
X370971Y250731D01*
X371090Y250721D01*
X371209Y250715D01*
X371328Y250713D01*
X375279Y254664D02*
X367377Y264542D01*
X358761Y260591D02*
X353822Y260591D01*
X353682Y260589D01*
X353543Y260583D01*
X353403Y260573D01*
X353264Y260559D01*
X353125Y260542D01*
X352987Y260520D01*
X352850Y260494D01*
X352713Y260465D01*
X352577Y260432D01*
X352443Y260395D01*
X352309Y260354D01*
X352177Y260309D01*
X352045Y260260D01*
X351916Y260208D01*
X351788Y260153D01*
X351661Y260093D01*
X351536Y260030D01*
X351413Y259964D01*
X351292Y259894D01*
X351173Y259821D01*
X351056Y259744D01*
X350942Y259664D01*
X350829Y259581D01*
X350719Y259495D01*
X350612Y259405D01*
X350507Y259313D01*
X350405Y259218D01*
X350305Y259120D01*
X350208Y259019D01*
X350114Y258915D01*
X350024Y258809D01*
X349936Y258700D01*
X349851Y258589D01*
X349770Y258475D01*
X349691Y258360D01*
X349616Y258242D01*
X349545Y258122D01*
X349477Y257999D01*
X349412Y257876D01*
X349351Y257750D01*
X349293Y257622D01*
X349239Y257494D01*
X349189Y257363D01*
X349142Y257231D01*
X349099Y257098D01*
X349060Y256964D01*
X349025Y256829D01*
X348994Y256693D01*
X348966Y256555D01*
X348943Y256418D01*
X348923Y256279D01*
X348907Y256140D01*
X348895Y256001D01*
X348887Y255862D01*
X348883Y255722D01*
X348883Y255582D01*
X348887Y255442D01*
X348895Y255303D01*
X348907Y255164D01*
X348923Y255025D01*
X348943Y254886D01*
X348966Y254749D01*
X348994Y254611D01*
X349025Y254475D01*
X349060Y254340D01*
X349099Y254206D01*
X349142Y254073D01*
X349189Y253941D01*
X349239Y253810D01*
X349293Y253682D01*
X349351Y253554D01*
X349412Y253428D01*
X349477Y253305D01*
X349545Y253182D01*
X349616Y253062D01*
X349691Y252944D01*
X349770Y252829D01*
X349851Y252715D01*
X349936Y252604D01*
X350024Y252495D01*
X350114Y252389D01*
X350208Y252285D01*
X350305Y252184D01*
X350405Y252086D01*
X350507Y251991D01*
X350612Y251899D01*
X350719Y251809D01*
X350829Y251723D01*
X350942Y251640D01*
X351056Y251560D01*
X351173Y251483D01*
X351292Y251410D01*
X351413Y251340D01*
X351536Y251274D01*
X351661Y251211D01*
X351788Y251151D01*
X351916Y251096D01*
X352045Y251044D01*
X352177Y250995D01*
X352309Y250950D01*
X352443Y250909D01*
X352577Y250872D01*
X352713Y250839D01*
X352850Y250810D01*
X352987Y250784D01*
X353125Y250762D01*
X353264Y250745D01*
X353403Y250731D01*
X353543Y250721D01*
X353682Y250715D01*
X353822Y250713D01*
X358761Y250713D01*
X358761Y268493D01*
X353822Y268493D01*
X353698Y268491D01*
X353574Y268485D01*
X353450Y268475D01*
X353327Y268462D01*
X353204Y268444D01*
X353082Y268423D01*
X352960Y268398D01*
X352839Y268369D01*
X352720Y268336D01*
X352601Y268300D01*
X352484Y268259D01*
X352368Y268216D01*
X352253Y268168D01*
X352140Y268117D01*
X352028Y268062D01*
X351919Y268004D01*
X351811Y267943D01*
X351705Y267878D01*
X351601Y267810D01*
X351500Y267738D01*
X351400Y267664D01*
X351304Y267586D01*
X351209Y267506D01*
X351117Y267422D01*
X351028Y267336D01*
X350942Y267247D01*
X350858Y267155D01*
X350778Y267060D01*
X350700Y266964D01*
X350626Y266864D01*
X350554Y266763D01*
X350486Y266659D01*
X350421Y266553D01*
X350360Y266445D01*
X350302Y266336D01*
X350247Y266224D01*
X350196Y266111D01*
X350148Y265996D01*
X350105Y265880D01*
X350064Y265763D01*
X350028Y265644D01*
X349995Y265525D01*
X349966Y265404D01*
X349941Y265282D01*
X349920Y265160D01*
X349902Y265037D01*
X349889Y264914D01*
X349879Y264790D01*
X349873Y264666D01*
X349871Y264542D01*
X349873Y264418D01*
X349879Y264294D01*
X349889Y264170D01*
X349902Y264047D01*
X349920Y263924D01*
X349941Y263802D01*
X349966Y263680D01*
X349995Y263559D01*
X350028Y263440D01*
X350064Y263321D01*
X350105Y263204D01*
X350148Y263088D01*
X350196Y262973D01*
X350247Y262860D01*
X350302Y262748D01*
X350360Y262639D01*
X350421Y262531D01*
X350486Y262425D01*
X350554Y262321D01*
X350626Y262220D01*
X350700Y262120D01*
X350778Y262024D01*
X350858Y261929D01*
X350942Y261837D01*
X351028Y261748D01*
X351117Y261662D01*
X351209Y261578D01*
X351304Y261498D01*
X351400Y261420D01*
X351500Y261346D01*
X351601Y261274D01*
X351705Y261206D01*
X351811Y261141D01*
X351919Y261080D01*
X352028Y261022D01*
X352140Y260967D01*
X352253Y260916D01*
X352368Y260868D01*
X352484Y260825D01*
X352601Y260784D01*
X352720Y260748D01*
X352839Y260715D01*
X352960Y260686D01*
X353082Y260661D01*
X353204Y260640D01*
X353327Y260622D01*
X353450Y260609D01*
X353574Y260599D01*
X353698Y260593D01*
X353822Y260591D01*
X342122Y268493D02*
X342122Y250713D01*
X342122Y268493D02*
X337183Y268493D01*
X337043Y268491D01*
X336904Y268485D01*
X336764Y268475D01*
X336625Y268461D01*
X336486Y268444D01*
X336348Y268422D01*
X336211Y268396D01*
X336074Y268367D01*
X335938Y268334D01*
X335804Y268297D01*
X335670Y268256D01*
X335538Y268211D01*
X335406Y268162D01*
X335277Y268110D01*
X335149Y268055D01*
X335022Y267995D01*
X334897Y267932D01*
X334774Y267866D01*
X334653Y267796D01*
X334534Y267723D01*
X334417Y267646D01*
X334303Y267566D01*
X334190Y267483D01*
X334080Y267397D01*
X333973Y267307D01*
X333868Y267215D01*
X333766Y267120D01*
X333666Y267022D01*
X333569Y266921D01*
X333475Y266817D01*
X333385Y266711D01*
X333297Y266602D01*
X333212Y266491D01*
X333131Y266377D01*
X333052Y266262D01*
X332977Y266144D01*
X332906Y266024D01*
X332838Y265901D01*
X332773Y265778D01*
X332712Y265652D01*
X332654Y265524D01*
X332600Y265396D01*
X332550Y265265D01*
X332503Y265133D01*
X332460Y265000D01*
X332421Y264866D01*
X332386Y264731D01*
X332355Y264595D01*
X332327Y264457D01*
X332304Y264320D01*
X332284Y264181D01*
X332268Y264042D01*
X332256Y263903D01*
X332248Y263764D01*
X332244Y263624D01*
X332244Y263484D01*
X332248Y263344D01*
X332256Y263205D01*
X332268Y263066D01*
X332284Y262927D01*
X332304Y262788D01*
X332327Y262651D01*
X332355Y262513D01*
X332386Y262377D01*
X332421Y262242D01*
X332460Y262108D01*
X332503Y261975D01*
X332550Y261843D01*
X332600Y261712D01*
X332654Y261584D01*
X332712Y261456D01*
X332773Y261330D01*
X332838Y261207D01*
X332906Y261084D01*
X332977Y260964D01*
X333052Y260846D01*
X333131Y260731D01*
X333212Y260617D01*
X333297Y260506D01*
X333385Y260397D01*
X333475Y260291D01*
X333569Y260187D01*
X333666Y260086D01*
X333766Y259988D01*
X333868Y259893D01*
X333973Y259801D01*
X334080Y259711D01*
X334190Y259625D01*
X334303Y259542D01*
X334417Y259462D01*
X334534Y259385D01*
X334653Y259312D01*
X334774Y259242D01*
X334897Y259176D01*
X335022Y259113D01*
X335149Y259053D01*
X335277Y258998D01*
X335406Y258946D01*
X335538Y258897D01*
X335670Y258852D01*
X335804Y258811D01*
X335938Y258774D01*
X336074Y258741D01*
X336211Y258712D01*
X336348Y258686D01*
X336486Y258664D01*
X336625Y258647D01*
X336764Y258633D01*
X336904Y258623D01*
X337043Y258617D01*
X337183Y258615D01*
X342122Y258615D01*
X336195Y258615D02*
X332244Y250713D01*
X325457Y254664D02*
X321506Y268493D01*
X325457Y254664D02*
X315579Y254664D01*
X318542Y258615D02*
X318542Y250713D01*
X308706Y259603D02*
X308702Y259953D01*
X308689Y260302D01*
X308668Y260651D01*
X308639Y261000D01*
X308602Y261348D01*
X308556Y261695D01*
X308502Y262040D01*
X308440Y262384D01*
X308369Y262727D01*
X308290Y263068D01*
X308204Y263407D01*
X308109Y263743D01*
X308006Y264078D01*
X307895Y264409D01*
X307777Y264739D01*
X307650Y265065D01*
X307516Y265388D01*
X307374Y265707D01*
X307224Y266024D01*
X307225Y266024D02*
X307185Y266137D01*
X307141Y266247D01*
X307093Y266357D01*
X307042Y266464D01*
X306987Y266570D01*
X306929Y266675D01*
X306867Y266777D01*
X306802Y266877D01*
X306734Y266975D01*
X306663Y267071D01*
X306588Y267164D01*
X306511Y267255D01*
X306431Y267343D01*
X306348Y267428D01*
X306262Y267511D01*
X306173Y267591D01*
X306082Y267668D01*
X305988Y267742D01*
X305892Y267813D01*
X305794Y267881D01*
X305694Y267945D01*
X305591Y268007D01*
X305487Y268064D01*
X305381Y268119D01*
X305273Y268170D01*
X305163Y268217D01*
X305052Y268261D01*
X304940Y268301D01*
X304826Y268337D01*
X304712Y268370D01*
X304596Y268399D01*
X304479Y268424D01*
X304362Y268445D01*
X304244Y268463D01*
X304125Y268476D01*
X304006Y268486D01*
X303887Y268492D01*
X303768Y268494D01*
X303768Y268493D02*
X303649Y268491D01*
X303530Y268485D01*
X303411Y268475D01*
X303292Y268462D01*
X303174Y268444D01*
X303057Y268423D01*
X302940Y268398D01*
X302824Y268369D01*
X302710Y268336D01*
X302596Y268300D01*
X302484Y268260D01*
X302373Y268216D01*
X302263Y268169D01*
X302155Y268118D01*
X302049Y268063D01*
X301945Y268006D01*
X301842Y267944D01*
X301742Y267880D01*
X301644Y267812D01*
X301548Y267741D01*
X301454Y267667D01*
X301363Y267590D01*
X301274Y267510D01*
X301189Y267427D01*
X301105Y267342D01*
X301025Y267254D01*
X300948Y267163D01*
X300873Y267070D01*
X300802Y266974D01*
X300734Y266876D01*
X300669Y266776D01*
X300607Y266674D01*
X300549Y266569D01*
X300494Y266464D01*
X300443Y266356D01*
X300395Y266246D01*
X300351Y266136D01*
X300311Y266023D01*
X300311Y266024D02*
X300161Y265707D01*
X300019Y265388D01*
X299885Y265065D01*
X299758Y264739D01*
X299640Y264409D01*
X299529Y264078D01*
X299426Y263743D01*
X299331Y263407D01*
X299245Y263068D01*
X299166Y262727D01*
X299095Y262384D01*
X299033Y262040D01*
X298979Y261695D01*
X298933Y261348D01*
X298896Y261000D01*
X298867Y260651D01*
X298846Y260302D01*
X298833Y259953D01*
X298829Y259603D01*
X308706Y259603D02*
X308702Y259253D01*
X308689Y258904D01*
X308668Y258555D01*
X308639Y258206D01*
X308602Y257858D01*
X308556Y257511D01*
X308502Y257166D01*
X308440Y256822D01*
X308369Y256479D01*
X308290Y256138D01*
X308204Y255799D01*
X308109Y255463D01*
X308006Y255128D01*
X307895Y254797D01*
X307777Y254468D01*
X307650Y254141D01*
X307516Y253818D01*
X307374Y253499D01*
X307224Y253183D01*
X307225Y253183D02*
X307185Y253070D01*
X307141Y252960D01*
X307093Y252850D01*
X307042Y252743D01*
X306987Y252637D01*
X306929Y252532D01*
X306867Y252430D01*
X306802Y252330D01*
X306734Y252232D01*
X306663Y252136D01*
X306588Y252043D01*
X306511Y251952D01*
X306431Y251864D01*
X306348Y251779D01*
X306262Y251696D01*
X306173Y251616D01*
X306082Y251539D01*
X305988Y251465D01*
X305892Y251394D01*
X305794Y251326D01*
X305694Y251262D01*
X305591Y251200D01*
X305487Y251143D01*
X305381Y251088D01*
X305273Y251037D01*
X305163Y250990D01*
X305052Y250946D01*
X304940Y250906D01*
X304826Y250870D01*
X304712Y250837D01*
X304596Y250808D01*
X304479Y250783D01*
X304362Y250762D01*
X304244Y250744D01*
X304125Y250731D01*
X304006Y250721D01*
X303887Y250715D01*
X303768Y250713D01*
X300311Y253183D02*
X300161Y253499D01*
X300019Y253818D01*
X299885Y254141D01*
X299758Y254468D01*
X299640Y254797D01*
X299529Y255128D01*
X299426Y255463D01*
X299331Y255799D01*
X299245Y256138D01*
X299166Y256479D01*
X299095Y256822D01*
X299033Y257166D01*
X298979Y257511D01*
X298933Y257858D01*
X298896Y258206D01*
X298867Y258555D01*
X298846Y258904D01*
X298833Y259253D01*
X298829Y259603D01*
X300311Y253183D02*
X300351Y253070D01*
X300395Y252960D01*
X300443Y252850D01*
X300494Y252742D01*
X300549Y252636D01*
X300607Y252532D01*
X300669Y252430D01*
X300734Y252330D01*
X300802Y252232D01*
X300873Y252136D01*
X300948Y252043D01*
X301025Y251952D01*
X301105Y251864D01*
X301189Y251779D01*
X301274Y251696D01*
X301363Y251616D01*
X301454Y251539D01*
X301548Y251465D01*
X301644Y251394D01*
X301742Y251326D01*
X301842Y251262D01*
X301945Y251200D01*
X302049Y251142D01*
X302155Y251088D01*
X302263Y251037D01*
X302373Y250990D01*
X302484Y250946D01*
X302596Y250906D01*
X302710Y250870D01*
X302824Y250837D01*
X302940Y250808D01*
X303057Y250783D01*
X303174Y250762D01*
X303292Y250744D01*
X303411Y250731D01*
X303530Y250721D01*
X303649Y250715D01*
X303768Y250713D01*
X307719Y254664D02*
X299816Y264542D01*
D12*
X443157Y367137D02*
X443157Y369226D01*
X443157Y367137D02*
X443159Y367048D01*
X443165Y366960D01*
X443174Y366872D01*
X443187Y366784D01*
X443204Y366697D01*
X443224Y366611D01*
X443249Y366526D01*
X443276Y366441D01*
X443308Y366358D01*
X443342Y366277D01*
X443381Y366197D01*
X443422Y366119D01*
X443467Y366042D01*
X443515Y365968D01*
X443566Y365895D01*
X443620Y365825D01*
X443678Y365758D01*
X443738Y365692D01*
X443800Y365630D01*
X443866Y365570D01*
X443933Y365512D01*
X444003Y365458D01*
X444076Y365407D01*
X444150Y365359D01*
X444227Y365314D01*
X444305Y365273D01*
X444385Y365234D01*
X444466Y365200D01*
X444549Y365168D01*
X444634Y365141D01*
X444719Y365116D01*
X444805Y365096D01*
X444892Y365079D01*
X444980Y365066D01*
X445068Y365057D01*
X445156Y365051D01*
X445245Y365049D01*
X450466Y365049D01*
X450557Y365051D01*
X450648Y365057D01*
X450739Y365067D01*
X450829Y365081D01*
X450918Y365098D01*
X451006Y365120D01*
X451094Y365146D01*
X451180Y365175D01*
X451265Y365208D01*
X451348Y365245D01*
X451430Y365285D01*
X451510Y365329D01*
X451588Y365376D01*
X451664Y365427D01*
X451737Y365480D01*
X451808Y365537D01*
X451877Y365598D01*
X451942Y365661D01*
X452005Y365726D01*
X452065Y365795D01*
X452123Y365866D01*
X452176Y365939D01*
X452227Y366015D01*
X452274Y366093D01*
X452318Y366173D01*
X452358Y366255D01*
X452395Y366338D01*
X452428Y366423D01*
X452457Y366509D01*
X452483Y366597D01*
X452505Y366685D01*
X452522Y366774D01*
X452536Y366864D01*
X452546Y366955D01*
X452552Y367046D01*
X452554Y367137D01*
X452555Y367137D02*
X452555Y369226D01*
X450466Y372694D02*
X452555Y375305D01*
X443157Y375305D01*
X443157Y372694D02*
X443157Y377916D01*
D10*
X443544Y296673D02*
X423415Y296673D01*
D12*
X444609Y304662D02*
X444609Y306750D01*
X444609Y304662D02*
X444611Y304573D01*
X444617Y304485D01*
X444626Y304397D01*
X444639Y304309D01*
X444656Y304222D01*
X444676Y304136D01*
X444701Y304051D01*
X444728Y303966D01*
X444760Y303883D01*
X444794Y303802D01*
X444833Y303722D01*
X444874Y303644D01*
X444919Y303567D01*
X444967Y303493D01*
X445018Y303420D01*
X445072Y303350D01*
X445130Y303283D01*
X445190Y303217D01*
X445252Y303155D01*
X445318Y303095D01*
X445385Y303037D01*
X445455Y302983D01*
X445528Y302932D01*
X445602Y302884D01*
X445679Y302839D01*
X445757Y302798D01*
X445837Y302759D01*
X445918Y302725D01*
X446001Y302693D01*
X446086Y302666D01*
X446171Y302641D01*
X446257Y302621D01*
X446344Y302604D01*
X446432Y302591D01*
X446520Y302582D01*
X446608Y302576D01*
X446697Y302574D01*
X446697Y302573D02*
X451918Y302573D01*
X451918Y302574D02*
X452009Y302576D01*
X452100Y302582D01*
X452191Y302592D01*
X452281Y302606D01*
X452370Y302623D01*
X452458Y302645D01*
X452546Y302671D01*
X452632Y302700D01*
X452717Y302733D01*
X452800Y302770D01*
X452882Y302810D01*
X452962Y302854D01*
X453040Y302901D01*
X453116Y302952D01*
X453189Y303005D01*
X453260Y303062D01*
X453329Y303123D01*
X453394Y303186D01*
X453457Y303251D01*
X453517Y303320D01*
X453575Y303391D01*
X453628Y303464D01*
X453679Y303540D01*
X453726Y303618D01*
X453770Y303698D01*
X453810Y303780D01*
X453847Y303863D01*
X453880Y303948D01*
X453909Y304034D01*
X453935Y304122D01*
X453957Y304210D01*
X453974Y304299D01*
X453988Y304389D01*
X453998Y304480D01*
X454004Y304571D01*
X454006Y304662D01*
X454007Y304662D02*
X454007Y306750D01*
X454007Y313091D02*
X454005Y313186D01*
X453999Y313280D01*
X453990Y313374D01*
X453977Y313468D01*
X453960Y313561D01*
X453939Y313653D01*
X453914Y313745D01*
X453886Y313835D01*
X453854Y313924D01*
X453819Y314012D01*
X453780Y314098D01*
X453738Y314183D01*
X453692Y314266D01*
X453643Y314347D01*
X453591Y314426D01*
X453536Y314503D01*
X453477Y314577D01*
X453416Y314649D01*
X453352Y314719D01*
X453285Y314786D01*
X453215Y314850D01*
X453143Y314911D01*
X453069Y314970D01*
X452992Y315025D01*
X452913Y315077D01*
X452832Y315126D01*
X452749Y315172D01*
X452664Y315214D01*
X452578Y315253D01*
X452490Y315288D01*
X452401Y315320D01*
X452311Y315348D01*
X452219Y315373D01*
X452127Y315394D01*
X452034Y315411D01*
X451940Y315424D01*
X451846Y315433D01*
X451752Y315439D01*
X451657Y315441D01*
X454006Y313091D02*
X454004Y312983D01*
X453998Y312874D01*
X453988Y312766D01*
X453975Y312659D01*
X453957Y312552D01*
X453936Y312445D01*
X453911Y312340D01*
X453882Y312235D01*
X453850Y312132D01*
X453813Y312030D01*
X453773Y311929D01*
X453730Y311830D01*
X453683Y311732D01*
X453632Y311636D01*
X453578Y311542D01*
X453521Y311450D01*
X453460Y311360D01*
X453396Y311272D01*
X453330Y311187D01*
X453260Y311104D01*
X453187Y311024D01*
X453111Y310946D01*
X453033Y310871D01*
X452952Y310799D01*
X452868Y310730D01*
X452782Y310664D01*
X452694Y310601D01*
X452603Y310542D01*
X452511Y310485D01*
X452416Y310432D01*
X452320Y310383D01*
X452221Y310337D01*
X452122Y310294D01*
X452020Y310255D01*
X451918Y310220D01*
X449829Y314658D02*
X449898Y314727D01*
X449969Y314793D01*
X450042Y314857D01*
X450118Y314918D01*
X450197Y314976D01*
X450277Y315030D01*
X450360Y315082D01*
X450444Y315130D01*
X450530Y315176D01*
X450618Y315217D01*
X450708Y315256D01*
X450799Y315291D01*
X450891Y315322D01*
X450984Y315350D01*
X451078Y315374D01*
X451173Y315394D01*
X451269Y315411D01*
X451366Y315424D01*
X451463Y315433D01*
X451560Y315439D01*
X451657Y315441D01*
X449830Y314657D02*
X444609Y310219D01*
X444609Y315440D01*
D13*
X381202Y376202D02*
X376202Y381202D01*
X311202Y311212D02*
X311202Y311202D01*
X385972Y373852D02*
X385974Y373941D01*
X385980Y374030D01*
X385990Y374119D01*
X386004Y374207D01*
X386021Y374294D01*
X386043Y374380D01*
X386069Y374466D01*
X386098Y374550D01*
X386131Y374633D01*
X386167Y374714D01*
X386208Y374794D01*
X386251Y374871D01*
X386298Y374947D01*
X386349Y375020D01*
X386402Y375091D01*
X386459Y375160D01*
X386519Y375226D01*
X386582Y375290D01*
X386647Y375350D01*
X386715Y375408D01*
X386786Y375462D01*
X386859Y375513D01*
X386934Y375561D01*
X387011Y375606D01*
X387090Y375647D01*
X387171Y375684D01*
X387253Y375718D01*
X387337Y375749D01*
X387422Y375775D01*
X387508Y375798D01*
X387595Y375816D01*
X387683Y375831D01*
X387772Y375842D01*
X387861Y375849D01*
X387950Y375852D01*
X388039Y375851D01*
X388128Y375846D01*
X388216Y375837D01*
X388305Y375824D01*
X388392Y375807D01*
X388479Y375787D01*
X388565Y375762D01*
X388649Y375734D01*
X388732Y375702D01*
X388814Y375666D01*
X388894Y375627D01*
X388972Y375584D01*
X389048Y375538D01*
X389122Y375488D01*
X389194Y375435D01*
X389263Y375379D01*
X389330Y375320D01*
X389394Y375258D01*
X389455Y375194D01*
X389514Y375126D01*
X389569Y375056D01*
X389621Y374984D01*
X389670Y374909D01*
X389715Y374833D01*
X389757Y374754D01*
X389795Y374674D01*
X389830Y374592D01*
X389861Y374508D01*
X389889Y374423D01*
X389912Y374337D01*
X389932Y374250D01*
X389948Y374163D01*
X389960Y374074D01*
X389968Y373986D01*
X389972Y373897D01*
X389972Y373807D01*
X389968Y373718D01*
X389960Y373630D01*
X389948Y373541D01*
X389932Y373454D01*
X389912Y373367D01*
X389889Y373281D01*
X389861Y373196D01*
X389830Y373112D01*
X389795Y373030D01*
X389757Y372950D01*
X389715Y372871D01*
X389670Y372795D01*
X389621Y372720D01*
X389569Y372648D01*
X389514Y372578D01*
X389455Y372510D01*
X389394Y372446D01*
X389330Y372384D01*
X389263Y372325D01*
X389194Y372269D01*
X389122Y372216D01*
X389048Y372166D01*
X388972Y372120D01*
X388894Y372077D01*
X388814Y372038D01*
X388732Y372002D01*
X388649Y371970D01*
X388565Y371942D01*
X388479Y371917D01*
X388392Y371897D01*
X388305Y371880D01*
X388216Y371867D01*
X388128Y371858D01*
X388039Y371853D01*
X387950Y371852D01*
X387861Y371855D01*
X387772Y371862D01*
X387683Y371873D01*
X387595Y371888D01*
X387508Y371906D01*
X387422Y371929D01*
X387337Y371955D01*
X387253Y371986D01*
X387171Y372020D01*
X387090Y372057D01*
X387011Y372098D01*
X386934Y372143D01*
X386859Y372191D01*
X386786Y372242D01*
X386715Y372296D01*
X386647Y372354D01*
X386582Y372414D01*
X386519Y372478D01*
X386459Y372544D01*
X386402Y372613D01*
X386349Y372684D01*
X386298Y372757D01*
X386251Y372833D01*
X386208Y372910D01*
X386167Y372990D01*
X386131Y373071D01*
X386098Y373154D01*
X386069Y373238D01*
X386043Y373324D01*
X386021Y373410D01*
X386004Y373497D01*
X385990Y373585D01*
X385980Y373674D01*
X385974Y373763D01*
X385972Y373852D01*
X311242Y381212D02*
X311242Y381222D01*
X315942Y381222D01*
X315902Y311212D02*
X311202Y311212D01*
X311242Y376522D02*
X311242Y381212D01*
X311192Y315902D02*
X311192Y311202D01*
X376522Y311202D02*
X381222Y311202D01*
X381222Y311192D02*
X381222Y315892D01*
D12*
X326467Y390024D02*
X326467Y396811D01*
X326467Y390024D02*
X326465Y389923D01*
X326459Y389822D01*
X326449Y389721D01*
X326436Y389621D01*
X326418Y389521D01*
X326397Y389422D01*
X326371Y389324D01*
X326342Y389227D01*
X326310Y389131D01*
X326273Y389037D01*
X326233Y388944D01*
X326189Y388852D01*
X326142Y388763D01*
X326091Y388675D01*
X326037Y388589D01*
X325980Y388506D01*
X325920Y388424D01*
X325856Y388346D01*
X325790Y388269D01*
X325720Y388196D01*
X325648Y388125D01*
X325573Y388057D01*
X325495Y387992D01*
X325415Y387930D01*
X325333Y387871D01*
X325248Y387815D01*
X325161Y387763D01*
X325073Y387714D01*
X324982Y387668D01*
X324890Y387627D01*
X324796Y387588D01*
X324701Y387554D01*
X324605Y387523D01*
X324507Y387496D01*
X324409Y387472D01*
X324309Y387453D01*
X324209Y387437D01*
X324109Y387425D01*
X324008Y387417D01*
X323907Y387413D01*
X323805Y387413D01*
X323704Y387417D01*
X323603Y387425D01*
X323503Y387437D01*
X323403Y387453D01*
X323303Y387472D01*
X323205Y387496D01*
X323107Y387523D01*
X323011Y387554D01*
X322916Y387588D01*
X322822Y387627D01*
X322730Y387668D01*
X322639Y387714D01*
X322551Y387763D01*
X322464Y387815D01*
X322379Y387871D01*
X322297Y387930D01*
X322217Y387992D01*
X322139Y388057D01*
X322064Y388125D01*
X321992Y388196D01*
X321922Y388269D01*
X321856Y388346D01*
X321792Y388424D01*
X321732Y388506D01*
X321675Y388589D01*
X321621Y388675D01*
X321570Y388763D01*
X321523Y388852D01*
X321479Y388944D01*
X321439Y389037D01*
X321402Y389131D01*
X321370Y389227D01*
X321341Y389324D01*
X321315Y389422D01*
X321294Y389521D01*
X321276Y389621D01*
X321263Y389721D01*
X321253Y389822D01*
X321247Y389923D01*
X321245Y390024D01*
X321246Y390024D02*
X321246Y396811D01*
X317018Y394723D02*
X314408Y396811D01*
X314408Y387413D01*
X317018Y387413D02*
X311797Y387413D01*
D14*
X394175Y372600D02*
X394175Y337040D01*
X414495Y337040D01*
X414495Y372600D01*
X394175Y372600D01*
D12*
X417812Y335290D02*
X427210Y341555D01*
X427210Y335290D02*
X417812Y341555D01*
X425122Y344956D02*
X427210Y347566D01*
X417812Y347566D01*
X417812Y344956D02*
X417812Y350177D01*
X341727Y402821D02*
X332329Y402821D01*
X341727Y402821D02*
X341727Y405432D01*
X341725Y405533D01*
X341719Y405634D01*
X341709Y405735D01*
X341696Y405835D01*
X341678Y405935D01*
X341657Y406034D01*
X341631Y406132D01*
X341602Y406229D01*
X341570Y406325D01*
X341533Y406419D01*
X341493Y406512D01*
X341449Y406604D01*
X341402Y406693D01*
X341351Y406781D01*
X341297Y406867D01*
X341240Y406950D01*
X341180Y407032D01*
X341116Y407110D01*
X341050Y407187D01*
X340980Y407260D01*
X340908Y407331D01*
X340833Y407399D01*
X340755Y407464D01*
X340675Y407526D01*
X340593Y407585D01*
X340508Y407641D01*
X340422Y407693D01*
X340333Y407742D01*
X340242Y407788D01*
X340150Y407829D01*
X340056Y407868D01*
X339961Y407902D01*
X339865Y407933D01*
X339767Y407960D01*
X339669Y407984D01*
X339569Y408003D01*
X339469Y408019D01*
X339369Y408031D01*
X339268Y408039D01*
X339167Y408043D01*
X339065Y408043D01*
X338964Y408039D01*
X338863Y408031D01*
X338763Y408019D01*
X338663Y408003D01*
X338563Y407984D01*
X338465Y407960D01*
X338367Y407933D01*
X338271Y407902D01*
X338176Y407868D01*
X338082Y407829D01*
X337990Y407788D01*
X337899Y407742D01*
X337811Y407693D01*
X337724Y407641D01*
X337639Y407585D01*
X337557Y407526D01*
X337477Y407464D01*
X337399Y407399D01*
X337324Y407331D01*
X337252Y407260D01*
X337182Y407187D01*
X337116Y407110D01*
X337052Y407032D01*
X336992Y406950D01*
X336935Y406867D01*
X336881Y406781D01*
X336830Y406693D01*
X336783Y406604D01*
X336739Y406512D01*
X336699Y406419D01*
X336662Y406325D01*
X336630Y406229D01*
X336601Y406132D01*
X336575Y406034D01*
X336554Y405935D01*
X336536Y405835D01*
X336523Y405735D01*
X336513Y405634D01*
X336507Y405533D01*
X336505Y405432D01*
X336505Y402821D01*
X336505Y405954D02*
X332329Y408042D01*
X339377Y417130D02*
X339472Y417128D01*
X339566Y417122D01*
X339660Y417113D01*
X339754Y417100D01*
X339847Y417083D01*
X339939Y417062D01*
X340031Y417037D01*
X340121Y417009D01*
X340210Y416977D01*
X340298Y416942D01*
X340384Y416903D01*
X340469Y416861D01*
X340552Y416815D01*
X340633Y416766D01*
X340712Y416714D01*
X340789Y416659D01*
X340863Y416600D01*
X340935Y416539D01*
X341005Y416475D01*
X341072Y416408D01*
X341136Y416338D01*
X341197Y416266D01*
X341256Y416192D01*
X341311Y416115D01*
X341363Y416036D01*
X341412Y415955D01*
X341458Y415872D01*
X341500Y415787D01*
X341539Y415701D01*
X341574Y415613D01*
X341606Y415524D01*
X341634Y415434D01*
X341659Y415342D01*
X341680Y415250D01*
X341697Y415157D01*
X341710Y415063D01*
X341719Y414969D01*
X341725Y414875D01*
X341727Y414780D01*
X341726Y414780D02*
X341724Y414672D01*
X341718Y414563D01*
X341708Y414455D01*
X341695Y414348D01*
X341677Y414241D01*
X341656Y414134D01*
X341631Y414029D01*
X341602Y413924D01*
X341570Y413821D01*
X341533Y413719D01*
X341493Y413618D01*
X341450Y413519D01*
X341403Y413421D01*
X341352Y413325D01*
X341298Y413231D01*
X341241Y413139D01*
X341180Y413049D01*
X341116Y412961D01*
X341050Y412876D01*
X340980Y412793D01*
X340907Y412713D01*
X340831Y412635D01*
X340753Y412560D01*
X340672Y412488D01*
X340588Y412419D01*
X340502Y412353D01*
X340414Y412290D01*
X340323Y412231D01*
X340231Y412174D01*
X340136Y412121D01*
X340040Y412072D01*
X339941Y412026D01*
X339842Y411983D01*
X339740Y411944D01*
X339638Y411909D01*
X337549Y416346D02*
X337618Y416415D01*
X337689Y416481D01*
X337762Y416545D01*
X337838Y416606D01*
X337917Y416664D01*
X337997Y416718D01*
X338080Y416770D01*
X338164Y416818D01*
X338250Y416864D01*
X338338Y416905D01*
X338428Y416944D01*
X338519Y416979D01*
X338611Y417010D01*
X338704Y417038D01*
X338798Y417062D01*
X338893Y417082D01*
X338989Y417099D01*
X339086Y417112D01*
X339183Y417121D01*
X339280Y417127D01*
X339377Y417129D01*
X337550Y416346D02*
X332329Y411908D01*
X332329Y417129D01*
D10*
X289385Y348948D02*
X269255Y348948D01*
D12*
X290774Y317122D02*
X290774Y315034D01*
X290775Y315034D02*
X290777Y314945D01*
X290783Y314857D01*
X290792Y314769D01*
X290805Y314681D01*
X290822Y314594D01*
X290842Y314508D01*
X290867Y314423D01*
X290894Y314338D01*
X290926Y314255D01*
X290960Y314174D01*
X290999Y314094D01*
X291040Y314016D01*
X291085Y313939D01*
X291133Y313865D01*
X291184Y313792D01*
X291238Y313722D01*
X291296Y313655D01*
X291356Y313589D01*
X291418Y313527D01*
X291484Y313467D01*
X291551Y313409D01*
X291621Y313355D01*
X291694Y313304D01*
X291768Y313256D01*
X291845Y313211D01*
X291923Y313170D01*
X292003Y313131D01*
X292084Y313097D01*
X292167Y313065D01*
X292252Y313038D01*
X292337Y313013D01*
X292423Y312993D01*
X292510Y312976D01*
X292598Y312963D01*
X292686Y312954D01*
X292774Y312948D01*
X292863Y312946D01*
X298084Y312946D01*
X298175Y312948D01*
X298266Y312954D01*
X298357Y312964D01*
X298447Y312978D01*
X298536Y312995D01*
X298624Y313017D01*
X298712Y313043D01*
X298798Y313072D01*
X298883Y313105D01*
X298966Y313142D01*
X299048Y313182D01*
X299128Y313226D01*
X299206Y313273D01*
X299282Y313324D01*
X299355Y313377D01*
X299426Y313434D01*
X299495Y313495D01*
X299560Y313558D01*
X299623Y313623D01*
X299683Y313692D01*
X299741Y313763D01*
X299794Y313836D01*
X299845Y313912D01*
X299892Y313990D01*
X299936Y314070D01*
X299976Y314152D01*
X300013Y314235D01*
X300046Y314320D01*
X300075Y314406D01*
X300101Y314494D01*
X300123Y314582D01*
X300140Y314671D01*
X300154Y314761D01*
X300164Y314852D01*
X300170Y314943D01*
X300172Y315034D01*
X300172Y317122D01*
X290774Y320591D02*
X290774Y323202D01*
X290776Y323303D01*
X290782Y323404D01*
X290792Y323505D01*
X290805Y323605D01*
X290823Y323705D01*
X290844Y323804D01*
X290870Y323902D01*
X290899Y323999D01*
X290931Y324095D01*
X290968Y324189D01*
X291008Y324282D01*
X291052Y324374D01*
X291099Y324463D01*
X291150Y324551D01*
X291204Y324637D01*
X291261Y324720D01*
X291321Y324802D01*
X291385Y324880D01*
X291451Y324957D01*
X291521Y325030D01*
X291593Y325101D01*
X291668Y325169D01*
X291746Y325234D01*
X291826Y325296D01*
X291908Y325355D01*
X291993Y325411D01*
X292080Y325463D01*
X292168Y325512D01*
X292259Y325558D01*
X292351Y325599D01*
X292445Y325638D01*
X292540Y325672D01*
X292636Y325703D01*
X292734Y325730D01*
X292832Y325754D01*
X292932Y325773D01*
X293032Y325789D01*
X293132Y325801D01*
X293233Y325809D01*
X293334Y325813D01*
X293436Y325813D01*
X293537Y325809D01*
X293638Y325801D01*
X293738Y325789D01*
X293838Y325773D01*
X293938Y325754D01*
X294036Y325730D01*
X294134Y325703D01*
X294230Y325672D01*
X294325Y325638D01*
X294419Y325599D01*
X294511Y325558D01*
X294602Y325512D01*
X294691Y325463D01*
X294777Y325411D01*
X294862Y325355D01*
X294944Y325296D01*
X295024Y325234D01*
X295102Y325169D01*
X295177Y325101D01*
X295249Y325030D01*
X295319Y324957D01*
X295385Y324880D01*
X295449Y324802D01*
X295509Y324720D01*
X295566Y324637D01*
X295620Y324551D01*
X295671Y324463D01*
X295718Y324374D01*
X295762Y324282D01*
X295802Y324189D01*
X295839Y324095D01*
X295871Y323999D01*
X295900Y323902D01*
X295926Y323804D01*
X295947Y323705D01*
X295965Y323605D01*
X295978Y323505D01*
X295988Y323404D01*
X295994Y323303D01*
X295996Y323202D01*
X300172Y323724D02*
X300172Y320591D01*
X300172Y323724D02*
X300170Y323814D01*
X300164Y323903D01*
X300155Y323993D01*
X300141Y324082D01*
X300124Y324170D01*
X300103Y324257D01*
X300078Y324344D01*
X300049Y324429D01*
X300017Y324513D01*
X299982Y324595D01*
X299942Y324676D01*
X299900Y324755D01*
X299854Y324832D01*
X299804Y324907D01*
X299752Y324980D01*
X299696Y325051D01*
X299638Y325119D01*
X299576Y325184D01*
X299512Y325247D01*
X299445Y325307D01*
X299376Y325364D01*
X299304Y325418D01*
X299230Y325469D01*
X299154Y325517D01*
X299076Y325561D01*
X298996Y325602D01*
X298914Y325640D01*
X298831Y325674D01*
X298746Y325704D01*
X298660Y325731D01*
X298574Y325754D01*
X298486Y325773D01*
X298397Y325788D01*
X298308Y325800D01*
X298219Y325808D01*
X298129Y325812D01*
X298039Y325812D01*
X297949Y325808D01*
X297860Y325800D01*
X297771Y325788D01*
X297682Y325773D01*
X297594Y325754D01*
X297508Y325731D01*
X297422Y325704D01*
X297337Y325674D01*
X297254Y325640D01*
X297172Y325602D01*
X297092Y325561D01*
X297014Y325517D01*
X296938Y325469D01*
X296864Y325418D01*
X296792Y325364D01*
X296723Y325307D01*
X296656Y325247D01*
X296592Y325184D01*
X296530Y325119D01*
X296472Y325051D01*
X296416Y324980D01*
X296364Y324907D01*
X296314Y324832D01*
X296268Y324755D01*
X296226Y324676D01*
X296186Y324595D01*
X296151Y324513D01*
X296119Y324429D01*
X296090Y324344D01*
X296065Y324257D01*
X296044Y324170D01*
X296027Y324082D01*
X296013Y323993D01*
X296004Y323903D01*
X295998Y323814D01*
X295996Y323724D01*
X295995Y323724D02*
X295995Y321635D01*
D10*
X283830Y378234D02*
X263700Y378234D01*
D12*
X276239Y366458D02*
X278328Y366458D01*
X278328Y366459D02*
X278417Y366461D01*
X278505Y366467D01*
X278593Y366476D01*
X278681Y366489D01*
X278768Y366506D01*
X278854Y366526D01*
X278939Y366551D01*
X279024Y366578D01*
X279107Y366610D01*
X279188Y366644D01*
X279268Y366683D01*
X279346Y366724D01*
X279423Y366769D01*
X279497Y366817D01*
X279570Y366868D01*
X279640Y366922D01*
X279707Y366980D01*
X279773Y367040D01*
X279835Y367102D01*
X279895Y367168D01*
X279953Y367235D01*
X280007Y367305D01*
X280058Y367378D01*
X280106Y367452D01*
X280151Y367529D01*
X280192Y367607D01*
X280231Y367687D01*
X280265Y367768D01*
X280297Y367851D01*
X280324Y367936D01*
X280349Y368021D01*
X280369Y368107D01*
X280386Y368194D01*
X280399Y368282D01*
X280408Y368370D01*
X280414Y368458D01*
X280416Y368547D01*
X280416Y373768D01*
X280414Y373857D01*
X280408Y373945D01*
X280399Y374033D01*
X280386Y374121D01*
X280369Y374208D01*
X280349Y374294D01*
X280324Y374379D01*
X280297Y374464D01*
X280265Y374547D01*
X280231Y374628D01*
X280192Y374708D01*
X280151Y374786D01*
X280106Y374863D01*
X280058Y374937D01*
X280007Y375010D01*
X279953Y375080D01*
X279895Y375147D01*
X279835Y375213D01*
X279773Y375275D01*
X279707Y375335D01*
X279640Y375393D01*
X279570Y375447D01*
X279497Y375498D01*
X279423Y375546D01*
X279346Y375591D01*
X279268Y375632D01*
X279188Y375671D01*
X279107Y375705D01*
X279024Y375737D01*
X278939Y375764D01*
X278854Y375789D01*
X278768Y375809D01*
X278681Y375826D01*
X278593Y375839D01*
X278505Y375848D01*
X278417Y375854D01*
X278328Y375856D01*
X276239Y375856D01*
X270682Y375856D02*
X272771Y368547D01*
X267550Y368547D01*
X269116Y370635D02*
X269116Y366458D01*
X386931Y308054D02*
X386931Y305966D01*
X386933Y305877D01*
X386939Y305789D01*
X386948Y305701D01*
X386961Y305613D01*
X386978Y305526D01*
X386998Y305440D01*
X387023Y305355D01*
X387050Y305270D01*
X387082Y305187D01*
X387116Y305106D01*
X387155Y305026D01*
X387196Y304948D01*
X387241Y304871D01*
X387289Y304797D01*
X387340Y304724D01*
X387394Y304654D01*
X387452Y304587D01*
X387512Y304521D01*
X387574Y304459D01*
X387640Y304399D01*
X387707Y304341D01*
X387777Y304287D01*
X387850Y304236D01*
X387924Y304188D01*
X388001Y304143D01*
X388079Y304102D01*
X388159Y304063D01*
X388240Y304029D01*
X388323Y303997D01*
X388408Y303970D01*
X388493Y303945D01*
X388579Y303925D01*
X388666Y303908D01*
X388754Y303895D01*
X388842Y303886D01*
X388930Y303880D01*
X389019Y303878D01*
X394240Y303878D01*
X394331Y303880D01*
X394422Y303886D01*
X394513Y303896D01*
X394603Y303910D01*
X394692Y303927D01*
X394780Y303949D01*
X394868Y303975D01*
X394954Y304004D01*
X395039Y304037D01*
X395122Y304074D01*
X395204Y304114D01*
X395284Y304158D01*
X395362Y304205D01*
X395438Y304256D01*
X395511Y304309D01*
X395582Y304366D01*
X395651Y304427D01*
X395716Y304490D01*
X395779Y304555D01*
X395839Y304624D01*
X395897Y304695D01*
X395950Y304768D01*
X396001Y304844D01*
X396048Y304922D01*
X396092Y305002D01*
X396132Y305084D01*
X396169Y305167D01*
X396202Y305252D01*
X396231Y305338D01*
X396257Y305426D01*
X396279Y305514D01*
X396296Y305603D01*
X396310Y305693D01*
X396320Y305784D01*
X396326Y305875D01*
X396328Y305966D01*
X396329Y305966D02*
X396329Y308054D01*
X386931Y311523D02*
X386931Y314656D01*
X386933Y314745D01*
X386939Y314833D01*
X386948Y314921D01*
X386961Y315009D01*
X386978Y315096D01*
X386998Y315182D01*
X387023Y315267D01*
X387050Y315352D01*
X387082Y315435D01*
X387116Y315516D01*
X387155Y315596D01*
X387196Y315674D01*
X387241Y315751D01*
X387289Y315825D01*
X387340Y315898D01*
X387394Y315968D01*
X387452Y316035D01*
X387512Y316101D01*
X387574Y316163D01*
X387640Y316223D01*
X387707Y316281D01*
X387777Y316335D01*
X387850Y316386D01*
X387924Y316434D01*
X388001Y316479D01*
X388079Y316520D01*
X388159Y316559D01*
X388240Y316593D01*
X388323Y316625D01*
X388408Y316652D01*
X388493Y316677D01*
X388579Y316697D01*
X388666Y316714D01*
X388754Y316727D01*
X388842Y316736D01*
X388930Y316742D01*
X389019Y316744D01*
X390064Y316744D01*
X390153Y316742D01*
X390241Y316736D01*
X390329Y316727D01*
X390417Y316714D01*
X390504Y316697D01*
X390590Y316677D01*
X390675Y316652D01*
X390760Y316625D01*
X390843Y316593D01*
X390924Y316559D01*
X391004Y316520D01*
X391082Y316479D01*
X391159Y316434D01*
X391233Y316386D01*
X391306Y316335D01*
X391376Y316281D01*
X391443Y316223D01*
X391509Y316163D01*
X391571Y316101D01*
X391631Y316035D01*
X391689Y315968D01*
X391743Y315898D01*
X391794Y315825D01*
X391842Y315751D01*
X391887Y315674D01*
X391928Y315596D01*
X391967Y315516D01*
X392001Y315435D01*
X392033Y315352D01*
X392060Y315267D01*
X392085Y315182D01*
X392105Y315096D01*
X392122Y315009D01*
X392135Y314921D01*
X392144Y314833D01*
X392150Y314745D01*
X392152Y314656D01*
X392152Y311523D01*
X396329Y311523D01*
X396329Y316744D01*
X384719Y398326D02*
X384719Y400414D01*
X384719Y398326D02*
X384721Y398237D01*
X384727Y398149D01*
X384736Y398061D01*
X384749Y397973D01*
X384766Y397886D01*
X384786Y397800D01*
X384811Y397715D01*
X384838Y397630D01*
X384870Y397547D01*
X384904Y397466D01*
X384943Y397386D01*
X384984Y397308D01*
X385029Y397231D01*
X385077Y397157D01*
X385128Y397084D01*
X385182Y397014D01*
X385240Y396947D01*
X385300Y396881D01*
X385362Y396819D01*
X385428Y396759D01*
X385495Y396701D01*
X385565Y396647D01*
X385638Y396596D01*
X385712Y396548D01*
X385789Y396503D01*
X385867Y396462D01*
X385947Y396423D01*
X386028Y396389D01*
X386111Y396357D01*
X386196Y396330D01*
X386281Y396305D01*
X386367Y396285D01*
X386454Y396268D01*
X386542Y396255D01*
X386630Y396246D01*
X386718Y396240D01*
X386807Y396238D01*
X392028Y396238D01*
X392119Y396240D01*
X392210Y396246D01*
X392301Y396256D01*
X392391Y396270D01*
X392480Y396287D01*
X392568Y396309D01*
X392656Y396335D01*
X392742Y396364D01*
X392827Y396397D01*
X392910Y396434D01*
X392992Y396474D01*
X393072Y396518D01*
X393150Y396565D01*
X393226Y396616D01*
X393299Y396669D01*
X393370Y396726D01*
X393439Y396787D01*
X393504Y396850D01*
X393567Y396915D01*
X393627Y396984D01*
X393685Y397055D01*
X393738Y397128D01*
X393789Y397204D01*
X393836Y397282D01*
X393880Y397362D01*
X393920Y397444D01*
X393957Y397527D01*
X393990Y397612D01*
X394019Y397698D01*
X394045Y397786D01*
X394067Y397874D01*
X394084Y397963D01*
X394098Y398053D01*
X394108Y398144D01*
X394114Y398235D01*
X394116Y398326D01*
X394117Y398326D02*
X394117Y400414D01*
X389940Y403883D02*
X389940Y407016D01*
X389939Y407016D02*
X389937Y407105D01*
X389931Y407193D01*
X389922Y407281D01*
X389909Y407369D01*
X389892Y407456D01*
X389872Y407542D01*
X389847Y407627D01*
X389820Y407712D01*
X389788Y407795D01*
X389754Y407876D01*
X389715Y407956D01*
X389674Y408034D01*
X389629Y408111D01*
X389581Y408185D01*
X389530Y408258D01*
X389476Y408328D01*
X389418Y408395D01*
X389358Y408461D01*
X389296Y408523D01*
X389230Y408583D01*
X389163Y408641D01*
X389093Y408695D01*
X389020Y408746D01*
X388946Y408794D01*
X388869Y408839D01*
X388791Y408880D01*
X388711Y408919D01*
X388630Y408953D01*
X388547Y408985D01*
X388462Y409012D01*
X388377Y409037D01*
X388291Y409057D01*
X388204Y409074D01*
X388116Y409087D01*
X388028Y409096D01*
X387940Y409102D01*
X387851Y409104D01*
X387329Y409104D01*
X387329Y409105D02*
X387228Y409103D01*
X387127Y409097D01*
X387026Y409087D01*
X386926Y409074D01*
X386826Y409056D01*
X386727Y409035D01*
X386629Y409009D01*
X386532Y408980D01*
X386436Y408948D01*
X386342Y408911D01*
X386249Y408871D01*
X386157Y408827D01*
X386068Y408780D01*
X385980Y408729D01*
X385894Y408675D01*
X385811Y408618D01*
X385729Y408558D01*
X385651Y408494D01*
X385574Y408428D01*
X385501Y408358D01*
X385430Y408286D01*
X385362Y408211D01*
X385297Y408133D01*
X385235Y408053D01*
X385176Y407971D01*
X385120Y407886D01*
X385068Y407800D01*
X385019Y407711D01*
X384973Y407620D01*
X384932Y407528D01*
X384893Y407434D01*
X384859Y407339D01*
X384828Y407243D01*
X384801Y407145D01*
X384777Y407047D01*
X384758Y406947D01*
X384742Y406847D01*
X384730Y406747D01*
X384722Y406646D01*
X384718Y406545D01*
X384718Y406443D01*
X384722Y406342D01*
X384730Y406241D01*
X384742Y406141D01*
X384758Y406041D01*
X384777Y405941D01*
X384801Y405843D01*
X384828Y405745D01*
X384859Y405649D01*
X384893Y405554D01*
X384932Y405460D01*
X384973Y405368D01*
X385019Y405277D01*
X385068Y405189D01*
X385120Y405102D01*
X385176Y405017D01*
X385235Y404935D01*
X385297Y404855D01*
X385362Y404777D01*
X385430Y404702D01*
X385501Y404630D01*
X385574Y404560D01*
X385651Y404494D01*
X385729Y404430D01*
X385811Y404370D01*
X385894Y404313D01*
X385980Y404259D01*
X386068Y404208D01*
X386157Y404161D01*
X386249Y404117D01*
X386342Y404077D01*
X386436Y404040D01*
X386532Y404008D01*
X386629Y403979D01*
X386727Y403953D01*
X386826Y403932D01*
X386926Y403914D01*
X387026Y403901D01*
X387127Y403891D01*
X387228Y403885D01*
X387329Y403883D01*
X389940Y403883D01*
X390069Y403885D01*
X390197Y403891D01*
X390325Y403901D01*
X390453Y403915D01*
X390581Y403932D01*
X390708Y403954D01*
X390834Y403980D01*
X390959Y404009D01*
X391083Y404042D01*
X391206Y404080D01*
X391328Y404120D01*
X391449Y404165D01*
X391568Y404213D01*
X391686Y404265D01*
X391802Y404321D01*
X391916Y404380D01*
X392028Y404443D01*
X392139Y404509D01*
X392247Y404578D01*
X392353Y404651D01*
X392457Y404727D01*
X392559Y404806D01*
X392658Y404888D01*
X392754Y404973D01*
X392848Y405061D01*
X392939Y405152D01*
X393027Y405246D01*
X393112Y405342D01*
X393194Y405441D01*
X393273Y405543D01*
X393349Y405647D01*
X393422Y405753D01*
X393491Y405861D01*
X393557Y405971D01*
X393620Y406084D01*
X393679Y406198D01*
X393735Y406314D01*
X393787Y406432D01*
X393835Y406551D01*
X393880Y406672D01*
X393920Y406794D01*
X393958Y406917D01*
X393991Y407041D01*
X394020Y407166D01*
X394046Y407292D01*
X394068Y407419D01*
X394085Y407547D01*
X394099Y407675D01*
X394109Y407803D01*
X394115Y407931D01*
X394117Y408060D01*
X299526Y358523D02*
X297437Y358523D01*
X299526Y358524D02*
X299615Y358526D01*
X299703Y358532D01*
X299791Y358541D01*
X299879Y358554D01*
X299966Y358571D01*
X300052Y358591D01*
X300137Y358616D01*
X300222Y358643D01*
X300305Y358675D01*
X300386Y358709D01*
X300466Y358748D01*
X300544Y358789D01*
X300621Y358834D01*
X300695Y358882D01*
X300768Y358933D01*
X300838Y358987D01*
X300905Y359045D01*
X300971Y359105D01*
X301033Y359167D01*
X301093Y359233D01*
X301151Y359300D01*
X301205Y359370D01*
X301256Y359443D01*
X301304Y359517D01*
X301349Y359594D01*
X301390Y359672D01*
X301429Y359752D01*
X301463Y359833D01*
X301495Y359916D01*
X301522Y360001D01*
X301547Y360086D01*
X301567Y360172D01*
X301584Y360259D01*
X301597Y360347D01*
X301606Y360435D01*
X301612Y360523D01*
X301614Y360612D01*
X301614Y365833D01*
X301612Y365922D01*
X301606Y366010D01*
X301597Y366098D01*
X301584Y366186D01*
X301567Y366273D01*
X301547Y366359D01*
X301522Y366444D01*
X301495Y366529D01*
X301463Y366612D01*
X301429Y366693D01*
X301390Y366773D01*
X301349Y366851D01*
X301304Y366928D01*
X301256Y367002D01*
X301205Y367075D01*
X301151Y367145D01*
X301093Y367212D01*
X301033Y367278D01*
X300971Y367340D01*
X300905Y367400D01*
X300838Y367458D01*
X300768Y367512D01*
X300695Y367563D01*
X300621Y367611D01*
X300544Y367656D01*
X300466Y367697D01*
X300386Y367736D01*
X300305Y367770D01*
X300222Y367802D01*
X300137Y367829D01*
X300052Y367854D01*
X299966Y367874D01*
X299879Y367891D01*
X299791Y367904D01*
X299703Y367913D01*
X299615Y367919D01*
X299526Y367921D01*
X297437Y367921D01*
X293968Y367921D02*
X293968Y366877D01*
X293968Y367921D02*
X288747Y367921D01*
X291358Y358523D01*
X284369Y277289D02*
X282280Y277289D01*
X284369Y277289D02*
X284458Y277291D01*
X284546Y277297D01*
X284634Y277306D01*
X284722Y277319D01*
X284809Y277336D01*
X284895Y277356D01*
X284980Y277381D01*
X285065Y277408D01*
X285148Y277440D01*
X285229Y277474D01*
X285309Y277513D01*
X285387Y277554D01*
X285464Y277599D01*
X285538Y277647D01*
X285611Y277698D01*
X285681Y277752D01*
X285748Y277810D01*
X285814Y277870D01*
X285876Y277932D01*
X285936Y277998D01*
X285994Y278065D01*
X286048Y278135D01*
X286099Y278208D01*
X286147Y278282D01*
X286192Y278359D01*
X286233Y278437D01*
X286272Y278517D01*
X286306Y278598D01*
X286338Y278681D01*
X286365Y278766D01*
X286390Y278851D01*
X286410Y278937D01*
X286427Y279024D01*
X286440Y279112D01*
X286449Y279200D01*
X286455Y279288D01*
X286457Y279377D01*
X286457Y284598D01*
X286455Y284687D01*
X286449Y284775D01*
X286440Y284863D01*
X286427Y284951D01*
X286410Y285038D01*
X286390Y285124D01*
X286365Y285209D01*
X286338Y285294D01*
X286306Y285377D01*
X286272Y285458D01*
X286233Y285538D01*
X286192Y285616D01*
X286147Y285693D01*
X286099Y285767D01*
X286048Y285840D01*
X285994Y285910D01*
X285936Y285977D01*
X285876Y286043D01*
X285814Y286105D01*
X285748Y286165D01*
X285681Y286223D01*
X285611Y286277D01*
X285538Y286328D01*
X285464Y286376D01*
X285387Y286421D01*
X285309Y286462D01*
X285229Y286501D01*
X285148Y286535D01*
X285065Y286567D01*
X284980Y286594D01*
X284895Y286619D01*
X284809Y286639D01*
X284722Y286656D01*
X284634Y286669D01*
X284546Y286678D01*
X284458Y286684D01*
X284369Y286686D01*
X284369Y286687D02*
X282280Y286687D01*
X278812Y279899D02*
X278810Y280000D01*
X278804Y280101D01*
X278794Y280202D01*
X278781Y280302D01*
X278763Y280402D01*
X278742Y280501D01*
X278716Y280599D01*
X278687Y280696D01*
X278655Y280792D01*
X278618Y280886D01*
X278578Y280979D01*
X278534Y281071D01*
X278487Y281160D01*
X278436Y281248D01*
X278382Y281334D01*
X278325Y281417D01*
X278265Y281499D01*
X278201Y281577D01*
X278135Y281654D01*
X278065Y281727D01*
X277993Y281798D01*
X277918Y281866D01*
X277840Y281931D01*
X277760Y281993D01*
X277678Y282052D01*
X277593Y282108D01*
X277507Y282160D01*
X277418Y282209D01*
X277327Y282255D01*
X277235Y282296D01*
X277141Y282335D01*
X277046Y282369D01*
X276950Y282400D01*
X276852Y282427D01*
X276754Y282451D01*
X276654Y282470D01*
X276554Y282486D01*
X276454Y282498D01*
X276353Y282506D01*
X276252Y282510D01*
X276150Y282510D01*
X276049Y282506D01*
X275948Y282498D01*
X275848Y282486D01*
X275748Y282470D01*
X275648Y282451D01*
X275550Y282427D01*
X275452Y282400D01*
X275356Y282369D01*
X275261Y282335D01*
X275167Y282296D01*
X275075Y282255D01*
X274984Y282209D01*
X274896Y282160D01*
X274809Y282108D01*
X274724Y282052D01*
X274642Y281993D01*
X274562Y281931D01*
X274484Y281866D01*
X274409Y281798D01*
X274337Y281727D01*
X274267Y281654D01*
X274201Y281577D01*
X274137Y281499D01*
X274077Y281417D01*
X274020Y281334D01*
X273966Y281248D01*
X273915Y281160D01*
X273868Y281071D01*
X273824Y280979D01*
X273784Y280886D01*
X273747Y280792D01*
X273715Y280696D01*
X273686Y280599D01*
X273660Y280501D01*
X273639Y280402D01*
X273621Y280302D01*
X273608Y280202D01*
X273598Y280101D01*
X273592Y280000D01*
X273590Y279899D01*
X273592Y279798D01*
X273598Y279697D01*
X273608Y279596D01*
X273621Y279496D01*
X273639Y279396D01*
X273660Y279297D01*
X273686Y279199D01*
X273715Y279102D01*
X273747Y279006D01*
X273784Y278912D01*
X273824Y278819D01*
X273868Y278727D01*
X273915Y278638D01*
X273966Y278550D01*
X274020Y278464D01*
X274077Y278381D01*
X274137Y278299D01*
X274201Y278221D01*
X274267Y278144D01*
X274337Y278071D01*
X274409Y278000D01*
X274484Y277932D01*
X274562Y277867D01*
X274642Y277805D01*
X274724Y277746D01*
X274809Y277690D01*
X274896Y277638D01*
X274984Y277589D01*
X275075Y277543D01*
X275167Y277502D01*
X275261Y277463D01*
X275356Y277429D01*
X275452Y277398D01*
X275550Y277371D01*
X275648Y277347D01*
X275748Y277328D01*
X275848Y277312D01*
X275948Y277300D01*
X276049Y277292D01*
X276150Y277288D01*
X276252Y277288D01*
X276353Y277292D01*
X276454Y277300D01*
X276554Y277312D01*
X276654Y277328D01*
X276754Y277347D01*
X276852Y277371D01*
X276950Y277398D01*
X277046Y277429D01*
X277141Y277463D01*
X277235Y277502D01*
X277327Y277543D01*
X277418Y277589D01*
X277506Y277638D01*
X277593Y277690D01*
X277678Y277746D01*
X277760Y277805D01*
X277840Y277867D01*
X277918Y277932D01*
X277993Y278000D01*
X278065Y278071D01*
X278135Y278144D01*
X278201Y278221D01*
X278265Y278299D01*
X278325Y278381D01*
X278382Y278464D01*
X278436Y278550D01*
X278487Y278638D01*
X278534Y278727D01*
X278578Y278819D01*
X278618Y278912D01*
X278655Y279006D01*
X278687Y279102D01*
X278716Y279199D01*
X278742Y279297D01*
X278763Y279396D01*
X278781Y279496D01*
X278794Y279596D01*
X278804Y279697D01*
X278810Y279798D01*
X278812Y279899D01*
X278289Y284598D02*
X278287Y284688D01*
X278281Y284777D01*
X278272Y284867D01*
X278258Y284956D01*
X278241Y285044D01*
X278220Y285131D01*
X278195Y285218D01*
X278166Y285303D01*
X278134Y285387D01*
X278099Y285469D01*
X278059Y285550D01*
X278017Y285629D01*
X277971Y285706D01*
X277921Y285781D01*
X277869Y285854D01*
X277813Y285925D01*
X277755Y285993D01*
X277693Y286058D01*
X277629Y286121D01*
X277562Y286181D01*
X277493Y286238D01*
X277421Y286292D01*
X277347Y286343D01*
X277271Y286391D01*
X277193Y286435D01*
X277113Y286476D01*
X277031Y286514D01*
X276948Y286548D01*
X276863Y286578D01*
X276777Y286605D01*
X276691Y286628D01*
X276603Y286647D01*
X276514Y286662D01*
X276425Y286674D01*
X276336Y286682D01*
X276246Y286686D01*
X276156Y286686D01*
X276066Y286682D01*
X275977Y286674D01*
X275888Y286662D01*
X275799Y286647D01*
X275711Y286628D01*
X275625Y286605D01*
X275539Y286578D01*
X275454Y286548D01*
X275371Y286514D01*
X275289Y286476D01*
X275209Y286435D01*
X275131Y286391D01*
X275055Y286343D01*
X274981Y286292D01*
X274909Y286238D01*
X274840Y286181D01*
X274773Y286121D01*
X274709Y286058D01*
X274647Y285993D01*
X274589Y285925D01*
X274533Y285854D01*
X274481Y285781D01*
X274431Y285706D01*
X274385Y285629D01*
X274343Y285550D01*
X274303Y285469D01*
X274268Y285387D01*
X274236Y285303D01*
X274207Y285218D01*
X274182Y285131D01*
X274161Y285044D01*
X274144Y284956D01*
X274130Y284867D01*
X274121Y284777D01*
X274115Y284688D01*
X274113Y284598D01*
X274115Y284508D01*
X274121Y284419D01*
X274130Y284329D01*
X274144Y284240D01*
X274161Y284152D01*
X274182Y284065D01*
X274207Y283978D01*
X274236Y283893D01*
X274268Y283809D01*
X274303Y283727D01*
X274343Y283646D01*
X274385Y283567D01*
X274431Y283490D01*
X274481Y283415D01*
X274533Y283342D01*
X274589Y283271D01*
X274647Y283203D01*
X274709Y283138D01*
X274773Y283075D01*
X274840Y283015D01*
X274909Y282958D01*
X274981Y282904D01*
X275055Y282853D01*
X275131Y282805D01*
X275209Y282761D01*
X275289Y282720D01*
X275371Y282682D01*
X275454Y282648D01*
X275539Y282618D01*
X275625Y282591D01*
X275711Y282568D01*
X275799Y282549D01*
X275888Y282534D01*
X275977Y282522D01*
X276066Y282514D01*
X276156Y282510D01*
X276246Y282510D01*
X276336Y282514D01*
X276425Y282522D01*
X276514Y282534D01*
X276603Y282549D01*
X276691Y282568D01*
X276777Y282591D01*
X276863Y282618D01*
X276948Y282648D01*
X277031Y282682D01*
X277113Y282720D01*
X277193Y282761D01*
X277271Y282805D01*
X277347Y282853D01*
X277421Y282904D01*
X277493Y282958D01*
X277562Y283015D01*
X277629Y283075D01*
X277693Y283138D01*
X277755Y283203D01*
X277813Y283271D01*
X277869Y283342D01*
X277921Y283415D01*
X277971Y283490D01*
X278017Y283567D01*
X278059Y283646D01*
X278099Y283727D01*
X278134Y283809D01*
X278166Y283893D01*
X278195Y283978D01*
X278220Y284065D01*
X278241Y284152D01*
X278258Y284240D01*
X278272Y284329D01*
X278281Y284419D01*
X278287Y284508D01*
X278289Y284598D01*
X416635Y397332D02*
X418724Y397332D01*
X418724Y397333D02*
X418813Y397335D01*
X418901Y397341D01*
X418989Y397350D01*
X419077Y397363D01*
X419164Y397380D01*
X419250Y397400D01*
X419335Y397425D01*
X419420Y397452D01*
X419503Y397484D01*
X419584Y397518D01*
X419664Y397557D01*
X419742Y397598D01*
X419819Y397643D01*
X419893Y397691D01*
X419966Y397742D01*
X420036Y397796D01*
X420103Y397854D01*
X420169Y397914D01*
X420231Y397976D01*
X420291Y398042D01*
X420349Y398109D01*
X420403Y398179D01*
X420454Y398252D01*
X420502Y398326D01*
X420547Y398403D01*
X420588Y398481D01*
X420627Y398561D01*
X420661Y398642D01*
X420693Y398725D01*
X420720Y398810D01*
X420745Y398895D01*
X420765Y398981D01*
X420782Y399068D01*
X420795Y399156D01*
X420804Y399244D01*
X420810Y399332D01*
X420812Y399421D01*
X420812Y404642D01*
X420810Y404731D01*
X420804Y404819D01*
X420795Y404907D01*
X420782Y404995D01*
X420765Y405082D01*
X420745Y405168D01*
X420720Y405253D01*
X420693Y405338D01*
X420661Y405421D01*
X420627Y405502D01*
X420588Y405582D01*
X420547Y405660D01*
X420502Y405737D01*
X420454Y405811D01*
X420403Y405884D01*
X420349Y405954D01*
X420291Y406021D01*
X420231Y406087D01*
X420169Y406149D01*
X420103Y406209D01*
X420036Y406267D01*
X419966Y406321D01*
X419893Y406372D01*
X419819Y406420D01*
X419742Y406465D01*
X419664Y406506D01*
X419584Y406545D01*
X419503Y406579D01*
X419420Y406611D01*
X419335Y406638D01*
X419250Y406663D01*
X419164Y406683D01*
X419077Y406700D01*
X418989Y406713D01*
X418901Y406722D01*
X418813Y406728D01*
X418724Y406730D01*
X416635Y406730D01*
X411078Y401509D02*
X407945Y401509D01*
X411078Y401510D02*
X411167Y401512D01*
X411255Y401518D01*
X411343Y401527D01*
X411431Y401540D01*
X411518Y401557D01*
X411604Y401577D01*
X411689Y401602D01*
X411774Y401629D01*
X411857Y401661D01*
X411938Y401695D01*
X412018Y401734D01*
X412096Y401775D01*
X412173Y401820D01*
X412247Y401868D01*
X412320Y401919D01*
X412390Y401973D01*
X412457Y402031D01*
X412523Y402091D01*
X412585Y402153D01*
X412645Y402219D01*
X412703Y402286D01*
X412757Y402356D01*
X412808Y402429D01*
X412856Y402503D01*
X412901Y402580D01*
X412942Y402658D01*
X412981Y402738D01*
X413015Y402819D01*
X413047Y402902D01*
X413074Y402987D01*
X413099Y403072D01*
X413119Y403158D01*
X413136Y403245D01*
X413149Y403333D01*
X413158Y403421D01*
X413164Y403509D01*
X413166Y403598D01*
X413166Y404120D01*
X413167Y404120D02*
X413165Y404221D01*
X413159Y404322D01*
X413149Y404423D01*
X413136Y404523D01*
X413118Y404623D01*
X413097Y404722D01*
X413071Y404820D01*
X413042Y404917D01*
X413010Y405013D01*
X412973Y405107D01*
X412933Y405200D01*
X412889Y405292D01*
X412842Y405381D01*
X412791Y405469D01*
X412737Y405555D01*
X412680Y405638D01*
X412620Y405720D01*
X412556Y405798D01*
X412490Y405875D01*
X412420Y405948D01*
X412348Y406019D01*
X412273Y406087D01*
X412195Y406152D01*
X412115Y406214D01*
X412033Y406273D01*
X411948Y406329D01*
X411862Y406381D01*
X411773Y406430D01*
X411682Y406476D01*
X411590Y406517D01*
X411496Y406556D01*
X411401Y406590D01*
X411305Y406621D01*
X411207Y406648D01*
X411109Y406672D01*
X411009Y406691D01*
X410909Y406707D01*
X410809Y406719D01*
X410708Y406727D01*
X410607Y406731D01*
X410505Y406731D01*
X410404Y406727D01*
X410303Y406719D01*
X410203Y406707D01*
X410103Y406691D01*
X410003Y406672D01*
X409905Y406648D01*
X409807Y406621D01*
X409711Y406590D01*
X409616Y406556D01*
X409522Y406517D01*
X409430Y406476D01*
X409339Y406430D01*
X409251Y406381D01*
X409164Y406329D01*
X409079Y406273D01*
X408997Y406214D01*
X408917Y406152D01*
X408839Y406087D01*
X408764Y406019D01*
X408692Y405948D01*
X408622Y405875D01*
X408556Y405798D01*
X408492Y405720D01*
X408432Y405638D01*
X408375Y405555D01*
X408321Y405469D01*
X408270Y405381D01*
X408223Y405292D01*
X408179Y405200D01*
X408139Y405107D01*
X408102Y405013D01*
X408070Y404917D01*
X408041Y404820D01*
X408015Y404722D01*
X407994Y404623D01*
X407976Y404523D01*
X407963Y404423D01*
X407953Y404322D01*
X407947Y404221D01*
X407945Y404120D01*
X407945Y401509D01*
X407947Y401383D01*
X407953Y401257D01*
X407962Y401131D01*
X407975Y401006D01*
X407993Y400881D01*
X408013Y400756D01*
X408038Y400632D01*
X408066Y400509D01*
X408098Y400387D01*
X408134Y400266D01*
X408173Y400146D01*
X408216Y400028D01*
X408263Y399911D01*
X408313Y399795D01*
X408367Y399680D01*
X408423Y399568D01*
X408484Y399457D01*
X408547Y399348D01*
X408614Y399241D01*
X408684Y399136D01*
X408758Y399033D01*
X408834Y398933D01*
X408913Y398835D01*
X408995Y398739D01*
X409081Y398646D01*
X409168Y398555D01*
X409259Y398468D01*
X409352Y398382D01*
X409448Y398300D01*
X409546Y398221D01*
X409646Y398145D01*
X409749Y398071D01*
X409854Y398001D01*
X409961Y397934D01*
X410070Y397871D01*
X410181Y397810D01*
X410293Y397754D01*
X410408Y397700D01*
X410524Y397650D01*
X410641Y397603D01*
X410759Y397560D01*
X410879Y397521D01*
X411000Y397485D01*
X411122Y397453D01*
X411245Y397425D01*
X411369Y397400D01*
X411494Y397380D01*
X411619Y397362D01*
X411744Y397349D01*
X411870Y397340D01*
X411996Y397334D01*
X412122Y397332D01*
X473906Y369484D02*
X473906Y360086D01*
X473906Y369484D02*
X471295Y369484D01*
X471194Y369482D01*
X471093Y369476D01*
X470992Y369466D01*
X470892Y369453D01*
X470792Y369435D01*
X470693Y369414D01*
X470595Y369388D01*
X470498Y369359D01*
X470402Y369327D01*
X470308Y369290D01*
X470215Y369250D01*
X470123Y369206D01*
X470034Y369159D01*
X469946Y369108D01*
X469860Y369054D01*
X469777Y368997D01*
X469695Y368937D01*
X469617Y368873D01*
X469540Y368807D01*
X469467Y368737D01*
X469396Y368665D01*
X469328Y368590D01*
X469263Y368512D01*
X469201Y368432D01*
X469142Y368350D01*
X469086Y368265D01*
X469034Y368179D01*
X468985Y368090D01*
X468939Y367999D01*
X468898Y367907D01*
X468859Y367813D01*
X468825Y367718D01*
X468794Y367622D01*
X468767Y367524D01*
X468743Y367426D01*
X468724Y367326D01*
X468708Y367226D01*
X468696Y367126D01*
X468688Y367025D01*
X468684Y366924D01*
X468684Y366822D01*
X468688Y366721D01*
X468696Y366620D01*
X468708Y366520D01*
X468724Y366420D01*
X468743Y366320D01*
X468767Y366222D01*
X468794Y366124D01*
X468825Y366028D01*
X468859Y365933D01*
X468898Y365839D01*
X468939Y365747D01*
X468985Y365656D01*
X469034Y365568D01*
X469086Y365481D01*
X469142Y365396D01*
X469201Y365314D01*
X469263Y365234D01*
X469328Y365156D01*
X469396Y365081D01*
X469467Y365009D01*
X469540Y364939D01*
X469617Y364873D01*
X469695Y364809D01*
X469777Y364749D01*
X469860Y364692D01*
X469946Y364638D01*
X470034Y364587D01*
X470123Y364540D01*
X470215Y364496D01*
X470308Y364456D01*
X470402Y364419D01*
X470498Y364387D01*
X470595Y364358D01*
X470693Y364332D01*
X470792Y364311D01*
X470892Y364293D01*
X470992Y364280D01*
X471093Y364270D01*
X471194Y364264D01*
X471295Y364262D01*
X473906Y364262D01*
X470773Y364262D02*
X468685Y360086D01*
X464819Y360086D02*
X462208Y360086D01*
X462208Y360085D02*
X462107Y360087D01*
X462006Y360093D01*
X461905Y360103D01*
X461805Y360116D01*
X461705Y360134D01*
X461606Y360155D01*
X461508Y360181D01*
X461411Y360210D01*
X461315Y360242D01*
X461221Y360279D01*
X461128Y360319D01*
X461036Y360363D01*
X460947Y360410D01*
X460859Y360461D01*
X460773Y360515D01*
X460690Y360572D01*
X460608Y360632D01*
X460530Y360696D01*
X460453Y360762D01*
X460380Y360832D01*
X460309Y360904D01*
X460241Y360979D01*
X460176Y361057D01*
X460114Y361137D01*
X460055Y361219D01*
X459999Y361304D01*
X459947Y361391D01*
X459898Y361479D01*
X459852Y361570D01*
X459811Y361662D01*
X459772Y361756D01*
X459738Y361851D01*
X459707Y361947D01*
X459680Y362045D01*
X459656Y362143D01*
X459637Y362243D01*
X459621Y362343D01*
X459609Y362443D01*
X459601Y362544D01*
X459597Y362645D01*
X459597Y362747D01*
X459601Y362848D01*
X459609Y362949D01*
X459621Y363049D01*
X459637Y363149D01*
X459656Y363249D01*
X459680Y363347D01*
X459707Y363445D01*
X459738Y363541D01*
X459772Y363636D01*
X459811Y363730D01*
X459852Y363822D01*
X459898Y363913D01*
X459947Y364002D01*
X459999Y364088D01*
X460055Y364173D01*
X460114Y364255D01*
X460176Y364335D01*
X460241Y364413D01*
X460309Y364488D01*
X460380Y364560D01*
X460453Y364630D01*
X460530Y364696D01*
X460608Y364760D01*
X460690Y364820D01*
X460773Y364877D01*
X460859Y364931D01*
X460947Y364982D01*
X461036Y365029D01*
X461128Y365073D01*
X461221Y365113D01*
X461315Y365150D01*
X461411Y365182D01*
X461508Y365211D01*
X461606Y365237D01*
X461705Y365258D01*
X461805Y365276D01*
X461905Y365289D01*
X462006Y365299D01*
X462107Y365305D01*
X462208Y365307D01*
X461686Y369484D02*
X464819Y369484D01*
X461686Y369483D02*
X461596Y369481D01*
X461507Y369475D01*
X461417Y369466D01*
X461328Y369452D01*
X461240Y369435D01*
X461153Y369414D01*
X461066Y369389D01*
X460981Y369360D01*
X460897Y369328D01*
X460815Y369293D01*
X460734Y369253D01*
X460655Y369211D01*
X460578Y369165D01*
X460503Y369115D01*
X460430Y369063D01*
X460359Y369007D01*
X460291Y368949D01*
X460226Y368887D01*
X460163Y368823D01*
X460103Y368756D01*
X460046Y368687D01*
X459992Y368615D01*
X459941Y368541D01*
X459893Y368465D01*
X459849Y368387D01*
X459808Y368307D01*
X459770Y368225D01*
X459736Y368142D01*
X459706Y368057D01*
X459679Y367971D01*
X459656Y367885D01*
X459637Y367797D01*
X459622Y367708D01*
X459610Y367619D01*
X459602Y367530D01*
X459598Y367440D01*
X459598Y367350D01*
X459602Y367260D01*
X459610Y367171D01*
X459622Y367082D01*
X459637Y366993D01*
X459656Y366905D01*
X459679Y366819D01*
X459706Y366733D01*
X459736Y366648D01*
X459770Y366565D01*
X459808Y366483D01*
X459849Y366403D01*
X459893Y366325D01*
X459941Y366249D01*
X459992Y366175D01*
X460046Y366103D01*
X460103Y366034D01*
X460163Y365967D01*
X460226Y365903D01*
X460291Y365841D01*
X460359Y365783D01*
X460430Y365727D01*
X460503Y365675D01*
X460578Y365625D01*
X460655Y365579D01*
X460734Y365537D01*
X460815Y365497D01*
X460897Y365462D01*
X460981Y365430D01*
X461066Y365401D01*
X461153Y365376D01*
X461240Y365355D01*
X461328Y365338D01*
X461417Y365324D01*
X461507Y365315D01*
X461596Y365309D01*
X461686Y365307D01*
X463774Y365307D01*
M02*
