G04 EAGLE Gerber RS-274X export*
G75*
%MOMM*%
%FSLAX34Y34*%
%LPD*%
%INTop Copper*%
%IPPOS*%
%AMOC8*
5,1,8,0,0,1.08239X$1,22.5*%
G01*
%ADD10R,0.800000X0.800000*%
%ADD11P,1.649562X8X22.500000*%
%ADD12R,1.000000X1.100000*%
%ADD13R,0.475000X0.250000*%
%ADD14R,0.250000X0.475000*%
%ADD15C,1.000000*%
%ADD16R,1.100000X1.000000*%
%ADD17R,0.350000X0.375000*%
%ADD18R,0.375000X0.350000*%
%ADD19C,1.524000*%
%ADD20C,0.254000*%
%ADD21C,0.756400*%
%ADD22C,0.508000*%
%ADD23C,0.304800*%
%ADD24C,0.609600*%
%ADD25C,0.406400*%

G36*
X278503Y190819D02*
X278503Y190819D01*
X278531Y190816D01*
X278599Y190839D01*
X278670Y190853D01*
X278693Y190869D01*
X278720Y190878D01*
X278775Y190925D01*
X278834Y190965D01*
X278849Y190989D01*
X278871Y191008D01*
X278902Y191072D01*
X278941Y191133D01*
X278946Y191161D01*
X278958Y191186D01*
X278967Y191288D01*
X278974Y191329D01*
X278972Y191339D01*
X278973Y191352D01*
X278916Y192067D01*
X314452Y192067D01*
X314595Y192081D01*
X314740Y192088D01*
X314796Y192101D01*
X314853Y192107D01*
X314990Y192149D01*
X315131Y192184D01*
X315183Y192208D01*
X315238Y192225D01*
X315365Y192294D01*
X315495Y192355D01*
X315541Y192390D01*
X315592Y192417D01*
X315703Y192509D01*
X315818Y192595D01*
X315857Y192638D01*
X315901Y192675D01*
X315991Y192787D01*
X316088Y192894D01*
X316117Y192944D01*
X316153Y192989D01*
X316220Y193116D01*
X316293Y193240D01*
X316312Y193295D01*
X316339Y193346D01*
X316379Y193484D01*
X316426Y193620D01*
X316437Y193685D01*
X316450Y193733D01*
X316457Y193816D01*
X316478Y193948D01*
X316479Y193965D01*
X316477Y194041D01*
X316485Y194117D01*
X316483Y194133D01*
X316483Y194134D01*
X316482Y194142D01*
X316472Y194242D01*
X316469Y194368D01*
X316452Y194442D01*
X316445Y194517D01*
X316408Y194637D01*
X316383Y194745D01*
X316579Y195605D01*
X316588Y195671D01*
X316602Y195762D01*
X316603Y195764D01*
X316603Y195767D01*
X316625Y195905D01*
X316691Y196790D01*
X316724Y196830D01*
X316783Y196941D01*
X316849Y197047D01*
X316877Y197118D01*
X316912Y197186D01*
X316962Y197341D01*
X316993Y197423D01*
X316999Y197459D01*
X317012Y197502D01*
X317205Y198345D01*
X317214Y198421D01*
X317233Y198495D01*
X317239Y198621D01*
X317255Y198745D01*
X317250Y198821D01*
X317253Y198897D01*
X317235Y199021D01*
X317227Y199133D01*
X317549Y199953D01*
X317567Y200017D01*
X317638Y200243D01*
X317835Y201108D01*
X317874Y201143D01*
X317949Y201244D01*
X318031Y201339D01*
X318068Y201405D01*
X318114Y201467D01*
X318185Y201613D01*
X318228Y201689D01*
X318239Y201723D01*
X318260Y201765D01*
X318576Y202570D01*
X318596Y202643D01*
X318626Y202714D01*
X318651Y202836D01*
X318685Y202957D01*
X318691Y203034D01*
X318706Y203108D01*
X318706Y203234D01*
X318714Y203345D01*
X319155Y204108D01*
X319183Y204169D01*
X319287Y204382D01*
X319611Y205208D01*
X319654Y205236D01*
X319743Y205325D01*
X319838Y205407D01*
X319885Y205467D01*
X319939Y205521D01*
X320032Y205655D01*
X320086Y205724D01*
X320102Y205756D01*
X320128Y205794D01*
X320560Y206543D01*
X320592Y206612D01*
X320632Y206678D01*
X320675Y206795D01*
X320726Y206909D01*
X320743Y206984D01*
X320770Y207056D01*
X320788Y207180D01*
X320813Y207288D01*
X321363Y207977D01*
X321399Y208034D01*
X321534Y208228D01*
X321977Y208997D01*
X322025Y209019D01*
X322126Y209093D01*
X322232Y209160D01*
X322287Y209212D01*
X322349Y209257D01*
X322461Y209377D01*
X322524Y209436D01*
X322545Y209466D01*
X322576Y209499D01*
X323115Y210175D01*
X323157Y210239D01*
X323206Y210298D01*
X323266Y210408D01*
X323334Y210513D01*
X323362Y210584D01*
X323399Y210652D01*
X323436Y210771D01*
X323477Y210875D01*
X324122Y211474D01*
X324167Y211525D01*
X324329Y211697D01*
X324882Y212391D01*
X324932Y212405D01*
X325043Y212464D01*
X325158Y212514D01*
X325221Y212558D01*
X325288Y212593D01*
X325417Y212694D01*
X325488Y212744D01*
X325513Y212770D01*
X325549Y212798D01*
X326183Y213386D01*
X326234Y213444D01*
X326291Y213494D01*
X326367Y213594D01*
X326450Y213688D01*
X326488Y213754D01*
X326534Y213815D01*
X326589Y213928D01*
X326645Y214025D01*
X327373Y214521D01*
X327424Y214564D01*
X327610Y214710D01*
X328261Y215314D01*
X328312Y215321D01*
X328430Y215362D01*
X328552Y215395D01*
X328620Y215428D01*
X328692Y215454D01*
X328834Y215534D01*
X328913Y215573D01*
X328941Y215595D01*
X328981Y215618D01*
X329695Y216105D01*
X329754Y216154D01*
X329818Y216195D01*
X329908Y216283D01*
X330004Y216363D01*
X330052Y216423D01*
X330106Y216477D01*
X330177Y216580D01*
X330247Y216667D01*
X331040Y217049D01*
X331097Y217084D01*
X331303Y217201D01*
X332037Y217701D01*
X332089Y217700D01*
X332212Y217723D01*
X332337Y217737D01*
X332410Y217761D01*
X332485Y217775D01*
X332637Y217833D01*
X332720Y217860D01*
X332751Y217877D01*
X332794Y217894D01*
X333573Y218269D01*
X333639Y218309D01*
X333708Y218340D01*
X333810Y218414D01*
X333917Y218479D01*
X333973Y218531D01*
X334035Y218575D01*
X334121Y218667D01*
X334202Y218743D01*
X335044Y219003D01*
X335106Y219029D01*
X335327Y219114D01*
X336126Y219499D01*
X336178Y219490D01*
X336303Y219495D01*
X336428Y219490D01*
X336504Y219502D01*
X336580Y219505D01*
X336740Y219540D01*
X336826Y219554D01*
X336860Y219566D01*
X336904Y219576D01*
X337731Y219831D01*
X337801Y219861D01*
X337875Y219882D01*
X337986Y219939D01*
X338102Y219987D01*
X338165Y220030D01*
X338233Y220065D01*
X338331Y220143D01*
X338423Y220206D01*
X339294Y220337D01*
X339360Y220354D01*
X339590Y220405D01*
X340438Y220666D01*
X340488Y220650D01*
X340613Y220636D01*
X340736Y220613D01*
X340812Y220614D01*
X340888Y220605D01*
X341051Y220616D01*
X341138Y220617D01*
X341173Y220624D01*
X341219Y220627D01*
X342074Y220756D01*
X342148Y220775D01*
X342224Y220785D01*
X342343Y220825D01*
X342464Y220855D01*
X342533Y220889D01*
X342606Y220913D01*
X342715Y220975D01*
X342815Y221024D01*
X343696Y221024D01*
X343763Y221030D01*
X343999Y221046D01*
X344876Y221179D01*
X344923Y221155D01*
X345044Y221123D01*
X345162Y221081D01*
X345238Y221071D01*
X345312Y221051D01*
X345475Y221037D01*
X345561Y221025D01*
X345597Y221027D01*
X345643Y221024D01*
X346507Y221024D01*
X346583Y221031D01*
X346660Y221029D01*
X346783Y221051D01*
X346908Y221064D01*
X346981Y221086D01*
X347056Y221099D01*
X347173Y221145D01*
X347280Y221178D01*
X348151Y221046D01*
X348218Y221043D01*
X348454Y221024D01*
X349341Y221024D01*
X349384Y220994D01*
X349499Y220944D01*
X349609Y220885D01*
X349683Y220863D01*
X349753Y220832D01*
X349912Y220795D01*
X349995Y220770D01*
X350031Y220767D01*
X350076Y220756D01*
X350931Y220627D01*
X351007Y220624D01*
X351082Y220610D01*
X351208Y220614D01*
X351333Y220607D01*
X351408Y220618D01*
X351485Y220620D01*
X351607Y220648D01*
X351717Y220665D01*
X352560Y220405D01*
X352626Y220391D01*
X352856Y220337D01*
X353733Y220205D01*
X353771Y220169D01*
X353877Y220102D01*
X353977Y220028D01*
X354047Y219995D01*
X354111Y219955D01*
X354263Y219894D01*
X354342Y219857D01*
X354377Y219848D01*
X354419Y219831D01*
X355246Y219576D01*
X355321Y219561D01*
X355393Y219537D01*
X355518Y219521D01*
X355640Y219496D01*
X355717Y219496D01*
X355793Y219487D01*
X355918Y219496D01*
X356029Y219496D01*
X356823Y219114D01*
X356886Y219090D01*
X357106Y219003D01*
X357954Y218741D01*
X357986Y218700D01*
X358081Y218618D01*
X358169Y218529D01*
X358233Y218487D01*
X358291Y218437D01*
X358431Y218354D01*
X358504Y218306D01*
X358537Y218292D01*
X358577Y218269D01*
X358740Y218190D01*
X358814Y218163D01*
X358885Y218127D01*
X359003Y218094D01*
X359118Y218053D01*
X359197Y218041D01*
X359273Y218019D01*
X359395Y218010D01*
X359516Y217992D01*
X359595Y217996D01*
X359675Y217990D01*
X359796Y218005D01*
X359918Y218011D01*
X359995Y218030D01*
X360074Y218040D01*
X360190Y218079D01*
X360309Y218109D01*
X360380Y218143D01*
X360456Y218169D01*
X360562Y218230D01*
X360672Y218282D01*
X360736Y218330D01*
X360805Y218370D01*
X360925Y218472D01*
X360994Y218524D01*
X361020Y218552D01*
X361058Y218584D01*
X361636Y219163D01*
X361653Y219184D01*
X361674Y219201D01*
X361781Y219339D01*
X361891Y219475D01*
X361904Y219498D01*
X361920Y219519D01*
X361998Y219676D01*
X362080Y219830D01*
X362088Y219856D01*
X362100Y219880D01*
X362145Y220049D01*
X362195Y220216D01*
X362197Y220243D01*
X362204Y220269D01*
X362231Y220599D01*
X362231Y221870D01*
X363155Y224100D01*
X364862Y225807D01*
X367093Y226731D01*
X369507Y226731D01*
X371738Y225807D01*
X373445Y224100D01*
X374369Y221870D01*
X374369Y219455D01*
X373445Y217225D01*
X371738Y215518D01*
X369368Y214536D01*
X369349Y214533D01*
X369204Y214481D01*
X369056Y214436D01*
X369014Y214413D01*
X368970Y214397D01*
X368838Y214318D01*
X368702Y214244D01*
X368666Y214214D01*
X368625Y214190D01*
X368511Y214085D01*
X368392Y213986D01*
X368363Y213950D01*
X368328Y213918D01*
X368237Y213793D01*
X368140Y213672D01*
X368118Y213631D01*
X368091Y213593D01*
X368026Y213452D01*
X367955Y213315D01*
X367942Y213270D01*
X367922Y213227D01*
X367886Y213077D01*
X367843Y212928D01*
X367839Y212881D01*
X367828Y212836D01*
X367823Y212681D01*
X367810Y212527D01*
X367816Y212480D01*
X367814Y212433D01*
X367839Y212281D01*
X367857Y212127D01*
X367872Y212082D01*
X367879Y212036D01*
X367934Y211891D01*
X367982Y211744D01*
X368005Y211703D01*
X368022Y211659D01*
X368104Y211528D01*
X368180Y211394D01*
X368211Y211358D01*
X368236Y211318D01*
X368404Y211134D01*
X368443Y211089D01*
X368451Y211083D01*
X368460Y211073D01*
X368678Y210871D01*
X368689Y210820D01*
X368739Y210705D01*
X368780Y210587D01*
X368819Y210521D01*
X368850Y210451D01*
X368941Y210315D01*
X368985Y210240D01*
X369009Y210213D01*
X369035Y210175D01*
X369574Y209499D01*
X369627Y209444D01*
X369673Y209383D01*
X369767Y209301D01*
X369855Y209211D01*
X369918Y209168D01*
X369975Y209117D01*
X370084Y209054D01*
X370176Y208991D01*
X370616Y208228D01*
X370656Y208174D01*
X370787Y207977D01*
X371341Y207284D01*
X371344Y207231D01*
X371376Y207110D01*
X371399Y206987D01*
X371428Y206916D01*
X371448Y206842D01*
X371518Y206695D01*
X371550Y206614D01*
X371570Y206584D01*
X371590Y206543D01*
X372022Y205794D01*
X372067Y205731D01*
X372103Y205664D01*
X372184Y205569D01*
X372257Y205467D01*
X372313Y205415D01*
X372362Y205356D01*
X372460Y205278D01*
X372541Y205202D01*
X372863Y204382D01*
X372894Y204322D01*
X372995Y204108D01*
X373439Y203340D01*
X373434Y203288D01*
X373448Y203163D01*
X373453Y203038D01*
X373470Y202963D01*
X373479Y202887D01*
X373526Y202731D01*
X373546Y202646D01*
X373561Y202614D01*
X373574Y202570D01*
X373890Y201765D01*
X373925Y201697D01*
X373951Y201625D01*
X374017Y201518D01*
X374074Y201406D01*
X374122Y201346D01*
X374161Y201281D01*
X374246Y201190D01*
X374316Y201102D01*
X374512Y200243D01*
X374533Y200179D01*
X374601Y199953D01*
X374926Y199127D01*
X374913Y199076D01*
X374909Y198951D01*
X374894Y198826D01*
X374901Y198750D01*
X374898Y198674D01*
X374921Y198512D01*
X374929Y198425D01*
X374939Y198391D01*
X374945Y198345D01*
X375138Y197502D01*
X375162Y197430D01*
X375177Y197355D01*
X375226Y197239D01*
X375266Y197121D01*
X375304Y197054D01*
X375333Y196984D01*
X375404Y196880D01*
X375460Y196784D01*
X375525Y195905D01*
X375537Y195839D01*
X375571Y195605D01*
X375768Y194740D01*
X375749Y194693D01*
X375725Y194569D01*
X375692Y194447D01*
X375688Y194372D01*
X375673Y194297D01*
X375672Y194133D01*
X375670Y194107D01*
X375667Y194063D01*
X375667Y194059D01*
X375666Y194045D01*
X375671Y194010D01*
X375671Y193965D01*
X375672Y193948D01*
X375697Y193806D01*
X375714Y193663D01*
X375732Y193608D01*
X375742Y193551D01*
X375794Y193417D01*
X375839Y193280D01*
X375867Y193230D01*
X375888Y193176D01*
X375966Y193055D01*
X376036Y192930D01*
X376074Y192886D01*
X376105Y192838D01*
X376206Y192734D01*
X376300Y192625D01*
X376345Y192590D01*
X376385Y192548D01*
X376504Y192466D01*
X376618Y192378D01*
X376669Y192353D01*
X376717Y192320D01*
X376849Y192263D01*
X376978Y192199D01*
X377034Y192184D01*
X377087Y192161D01*
X377228Y192132D01*
X377367Y192094D01*
X377433Y192089D01*
X377481Y192079D01*
X377564Y192078D01*
X377698Y192067D01*
X413234Y192067D01*
X413177Y191352D01*
X413181Y191324D01*
X413176Y191296D01*
X413193Y191226D01*
X413201Y191155D01*
X413216Y191130D01*
X413222Y191103D01*
X413265Y191045D01*
X413301Y190982D01*
X413323Y190965D01*
X413340Y190942D01*
X413402Y190906D01*
X413459Y190862D01*
X413487Y190855D01*
X413511Y190841D01*
X413611Y190824D01*
X413652Y190814D01*
X413662Y190815D01*
X413675Y190813D01*
X432675Y190813D01*
X432751Y190829D01*
X432829Y190837D01*
X432848Y190848D01*
X432870Y190853D01*
X432934Y190897D01*
X433002Y190935D01*
X433018Y190954D01*
X433034Y190965D01*
X433058Y191003D01*
X433108Y191063D01*
X442608Y207563D01*
X442617Y207591D01*
X442633Y207614D01*
X442648Y207684D01*
X442671Y207752D01*
X442668Y207781D01*
X442674Y207809D01*
X442661Y207879D01*
X442655Y207950D01*
X442642Y207976D01*
X442636Y208004D01*
X442596Y208063D01*
X442563Y208127D01*
X442541Y208145D01*
X442525Y208169D01*
X442442Y208226D01*
X442410Y208253D01*
X442399Y208256D01*
X442389Y208264D01*
X441761Y208560D01*
X459503Y239290D01*
X459562Y239423D01*
X459629Y239551D01*
X459645Y239606D01*
X459669Y239657D01*
X459701Y239799D01*
X459741Y239938D01*
X459746Y239994D01*
X459759Y240050D01*
X459763Y240195D01*
X459775Y240339D01*
X459768Y240395D01*
X459770Y240452D01*
X459745Y240595D01*
X459728Y240739D01*
X459711Y240793D01*
X459701Y240849D01*
X459649Y240984D01*
X459604Y241122D01*
X459576Y241172D01*
X459556Y241224D01*
X459478Y241346D01*
X459406Y241473D01*
X459369Y241516D01*
X459339Y241564D01*
X459238Y241668D01*
X459144Y241778D01*
X459097Y241816D01*
X459077Y241837D01*
X459072Y241840D01*
X459059Y241854D01*
X458991Y241901D01*
X458885Y241986D01*
X458877Y241992D01*
X458811Y242028D01*
X458750Y242071D01*
X458735Y242078D01*
X458728Y242083D01*
X458652Y242116D01*
X458635Y242123D01*
X458523Y242184D01*
X458452Y242206D01*
X458383Y242237D01*
X458259Y242265D01*
X458155Y242298D01*
X457508Y242897D01*
X457455Y242938D01*
X457271Y243086D01*
X456537Y243586D01*
X456519Y243635D01*
X456452Y243741D01*
X456394Y243852D01*
X456346Y243911D01*
X456305Y243976D01*
X456195Y244096D01*
X456140Y244164D01*
X456112Y244187D01*
X456081Y244220D01*
X455445Y244810D01*
X455384Y244856D01*
X455329Y244910D01*
X455224Y244977D01*
X455124Y245053D01*
X455055Y245086D01*
X454991Y245128D01*
X454875Y245174D01*
X454774Y245222D01*
X454225Y245911D01*
X454178Y245959D01*
X454018Y246133D01*
X453367Y246737D01*
X453356Y246788D01*
X453306Y246903D01*
X453265Y247021D01*
X453226Y247087D01*
X453195Y247157D01*
X453104Y247292D01*
X453060Y247367D01*
X453036Y247394D01*
X453010Y247432D01*
X452470Y248110D01*
X452416Y248165D01*
X452370Y248226D01*
X452276Y248309D01*
X452189Y248398D01*
X452126Y248441D01*
X452068Y248492D01*
X451959Y248555D01*
X451868Y248618D01*
X451427Y249380D01*
X451388Y249435D01*
X451256Y249631D01*
X450702Y250325D01*
X450699Y250377D01*
X450667Y250498D01*
X450643Y250621D01*
X450615Y250692D01*
X450595Y250766D01*
X450525Y250914D01*
X450492Y250994D01*
X450473Y251024D01*
X450453Y251066D01*
X450019Y251816D01*
X449975Y251879D01*
X449938Y251946D01*
X449857Y252042D01*
X449784Y252143D01*
X449728Y252195D01*
X449679Y252254D01*
X449581Y252332D01*
X449500Y252408D01*
X449177Y253228D01*
X449147Y253288D01*
X449045Y253502D01*
X448602Y254270D01*
X448606Y254322D01*
X448592Y254446D01*
X448588Y254572D01*
X448570Y254646D01*
X448561Y254722D01*
X448514Y254878D01*
X448494Y254963D01*
X448479Y254996D01*
X448466Y255040D01*
X448149Y255847D01*
X448114Y255915D01*
X448088Y255987D01*
X448022Y256094D01*
X447965Y256205D01*
X447917Y256265D01*
X447877Y256330D01*
X447792Y256422D01*
X447723Y256509D01*
X447527Y257368D01*
X447505Y257432D01*
X447437Y257658D01*
X447113Y258484D01*
X447125Y258535D01*
X447130Y258660D01*
X447144Y258785D01*
X447137Y258861D01*
X447140Y258938D01*
X447117Y259099D01*
X447109Y259186D01*
X447099Y259220D01*
X447093Y259266D01*
X446900Y260111D01*
X446875Y260184D01*
X446860Y260259D01*
X446811Y260374D01*
X446771Y260493D01*
X446733Y260559D01*
X446704Y260630D01*
X446633Y260733D01*
X446577Y260830D01*
X446511Y261708D01*
X446500Y261775D01*
X446466Y262009D01*
X446268Y262874D01*
X446288Y262922D01*
X446311Y263045D01*
X446344Y263166D01*
X446349Y263242D01*
X446363Y263318D01*
X446364Y263481D01*
X446370Y263568D01*
X446365Y263603D01*
X446365Y263649D01*
X446300Y264514D01*
X446287Y264589D01*
X446283Y264666D01*
X446252Y264787D01*
X446230Y264910D01*
X446202Y264982D01*
X446183Y265056D01*
X446129Y265168D01*
X446089Y265272D01*
X446154Y266151D01*
X446152Y266218D01*
X446154Y266455D01*
X446087Y267340D01*
X446114Y267384D01*
X446156Y267503D01*
X446206Y267617D01*
X446222Y267692D01*
X446247Y267764D01*
X446273Y267925D01*
X446291Y268011D01*
X446292Y268047D01*
X446299Y268092D01*
X446352Y268802D01*
X446349Y268904D01*
X446357Y269006D01*
X446344Y269105D01*
X446342Y269204D01*
X446319Y269304D01*
X446306Y269406D01*
X446275Y269500D01*
X446253Y269597D01*
X446211Y269690D01*
X446178Y269787D01*
X446129Y269873D01*
X446088Y269964D01*
X446028Y270047D01*
X445977Y270136D01*
X445900Y270228D01*
X445854Y270292D01*
X445812Y270330D01*
X445763Y270389D01*
X445411Y270741D01*
X445390Y270758D01*
X445373Y270778D01*
X445235Y270885D01*
X445099Y270996D01*
X445076Y271008D01*
X445055Y271025D01*
X444898Y271103D01*
X444744Y271185D01*
X444718Y271192D01*
X444694Y271204D01*
X444525Y271250D01*
X444358Y271299D01*
X444331Y271302D01*
X444305Y271309D01*
X443974Y271336D01*
X442929Y271336D01*
X440699Y272260D01*
X438930Y274028D01*
X438899Y274087D01*
X438890Y274097D01*
X438883Y274109D01*
X438762Y274252D01*
X438642Y274397D01*
X438632Y274406D01*
X438623Y274416D01*
X438476Y274532D01*
X438330Y274651D01*
X438318Y274658D01*
X438307Y274666D01*
X438140Y274751D01*
X437973Y274838D01*
X437960Y274842D01*
X437948Y274848D01*
X437767Y274899D01*
X437587Y274951D01*
X437573Y274953D01*
X437560Y274956D01*
X437372Y274970D01*
X437186Y274986D01*
X437172Y274985D01*
X437159Y274986D01*
X436971Y274962D01*
X436786Y274941D01*
X436773Y274937D01*
X436759Y274935D01*
X436580Y274875D01*
X436402Y274818D01*
X436390Y274811D01*
X436378Y274807D01*
X436214Y274713D01*
X436051Y274622D01*
X436040Y274613D01*
X436029Y274606D01*
X435776Y274391D01*
X431380Y269995D01*
X431363Y269975D01*
X431342Y269957D01*
X431236Y269820D01*
X431125Y269684D01*
X431112Y269660D01*
X431096Y269639D01*
X431018Y269483D01*
X430936Y269328D01*
X430928Y269303D01*
X430916Y269279D01*
X430871Y269110D01*
X430821Y268942D01*
X430819Y268916D01*
X430812Y268890D01*
X430785Y268559D01*
X430785Y265321D01*
X430788Y265290D01*
X430786Y265258D01*
X430808Y265089D01*
X430825Y264920D01*
X430834Y264890D01*
X430838Y264859D01*
X430939Y264543D01*
X431519Y263145D01*
X431519Y260730D01*
X430595Y258500D01*
X428888Y256793D01*
X426657Y255869D01*
X424243Y255869D01*
X422012Y256793D01*
X420305Y258500D01*
X419381Y260730D01*
X419381Y263145D01*
X419961Y264543D01*
X419970Y264573D01*
X419984Y264601D01*
X420028Y264766D01*
X420077Y264929D01*
X420080Y264960D01*
X420088Y264990D01*
X420115Y265321D01*
X420115Y272671D01*
X420927Y274632D01*
X437338Y291043D01*
X438336Y291456D01*
X438360Y291469D01*
X438385Y291477D01*
X438537Y291564D01*
X438691Y291646D01*
X438711Y291663D01*
X438735Y291677D01*
X438867Y291792D01*
X439001Y291903D01*
X439018Y291924D01*
X439038Y291941D01*
X439145Y292080D01*
X439255Y292215D01*
X439267Y292239D01*
X439284Y292261D01*
X439316Y292323D01*
X441062Y294070D01*
X443293Y294994D01*
X445707Y294994D01*
X447938Y294070D01*
X449645Y292363D01*
X450569Y290132D01*
X450569Y287945D01*
X450586Y287772D01*
X450598Y287600D01*
X450606Y287572D01*
X450609Y287544D01*
X450660Y287378D01*
X450706Y287212D01*
X450718Y287186D01*
X450727Y287159D01*
X450809Y287007D01*
X450887Y286853D01*
X450905Y286830D01*
X450919Y286805D01*
X451029Y286673D01*
X451136Y286536D01*
X451158Y286518D01*
X451176Y286496D01*
X451311Y286388D01*
X451443Y286275D01*
X451468Y286261D01*
X451490Y286244D01*
X451644Y286164D01*
X451795Y286080D01*
X451822Y286071D01*
X451847Y286058D01*
X452014Y286010D01*
X452179Y285958D01*
X452207Y285955D01*
X452234Y285947D01*
X452407Y285933D01*
X452579Y285914D01*
X452607Y285916D01*
X452636Y285914D01*
X452807Y285934D01*
X452980Y285949D01*
X453007Y285957D01*
X453035Y285961D01*
X453200Y286015D01*
X453366Y286064D01*
X453391Y286077D01*
X453418Y286086D01*
X453569Y286171D01*
X453722Y286252D01*
X453747Y286271D01*
X453769Y286284D01*
X453833Y286339D01*
X453983Y286457D01*
X454006Y286478D01*
X454042Y286520D01*
X454073Y286547D01*
X454104Y286585D01*
X454211Y286700D01*
X454764Y287394D01*
X454814Y287409D01*
X454925Y287467D01*
X455040Y287517D01*
X455103Y287561D01*
X455171Y287597D01*
X455299Y287698D01*
X455370Y287748D01*
X455395Y287773D01*
X455431Y287802D01*
X456067Y288392D01*
X456117Y288449D01*
X456175Y288500D01*
X456250Y288600D01*
X456333Y288694D01*
X456371Y288760D01*
X456418Y288821D01*
X456472Y288934D01*
X456528Y289030D01*
X457256Y289527D01*
X457308Y289570D01*
X457493Y289716D01*
X458143Y290320D01*
X458195Y290327D01*
X458314Y290368D01*
X458434Y290401D01*
X458503Y290435D01*
X458575Y290460D01*
X458717Y290541D01*
X458795Y290579D01*
X458824Y290601D01*
X458864Y290624D01*
X459580Y291112D01*
X459639Y291162D01*
X459703Y291203D01*
X459792Y291291D01*
X459888Y291371D01*
X459936Y291431D01*
X459991Y291484D01*
X460062Y291588D01*
X460131Y291675D01*
X460925Y292057D01*
X460982Y292093D01*
X461188Y292209D01*
X461921Y292709D01*
X461973Y292709D01*
X462096Y292732D01*
X462221Y292746D01*
X462293Y292769D01*
X462369Y292783D01*
X462521Y292842D01*
X462604Y292869D01*
X462635Y292886D01*
X462678Y292903D01*
X463459Y293279D01*
X463524Y293319D01*
X463594Y293350D01*
X463696Y293424D01*
X463803Y293489D01*
X463859Y293541D01*
X463921Y293585D01*
X464006Y293677D01*
X464088Y293753D01*
X464930Y294013D01*
X464992Y294039D01*
X465213Y294124D01*
X466012Y294509D01*
X466063Y294501D01*
X466189Y294505D01*
X466314Y294501D01*
X466389Y294513D01*
X466466Y294516D01*
X466625Y294551D01*
X466711Y294565D01*
X466745Y294577D01*
X466790Y294587D01*
X467618Y294843D01*
X467689Y294873D01*
X467762Y294894D01*
X467874Y294951D01*
X467989Y294999D01*
X468052Y295042D01*
X468121Y295077D01*
X468218Y295155D01*
X468311Y295218D01*
X469182Y295350D01*
X469247Y295366D01*
X469478Y295417D01*
X470326Y295679D01*
X470376Y295663D01*
X470500Y295649D01*
X470623Y295626D01*
X470699Y295627D01*
X470776Y295618D01*
X470938Y295629D01*
X471025Y295630D01*
X471061Y295637D01*
X471107Y295640D01*
X471964Y295770D01*
X472038Y295789D01*
X472114Y295798D01*
X472232Y295838D01*
X472354Y295869D01*
X472423Y295902D01*
X472495Y295927D01*
X472604Y295989D01*
X472704Y296038D01*
X473586Y296038D01*
X473652Y296045D01*
X473888Y296061D01*
X474766Y296193D01*
X474812Y296170D01*
X474933Y296138D01*
X475052Y296096D01*
X475127Y296085D01*
X475201Y296066D01*
X475364Y296052D01*
X475450Y296040D01*
X475486Y296042D01*
X475532Y296039D01*
X476399Y296039D01*
X476475Y296046D01*
X476552Y296045D01*
X476675Y296066D01*
X476799Y296079D01*
X476873Y296101D01*
X476948Y296115D01*
X477065Y296160D01*
X477171Y296193D01*
X478043Y296062D01*
X478110Y296059D01*
X478345Y296039D01*
X479233Y296040D01*
X479275Y296010D01*
X479390Y295960D01*
X479501Y295901D01*
X479574Y295879D01*
X479644Y295849D01*
X479803Y295811D01*
X479887Y295786D01*
X479923Y295783D01*
X479967Y295773D01*
X480825Y295644D01*
X480901Y295640D01*
X480976Y295627D01*
X481102Y295630D01*
X481227Y295623D01*
X481302Y295635D01*
X481379Y295637D01*
X481501Y295665D01*
X481611Y295681D01*
X482453Y295422D01*
X482519Y295408D01*
X482749Y295354D01*
X483627Y295222D01*
X483665Y295186D01*
X483771Y295119D01*
X483871Y295045D01*
X483941Y295012D01*
X484006Y294972D01*
X484157Y294911D01*
X484236Y294874D01*
X484271Y294866D01*
X484314Y294848D01*
X485142Y294593D01*
X485217Y294578D01*
X485290Y294554D01*
X485414Y294538D01*
X485537Y294513D01*
X485613Y294513D01*
X485689Y294504D01*
X485814Y294513D01*
X485926Y294513D01*
X486720Y294131D01*
X486782Y294108D01*
X487002Y294020D01*
X487850Y293759D01*
X487883Y293717D01*
X487977Y293636D01*
X488066Y293547D01*
X488130Y293504D01*
X488188Y293454D01*
X488328Y293372D01*
X488401Y293324D01*
X488434Y293310D01*
X488475Y293286D01*
X488501Y293274D01*
X488635Y293225D01*
X488766Y293169D01*
X488824Y293156D01*
X488879Y293136D01*
X489020Y293115D01*
X489160Y293085D01*
X489219Y293085D01*
X489277Y293076D01*
X489420Y293083D01*
X489562Y293081D01*
X489621Y293093D01*
X489680Y293095D01*
X489818Y293130D01*
X489958Y293157D01*
X490013Y293179D01*
X490070Y293194D01*
X490199Y293255D01*
X490331Y293309D01*
X490380Y293342D01*
X490433Y293367D01*
X490547Y293453D01*
X490666Y293532D01*
X490708Y293574D01*
X490755Y293609D01*
X490850Y293715D01*
X490951Y293816D01*
X490990Y293872D01*
X491023Y293910D01*
X491065Y293981D01*
X491140Y294089D01*
X508883Y324822D01*
X509491Y324402D01*
X509518Y324390D01*
X509540Y324372D01*
X509609Y324352D01*
X509674Y324324D01*
X509703Y324323D01*
X509731Y324315D01*
X509802Y324323D01*
X509873Y324323D01*
X509900Y324334D01*
X509929Y324337D01*
X509991Y324373D01*
X510056Y324400D01*
X510077Y324421D01*
X510102Y324435D01*
X510165Y324512D01*
X510195Y324543D01*
X510199Y324553D01*
X510208Y324563D01*
X519708Y341063D01*
X519718Y341095D01*
X519727Y341108D01*
X519731Y341133D01*
X519732Y341136D01*
X519763Y341207D01*
X519763Y341230D01*
X519771Y341252D01*
X519765Y341329D01*
X519766Y341406D01*
X519756Y341430D01*
X519755Y341450D01*
X519734Y341490D01*
X519708Y341562D01*
X510208Y358062D01*
X510189Y358083D01*
X510176Y358110D01*
X510123Y358157D01*
X510076Y358211D01*
X510050Y358223D01*
X510029Y358243D01*
X509961Y358266D01*
X509897Y358297D01*
X509868Y358298D01*
X509841Y358307D01*
X509769Y358303D01*
X509698Y358306D01*
X509671Y358296D01*
X509642Y358294D01*
X509552Y358251D01*
X509512Y358237D01*
X509504Y358229D01*
X509491Y358223D01*
X508883Y357803D01*
X491140Y388536D01*
X491057Y388652D01*
X490980Y388772D01*
X490939Y388815D01*
X490905Y388863D01*
X490801Y388960D01*
X490702Y389063D01*
X490654Y389097D01*
X490610Y389137D01*
X490489Y389212D01*
X490372Y389293D01*
X490318Y389317D01*
X490267Y389348D01*
X490133Y389397D01*
X490003Y389454D01*
X489945Y389467D01*
X489889Y389487D01*
X489749Y389509D01*
X489609Y389539D01*
X489550Y389540D01*
X489491Y389549D01*
X489349Y389542D01*
X489207Y389544D01*
X489148Y389533D01*
X489089Y389531D01*
X488951Y389496D01*
X488811Y389470D01*
X488748Y389446D01*
X488698Y389434D01*
X488624Y389398D01*
X488501Y389351D01*
X488475Y389339D01*
X488409Y389298D01*
X488338Y389267D01*
X488237Y389194D01*
X488131Y389129D01*
X488074Y389077D01*
X488011Y389032D01*
X487927Y388940D01*
X487844Y388864D01*
X487002Y388605D01*
X486941Y388579D01*
X486720Y388494D01*
X485920Y388109D01*
X485869Y388118D01*
X485743Y388113D01*
X485618Y388118D01*
X485543Y388106D01*
X485466Y388103D01*
X485307Y388068D01*
X485221Y388054D01*
X485187Y388042D01*
X485142Y388032D01*
X484314Y387777D01*
X484243Y387747D01*
X484169Y387726D01*
X484058Y387669D01*
X483943Y387620D01*
X483879Y387577D01*
X483811Y387543D01*
X483713Y387465D01*
X483621Y387402D01*
X482749Y387271D01*
X482685Y387254D01*
X482453Y387203D01*
X481605Y386942D01*
X481556Y386958D01*
X481431Y386972D01*
X481308Y386996D01*
X481232Y386995D01*
X481156Y387004D01*
X480993Y386993D01*
X480906Y386992D01*
X480871Y386984D01*
X480825Y386981D01*
X479967Y386852D01*
X479893Y386834D01*
X479817Y386824D01*
X479699Y386784D01*
X479577Y386753D01*
X479508Y386720D01*
X479436Y386696D01*
X479327Y386633D01*
X479227Y386585D01*
X478345Y386586D01*
X478278Y386579D01*
X478043Y386563D01*
X477165Y386431D01*
X477118Y386454D01*
X476998Y386487D01*
X476879Y386528D01*
X476803Y386539D01*
X476730Y386559D01*
X476567Y386572D01*
X476481Y386585D01*
X476445Y386582D01*
X476399Y386586D01*
X475532Y386586D01*
X475456Y386579D01*
X475379Y386581D01*
X475256Y386559D01*
X475131Y386547D01*
X475058Y386524D01*
X474983Y386511D01*
X474866Y386465D01*
X474760Y386433D01*
X473888Y386564D01*
X473821Y386568D01*
X473586Y386587D01*
X472698Y386587D01*
X472655Y386617D01*
X472541Y386668D01*
X472430Y386726D01*
X472357Y386748D01*
X472287Y386779D01*
X472128Y386816D01*
X472044Y386841D01*
X472008Y386844D01*
X471964Y386855D01*
X471107Y386984D01*
X471030Y386988D01*
X470955Y387002D01*
X470829Y386999D01*
X470704Y387005D01*
X470629Y386994D01*
X470552Y386992D01*
X470430Y386964D01*
X470320Y386948D01*
X469478Y387208D01*
X469412Y387221D01*
X469182Y387275D01*
X468305Y387408D01*
X468267Y387444D01*
X468161Y387510D01*
X468060Y387585D01*
X467991Y387618D01*
X467926Y387658D01*
X467775Y387719D01*
X467696Y387756D01*
X467661Y387765D01*
X467618Y387782D01*
X466790Y388038D01*
X466715Y388053D01*
X466642Y388077D01*
X466518Y388093D01*
X466395Y388118D01*
X466319Y388118D01*
X466243Y388127D01*
X466118Y388118D01*
X466006Y388118D01*
X465213Y388501D01*
X465149Y388524D01*
X464930Y388612D01*
X464082Y388874D01*
X464050Y388915D01*
X463955Y388997D01*
X463867Y389086D01*
X463803Y389128D01*
X463745Y389178D01*
X463605Y389261D01*
X463532Y389309D01*
X463499Y389323D01*
X463459Y389346D01*
X462678Y389722D01*
X462607Y389749D01*
X462538Y389784D01*
X462418Y389818D01*
X462300Y389860D01*
X462224Y389872D01*
X462151Y389893D01*
X462026Y389902D01*
X461916Y389919D01*
X461188Y390416D01*
X461128Y390448D01*
X460925Y390568D01*
X460126Y390953D01*
X460100Y390998D01*
X460018Y391094D01*
X459944Y391194D01*
X459888Y391246D01*
X459838Y391304D01*
X459711Y391407D01*
X459646Y391465D01*
X459616Y391484D01*
X459580Y391513D01*
X458864Y392001D01*
X458796Y392038D01*
X458734Y392082D01*
X458621Y392134D01*
X458510Y392194D01*
X458437Y392217D01*
X458368Y392248D01*
X458245Y392276D01*
X458139Y392309D01*
X457493Y392909D01*
X457440Y392949D01*
X457256Y393098D01*
X456523Y393598D01*
X456504Y393647D01*
X456438Y393753D01*
X456380Y393864D01*
X456331Y393923D01*
X456291Y393988D01*
X456180Y394109D01*
X456125Y394176D01*
X456098Y394199D01*
X456067Y394233D01*
X455431Y394823D01*
X455370Y394869D01*
X455316Y394923D01*
X455211Y394991D01*
X455111Y395066D01*
X455042Y395100D01*
X454978Y395141D01*
X454861Y395187D01*
X454761Y395236D01*
X454211Y395925D01*
X454164Y395974D01*
X454006Y396147D01*
X453962Y396187D01*
X453938Y396205D01*
X453931Y396213D01*
X453904Y396232D01*
X453818Y396297D01*
X453675Y396410D01*
X453657Y396419D01*
X453642Y396430D01*
X453478Y396510D01*
X453316Y396592D01*
X453297Y396597D01*
X453279Y396606D01*
X453103Y396651D01*
X452928Y396700D01*
X452908Y396702D01*
X452889Y396706D01*
X452708Y396716D01*
X452526Y396730D01*
X452507Y396727D01*
X452487Y396728D01*
X452308Y396702D01*
X452127Y396679D01*
X452108Y396673D01*
X452089Y396670D01*
X451918Y396609D01*
X451745Y396551D01*
X451728Y396541D01*
X451710Y396535D01*
X451554Y396441D01*
X451396Y396350D01*
X451380Y396336D01*
X451365Y396327D01*
X451308Y396275D01*
X451143Y396135D01*
X449719Y394711D01*
X447489Y393787D01*
X445074Y393787D01*
X442844Y394711D01*
X441137Y396418D01*
X440213Y398649D01*
X440213Y401063D01*
X441137Y403294D01*
X442844Y405001D01*
X445074Y405925D01*
X445140Y405925D01*
X445333Y405944D01*
X445529Y405962D01*
X445535Y405964D01*
X445541Y405965D01*
X445727Y406022D01*
X445915Y406078D01*
X445920Y406081D01*
X445926Y406083D01*
X446096Y406175D01*
X446270Y406268D01*
X446275Y406272D01*
X446280Y406274D01*
X446427Y406397D01*
X446581Y406524D01*
X446584Y406528D01*
X446589Y406532D01*
X446710Y406683D01*
X446835Y406836D01*
X446838Y406841D01*
X446841Y406846D01*
X446930Y407018D01*
X447022Y407192D01*
X447024Y407198D01*
X447027Y407203D01*
X447080Y407387D01*
X447136Y407578D01*
X447137Y407584D01*
X447138Y407590D01*
X447154Y407783D01*
X447171Y407979D01*
X447171Y407985D01*
X447171Y407991D01*
X447149Y408184D01*
X447127Y408380D01*
X447125Y408386D01*
X447124Y408391D01*
X447112Y408429D01*
X447100Y408467D01*
X447102Y408479D01*
X447120Y408554D01*
X447125Y408679D01*
X447139Y408803D01*
X447132Y408880D01*
X447135Y408956D01*
X447112Y409117D01*
X447105Y409205D01*
X447095Y409239D01*
X447088Y409285D01*
X446896Y410130D01*
X446871Y410202D01*
X446856Y410277D01*
X446807Y410393D01*
X446768Y410511D01*
X446730Y410578D01*
X446700Y410648D01*
X446629Y410752D01*
X446574Y410849D01*
X446508Y411727D01*
X446497Y411794D01*
X446463Y412028D01*
X446266Y412893D01*
X446286Y412941D01*
X446309Y413064D01*
X446342Y413185D01*
X446347Y413261D01*
X446361Y413337D01*
X446362Y413500D01*
X446368Y413587D01*
X446363Y413622D01*
X446363Y413668D01*
X446299Y414533D01*
X446286Y414608D01*
X446282Y414685D01*
X446251Y414806D01*
X446229Y414929D01*
X446202Y415001D01*
X446183Y415075D01*
X446128Y415188D01*
X446088Y415292D01*
X446154Y416170D01*
X446152Y416238D01*
X446154Y416474D01*
X446088Y417359D01*
X446115Y417404D01*
X446156Y417522D01*
X446207Y417637D01*
X446223Y417711D01*
X446248Y417783D01*
X446274Y417945D01*
X446292Y418030D01*
X446293Y418066D01*
X446300Y418111D01*
X446365Y418976D01*
X446363Y419052D01*
X446371Y419128D01*
X446359Y419253D01*
X446355Y419378D01*
X446339Y419453D01*
X446331Y419529D01*
X446294Y419649D01*
X446270Y419757D01*
X446466Y420616D01*
X446474Y420683D01*
X446511Y420917D01*
X446578Y421802D01*
X446611Y421842D01*
X446670Y421953D01*
X446736Y422059D01*
X446764Y422130D01*
X446799Y422198D01*
X446849Y422353D01*
X446880Y422435D01*
X446886Y422470D01*
X446900Y422514D01*
X447093Y423359D01*
X447102Y423435D01*
X447121Y423509D01*
X447128Y423634D01*
X447143Y423758D01*
X447138Y423835D01*
X447141Y423911D01*
X447123Y424035D01*
X447115Y424146D01*
X447437Y424967D01*
X447455Y425031D01*
X447527Y425257D01*
X447724Y426122D01*
X447763Y426157D01*
X447838Y426257D01*
X447919Y426352D01*
X447957Y426419D01*
X448003Y426480D01*
X448074Y426627D01*
X448117Y426703D01*
X448128Y426737D01*
X448149Y426778D01*
X448466Y427585D01*
X448486Y427659D01*
X448516Y427729D01*
X448541Y427852D01*
X448575Y427972D01*
X448581Y428049D01*
X448596Y428124D01*
X448596Y428249D01*
X448605Y428360D01*
X449045Y429123D01*
X449073Y429184D01*
X449177Y429397D01*
X449502Y430223D01*
X449545Y430251D01*
X449634Y430340D01*
X449729Y430421D01*
X449776Y430482D01*
X449830Y430536D01*
X449923Y430670D01*
X449977Y430739D01*
X449993Y430771D01*
X450019Y430809D01*
X450453Y431559D01*
X450484Y431629D01*
X450524Y431694D01*
X450567Y431812D01*
X450619Y431926D01*
X450636Y432000D01*
X450662Y432072D01*
X450681Y432196D01*
X450706Y432305D01*
X451256Y432994D01*
X451292Y433050D01*
X451427Y433245D01*
X451871Y434013D01*
X451918Y434035D01*
X452019Y434109D01*
X452125Y434176D01*
X452181Y434228D01*
X452242Y434274D01*
X452342Y434379D01*
X452359Y434394D01*
X452370Y434407D01*
X452418Y434452D01*
X452438Y434482D01*
X452470Y434515D01*
X453010Y435193D01*
X453052Y435257D01*
X453101Y435316D01*
X453161Y435425D01*
X453229Y435531D01*
X453257Y435602D01*
X453294Y435669D01*
X453331Y435789D01*
X453372Y435893D01*
X454018Y436492D01*
X454062Y436542D01*
X454225Y436714D01*
X454778Y437408D01*
X454828Y437422D01*
X454939Y437481D01*
X455054Y437531D01*
X455117Y437574D01*
X455184Y437610D01*
X455313Y437711D01*
X455384Y437761D01*
X455409Y437787D01*
X455445Y437815D01*
X456081Y438405D01*
X456107Y438434D01*
X456133Y438456D01*
X456154Y438481D01*
X456189Y438513D01*
X456265Y438612D01*
X456348Y438706D01*
X456381Y438764D01*
X456386Y438770D01*
X456389Y438777D01*
X456432Y438833D01*
X456487Y438946D01*
X456543Y439043D01*
X457271Y439539D01*
X457322Y439582D01*
X457508Y439728D01*
X458159Y440332D01*
X458213Y440339D01*
X458330Y440380D01*
X458450Y440412D01*
X458520Y440446D01*
X458593Y440472D01*
X458725Y440547D01*
X458790Y440578D01*
X458797Y440583D01*
X458811Y440590D01*
X458840Y440613D01*
X458882Y440636D01*
X458890Y440642D01*
X458999Y440733D01*
X459113Y440818D01*
X459126Y440833D01*
X459130Y440836D01*
X459153Y440863D01*
X459198Y440901D01*
X459287Y441012D01*
X459382Y441118D01*
X459412Y441169D01*
X459449Y441216D01*
X459514Y441342D01*
X459587Y441465D01*
X459606Y441521D01*
X459633Y441574D01*
X459672Y441711D01*
X459719Y441845D01*
X459727Y441904D01*
X459743Y441961D01*
X459754Y442103D01*
X459774Y442244D01*
X459770Y442303D01*
X459774Y442362D01*
X459757Y442504D01*
X459749Y442646D01*
X459733Y442703D01*
X459726Y442762D01*
X459681Y442897D01*
X459645Y443035D01*
X459616Y443096D01*
X459600Y443144D01*
X459559Y443216D01*
X459503Y443335D01*
X441761Y474065D01*
X442389Y474361D01*
X442411Y474378D01*
X442438Y474388D01*
X442490Y474437D01*
X442548Y474480D01*
X442562Y474505D01*
X442583Y474525D01*
X442612Y474590D01*
X442648Y474652D01*
X442651Y474681D01*
X442663Y474707D01*
X442664Y474779D01*
X442673Y474849D01*
X442665Y474877D01*
X442666Y474906D01*
X442630Y475000D01*
X442619Y475041D01*
X442612Y475049D01*
X442608Y475062D01*
X433108Y491562D01*
X433056Y491620D01*
X433010Y491683D01*
X432991Y491694D01*
X432976Y491711D01*
X432906Y491744D01*
X432839Y491784D01*
X432815Y491788D01*
X432797Y491797D01*
X432752Y491799D01*
X432675Y491812D01*
X413675Y491812D01*
X413647Y491806D01*
X413619Y491809D01*
X413551Y491786D01*
X413480Y491772D01*
X413457Y491756D01*
X413430Y491747D01*
X413375Y491700D01*
X413316Y491660D01*
X413301Y491636D01*
X413280Y491617D01*
X413248Y491553D01*
X413209Y491492D01*
X413204Y491464D01*
X413192Y491439D01*
X413183Y491337D01*
X413176Y491296D01*
X413178Y491286D01*
X413177Y491273D01*
X413234Y490558D01*
X377698Y490558D01*
X377555Y490544D01*
X377410Y490537D01*
X377354Y490524D01*
X377297Y490518D01*
X377160Y490476D01*
X377019Y490441D01*
X376967Y490417D01*
X376912Y490400D01*
X376785Y490331D01*
X376655Y490270D01*
X376609Y490235D01*
X376558Y490208D01*
X376447Y490116D01*
X376332Y490030D01*
X376293Y489987D01*
X376249Y489950D01*
X376159Y489838D01*
X376062Y489731D01*
X376033Y489681D01*
X375997Y489636D01*
X375930Y489509D01*
X375857Y489385D01*
X375838Y489330D01*
X375811Y489279D01*
X375771Y489141D01*
X375724Y489005D01*
X375713Y488940D01*
X375700Y488892D01*
X375693Y488809D01*
X375672Y488677D01*
X375671Y488660D01*
X375673Y488584D01*
X375665Y488508D01*
X375667Y488492D01*
X375667Y488491D01*
X375668Y488482D01*
X375678Y488383D01*
X375681Y488257D01*
X375698Y488183D01*
X375705Y488108D01*
X375742Y487988D01*
X375767Y487880D01*
X375571Y487020D01*
X375567Y486988D01*
X375560Y486964D01*
X375555Y486910D01*
X375525Y486720D01*
X375459Y485835D01*
X375426Y485795D01*
X375367Y485684D01*
X375301Y485578D01*
X375273Y485507D01*
X375238Y485439D01*
X375188Y485284D01*
X375157Y485202D01*
X375151Y485166D01*
X375138Y485123D01*
X374945Y484280D01*
X374936Y484204D01*
X374917Y484130D01*
X374911Y484004D01*
X374895Y483880D01*
X374900Y483804D01*
X374897Y483728D01*
X374915Y483604D01*
X374923Y483492D01*
X374601Y482672D01*
X374583Y482607D01*
X374512Y482382D01*
X374315Y481517D01*
X374276Y481482D01*
X374201Y481381D01*
X374119Y481286D01*
X374082Y481220D01*
X374036Y481158D01*
X373965Y481012D01*
X373922Y480936D01*
X373911Y480902D01*
X373890Y480860D01*
X373574Y480055D01*
X373554Y479982D01*
X373524Y479911D01*
X373499Y479789D01*
X373465Y479668D01*
X373459Y479591D01*
X373444Y479517D01*
X373444Y479391D01*
X373436Y479280D01*
X372995Y478517D01*
X372968Y478456D01*
X372863Y478243D01*
X372539Y477417D01*
X372496Y477389D01*
X372407Y477300D01*
X372312Y477218D01*
X372265Y477158D01*
X372211Y477104D01*
X372118Y476970D01*
X372064Y476901D01*
X372048Y476869D01*
X372022Y476831D01*
X371590Y476082D01*
X371558Y476013D01*
X371518Y475947D01*
X371475Y475830D01*
X371424Y475716D01*
X371407Y475641D01*
X371380Y475569D01*
X371362Y475445D01*
X371337Y475337D01*
X370787Y474648D01*
X370751Y474591D01*
X370616Y474397D01*
X370173Y473628D01*
X370125Y473606D01*
X370024Y473532D01*
X369918Y473465D01*
X369863Y473413D01*
X369801Y473367D01*
X369689Y473248D01*
X369626Y473189D01*
X369605Y473159D01*
X369574Y473126D01*
X369035Y472450D01*
X368993Y472386D01*
X368944Y472327D01*
X368884Y472217D01*
X368816Y472112D01*
X368788Y472041D01*
X368751Y471973D01*
X368714Y471854D01*
X368673Y471750D01*
X368028Y471151D01*
X367983Y471100D01*
X367821Y470928D01*
X367268Y470234D01*
X367218Y470220D01*
X367107Y470161D01*
X366992Y470111D01*
X366929Y470067D01*
X366862Y470032D01*
X366733Y469931D01*
X366662Y469881D01*
X366637Y469855D01*
X366601Y469827D01*
X365967Y469239D01*
X365916Y469181D01*
X365859Y469131D01*
X365783Y469031D01*
X365700Y468937D01*
X365662Y468871D01*
X365616Y468810D01*
X365561Y468697D01*
X365505Y468600D01*
X364777Y468104D01*
X364726Y468061D01*
X364540Y467915D01*
X363889Y467311D01*
X363838Y467304D01*
X363720Y467263D01*
X363598Y467230D01*
X363530Y467197D01*
X363458Y467171D01*
X363316Y467091D01*
X363237Y467052D01*
X363209Y467030D01*
X363169Y467007D01*
X362455Y466520D01*
X362396Y466471D01*
X362332Y466430D01*
X362242Y466342D01*
X362146Y466262D01*
X362098Y466202D01*
X362044Y466149D01*
X361973Y466045D01*
X361903Y465958D01*
X361110Y465576D01*
X361053Y465541D01*
X360847Y465424D01*
X360113Y464924D01*
X360061Y464925D01*
X359938Y464902D01*
X359813Y464888D01*
X359741Y464864D01*
X359665Y464850D01*
X359513Y464792D01*
X359430Y464765D01*
X359399Y464748D01*
X359356Y464731D01*
X358577Y464356D01*
X358511Y464316D01*
X358442Y464285D01*
X358340Y464212D01*
X358233Y464146D01*
X358177Y464094D01*
X358115Y464050D01*
X358030Y463958D01*
X357948Y463882D01*
X357106Y463622D01*
X357043Y463596D01*
X356823Y463511D01*
X356024Y463126D01*
X355972Y463135D01*
X355847Y463130D01*
X355722Y463135D01*
X355646Y463123D01*
X355570Y463120D01*
X355410Y463085D01*
X355324Y463071D01*
X355290Y463059D01*
X355246Y463049D01*
X354419Y462794D01*
X354349Y462764D01*
X354275Y462743D01*
X354164Y462686D01*
X354048Y462638D01*
X353985Y462595D01*
X353917Y462560D01*
X353819Y462482D01*
X353727Y462419D01*
X352856Y462288D01*
X352790Y462271D01*
X352560Y462220D01*
X351711Y461959D01*
X351662Y461975D01*
X351537Y461989D01*
X351414Y462012D01*
X351338Y462011D01*
X351262Y462020D01*
X351099Y462009D01*
X351012Y462008D01*
X350977Y462001D01*
X350931Y461998D01*
X350076Y461869D01*
X350002Y461850D01*
X349926Y461840D01*
X349807Y461800D01*
X349686Y461769D01*
X349617Y461736D01*
X349544Y461712D01*
X349435Y461649D01*
X349335Y461601D01*
X348454Y461601D01*
X348387Y461595D01*
X348151Y461579D01*
X347211Y461437D01*
X347198Y461440D01*
X347063Y461488D01*
X347005Y461496D01*
X346949Y461512D01*
X346806Y461524D01*
X346665Y461544D01*
X346606Y461540D01*
X346547Y461545D01*
X346405Y461528D01*
X346263Y461520D01*
X346206Y461505D01*
X346148Y461498D01*
X346011Y461454D01*
X345873Y461417D01*
X345821Y461392D01*
X345765Y461373D01*
X345640Y461303D01*
X345512Y461240D01*
X345465Y461204D01*
X345414Y461175D01*
X345306Y461082D01*
X345193Y460995D01*
X345154Y460951D01*
X345109Y460912D01*
X345022Y460799D01*
X344928Y460692D01*
X344899Y460641D01*
X344863Y460594D01*
X344799Y460466D01*
X344728Y460342D01*
X344710Y460286D01*
X344683Y460234D01*
X344646Y460095D01*
X344601Y459960D01*
X344594Y459902D01*
X344579Y459845D01*
X344562Y459640D01*
X344552Y459560D01*
X344554Y459540D01*
X344552Y459514D01*
X344552Y457379D01*
X343628Y455148D01*
X341782Y453302D01*
X341776Y453295D01*
X341769Y453290D01*
X341649Y453140D01*
X341527Y452991D01*
X341522Y452983D01*
X341517Y452976D01*
X341428Y452806D01*
X341338Y452635D01*
X341335Y452626D01*
X341331Y452619D01*
X341278Y452433D01*
X341223Y452249D01*
X341222Y452240D01*
X341220Y452232D01*
X341204Y452040D01*
X341187Y451848D01*
X341188Y451839D01*
X341187Y451830D01*
X341209Y451641D01*
X341230Y451448D01*
X341233Y451439D01*
X341234Y451431D01*
X341293Y451249D01*
X341352Y451064D01*
X341356Y451056D01*
X341359Y451048D01*
X341453Y450881D01*
X341547Y450712D01*
X341552Y450705D01*
X341557Y450697D01*
X341682Y450552D01*
X341807Y450405D01*
X341814Y450399D01*
X341820Y450392D01*
X341971Y450275D01*
X342123Y450155D01*
X342131Y450151D01*
X342138Y450146D01*
X342310Y450060D01*
X342482Y449973D01*
X342491Y449970D01*
X342499Y449966D01*
X342685Y449916D01*
X342870Y449865D01*
X342879Y449864D01*
X342887Y449862D01*
X343218Y449835D01*
X352217Y449835D01*
X352248Y449838D01*
X352279Y449836D01*
X352449Y449858D01*
X352617Y449875D01*
X352647Y449884D01*
X352678Y449888D01*
X352994Y449989D01*
X354393Y450569D01*
X356807Y450569D01*
X359038Y449645D01*
X360745Y447938D01*
X361669Y445707D01*
X361669Y443293D01*
X360745Y441062D01*
X359038Y439355D01*
X356807Y438431D01*
X354393Y438431D01*
X352994Y439011D01*
X352964Y439020D01*
X352936Y439034D01*
X352772Y439078D01*
X352609Y439127D01*
X352578Y439130D01*
X352548Y439138D01*
X352217Y439165D01*
X331996Y439165D01*
X331965Y439162D01*
X331933Y439164D01*
X331764Y439142D01*
X331595Y439125D01*
X331565Y439116D01*
X331534Y439112D01*
X331218Y439011D01*
X329820Y438431D01*
X327405Y438431D01*
X325175Y439355D01*
X323468Y441062D01*
X322544Y443293D01*
X322544Y445707D01*
X323468Y447938D01*
X325175Y449645D01*
X327405Y450569D01*
X329820Y450569D01*
X331218Y449989D01*
X331248Y449980D01*
X331276Y449966D01*
X331441Y449922D01*
X331604Y449873D01*
X331635Y449870D01*
X331665Y449862D01*
X331996Y449835D01*
X333748Y449835D01*
X333757Y449836D01*
X333766Y449835D01*
X333958Y449856D01*
X334149Y449875D01*
X334157Y449877D01*
X334166Y449878D01*
X334348Y449936D01*
X334533Y449993D01*
X334541Y449997D01*
X334550Y450000D01*
X334718Y450093D01*
X334888Y450185D01*
X334894Y450190D01*
X334902Y450195D01*
X335050Y450320D01*
X335197Y450442D01*
X335202Y450449D01*
X335209Y450455D01*
X335329Y450607D01*
X335449Y450756D01*
X335453Y450764D01*
X335459Y450771D01*
X335546Y450943D01*
X335635Y451113D01*
X335637Y451122D01*
X335641Y451130D01*
X335693Y451316D01*
X335746Y451500D01*
X335747Y451509D01*
X335749Y451518D01*
X335763Y451710D01*
X335779Y451902D01*
X335778Y451910D01*
X335779Y451919D01*
X335754Y452112D01*
X335732Y452301D01*
X335729Y452310D01*
X335728Y452319D01*
X335667Y452502D01*
X335607Y452684D01*
X335603Y452692D01*
X335600Y452700D01*
X335505Y452866D01*
X335409Y453035D01*
X335403Y453042D01*
X335399Y453049D01*
X335184Y453302D01*
X333338Y455148D01*
X332414Y457379D01*
X332414Y459793D01*
X333357Y462068D01*
X333360Y462078D01*
X333364Y462087D01*
X333418Y462272D01*
X333473Y462453D01*
X333474Y462464D01*
X333477Y462474D01*
X333493Y462666D01*
X333511Y462854D01*
X333510Y462864D01*
X333511Y462875D01*
X333489Y463065D01*
X333469Y463255D01*
X333466Y463265D01*
X333465Y463275D01*
X333407Y463455D01*
X333350Y463639D01*
X333345Y463648D01*
X333341Y463658D01*
X333248Y463825D01*
X333156Y463992D01*
X333150Y464000D01*
X333144Y464009D01*
X333019Y464155D01*
X332897Y464300D01*
X332889Y464307D01*
X332882Y464315D01*
X332624Y464523D01*
X331303Y465424D01*
X331244Y465456D01*
X331040Y465576D01*
X330241Y465961D01*
X330216Y466006D01*
X330134Y466101D01*
X330060Y466202D01*
X330003Y466254D01*
X329953Y466312D01*
X329827Y466414D01*
X329762Y466473D01*
X329731Y466491D01*
X329695Y466520D01*
X328981Y467007D01*
X328914Y467044D01*
X328852Y467089D01*
X328737Y467140D01*
X328627Y467200D01*
X328554Y467223D01*
X328485Y467254D01*
X328362Y467282D01*
X328256Y467315D01*
X327610Y467915D01*
X327556Y467955D01*
X327373Y468104D01*
X326639Y468604D01*
X326621Y468653D01*
X326554Y468759D01*
X326496Y468870D01*
X326448Y468929D01*
X326407Y468994D01*
X326297Y469114D01*
X326242Y469182D01*
X326214Y469205D01*
X326183Y469239D01*
X325549Y469827D01*
X325488Y469873D01*
X325434Y469926D01*
X325328Y469994D01*
X325228Y470070D01*
X325160Y470103D01*
X325095Y470145D01*
X324979Y470191D01*
X324878Y470239D01*
X324329Y470928D01*
X324282Y470976D01*
X324122Y471151D01*
X323472Y471754D01*
X323461Y471805D01*
X323411Y471920D01*
X323370Y472038D01*
X323331Y472104D01*
X323300Y472174D01*
X323210Y472310D01*
X323165Y472385D01*
X323141Y472412D01*
X323115Y472450D01*
X322576Y473126D01*
X322523Y473181D01*
X322477Y473242D01*
X322383Y473325D01*
X322295Y473414D01*
X322232Y473457D01*
X322175Y473508D01*
X322066Y473571D01*
X321974Y473634D01*
X321534Y474397D01*
X321494Y474452D01*
X321363Y474648D01*
X320809Y475341D01*
X320806Y475394D01*
X320774Y475515D01*
X320751Y475638D01*
X320722Y475709D01*
X320702Y475783D01*
X320632Y475930D01*
X320600Y476011D01*
X320580Y476041D01*
X320560Y476082D01*
X320128Y476831D01*
X320083Y476894D01*
X320047Y476961D01*
X319966Y477056D01*
X319893Y477158D01*
X319837Y477210D01*
X319788Y477269D01*
X319690Y477347D01*
X319609Y477423D01*
X319287Y478243D01*
X319256Y478303D01*
X319155Y478517D01*
X318711Y479285D01*
X318716Y479337D01*
X318702Y479462D01*
X318697Y479587D01*
X318680Y479662D01*
X318671Y479738D01*
X318624Y479894D01*
X318604Y479979D01*
X318589Y480011D01*
X318576Y480055D01*
X318260Y480860D01*
X318225Y480928D01*
X318199Y481000D01*
X318133Y481107D01*
X318076Y481219D01*
X318028Y481279D01*
X317989Y481344D01*
X317904Y481435D01*
X317834Y481523D01*
X317638Y482382D01*
X317617Y482446D01*
X317549Y482672D01*
X317224Y483498D01*
X317237Y483549D01*
X317241Y483674D01*
X317256Y483798D01*
X317249Y483875D01*
X317252Y483951D01*
X317229Y484113D01*
X317221Y484200D01*
X317211Y484234D01*
X317205Y484280D01*
X317012Y485123D01*
X316988Y485195D01*
X316973Y485270D01*
X316924Y485385D01*
X316884Y485504D01*
X316846Y485571D01*
X316817Y485641D01*
X316746Y485745D01*
X316690Y485841D01*
X316625Y486720D01*
X316613Y486786D01*
X316579Y487020D01*
X316382Y487885D01*
X316401Y487932D01*
X316425Y488056D01*
X316458Y488178D01*
X316462Y488253D01*
X316477Y488328D01*
X316478Y488492D01*
X316480Y488518D01*
X316483Y488562D01*
X316483Y488566D01*
X316484Y488580D01*
X316479Y488615D01*
X316479Y488660D01*
X316478Y488677D01*
X316453Y488819D01*
X316436Y488962D01*
X316418Y489017D01*
X316408Y489074D01*
X316356Y489208D01*
X316311Y489345D01*
X316283Y489395D01*
X316262Y489449D01*
X316184Y489570D01*
X316114Y489695D01*
X316076Y489739D01*
X316045Y489787D01*
X315945Y489891D01*
X315850Y490000D01*
X315805Y490035D01*
X315765Y490077D01*
X315646Y490159D01*
X315532Y490247D01*
X315481Y490272D01*
X315433Y490305D01*
X315301Y490362D01*
X315172Y490426D01*
X315116Y490441D01*
X315063Y490464D01*
X314922Y490493D01*
X314783Y490531D01*
X314717Y490536D01*
X314669Y490546D01*
X314586Y490547D01*
X314452Y490558D01*
X278916Y490558D01*
X278973Y491273D01*
X278969Y491301D01*
X278974Y491329D01*
X278957Y491399D01*
X278949Y491470D01*
X278935Y491495D01*
X278928Y491522D01*
X278885Y491580D01*
X278850Y491643D01*
X278827Y491660D01*
X278810Y491683D01*
X278748Y491719D01*
X278691Y491763D01*
X278663Y491770D01*
X278639Y491784D01*
X278539Y491801D01*
X278498Y491811D01*
X278488Y491810D01*
X278475Y491812D01*
X259475Y491812D01*
X259399Y491796D01*
X259321Y491788D01*
X259302Y491777D01*
X259280Y491772D01*
X259216Y491728D01*
X259148Y491690D01*
X259132Y491671D01*
X259116Y491660D01*
X259092Y491622D01*
X259042Y491562D01*
X249542Y475062D01*
X249533Y475034D01*
X249517Y475011D01*
X249502Y474941D01*
X249479Y474873D01*
X249482Y474845D01*
X249476Y474816D01*
X249490Y474746D01*
X249495Y474675D01*
X249508Y474649D01*
X249514Y474621D01*
X249554Y474562D01*
X249587Y474498D01*
X249609Y474480D01*
X249625Y474456D01*
X249708Y474399D01*
X249740Y474372D01*
X249751Y474369D01*
X249762Y474361D01*
X250389Y474065D01*
X232647Y443335D01*
X232589Y443205D01*
X232523Y443079D01*
X232506Y443022D01*
X232481Y442968D01*
X232450Y442829D01*
X232410Y442692D01*
X232405Y442633D01*
X232391Y442575D01*
X232387Y442433D01*
X232375Y442291D01*
X232382Y442232D01*
X232380Y442173D01*
X232405Y442033D01*
X232421Y441891D01*
X232439Y441834D01*
X232449Y441776D01*
X232500Y441644D01*
X232544Y441508D01*
X232573Y441456D01*
X232594Y441401D01*
X232671Y441281D01*
X232740Y441157D01*
X232779Y441111D01*
X232811Y441061D01*
X232910Y440959D01*
X233002Y440851D01*
X233052Y440811D01*
X233073Y440788D01*
X233078Y440785D01*
X233091Y440771D01*
X233158Y440725D01*
X233260Y440642D01*
X233268Y440636D01*
X233337Y440599D01*
X233400Y440553D01*
X233415Y440547D01*
X233422Y440542D01*
X233497Y440510D01*
X233513Y440503D01*
X233622Y440443D01*
X233696Y440420D01*
X233767Y440388D01*
X233888Y440360D01*
X233996Y440327D01*
X234642Y439728D01*
X234695Y439687D01*
X234879Y439539D01*
X235613Y439039D01*
X235631Y438990D01*
X235698Y438884D01*
X235756Y438773D01*
X235798Y438722D01*
X235804Y438711D01*
X235812Y438702D01*
X235845Y438649D01*
X235956Y438529D01*
X236010Y438461D01*
X236038Y438439D01*
X236067Y438407D01*
X236067Y438406D01*
X236068Y438406D01*
X236069Y438405D01*
X236705Y437815D01*
X236766Y437769D01*
X236821Y437715D01*
X236926Y437648D01*
X237026Y437572D01*
X237095Y437539D01*
X237159Y437497D01*
X237275Y437451D01*
X237376Y437403D01*
X237925Y436714D01*
X237973Y436666D01*
X238132Y436492D01*
X238783Y435888D01*
X238794Y435837D01*
X238844Y435722D01*
X238885Y435604D01*
X238924Y435538D01*
X238954Y435468D01*
X239046Y435333D01*
X239090Y435258D01*
X239114Y435231D01*
X239140Y435193D01*
X239680Y434515D01*
X239734Y434460D01*
X239780Y434399D01*
X239838Y434348D01*
X239842Y434344D01*
X239852Y434336D01*
X239874Y434317D01*
X239961Y434227D01*
X240025Y434184D01*
X240082Y434133D01*
X240190Y434070D01*
X240282Y434007D01*
X240723Y433245D01*
X240762Y433190D01*
X240894Y432994D01*
X241448Y432300D01*
X241451Y432248D01*
X241483Y432127D01*
X241507Y432004D01*
X241535Y431933D01*
X241555Y431859D01*
X241625Y431711D01*
X241658Y431631D01*
X241677Y431601D01*
X241697Y431559D01*
X242131Y430809D01*
X242175Y430746D01*
X242212Y430679D01*
X242293Y430583D01*
X242366Y430482D01*
X242422Y430430D01*
X242471Y430371D01*
X242569Y430293D01*
X242650Y430217D01*
X242973Y429397D01*
X243003Y429337D01*
X243105Y429123D01*
X243548Y428355D01*
X243544Y428303D01*
X243558Y428179D01*
X243562Y428053D01*
X243580Y427979D01*
X243589Y427903D01*
X243636Y427747D01*
X243656Y427662D01*
X243671Y427629D01*
X243684Y427585D01*
X244001Y426778D01*
X244036Y426710D01*
X244062Y426638D01*
X244128Y426531D01*
X244185Y426420D01*
X244233Y426360D01*
X244273Y426295D01*
X244358Y426203D01*
X244427Y426116D01*
X244623Y425257D01*
X244645Y425193D01*
X244713Y424967D01*
X244926Y424424D01*
X244939Y424399D01*
X244947Y424372D01*
X245031Y424220D01*
X245110Y424065D01*
X245127Y424044D01*
X245141Y424019D01*
X245252Y423886D01*
X245361Y423750D01*
X245382Y423732D01*
X245400Y423711D01*
X245536Y423603D01*
X245668Y423491D01*
X245693Y423477D01*
X245715Y423460D01*
X245869Y423381D01*
X246021Y423297D01*
X246048Y423289D01*
X246073Y423276D01*
X246240Y423229D01*
X246406Y423177D01*
X246433Y423174D01*
X246460Y423167D01*
X246634Y423153D01*
X246806Y423135D01*
X246834Y423138D01*
X246862Y423136D01*
X247034Y423157D01*
X247207Y423173D01*
X247234Y423181D01*
X247261Y423184D01*
X247426Y423239D01*
X247592Y423289D01*
X247617Y423302D01*
X247644Y423311D01*
X247794Y423397D01*
X247948Y423479D01*
X247969Y423497D01*
X247993Y423511D01*
X248124Y423625D01*
X248258Y423735D01*
X248276Y423757D01*
X248297Y423775D01*
X248344Y423836D01*
X250257Y425749D01*
X250818Y425982D01*
X250833Y425990D01*
X250850Y425996D01*
X251011Y426085D01*
X251173Y426172D01*
X251186Y426183D01*
X251202Y426192D01*
X251341Y426311D01*
X251483Y426428D01*
X251494Y426442D01*
X251508Y426454D01*
X251621Y426598D01*
X251737Y426741D01*
X251745Y426757D01*
X251756Y426771D01*
X251838Y426935D01*
X251924Y427097D01*
X251929Y427114D01*
X251937Y427131D01*
X251985Y427308D01*
X252037Y427484D01*
X252038Y427502D01*
X252043Y427519D01*
X252056Y427703D01*
X252071Y427885D01*
X252069Y427903D01*
X252071Y427921D01*
X252047Y428103D01*
X252026Y428285D01*
X252021Y428302D01*
X252019Y428320D01*
X251917Y428636D01*
X251106Y430593D01*
X251106Y433007D01*
X252030Y435238D01*
X253737Y436945D01*
X255968Y437869D01*
X258382Y437869D01*
X260613Y436945D01*
X262320Y435238D01*
X262899Y433839D01*
X262914Y433811D01*
X262924Y433782D01*
X263009Y433634D01*
X263089Y433484D01*
X263109Y433460D01*
X263125Y433433D01*
X263339Y433180D01*
X266763Y429756D01*
X266774Y429748D01*
X266782Y429738D01*
X266928Y429621D01*
X267075Y429501D01*
X267087Y429495D01*
X267097Y429487D01*
X267262Y429402D01*
X267430Y429313D01*
X267443Y429309D01*
X267455Y429303D01*
X267635Y429252D01*
X267816Y429198D01*
X267830Y429197D01*
X267843Y429193D01*
X268028Y429179D01*
X268217Y429161D01*
X268231Y429163D01*
X268244Y429162D01*
X268430Y429184D01*
X268618Y429205D01*
X268630Y429209D01*
X268644Y429210D01*
X268822Y429270D01*
X269001Y429326D01*
X269013Y429333D01*
X269026Y429337D01*
X269189Y429430D01*
X269354Y429521D01*
X269364Y429530D01*
X269376Y429536D01*
X269518Y429661D01*
X269661Y429782D01*
X269669Y429792D01*
X269679Y429801D01*
X269794Y429950D01*
X269910Y430098D01*
X269916Y430110D01*
X269925Y430120D01*
X270076Y430415D01*
X271001Y432649D01*
X273788Y435436D01*
X277429Y436944D01*
X281371Y436944D01*
X285012Y435436D01*
X287799Y432649D01*
X289307Y429008D01*
X289307Y425067D01*
X287799Y421426D01*
X284822Y418449D01*
X284805Y418428D01*
X284784Y418411D01*
X284677Y418273D01*
X284567Y418137D01*
X284554Y418114D01*
X284538Y418093D01*
X284460Y417936D01*
X284378Y417782D01*
X284370Y417756D01*
X284358Y417732D01*
X284313Y417563D01*
X284263Y417396D01*
X284261Y417369D01*
X284254Y417343D01*
X284227Y417013D01*
X284227Y411662D01*
X284229Y411636D01*
X284227Y411609D01*
X284249Y411435D01*
X284267Y411262D01*
X284274Y411236D01*
X284278Y411210D01*
X284333Y411044D01*
X284385Y410877D01*
X284398Y410853D01*
X284406Y410828D01*
X284493Y410676D01*
X284577Y410523D01*
X284594Y410502D01*
X284607Y410479D01*
X284822Y410226D01*
X287799Y407249D01*
X289307Y403608D01*
X289307Y399667D01*
X287799Y396026D01*
X285012Y393239D01*
X281371Y391731D01*
X277429Y391731D01*
X273788Y393239D01*
X271001Y396026D01*
X270380Y397526D01*
X270374Y397538D01*
X270370Y397550D01*
X270278Y397716D01*
X270190Y397881D01*
X270181Y397891D01*
X270175Y397903D01*
X270052Y398047D01*
X269934Y398191D01*
X269923Y398199D01*
X269914Y398210D01*
X269767Y398326D01*
X269621Y398445D01*
X269609Y398451D01*
X269598Y398459D01*
X269432Y398544D01*
X269264Y398632D01*
X269251Y398636D01*
X269240Y398642D01*
X269059Y398692D01*
X268878Y398745D01*
X268865Y398746D01*
X268852Y398750D01*
X268663Y398763D01*
X268477Y398780D01*
X268464Y398778D01*
X268450Y398779D01*
X268262Y398755D01*
X268077Y398734D01*
X268064Y398730D01*
X268051Y398729D01*
X267873Y398669D01*
X267693Y398611D01*
X267682Y398605D01*
X267669Y398600D01*
X267506Y398507D01*
X267342Y398415D01*
X267332Y398406D01*
X267320Y398399D01*
X267067Y398185D01*
X266963Y398080D01*
X264732Y397156D01*
X262318Y397156D01*
X260087Y398080D01*
X258380Y399787D01*
X257456Y402018D01*
X257456Y404432D01*
X258036Y405831D01*
X258045Y405861D01*
X258059Y405889D01*
X258103Y406053D01*
X258152Y406216D01*
X258155Y406247D01*
X258163Y406277D01*
X258190Y406608D01*
X258190Y412858D01*
X258189Y412871D01*
X258190Y412885D01*
X258169Y413071D01*
X258150Y413259D01*
X258146Y413271D01*
X258145Y413285D01*
X258087Y413464D01*
X258032Y413644D01*
X258026Y413655D01*
X258022Y413668D01*
X257930Y413832D01*
X257840Y413998D01*
X257832Y414008D01*
X257825Y414020D01*
X257703Y414163D01*
X257583Y414307D01*
X257572Y414315D01*
X257564Y414325D01*
X257415Y414441D01*
X257269Y414559D01*
X257257Y414565D01*
X257247Y414574D01*
X257078Y414658D01*
X256912Y414745D01*
X256899Y414748D01*
X256887Y414754D01*
X256705Y414804D01*
X256525Y414856D01*
X256511Y414857D01*
X256498Y414861D01*
X256312Y414874D01*
X256123Y414889D01*
X256110Y414887D01*
X256097Y414888D01*
X255911Y414864D01*
X255724Y414842D01*
X255711Y414838D01*
X255698Y414836D01*
X255382Y414735D01*
X254902Y414536D01*
X253856Y414536D01*
X253830Y414533D01*
X253803Y414535D01*
X253629Y414513D01*
X253456Y414496D01*
X253430Y414488D01*
X253404Y414485D01*
X253238Y414429D01*
X253071Y414378D01*
X253047Y414365D01*
X253022Y414357D01*
X252870Y414269D01*
X252717Y414186D01*
X252696Y414169D01*
X252673Y414156D01*
X252420Y413941D01*
X247481Y409002D01*
X246623Y409002D01*
X246582Y408998D01*
X246541Y409000D01*
X246382Y408978D01*
X246223Y408962D01*
X246183Y408950D01*
X246142Y408944D01*
X245991Y408891D01*
X245838Y408844D01*
X245801Y408824D01*
X245762Y408810D01*
X245625Y408728D01*
X245484Y408652D01*
X245452Y408625D01*
X245416Y408604D01*
X245297Y408497D01*
X245175Y408394D01*
X245149Y408362D01*
X245118Y408334D01*
X245023Y408205D01*
X244922Y408080D01*
X244903Y408044D01*
X244878Y408010D01*
X244755Y407757D01*
X244737Y407723D01*
X244735Y407718D01*
X244732Y407712D01*
X244719Y407677D01*
X244700Y407612D01*
X244629Y407387D01*
X244432Y406522D01*
X244393Y406486D01*
X244319Y406386D01*
X244237Y406291D01*
X244199Y406224D01*
X244154Y406163D01*
X244082Y406016D01*
X244039Y405940D01*
X244028Y405906D01*
X244008Y405865D01*
X243692Y405058D01*
X243671Y404984D01*
X243641Y404913D01*
X243616Y404791D01*
X243582Y404670D01*
X243577Y404594D01*
X243562Y404519D01*
X243561Y404393D01*
X243553Y404282D01*
X243113Y403519D01*
X243085Y403458D01*
X242981Y403246D01*
X242657Y402419D01*
X242614Y402391D01*
X242525Y402302D01*
X242430Y402220D01*
X242383Y402160D01*
X242329Y402106D01*
X242236Y401972D01*
X242182Y401903D01*
X242166Y401871D01*
X242140Y401833D01*
X241707Y401082D01*
X241675Y401013D01*
X241635Y400947D01*
X241593Y400829D01*
X241541Y400715D01*
X241524Y400641D01*
X241498Y400569D01*
X241479Y400445D01*
X241454Y400336D01*
X240905Y399647D01*
X240869Y399591D01*
X240734Y399396D01*
X240291Y398628D01*
X240243Y398606D01*
X240142Y398531D01*
X240036Y398465D01*
X239981Y398412D01*
X239919Y398367D01*
X239807Y398248D01*
X239744Y398188D01*
X239723Y398158D01*
X239692Y398125D01*
X239152Y397447D01*
X239110Y397383D01*
X239061Y397324D01*
X239001Y397214D01*
X238933Y397109D01*
X238905Y397038D01*
X238869Y396970D01*
X238832Y396851D01*
X238791Y396747D01*
X238145Y396147D01*
X238100Y396097D01*
X237939Y395925D01*
X237386Y395231D01*
X237336Y395216D01*
X237225Y395158D01*
X237110Y395108D01*
X237047Y395064D01*
X236979Y395028D01*
X236851Y394927D01*
X236780Y394877D01*
X236755Y394852D01*
X236719Y394823D01*
X236083Y394233D01*
X236033Y394176D01*
X235975Y394125D01*
X235900Y394025D01*
X235817Y393931D01*
X235779Y393865D01*
X235732Y393804D01*
X235678Y393691D01*
X235622Y393595D01*
X234894Y393098D01*
X234842Y393055D01*
X234657Y392909D01*
X234007Y392305D01*
X233955Y392298D01*
X233836Y392257D01*
X233716Y392224D01*
X233647Y392190D01*
X233575Y392165D01*
X233433Y392084D01*
X233355Y392046D01*
X233326Y392024D01*
X233286Y392001D01*
X232570Y391513D01*
X232511Y391463D01*
X232447Y391422D01*
X232358Y391334D01*
X232262Y391254D01*
X232214Y391194D01*
X232159Y391141D01*
X232088Y391037D01*
X232019Y390950D01*
X231225Y390568D01*
X231168Y390532D01*
X230962Y390416D01*
X230229Y389916D01*
X230177Y389916D01*
X230054Y389893D01*
X229929Y389879D01*
X229857Y389856D01*
X229781Y389842D01*
X229629Y389783D01*
X229546Y389756D01*
X229515Y389739D01*
X229472Y389722D01*
X228691Y389346D01*
X228626Y389306D01*
X228556Y389275D01*
X228454Y389201D01*
X228347Y389136D01*
X228291Y389084D01*
X228229Y389040D01*
X228144Y388948D01*
X228062Y388872D01*
X227220Y388612D01*
X227158Y388586D01*
X226937Y388501D01*
X226138Y388116D01*
X226087Y388124D01*
X225961Y388120D01*
X225836Y388124D01*
X225761Y388112D01*
X225684Y388109D01*
X225525Y388074D01*
X225439Y388060D01*
X225405Y388048D01*
X225360Y388038D01*
X224532Y387782D01*
X224461Y387752D01*
X224388Y387731D01*
X224276Y387674D01*
X224161Y387626D01*
X224098Y387583D01*
X224029Y387548D01*
X223932Y387470D01*
X223839Y387407D01*
X222968Y387275D01*
X222903Y387259D01*
X222672Y387208D01*
X221824Y386946D01*
X221775Y386962D01*
X221650Y386976D01*
X221527Y386999D01*
X221450Y386998D01*
X221374Y387007D01*
X221212Y386996D01*
X221124Y386995D01*
X221089Y386988D01*
X221043Y386984D01*
X220186Y386855D01*
X220112Y386836D01*
X220036Y386827D01*
X219918Y386787D01*
X219796Y386756D01*
X219727Y386723D01*
X219655Y386698D01*
X219546Y386636D01*
X219446Y386587D01*
X218564Y386587D01*
X218498Y386580D01*
X218262Y386564D01*
X217384Y386432D01*
X217337Y386455D01*
X217217Y386487D01*
X217098Y386529D01*
X217023Y386540D01*
X216949Y386559D01*
X216786Y386573D01*
X216700Y386585D01*
X216664Y386583D01*
X216618Y386586D01*
X215751Y386586D01*
X215675Y386579D01*
X215599Y386580D01*
X215475Y386559D01*
X215350Y386546D01*
X215277Y386524D01*
X215202Y386510D01*
X215086Y386465D01*
X214979Y386432D01*
X214107Y386563D01*
X214040Y386566D01*
X213805Y386586D01*
X212917Y386585D01*
X212875Y386615D01*
X212760Y386665D01*
X212649Y386724D01*
X212576Y386746D01*
X212506Y386776D01*
X212347Y386814D01*
X212263Y386839D01*
X212227Y386842D01*
X212183Y386852D01*
X211325Y386981D01*
X211249Y386985D01*
X211174Y386998D01*
X211048Y386995D01*
X210923Y387002D01*
X210848Y386990D01*
X210771Y386988D01*
X210649Y386960D01*
X210539Y386944D01*
X209697Y387203D01*
X209631Y387217D01*
X209401Y387271D01*
X208523Y387403D01*
X208485Y387439D01*
X208379Y387506D01*
X208279Y387580D01*
X208209Y387613D01*
X208144Y387653D01*
X207993Y387714D01*
X207914Y387751D01*
X207879Y387759D01*
X207836Y387777D01*
X207008Y388032D01*
X206933Y388047D01*
X206860Y388071D01*
X206736Y388087D01*
X206613Y388112D01*
X206537Y388112D01*
X206461Y388121D01*
X206336Y388112D01*
X206224Y388112D01*
X205430Y388494D01*
X205367Y388517D01*
X205148Y388605D01*
X204300Y388866D01*
X204267Y388908D01*
X204173Y388989D01*
X204084Y389078D01*
X204020Y389121D01*
X203962Y389171D01*
X203822Y389253D01*
X203749Y389301D01*
X203716Y389315D01*
X203675Y389339D01*
X203649Y389351D01*
X203515Y389400D01*
X203384Y389456D01*
X203326Y389469D01*
X203271Y389489D01*
X203130Y389510D01*
X202990Y389540D01*
X202931Y389540D01*
X202873Y389549D01*
X202730Y389542D01*
X202588Y389544D01*
X202529Y389532D01*
X202470Y389530D01*
X202332Y389495D01*
X202192Y389468D01*
X202137Y389446D01*
X202080Y389431D01*
X201951Y389370D01*
X201819Y389316D01*
X201770Y389283D01*
X201717Y389258D01*
X201603Y389172D01*
X201484Y389093D01*
X201442Y389051D01*
X201395Y389016D01*
X201300Y388910D01*
X201199Y388809D01*
X201160Y388753D01*
X201127Y388715D01*
X201085Y388644D01*
X201010Y388536D01*
X183267Y357803D01*
X182659Y358223D01*
X182632Y358235D01*
X182610Y358253D01*
X182541Y358274D01*
X182476Y358301D01*
X182447Y358302D01*
X182419Y358310D01*
X182348Y358302D01*
X182277Y358302D01*
X182250Y358291D01*
X182221Y358288D01*
X182159Y358253D01*
X182094Y358225D01*
X182073Y358204D01*
X182048Y358190D01*
X181985Y358113D01*
X181955Y358082D01*
X181951Y358072D01*
X181942Y358062D01*
X172442Y341562D01*
X172418Y341489D01*
X172387Y341418D01*
X172387Y341395D01*
X172379Y341373D01*
X172386Y341296D01*
X172385Y341219D01*
X172394Y341195D01*
X172395Y341175D01*
X172416Y341135D01*
X172435Y341083D01*
X172436Y341078D01*
X172438Y341076D01*
X172442Y341063D01*
X181942Y324563D01*
X181961Y324542D01*
X181974Y324515D01*
X182027Y324468D01*
X182074Y324414D01*
X182100Y324402D01*
X182122Y324382D01*
X182189Y324359D01*
X182253Y324328D01*
X182282Y324327D01*
X182309Y324318D01*
X182381Y324322D01*
X182452Y324319D01*
X182479Y324329D01*
X182508Y324331D01*
X182598Y324374D01*
X182638Y324388D01*
X182646Y324396D01*
X182659Y324402D01*
X183267Y324822D01*
X201010Y294089D01*
X201093Y293973D01*
X201170Y293853D01*
X201211Y293810D01*
X201245Y293762D01*
X201349Y293665D01*
X201448Y293562D01*
X201496Y293528D01*
X201540Y293488D01*
X201661Y293413D01*
X201778Y293332D01*
X201832Y293308D01*
X201883Y293277D01*
X202017Y293228D01*
X202147Y293171D01*
X202205Y293158D01*
X202261Y293138D01*
X202401Y293116D01*
X202541Y293086D01*
X202600Y293085D01*
X202659Y293076D01*
X202801Y293083D01*
X202943Y293081D01*
X203002Y293092D01*
X203061Y293094D01*
X203199Y293129D01*
X203339Y293155D01*
X203402Y293179D01*
X203452Y293191D01*
X203526Y293227D01*
X203649Y293274D01*
X203675Y293286D01*
X203741Y293327D01*
X203812Y293358D01*
X203913Y293431D01*
X204019Y293496D01*
X204076Y293548D01*
X204139Y293593D01*
X204223Y293684D01*
X204306Y293761D01*
X205148Y294020D01*
X205209Y294046D01*
X205430Y294131D01*
X206230Y294516D01*
X206282Y294507D01*
X206407Y294512D01*
X206532Y294507D01*
X206607Y294519D01*
X206684Y294522D01*
X206843Y294557D01*
X206929Y294571D01*
X206963Y294583D01*
X207008Y294593D01*
X207836Y294848D01*
X207907Y294878D01*
X207981Y294899D01*
X208092Y294956D01*
X208207Y295005D01*
X208271Y295048D01*
X208339Y295082D01*
X208437Y295160D01*
X208529Y295223D01*
X209401Y295354D01*
X209465Y295371D01*
X209697Y295422D01*
X210545Y295683D01*
X210594Y295667D01*
X210719Y295653D01*
X210842Y295629D01*
X210918Y295630D01*
X210994Y295621D01*
X211157Y295632D01*
X211244Y295633D01*
X211280Y295641D01*
X211325Y295644D01*
X212183Y295773D01*
X212257Y295791D01*
X212333Y295801D01*
X212452Y295841D01*
X212573Y295872D01*
X212642Y295905D01*
X212714Y295929D01*
X212823Y295992D01*
X212923Y296040D01*
X213805Y296039D01*
X213872Y296046D01*
X214107Y296062D01*
X214985Y296194D01*
X215032Y296171D01*
X215152Y296138D01*
X215271Y296097D01*
X215347Y296086D01*
X215420Y296066D01*
X215583Y296053D01*
X215669Y296040D01*
X215705Y296043D01*
X215751Y296039D01*
X216618Y296039D01*
X216694Y296046D01*
X216771Y296044D01*
X216894Y296066D01*
X217019Y296078D01*
X217092Y296101D01*
X217167Y296114D01*
X217284Y296160D01*
X217390Y296192D01*
X218262Y296061D01*
X218329Y296057D01*
X218564Y296038D01*
X219452Y296038D01*
X219495Y296008D01*
X219609Y295957D01*
X219720Y295899D01*
X219793Y295877D01*
X219863Y295846D01*
X220022Y295809D01*
X220106Y295784D01*
X220142Y295781D01*
X220186Y295770D01*
X221043Y295641D01*
X221120Y295637D01*
X221195Y295623D01*
X221321Y295626D01*
X221446Y295620D01*
X221521Y295631D01*
X221598Y295633D01*
X221720Y295661D01*
X221830Y295677D01*
X222672Y295417D01*
X222738Y295404D01*
X222968Y295350D01*
X223845Y295217D01*
X223883Y295181D01*
X223989Y295115D01*
X224090Y295040D01*
X224159Y295007D01*
X224224Y294967D01*
X224375Y294906D01*
X224454Y294869D01*
X224489Y294860D01*
X224532Y294843D01*
X225360Y294587D01*
X225435Y294572D01*
X225508Y294548D01*
X225632Y294532D01*
X225755Y294507D01*
X225831Y294507D01*
X225907Y294498D01*
X226032Y294507D01*
X226144Y294507D01*
X226937Y294124D01*
X227001Y294101D01*
X227220Y294013D01*
X228068Y293751D01*
X228100Y293710D01*
X228195Y293628D01*
X228283Y293539D01*
X228347Y293497D01*
X228405Y293447D01*
X228545Y293364D01*
X228618Y293316D01*
X228651Y293302D01*
X228691Y293279D01*
X229472Y292903D01*
X229543Y292876D01*
X229612Y292841D01*
X229732Y292807D01*
X229850Y292765D01*
X229926Y292753D01*
X229999Y292732D01*
X230124Y292723D01*
X230234Y292706D01*
X230962Y292209D01*
X231022Y292177D01*
X231225Y292057D01*
X232024Y291672D01*
X232050Y291627D01*
X232132Y291531D01*
X232206Y291431D01*
X232262Y291379D01*
X232312Y291321D01*
X232439Y291218D01*
X232504Y291160D01*
X232534Y291141D01*
X232570Y291112D01*
X233286Y290624D01*
X233354Y290587D01*
X233416Y290543D01*
X233529Y290491D01*
X233640Y290431D01*
X233713Y290408D01*
X233782Y290377D01*
X233905Y290349D01*
X234011Y290316D01*
X234657Y289716D01*
X234711Y289675D01*
X234894Y289527D01*
X235885Y288851D01*
X235907Y288839D01*
X235927Y288823D01*
X236084Y288742D01*
X236238Y288658D01*
X236262Y288651D01*
X236285Y288639D01*
X236455Y288591D01*
X236623Y288539D01*
X236648Y288536D01*
X236673Y288529D01*
X236847Y288516D01*
X237023Y288498D01*
X237049Y288500D01*
X237074Y288498D01*
X237248Y288519D01*
X237424Y288536D01*
X237448Y288544D01*
X237474Y288547D01*
X237641Y288602D01*
X237809Y288653D01*
X237832Y288665D01*
X237856Y288673D01*
X238009Y288761D01*
X238164Y288844D01*
X238184Y288860D01*
X238206Y288873D01*
X238338Y288988D01*
X238474Y289101D01*
X238490Y289121D01*
X238509Y289137D01*
X238616Y289276D01*
X238727Y289414D01*
X238739Y289436D01*
X238755Y289456D01*
X238906Y289752D01*
X239330Y290775D01*
X241037Y292482D01*
X243268Y293406D01*
X245682Y293406D01*
X247913Y292482D01*
X249620Y290775D01*
X250544Y288545D01*
X250544Y286130D01*
X249950Y284696D01*
X249948Y284692D01*
X249946Y284688D01*
X249890Y284498D01*
X249833Y284311D01*
X249833Y284306D01*
X249832Y284302D01*
X249814Y284105D01*
X249795Y283910D01*
X249796Y283905D01*
X249795Y283901D01*
X249816Y283706D01*
X249837Y283510D01*
X249838Y283505D01*
X249839Y283501D01*
X249898Y283312D01*
X249957Y283125D01*
X249959Y283121D01*
X249960Y283117D01*
X250056Y282944D01*
X250150Y282772D01*
X250153Y282768D01*
X250155Y282765D01*
X250281Y282616D01*
X250409Y282464D01*
X250412Y282461D01*
X250415Y282458D01*
X250570Y282335D01*
X250724Y282213D01*
X250728Y282211D01*
X250731Y282208D01*
X250907Y282119D01*
X251082Y282029D01*
X251086Y282028D01*
X251090Y282026D01*
X251280Y281973D01*
X251469Y281919D01*
X251474Y281919D01*
X251478Y281918D01*
X251679Y281903D01*
X251871Y281888D01*
X251875Y281889D01*
X251880Y281888D01*
X252076Y281913D01*
X252270Y281937D01*
X252275Y281938D01*
X252279Y281939D01*
X252465Y282001D01*
X252653Y282063D01*
X252656Y282065D01*
X252661Y282067D01*
X252833Y282166D01*
X253002Y282263D01*
X253006Y282266D01*
X253010Y282268D01*
X253263Y282483D01*
X253737Y282957D01*
X255968Y283881D01*
X258382Y283881D01*
X260613Y282957D01*
X262320Y281250D01*
X262947Y279736D01*
X262958Y279716D01*
X262965Y279695D01*
X263053Y279539D01*
X263137Y279381D01*
X263152Y279364D01*
X263162Y279344D01*
X263279Y279209D01*
X263394Y279070D01*
X263411Y279056D01*
X263426Y279039D01*
X263567Y278930D01*
X263706Y278817D01*
X263726Y278806D01*
X263744Y278793D01*
X263905Y278713D01*
X264063Y278630D01*
X264084Y278623D01*
X264104Y278613D01*
X264278Y278567D01*
X264449Y278517D01*
X264471Y278515D01*
X264493Y278509D01*
X264824Y278482D01*
X266660Y278482D01*
X267999Y277142D01*
X267999Y272744D01*
X268002Y272717D01*
X268000Y272690D01*
X268004Y272656D01*
X268004Y269788D01*
X268006Y269770D01*
X268005Y269752D01*
X268026Y269570D01*
X268044Y269387D01*
X268049Y269370D01*
X268051Y269353D01*
X268108Y269178D01*
X268162Y269002D01*
X268171Y268987D01*
X268176Y268970D01*
X268267Y268809D01*
X268354Y268648D01*
X268365Y268635D01*
X268374Y268619D01*
X268494Y268480D01*
X268612Y268339D01*
X268626Y268328D01*
X268637Y268314D01*
X268782Y268202D01*
X268926Y268087D01*
X268941Y268079D01*
X268955Y268068D01*
X269120Y267986D01*
X269283Y267901D01*
X269300Y267896D01*
X269316Y267888D01*
X269494Y267841D01*
X269670Y267790D01*
X269688Y267788D01*
X269705Y267784D01*
X270035Y267757D01*
X270436Y267757D01*
X271453Y266739D01*
X271460Y266734D01*
X271466Y266727D01*
X271616Y266606D01*
X271765Y266484D01*
X271773Y266480D01*
X271780Y266474D01*
X271950Y266386D01*
X272120Y266296D01*
X272129Y266293D01*
X272137Y266289D01*
X272321Y266236D01*
X272506Y266181D01*
X272515Y266180D01*
X272524Y266178D01*
X272715Y266162D01*
X272907Y266144D01*
X272916Y266145D01*
X272925Y266145D01*
X273114Y266167D01*
X273308Y266188D01*
X273316Y266191D01*
X273325Y266192D01*
X273507Y266251D01*
X273691Y266309D01*
X273699Y266314D01*
X273708Y266316D01*
X273875Y266411D01*
X274044Y266504D01*
X274051Y266510D01*
X274058Y266514D01*
X274203Y266639D01*
X274351Y266765D01*
X274356Y266772D01*
X274363Y266777D01*
X274480Y266928D01*
X274600Y267081D01*
X274604Y267089D01*
X274610Y267096D01*
X274695Y267267D01*
X274783Y267439D01*
X274785Y267448D01*
X274789Y267456D01*
X274839Y267641D01*
X274891Y267827D01*
X274891Y267836D01*
X274894Y267845D01*
X274921Y268176D01*
X274921Y272683D01*
X274926Y272744D01*
X274926Y277142D01*
X276265Y278482D01*
X277373Y278482D01*
X277399Y278484D01*
X277426Y278482D01*
X277600Y278504D01*
X277773Y278522D01*
X277799Y278529D01*
X277826Y278533D01*
X277991Y278588D01*
X278158Y278640D01*
X278182Y278653D01*
X278207Y278661D01*
X278359Y278748D01*
X278512Y278832D01*
X278533Y278849D01*
X278556Y278862D01*
X278809Y279077D01*
X280674Y280941D01*
X280691Y280962D01*
X280711Y280980D01*
X280818Y281117D01*
X280929Y281253D01*
X280941Y281276D01*
X280958Y281298D01*
X281036Y281455D01*
X281118Y281609D01*
X281125Y281634D01*
X281137Y281658D01*
X281183Y281828D01*
X281232Y281994D01*
X281235Y282021D01*
X281242Y282047D01*
X281269Y282378D01*
X281269Y283782D01*
X282193Y286013D01*
X283900Y287720D01*
X286130Y288644D01*
X288545Y288644D01*
X290775Y287720D01*
X292482Y286013D01*
X293406Y283782D01*
X293406Y281368D01*
X292482Y279137D01*
X290775Y277430D01*
X290272Y277222D01*
X288927Y276665D01*
X288923Y276663D01*
X288919Y276661D01*
X288746Y276568D01*
X288572Y276474D01*
X288568Y276472D01*
X288565Y276469D01*
X288416Y276345D01*
X288262Y276218D01*
X288259Y276215D01*
X288255Y276212D01*
X288133Y276059D01*
X288008Y275905D01*
X288006Y275901D01*
X288003Y275898D01*
X287912Y275723D01*
X287821Y275549D01*
X287820Y275545D01*
X287818Y275541D01*
X287763Y275351D01*
X287708Y275162D01*
X287707Y275158D01*
X287706Y275154D01*
X287690Y274956D01*
X287673Y274761D01*
X287674Y274757D01*
X287673Y274752D01*
X287697Y274554D01*
X287718Y274361D01*
X287720Y274357D01*
X287720Y274353D01*
X287782Y274163D01*
X287841Y273978D01*
X287844Y273974D01*
X287845Y273970D01*
X287944Y273795D01*
X288038Y273626D01*
X288041Y273623D01*
X288043Y273619D01*
X288171Y273470D01*
X288300Y273321D01*
X288303Y273318D01*
X288306Y273314D01*
X288459Y273196D01*
X288617Y273072D01*
X288621Y273070D01*
X288624Y273068D01*
X288799Y272981D01*
X288976Y272892D01*
X288981Y272890D01*
X288985Y272888D01*
X289178Y272837D01*
X289365Y272785D01*
X289369Y272785D01*
X289373Y272784D01*
X289704Y272757D01*
X317685Y272757D01*
X317712Y272759D01*
X317739Y272757D01*
X317913Y272779D01*
X318086Y272797D01*
X318111Y272804D01*
X318138Y272808D01*
X318304Y272863D01*
X318471Y272915D01*
X318494Y272928D01*
X318520Y272936D01*
X318671Y273023D01*
X318825Y273107D01*
X318845Y273124D01*
X318869Y273137D01*
X319122Y273352D01*
X320999Y275229D01*
X321016Y275249D01*
X321036Y275267D01*
X321143Y275405D01*
X321254Y275540D01*
X321266Y275564D01*
X321283Y275585D01*
X321361Y275742D01*
X321442Y275896D01*
X321450Y275921D01*
X321462Y275945D01*
X321507Y276115D01*
X321557Y276282D01*
X321559Y276308D01*
X321566Y276334D01*
X321594Y276665D01*
X321594Y282458D01*
X321591Y282485D01*
X321593Y282512D01*
X321571Y282686D01*
X321554Y282859D01*
X321546Y282885D01*
X321542Y282911D01*
X321487Y283077D01*
X321435Y283244D01*
X321423Y283268D01*
X321414Y283293D01*
X321327Y283444D01*
X321244Y283598D01*
X321227Y283618D01*
X321213Y283642D01*
X320999Y283895D01*
X320005Y284888D01*
X319082Y287118D01*
X319082Y289533D01*
X320005Y291763D01*
X321713Y293470D01*
X323943Y294394D01*
X326357Y294394D01*
X328588Y293470D01*
X328639Y293419D01*
X328653Y293408D01*
X328664Y293394D01*
X328808Y293281D01*
X328950Y293164D01*
X328966Y293156D01*
X328980Y293145D01*
X329144Y293061D01*
X329306Y292976D01*
X329323Y292971D01*
X329339Y292962D01*
X329517Y292913D01*
X329692Y292861D01*
X329710Y292859D01*
X329727Y292854D01*
X329911Y292841D01*
X330093Y292824D01*
X330111Y292826D01*
X330129Y292825D01*
X330311Y292848D01*
X330493Y292868D01*
X330510Y292873D01*
X330528Y292875D01*
X330702Y292934D01*
X330877Y292989D01*
X330893Y292998D01*
X330910Y293004D01*
X331069Y293095D01*
X331229Y293184D01*
X331243Y293196D01*
X331259Y293205D01*
X331512Y293419D01*
X331563Y293470D01*
X333793Y294394D01*
X336207Y294394D01*
X338785Y293326D01*
X338798Y293323D01*
X338810Y293316D01*
X338991Y293264D01*
X339171Y293210D01*
X339184Y293209D01*
X339197Y293205D01*
X339386Y293190D01*
X339571Y293172D01*
X339585Y293173D01*
X339598Y293172D01*
X339784Y293194D01*
X339972Y293213D01*
X339985Y293217D01*
X339998Y293219D01*
X340177Y293277D01*
X340356Y293333D01*
X340368Y293340D01*
X340381Y293344D01*
X340545Y293437D01*
X340709Y293527D01*
X340720Y293535D01*
X340731Y293542D01*
X340874Y293665D01*
X341018Y293786D01*
X341026Y293796D01*
X341036Y293805D01*
X341151Y293953D01*
X341269Y294101D01*
X341275Y294113D01*
X341283Y294123D01*
X341366Y294291D01*
X341452Y294459D01*
X341456Y294472D01*
X341462Y294484D01*
X341511Y294666D01*
X341537Y294758D01*
X342538Y297173D01*
X342547Y297203D01*
X342561Y297231D01*
X342605Y297396D01*
X342654Y297559D01*
X342657Y297590D01*
X342665Y297620D01*
X342692Y297951D01*
X342692Y308661D01*
X342690Y308688D01*
X342692Y308715D01*
X342670Y308889D01*
X342652Y309062D01*
X342645Y309087D01*
X342641Y309114D01*
X342586Y309280D01*
X342534Y309447D01*
X342521Y309470D01*
X342513Y309496D01*
X342426Y309647D01*
X342342Y309801D01*
X342325Y309821D01*
X342312Y309845D01*
X342097Y310098D01*
X338284Y313911D01*
X338263Y313928D01*
X338246Y313948D01*
X338108Y314055D01*
X337973Y314166D01*
X337949Y314178D01*
X337928Y314195D01*
X337771Y314273D01*
X337617Y314355D01*
X337597Y314360D01*
X337596Y314361D01*
X337590Y314363D01*
X337567Y314374D01*
X337398Y314420D01*
X337231Y314469D01*
X337215Y314471D01*
X337209Y314473D01*
X337198Y314473D01*
X337179Y314479D01*
X336848Y314506D01*
X336843Y314506D01*
X336837Y314505D01*
X336830Y314506D01*
X336819Y314505D01*
X336807Y314505D01*
X336625Y314484D01*
X336442Y314466D01*
X336431Y314462D01*
X336430Y314462D01*
X336424Y314460D01*
X336408Y314459D01*
X336233Y314402D01*
X336057Y314348D01*
X336042Y314339D01*
X336025Y314334D01*
X335865Y314243D01*
X335703Y314156D01*
X335690Y314145D01*
X335674Y314136D01*
X335535Y314016D01*
X335394Y313898D01*
X335383Y313884D01*
X335369Y313873D01*
X335256Y313727D01*
X335142Y313584D01*
X335134Y313569D01*
X335123Y313555D01*
X335041Y313390D01*
X334956Y313227D01*
X334951Y313210D01*
X334943Y313194D01*
X334896Y313016D01*
X334845Y312840D01*
X334843Y312822D01*
X334839Y312805D01*
X334812Y312475D01*
X334812Y312115D01*
X333472Y310776D01*
X320578Y310776D01*
X319238Y312115D01*
X319238Y324387D01*
X319237Y324396D01*
X319238Y324405D01*
X319217Y324599D01*
X319198Y324788D01*
X319196Y324796D01*
X319195Y324805D01*
X319137Y324989D01*
X319080Y325173D01*
X319076Y325181D01*
X319073Y325189D01*
X318981Y325357D01*
X318888Y325527D01*
X318883Y325534D01*
X318878Y325542D01*
X318754Y325689D01*
X318631Y325836D01*
X318624Y325842D01*
X318618Y325849D01*
X318466Y325968D01*
X318317Y326089D01*
X318309Y326093D01*
X318302Y326098D01*
X318129Y326186D01*
X317960Y326274D01*
X317951Y326277D01*
X317943Y326281D01*
X317757Y326333D01*
X317573Y326385D01*
X317564Y326386D01*
X317555Y326389D01*
X317362Y326403D01*
X317171Y326418D01*
X317163Y326417D01*
X317154Y326418D01*
X316961Y326394D01*
X316772Y326371D01*
X316763Y326369D01*
X316754Y326368D01*
X316571Y326306D01*
X316389Y326247D01*
X316381Y326242D01*
X316373Y326239D01*
X316206Y326143D01*
X316038Y326049D01*
X316031Y326043D01*
X316024Y326038D01*
X315771Y325824D01*
X307547Y317600D01*
X307533Y317583D01*
X307516Y317568D01*
X307405Y317427D01*
X307292Y317288D01*
X307281Y317269D01*
X307268Y317251D01*
X307187Y317090D01*
X307103Y316933D01*
X307097Y316911D01*
X307087Y316891D01*
X307039Y316718D01*
X306988Y316547D01*
X306986Y316524D01*
X306980Y316503D01*
X306968Y316325D01*
X306952Y316146D01*
X306954Y316123D01*
X306953Y316101D01*
X306976Y315924D01*
X306995Y315745D01*
X307002Y315724D01*
X307005Y315702D01*
X307107Y315386D01*
X307468Y314514D01*
X307468Y312100D01*
X306544Y309869D01*
X304837Y308162D01*
X302606Y307238D01*
X300192Y307238D01*
X297961Y308162D01*
X296254Y309869D01*
X295330Y312100D01*
X295330Y314514D01*
X296254Y316745D01*
X297961Y318452D01*
X298232Y318564D01*
X298260Y318579D01*
X298290Y318589D01*
X298437Y318674D01*
X298587Y318754D01*
X298611Y318774D01*
X298638Y318790D01*
X298891Y319004D01*
X300520Y320633D01*
X300521Y320634D01*
X327256Y347369D01*
X334613Y347369D01*
X334622Y347370D01*
X334631Y347369D01*
X334824Y347390D01*
X335014Y347409D01*
X335022Y347412D01*
X335031Y347413D01*
X335216Y347471D01*
X335399Y347527D01*
X335407Y347532D01*
X335415Y347534D01*
X335584Y347627D01*
X335753Y347719D01*
X335760Y347725D01*
X335768Y347729D01*
X335915Y347854D01*
X336062Y347977D01*
X336068Y347984D01*
X336075Y347990D01*
X336194Y348141D01*
X336315Y348291D01*
X336319Y348298D01*
X336324Y348305D01*
X336412Y348478D01*
X336500Y348648D01*
X336502Y348656D01*
X336507Y348664D01*
X336558Y348851D01*
X336611Y349035D01*
X336612Y349044D01*
X336615Y349052D01*
X336629Y349245D01*
X336644Y349436D01*
X336643Y349445D01*
X336644Y349454D01*
X336620Y349646D01*
X336597Y349836D01*
X336595Y349844D01*
X336594Y349853D01*
X336532Y350035D01*
X336473Y350219D01*
X336468Y350227D01*
X336465Y350235D01*
X336369Y350402D01*
X336275Y350569D01*
X336269Y350576D01*
X336264Y350584D01*
X336050Y350837D01*
X330121Y356766D01*
X330107Y356777D01*
X330095Y356791D01*
X329951Y356905D01*
X329809Y357021D01*
X329793Y357029D01*
X329779Y357040D01*
X329615Y357124D01*
X329454Y357209D01*
X329436Y357214D01*
X329420Y357223D01*
X329244Y357272D01*
X329068Y357324D01*
X329050Y357326D01*
X329033Y357331D01*
X328851Y357344D01*
X328667Y357361D01*
X328649Y357359D01*
X328631Y357360D01*
X328450Y357337D01*
X328266Y357317D01*
X328249Y357312D01*
X328232Y357310D01*
X328058Y357251D01*
X327883Y357196D01*
X327867Y357187D01*
X327850Y357181D01*
X327691Y357090D01*
X327530Y357001D01*
X327517Y356989D01*
X327501Y356980D01*
X327301Y356811D01*
X325057Y355881D01*
X322643Y355881D01*
X320412Y356805D01*
X318705Y358512D01*
X317781Y360743D01*
X317781Y363157D01*
X318705Y365388D01*
X320412Y367095D01*
X322643Y368019D01*
X322995Y368019D01*
X323012Y368021D01*
X323030Y368019D01*
X323212Y368040D01*
X323395Y368059D01*
X323412Y368064D01*
X323430Y368066D01*
X323604Y368123D01*
X323780Y368177D01*
X323796Y368185D01*
X323813Y368191D01*
X323973Y368281D01*
X324134Y368369D01*
X324148Y368380D01*
X324163Y368389D01*
X324303Y368509D01*
X324443Y368626D01*
X324455Y368640D01*
X324468Y368652D01*
X324581Y368797D01*
X324696Y368940D01*
X324704Y368956D01*
X324715Y368970D01*
X324797Y369135D01*
X324881Y369297D01*
X324886Y369314D01*
X324894Y369330D01*
X324942Y369509D01*
X324993Y369684D01*
X324994Y369702D01*
X324999Y369719D01*
X325026Y370050D01*
X325026Y390122D01*
X326365Y391462D01*
X339260Y391462D01*
X340599Y390122D01*
X340599Y365528D01*
X339260Y364188D01*
X338400Y364188D01*
X338383Y364186D01*
X338365Y364188D01*
X338183Y364167D01*
X338000Y364148D01*
X337983Y364143D01*
X337965Y364141D01*
X337791Y364084D01*
X337615Y364030D01*
X337599Y364022D01*
X337582Y364016D01*
X337422Y363926D01*
X337261Y363838D01*
X337247Y363827D01*
X337232Y363818D01*
X337092Y363698D01*
X336952Y363581D01*
X336940Y363567D01*
X336927Y363555D01*
X336814Y363410D01*
X336699Y363267D01*
X336691Y363251D01*
X336680Y363237D01*
X336598Y363072D01*
X336514Y362910D01*
X336509Y362893D01*
X336501Y362877D01*
X336453Y362698D01*
X336402Y362523D01*
X336401Y362505D01*
X336396Y362488D01*
X336369Y362157D01*
X336369Y361419D01*
X336372Y361392D01*
X336370Y361365D01*
X336392Y361191D01*
X336409Y361018D01*
X336417Y360992D01*
X336420Y360966D01*
X336476Y360800D01*
X336527Y360633D01*
X336540Y360609D01*
X336549Y360584D01*
X336636Y360432D01*
X336719Y360279D01*
X336736Y360259D01*
X336749Y360235D01*
X336964Y359982D01*
X341252Y355694D01*
X341273Y355677D01*
X341290Y355657D01*
X341428Y355550D01*
X341564Y355439D01*
X341587Y355427D01*
X341609Y355410D01*
X341765Y355332D01*
X341919Y355250D01*
X341945Y355243D01*
X341969Y355231D01*
X342138Y355185D01*
X342305Y355136D01*
X342332Y355133D01*
X342358Y355126D01*
X342689Y355099D01*
X348272Y355099D01*
X349612Y353760D01*
X349612Y352772D01*
X349614Y352746D01*
X349612Y352719D01*
X349632Y352566D01*
X349632Y352507D01*
X349632Y352502D01*
X349632Y352500D01*
X349632Y352497D01*
X349632Y352489D01*
X349653Y352297D01*
X349672Y352106D01*
X349674Y352098D01*
X349675Y352089D01*
X349733Y351907D01*
X349790Y351721D01*
X349794Y351714D01*
X349797Y351705D01*
X349890Y351537D01*
X349982Y351367D01*
X349987Y351361D01*
X349992Y351353D01*
X350117Y351205D01*
X350239Y351058D01*
X350246Y351053D01*
X350252Y351046D01*
X350404Y350926D01*
X350553Y350806D01*
X350561Y350802D01*
X350568Y350796D01*
X350740Y350709D01*
X350910Y350620D01*
X350919Y350618D01*
X350927Y350614D01*
X351113Y350562D01*
X351297Y350509D01*
X351306Y350508D01*
X351315Y350506D01*
X351507Y350492D01*
X351699Y350476D01*
X351707Y350477D01*
X351716Y350476D01*
X351909Y350501D01*
X352098Y350523D01*
X352107Y350526D01*
X352116Y350527D01*
X352299Y350588D01*
X352481Y350648D01*
X352489Y350652D01*
X352497Y350655D01*
X352663Y350750D01*
X352832Y350846D01*
X352839Y350852D01*
X352846Y350856D01*
X353099Y351071D01*
X354378Y352349D01*
X355365Y352349D01*
X355392Y352352D01*
X355419Y352350D01*
X355572Y352369D01*
X359791Y352369D01*
X360035Y352349D01*
X361243Y352349D01*
X361248Y352347D01*
X361274Y352339D01*
X361298Y352327D01*
X361467Y352282D01*
X361634Y352232D01*
X361661Y352229D01*
X361687Y352222D01*
X362018Y352195D01*
X363001Y352195D01*
X373444Y341752D01*
X373444Y293830D01*
X373446Y293807D01*
X373445Y293785D01*
X373466Y293607D01*
X373484Y293429D01*
X373491Y293408D01*
X373493Y293386D01*
X373550Y293214D01*
X373602Y293044D01*
X373613Y293025D01*
X373620Y293003D01*
X373709Y292847D01*
X373794Y292690D01*
X373808Y292673D01*
X373819Y292654D01*
X373937Y292518D01*
X374052Y292381D01*
X374069Y292367D01*
X374084Y292350D01*
X374226Y292241D01*
X374366Y292129D01*
X374385Y292118D01*
X374403Y292105D01*
X374698Y291953D01*
X375942Y291438D01*
X377649Y289731D01*
X378573Y287500D01*
X378573Y285086D01*
X377649Y282855D01*
X375942Y281148D01*
X373712Y280224D01*
X371297Y280224D01*
X369067Y281148D01*
X367360Y282855D01*
X366436Y285086D01*
X366436Y286490D01*
X366433Y286517D01*
X366435Y286544D01*
X366413Y286718D01*
X366396Y286891D01*
X366388Y286916D01*
X366385Y286943D01*
X366331Y287104D01*
X366331Y337964D01*
X366328Y337991D01*
X366330Y338018D01*
X366308Y338192D01*
X366291Y338365D01*
X366283Y338390D01*
X366280Y338417D01*
X366224Y338583D01*
X366173Y338750D01*
X366160Y338773D01*
X366151Y338799D01*
X366064Y338950D01*
X365981Y339104D01*
X365964Y339124D01*
X365951Y339148D01*
X365736Y339401D01*
X360650Y344487D01*
X360629Y344504D01*
X360611Y344524D01*
X360473Y344631D01*
X360338Y344742D01*
X360314Y344754D01*
X360293Y344771D01*
X360136Y344849D01*
X359982Y344931D01*
X359957Y344938D01*
X359933Y344950D01*
X359763Y344996D01*
X359596Y345045D01*
X359570Y345048D01*
X359544Y345055D01*
X359213Y345082D01*
X356215Y345082D01*
X356134Y345125D01*
X356109Y345132D01*
X356085Y345144D01*
X355915Y345190D01*
X355749Y345239D01*
X355722Y345242D01*
X355696Y345249D01*
X355365Y345276D01*
X354378Y345276D01*
X352511Y347142D01*
X352498Y347154D01*
X352486Y347167D01*
X352342Y347281D01*
X352200Y347397D01*
X352184Y347406D01*
X352170Y347417D01*
X352006Y347500D01*
X351844Y347586D01*
X351827Y347591D01*
X351811Y347599D01*
X351634Y347648D01*
X351458Y347701D01*
X351440Y347702D01*
X351423Y347707D01*
X351240Y347721D01*
X351057Y347737D01*
X351039Y347735D01*
X351022Y347737D01*
X350840Y347714D01*
X350657Y347694D01*
X350640Y347688D01*
X350622Y347686D01*
X350449Y347628D01*
X350273Y347572D01*
X350257Y347564D01*
X350241Y347558D01*
X350081Y347466D01*
X349921Y347377D01*
X349907Y347366D01*
X349892Y347357D01*
X349639Y347142D01*
X348272Y345776D01*
X341143Y345776D01*
X341125Y345774D01*
X341107Y345775D01*
X340925Y345754D01*
X340742Y345736D01*
X340725Y345731D01*
X340708Y345729D01*
X340533Y345672D01*
X340357Y345618D01*
X340342Y345609D01*
X340325Y345604D01*
X340165Y345513D01*
X340003Y345426D01*
X339990Y345415D01*
X339974Y345406D01*
X339835Y345286D01*
X339694Y345168D01*
X339683Y345154D01*
X339669Y345143D01*
X339557Y344998D01*
X339442Y344854D01*
X339434Y344839D01*
X339423Y344825D01*
X339341Y344660D01*
X339256Y344497D01*
X339251Y344480D01*
X339243Y344464D01*
X339196Y344286D01*
X339145Y344110D01*
X339143Y344092D01*
X339139Y344075D01*
X339112Y343745D01*
X339112Y336987D01*
X339113Y336978D01*
X339112Y336969D01*
X339133Y336777D01*
X339152Y336586D01*
X339154Y336578D01*
X339155Y336569D01*
X339213Y336387D01*
X339270Y336201D01*
X339274Y336194D01*
X339277Y336185D01*
X339370Y336017D01*
X339462Y335847D01*
X339467Y335841D01*
X339472Y335833D01*
X339597Y335685D01*
X339719Y335538D01*
X339726Y335533D01*
X339732Y335526D01*
X339884Y335406D01*
X340033Y335286D01*
X340041Y335282D01*
X340048Y335276D01*
X340220Y335189D01*
X340390Y335100D01*
X340399Y335098D01*
X340407Y335094D01*
X340593Y335042D01*
X340777Y334989D01*
X340786Y334988D01*
X340795Y334986D01*
X340987Y334972D01*
X341179Y334956D01*
X341187Y334957D01*
X341196Y334956D01*
X341389Y334981D01*
X341578Y335003D01*
X341587Y335006D01*
X341596Y335007D01*
X341779Y335068D01*
X341961Y335128D01*
X341969Y335132D01*
X341977Y335135D01*
X342143Y335230D01*
X342312Y335326D01*
X342319Y335332D01*
X342326Y335336D01*
X342579Y335551D01*
X343878Y336849D01*
X353272Y336849D01*
X354612Y335510D01*
X354612Y334522D01*
X354614Y334496D01*
X354612Y334469D01*
X354632Y334316D01*
X354632Y304555D01*
X354634Y304528D01*
X354632Y304501D01*
X354654Y304327D01*
X354672Y304154D01*
X354679Y304129D01*
X354683Y304102D01*
X354738Y303936D01*
X354790Y303769D01*
X354803Y303746D01*
X354811Y303720D01*
X354898Y303569D01*
X354982Y303415D01*
X354999Y303395D01*
X355012Y303371D01*
X355227Y303118D01*
X360145Y298200D01*
X360145Y287587D01*
X357927Y285370D01*
X357910Y285349D01*
X357890Y285332D01*
X357783Y285194D01*
X357672Y285058D01*
X357660Y285035D01*
X357643Y285014D01*
X357565Y284857D01*
X357484Y284703D01*
X357476Y284677D01*
X357464Y284653D01*
X357419Y284484D01*
X357369Y284317D01*
X357367Y284290D01*
X357360Y284264D01*
X357332Y283934D01*
X357332Y282529D01*
X356409Y280299D01*
X354701Y278591D01*
X352471Y277668D01*
X350057Y277668D01*
X347826Y278591D01*
X346119Y280299D01*
X345195Y282529D01*
X345195Y284943D01*
X345548Y285796D01*
X345553Y285813D01*
X345561Y285829D01*
X345611Y286005D01*
X345665Y286181D01*
X345666Y286199D01*
X345671Y286216D01*
X345685Y286399D01*
X345703Y286582D01*
X345701Y286600D01*
X345702Y286618D01*
X345680Y286800D01*
X345661Y286983D01*
X345656Y287000D01*
X345654Y287017D01*
X345596Y287191D01*
X345541Y287367D01*
X345533Y287383D01*
X345527Y287400D01*
X345437Y287558D01*
X345348Y287720D01*
X345336Y287734D01*
X345328Y287749D01*
X345207Y287887D01*
X345089Y288028D01*
X345075Y288039D01*
X345063Y288053D01*
X344918Y288165D01*
X344774Y288279D01*
X344758Y288287D01*
X344744Y288298D01*
X344449Y288450D01*
X343878Y288687D01*
X343865Y288690D01*
X343853Y288697D01*
X343672Y288749D01*
X343492Y288803D01*
X343479Y288804D01*
X343466Y288808D01*
X343277Y288823D01*
X343091Y288841D01*
X343078Y288840D01*
X343065Y288841D01*
X342878Y288819D01*
X342691Y288800D01*
X342678Y288796D01*
X342665Y288794D01*
X342487Y288736D01*
X342307Y288680D01*
X342295Y288673D01*
X342282Y288669D01*
X342118Y288577D01*
X341953Y288486D01*
X341943Y288478D01*
X341931Y288471D01*
X341789Y288348D01*
X341645Y288227D01*
X341637Y288217D01*
X341627Y288208D01*
X341511Y288060D01*
X341394Y287912D01*
X341388Y287900D01*
X341380Y287890D01*
X341297Y287722D01*
X341210Y287554D01*
X341207Y287541D01*
X341201Y287529D01*
X341152Y287347D01*
X341125Y287255D01*
X340145Y284888D01*
X339114Y283857D01*
X339097Y283836D01*
X339077Y283819D01*
X338970Y283681D01*
X338859Y283545D01*
X338847Y283522D01*
X338830Y283501D01*
X338752Y283344D01*
X338670Y283190D01*
X338663Y283164D01*
X338651Y283140D01*
X338605Y282971D01*
X338556Y282804D01*
X338553Y282777D01*
X338546Y282751D01*
X338519Y282421D01*
X338519Y274752D01*
X324411Y260643D01*
X283226Y260643D01*
X283200Y260641D01*
X283173Y260643D01*
X282999Y260621D01*
X282825Y260603D01*
X282800Y260596D01*
X282773Y260592D01*
X282608Y260537D01*
X282441Y260485D01*
X282417Y260472D01*
X282392Y260464D01*
X282240Y260377D01*
X282087Y260293D01*
X282066Y260276D01*
X282043Y260263D01*
X281925Y260163D01*
X276215Y260163D01*
X276155Y260212D01*
X276147Y260216D01*
X276140Y260222D01*
X275970Y260310D01*
X275800Y260400D01*
X275791Y260403D01*
X275783Y260407D01*
X275598Y260461D01*
X275414Y260515D01*
X275405Y260516D01*
X275396Y260519D01*
X275204Y260534D01*
X275013Y260552D01*
X275004Y260551D01*
X274995Y260551D01*
X274805Y260529D01*
X274613Y260508D01*
X274604Y260506D01*
X274595Y260505D01*
X274413Y260445D01*
X274229Y260387D01*
X274221Y260382D01*
X274212Y260380D01*
X274045Y260285D01*
X273876Y260192D01*
X273869Y260186D01*
X273862Y260182D01*
X273715Y260055D01*
X273569Y259931D01*
X273564Y259925D01*
X273557Y259919D01*
X273439Y259767D01*
X273320Y259616D01*
X273316Y259608D01*
X273310Y259601D01*
X273225Y259428D01*
X273137Y259257D01*
X273135Y259248D01*
X273131Y259240D01*
X273080Y259053D01*
X273029Y258869D01*
X273029Y258860D01*
X273026Y258851D01*
X272999Y258520D01*
X272999Y256234D01*
X272970Y256197D01*
X272859Y256061D01*
X272847Y256038D01*
X272830Y256016D01*
X272752Y255860D01*
X272670Y255706D01*
X272663Y255680D01*
X272651Y255656D01*
X272605Y255486D01*
X272556Y255320D01*
X272553Y255293D01*
X272546Y255267D01*
X272519Y254936D01*
X272519Y250269D01*
X270575Y248324D01*
X270569Y248317D01*
X270562Y248312D01*
X270442Y248162D01*
X270320Y248013D01*
X270316Y248005D01*
X270310Y247998D01*
X270221Y247828D01*
X270131Y247657D01*
X270129Y247648D01*
X270124Y247641D01*
X270071Y247456D01*
X270016Y247271D01*
X270015Y247262D01*
X270013Y247254D01*
X269997Y247063D01*
X269980Y246870D01*
X269981Y246861D01*
X269980Y246852D01*
X270002Y246663D01*
X270023Y246470D01*
X270026Y246461D01*
X270027Y246453D01*
X270086Y246270D01*
X270145Y246086D01*
X270149Y246078D01*
X270152Y246070D01*
X270247Y245901D01*
X270340Y245734D01*
X270345Y245727D01*
X270350Y245719D01*
X270476Y245573D01*
X270600Y245427D01*
X270607Y245421D01*
X270613Y245414D01*
X270764Y245297D01*
X270916Y245177D01*
X270924Y245173D01*
X270931Y245168D01*
X271103Y245082D01*
X271275Y244995D01*
X271284Y244992D01*
X271292Y244988D01*
X271478Y244938D01*
X271663Y244887D01*
X271672Y244886D01*
X271680Y244884D01*
X272011Y244857D01*
X289408Y244857D01*
X289434Y244859D01*
X289461Y244857D01*
X289635Y244879D01*
X289809Y244897D01*
X289834Y244904D01*
X289861Y244908D01*
X290026Y244963D01*
X290193Y245015D01*
X290217Y245028D01*
X290242Y245036D01*
X290394Y245123D01*
X290547Y245207D01*
X290568Y245224D01*
X290591Y245237D01*
X290844Y245452D01*
X291837Y246445D01*
X294068Y247369D01*
X296482Y247369D01*
X298713Y246445D01*
X300420Y244738D01*
X301344Y242507D01*
X301344Y240093D01*
X300420Y237862D01*
X298713Y236155D01*
X296482Y235231D01*
X294068Y235231D01*
X291837Y236155D01*
X290844Y237148D01*
X290823Y237165D01*
X290806Y237186D01*
X290668Y237293D01*
X290533Y237403D01*
X290509Y237416D01*
X290488Y237432D01*
X290331Y237510D01*
X290177Y237592D01*
X290151Y237600D01*
X290127Y237612D01*
X289958Y237657D01*
X289791Y237707D01*
X289764Y237709D01*
X289739Y237716D01*
X289408Y237743D01*
X257354Y237743D01*
X246368Y248729D01*
X244530Y250567D01*
X244428Y250650D01*
X244333Y250740D01*
X244273Y250778D01*
X244218Y250822D01*
X244102Y250884D01*
X243991Y250953D01*
X243925Y250978D01*
X243863Y251011D01*
X243737Y251048D01*
X243614Y251094D01*
X243544Y251105D01*
X243477Y251126D01*
X243346Y251137D01*
X243216Y251158D01*
X243146Y251156D01*
X243076Y251162D01*
X242945Y251148D01*
X242814Y251143D01*
X242746Y251126D01*
X242676Y251119D01*
X242550Y251079D01*
X242423Y251048D01*
X242359Y251018D01*
X242292Y250997D01*
X242177Y250934D01*
X242058Y250878D01*
X242001Y250836D01*
X241939Y250802D01*
X241839Y250717D01*
X241733Y250639D01*
X241678Y250580D01*
X241632Y250542D01*
X241585Y250482D01*
X241506Y250398D01*
X240894Y249631D01*
X240858Y249575D01*
X240723Y249380D01*
X240279Y248612D01*
X240232Y248590D01*
X240131Y248516D01*
X240025Y248449D01*
X239969Y248397D01*
X239908Y248351D01*
X239796Y248233D01*
X239732Y248173D01*
X239712Y248143D01*
X239680Y248110D01*
X239140Y247432D01*
X239098Y247368D01*
X239049Y247309D01*
X238989Y247200D01*
X238921Y247094D01*
X238893Y247023D01*
X238856Y246956D01*
X238819Y246836D01*
X238778Y246732D01*
X238132Y246133D01*
X238088Y246083D01*
X237925Y245911D01*
X237372Y245217D01*
X237322Y245203D01*
X237211Y245144D01*
X237096Y245094D01*
X237034Y245051D01*
X236966Y245015D01*
X236837Y244914D01*
X236766Y244864D01*
X236741Y244838D01*
X236705Y244810D01*
X236069Y244220D01*
X236018Y244163D01*
X235961Y244113D01*
X235886Y244013D01*
X235802Y243919D01*
X235764Y243852D01*
X235718Y243792D01*
X235664Y243679D01*
X235607Y243582D01*
X234879Y243086D01*
X234828Y243043D01*
X234642Y242897D01*
X233991Y242294D01*
X233942Y242287D01*
X233822Y242246D01*
X233700Y242213D01*
X233633Y242180D01*
X233561Y242155D01*
X233426Y242078D01*
X233360Y242047D01*
X233352Y242041D01*
X233339Y242035D01*
X233312Y242014D01*
X233273Y241992D01*
X233265Y241986D01*
X233154Y241893D01*
X233037Y241807D01*
X233024Y241791D01*
X233020Y241789D01*
X232998Y241763D01*
X232956Y241728D01*
X232865Y241615D01*
X232768Y241507D01*
X232739Y241458D01*
X232704Y241414D01*
X232637Y241285D01*
X232563Y241160D01*
X232545Y241107D01*
X232519Y241056D01*
X232479Y240917D01*
X232431Y240780D01*
X232423Y240724D01*
X232408Y240669D01*
X232396Y240525D01*
X232376Y240381D01*
X232380Y240325D01*
X232375Y240268D01*
X232392Y240124D01*
X232401Y239979D01*
X232416Y239925D01*
X232423Y239868D01*
X232468Y239730D01*
X232505Y239590D01*
X232533Y239532D01*
X232548Y239486D01*
X232589Y239413D01*
X232647Y239290D01*
X250389Y208560D01*
X249762Y208264D01*
X249739Y208247D01*
X249712Y208237D01*
X249660Y208188D01*
X249602Y208145D01*
X249588Y208120D01*
X249567Y208100D01*
X249538Y208035D01*
X249502Y207973D01*
X249499Y207945D01*
X249487Y207918D01*
X249486Y207846D01*
X249477Y207776D01*
X249485Y207748D01*
X249485Y207719D01*
X249520Y207625D01*
X249531Y207584D01*
X249538Y207576D01*
X249542Y207563D01*
X259042Y191063D01*
X259094Y191005D01*
X259140Y190942D01*
X259159Y190931D01*
X259174Y190914D01*
X259244Y190881D01*
X259311Y190841D01*
X259336Y190837D01*
X259353Y190828D01*
X259398Y190826D01*
X259475Y190813D01*
X278475Y190813D01*
X278503Y190819D01*
G37*
G36*
X478016Y388880D02*
X478016Y388880D01*
X478059Y388879D01*
X482052Y389479D01*
X482082Y389490D01*
X482125Y389496D01*
X485984Y390685D01*
X486012Y390700D01*
X486053Y390712D01*
X489691Y392463D01*
X489713Y392479D01*
X489739Y392489D01*
X489792Y392539D01*
X489850Y392583D01*
X489863Y392606D01*
X489883Y392625D01*
X489913Y392692D01*
X489949Y392755D01*
X489952Y392782D01*
X489963Y392807D01*
X489964Y392880D01*
X489973Y392953D01*
X489965Y392979D01*
X489965Y393006D01*
X489929Y393105D01*
X489917Y393144D01*
X489911Y393151D01*
X489907Y393162D01*
X462907Y439962D01*
X462889Y439982D01*
X462878Y440007D01*
X462824Y440056D01*
X462776Y440111D01*
X462751Y440123D01*
X462731Y440141D01*
X462662Y440165D01*
X462596Y440197D01*
X462569Y440198D01*
X462544Y440207D01*
X462471Y440202D01*
X462398Y440206D01*
X462372Y440196D01*
X462345Y440195D01*
X462249Y440151D01*
X462211Y440136D01*
X462204Y440130D01*
X462194Y440125D01*
X458857Y437852D01*
X458835Y437829D01*
X458799Y437805D01*
X455838Y435060D01*
X455819Y435034D01*
X455787Y435005D01*
X453269Y431849D01*
X453254Y431821D01*
X453227Y431788D01*
X451207Y428291D01*
X451197Y428261D01*
X451174Y428224D01*
X449698Y424466D01*
X449693Y424435D01*
X449676Y424395D01*
X448776Y420459D01*
X448776Y420427D01*
X448765Y420385D01*
X448462Y416359D01*
X448465Y416335D01*
X448462Y416315D01*
X448464Y416306D01*
X448462Y416284D01*
X448763Y412258D01*
X448771Y412227D01*
X448774Y412184D01*
X449671Y408247D01*
X449684Y408218D01*
X449693Y408176D01*
X451167Y404417D01*
X451184Y404390D01*
X451199Y404349D01*
X453217Y400852D01*
X453238Y400828D01*
X453259Y400790D01*
X455775Y397633D01*
X455800Y397612D01*
X455826Y397578D01*
X458785Y394831D01*
X458812Y394814D01*
X458843Y394784D01*
X462179Y392509D01*
X462208Y392496D01*
X462243Y392471D01*
X465881Y390718D01*
X465911Y390711D01*
X465950Y390691D01*
X469808Y389500D01*
X469840Y389497D01*
X469881Y389483D01*
X473873Y388880D01*
X473905Y388882D01*
X473947Y388874D01*
X477985Y388873D01*
X478016Y388880D01*
G37*
G36*
X218203Y388874D02*
X218203Y388874D01*
X218234Y388881D01*
X218277Y388880D01*
X222269Y389483D01*
X222299Y389494D01*
X222342Y389500D01*
X226200Y390691D01*
X226228Y390706D01*
X226270Y390718D01*
X229907Y392471D01*
X229932Y392491D01*
X229971Y392509D01*
X233307Y394784D01*
X233329Y394807D01*
X233365Y394831D01*
X236324Y397578D01*
X236343Y397604D01*
X236375Y397633D01*
X238891Y400790D01*
X238906Y400819D01*
X238933Y400852D01*
X240951Y404349D01*
X240961Y404380D01*
X240983Y404417D01*
X242457Y408176D01*
X242463Y408207D01*
X242479Y408247D01*
X243376Y412184D01*
X243377Y412216D01*
X243387Y412258D01*
X243688Y416284D01*
X243684Y416316D01*
X243685Y416332D01*
X243688Y416348D01*
X243687Y416352D01*
X243688Y416359D01*
X243385Y420385D01*
X243376Y420416D01*
X243374Y420459D01*
X242474Y424395D01*
X242461Y424424D01*
X242452Y424466D01*
X240976Y428224D01*
X240958Y428251D01*
X240943Y428291D01*
X238923Y431788D01*
X238902Y431811D01*
X238881Y431849D01*
X236363Y435005D01*
X236338Y435026D01*
X236312Y435060D01*
X233351Y437805D01*
X233324Y437822D01*
X233293Y437852D01*
X229956Y440125D01*
X229931Y440136D01*
X229910Y440153D01*
X229840Y440174D01*
X229773Y440202D01*
X229745Y440202D01*
X229719Y440210D01*
X229647Y440202D01*
X229574Y440201D01*
X229549Y440191D01*
X229522Y440188D01*
X229458Y440152D01*
X229391Y440123D01*
X229372Y440104D01*
X229349Y440090D01*
X229282Y440009D01*
X229253Y439980D01*
X229250Y439971D01*
X229243Y439962D01*
X202243Y393162D01*
X202234Y393136D01*
X202218Y393114D01*
X202203Y393043D01*
X202179Y392973D01*
X202182Y392946D01*
X202176Y392920D01*
X202189Y392848D01*
X202195Y392775D01*
X202208Y392751D01*
X202213Y392724D01*
X202253Y392664D01*
X202287Y392599D01*
X202308Y392581D01*
X202323Y392559D01*
X202409Y392498D01*
X202440Y392472D01*
X202449Y392469D01*
X202459Y392463D01*
X206097Y390712D01*
X206128Y390704D01*
X206166Y390685D01*
X210025Y389496D01*
X210057Y389493D01*
X210098Y389479D01*
X214091Y388879D01*
X214122Y388880D01*
X214165Y388873D01*
X218203Y388874D01*
G37*
G36*
X462503Y242423D02*
X462503Y242423D01*
X462576Y242424D01*
X462601Y242434D01*
X462628Y242437D01*
X462692Y242473D01*
X462759Y242502D01*
X462778Y242521D01*
X462801Y242535D01*
X462869Y242616D01*
X462897Y242645D01*
X462900Y242654D01*
X462907Y242663D01*
X489907Y289463D01*
X489916Y289489D01*
X489932Y289511D01*
X489947Y289582D01*
X489971Y289652D01*
X489968Y289679D01*
X489974Y289705D01*
X489961Y289777D01*
X489955Y289850D01*
X489942Y289874D01*
X489937Y289901D01*
X489897Y289962D01*
X489863Y290026D01*
X489842Y290044D01*
X489827Y290066D01*
X489741Y290127D01*
X489710Y290153D01*
X489701Y290156D01*
X489691Y290162D01*
X486053Y291913D01*
X486022Y291921D01*
X485984Y291940D01*
X482125Y293129D01*
X482093Y293132D01*
X482052Y293146D01*
X478059Y293746D01*
X478028Y293745D01*
X477985Y293752D01*
X473947Y293751D01*
X473916Y293744D01*
X473873Y293745D01*
X469881Y293142D01*
X469851Y293131D01*
X469808Y293125D01*
X465950Y291934D01*
X465922Y291919D01*
X465881Y291907D01*
X462243Y290154D01*
X462218Y290134D01*
X462179Y290116D01*
X458843Y287841D01*
X458821Y287818D01*
X458785Y287794D01*
X455826Y285047D01*
X455807Y285021D01*
X455775Y284992D01*
X453259Y281835D01*
X453244Y281806D01*
X453217Y281773D01*
X451199Y278276D01*
X451189Y278245D01*
X451167Y278208D01*
X449693Y274449D01*
X449687Y274418D01*
X449671Y274378D01*
X448774Y270441D01*
X448773Y270409D01*
X448763Y270367D01*
X448462Y266341D01*
X448466Y266309D01*
X448462Y266266D01*
X448765Y262240D01*
X448774Y262209D01*
X448776Y262166D01*
X449676Y258230D01*
X449689Y258201D01*
X449698Y258159D01*
X451174Y254401D01*
X451192Y254374D01*
X451207Y254334D01*
X453227Y250838D01*
X453248Y250814D01*
X453269Y250776D01*
X455787Y247620D01*
X455812Y247600D01*
X455838Y247565D01*
X458799Y244820D01*
X458826Y244803D01*
X458857Y244773D01*
X462194Y242500D01*
X462219Y242489D01*
X462240Y242472D01*
X462310Y242451D01*
X462377Y242423D01*
X462405Y242423D01*
X462431Y242415D01*
X462503Y242423D01*
G37*
G36*
X229679Y242423D02*
X229679Y242423D01*
X229752Y242419D01*
X229778Y242429D01*
X229805Y242430D01*
X229901Y242474D01*
X229939Y242489D01*
X229946Y242495D01*
X229956Y242500D01*
X233293Y244773D01*
X233315Y244796D01*
X233351Y244820D01*
X236312Y247565D01*
X236331Y247591D01*
X236363Y247620D01*
X238881Y250776D01*
X238896Y250804D01*
X238923Y250838D01*
X240943Y254334D01*
X240953Y254364D01*
X240976Y254401D01*
X242452Y258159D01*
X242457Y258190D01*
X242474Y258230D01*
X243374Y262166D01*
X243374Y262198D01*
X243385Y262240D01*
X243688Y266266D01*
X243684Y266298D01*
X243688Y266341D01*
X243387Y270367D01*
X243379Y270398D01*
X243376Y270441D01*
X242479Y274378D01*
X242466Y274407D01*
X242457Y274449D01*
X240983Y278208D01*
X240966Y278235D01*
X240951Y278276D01*
X238933Y281773D01*
X238912Y281797D01*
X238891Y281835D01*
X236375Y284992D01*
X236350Y285013D01*
X236324Y285047D01*
X233365Y287794D01*
X233338Y287811D01*
X233307Y287841D01*
X229971Y290116D01*
X229942Y290129D01*
X229907Y290154D01*
X226270Y291907D01*
X226239Y291914D01*
X226200Y291934D01*
X222342Y293125D01*
X222310Y293128D01*
X222269Y293142D01*
X218277Y293745D01*
X218245Y293743D01*
X218203Y293751D01*
X214165Y293752D01*
X214134Y293746D01*
X214091Y293746D01*
X210098Y293146D01*
X210068Y293135D01*
X210025Y293129D01*
X206166Y291940D01*
X206138Y291925D01*
X206097Y291913D01*
X202459Y290162D01*
X202437Y290146D01*
X202411Y290136D01*
X202358Y290086D01*
X202300Y290042D01*
X202287Y290019D01*
X202267Y290000D01*
X202237Y289933D01*
X202201Y289870D01*
X202198Y289843D01*
X202187Y289818D01*
X202186Y289745D01*
X202177Y289672D01*
X202185Y289646D01*
X202185Y289619D01*
X202221Y289520D01*
X202233Y289481D01*
X202239Y289474D01*
X202243Y289463D01*
X229243Y242663D01*
X229261Y242643D01*
X229272Y242618D01*
X229326Y242569D01*
X229374Y242514D01*
X229399Y242502D01*
X229419Y242484D01*
X229488Y242460D01*
X229554Y242428D01*
X229581Y242427D01*
X229606Y242418D01*
X229679Y242423D01*
G37*
G36*
X348124Y463895D02*
X348124Y463895D01*
X348167Y463894D01*
X352157Y464496D01*
X352187Y464507D01*
X352230Y464512D01*
X356086Y465702D01*
X356114Y465717D01*
X356156Y465729D01*
X359792Y467480D01*
X359817Y467499D01*
X359856Y467517D01*
X363190Y469791D01*
X363213Y469813D01*
X363249Y469837D01*
X366207Y472582D01*
X366226Y472608D01*
X366258Y472637D01*
X368774Y475792D01*
X368788Y475820D01*
X368816Y475853D01*
X370834Y479348D01*
X370844Y479378D01*
X370866Y479415D01*
X372340Y483172D01*
X372341Y483178D01*
X372343Y483180D01*
X372347Y483206D01*
X372362Y483243D01*
X373260Y487177D01*
X373261Y487209D01*
X373271Y487251D01*
X373573Y491275D01*
X373569Y491302D01*
X373574Y491329D01*
X373557Y491400D01*
X373548Y491472D01*
X373534Y491496D01*
X373528Y491522D01*
X373485Y491581D01*
X373448Y491644D01*
X373426Y491661D01*
X373410Y491683D01*
X373347Y491720D01*
X373289Y491764D01*
X373262Y491770D01*
X373239Y491784D01*
X373135Y491802D01*
X373096Y491811D01*
X373086Y491810D01*
X373075Y491812D01*
X319075Y491812D01*
X319048Y491806D01*
X319021Y491809D01*
X318952Y491787D01*
X318880Y491772D01*
X318858Y491757D01*
X318832Y491749D01*
X318776Y491701D01*
X318716Y491660D01*
X318702Y491637D01*
X318681Y491619D01*
X318649Y491554D01*
X318609Y491492D01*
X318605Y491465D01*
X318593Y491441D01*
X318583Y491336D01*
X318576Y491296D01*
X318578Y491287D01*
X318577Y491275D01*
X318879Y487251D01*
X318887Y487220D01*
X318890Y487177D01*
X319788Y483243D01*
X319801Y483214D01*
X319810Y483172D01*
X321284Y479415D01*
X321301Y479388D01*
X321316Y479348D01*
X323334Y475853D01*
X323355Y475829D01*
X323376Y475792D01*
X325892Y472637D01*
X325917Y472616D01*
X325943Y472582D01*
X328901Y469837D01*
X328928Y469821D01*
X328960Y469791D01*
X332294Y467517D01*
X332323Y467505D01*
X332358Y467480D01*
X335994Y465729D01*
X336025Y465721D01*
X336064Y465702D01*
X339920Y464512D01*
X339951Y464509D01*
X339993Y464496D01*
X343983Y463894D01*
X344015Y463896D01*
X344057Y463889D01*
X348093Y463889D01*
X348124Y463895D01*
G37*
G36*
X373102Y190819D02*
X373102Y190819D01*
X373129Y190816D01*
X373198Y190838D01*
X373270Y190853D01*
X373292Y190868D01*
X373318Y190877D01*
X373374Y190924D01*
X373434Y190965D01*
X373448Y190988D01*
X373469Y191006D01*
X373502Y191071D01*
X373541Y191133D01*
X373545Y191160D01*
X373557Y191184D01*
X373567Y191289D01*
X373574Y191329D01*
X373572Y191338D01*
X373573Y191350D01*
X373271Y195374D01*
X373263Y195405D01*
X373260Y195448D01*
X372362Y199382D01*
X372349Y199411D01*
X372340Y199453D01*
X370866Y203210D01*
X370849Y203237D01*
X370834Y203277D01*
X368816Y206772D01*
X368795Y206796D01*
X368774Y206833D01*
X366258Y209988D01*
X366233Y210009D01*
X366207Y210043D01*
X363249Y212788D01*
X363222Y212804D01*
X363190Y212834D01*
X359856Y215108D01*
X359827Y215120D01*
X359792Y215145D01*
X356156Y216896D01*
X356125Y216904D01*
X356086Y216923D01*
X352230Y218113D01*
X352199Y218116D01*
X352157Y218129D01*
X348167Y218731D01*
X348135Y218729D01*
X348093Y218736D01*
X344057Y218736D01*
X344026Y218730D01*
X343983Y218731D01*
X339993Y218129D01*
X339963Y218118D01*
X339920Y218113D01*
X336064Y216923D01*
X336036Y216908D01*
X335994Y216896D01*
X332358Y215145D01*
X332333Y215126D01*
X332294Y215108D01*
X328960Y212834D01*
X328937Y212812D01*
X328901Y212788D01*
X325943Y210043D01*
X325925Y210017D01*
X325892Y209988D01*
X323376Y206833D01*
X323362Y206805D01*
X323334Y206772D01*
X321316Y203277D01*
X321306Y203247D01*
X321284Y203210D01*
X319810Y199453D01*
X319804Y199422D01*
X319788Y199382D01*
X318890Y195448D01*
X318889Y195416D01*
X318879Y195374D01*
X318577Y191350D01*
X318581Y191323D01*
X318576Y191296D01*
X318593Y191225D01*
X318602Y191153D01*
X318616Y191129D01*
X318622Y191103D01*
X318665Y191044D01*
X318702Y190981D01*
X318724Y190964D01*
X318740Y190942D01*
X318803Y190905D01*
X318861Y190861D01*
X318888Y190855D01*
X318911Y190841D01*
X319015Y190823D01*
X319054Y190814D01*
X319064Y190815D01*
X319075Y190813D01*
X373075Y190813D01*
X373102Y190819D01*
G37*
%LPC*%
G36*
X403069Y301848D02*
X403069Y301848D01*
X400839Y302772D01*
X399132Y304479D01*
X398208Y306710D01*
X398208Y309124D01*
X399132Y311355D01*
X400839Y313062D01*
X403069Y313986D01*
X405484Y313986D01*
X406070Y313743D01*
X406100Y313734D01*
X406128Y313720D01*
X406293Y313676D01*
X406456Y313626D01*
X406487Y313623D01*
X406517Y313615D01*
X406847Y313588D01*
X441283Y313588D01*
X441310Y313591D01*
X441337Y313589D01*
X441511Y313611D01*
X441684Y313628D01*
X441709Y313636D01*
X441736Y313639D01*
X441902Y313695D01*
X442069Y313746D01*
X442092Y313759D01*
X442118Y313768D01*
X442269Y313855D01*
X442423Y313938D01*
X442443Y313955D01*
X442467Y313968D01*
X442720Y314183D01*
X455877Y327340D01*
X455888Y327354D01*
X455902Y327366D01*
X456015Y327509D01*
X456132Y327652D01*
X456140Y327668D01*
X456151Y327682D01*
X456235Y327846D01*
X456321Y328008D01*
X456326Y328025D01*
X456334Y328041D01*
X456383Y328218D01*
X456435Y328393D01*
X456437Y328411D01*
X456442Y328428D01*
X456455Y328612D01*
X456472Y328794D01*
X456470Y328812D01*
X456471Y328830D01*
X456448Y329012D01*
X456428Y329195D01*
X456423Y329212D01*
X456421Y329229D01*
X456362Y329403D01*
X456307Y329579D01*
X456298Y329594D01*
X456292Y329611D01*
X456201Y329771D01*
X456112Y329931D01*
X456100Y329944D01*
X456092Y329960D01*
X455877Y330213D01*
X452056Y334034D01*
X452056Y342241D01*
X457859Y348044D01*
X466066Y348044D01*
X471869Y342241D01*
X471869Y334034D01*
X466876Y329041D01*
X466859Y329020D01*
X466839Y329003D01*
X466732Y328865D01*
X466621Y328729D01*
X466609Y328706D01*
X466592Y328685D01*
X466514Y328528D01*
X466432Y328374D01*
X466425Y328348D01*
X466413Y328324D01*
X466367Y328155D01*
X466318Y327988D01*
X466315Y327961D01*
X466308Y327935D01*
X466281Y327605D01*
X466281Y326459D01*
X465624Y324872D01*
X446360Y305608D01*
X444773Y304951D01*
X410734Y304951D01*
X410707Y304948D01*
X410681Y304950D01*
X410507Y304928D01*
X410333Y304911D01*
X410308Y304903D01*
X410281Y304900D01*
X410115Y304844D01*
X409948Y304793D01*
X409925Y304780D01*
X409900Y304771D01*
X409748Y304684D01*
X409594Y304601D01*
X409574Y304584D01*
X409551Y304570D01*
X409298Y304356D01*
X407714Y302772D01*
X405484Y301848D01*
X403069Y301848D01*
G37*
%LPD*%
%LPC*%
G36*
X264511Y294950D02*
X264511Y294950D01*
X262281Y295874D01*
X260574Y297581D01*
X259650Y299812D01*
X259650Y302226D01*
X260574Y304457D01*
X261567Y305450D01*
X261584Y305471D01*
X261604Y305488D01*
X261711Y305626D01*
X261822Y305761D01*
X261834Y305785D01*
X261851Y305806D01*
X261929Y305963D01*
X262010Y306117D01*
X262018Y306143D01*
X262030Y306167D01*
X262076Y306336D01*
X262125Y306503D01*
X262128Y306530D01*
X262135Y306556D01*
X262162Y306886D01*
X262162Y323667D01*
X262159Y323694D01*
X262161Y323720D01*
X262139Y323894D01*
X262122Y324068D01*
X262114Y324093D01*
X262111Y324120D01*
X262055Y324285D01*
X262004Y324453D01*
X261991Y324476D01*
X261982Y324501D01*
X261895Y324653D01*
X261812Y324807D01*
X261795Y324827D01*
X261781Y324850D01*
X261567Y325103D01*
X252239Y334431D01*
X252218Y334448D01*
X252201Y334468D01*
X252063Y334575D01*
X251928Y334686D01*
X251904Y334698D01*
X251883Y334715D01*
X251726Y334793D01*
X251572Y334875D01*
X251546Y334882D01*
X251522Y334894D01*
X251353Y334940D01*
X251186Y334989D01*
X251159Y334992D01*
X251134Y334999D01*
X250803Y335026D01*
X245440Y335026D01*
X244324Y336142D01*
X244310Y336154D01*
X244298Y336167D01*
X244154Y336281D01*
X244012Y336397D01*
X243997Y336406D01*
X243983Y336417D01*
X243818Y336500D01*
X243657Y336586D01*
X243640Y336591D01*
X243624Y336599D01*
X243447Y336648D01*
X243271Y336701D01*
X243253Y336702D01*
X243236Y336707D01*
X243053Y336721D01*
X242870Y336737D01*
X242852Y336735D01*
X242834Y336737D01*
X242652Y336714D01*
X242469Y336694D01*
X242452Y336688D01*
X242435Y336686D01*
X242261Y336628D01*
X242086Y336572D01*
X242070Y336564D01*
X242053Y336558D01*
X241894Y336466D01*
X241733Y336377D01*
X241720Y336366D01*
X241704Y336357D01*
X241451Y336142D01*
X240335Y335026D01*
X230406Y335026D01*
X230284Y335126D01*
X230264Y335136D01*
X230247Y335150D01*
X230087Y335230D01*
X229928Y335314D01*
X229907Y335321D01*
X229887Y335331D01*
X229714Y335378D01*
X229542Y335429D01*
X229520Y335431D01*
X229499Y335437D01*
X229320Y335449D01*
X229141Y335466D01*
X229119Y335463D01*
X229097Y335465D01*
X228920Y335441D01*
X228741Y335422D01*
X228720Y335415D01*
X228698Y335412D01*
X228382Y335311D01*
X228220Y335244D01*
X225805Y335244D01*
X223575Y336168D01*
X221868Y337875D01*
X220944Y340105D01*
X220944Y342520D01*
X221868Y344750D01*
X223575Y346457D01*
X225805Y347381D01*
X228220Y347381D01*
X228382Y347314D01*
X228403Y347308D01*
X228423Y347297D01*
X228596Y347249D01*
X228767Y347198D01*
X228789Y347195D01*
X228811Y347189D01*
X228990Y347176D01*
X229168Y347159D01*
X229190Y347162D01*
X229213Y347160D01*
X229391Y347183D01*
X229568Y347201D01*
X229590Y347208D01*
X229612Y347211D01*
X229782Y347268D01*
X229953Y347321D01*
X229972Y347332D01*
X229994Y347339D01*
X230149Y347428D01*
X230306Y347514D01*
X230323Y347529D01*
X230343Y347540D01*
X230413Y347599D01*
X240335Y347599D01*
X241451Y346483D01*
X241465Y346471D01*
X241477Y346458D01*
X241621Y346344D01*
X241763Y346228D01*
X241778Y346219D01*
X241792Y346208D01*
X241957Y346125D01*
X242118Y346039D01*
X242135Y346034D01*
X242151Y346026D01*
X242329Y345976D01*
X242504Y345924D01*
X242522Y345923D01*
X242539Y345918D01*
X242722Y345904D01*
X242905Y345888D01*
X242923Y345890D01*
X242941Y345888D01*
X243123Y345911D01*
X243306Y345931D01*
X243323Y345937D01*
X243340Y345939D01*
X243514Y345997D01*
X243689Y346053D01*
X243705Y346061D01*
X243722Y346067D01*
X243881Y346159D01*
X244042Y346248D01*
X244055Y346259D01*
X244071Y346268D01*
X244324Y346483D01*
X245440Y347599D01*
X255335Y347599D01*
X256674Y346260D01*
X256674Y340897D01*
X256677Y340871D01*
X256675Y340844D01*
X256697Y340670D01*
X256714Y340497D01*
X256722Y340471D01*
X256725Y340444D01*
X256781Y340279D01*
X256832Y340112D01*
X256845Y340088D01*
X256854Y340063D01*
X256941Y339911D01*
X257024Y339758D01*
X257041Y339737D01*
X257054Y339714D01*
X257269Y339461D01*
X269275Y327455D01*
X269275Y306886D01*
X269278Y306860D01*
X269276Y306833D01*
X269298Y306659D01*
X269315Y306486D01*
X269323Y306460D01*
X269326Y306433D01*
X269382Y306268D01*
X269433Y306101D01*
X269446Y306077D01*
X269454Y306052D01*
X269542Y305900D01*
X269625Y305747D01*
X269642Y305726D01*
X269655Y305703D01*
X269870Y305450D01*
X270863Y304457D01*
X271787Y302226D01*
X271787Y299812D01*
X270863Y297581D01*
X269156Y295874D01*
X266926Y294950D01*
X264511Y294950D01*
G37*
%LPD*%
%LPC*%
G36*
X387190Y404963D02*
X387190Y404963D01*
X385905Y406249D01*
X385884Y406266D01*
X385867Y406286D01*
X385729Y406393D01*
X385593Y406504D01*
X385570Y406516D01*
X385548Y406533D01*
X385392Y406611D01*
X385238Y406693D01*
X385212Y406700D01*
X385188Y406712D01*
X385019Y406758D01*
X384852Y406807D01*
X384825Y406810D01*
X384799Y406817D01*
X384468Y406844D01*
X370230Y406844D01*
X370204Y406841D01*
X370177Y406843D01*
X370003Y406821D01*
X369829Y406804D01*
X369804Y406796D01*
X369777Y406793D01*
X369612Y406737D01*
X369445Y406686D01*
X369421Y406673D01*
X369396Y406664D01*
X369244Y406577D01*
X369091Y406494D01*
X369070Y406477D01*
X369047Y406464D01*
X368794Y406249D01*
X368563Y406018D01*
X366332Y405094D01*
X363918Y405094D01*
X361687Y406018D01*
X359980Y407725D01*
X359056Y409955D01*
X359056Y412370D01*
X359980Y414600D01*
X361687Y416307D01*
X363918Y417231D01*
X366332Y417231D01*
X368563Y416307D01*
X368794Y416076D01*
X368804Y416068D01*
X368808Y416062D01*
X368818Y416055D01*
X368832Y416039D01*
X368970Y415932D01*
X369105Y415821D01*
X369129Y415809D01*
X369150Y415792D01*
X369307Y415714D01*
X369461Y415632D01*
X369487Y415625D01*
X369511Y415613D01*
X369680Y415567D01*
X369847Y415518D01*
X369874Y415515D01*
X369899Y415508D01*
X370230Y415481D01*
X383820Y415481D01*
X383837Y415483D01*
X383855Y415482D01*
X384037Y415503D01*
X384220Y415521D01*
X384237Y415526D01*
X384255Y415528D01*
X384429Y415585D01*
X384605Y415639D01*
X384621Y415648D01*
X384638Y415653D01*
X384798Y415744D01*
X384959Y415831D01*
X384973Y415842D01*
X384988Y415851D01*
X385128Y415971D01*
X385268Y416089D01*
X385280Y416103D01*
X385293Y416114D01*
X385406Y416259D01*
X385521Y416403D01*
X385529Y416418D01*
X385540Y416432D01*
X385622Y416597D01*
X385706Y416760D01*
X385711Y416777D01*
X385719Y416793D01*
X385767Y416971D01*
X385818Y417147D01*
X385819Y417165D01*
X385824Y417182D01*
X385851Y417512D01*
X385851Y419197D01*
X387190Y420537D01*
X399085Y420537D01*
X400424Y419197D01*
X400424Y406303D01*
X399085Y404963D01*
X387190Y404963D01*
G37*
%LPD*%
%LPC*%
G36*
X349630Y233644D02*
X349630Y233644D01*
X347400Y234568D01*
X345693Y236275D01*
X344769Y238505D01*
X344769Y240920D01*
X345693Y243150D01*
X347400Y244857D01*
X349630Y245781D01*
X352045Y245781D01*
X353443Y245202D01*
X353473Y245193D01*
X353501Y245179D01*
X353666Y245135D01*
X353829Y245085D01*
X353860Y245082D01*
X353890Y245074D01*
X354221Y245047D01*
X372854Y245047D01*
X372885Y245050D01*
X372917Y245048D01*
X373086Y245070D01*
X373255Y245087D01*
X373285Y245096D01*
X373316Y245100D01*
X373632Y245202D01*
X375030Y245781D01*
X377445Y245781D01*
X379675Y244857D01*
X381382Y243150D01*
X382306Y240920D01*
X382306Y238505D01*
X381382Y236275D01*
X379675Y234568D01*
X377445Y233644D01*
X375030Y233644D01*
X373632Y234223D01*
X373602Y234232D01*
X373574Y234246D01*
X373409Y234290D01*
X373246Y234340D01*
X373215Y234343D01*
X373185Y234351D01*
X372854Y234378D01*
X354221Y234378D01*
X354190Y234375D01*
X354158Y234377D01*
X353989Y234355D01*
X353820Y234338D01*
X353790Y234329D01*
X353759Y234325D01*
X353443Y234223D01*
X352045Y233644D01*
X349630Y233644D01*
G37*
%LPD*%
%LPC*%
G36*
X433768Y362231D02*
X433768Y362231D01*
X431537Y363155D01*
X429830Y364862D01*
X428906Y367093D01*
X428906Y369507D01*
X429830Y371738D01*
X431537Y373445D01*
X433768Y374369D01*
X436182Y374369D01*
X437581Y373789D01*
X437611Y373780D01*
X437639Y373766D01*
X437804Y373722D01*
X437966Y373673D01*
X437997Y373670D01*
X438028Y373662D01*
X438358Y373635D01*
X455404Y373635D01*
X455435Y373638D01*
X455467Y373636D01*
X455636Y373658D01*
X455805Y373675D01*
X455835Y373684D01*
X455866Y373688D01*
X456182Y373789D01*
X457580Y374369D01*
X459995Y374369D01*
X462225Y373445D01*
X463932Y371738D01*
X464856Y369507D01*
X464856Y367093D01*
X463932Y364862D01*
X462225Y363155D01*
X459995Y362231D01*
X457580Y362231D01*
X456182Y362811D01*
X456152Y362820D01*
X456124Y362834D01*
X455959Y362878D01*
X455796Y362927D01*
X455765Y362930D01*
X455735Y362938D01*
X455404Y362965D01*
X438358Y362965D01*
X438327Y362962D01*
X438296Y362964D01*
X438127Y362942D01*
X437958Y362925D01*
X437928Y362916D01*
X437897Y362912D01*
X437581Y362811D01*
X436182Y362231D01*
X433768Y362231D01*
G37*
%LPD*%
%LPC*%
G36*
X277429Y366331D02*
X277429Y366331D01*
X273788Y367839D01*
X271001Y370626D01*
X269493Y374267D01*
X269493Y378208D01*
X271001Y381849D01*
X273788Y384636D01*
X275135Y385194D01*
X277429Y386144D01*
X281371Y386144D01*
X285012Y384636D01*
X287799Y381849D01*
X289307Y378208D01*
X289307Y374267D01*
X287799Y370626D01*
X285012Y367839D01*
X282013Y366597D01*
X281371Y366331D01*
X277429Y366331D01*
G37*
%LPD*%
D10*
X250388Y341313D03*
X235388Y341313D03*
D11*
X461963Y338138D03*
D12*
X410138Y412750D03*
X393138Y412750D03*
D13*
X357700Y333813D03*
X357700Y338813D03*
X357700Y343813D03*
X357700Y348813D03*
D14*
X351075Y350438D03*
X346075Y350438D03*
X341075Y350438D03*
D13*
X334450Y348813D03*
X334450Y343813D03*
X334450Y338813D03*
X334450Y333813D03*
D14*
X341075Y332188D03*
X346075Y332188D03*
X351075Y332188D03*
D15*
X428675Y484413D03*
X511275Y341313D03*
X428675Y198213D03*
X263475Y198213D03*
X180875Y341313D03*
X263475Y484413D03*
X469975Y412813D03*
X469975Y269813D03*
X346075Y198213D03*
X222175Y269813D03*
X222175Y412813D03*
X346075Y484413D03*
D16*
X327025Y301063D03*
X327025Y318063D03*
X332813Y371475D03*
X349813Y371475D03*
X332813Y384175D03*
X349813Y384175D03*
D17*
X278963Y274320D03*
X273963Y274320D03*
X268963Y274320D03*
X263963Y274320D03*
X263963Y259080D03*
X268963Y259080D03*
X273963Y259080D03*
X278963Y259080D03*
D18*
X263843Y269200D03*
X263843Y264200D03*
X279083Y264200D03*
X279083Y269200D03*
D19*
X279400Y427038D03*
X279400Y401638D03*
X279400Y376238D03*
D20*
X268963Y264200D02*
X263843Y264200D01*
X268963Y264200D02*
X268963Y259080D01*
X341075Y350438D02*
X346075Y350438D01*
D21*
X258763Y251742D03*
D20*
X268963Y251742D02*
X268963Y259080D01*
X268963Y251742D02*
X258763Y251742D01*
D22*
X332813Y371475D02*
X332813Y384175D01*
D23*
X332813Y371475D02*
X332813Y370913D01*
X323850Y361950D01*
D21*
X323850Y361950D03*
X434975Y368300D03*
X458788Y368300D03*
D24*
X434975Y368300D01*
D21*
X425450Y261938D03*
X444500Y288925D03*
D24*
X442096Y286521D02*
X440360Y286521D01*
X442096Y286521D02*
X444500Y288925D01*
X425450Y271610D02*
X425450Y261938D01*
X425450Y271610D02*
X440360Y286521D01*
D21*
X376238Y239713D03*
X350838Y239713D03*
D24*
X376238Y239713D01*
D21*
X355600Y444500D03*
X328613Y444500D03*
D24*
X355600Y444500D01*
D21*
X257175Y431800D03*
X263525Y403225D03*
D24*
X263525Y425450D01*
X257175Y431800D01*
D20*
X340381Y351535D02*
X340381Y351132D01*
X341075Y350438D01*
X332813Y359104D02*
X332813Y371475D01*
X332813Y359104D02*
X340381Y351535D01*
X235388Y341313D02*
X227013Y341313D01*
D21*
X227013Y341313D03*
D20*
X268963Y274320D02*
X273963Y274320D01*
X273963Y259080D01*
X278963Y259080D01*
X357700Y333813D02*
X357700Y338138D01*
X357700Y338813D01*
X341075Y338138D02*
X341075Y332188D01*
X341075Y338138D02*
X351075Y338138D01*
X357700Y338138D01*
X357700Y338813D02*
X357700Y343813D01*
X351075Y338138D02*
X351075Y350438D01*
D21*
X298450Y256862D03*
D20*
X296418Y258894D01*
D22*
X349813Y371475D02*
X349813Y384175D01*
D25*
X349606Y383968D01*
D21*
X282032Y344381D03*
D20*
X350901Y350612D02*
X351075Y350438D01*
X349813Y355354D02*
X349813Y371475D01*
X350901Y354265D02*
X350901Y350612D01*
X350901Y354265D02*
X349813Y355354D01*
X334450Y348813D02*
X334013Y349250D01*
X323850Y349250D01*
D21*
X257175Y277813D03*
X351264Y283736D03*
D20*
X356588Y289061D02*
X356588Y296727D01*
X351075Y302240D02*
X351075Y332188D01*
X351075Y302240D02*
X356588Y296727D01*
X356588Y289061D02*
X351264Y283736D01*
X263963Y274320D02*
X260668Y274320D01*
X257175Y277813D01*
D21*
X347663Y293688D03*
D20*
X279280Y274638D02*
X278963Y274320D01*
X279400Y274638D02*
X287338Y282575D01*
X279400Y274638D02*
X279280Y274638D01*
D21*
X287338Y282575D03*
D20*
X327025Y318063D02*
X328050Y319088D01*
X327025Y318063D02*
X339163Y318063D01*
X346249Y310976D02*
X346249Y300241D01*
X347663Y298828D01*
X347663Y293688D01*
X346075Y311150D02*
X339163Y318063D01*
X346075Y311150D02*
X346075Y332188D01*
X346075Y311150D02*
X346249Y310976D01*
X357874Y348639D02*
X357700Y348813D01*
X357874Y348639D02*
X361528Y348639D01*
X369888Y340279D01*
X369888Y288910D02*
X372505Y286293D01*
D21*
X372505Y286293D03*
D20*
X369888Y288910D02*
X369888Y340279D01*
X334450Y343813D02*
X328730Y343813D01*
X301399Y316482D01*
X301399Y313307D01*
D21*
X301399Y313307D03*
D20*
X320000Y269200D02*
X279083Y269200D01*
D21*
X325150Y288326D03*
D20*
X325150Y274350D01*
X320000Y269200D01*
X263963Y259080D02*
X258445Y259080D01*
X255900Y261626D02*
X255900Y261862D01*
D21*
X255900Y261862D03*
D20*
X255900Y261626D02*
X258445Y259080D01*
X263843Y269200D02*
X251737Y269200D01*
X247246Y264709D01*
D21*
X295275Y241300D03*
D20*
X258827Y241300D02*
X247246Y252881D01*
X258827Y241300D02*
X295275Y241300D01*
X247246Y252881D02*
X247246Y264709D01*
D25*
X365125Y411163D02*
X391550Y411163D01*
X393138Y412750D01*
D21*
X365125Y411163D03*
X404277Y307917D03*
D25*
X405629Y309270D01*
X461963Y327318D02*
X461963Y338138D01*
X461963Y327318D02*
X443914Y309270D01*
X405629Y309270D01*
D22*
X279400Y401638D02*
X279400Y427038D01*
D21*
X446282Y399856D03*
D23*
X459238Y412813D01*
X469975Y412813D01*
X469975Y269813D02*
X451728Y269813D01*
X444136Y277405D01*
D21*
X444136Y277405D03*
D23*
X234938Y282575D02*
X222175Y269813D01*
D21*
X244475Y287338D03*
D23*
X239713Y282575D02*
X234938Y282575D01*
X239713Y282575D02*
X244475Y287338D01*
D21*
X368300Y220663D03*
D23*
X368300Y220438D01*
X346075Y198213D01*
D20*
X322938Y264200D02*
X279083Y264200D01*
X322938Y264200D02*
X334963Y276225D01*
D21*
X335000Y288326D03*
D20*
X334963Y288288D01*
X334963Y276225D01*
D23*
X245903Y412813D02*
X222175Y412813D01*
X245903Y412813D02*
X253695Y420605D01*
D21*
X253695Y420605D03*
X338483Y458586D03*
D23*
X338483Y476821D01*
X346075Y484413D01*
D20*
X265718Y325982D02*
X265718Y301019D01*
X265718Y325982D02*
X250388Y341313D01*
D21*
X265718Y301019D03*
M02*
