G04 EAGLE Gerber RS-274X export*
G75*
%MOMM*%
%FSLAX34Y34*%
%LPD*%
%INBottom Copper*%
%IPPOS*%
%AMOC8*
5,1,8,0,0,1.08239X$1,22.5*%
G01*
%ADD10R,1.000000X1.100000*%
%ADD11R,1.500000X1.300000*%
%ADD12R,1.399997X0.400000*%
%ADD13P,1.649562X8X22.500000*%
%ADD14R,1.100000X1.000000*%
%ADD15R,1.300000X1.500000*%
%ADD16R,0.812800X0.254000*%
%ADD17R,0.254000X0.812800*%
%ADD18R,5.384800X5.384800*%
%ADD19C,1.000000*%
%ADD20C,1.524000*%
%ADD21C,0.355600*%
%ADD22C,0.406400*%
%ADD23C,0.756400*%
%ADD24C,0.609600*%
%ADD25C,0.304800*%
%ADD26C,0.254000*%

G36*
X278503Y190819D02*
X278503Y190819D01*
X278531Y190816D01*
X278599Y190839D01*
X278670Y190853D01*
X278693Y190869D01*
X278720Y190878D01*
X278775Y190925D01*
X278834Y190965D01*
X278849Y190989D01*
X278871Y191008D01*
X278902Y191072D01*
X278941Y191133D01*
X278946Y191161D01*
X278958Y191186D01*
X278967Y191288D01*
X278974Y191329D01*
X278972Y191339D01*
X278973Y191352D01*
X278916Y192067D01*
X314452Y192067D01*
X314595Y192081D01*
X314740Y192088D01*
X314796Y192101D01*
X314853Y192107D01*
X314990Y192149D01*
X315131Y192184D01*
X315183Y192208D01*
X315238Y192225D01*
X315365Y192294D01*
X315495Y192355D01*
X315541Y192390D01*
X315592Y192417D01*
X315703Y192509D01*
X315818Y192595D01*
X315857Y192638D01*
X315901Y192675D01*
X315991Y192787D01*
X316088Y192894D01*
X316117Y192944D01*
X316153Y192989D01*
X316220Y193116D01*
X316293Y193240D01*
X316312Y193295D01*
X316339Y193346D01*
X316379Y193484D01*
X316426Y193620D01*
X316437Y193685D01*
X316450Y193733D01*
X316457Y193816D01*
X316478Y193948D01*
X316479Y193965D01*
X316477Y194041D01*
X316485Y194117D01*
X316483Y194133D01*
X316483Y194134D01*
X316482Y194143D01*
X316472Y194242D01*
X316469Y194368D01*
X316452Y194442D01*
X316445Y194517D01*
X316408Y194637D01*
X316383Y194745D01*
X316579Y195605D01*
X316588Y195671D01*
X316602Y195762D01*
X316603Y195764D01*
X316603Y195767D01*
X316625Y195905D01*
X316691Y196790D01*
X316724Y196830D01*
X316783Y196941D01*
X316849Y197047D01*
X316877Y197118D01*
X316912Y197186D01*
X316962Y197341D01*
X316993Y197423D01*
X316999Y197459D01*
X317012Y197502D01*
X317205Y198345D01*
X317214Y198421D01*
X317233Y198495D01*
X317239Y198621D01*
X317255Y198745D01*
X317250Y198821D01*
X317253Y198897D01*
X317235Y199021D01*
X317227Y199133D01*
X317549Y199953D01*
X317567Y200018D01*
X317638Y200243D01*
X317835Y201108D01*
X317874Y201143D01*
X317949Y201244D01*
X318031Y201339D01*
X318068Y201405D01*
X318114Y201467D01*
X318185Y201613D01*
X318228Y201689D01*
X318239Y201723D01*
X318260Y201765D01*
X318576Y202570D01*
X318596Y202643D01*
X318626Y202714D01*
X318651Y202836D01*
X318685Y202957D01*
X318691Y203034D01*
X318706Y203108D01*
X318706Y203234D01*
X318714Y203345D01*
X319155Y204108D01*
X319183Y204169D01*
X319287Y204382D01*
X319611Y205208D01*
X319654Y205236D01*
X319743Y205325D01*
X319838Y205407D01*
X319885Y205467D01*
X319939Y205521D01*
X320032Y205655D01*
X320086Y205724D01*
X320102Y205756D01*
X320128Y205794D01*
X320560Y206543D01*
X320592Y206612D01*
X320632Y206678D01*
X320675Y206795D01*
X320726Y206909D01*
X320743Y206984D01*
X320770Y207056D01*
X320788Y207180D01*
X320813Y207288D01*
X321363Y207977D01*
X321399Y208034D01*
X321534Y208228D01*
X321977Y208997D01*
X322025Y209019D01*
X322126Y209093D01*
X322232Y209160D01*
X322287Y209212D01*
X322349Y209258D01*
X322461Y209377D01*
X322524Y209436D01*
X322545Y209466D01*
X322576Y209499D01*
X323115Y210175D01*
X323157Y210239D01*
X323206Y210298D01*
X323266Y210408D01*
X323334Y210513D01*
X323362Y210584D01*
X323399Y210652D01*
X323436Y210771D01*
X323477Y210875D01*
X323917Y211283D01*
X323954Y211325D01*
X323996Y211361D01*
X324086Y211476D01*
X324183Y211585D01*
X324211Y211633D01*
X324246Y211677D01*
X324312Y211807D01*
X324385Y211933D01*
X324403Y211986D01*
X324428Y212036D01*
X324467Y212177D01*
X324514Y212315D01*
X324521Y212370D01*
X324536Y212424D01*
X324547Y212570D01*
X324565Y212714D01*
X324561Y212770D01*
X324566Y212826D01*
X324547Y212971D01*
X324537Y213116D01*
X324522Y213169D01*
X324515Y213225D01*
X324469Y213363D01*
X324430Y213504D01*
X324405Y213554D01*
X324387Y213607D01*
X324314Y213733D01*
X324248Y213863D01*
X324214Y213907D01*
X324186Y213956D01*
X324047Y214119D01*
X324000Y214180D01*
X323986Y214191D01*
X323971Y214209D01*
X316733Y221447D01*
X316075Y223034D01*
X316075Y224753D01*
X316683Y226219D01*
X316692Y226249D01*
X316706Y226277D01*
X316750Y226442D01*
X316799Y226604D01*
X316802Y226635D01*
X316810Y226666D01*
X316837Y226996D01*
X316837Y265742D01*
X318177Y267082D01*
X369062Y267082D01*
X369080Y267084D01*
X369098Y267082D01*
X369280Y267103D01*
X369463Y267122D01*
X369480Y267127D01*
X369497Y267129D01*
X369672Y267186D01*
X369848Y267240D01*
X369863Y267248D01*
X369880Y267254D01*
X370040Y267344D01*
X370202Y267432D01*
X370215Y267443D01*
X370231Y267452D01*
X370370Y267572D01*
X370511Y267689D01*
X370522Y267703D01*
X370536Y267715D01*
X370648Y267860D01*
X370763Y268003D01*
X370771Y268019D01*
X370782Y268033D01*
X370864Y268198D01*
X370949Y268360D01*
X370954Y268377D01*
X370962Y268393D01*
X371009Y268571D01*
X371060Y268747D01*
X371062Y268765D01*
X371066Y268782D01*
X371093Y269113D01*
X371093Y314996D01*
X372433Y316336D01*
X381788Y316336D01*
X381814Y316338D01*
X381841Y316336D01*
X382015Y316358D01*
X382188Y316376D01*
X382214Y316383D01*
X382240Y316387D01*
X382406Y316442D01*
X382573Y316494D01*
X382597Y316507D01*
X382622Y316515D01*
X382774Y316602D01*
X382927Y316686D01*
X382948Y316703D01*
X382971Y316716D01*
X383224Y316931D01*
X395661Y329368D01*
X395678Y329388D01*
X395698Y329406D01*
X395805Y329544D01*
X395916Y329679D01*
X395928Y329703D01*
X395945Y329724D01*
X396023Y329881D01*
X396105Y330035D01*
X396112Y330060D01*
X396124Y330084D01*
X396170Y330254D01*
X396219Y330421D01*
X396222Y330447D01*
X396229Y330473D01*
X396256Y330804D01*
X396256Y336091D01*
X396253Y336118D01*
X396255Y336144D01*
X396233Y336318D01*
X396216Y336492D01*
X396208Y336517D01*
X396205Y336544D01*
X396149Y336710D01*
X396098Y336877D01*
X396085Y336900D01*
X396076Y336926D01*
X395989Y337077D01*
X395906Y337231D01*
X395889Y337251D01*
X395876Y337274D01*
X395661Y337527D01*
X389889Y343299D01*
X389889Y365361D01*
X390153Y365625D01*
X390170Y365646D01*
X390191Y365663D01*
X390298Y365801D01*
X390408Y365937D01*
X390421Y365960D01*
X390437Y365981D01*
X390515Y366138D01*
X390597Y366292D01*
X390605Y366318D01*
X390617Y366342D01*
X390662Y366511D01*
X390712Y366678D01*
X390714Y366705D01*
X390721Y366731D01*
X390748Y367061D01*
X390748Y376152D01*
X392088Y377492D01*
X392439Y377492D01*
X392457Y377494D01*
X392475Y377492D01*
X392657Y377513D01*
X392840Y377532D01*
X392857Y377537D01*
X392874Y377539D01*
X393049Y377596D01*
X393225Y377650D01*
X393240Y377658D01*
X393257Y377664D01*
X393417Y377754D01*
X393579Y377842D01*
X393592Y377853D01*
X393608Y377862D01*
X393747Y377982D01*
X393888Y378099D01*
X393899Y378113D01*
X393913Y378125D01*
X394025Y378270D01*
X394140Y378413D01*
X394148Y378429D01*
X394159Y378443D01*
X394241Y378608D01*
X394326Y378770D01*
X394331Y378787D01*
X394339Y378803D01*
X394386Y378982D01*
X394437Y379157D01*
X394439Y379175D01*
X394443Y379192D01*
X394470Y379523D01*
X394470Y384422D01*
X394468Y384440D01*
X394470Y384458D01*
X394449Y384640D01*
X394430Y384823D01*
X394425Y384840D01*
X394423Y384857D01*
X394366Y385032D01*
X394312Y385208D01*
X394304Y385223D01*
X394298Y385240D01*
X394208Y385400D01*
X394120Y385562D01*
X394109Y385575D01*
X394100Y385591D01*
X393981Y385729D01*
X393863Y385871D01*
X393849Y385882D01*
X393837Y385896D01*
X393692Y386008D01*
X393549Y386123D01*
X393533Y386131D01*
X393519Y386142D01*
X393354Y386224D01*
X393192Y386309D01*
X393175Y386314D01*
X393159Y386322D01*
X392980Y386369D01*
X392805Y386420D01*
X392787Y386422D01*
X392770Y386426D01*
X392439Y386453D01*
X387548Y386453D01*
X386208Y387793D01*
X386208Y404687D01*
X387548Y406027D01*
X402442Y406027D01*
X403059Y405410D01*
X403072Y405399D01*
X403084Y405385D01*
X403228Y405271D01*
X403370Y405155D01*
X403386Y405147D01*
X403400Y405136D01*
X403564Y405052D01*
X403726Y404967D01*
X403743Y404961D01*
X403759Y404953D01*
X403936Y404904D01*
X404112Y404852D01*
X404130Y404850D01*
X404147Y404845D01*
X404330Y404832D01*
X404513Y404815D01*
X404531Y404817D01*
X404548Y404816D01*
X404730Y404839D01*
X404913Y404859D01*
X404930Y404864D01*
X404948Y404866D01*
X405121Y404925D01*
X405297Y404980D01*
X405313Y404989D01*
X405329Y404995D01*
X405488Y405086D01*
X405649Y405175D01*
X405663Y405187D01*
X405678Y405196D01*
X405931Y405410D01*
X406548Y406027D01*
X421442Y406027D01*
X422782Y404687D01*
X422782Y387793D01*
X421421Y386433D01*
X421413Y386432D01*
X421230Y386413D01*
X421213Y386408D01*
X421196Y386406D01*
X421021Y386349D01*
X420845Y386295D01*
X420830Y386287D01*
X420813Y386281D01*
X420653Y386191D01*
X420491Y386103D01*
X420478Y386092D01*
X420462Y386083D01*
X420323Y385963D01*
X420182Y385846D01*
X420171Y385832D01*
X420157Y385820D01*
X420045Y385675D01*
X419930Y385532D01*
X419922Y385516D01*
X419911Y385502D01*
X419829Y385337D01*
X419744Y385175D01*
X419739Y385158D01*
X419731Y385142D01*
X419683Y384963D01*
X419633Y384788D01*
X419631Y384770D01*
X419627Y384753D01*
X419600Y384422D01*
X419600Y379523D01*
X419602Y379505D01*
X419600Y379487D01*
X419621Y379305D01*
X419640Y379122D01*
X419645Y379105D01*
X419647Y379088D01*
X419704Y378913D01*
X419758Y378737D01*
X419766Y378722D01*
X419772Y378705D01*
X419862Y378545D01*
X419950Y378383D01*
X419961Y378370D01*
X419970Y378354D01*
X420090Y378215D01*
X420207Y378074D01*
X420221Y378063D01*
X420233Y378049D01*
X420378Y377937D01*
X420521Y377822D01*
X420537Y377814D01*
X420551Y377803D01*
X420716Y377721D01*
X420878Y377636D01*
X420895Y377631D01*
X420911Y377623D01*
X421090Y377576D01*
X421265Y377525D01*
X421283Y377523D01*
X421300Y377519D01*
X421631Y377492D01*
X421982Y377492D01*
X423322Y376152D01*
X423322Y364077D01*
X423273Y363986D01*
X423268Y363969D01*
X423260Y363953D01*
X423211Y363775D01*
X423159Y363600D01*
X423157Y363582D01*
X423152Y363565D01*
X423139Y363382D01*
X423122Y363199D01*
X423124Y363181D01*
X423123Y363164D01*
X423146Y362982D01*
X423166Y362799D01*
X423171Y362782D01*
X423173Y362764D01*
X423231Y362591D01*
X423287Y362415D01*
X423296Y362399D01*
X423301Y362382D01*
X423393Y362223D01*
X423482Y362063D01*
X423493Y362049D01*
X423502Y362034D01*
X423717Y361781D01*
X426573Y358924D01*
X426594Y358907D01*
X426612Y358887D01*
X426750Y358780D01*
X426885Y358669D01*
X426909Y358657D01*
X426930Y358640D01*
X427087Y358562D01*
X427241Y358480D01*
X427266Y358473D01*
X427290Y358461D01*
X427460Y358415D01*
X427627Y358366D01*
X427653Y358363D01*
X427679Y358356D01*
X428010Y358329D01*
X438342Y358329D01*
X439682Y356990D01*
X439682Y354671D01*
X439684Y354645D01*
X439682Y354618D01*
X439704Y354444D01*
X439722Y354271D01*
X439729Y354245D01*
X439733Y354218D01*
X439788Y354053D01*
X439840Y353886D01*
X439853Y353862D01*
X439861Y353837D01*
X439948Y353685D01*
X440032Y353532D01*
X440049Y353511D01*
X440062Y353488D01*
X440277Y353235D01*
X445270Y348242D01*
X445270Y320781D01*
X435853Y311364D01*
X435737Y311248D01*
X435720Y311227D01*
X435699Y311209D01*
X435593Y311072D01*
X435482Y310936D01*
X435469Y310913D01*
X435453Y310891D01*
X435375Y310735D01*
X435293Y310581D01*
X435285Y310555D01*
X435273Y310531D01*
X435228Y310362D01*
X435178Y310195D01*
X435176Y310168D01*
X435169Y310142D01*
X435142Y309811D01*
X435142Y306400D01*
X433802Y305061D01*
X420908Y305061D01*
X419514Y306455D01*
X419464Y306607D01*
X419410Y306783D01*
X419402Y306799D01*
X419396Y306816D01*
X419306Y306976D01*
X419218Y307137D01*
X419207Y307151D01*
X419198Y307166D01*
X419078Y307306D01*
X418961Y307446D01*
X418947Y307458D01*
X418935Y307471D01*
X418790Y307584D01*
X418647Y307699D01*
X418631Y307707D01*
X418617Y307718D01*
X418452Y307800D01*
X418290Y307884D01*
X418273Y307889D01*
X418257Y307897D01*
X418078Y307945D01*
X417903Y307996D01*
X417885Y307997D01*
X417868Y308002D01*
X417537Y308029D01*
X403759Y308029D01*
X403732Y308026D01*
X403705Y308028D01*
X403532Y308006D01*
X403358Y307989D01*
X403333Y307981D01*
X403306Y307978D01*
X403141Y307922D01*
X402973Y307871D01*
X402950Y307858D01*
X402924Y307849D01*
X402773Y307762D01*
X402619Y307679D01*
X402599Y307662D01*
X402575Y307649D01*
X402322Y307434D01*
X399758Y304869D01*
X399752Y304862D01*
X399745Y304857D01*
X399625Y304707D01*
X399503Y304558D01*
X399499Y304550D01*
X399493Y304543D01*
X399405Y304372D01*
X399314Y304202D01*
X399312Y304193D01*
X399308Y304186D01*
X399254Y304001D01*
X399199Y303816D01*
X399199Y303807D01*
X399196Y303799D01*
X399180Y303608D01*
X399163Y303415D01*
X399164Y303406D01*
X399163Y303397D01*
X399185Y303208D01*
X399206Y303015D01*
X399209Y303006D01*
X399210Y302998D01*
X399270Y302816D01*
X399328Y302631D01*
X399332Y302623D01*
X399335Y302615D01*
X399430Y302446D01*
X399523Y302279D01*
X399528Y302272D01*
X399533Y302264D01*
X399659Y302118D01*
X399783Y301972D01*
X399790Y301966D01*
X399796Y301959D01*
X399947Y301842D01*
X400099Y301722D01*
X400107Y301718D01*
X400114Y301713D01*
X400286Y301627D01*
X400458Y301540D01*
X400467Y301537D01*
X400475Y301533D01*
X400661Y301483D01*
X400846Y301432D01*
X400855Y301431D01*
X400863Y301429D01*
X401194Y301402D01*
X415300Y301402D01*
X416639Y300062D01*
X416639Y294168D01*
X415300Y292828D01*
X403258Y292828D01*
X403231Y292826D01*
X403204Y292828D01*
X403030Y292806D01*
X402857Y292788D01*
X402831Y292780D01*
X402805Y292777D01*
X402639Y292721D01*
X402472Y292670D01*
X402448Y292657D01*
X402423Y292649D01*
X402271Y292562D01*
X402118Y292478D01*
X402098Y292461D01*
X402074Y292448D01*
X401821Y292233D01*
X396089Y286501D01*
X396078Y286487D01*
X396064Y286476D01*
X395951Y286332D01*
X395834Y286190D01*
X395826Y286174D01*
X395815Y286160D01*
X395731Y285995D01*
X395645Y285834D01*
X395640Y285817D01*
X395632Y285801D01*
X395583Y285623D01*
X395531Y285448D01*
X395529Y285430D01*
X395524Y285413D01*
X395511Y285230D01*
X395494Y285047D01*
X395496Y285029D01*
X395495Y285011D01*
X395518Y284829D01*
X395538Y284647D01*
X395543Y284630D01*
X395545Y284612D01*
X395604Y284438D01*
X395659Y284263D01*
X395668Y284247D01*
X395673Y284230D01*
X395765Y284071D01*
X395854Y283911D01*
X395865Y283897D01*
X395874Y283881D01*
X396089Y283628D01*
X401721Y277997D01*
X401742Y277980D01*
X401759Y277960D01*
X401897Y277852D01*
X402032Y277742D01*
X402056Y277729D01*
X402077Y277713D01*
X402234Y277635D01*
X402388Y277553D01*
X402414Y277545D01*
X402438Y277533D01*
X402607Y277488D01*
X402774Y277438D01*
X402801Y277436D01*
X402826Y277429D01*
X403157Y277402D01*
X415300Y277402D01*
X416832Y275869D01*
X416846Y275858D01*
X416858Y275844D01*
X417002Y275730D01*
X417144Y275614D01*
X417160Y275606D01*
X417174Y275595D01*
X417338Y275511D01*
X417499Y275425D01*
X417517Y275420D01*
X417533Y275412D01*
X417710Y275363D01*
X417885Y275311D01*
X417903Y275309D01*
X417920Y275304D01*
X418103Y275291D01*
X418286Y275274D01*
X418304Y275276D01*
X418322Y275275D01*
X418504Y275298D01*
X418687Y275318D01*
X418704Y275323D01*
X418721Y275325D01*
X418895Y275384D01*
X419070Y275439D01*
X419086Y275448D01*
X419103Y275453D01*
X419262Y275545D01*
X419423Y275634D01*
X419436Y275646D01*
X419452Y275654D01*
X419705Y275869D01*
X454230Y310395D01*
X454247Y310415D01*
X454268Y310433D01*
X454375Y310571D01*
X454485Y310706D01*
X454498Y310730D01*
X454514Y310751D01*
X454592Y310908D01*
X454674Y311062D01*
X454682Y311087D01*
X454694Y311111D01*
X454739Y311281D01*
X454789Y311448D01*
X454791Y311474D01*
X454798Y311500D01*
X454825Y311831D01*
X454825Y364300D01*
X454823Y364317D01*
X454825Y364335D01*
X454804Y364517D01*
X454785Y364700D01*
X454780Y364717D01*
X454778Y364735D01*
X454721Y364909D01*
X454667Y365085D01*
X454659Y365101D01*
X454653Y365118D01*
X454563Y365278D01*
X454475Y365439D01*
X454464Y365453D01*
X454455Y365468D01*
X454335Y365608D01*
X454218Y365748D01*
X454204Y365760D01*
X454192Y365773D01*
X454047Y365886D01*
X453904Y366001D01*
X453888Y366009D01*
X453874Y366020D01*
X453709Y366102D01*
X453547Y366186D01*
X453530Y366191D01*
X453514Y366199D01*
X453335Y366247D01*
X453160Y366298D01*
X453142Y366299D01*
X453125Y366304D01*
X452794Y366331D01*
X446429Y366331D01*
X440626Y372134D01*
X440626Y380341D01*
X443165Y382880D01*
X443176Y382894D01*
X443190Y382905D01*
X443304Y383050D01*
X443420Y383191D01*
X443428Y383207D01*
X443439Y383221D01*
X443522Y383384D01*
X443608Y383547D01*
X443614Y383564D01*
X443622Y383580D01*
X443671Y383757D01*
X443723Y383933D01*
X443725Y383951D01*
X443730Y383968D01*
X443743Y384151D01*
X443760Y384334D01*
X443758Y384352D01*
X443759Y384370D01*
X443736Y384551D01*
X443716Y384734D01*
X443711Y384751D01*
X443709Y384769D01*
X443650Y384943D01*
X443595Y385118D01*
X443586Y385134D01*
X443580Y385151D01*
X443489Y385310D01*
X443400Y385471D01*
X443388Y385484D01*
X443379Y385500D01*
X443165Y385753D01*
X442339Y386578D01*
X440839Y388079D01*
X440181Y389666D01*
X440181Y402182D01*
X440179Y402209D01*
X440181Y402236D01*
X440159Y402409D01*
X440141Y402583D01*
X440134Y402608D01*
X440130Y402635D01*
X440075Y402801D01*
X440023Y402968D01*
X440010Y402991D01*
X440002Y403017D01*
X439915Y403168D01*
X439831Y403322D01*
X439814Y403342D01*
X439801Y403366D01*
X439586Y403619D01*
X429726Y413479D01*
X429034Y415150D01*
X429019Y415177D01*
X429009Y415207D01*
X428924Y415354D01*
X428844Y415504D01*
X428824Y415529D01*
X428808Y415556D01*
X428594Y415809D01*
X419532Y424871D01*
X419511Y424888D01*
X419493Y424908D01*
X419355Y425015D01*
X419220Y425126D01*
X419196Y425138D01*
X419175Y425155D01*
X419018Y425233D01*
X418864Y425315D01*
X418839Y425322D01*
X418815Y425334D01*
X418645Y425380D01*
X418478Y425429D01*
X418452Y425432D01*
X418426Y425439D01*
X418095Y425466D01*
X411310Y425466D01*
X409971Y426805D01*
X409971Y438700D01*
X411310Y440039D01*
X424205Y440039D01*
X425544Y438700D01*
X425544Y431915D01*
X425547Y431888D01*
X425545Y431861D01*
X425567Y431688D01*
X425584Y431514D01*
X425592Y431489D01*
X425595Y431462D01*
X425651Y431296D01*
X425702Y431129D01*
X425715Y431106D01*
X425724Y431080D01*
X425811Y430929D01*
X425894Y430775D01*
X425911Y430755D01*
X425924Y430731D01*
X426139Y430478D01*
X437049Y419569D01*
X437741Y417898D01*
X437756Y417870D01*
X437766Y417841D01*
X437851Y417693D01*
X437931Y417543D01*
X437951Y417519D01*
X437967Y417492D01*
X438181Y417239D01*
X442866Y412554D01*
X442932Y412500D01*
X442991Y412439D01*
X443087Y412373D01*
X443178Y412299D01*
X443252Y412259D01*
X443322Y412211D01*
X443430Y412165D01*
X443533Y412110D01*
X443614Y412086D01*
X443692Y412053D01*
X443807Y412029D01*
X443919Y411995D01*
X444004Y411988D01*
X444087Y411970D01*
X444203Y411970D01*
X444320Y411959D01*
X444405Y411968D01*
X444489Y411968D01*
X444604Y411990D01*
X444721Y412002D01*
X444801Y412028D01*
X444884Y412044D01*
X444993Y412089D01*
X445104Y412124D01*
X445179Y412165D01*
X445257Y412197D01*
X445354Y412262D01*
X445457Y412319D01*
X445521Y412373D01*
X445592Y412420D01*
X445675Y412503D01*
X445764Y412579D01*
X445816Y412646D01*
X445876Y412706D01*
X445941Y412803D01*
X446013Y412895D01*
X446052Y412971D01*
X446099Y413041D01*
X446143Y413150D01*
X446196Y413254D01*
X446218Y413336D01*
X446250Y413414D01*
X446272Y413529D01*
X446304Y413642D01*
X446310Y413727D01*
X446326Y413810D01*
X446327Y413958D01*
X446333Y414043D01*
X446328Y414086D01*
X446328Y414141D01*
X446299Y414533D01*
X446286Y414608D01*
X446282Y414685D01*
X446251Y414806D01*
X446229Y414929D01*
X446202Y415001D01*
X446183Y415075D01*
X446129Y415188D01*
X446088Y415292D01*
X446154Y416170D01*
X446152Y416238D01*
X446154Y416474D01*
X446088Y417359D01*
X446115Y417404D01*
X446156Y417522D01*
X446207Y417637D01*
X446223Y417711D01*
X446248Y417783D01*
X446274Y417945D01*
X446292Y418030D01*
X446293Y418066D01*
X446300Y418111D01*
X446365Y418976D01*
X446363Y419052D01*
X446371Y419128D01*
X446359Y419253D01*
X446355Y419378D01*
X446339Y419453D01*
X446331Y419529D01*
X446294Y419649D01*
X446270Y419757D01*
X446466Y420616D01*
X446474Y420683D01*
X446511Y420917D01*
X446578Y421801D01*
X446611Y421842D01*
X446670Y421952D01*
X446736Y422058D01*
X446764Y422130D01*
X446800Y422198D01*
X446849Y422353D01*
X446880Y422435D01*
X446886Y422470D01*
X446900Y422514D01*
X447093Y423359D01*
X447102Y423435D01*
X447121Y423509D01*
X447128Y423634D01*
X447143Y423758D01*
X447138Y423835D01*
X447141Y423911D01*
X447123Y424035D01*
X447115Y424146D01*
X447437Y424967D01*
X447455Y425031D01*
X447527Y425257D01*
X447724Y426122D01*
X447763Y426157D01*
X447838Y426257D01*
X447919Y426352D01*
X447957Y426419D01*
X448003Y426480D01*
X448074Y426627D01*
X448117Y426703D01*
X448128Y426737D01*
X448149Y426778D01*
X448466Y427585D01*
X448486Y427659D01*
X448516Y427729D01*
X448541Y427852D01*
X448575Y427972D01*
X448581Y428049D01*
X448596Y428124D01*
X448596Y428249D01*
X448605Y428360D01*
X449045Y429123D01*
X449073Y429184D01*
X449177Y429397D01*
X449502Y430223D01*
X449545Y430251D01*
X449634Y430340D01*
X449729Y430421D01*
X449776Y430482D01*
X449830Y430536D01*
X449923Y430670D01*
X449977Y430739D01*
X449993Y430771D01*
X450019Y430809D01*
X450453Y431559D01*
X450484Y431629D01*
X450524Y431694D01*
X450567Y431812D01*
X450619Y431926D01*
X450636Y432000D01*
X450662Y432072D01*
X450681Y432196D01*
X450706Y432305D01*
X451256Y432994D01*
X451292Y433051D01*
X451427Y433245D01*
X451871Y434013D01*
X451918Y434035D01*
X452019Y434109D01*
X452125Y434176D01*
X452181Y434228D01*
X452242Y434274D01*
X452342Y434379D01*
X452359Y434394D01*
X452370Y434407D01*
X452418Y434452D01*
X452438Y434482D01*
X452470Y434515D01*
X453010Y435193D01*
X453052Y435257D01*
X453101Y435316D01*
X453161Y435425D01*
X453229Y435531D01*
X453257Y435602D01*
X453294Y435669D01*
X453331Y435789D01*
X453372Y435893D01*
X454018Y436492D01*
X454062Y436542D01*
X454225Y436714D01*
X454778Y437408D01*
X454828Y437422D01*
X454939Y437481D01*
X455054Y437531D01*
X455116Y437574D01*
X455184Y437610D01*
X455313Y437711D01*
X455384Y437761D01*
X455409Y437787D01*
X455445Y437815D01*
X456081Y438405D01*
X456107Y438435D01*
X456133Y438456D01*
X456153Y438481D01*
X456189Y438512D01*
X456264Y438612D01*
X456348Y438706D01*
X456381Y438764D01*
X456386Y438770D01*
X456389Y438777D01*
X456432Y438833D01*
X456486Y438946D01*
X456543Y439043D01*
X457271Y439539D01*
X457322Y439582D01*
X457508Y439728D01*
X458159Y440332D01*
X458213Y440339D01*
X458330Y440380D01*
X458450Y440412D01*
X458520Y440446D01*
X458593Y440472D01*
X458725Y440547D01*
X458790Y440578D01*
X458797Y440583D01*
X458811Y440590D01*
X458840Y440613D01*
X458882Y440636D01*
X458890Y440642D01*
X458999Y440733D01*
X459113Y440818D01*
X459126Y440833D01*
X459130Y440836D01*
X459153Y440863D01*
X459198Y440901D01*
X459287Y441012D01*
X459382Y441118D01*
X459412Y441169D01*
X459449Y441216D01*
X459514Y441342D01*
X459587Y441465D01*
X459606Y441521D01*
X459633Y441574D01*
X459672Y441711D01*
X459719Y441845D01*
X459727Y441904D01*
X459743Y441961D01*
X459754Y442103D01*
X459774Y442244D01*
X459770Y442303D01*
X459774Y442362D01*
X459757Y442504D01*
X459749Y442646D01*
X459733Y442703D01*
X459726Y442762D01*
X459681Y442897D01*
X459645Y443035D01*
X459616Y443096D01*
X459600Y443144D01*
X459559Y443216D01*
X459503Y443335D01*
X441761Y474065D01*
X442389Y474361D01*
X442411Y474378D01*
X442438Y474388D01*
X442490Y474437D01*
X442548Y474480D01*
X442562Y474505D01*
X442583Y474525D01*
X442612Y474590D01*
X442648Y474652D01*
X442651Y474681D01*
X442663Y474707D01*
X442664Y474779D01*
X442673Y474849D01*
X442665Y474877D01*
X442666Y474906D01*
X442630Y475000D01*
X442619Y475041D01*
X442612Y475049D01*
X442608Y475062D01*
X433108Y491562D01*
X433056Y491620D01*
X433010Y491683D01*
X432991Y491694D01*
X432976Y491711D01*
X432906Y491744D01*
X432839Y491784D01*
X432815Y491788D01*
X432797Y491797D01*
X432752Y491799D01*
X432675Y491812D01*
X413675Y491812D01*
X413647Y491806D01*
X413619Y491809D01*
X413551Y491786D01*
X413480Y491772D01*
X413457Y491756D01*
X413430Y491747D01*
X413375Y491700D01*
X413316Y491660D01*
X413301Y491636D01*
X413280Y491617D01*
X413248Y491553D01*
X413209Y491492D01*
X413204Y491464D01*
X413192Y491439D01*
X413183Y491337D01*
X413176Y491296D01*
X413178Y491286D01*
X413177Y491273D01*
X413234Y490558D01*
X377698Y490558D01*
X377554Y490543D01*
X377410Y490537D01*
X377354Y490524D01*
X377297Y490518D01*
X377159Y490476D01*
X377019Y490441D01*
X376967Y490417D01*
X376912Y490400D01*
X376785Y490331D01*
X376655Y490270D01*
X376609Y490235D01*
X376558Y490208D01*
X376448Y490116D01*
X376332Y490030D01*
X376293Y489987D01*
X376249Y489950D01*
X376158Y489838D01*
X376062Y489731D01*
X376033Y489681D01*
X375997Y489636D01*
X375930Y489508D01*
X375857Y489384D01*
X375838Y489330D01*
X375811Y489279D01*
X375771Y489141D01*
X375723Y489004D01*
X375713Y488940D01*
X375700Y488892D01*
X375693Y488809D01*
X375672Y488677D01*
X375671Y488659D01*
X375673Y488584D01*
X375665Y488508D01*
X375667Y488492D01*
X375667Y488491D01*
X375668Y488483D01*
X375678Y488383D01*
X375681Y488257D01*
X375698Y488183D01*
X375705Y488108D01*
X375742Y487987D01*
X375767Y487880D01*
X375571Y487020D01*
X375567Y486988D01*
X375560Y486964D01*
X375555Y486909D01*
X375525Y486720D01*
X375459Y485835D01*
X375426Y485795D01*
X375367Y485684D01*
X375301Y485578D01*
X375273Y485507D01*
X375238Y485439D01*
X375188Y485284D01*
X375157Y485202D01*
X375151Y485166D01*
X375138Y485123D01*
X374945Y484280D01*
X374936Y484204D01*
X374917Y484130D01*
X374910Y484005D01*
X374895Y483880D01*
X374900Y483804D01*
X374897Y483727D01*
X374915Y483604D01*
X374923Y483492D01*
X374601Y482672D01*
X374583Y482608D01*
X374512Y482382D01*
X374315Y481517D01*
X374276Y481482D01*
X374201Y481381D01*
X374120Y481286D01*
X374082Y481220D01*
X374036Y481158D01*
X373965Y481012D01*
X373922Y480936D01*
X373911Y480901D01*
X373890Y480860D01*
X373574Y480055D01*
X373554Y479982D01*
X373524Y479911D01*
X373499Y479789D01*
X373465Y479668D01*
X373459Y479591D01*
X373444Y479517D01*
X373444Y479391D01*
X373436Y479280D01*
X372995Y478517D01*
X372967Y478456D01*
X372863Y478243D01*
X372539Y477417D01*
X372496Y477389D01*
X372407Y477300D01*
X372312Y477219D01*
X372265Y477158D01*
X372211Y477104D01*
X372118Y476970D01*
X372064Y476901D01*
X372048Y476869D01*
X372022Y476831D01*
X371590Y476082D01*
X371558Y476013D01*
X371518Y475947D01*
X371475Y475830D01*
X371424Y475716D01*
X371407Y475641D01*
X371380Y475569D01*
X371362Y475445D01*
X371337Y475337D01*
X370787Y474648D01*
X370751Y474591D01*
X370616Y474397D01*
X370173Y473628D01*
X370125Y473606D01*
X370024Y473532D01*
X369918Y473466D01*
X369863Y473413D01*
X369801Y473368D01*
X369689Y473249D01*
X369626Y473189D01*
X369605Y473159D01*
X369574Y473126D01*
X369035Y472450D01*
X368993Y472385D01*
X368944Y472327D01*
X368884Y472217D01*
X368816Y472112D01*
X368788Y472040D01*
X368751Y471973D01*
X368714Y471854D01*
X368673Y471750D01*
X368028Y471151D01*
X367983Y471100D01*
X367821Y470928D01*
X367268Y470234D01*
X367218Y470220D01*
X367107Y470161D01*
X366992Y470111D01*
X366929Y470067D01*
X366862Y470032D01*
X366733Y469931D01*
X366662Y469881D01*
X366637Y469855D01*
X366601Y469827D01*
X365967Y469239D01*
X365916Y469181D01*
X365859Y469131D01*
X365783Y469031D01*
X365700Y468937D01*
X365662Y468871D01*
X365616Y468810D01*
X365561Y468697D01*
X365505Y468600D01*
X364777Y468104D01*
X364726Y468061D01*
X364540Y467915D01*
X363889Y467311D01*
X363838Y467304D01*
X363720Y467263D01*
X363598Y467230D01*
X363530Y467197D01*
X363458Y467171D01*
X363316Y467091D01*
X363237Y467052D01*
X363209Y467030D01*
X363169Y467007D01*
X362455Y466520D01*
X362396Y466471D01*
X362332Y466430D01*
X362242Y466342D01*
X362146Y466262D01*
X362098Y466202D01*
X362044Y466148D01*
X361973Y466045D01*
X361903Y465958D01*
X361894Y465954D01*
X361752Y465867D01*
X361607Y465785D01*
X361580Y465762D01*
X361551Y465744D01*
X361428Y465631D01*
X361302Y465522D01*
X361281Y465494D01*
X361255Y465470D01*
X361157Y465335D01*
X361055Y465204D01*
X361040Y465172D01*
X361019Y465144D01*
X360950Y464993D01*
X360876Y464843D01*
X360867Y464809D01*
X360852Y464778D01*
X360815Y464615D01*
X360771Y464454D01*
X360768Y464415D01*
X360761Y464386D01*
X360759Y464299D01*
X360744Y464124D01*
X360744Y410302D01*
X360747Y410276D01*
X360745Y410249D01*
X360767Y410075D01*
X360784Y409902D01*
X360792Y409876D01*
X360795Y409849D01*
X360851Y409684D01*
X360902Y409517D01*
X360915Y409493D01*
X360924Y409468D01*
X361011Y409316D01*
X361094Y409163D01*
X361111Y409142D01*
X361124Y409119D01*
X361339Y408866D01*
X381834Y388371D01*
X381834Y344326D01*
X374559Y337051D01*
X374542Y337030D01*
X374521Y337013D01*
X374414Y336875D01*
X374304Y336739D01*
X374291Y336716D01*
X374275Y336694D01*
X374197Y336538D01*
X374115Y336384D01*
X374107Y336358D01*
X374095Y336334D01*
X374050Y336165D01*
X374000Y335998D01*
X373998Y335971D01*
X373991Y335945D01*
X373964Y335614D01*
X373964Y324808D01*
X372624Y323468D01*
X316738Y323468D01*
X316720Y323466D01*
X316702Y323468D01*
X316520Y323447D01*
X316337Y323428D01*
X316320Y323423D01*
X316303Y323421D01*
X316128Y323364D01*
X315952Y323310D01*
X315937Y323302D01*
X315920Y323296D01*
X315760Y323206D01*
X315598Y323118D01*
X315585Y323107D01*
X315569Y323098D01*
X315430Y322978D01*
X315289Y322861D01*
X315278Y322847D01*
X315264Y322835D01*
X315152Y322690D01*
X315037Y322547D01*
X315029Y322531D01*
X315018Y322517D01*
X314936Y322352D01*
X314851Y322190D01*
X314846Y322173D01*
X314838Y322157D01*
X314791Y321978D01*
X314740Y321803D01*
X314738Y321785D01*
X314734Y321768D01*
X314707Y321437D01*
X314707Y295559D01*
X313359Y294211D01*
X313347Y294197D01*
X313334Y294185D01*
X313220Y294041D01*
X313104Y293899D01*
X313095Y293884D01*
X313084Y293870D01*
X313001Y293705D01*
X312915Y293544D01*
X312910Y293527D01*
X312902Y293511D01*
X312852Y293333D01*
X312800Y293158D01*
X312799Y293140D01*
X312794Y293123D01*
X312780Y292940D01*
X312764Y292757D01*
X312766Y292739D01*
X312764Y292721D01*
X312787Y292539D01*
X312807Y292356D01*
X312813Y292339D01*
X312815Y292322D01*
X312873Y292148D01*
X312929Y291973D01*
X312937Y291957D01*
X312943Y291940D01*
X313035Y291781D01*
X313124Y291620D01*
X313135Y291607D01*
X313144Y291591D01*
X313359Y291338D01*
X314707Y289990D01*
X314707Y270552D01*
X313367Y269212D01*
X305246Y269212D01*
X305220Y269210D01*
X305193Y269212D01*
X305019Y269190D01*
X304846Y269172D01*
X304820Y269165D01*
X304793Y269161D01*
X304628Y269106D01*
X304461Y269054D01*
X304437Y269041D01*
X304412Y269033D01*
X304260Y268946D01*
X304107Y268862D01*
X304086Y268845D01*
X304063Y268832D01*
X303810Y268617D01*
X302602Y267409D01*
X302585Y267388D01*
X302564Y267371D01*
X302457Y267233D01*
X302347Y267098D01*
X302334Y267074D01*
X302318Y267053D01*
X302240Y266896D01*
X302158Y266742D01*
X302150Y266716D01*
X302138Y266692D01*
X302093Y266523D01*
X302043Y266356D01*
X302041Y266329D01*
X302034Y266304D01*
X302007Y265973D01*
X302007Y261455D01*
X302009Y261428D01*
X302007Y261401D01*
X302029Y261227D01*
X302047Y261054D01*
X302054Y261028D01*
X302058Y261002D01*
X302113Y260836D01*
X302165Y260669D01*
X302178Y260645D01*
X302186Y260620D01*
X302273Y260469D01*
X302357Y260315D01*
X302374Y260295D01*
X302387Y260271D01*
X302602Y260018D01*
X303595Y259025D01*
X304519Y256795D01*
X304519Y254380D01*
X303595Y252150D01*
X301888Y250443D01*
X299657Y249519D01*
X297243Y249519D01*
X295012Y250443D01*
X293305Y252150D01*
X292381Y254380D01*
X292381Y256795D01*
X293305Y259025D01*
X294298Y260018D01*
X294315Y260039D01*
X294336Y260056D01*
X294443Y260194D01*
X294553Y260330D01*
X294566Y260353D01*
X294582Y260375D01*
X294660Y260532D01*
X294742Y260686D01*
X294750Y260711D01*
X294762Y260735D01*
X294807Y260905D01*
X294857Y261071D01*
X294859Y261098D01*
X294866Y261124D01*
X294893Y261455D01*
X294893Y269761D01*
X297572Y272439D01*
X298171Y273039D01*
X298177Y273046D01*
X298184Y273051D01*
X298304Y273201D01*
X298426Y273350D01*
X298430Y273358D01*
X298436Y273365D01*
X298524Y273535D01*
X298615Y273706D01*
X298618Y273715D01*
X298622Y273722D01*
X298674Y273906D01*
X298730Y274092D01*
X298731Y274101D01*
X298733Y274109D01*
X298749Y274300D01*
X298766Y274493D01*
X298765Y274502D01*
X298766Y274511D01*
X298744Y274700D01*
X298723Y274893D01*
X298720Y274902D01*
X298719Y274910D01*
X298659Y275093D01*
X298601Y275277D01*
X298597Y275285D01*
X298594Y275293D01*
X298499Y275462D01*
X298406Y275629D01*
X298401Y275636D01*
X298396Y275644D01*
X298271Y275789D01*
X298146Y275936D01*
X298139Y275942D01*
X298133Y275949D01*
X297983Y276065D01*
X297830Y276186D01*
X297822Y276190D01*
X297815Y276195D01*
X297642Y276281D01*
X297471Y276368D01*
X297463Y276371D01*
X297454Y276375D01*
X297266Y276425D01*
X297083Y276476D01*
X297074Y276477D01*
X297066Y276479D01*
X296735Y276506D01*
X294068Y276506D01*
X291837Y277430D01*
X290130Y279137D01*
X289206Y281368D01*
X289206Y283782D01*
X290130Y286013D01*
X291837Y287720D01*
X292108Y287832D01*
X292136Y287847D01*
X292166Y287857D01*
X292313Y287942D01*
X292463Y288022D01*
X292487Y288042D01*
X292514Y288058D01*
X292767Y288272D01*
X294396Y289901D01*
X294397Y289902D01*
X295247Y290752D01*
X295252Y290759D01*
X295259Y290764D01*
X295379Y290913D01*
X295502Y291063D01*
X295506Y291071D01*
X295512Y291078D01*
X295599Y291247D01*
X295690Y291419D01*
X295693Y291428D01*
X295697Y291435D01*
X295749Y291617D01*
X295805Y291805D01*
X295806Y291814D01*
X295808Y291822D01*
X295824Y292013D01*
X295842Y292206D01*
X295841Y292215D01*
X295841Y292224D01*
X295819Y292413D01*
X295798Y292606D01*
X295795Y292615D01*
X295794Y292623D01*
X295735Y292806D01*
X295677Y292990D01*
X295672Y292998D01*
X295670Y293006D01*
X295575Y293175D01*
X295482Y293342D01*
X295476Y293349D01*
X295472Y293357D01*
X295345Y293503D01*
X295221Y293649D01*
X295214Y293655D01*
X295209Y293662D01*
X295056Y293780D01*
X294905Y293899D01*
X294898Y293903D01*
X294890Y293908D01*
X294717Y293995D01*
X294547Y294081D01*
X294538Y294084D01*
X294530Y294088D01*
X294341Y294138D01*
X294159Y294189D01*
X294150Y294190D01*
X294141Y294192D01*
X293810Y294219D01*
X289145Y294219D01*
X289128Y294217D01*
X289110Y294219D01*
X288928Y294198D01*
X288745Y294179D01*
X288728Y294174D01*
X288710Y294172D01*
X288536Y294115D01*
X288360Y294061D01*
X288344Y294053D01*
X288327Y294047D01*
X288167Y293957D01*
X288006Y293869D01*
X287992Y293858D01*
X287977Y293849D01*
X287837Y293729D01*
X287697Y293612D01*
X287685Y293598D01*
X287672Y293586D01*
X287559Y293441D01*
X287444Y293298D01*
X287436Y293282D01*
X287425Y293268D01*
X287343Y293102D01*
X287259Y292941D01*
X287254Y292924D01*
X287246Y292908D01*
X287198Y292729D01*
X287147Y292554D01*
X287146Y292536D01*
X287141Y292519D01*
X287114Y292188D01*
X287114Y289645D01*
X285775Y288306D01*
X285677Y288306D01*
X285660Y288304D01*
X285642Y288305D01*
X285460Y288284D01*
X285277Y288266D01*
X285260Y288261D01*
X285242Y288259D01*
X285068Y288202D01*
X284892Y288148D01*
X284876Y288139D01*
X284859Y288134D01*
X284699Y288043D01*
X284538Y287956D01*
X284524Y287945D01*
X284509Y287936D01*
X284369Y287816D01*
X284229Y287698D01*
X284217Y287684D01*
X284204Y287673D01*
X284091Y287528D01*
X283976Y287384D01*
X283968Y287369D01*
X283957Y287355D01*
X283875Y287190D01*
X283791Y287027D01*
X283786Y287010D01*
X283778Y286994D01*
X283730Y286816D01*
X283679Y286640D01*
X283678Y286622D01*
X283673Y286605D01*
X283646Y286275D01*
X283646Y277647D01*
X283649Y277620D01*
X283647Y277593D01*
X283669Y277419D01*
X283686Y277246D01*
X283694Y277220D01*
X283697Y277194D01*
X283753Y277028D01*
X283804Y276861D01*
X283817Y276837D01*
X283826Y276812D01*
X283913Y276660D01*
X283996Y276507D01*
X284013Y276487D01*
X284026Y276463D01*
X284241Y276210D01*
X284669Y275782D01*
X284669Y258888D01*
X283330Y257548D01*
X268435Y257548D01*
X267096Y258888D01*
X267096Y275782D01*
X268435Y277122D01*
X272978Y277122D01*
X272995Y277124D01*
X273013Y277122D01*
X273195Y277143D01*
X273378Y277162D01*
X273395Y277167D01*
X273413Y277169D01*
X273587Y277226D01*
X273763Y277280D01*
X273779Y277288D01*
X273796Y277294D01*
X273956Y277384D01*
X274117Y277472D01*
X274131Y277483D01*
X274146Y277492D01*
X274286Y277612D01*
X274426Y277729D01*
X274438Y277743D01*
X274451Y277755D01*
X274564Y277900D01*
X274679Y278043D01*
X274687Y278059D01*
X274698Y278073D01*
X274780Y278238D01*
X274864Y278400D01*
X274869Y278417D01*
X274877Y278433D01*
X274925Y278612D01*
X274976Y278787D01*
X274977Y278805D01*
X274982Y278822D01*
X275009Y279153D01*
X275009Y286275D01*
X275007Y286292D01*
X275008Y286310D01*
X274987Y286492D01*
X274969Y286675D01*
X274964Y286692D01*
X274962Y286710D01*
X274905Y286884D01*
X274851Y287060D01*
X274842Y287076D01*
X274837Y287093D01*
X274746Y287253D01*
X274659Y287414D01*
X274648Y287428D01*
X274639Y287443D01*
X274519Y287583D01*
X274401Y287723D01*
X274387Y287735D01*
X274376Y287748D01*
X274231Y287861D01*
X274087Y287976D01*
X274072Y287984D01*
X274058Y287995D01*
X273893Y288077D01*
X273730Y288161D01*
X273713Y288166D01*
X273697Y288174D01*
X273519Y288222D01*
X273343Y288273D01*
X273325Y288274D01*
X273308Y288279D01*
X272978Y288306D01*
X272880Y288306D01*
X271541Y289645D01*
X271541Y301540D01*
X272880Y302879D01*
X273232Y302879D01*
X273249Y302881D01*
X273267Y302880D01*
X273449Y302901D01*
X273632Y302919D01*
X273649Y302924D01*
X273667Y302926D01*
X273841Y302983D01*
X274017Y303037D01*
X274033Y303046D01*
X274050Y303051D01*
X274210Y303142D01*
X274371Y303229D01*
X274385Y303240D01*
X274400Y303249D01*
X274540Y303369D01*
X274680Y303487D01*
X274692Y303501D01*
X274705Y303512D01*
X274818Y303657D01*
X274933Y303801D01*
X274941Y303816D01*
X274952Y303830D01*
X275034Y303995D01*
X275118Y304158D01*
X275123Y304175D01*
X275131Y304191D01*
X275179Y304369D01*
X275230Y304545D01*
X275231Y304563D01*
X275236Y304580D01*
X275263Y304910D01*
X275263Y305536D01*
X275353Y305753D01*
X275360Y305779D01*
X275372Y305803D01*
X275419Y305972D01*
X275469Y306138D01*
X275472Y306165D01*
X275479Y306191D01*
X275491Y306365D01*
X275507Y306539D01*
X275505Y306566D01*
X275506Y306593D01*
X275484Y306766D01*
X275466Y306940D01*
X275458Y306965D01*
X275454Y306992D01*
X275353Y307308D01*
X274919Y308355D01*
X274919Y310770D01*
X274965Y310881D01*
X274969Y310893D01*
X274975Y310905D01*
X275027Y311087D01*
X275081Y311266D01*
X275082Y311279D01*
X275086Y311292D01*
X275102Y311481D01*
X275119Y311667D01*
X275118Y311680D01*
X275119Y311694D01*
X275097Y311880D01*
X275078Y312067D01*
X275074Y312080D01*
X275072Y312093D01*
X275014Y312272D01*
X274958Y312452D01*
X274952Y312463D01*
X274947Y312476D01*
X274854Y312641D01*
X274765Y312805D01*
X274756Y312815D01*
X274749Y312827D01*
X274627Y312969D01*
X274506Y313113D01*
X274495Y313121D01*
X274486Y313132D01*
X274338Y313246D01*
X274191Y313364D01*
X274179Y313370D01*
X274168Y313378D01*
X274000Y313462D01*
X273833Y313548D01*
X273820Y313552D01*
X273808Y313558D01*
X273626Y313607D01*
X273445Y313658D01*
X273432Y313659D01*
X273419Y313662D01*
X273088Y313689D01*
X265932Y313689D01*
X265906Y313687D01*
X265879Y313689D01*
X265705Y313667D01*
X265532Y313649D01*
X265506Y313642D01*
X265480Y313638D01*
X265314Y313583D01*
X265147Y313531D01*
X265123Y313518D01*
X265098Y313510D01*
X264946Y313423D01*
X264793Y313339D01*
X264772Y313322D01*
X264749Y313309D01*
X264496Y313094D01*
X239303Y287901D01*
X239262Y287852D01*
X239215Y287808D01*
X239135Y287696D01*
X239048Y287590D01*
X239018Y287533D01*
X238980Y287481D01*
X238924Y287355D01*
X238859Y287234D01*
X238841Y287173D01*
X238815Y287114D01*
X238793Y287020D01*
X238791Y287015D01*
X238786Y286991D01*
X238784Y286980D01*
X238745Y286848D01*
X238739Y286784D01*
X238724Y286722D01*
X238721Y286642D01*
X238716Y286619D01*
X238717Y286562D01*
X238716Y286532D01*
X238708Y286447D01*
X238711Y286422D01*
X238710Y286390D01*
X238710Y286369D01*
X238721Y286293D01*
X238722Y286216D01*
X238745Y286108D01*
X238752Y286047D01*
X238757Y286031D01*
X238765Y285970D01*
X238790Y285898D01*
X238806Y285823D01*
X238856Y285708D01*
X238897Y285590D01*
X238936Y285524D01*
X238967Y285453D01*
X239057Y285318D01*
X239102Y285243D01*
X239126Y285216D01*
X239152Y285178D01*
X239692Y284500D01*
X239745Y284445D01*
X239792Y284384D01*
X239885Y284301D01*
X239973Y284212D01*
X240036Y284168D01*
X240093Y284118D01*
X240202Y284055D01*
X240294Y283992D01*
X240734Y283229D01*
X240773Y283174D01*
X240905Y282978D01*
X241458Y282284D01*
X241461Y282232D01*
X241494Y282111D01*
X241517Y281988D01*
X241545Y281917D01*
X241565Y281843D01*
X241635Y281695D01*
X241667Y281614D01*
X241687Y281584D01*
X241707Y281543D01*
X242140Y280792D01*
X242185Y280730D01*
X242221Y280663D01*
X242302Y280567D01*
X242375Y280465D01*
X242431Y280413D01*
X242480Y280354D01*
X242578Y280276D01*
X242659Y280200D01*
X242981Y279379D01*
X243012Y279320D01*
X243113Y279106D01*
X243556Y278337D01*
X243552Y278285D01*
X243565Y278161D01*
X243570Y278036D01*
X243588Y277961D01*
X243596Y277885D01*
X243643Y277729D01*
X243663Y277644D01*
X243678Y277611D01*
X243692Y277567D01*
X244008Y276760D01*
X244043Y276692D01*
X244069Y276620D01*
X244134Y276514D01*
X244191Y276402D01*
X244239Y276342D01*
X244279Y276277D01*
X244364Y276185D01*
X244433Y276097D01*
X244629Y275238D01*
X244651Y275174D01*
X244719Y274948D01*
X245043Y274122D01*
X245030Y274071D01*
X245025Y273946D01*
X245011Y273822D01*
X245018Y273745D01*
X245015Y273669D01*
X245038Y273507D01*
X245045Y273420D01*
X245055Y273386D01*
X245062Y273340D01*
X245254Y272495D01*
X245279Y272423D01*
X245294Y272348D01*
X245343Y272232D01*
X245382Y272114D01*
X245420Y272047D01*
X245450Y271977D01*
X245521Y271873D01*
X245576Y271776D01*
X245642Y270898D01*
X245653Y270831D01*
X245687Y270597D01*
X245884Y269732D01*
X245864Y269684D01*
X245841Y269561D01*
X245808Y269440D01*
X245803Y269364D01*
X245789Y269288D01*
X245788Y269125D01*
X245782Y269038D01*
X245787Y269003D01*
X245787Y268957D01*
X245851Y268092D01*
X245864Y268017D01*
X245868Y267940D01*
X245899Y267819D01*
X245921Y267696D01*
X245948Y267624D01*
X245967Y267550D01*
X246022Y267437D01*
X246062Y267333D01*
X245996Y266455D01*
X245998Y266387D01*
X245996Y266151D01*
X246062Y265266D01*
X246035Y265221D01*
X245994Y265103D01*
X245943Y264988D01*
X245927Y264914D01*
X245902Y264842D01*
X245876Y264680D01*
X245858Y264595D01*
X245857Y264559D01*
X245850Y264514D01*
X245785Y263649D01*
X245787Y263573D01*
X245779Y263497D01*
X245791Y263372D01*
X245795Y263247D01*
X245811Y263172D01*
X245819Y263096D01*
X245856Y262976D01*
X245880Y262868D01*
X245684Y262009D01*
X245676Y261942D01*
X245639Y261708D01*
X245572Y260823D01*
X245539Y260783D01*
X245480Y260672D01*
X245414Y260566D01*
X245386Y260495D01*
X245351Y260427D01*
X245301Y260272D01*
X245270Y260190D01*
X245264Y260155D01*
X245250Y260111D01*
X245057Y259266D01*
X245048Y259190D01*
X245029Y259116D01*
X245022Y258991D01*
X245007Y258867D01*
X245012Y258790D01*
X245009Y258714D01*
X245027Y258590D01*
X245035Y258479D01*
X244713Y257658D01*
X244695Y257594D01*
X244623Y257368D01*
X244426Y256503D01*
X244387Y256468D01*
X244312Y256368D01*
X244231Y256273D01*
X244193Y256206D01*
X244147Y256145D01*
X244076Y255998D01*
X244033Y255922D01*
X244022Y255888D01*
X244001Y255847D01*
X243684Y255040D01*
X243664Y254966D01*
X243634Y254896D01*
X243609Y254773D01*
X243575Y254653D01*
X243569Y254576D01*
X243554Y254501D01*
X243554Y254376D01*
X243545Y254265D01*
X243105Y253502D01*
X243077Y253441D01*
X242973Y253228D01*
X242648Y252402D01*
X242605Y252374D01*
X242516Y252285D01*
X242421Y252204D01*
X242374Y252143D01*
X242320Y252089D01*
X242227Y251955D01*
X242173Y251886D01*
X242157Y251854D01*
X242131Y251816D01*
X241697Y251066D01*
X241666Y250996D01*
X241626Y250931D01*
X241583Y250813D01*
X241531Y250699D01*
X241514Y250625D01*
X241488Y250553D01*
X241469Y250429D01*
X241444Y250320D01*
X240894Y249631D01*
X240858Y249575D01*
X240723Y249380D01*
X240279Y248612D01*
X240232Y248590D01*
X240131Y248516D01*
X240025Y248449D01*
X239969Y248397D01*
X239908Y248351D01*
X239796Y248233D01*
X239732Y248173D01*
X239712Y248143D01*
X239680Y248110D01*
X239140Y247432D01*
X239098Y247368D01*
X239049Y247309D01*
X238989Y247200D01*
X238921Y247094D01*
X238893Y247023D01*
X238856Y246956D01*
X238819Y246836D01*
X238778Y246732D01*
X238132Y246133D01*
X238088Y246083D01*
X237925Y245911D01*
X237372Y245217D01*
X237322Y245203D01*
X237211Y245144D01*
X237096Y245094D01*
X237033Y245051D01*
X236966Y245015D01*
X236837Y244914D01*
X236766Y244864D01*
X236741Y244838D01*
X236705Y244810D01*
X236069Y244220D01*
X236019Y244163D01*
X235961Y244113D01*
X235886Y244013D01*
X235803Y243919D01*
X235764Y243853D01*
X235718Y243792D01*
X235664Y243679D01*
X235607Y243582D01*
X234879Y243086D01*
X234828Y243043D01*
X234642Y242897D01*
X233991Y242294D01*
X233938Y242286D01*
X233821Y242245D01*
X233700Y242213D01*
X233631Y242179D01*
X233558Y242154D01*
X233425Y242078D01*
X233360Y242047D01*
X233352Y242041D01*
X233339Y242035D01*
X233310Y242013D01*
X233270Y241990D01*
X233262Y241984D01*
X233152Y241892D01*
X233037Y241807D01*
X233024Y241792D01*
X233020Y241789D01*
X232997Y241762D01*
X232953Y241725D01*
X232864Y241614D01*
X232768Y241507D01*
X232738Y241457D01*
X232702Y241411D01*
X232636Y241284D01*
X232563Y241160D01*
X232544Y241105D01*
X232517Y241053D01*
X232478Y240915D01*
X232431Y240780D01*
X232423Y240722D01*
X232407Y240666D01*
X232396Y240523D01*
X232376Y240381D01*
X232380Y240323D01*
X232376Y240264D01*
X232393Y240122D01*
X232402Y239979D01*
X232417Y239923D01*
X232424Y239865D01*
X232468Y239729D01*
X232505Y239590D01*
X232534Y239530D01*
X232550Y239482D01*
X232591Y239410D01*
X232647Y239290D01*
X250389Y208560D01*
X249762Y208264D01*
X249739Y208247D01*
X249712Y208237D01*
X249660Y208188D01*
X249602Y208145D01*
X249588Y208120D01*
X249567Y208100D01*
X249538Y208035D01*
X249502Y207973D01*
X249499Y207945D01*
X249487Y207918D01*
X249486Y207846D01*
X249477Y207776D01*
X249485Y207748D01*
X249485Y207719D01*
X249520Y207625D01*
X249531Y207584D01*
X249538Y207576D01*
X249542Y207563D01*
X259042Y191063D01*
X259094Y191005D01*
X259140Y190942D01*
X259159Y190931D01*
X259174Y190914D01*
X259244Y190881D01*
X259311Y190841D01*
X259336Y190837D01*
X259353Y190828D01*
X259398Y190826D01*
X259475Y190813D01*
X278475Y190813D01*
X278503Y190819D01*
G37*
G36*
X311981Y380077D02*
X311981Y380077D01*
X311990Y380077D01*
X312179Y380099D01*
X312372Y380120D01*
X312381Y380122D01*
X312390Y380123D01*
X312572Y380183D01*
X312756Y380241D01*
X312764Y380246D01*
X312772Y380248D01*
X312941Y380343D01*
X313108Y380436D01*
X313115Y380442D01*
X313123Y380446D01*
X313269Y380572D01*
X313415Y380697D01*
X313421Y380704D01*
X313428Y380709D01*
X313545Y380861D01*
X313665Y381012D01*
X313669Y381020D01*
X313675Y381027D01*
X313760Y381200D01*
X313847Y381371D01*
X313850Y381380D01*
X313854Y381388D01*
X313904Y381574D01*
X313955Y381759D01*
X313956Y381768D01*
X313958Y381777D01*
X313986Y382108D01*
X313986Y394420D01*
X315406Y395840D01*
X315423Y395861D01*
X315443Y395878D01*
X315550Y396016D01*
X315661Y396151D01*
X315673Y396175D01*
X315690Y396196D01*
X315768Y396353D01*
X315850Y396507D01*
X315857Y396533D01*
X315869Y396557D01*
X315915Y396726D01*
X315964Y396893D01*
X315967Y396920D01*
X315974Y396946D01*
X316001Y397276D01*
X316001Y404910D01*
X317340Y406249D01*
X329235Y406249D01*
X330351Y405133D01*
X330365Y405121D01*
X330377Y405108D01*
X330521Y404994D01*
X330663Y404878D01*
X330678Y404869D01*
X330692Y404858D01*
X330857Y404775D01*
X331018Y404689D01*
X331035Y404684D01*
X331051Y404676D01*
X331229Y404626D01*
X331404Y404574D01*
X331422Y404573D01*
X331439Y404568D01*
X331622Y404554D01*
X331805Y404538D01*
X331823Y404540D01*
X331841Y404538D01*
X332023Y404561D01*
X332206Y404581D01*
X332223Y404587D01*
X332240Y404589D01*
X332414Y404647D01*
X332589Y404703D01*
X332605Y404711D01*
X332622Y404717D01*
X332781Y404809D01*
X332942Y404898D01*
X332955Y404909D01*
X332971Y404918D01*
X333224Y405133D01*
X334407Y406316D01*
X334518Y406352D01*
X334698Y406407D01*
X334710Y406414D01*
X334723Y406418D01*
X334887Y406509D01*
X335052Y406599D01*
X335063Y406608D01*
X335074Y406614D01*
X335217Y406736D01*
X335362Y406857D01*
X335370Y406867D01*
X335380Y406876D01*
X335496Y407024D01*
X335614Y407171D01*
X335620Y407182D01*
X335629Y407193D01*
X335713Y407362D01*
X335800Y407528D01*
X335803Y407541D01*
X335809Y407553D01*
X335859Y407734D01*
X335911Y407915D01*
X335912Y407928D01*
X335916Y407941D01*
X335928Y408128D01*
X335944Y408316D01*
X335942Y408329D01*
X335943Y408343D01*
X335919Y408527D01*
X335897Y408716D01*
X335893Y408729D01*
X335891Y408742D01*
X335790Y409058D01*
X335541Y409658D01*
X335541Y412073D01*
X336465Y414303D01*
X338172Y416010D01*
X340402Y416934D01*
X342817Y416934D01*
X344218Y416354D01*
X344231Y416350D01*
X344243Y416344D01*
X344424Y416292D01*
X344604Y416237D01*
X344617Y416236D01*
X344630Y416232D01*
X344819Y416217D01*
X345004Y416199D01*
X345018Y416200D01*
X345031Y416199D01*
X345217Y416221D01*
X345405Y416241D01*
X345418Y416245D01*
X345431Y416246D01*
X345609Y416304D01*
X345789Y416361D01*
X345801Y416367D01*
X345814Y416371D01*
X345977Y416464D01*
X346142Y416554D01*
X346153Y416562D01*
X346164Y416569D01*
X346307Y416692D01*
X346451Y416813D01*
X346459Y416823D01*
X346469Y416832D01*
X346584Y416980D01*
X346702Y417128D01*
X346708Y417140D01*
X346716Y417150D01*
X346799Y417319D01*
X346885Y417486D01*
X346889Y417499D01*
X346895Y417511D01*
X346944Y417694D01*
X346995Y417873D01*
X346996Y417887D01*
X347000Y417900D01*
X347027Y418230D01*
X347027Y442080D01*
X347024Y442107D01*
X347026Y442133D01*
X347004Y442307D01*
X346987Y442481D01*
X346979Y442506D01*
X346976Y442533D01*
X346920Y442699D01*
X346869Y442866D01*
X346856Y442889D01*
X346847Y442915D01*
X346760Y443066D01*
X346677Y443220D01*
X346660Y443240D01*
X346647Y443263D01*
X346432Y443516D01*
X332391Y457557D01*
X332371Y457574D01*
X332353Y457594D01*
X332215Y457701D01*
X332080Y457812D01*
X332056Y457824D01*
X332035Y457841D01*
X331878Y457919D01*
X331724Y458001D01*
X331699Y458008D01*
X331675Y458020D01*
X331505Y458066D01*
X331338Y458115D01*
X331312Y458118D01*
X331286Y458125D01*
X330955Y458152D01*
X329463Y458152D01*
X329437Y458149D01*
X329410Y458151D01*
X329236Y458129D01*
X329062Y458112D01*
X329037Y458104D01*
X329010Y458101D01*
X328845Y458045D01*
X328678Y457994D01*
X328654Y457981D01*
X328629Y457972D01*
X328477Y457885D01*
X328324Y457802D01*
X328303Y457785D01*
X328280Y457771D01*
X328027Y457557D01*
X327288Y456818D01*
X325057Y455894D01*
X322643Y455894D01*
X320412Y456818D01*
X318705Y458525D01*
X317781Y460755D01*
X317781Y463170D01*
X318705Y465400D01*
X320412Y467107D01*
X322782Y468089D01*
X322801Y468092D01*
X322946Y468144D01*
X323094Y468189D01*
X323136Y468212D01*
X323180Y468228D01*
X323312Y468307D01*
X323448Y468381D01*
X323484Y468411D01*
X323525Y468435D01*
X323639Y468540D01*
X323758Y468639D01*
X323787Y468675D01*
X323822Y468707D01*
X323913Y468832D01*
X324010Y468953D01*
X324032Y468994D01*
X324059Y469032D01*
X324124Y469173D01*
X324195Y469310D01*
X324208Y469355D01*
X324228Y469398D01*
X324264Y469548D01*
X324307Y469697D01*
X324311Y469744D01*
X324322Y469789D01*
X324327Y469944D01*
X324340Y470098D01*
X324334Y470145D01*
X324336Y470192D01*
X324311Y470344D01*
X324293Y470498D01*
X324278Y470543D01*
X324271Y470589D01*
X324216Y470734D01*
X324168Y470881D01*
X324145Y470922D01*
X324128Y470966D01*
X324046Y471097D01*
X323970Y471231D01*
X323939Y471267D01*
X323914Y471307D01*
X323746Y471491D01*
X323707Y471536D01*
X323699Y471542D01*
X323690Y471552D01*
X323472Y471754D01*
X323461Y471805D01*
X323411Y471920D01*
X323370Y472038D01*
X323331Y472104D01*
X323300Y472174D01*
X323209Y472310D01*
X323165Y472385D01*
X323141Y472412D01*
X323115Y472450D01*
X322576Y473126D01*
X322523Y473181D01*
X322477Y473242D01*
X322383Y473324D01*
X322295Y473414D01*
X322232Y473457D01*
X322175Y473508D01*
X322066Y473571D01*
X321974Y473634D01*
X321534Y474397D01*
X321494Y474451D01*
X321363Y474648D01*
X320809Y475341D01*
X320806Y475394D01*
X320774Y475515D01*
X320751Y475638D01*
X320722Y475709D01*
X320702Y475783D01*
X320632Y475930D01*
X320600Y476011D01*
X320580Y476041D01*
X320560Y476082D01*
X320128Y476831D01*
X320083Y476894D01*
X320047Y476961D01*
X319966Y477056D01*
X319893Y477158D01*
X319837Y477210D01*
X319788Y477269D01*
X319690Y477347D01*
X319609Y477423D01*
X319287Y478243D01*
X319256Y478303D01*
X319155Y478517D01*
X318711Y479285D01*
X318716Y479337D01*
X318702Y479462D01*
X318697Y479587D01*
X318680Y479662D01*
X318671Y479738D01*
X318624Y479894D01*
X318604Y479979D01*
X318589Y480011D01*
X318576Y480055D01*
X318260Y480860D01*
X318225Y480928D01*
X318199Y481000D01*
X318133Y481107D01*
X318076Y481219D01*
X318028Y481279D01*
X317989Y481344D01*
X317904Y481435D01*
X317834Y481523D01*
X317638Y482382D01*
X317617Y482446D01*
X317549Y482672D01*
X317224Y483498D01*
X317237Y483549D01*
X317241Y483674D01*
X317256Y483799D01*
X317249Y483875D01*
X317252Y483951D01*
X317229Y484113D01*
X317221Y484200D01*
X317211Y484234D01*
X317205Y484280D01*
X317012Y485123D01*
X316988Y485195D01*
X316973Y485270D01*
X316924Y485385D01*
X316884Y485504D01*
X316846Y485571D01*
X316817Y485641D01*
X316746Y485745D01*
X316690Y485841D01*
X316625Y486720D01*
X316613Y486786D01*
X316579Y487020D01*
X316382Y487885D01*
X316401Y487932D01*
X316425Y488056D01*
X316458Y488178D01*
X316462Y488253D01*
X316477Y488328D01*
X316478Y488492D01*
X316480Y488518D01*
X316483Y488562D01*
X316483Y488566D01*
X316484Y488580D01*
X316479Y488615D01*
X316479Y488660D01*
X316478Y488677D01*
X316453Y488819D01*
X316436Y488962D01*
X316418Y489017D01*
X316408Y489074D01*
X316356Y489208D01*
X316311Y489345D01*
X316283Y489395D01*
X316262Y489449D01*
X316184Y489570D01*
X316114Y489695D01*
X316076Y489739D01*
X316045Y489787D01*
X315945Y489891D01*
X315850Y490000D01*
X315805Y490035D01*
X315765Y490077D01*
X315646Y490159D01*
X315532Y490247D01*
X315481Y490272D01*
X315433Y490305D01*
X315301Y490362D01*
X315172Y490426D01*
X315116Y490441D01*
X315063Y490464D01*
X314922Y490493D01*
X314783Y490531D01*
X314717Y490536D01*
X314669Y490546D01*
X314586Y490547D01*
X314452Y490558D01*
X278916Y490558D01*
X278973Y491273D01*
X278969Y491301D01*
X278974Y491329D01*
X278957Y491399D01*
X278949Y491470D01*
X278935Y491495D01*
X278928Y491522D01*
X278885Y491580D01*
X278850Y491643D01*
X278827Y491660D01*
X278810Y491683D01*
X278748Y491719D01*
X278691Y491763D01*
X278663Y491770D01*
X278639Y491784D01*
X278539Y491801D01*
X278498Y491811D01*
X278488Y491810D01*
X278475Y491812D01*
X259475Y491812D01*
X259399Y491796D01*
X259321Y491788D01*
X259302Y491777D01*
X259280Y491772D01*
X259216Y491728D01*
X259148Y491690D01*
X259132Y491671D01*
X259116Y491660D01*
X259092Y491622D01*
X259042Y491562D01*
X249542Y475062D01*
X249533Y475034D01*
X249517Y475011D01*
X249502Y474941D01*
X249479Y474873D01*
X249482Y474845D01*
X249476Y474816D01*
X249490Y474746D01*
X249495Y474675D01*
X249508Y474649D01*
X249514Y474621D01*
X249554Y474562D01*
X249587Y474498D01*
X249609Y474480D01*
X249625Y474456D01*
X249708Y474399D01*
X249740Y474372D01*
X249751Y474369D01*
X249762Y474361D01*
X250389Y474065D01*
X232647Y443335D01*
X232589Y443205D01*
X232523Y443079D01*
X232506Y443022D01*
X232481Y442968D01*
X232450Y442829D01*
X232410Y442692D01*
X232405Y442633D01*
X232391Y442575D01*
X232387Y442433D01*
X232375Y442291D01*
X232382Y442232D01*
X232380Y442173D01*
X232405Y442033D01*
X232421Y441891D01*
X232439Y441834D01*
X232449Y441776D01*
X232500Y441644D01*
X232544Y441508D01*
X232573Y441456D01*
X232594Y441401D01*
X232671Y441281D01*
X232740Y441157D01*
X232779Y441111D01*
X232811Y441061D01*
X232910Y440959D01*
X233002Y440851D01*
X233052Y440811D01*
X233073Y440788D01*
X233078Y440785D01*
X233091Y440771D01*
X233158Y440725D01*
X233260Y440642D01*
X233268Y440636D01*
X233337Y440599D01*
X233400Y440553D01*
X233415Y440547D01*
X233422Y440542D01*
X233497Y440510D01*
X233513Y440503D01*
X233622Y440443D01*
X233696Y440420D01*
X233767Y440388D01*
X233888Y440360D01*
X233996Y440327D01*
X234642Y439728D01*
X234695Y439687D01*
X234879Y439539D01*
X235613Y439039D01*
X235631Y438990D01*
X235698Y438884D01*
X235756Y438773D01*
X235799Y438721D01*
X235804Y438711D01*
X235812Y438702D01*
X235845Y438649D01*
X235955Y438529D01*
X236010Y438461D01*
X236038Y438438D01*
X236067Y438407D01*
X236068Y438406D01*
X236069Y438405D01*
X236705Y437815D01*
X236766Y437769D01*
X236821Y437715D01*
X236926Y437648D01*
X237026Y437572D01*
X237095Y437539D01*
X237159Y437497D01*
X237275Y437451D01*
X237376Y437403D01*
X237925Y436714D01*
X237972Y436666D01*
X238132Y436492D01*
X238783Y435888D01*
X238794Y435837D01*
X238844Y435722D01*
X238885Y435604D01*
X238924Y435538D01*
X238955Y435468D01*
X239046Y435333D01*
X239090Y435258D01*
X239114Y435231D01*
X239140Y435193D01*
X239680Y434515D01*
X239734Y434460D01*
X239780Y434399D01*
X239838Y434348D01*
X239842Y434344D01*
X239852Y434336D01*
X239874Y434316D01*
X239961Y434227D01*
X240024Y434184D01*
X240082Y434133D01*
X240191Y434070D01*
X240282Y434007D01*
X240723Y433245D01*
X240762Y433190D01*
X240894Y432994D01*
X241448Y432300D01*
X241451Y432248D01*
X241483Y432127D01*
X241507Y432004D01*
X241535Y431933D01*
X241555Y431859D01*
X241625Y431711D01*
X241658Y431631D01*
X241677Y431601D01*
X241697Y431559D01*
X242131Y430809D01*
X242175Y430746D01*
X242212Y430679D01*
X242293Y430583D01*
X242366Y430482D01*
X242422Y430430D01*
X242471Y430371D01*
X242569Y430293D01*
X242650Y430217D01*
X242973Y429397D01*
X243003Y429337D01*
X243105Y429123D01*
X243548Y428355D01*
X243544Y428303D01*
X243558Y428179D01*
X243562Y428053D01*
X243580Y427979D01*
X243589Y427903D01*
X243636Y427747D01*
X243656Y427662D01*
X243671Y427629D01*
X243684Y427585D01*
X244001Y426778D01*
X244036Y426710D01*
X244062Y426638D01*
X244128Y426531D01*
X244185Y426420D01*
X244233Y426360D01*
X244273Y426295D01*
X244358Y426203D01*
X244427Y426116D01*
X244623Y425257D01*
X244645Y425193D01*
X244713Y424967D01*
X245037Y424141D01*
X245025Y424090D01*
X245020Y423965D01*
X245006Y423840D01*
X245013Y423764D01*
X245010Y423687D01*
X245033Y423526D01*
X245041Y423439D01*
X245051Y423405D01*
X245057Y423359D01*
X245250Y422514D01*
X245275Y422441D01*
X245290Y422366D01*
X245339Y422251D01*
X245379Y422132D01*
X245417Y422066D01*
X245446Y421995D01*
X245517Y421892D01*
X245573Y421795D01*
X245639Y420917D01*
X245650Y420850D01*
X245684Y420616D01*
X245882Y419751D01*
X245862Y419703D01*
X245839Y419580D01*
X245806Y419459D01*
X245801Y419383D01*
X245787Y419307D01*
X245786Y419144D01*
X245780Y419057D01*
X245785Y419022D01*
X245785Y418976D01*
X245850Y418111D01*
X245863Y418036D01*
X245867Y417959D01*
X245898Y417838D01*
X245920Y417715D01*
X245948Y417643D01*
X245967Y417569D01*
X246021Y417456D01*
X246061Y417353D01*
X246011Y416681D01*
X246014Y416592D01*
X246006Y416503D01*
X246018Y416392D01*
X246021Y416279D01*
X246041Y416192D01*
X246051Y416103D01*
X246085Y415996D01*
X246110Y415886D01*
X246147Y415805D01*
X246174Y415720D01*
X246229Y415621D01*
X246275Y415519D01*
X246327Y415446D01*
X246371Y415368D01*
X246444Y415283D01*
X246509Y415191D01*
X246574Y415130D01*
X246632Y415063D01*
X246721Y414993D01*
X246803Y414916D01*
X246879Y414869D01*
X246949Y414814D01*
X247050Y414764D01*
X247146Y414704D01*
X247229Y414674D01*
X247309Y414634D01*
X247418Y414604D01*
X247524Y414565D01*
X247611Y414551D01*
X247697Y414527D01*
X247810Y414519D01*
X247921Y414502D01*
X248010Y414506D01*
X248099Y414500D01*
X248211Y414514D01*
X248323Y414519D01*
X248410Y414540D01*
X248498Y414552D01*
X248633Y414595D01*
X248714Y414615D01*
X248756Y414635D01*
X248814Y414653D01*
X251205Y415644D01*
X253620Y415644D01*
X255850Y414720D01*
X257558Y413012D01*
X257558Y413011D01*
X257647Y412855D01*
X257731Y412697D01*
X257745Y412680D01*
X257756Y412661D01*
X257873Y412525D01*
X257988Y412387D01*
X258005Y412373D01*
X258019Y412356D01*
X258160Y412247D01*
X258300Y412133D01*
X258320Y412123D01*
X258338Y412109D01*
X258498Y412030D01*
X258657Y411946D01*
X258678Y411940D01*
X258698Y411930D01*
X258871Y411883D01*
X259043Y411833D01*
X259065Y411831D01*
X259087Y411825D01*
X259418Y411798D01*
X279391Y411798D01*
X282218Y408971D01*
X310518Y380671D01*
X310525Y380666D01*
X310531Y380659D01*
X310681Y380538D01*
X310829Y380416D01*
X310837Y380412D01*
X310844Y380406D01*
X311016Y380317D01*
X311185Y380228D01*
X311194Y380225D01*
X311202Y380221D01*
X311387Y380168D01*
X311571Y380113D01*
X311580Y380112D01*
X311589Y380109D01*
X311780Y380094D01*
X311972Y380076D01*
X311981Y380077D01*
G37*
G36*
X231852Y292049D02*
X231852Y292049D01*
X231882Y292047D01*
X232052Y292068D01*
X232223Y292085D01*
X232251Y292094D01*
X232281Y292097D01*
X232444Y292152D01*
X232608Y292202D01*
X232634Y292216D01*
X232663Y292226D01*
X232811Y292311D01*
X232963Y292392D01*
X232986Y292412D01*
X233012Y292427D01*
X233265Y292641D01*
X255671Y315048D01*
X255677Y315055D01*
X255684Y315060D01*
X255804Y315210D01*
X255926Y315359D01*
X255930Y315367D01*
X255936Y315374D01*
X256025Y315545D01*
X256115Y315715D01*
X256117Y315723D01*
X256121Y315731D01*
X256175Y315917D01*
X256230Y316101D01*
X256230Y316110D01*
X256233Y316118D01*
X256248Y316310D01*
X256266Y316502D01*
X256265Y316511D01*
X256266Y316520D01*
X256243Y316709D01*
X256223Y316902D01*
X256220Y316911D01*
X256219Y316919D01*
X256159Y317101D01*
X256101Y317286D01*
X256097Y317294D01*
X256094Y317302D01*
X255999Y317471D01*
X255906Y317638D01*
X255900Y317645D01*
X255896Y317653D01*
X255770Y317799D01*
X255646Y317945D01*
X255639Y317951D01*
X255633Y317958D01*
X255481Y318075D01*
X255330Y318195D01*
X255322Y318199D01*
X255315Y318204D01*
X255143Y318290D01*
X254971Y318377D01*
X254962Y318380D01*
X254954Y318384D01*
X254768Y318434D01*
X254583Y318485D01*
X254574Y318486D01*
X254565Y318488D01*
X254235Y318515D01*
X252404Y318515D01*
X252378Y318513D01*
X252351Y318515D01*
X252177Y318493D01*
X252004Y318475D01*
X251978Y318468D01*
X251952Y318464D01*
X251786Y318409D01*
X251619Y318357D01*
X251595Y318344D01*
X251570Y318336D01*
X251418Y318249D01*
X251265Y318165D01*
X251244Y318148D01*
X251221Y318135D01*
X250968Y317920D01*
X248499Y315451D01*
X244858Y313943D01*
X240917Y313943D01*
X237276Y315451D01*
X234489Y318238D01*
X232981Y321879D01*
X232981Y325821D01*
X234489Y329462D01*
X237276Y332249D01*
X240917Y333757D01*
X244858Y333757D01*
X248499Y332249D01*
X250968Y329780D01*
X250989Y329763D01*
X251006Y329742D01*
X251144Y329635D01*
X251280Y329525D01*
X251303Y329512D01*
X251324Y329496D01*
X251481Y329418D01*
X251635Y329336D01*
X251661Y329328D01*
X251685Y329316D01*
X251854Y329271D01*
X252021Y329221D01*
X252048Y329219D01*
X252074Y329212D01*
X252404Y329185D01*
X254124Y329185D01*
X254150Y329187D01*
X254177Y329185D01*
X254351Y329207D01*
X254525Y329225D01*
X254550Y329232D01*
X254577Y329236D01*
X254742Y329291D01*
X254909Y329343D01*
X254933Y329356D01*
X254958Y329364D01*
X255110Y329451D01*
X255263Y329535D01*
X255284Y329552D01*
X255307Y329565D01*
X255560Y329780D01*
X257328Y331548D01*
X259289Y332360D01*
X283842Y332360D01*
X283851Y332361D01*
X283860Y332360D01*
X284053Y332381D01*
X284243Y332400D01*
X284251Y332402D01*
X284260Y332403D01*
X284445Y332462D01*
X284627Y332518D01*
X284635Y332522D01*
X284644Y332525D01*
X284813Y332618D01*
X284982Y332710D01*
X284988Y332715D01*
X284996Y332720D01*
X285143Y332844D01*
X285291Y332967D01*
X285296Y332974D01*
X285303Y332980D01*
X285423Y333132D01*
X285543Y333281D01*
X285547Y333289D01*
X285553Y333296D01*
X285641Y333469D01*
X285729Y333638D01*
X285731Y333647D01*
X285735Y333655D01*
X285787Y333841D01*
X285840Y334025D01*
X285841Y334034D01*
X285843Y334043D01*
X285857Y334236D01*
X285873Y334427D01*
X285872Y334435D01*
X285873Y334444D01*
X285848Y334637D01*
X285826Y334826D01*
X285823Y334835D01*
X285822Y334844D01*
X285761Y335027D01*
X285701Y335209D01*
X285697Y335217D01*
X285694Y335225D01*
X285598Y335392D01*
X285503Y335560D01*
X285497Y335567D01*
X285493Y335574D01*
X285278Y335827D01*
X266673Y354433D01*
X266652Y354450D01*
X266635Y354470D01*
X266497Y354577D01*
X266361Y354688D01*
X266338Y354700D01*
X266316Y354717D01*
X266159Y354795D01*
X266005Y354877D01*
X265980Y354884D01*
X265956Y354896D01*
X265786Y354942D01*
X265620Y354991D01*
X265593Y354994D01*
X265567Y355001D01*
X265236Y355028D01*
X254257Y355028D01*
X254244Y355026D01*
X254231Y355028D01*
X254044Y355007D01*
X253857Y354988D01*
X253844Y354984D01*
X253830Y354982D01*
X253651Y354925D01*
X253472Y354870D01*
X253460Y354863D01*
X253447Y354859D01*
X253282Y354767D01*
X253118Y354678D01*
X253107Y354669D01*
X253096Y354663D01*
X252952Y354540D01*
X252808Y354420D01*
X252800Y354410D01*
X252790Y354401D01*
X252674Y354253D01*
X252556Y354106D01*
X252550Y354095D01*
X252542Y354084D01*
X252457Y353915D01*
X252371Y353749D01*
X252367Y353736D01*
X252361Y353724D01*
X252311Y353543D01*
X252259Y353362D01*
X252258Y353349D01*
X252255Y353336D01*
X252242Y353148D01*
X252226Y352961D01*
X252228Y352948D01*
X252227Y352934D01*
X252251Y352747D01*
X252273Y352561D01*
X252277Y352548D01*
X252279Y352535D01*
X252381Y352219D01*
X252794Y351221D01*
X252794Y347279D01*
X251286Y343638D01*
X248499Y340851D01*
X244858Y339343D01*
X240917Y339343D01*
X237276Y340851D01*
X234489Y343638D01*
X232981Y347279D01*
X232981Y351221D01*
X234489Y354862D01*
X236958Y357331D01*
X236975Y357351D01*
X236995Y357369D01*
X237102Y357507D01*
X237213Y357642D01*
X237225Y357666D01*
X237242Y357687D01*
X237320Y357844D01*
X237402Y357998D01*
X237409Y358023D01*
X237421Y358047D01*
X237467Y358217D01*
X237516Y358384D01*
X237519Y358410D01*
X237526Y358436D01*
X237553Y358767D01*
X237553Y365133D01*
X237550Y365160D01*
X237552Y365186D01*
X237530Y365360D01*
X237513Y365534D01*
X237505Y365559D01*
X237502Y365586D01*
X237446Y365752D01*
X237395Y365919D01*
X237382Y365942D01*
X237373Y365968D01*
X237286Y366119D01*
X237203Y366273D01*
X237186Y366293D01*
X237173Y366316D01*
X236958Y366569D01*
X234489Y369038D01*
X232981Y372679D01*
X232981Y376621D01*
X234489Y380262D01*
X237276Y383049D01*
X240917Y384557D01*
X244858Y384557D01*
X248499Y383049D01*
X251286Y380262D01*
X252794Y376621D01*
X252794Y372679D01*
X251263Y368982D01*
X251158Y368853D01*
X251153Y368845D01*
X251148Y368838D01*
X251059Y368668D01*
X250969Y368498D01*
X250966Y368489D01*
X250962Y368481D01*
X250909Y368297D01*
X250854Y368112D01*
X250853Y368103D01*
X250851Y368094D01*
X250835Y367903D01*
X250818Y367711D01*
X250819Y367702D01*
X250818Y367693D01*
X250840Y367503D01*
X250861Y367311D01*
X250864Y367302D01*
X250865Y367293D01*
X250924Y367110D01*
X250982Y366927D01*
X250987Y366919D01*
X250990Y366910D01*
X251084Y366743D01*
X251177Y366574D01*
X251183Y366568D01*
X251188Y366560D01*
X251313Y366414D01*
X251438Y366267D01*
X251445Y366262D01*
X251451Y366255D01*
X251602Y366138D01*
X251754Y366018D01*
X251762Y366014D01*
X251769Y366008D01*
X251940Y365923D01*
X252113Y365835D01*
X252121Y365833D01*
X252129Y365829D01*
X252315Y365779D01*
X252500Y365727D01*
X252509Y365727D01*
X252518Y365724D01*
X252849Y365697D01*
X257137Y365697D01*
X257155Y365699D01*
X257173Y365698D01*
X257355Y365719D01*
X257538Y365737D01*
X257555Y365742D01*
X257572Y365744D01*
X257747Y365801D01*
X257923Y365855D01*
X257938Y365864D01*
X257955Y365869D01*
X258115Y365960D01*
X258277Y366047D01*
X258290Y366058D01*
X258306Y366067D01*
X258445Y366187D01*
X258586Y366305D01*
X258597Y366319D01*
X258611Y366330D01*
X258723Y366475D01*
X258838Y366619D01*
X258846Y366634D01*
X258857Y366648D01*
X258939Y366813D01*
X259024Y366976D01*
X259029Y366993D01*
X259037Y367009D01*
X259084Y367187D01*
X259135Y367363D01*
X259137Y367381D01*
X259141Y367398D01*
X259168Y367728D01*
X259168Y374112D01*
X260508Y375452D01*
X272402Y375452D01*
X273742Y374112D01*
X273742Y363294D01*
X273744Y363268D01*
X273742Y363241D01*
X273764Y363067D01*
X273782Y362893D01*
X273789Y362868D01*
X273793Y362841D01*
X273848Y362676D01*
X273900Y362509D01*
X273913Y362485D01*
X273921Y362460D01*
X274008Y362308D01*
X274092Y362155D01*
X274109Y362134D01*
X274122Y362111D01*
X274337Y361858D01*
X286663Y349531D01*
X286670Y349526D01*
X286676Y349519D01*
X286825Y349398D01*
X286975Y349276D01*
X286983Y349272D01*
X286990Y349266D01*
X287160Y349178D01*
X287330Y349088D01*
X287339Y349085D01*
X287347Y349081D01*
X287532Y349028D01*
X287716Y348973D01*
X287725Y348972D01*
X287734Y348969D01*
X287925Y348954D01*
X288117Y348936D01*
X288126Y348937D01*
X288135Y348937D01*
X288324Y348959D01*
X288518Y348980D01*
X288526Y348982D01*
X288535Y348984D01*
X288717Y349043D01*
X288901Y349101D01*
X288909Y349106D01*
X288918Y349108D01*
X289086Y349203D01*
X289254Y349296D01*
X289260Y349302D01*
X289268Y349306D01*
X289414Y349432D01*
X289561Y349557D01*
X289566Y349564D01*
X289573Y349569D01*
X289690Y349721D01*
X289810Y349873D01*
X289814Y349881D01*
X289820Y349888D01*
X289905Y350060D01*
X289993Y350231D01*
X289995Y350240D01*
X289999Y350248D01*
X290049Y350435D01*
X290101Y350619D01*
X290101Y350628D01*
X290104Y350637D01*
X290131Y350968D01*
X290131Y370748D01*
X290128Y370774D01*
X290130Y370801D01*
X290108Y370975D01*
X290091Y371148D01*
X290083Y371174D01*
X290080Y371201D01*
X290024Y371366D01*
X289973Y371533D01*
X289960Y371557D01*
X289951Y371582D01*
X289864Y371734D01*
X289781Y371887D01*
X289764Y371908D01*
X289751Y371931D01*
X289536Y372184D01*
X288920Y372800D01*
X288903Y372814D01*
X288889Y372831D01*
X288747Y372942D01*
X288609Y373055D01*
X288589Y373065D01*
X288572Y373079D01*
X288411Y373160D01*
X288253Y373243D01*
X288232Y373250D01*
X288212Y373260D01*
X288040Y373307D01*
X287867Y373358D01*
X287845Y373360D01*
X287823Y373366D01*
X287646Y373378D01*
X287466Y373395D01*
X287444Y373392D01*
X287422Y373394D01*
X287245Y373371D01*
X287066Y373351D01*
X287045Y373344D01*
X287040Y373344D01*
X284543Y373344D01*
X282312Y374268D01*
X280605Y375975D01*
X279681Y378205D01*
X279681Y380620D01*
X280605Y382850D01*
X282312Y384557D01*
X283466Y385035D01*
X283478Y385042D01*
X283491Y385046D01*
X283655Y385136D01*
X283821Y385225D01*
X283831Y385234D01*
X283843Y385240D01*
X283986Y385361D01*
X284131Y385482D01*
X284140Y385492D01*
X284150Y385501D01*
X284267Y385649D01*
X284385Y385794D01*
X284391Y385806D01*
X284400Y385817D01*
X284485Y385985D01*
X284572Y386151D01*
X284576Y386164D01*
X284582Y386176D01*
X284633Y386358D01*
X284685Y386537D01*
X284686Y386551D01*
X284690Y386564D01*
X284704Y386752D01*
X284720Y386939D01*
X284718Y386952D01*
X284719Y386965D01*
X284696Y387154D01*
X284675Y387339D01*
X284671Y387351D01*
X284669Y387365D01*
X284609Y387543D01*
X284552Y387722D01*
X284545Y387734D01*
X284541Y387746D01*
X284447Y387910D01*
X284355Y388073D01*
X284347Y388083D01*
X284340Y388095D01*
X284125Y388348D01*
X275241Y397232D01*
X275221Y397249D01*
X275203Y397269D01*
X275065Y397376D01*
X274930Y397487D01*
X274906Y397499D01*
X274885Y397516D01*
X274728Y397594D01*
X274574Y397676D01*
X274549Y397683D01*
X274525Y397695D01*
X274355Y397741D01*
X274188Y397790D01*
X274162Y397793D01*
X274136Y397800D01*
X273805Y397827D01*
X240726Y397827D01*
X240545Y397809D01*
X240364Y397794D01*
X240345Y397789D01*
X240325Y397787D01*
X240151Y397734D01*
X239977Y397684D01*
X239959Y397675D01*
X239940Y397669D01*
X239781Y397582D01*
X239619Y397499D01*
X239604Y397486D01*
X239586Y397477D01*
X239447Y397361D01*
X239305Y397247D01*
X239292Y397232D01*
X239277Y397219D01*
X239211Y397137D01*
X238145Y396147D01*
X238100Y396097D01*
X237939Y395925D01*
X237386Y395231D01*
X237336Y395216D01*
X237225Y395158D01*
X237110Y395108D01*
X237047Y395064D01*
X236979Y395028D01*
X236851Y394927D01*
X236780Y394877D01*
X236755Y394852D01*
X236719Y394823D01*
X236083Y394233D01*
X236033Y394176D01*
X235975Y394125D01*
X235900Y394025D01*
X235817Y393931D01*
X235779Y393865D01*
X235732Y393804D01*
X235678Y393691D01*
X235622Y393595D01*
X234894Y393098D01*
X234843Y393055D01*
X234657Y392909D01*
X234007Y392305D01*
X233955Y392298D01*
X233836Y392257D01*
X233716Y392224D01*
X233647Y392190D01*
X233575Y392165D01*
X233433Y392084D01*
X233355Y392046D01*
X233326Y392024D01*
X233286Y392001D01*
X232570Y391513D01*
X232511Y391463D01*
X232447Y391422D01*
X232358Y391334D01*
X232262Y391254D01*
X232214Y391194D01*
X232159Y391141D01*
X232088Y391037D01*
X232019Y390950D01*
X231225Y390568D01*
X231168Y390532D01*
X230962Y390416D01*
X230229Y389916D01*
X230177Y389916D01*
X230054Y389893D01*
X229929Y389879D01*
X229857Y389856D01*
X229781Y389842D01*
X229629Y389783D01*
X229546Y389756D01*
X229515Y389739D01*
X229472Y389722D01*
X228691Y389346D01*
X228626Y389306D01*
X228556Y389275D01*
X228454Y389201D01*
X228347Y389136D01*
X228291Y389084D01*
X228229Y389040D01*
X228144Y388948D01*
X228062Y388872D01*
X227220Y388612D01*
X227158Y388586D01*
X226937Y388501D01*
X226138Y388116D01*
X226087Y388124D01*
X225961Y388120D01*
X225836Y388124D01*
X225761Y388112D01*
X225684Y388109D01*
X225525Y388074D01*
X225439Y388060D01*
X225405Y388048D01*
X225360Y388038D01*
X224532Y387782D01*
X224461Y387752D01*
X224388Y387731D01*
X224276Y387674D01*
X224161Y387626D01*
X224098Y387583D01*
X224029Y387548D01*
X223932Y387470D01*
X223839Y387407D01*
X222968Y387275D01*
X222903Y387259D01*
X222672Y387208D01*
X221824Y386946D01*
X221775Y386962D01*
X221650Y386976D01*
X221527Y386999D01*
X221450Y386998D01*
X221374Y387007D01*
X221212Y386996D01*
X221124Y386995D01*
X221089Y386988D01*
X221043Y386984D01*
X220186Y386855D01*
X220112Y386836D01*
X220036Y386827D01*
X219918Y386787D01*
X219796Y386756D01*
X219727Y386723D01*
X219655Y386698D01*
X219546Y386636D01*
X219446Y386587D01*
X218564Y386587D01*
X218498Y386580D01*
X218262Y386564D01*
X217384Y386432D01*
X217337Y386455D01*
X217217Y386487D01*
X217098Y386529D01*
X217023Y386540D01*
X216949Y386559D01*
X216786Y386573D01*
X216700Y386585D01*
X216664Y386583D01*
X216618Y386586D01*
X215751Y386586D01*
X215675Y386579D01*
X215599Y386580D01*
X215475Y386559D01*
X215350Y386546D01*
X215277Y386524D01*
X215202Y386510D01*
X215086Y386465D01*
X214979Y386432D01*
X214107Y386563D01*
X214040Y386566D01*
X213805Y386586D01*
X212917Y386585D01*
X212874Y386615D01*
X212760Y386665D01*
X212649Y386724D01*
X212576Y386746D01*
X212506Y386776D01*
X212347Y386814D01*
X212263Y386839D01*
X212227Y386842D01*
X212183Y386852D01*
X211325Y386981D01*
X211249Y386985D01*
X211174Y386998D01*
X211048Y386995D01*
X210923Y387001D01*
X210848Y386990D01*
X210771Y386988D01*
X210649Y386960D01*
X210539Y386944D01*
X209697Y387203D01*
X209631Y387217D01*
X209401Y387271D01*
X208523Y387403D01*
X208485Y387439D01*
X208379Y387505D01*
X208278Y387580D01*
X208209Y387613D01*
X208144Y387653D01*
X207993Y387714D01*
X207914Y387751D01*
X207879Y387759D01*
X207836Y387777D01*
X207008Y388032D01*
X206933Y388047D01*
X206860Y388071D01*
X206736Y388087D01*
X206613Y388112D01*
X206537Y388112D01*
X206461Y388121D01*
X206336Y388112D01*
X206224Y388112D01*
X205430Y388494D01*
X205367Y388517D01*
X205148Y388605D01*
X204300Y388866D01*
X204267Y388908D01*
X204173Y388989D01*
X204084Y389078D01*
X204020Y389121D01*
X203962Y389171D01*
X203822Y389253D01*
X203749Y389301D01*
X203716Y389315D01*
X203675Y389339D01*
X203649Y389351D01*
X203515Y389400D01*
X203384Y389456D01*
X203326Y389469D01*
X203271Y389489D01*
X203130Y389510D01*
X202990Y389540D01*
X202931Y389540D01*
X202873Y389549D01*
X202730Y389542D01*
X202588Y389544D01*
X202529Y389532D01*
X202470Y389530D01*
X202332Y389495D01*
X202192Y389468D01*
X202137Y389446D01*
X202080Y389431D01*
X201951Y389370D01*
X201819Y389316D01*
X201770Y389283D01*
X201717Y389258D01*
X201603Y389172D01*
X201484Y389093D01*
X201442Y389051D01*
X201395Y389016D01*
X201300Y388909D01*
X201199Y388809D01*
X201161Y388753D01*
X201127Y388715D01*
X201085Y388644D01*
X201010Y388536D01*
X183267Y357803D01*
X182659Y358223D01*
X182632Y358235D01*
X182610Y358253D01*
X182541Y358274D01*
X182476Y358301D01*
X182447Y358302D01*
X182419Y358310D01*
X182348Y358302D01*
X182277Y358302D01*
X182250Y358291D01*
X182221Y358288D01*
X182159Y358253D01*
X182094Y358225D01*
X182073Y358204D01*
X182048Y358190D01*
X181985Y358113D01*
X181955Y358082D01*
X181951Y358072D01*
X181942Y358062D01*
X172442Y341562D01*
X172418Y341489D01*
X172387Y341418D01*
X172387Y341395D01*
X172379Y341373D01*
X172386Y341296D01*
X172385Y341219D01*
X172394Y341195D01*
X172395Y341175D01*
X172416Y341135D01*
X172435Y341083D01*
X172436Y341078D01*
X172438Y341076D01*
X172442Y341063D01*
X181942Y324563D01*
X181961Y324542D01*
X181974Y324515D01*
X182027Y324468D01*
X182074Y324414D01*
X182100Y324402D01*
X182122Y324382D01*
X182189Y324359D01*
X182253Y324328D01*
X182282Y324327D01*
X182309Y324318D01*
X182381Y324322D01*
X182452Y324319D01*
X182479Y324329D01*
X182508Y324331D01*
X182598Y324374D01*
X182638Y324388D01*
X182646Y324396D01*
X182659Y324402D01*
X183267Y324822D01*
X201010Y294089D01*
X201093Y293973D01*
X201170Y293853D01*
X201211Y293810D01*
X201245Y293762D01*
X201349Y293665D01*
X201448Y293562D01*
X201496Y293528D01*
X201540Y293488D01*
X201661Y293413D01*
X201778Y293332D01*
X201832Y293308D01*
X201883Y293277D01*
X202017Y293228D01*
X202147Y293171D01*
X202205Y293158D01*
X202261Y293138D01*
X202401Y293116D01*
X202541Y293086D01*
X202600Y293085D01*
X202659Y293076D01*
X202801Y293083D01*
X202943Y293081D01*
X203002Y293092D01*
X203061Y293094D01*
X203199Y293129D01*
X203339Y293155D01*
X203402Y293179D01*
X203452Y293191D01*
X203526Y293227D01*
X203649Y293274D01*
X203675Y293286D01*
X203741Y293327D01*
X203812Y293358D01*
X203913Y293431D01*
X204019Y293496D01*
X204076Y293548D01*
X204139Y293593D01*
X204223Y293684D01*
X204306Y293761D01*
X205148Y294020D01*
X205210Y294046D01*
X205430Y294131D01*
X206230Y294516D01*
X206281Y294507D01*
X206407Y294512D01*
X206532Y294507D01*
X206607Y294519D01*
X206684Y294522D01*
X206843Y294557D01*
X206929Y294571D01*
X206963Y294583D01*
X207008Y294593D01*
X207836Y294848D01*
X207907Y294878D01*
X207981Y294899D01*
X208092Y294956D01*
X208207Y295005D01*
X208271Y295048D01*
X208339Y295082D01*
X208437Y295160D01*
X208529Y295223D01*
X209401Y295354D01*
X209465Y295371D01*
X209697Y295422D01*
X210545Y295683D01*
X210594Y295667D01*
X210719Y295653D01*
X210842Y295629D01*
X210918Y295630D01*
X210994Y295621D01*
X211157Y295632D01*
X211244Y295633D01*
X211279Y295641D01*
X211325Y295644D01*
X212183Y295773D01*
X212257Y295791D01*
X212333Y295801D01*
X212451Y295841D01*
X212573Y295872D01*
X212642Y295905D01*
X212714Y295929D01*
X212823Y295992D01*
X212923Y296040D01*
X213805Y296039D01*
X213872Y296046D01*
X214107Y296062D01*
X214985Y296194D01*
X215032Y296171D01*
X215152Y296138D01*
X215271Y296097D01*
X215347Y296086D01*
X215420Y296066D01*
X215583Y296053D01*
X215669Y296040D01*
X215705Y296043D01*
X215751Y296039D01*
X216618Y296039D01*
X216694Y296046D01*
X216771Y296044D01*
X216894Y296066D01*
X217019Y296078D01*
X217092Y296101D01*
X217167Y296114D01*
X217284Y296160D01*
X217390Y296192D01*
X218262Y296061D01*
X218329Y296057D01*
X218564Y296038D01*
X219452Y296038D01*
X219495Y296008D01*
X219609Y295957D01*
X219720Y295899D01*
X219793Y295877D01*
X219863Y295846D01*
X220022Y295809D01*
X220106Y295784D01*
X220141Y295781D01*
X220186Y295770D01*
X221043Y295640D01*
X221120Y295637D01*
X221195Y295623D01*
X221321Y295626D01*
X221445Y295620D01*
X221521Y295631D01*
X221598Y295633D01*
X221720Y295661D01*
X221830Y295677D01*
X222672Y295417D01*
X222738Y295404D01*
X222968Y295350D01*
X223845Y295217D01*
X223883Y295181D01*
X223989Y295115D01*
X224090Y295040D01*
X224159Y295007D01*
X224224Y294967D01*
X224375Y294906D01*
X224454Y294869D01*
X224489Y294860D01*
X224532Y294843D01*
X225360Y294587D01*
X225435Y294572D01*
X225508Y294548D01*
X225632Y294532D01*
X225755Y294507D01*
X225831Y294507D01*
X225907Y294498D01*
X226032Y294507D01*
X226144Y294507D01*
X226937Y294124D01*
X227001Y294101D01*
X227220Y294013D01*
X228068Y293751D01*
X228100Y293710D01*
X228195Y293628D01*
X228283Y293539D01*
X228347Y293497D01*
X228405Y293447D01*
X228545Y293364D01*
X228618Y293316D01*
X228651Y293302D01*
X228691Y293279D01*
X229472Y292903D01*
X229543Y292876D01*
X229612Y292841D01*
X229732Y292807D01*
X229850Y292765D01*
X229926Y292753D01*
X229999Y292732D01*
X230124Y292723D01*
X230234Y292706D01*
X230683Y292400D01*
X230710Y292385D01*
X230733Y292367D01*
X230886Y292289D01*
X231037Y292207D01*
X231065Y292198D01*
X231092Y292184D01*
X231258Y292138D01*
X231421Y292087D01*
X231451Y292084D01*
X231480Y292076D01*
X231651Y292064D01*
X231822Y292046D01*
X231852Y292049D01*
G37*
G36*
X432751Y190829D02*
X432751Y190829D01*
X432829Y190837D01*
X432848Y190848D01*
X432870Y190853D01*
X432934Y190897D01*
X433002Y190935D01*
X433018Y190954D01*
X433034Y190965D01*
X433058Y191003D01*
X433108Y191063D01*
X442608Y207563D01*
X442617Y207591D01*
X442633Y207614D01*
X442648Y207684D01*
X442671Y207752D01*
X442668Y207781D01*
X442674Y207809D01*
X442661Y207879D01*
X442655Y207950D01*
X442642Y207976D01*
X442636Y208004D01*
X442596Y208063D01*
X442563Y208127D01*
X442541Y208145D01*
X442525Y208169D01*
X442442Y208226D01*
X442410Y208253D01*
X442399Y208256D01*
X442389Y208264D01*
X441761Y208561D01*
X459503Y239290D01*
X459562Y239421D01*
X459628Y239548D01*
X459644Y239604D01*
X459669Y239657D01*
X459701Y239797D01*
X459741Y239934D01*
X459746Y239993D01*
X459759Y240050D01*
X459763Y240193D01*
X459775Y240335D01*
X459768Y240394D01*
X459770Y240452D01*
X459745Y240593D01*
X459729Y240735D01*
X459711Y240791D01*
X459701Y240849D01*
X459649Y240982D01*
X459605Y241119D01*
X459577Y241170D01*
X459555Y241224D01*
X459479Y241345D01*
X459409Y241470D01*
X459370Y241514D01*
X459339Y241564D01*
X459239Y241667D01*
X459146Y241775D01*
X459098Y241814D01*
X459077Y241837D01*
X459072Y241840D01*
X459059Y241854D01*
X458991Y241901D01*
X458888Y241984D01*
X458880Y241990D01*
X458813Y242027D01*
X458750Y242071D01*
X458735Y242078D01*
X458728Y242083D01*
X458652Y242115D01*
X458636Y242123D01*
X458527Y242182D01*
X458453Y242205D01*
X458383Y242237D01*
X458261Y242265D01*
X458154Y242298D01*
X457508Y242897D01*
X457455Y242938D01*
X457271Y243086D01*
X456537Y243586D01*
X456519Y243635D01*
X456452Y243741D01*
X456394Y243852D01*
X456346Y243911D01*
X456305Y243976D01*
X456195Y244096D01*
X456140Y244164D01*
X456112Y244187D01*
X456081Y244220D01*
X455445Y244810D01*
X455384Y244856D01*
X455329Y244909D01*
X455224Y244977D01*
X455124Y245053D01*
X455055Y245086D01*
X454991Y245128D01*
X454875Y245174D01*
X454762Y245228D01*
X454688Y245247D01*
X454617Y245275D01*
X454606Y245277D01*
X454567Y245308D01*
X454504Y245340D01*
X454446Y245380D01*
X454325Y245431D01*
X454208Y245491D01*
X454140Y245510D01*
X454075Y245537D01*
X453947Y245563D01*
X453820Y245599D01*
X453750Y245604D01*
X453681Y245618D01*
X453550Y245619D01*
X453419Y245628D01*
X453349Y245619D01*
X453278Y245620D01*
X453150Y245594D01*
X453019Y245578D01*
X452952Y245555D01*
X452883Y245542D01*
X452762Y245491D01*
X452637Y245449D01*
X452577Y245414D01*
X452512Y245387D01*
X452402Y245314D01*
X452289Y245249D01*
X452226Y245196D01*
X452177Y245163D01*
X452124Y245109D01*
X452036Y245034D01*
X439728Y232727D01*
X382659Y232727D01*
X380335Y235051D01*
X380320Y235095D01*
X380269Y235262D01*
X380256Y235286D01*
X380248Y235311D01*
X380160Y235463D01*
X380077Y235616D01*
X380060Y235637D01*
X380047Y235660D01*
X379832Y235913D01*
X361960Y253785D01*
X361939Y253802D01*
X361922Y253823D01*
X361784Y253930D01*
X361648Y254040D01*
X361625Y254053D01*
X361603Y254069D01*
X361447Y254147D01*
X361293Y254229D01*
X361267Y254237D01*
X361243Y254249D01*
X361074Y254294D01*
X360907Y254344D01*
X360880Y254346D01*
X360854Y254353D01*
X360523Y254380D01*
X330984Y254380D01*
X330966Y254378D01*
X330948Y254380D01*
X330766Y254359D01*
X330583Y254340D01*
X330566Y254335D01*
X330549Y254333D01*
X330374Y254276D01*
X330198Y254222D01*
X330183Y254214D01*
X330166Y254208D01*
X330006Y254118D01*
X329844Y254030D01*
X329831Y254019D01*
X329815Y254010D01*
X329676Y253890D01*
X329535Y253773D01*
X329524Y253759D01*
X329510Y253747D01*
X329398Y253602D01*
X329283Y253459D01*
X329275Y253443D01*
X329264Y253429D01*
X329182Y253264D01*
X329097Y253102D01*
X329092Y253085D01*
X329084Y253069D01*
X329037Y252890D01*
X328986Y252715D01*
X328984Y252697D01*
X328980Y252680D01*
X328953Y252349D01*
X328953Y240481D01*
X328955Y240455D01*
X328953Y240428D01*
X328975Y240254D01*
X328993Y240081D01*
X329000Y240055D01*
X329004Y240028D01*
X329059Y239863D01*
X329111Y239696D01*
X329124Y239672D01*
X329132Y239647D01*
X329219Y239495D01*
X329303Y239342D01*
X329320Y239321D01*
X329333Y239298D01*
X329548Y239045D01*
X333329Y235264D01*
X333350Y235247D01*
X333367Y235226D01*
X333505Y235119D01*
X333640Y235009D01*
X333664Y234996D01*
X333685Y234980D01*
X333842Y234902D01*
X333996Y234820D01*
X334022Y234812D01*
X334046Y234800D01*
X334215Y234755D01*
X334382Y234705D01*
X334409Y234703D01*
X334434Y234696D01*
X334765Y234669D01*
X336170Y234669D01*
X338400Y233745D01*
X340107Y232038D01*
X341031Y229807D01*
X341031Y227393D01*
X340107Y225162D01*
X339177Y224232D01*
X339101Y224140D01*
X339018Y224053D01*
X338974Y223984D01*
X338922Y223921D01*
X338866Y223815D01*
X338801Y223714D01*
X338772Y223637D01*
X338734Y223565D01*
X338699Y223450D01*
X338656Y223338D01*
X338642Y223258D01*
X338619Y223179D01*
X338608Y223060D01*
X338588Y222941D01*
X338590Y222860D01*
X338582Y222778D01*
X338595Y222659D01*
X338599Y222539D01*
X338617Y222459D01*
X338626Y222378D01*
X338662Y222263D01*
X338689Y222147D01*
X338723Y222072D01*
X338747Y221994D01*
X338805Y221889D01*
X338855Y221780D01*
X338903Y221713D01*
X338942Y221642D01*
X339020Y221550D01*
X339090Y221453D01*
X339150Y221397D01*
X339203Y221335D01*
X339297Y221260D01*
X339385Y221179D01*
X339466Y221127D01*
X339519Y221085D01*
X339581Y221054D01*
X339665Y221000D01*
X339967Y220840D01*
X340038Y220811D01*
X340105Y220774D01*
X340224Y220736D01*
X340340Y220688D01*
X340415Y220674D01*
X340488Y220650D01*
X340613Y220636D01*
X340736Y220613D01*
X340812Y220614D01*
X340888Y220605D01*
X341051Y220616D01*
X341138Y220617D01*
X341173Y220624D01*
X341219Y220627D01*
X342074Y220756D01*
X342148Y220775D01*
X342224Y220785D01*
X342343Y220825D01*
X342464Y220855D01*
X342533Y220889D01*
X342606Y220913D01*
X342715Y220975D01*
X342815Y221024D01*
X343696Y221024D01*
X343763Y221030D01*
X343999Y221046D01*
X344876Y221179D01*
X344923Y221155D01*
X345044Y221123D01*
X345162Y221081D01*
X345238Y221071D01*
X345312Y221051D01*
X345475Y221037D01*
X345561Y221025D01*
X345597Y221027D01*
X345643Y221024D01*
X346507Y221024D01*
X346583Y221031D01*
X346660Y221029D01*
X346783Y221051D01*
X346908Y221064D01*
X346981Y221086D01*
X347056Y221099D01*
X347173Y221145D01*
X347280Y221178D01*
X348151Y221046D01*
X348218Y221043D01*
X348454Y221024D01*
X349341Y221024D01*
X349384Y220994D01*
X349499Y220944D01*
X349609Y220885D01*
X349683Y220863D01*
X349753Y220832D01*
X349912Y220795D01*
X349995Y220770D01*
X350031Y220767D01*
X350076Y220756D01*
X350931Y220627D01*
X351007Y220624D01*
X351083Y220610D01*
X351208Y220614D01*
X351333Y220607D01*
X351408Y220618D01*
X351485Y220620D01*
X351607Y220648D01*
X351717Y220665D01*
X352560Y220405D01*
X352626Y220391D01*
X352856Y220337D01*
X353733Y220205D01*
X353771Y220169D01*
X353877Y220102D01*
X353977Y220028D01*
X354047Y219995D01*
X354111Y219955D01*
X354263Y219894D01*
X354342Y219857D01*
X354377Y219848D01*
X354419Y219831D01*
X355246Y219576D01*
X355321Y219561D01*
X355393Y219537D01*
X355517Y219521D01*
X355640Y219496D01*
X355717Y219496D01*
X355793Y219487D01*
X355918Y219496D01*
X356029Y219496D01*
X356823Y219114D01*
X356886Y219090D01*
X357106Y219003D01*
X357954Y218741D01*
X357986Y218700D01*
X358081Y218618D01*
X358169Y218529D01*
X358233Y218487D01*
X358291Y218437D01*
X358431Y218354D01*
X358504Y218306D01*
X358537Y218292D01*
X358577Y218269D01*
X359356Y217894D01*
X359427Y217868D01*
X359496Y217833D01*
X359616Y217799D01*
X359734Y217756D01*
X359810Y217744D01*
X359883Y217724D01*
X360008Y217714D01*
X360118Y217697D01*
X360847Y217201D01*
X360906Y217169D01*
X361110Y217049D01*
X361909Y216664D01*
X361934Y216619D01*
X362016Y216524D01*
X362090Y216423D01*
X362147Y216371D01*
X362197Y216313D01*
X362323Y216211D01*
X362388Y216152D01*
X362419Y216134D01*
X362455Y216105D01*
X363169Y215618D01*
X363236Y215581D01*
X363298Y215536D01*
X363413Y215485D01*
X363523Y215425D01*
X363596Y215402D01*
X363665Y215371D01*
X363788Y215343D01*
X363894Y215310D01*
X364540Y214710D01*
X364594Y214670D01*
X364777Y214521D01*
X365511Y214021D01*
X365529Y213972D01*
X365596Y213866D01*
X365654Y213755D01*
X365702Y213696D01*
X365743Y213631D01*
X365853Y213511D01*
X365908Y213443D01*
X365936Y213420D01*
X365967Y213386D01*
X366601Y212798D01*
X366662Y212752D01*
X366716Y212699D01*
X366822Y212631D01*
X366922Y212555D01*
X366990Y212522D01*
X367055Y212480D01*
X367171Y212434D01*
X367272Y212386D01*
X367821Y211697D01*
X367868Y211649D01*
X368028Y211474D01*
X368678Y210871D01*
X368689Y210820D01*
X368739Y210705D01*
X368780Y210587D01*
X368819Y210521D01*
X368850Y210451D01*
X368941Y210315D01*
X368985Y210240D01*
X369009Y210213D01*
X369035Y210175D01*
X369574Y209499D01*
X369627Y209444D01*
X369673Y209383D01*
X369767Y209300D01*
X369855Y209211D01*
X369918Y209168D01*
X369975Y209117D01*
X370084Y209054D01*
X370176Y208991D01*
X370616Y208228D01*
X370656Y208174D01*
X370787Y207977D01*
X371341Y207284D01*
X371344Y207231D01*
X371376Y207110D01*
X371399Y206987D01*
X371428Y206916D01*
X371448Y206842D01*
X371517Y206695D01*
X371550Y206614D01*
X371570Y206584D01*
X371590Y206543D01*
X372022Y205794D01*
X372066Y205732D01*
X372103Y205664D01*
X372184Y205568D01*
X372257Y205467D01*
X372313Y205415D01*
X372362Y205356D01*
X372460Y205278D01*
X372541Y205202D01*
X372863Y204382D01*
X372894Y204322D01*
X372995Y204108D01*
X373439Y203340D01*
X373434Y203288D01*
X373448Y203163D01*
X373453Y203038D01*
X373470Y202963D01*
X373479Y202887D01*
X373526Y202731D01*
X373546Y202646D01*
X373561Y202614D01*
X373574Y202570D01*
X373890Y201765D01*
X373925Y201697D01*
X373951Y201625D01*
X374017Y201518D01*
X374074Y201406D01*
X374121Y201347D01*
X374161Y201281D01*
X374247Y201189D01*
X374316Y201102D01*
X374512Y200243D01*
X374533Y200179D01*
X374601Y199953D01*
X374926Y199127D01*
X374913Y199076D01*
X374909Y198951D01*
X374894Y198827D01*
X374901Y198750D01*
X374898Y198674D01*
X374921Y198512D01*
X374929Y198425D01*
X374939Y198391D01*
X374945Y198345D01*
X375138Y197502D01*
X375162Y197430D01*
X375177Y197355D01*
X375226Y197239D01*
X375266Y197121D01*
X375304Y197054D01*
X375333Y196984D01*
X375404Y196880D01*
X375460Y196784D01*
X375525Y195905D01*
X375537Y195839D01*
X375571Y195605D01*
X375768Y194740D01*
X375749Y194693D01*
X375725Y194569D01*
X375692Y194447D01*
X375688Y194372D01*
X375673Y194297D01*
X375672Y194133D01*
X375670Y194107D01*
X375667Y194063D01*
X375667Y194059D01*
X375666Y194045D01*
X375671Y194010D01*
X375671Y193965D01*
X375672Y193948D01*
X375697Y193806D01*
X375714Y193663D01*
X375732Y193608D01*
X375742Y193551D01*
X375794Y193417D01*
X375839Y193280D01*
X375867Y193230D01*
X375888Y193176D01*
X375966Y193055D01*
X376036Y192930D01*
X376074Y192886D01*
X376105Y192838D01*
X376206Y192734D01*
X376300Y192625D01*
X376345Y192590D01*
X376385Y192548D01*
X376504Y192466D01*
X376618Y192378D01*
X376669Y192353D01*
X376717Y192320D01*
X376849Y192263D01*
X376978Y192199D01*
X377034Y192184D01*
X377087Y192161D01*
X377228Y192132D01*
X377367Y192094D01*
X377433Y192089D01*
X377481Y192079D01*
X377564Y192078D01*
X377698Y192067D01*
X413234Y192067D01*
X413177Y191352D01*
X413181Y191324D01*
X413176Y191296D01*
X413193Y191226D01*
X413201Y191155D01*
X413216Y191130D01*
X413222Y191103D01*
X413265Y191045D01*
X413301Y190982D01*
X413323Y190965D01*
X413340Y190942D01*
X413402Y190906D01*
X413459Y190862D01*
X413487Y190855D01*
X413511Y190841D01*
X413611Y190824D01*
X413652Y190814D01*
X413662Y190815D01*
X413675Y190813D01*
X432675Y190813D01*
X432751Y190829D01*
G37*
G36*
X459663Y291626D02*
X459663Y291626D01*
X459725Y291625D01*
X459862Y291651D01*
X460001Y291669D01*
X460060Y291688D01*
X460120Y291700D01*
X460303Y291770D01*
X460382Y291797D01*
X460403Y291808D01*
X460430Y291819D01*
X460925Y292057D01*
X460982Y292093D01*
X461188Y292209D01*
X461921Y292709D01*
X461973Y292709D01*
X462096Y292732D01*
X462221Y292746D01*
X462293Y292769D01*
X462369Y292783D01*
X462521Y292842D01*
X462604Y292869D01*
X462635Y292886D01*
X462678Y292903D01*
X463459Y293279D01*
X463524Y293319D01*
X463594Y293350D01*
X463696Y293424D01*
X463803Y293489D01*
X463859Y293541D01*
X463921Y293585D01*
X464006Y293677D01*
X464088Y293753D01*
X464930Y294013D01*
X464992Y294039D01*
X465213Y294124D01*
X466012Y294509D01*
X466063Y294501D01*
X466189Y294505D01*
X466314Y294501D01*
X466389Y294513D01*
X466466Y294516D01*
X466625Y294551D01*
X466711Y294565D01*
X466745Y294577D01*
X466790Y294587D01*
X467618Y294843D01*
X467689Y294873D01*
X467762Y294894D01*
X467874Y294951D01*
X467989Y294999D01*
X468052Y295042D01*
X468121Y295077D01*
X468218Y295155D01*
X468311Y295218D01*
X469182Y295350D01*
X469247Y295366D01*
X469478Y295417D01*
X470326Y295679D01*
X470375Y295663D01*
X470500Y295649D01*
X470623Y295626D01*
X470700Y295627D01*
X470776Y295618D01*
X470938Y295629D01*
X471026Y295630D01*
X471061Y295637D01*
X471107Y295641D01*
X471964Y295770D01*
X472038Y295789D01*
X472114Y295798D01*
X472232Y295838D01*
X472354Y295869D01*
X472423Y295902D01*
X472495Y295927D01*
X472604Y295989D01*
X472704Y296038D01*
X473586Y296038D01*
X473652Y296045D01*
X473888Y296061D01*
X474766Y296193D01*
X474813Y296170D01*
X474933Y296138D01*
X475052Y296096D01*
X475127Y296085D01*
X475201Y296066D01*
X475364Y296052D01*
X475450Y296040D01*
X475486Y296042D01*
X475532Y296039D01*
X476399Y296039D01*
X476475Y296046D01*
X476551Y296045D01*
X476675Y296066D01*
X476800Y296079D01*
X476873Y296101D01*
X476948Y296115D01*
X477064Y296160D01*
X477171Y296193D01*
X478043Y296062D01*
X478110Y296059D01*
X478345Y296039D01*
X479233Y296040D01*
X479275Y296010D01*
X479390Y295960D01*
X479501Y295901D01*
X479574Y295879D01*
X479644Y295849D01*
X479803Y295811D01*
X479887Y295786D01*
X479923Y295783D01*
X479967Y295773D01*
X480825Y295644D01*
X480901Y295640D01*
X480976Y295627D01*
X481102Y295630D01*
X481227Y295623D01*
X481302Y295635D01*
X481379Y295637D01*
X481501Y295665D01*
X481611Y295681D01*
X482453Y295422D01*
X482519Y295408D01*
X482749Y295354D01*
X483627Y295222D01*
X483665Y295186D01*
X483771Y295119D01*
X483871Y295045D01*
X483941Y295012D01*
X484006Y294972D01*
X484157Y294911D01*
X484236Y294874D01*
X484271Y294866D01*
X484314Y294848D01*
X485142Y294593D01*
X485217Y294578D01*
X485290Y294554D01*
X485414Y294538D01*
X485537Y294513D01*
X485613Y294513D01*
X485689Y294504D01*
X485814Y294513D01*
X485926Y294513D01*
X486720Y294131D01*
X486783Y294108D01*
X487002Y294020D01*
X487850Y293759D01*
X487883Y293717D01*
X487977Y293636D01*
X488066Y293547D01*
X488130Y293504D01*
X488188Y293454D01*
X488328Y293372D01*
X488401Y293324D01*
X488434Y293310D01*
X488475Y293286D01*
X488501Y293274D01*
X488635Y293225D01*
X488766Y293169D01*
X488824Y293156D01*
X488879Y293136D01*
X489020Y293115D01*
X489160Y293085D01*
X489219Y293085D01*
X489277Y293076D01*
X489420Y293083D01*
X489562Y293081D01*
X489621Y293093D01*
X489680Y293095D01*
X489818Y293130D01*
X489958Y293157D01*
X490013Y293179D01*
X490070Y293194D01*
X490199Y293255D01*
X490331Y293309D01*
X490380Y293342D01*
X490433Y293367D01*
X490547Y293453D01*
X490666Y293532D01*
X490708Y293574D01*
X490755Y293609D01*
X490850Y293716D01*
X490951Y293816D01*
X490989Y293872D01*
X491023Y293910D01*
X491065Y293981D01*
X491140Y294089D01*
X508883Y324822D01*
X509491Y324402D01*
X509518Y324390D01*
X509540Y324372D01*
X509609Y324352D01*
X509674Y324324D01*
X509703Y324323D01*
X509731Y324315D01*
X509802Y324323D01*
X509873Y324323D01*
X509900Y324334D01*
X509929Y324337D01*
X509991Y324373D01*
X510056Y324400D01*
X510077Y324421D01*
X510102Y324435D01*
X510165Y324512D01*
X510195Y324543D01*
X510199Y324553D01*
X510208Y324563D01*
X519708Y341063D01*
X519718Y341095D01*
X519727Y341108D01*
X519731Y341133D01*
X519732Y341136D01*
X519763Y341207D01*
X519763Y341230D01*
X519771Y341252D01*
X519765Y341329D01*
X519766Y341406D01*
X519756Y341430D01*
X519755Y341450D01*
X519734Y341490D01*
X519708Y341562D01*
X510208Y358062D01*
X510189Y358083D01*
X510176Y358110D01*
X510123Y358157D01*
X510076Y358211D01*
X510050Y358223D01*
X510029Y358243D01*
X509961Y358266D01*
X509897Y358297D01*
X509868Y358298D01*
X509841Y358307D01*
X509769Y358303D01*
X509698Y358306D01*
X509671Y358296D01*
X509642Y358294D01*
X509552Y358251D01*
X509512Y358237D01*
X509504Y358229D01*
X509491Y358223D01*
X508883Y357803D01*
X491140Y388536D01*
X491057Y388652D01*
X490980Y388772D01*
X490939Y388815D01*
X490905Y388863D01*
X490801Y388960D01*
X490702Y389063D01*
X490654Y389097D01*
X490610Y389137D01*
X490489Y389212D01*
X490372Y389293D01*
X490318Y389317D01*
X490267Y389348D01*
X490133Y389397D01*
X490003Y389454D01*
X489945Y389467D01*
X489889Y389487D01*
X489749Y389509D01*
X489609Y389539D01*
X489550Y389540D01*
X489491Y389549D01*
X489349Y389542D01*
X489207Y389544D01*
X489148Y389533D01*
X489089Y389531D01*
X488951Y389496D01*
X488811Y389470D01*
X488748Y389446D01*
X488698Y389434D01*
X488624Y389398D01*
X488501Y389351D01*
X488475Y389339D01*
X488409Y389298D01*
X488338Y389267D01*
X488237Y389194D01*
X488131Y389129D01*
X488074Y389077D01*
X488011Y389032D01*
X487927Y388940D01*
X487844Y388864D01*
X487002Y388605D01*
X486941Y388579D01*
X486720Y388494D01*
X485920Y388109D01*
X485869Y388118D01*
X485743Y388113D01*
X485618Y388118D01*
X485543Y388106D01*
X485466Y388103D01*
X485307Y388068D01*
X485221Y388054D01*
X485187Y388042D01*
X485142Y388032D01*
X484314Y387777D01*
X484243Y387747D01*
X484169Y387726D01*
X484058Y387669D01*
X483943Y387620D01*
X483879Y387577D01*
X483811Y387543D01*
X483713Y387465D01*
X483621Y387402D01*
X482749Y387271D01*
X482685Y387254D01*
X482453Y387203D01*
X481605Y386942D01*
X481556Y386958D01*
X481431Y386972D01*
X481308Y386996D01*
X481232Y386995D01*
X481156Y387004D01*
X480993Y386993D01*
X480906Y386992D01*
X480870Y386984D01*
X480825Y386981D01*
X479967Y386852D01*
X479893Y386834D01*
X479817Y386824D01*
X479698Y386784D01*
X479577Y386753D01*
X479508Y386720D01*
X479436Y386696D01*
X479327Y386633D01*
X479227Y386585D01*
X478345Y386586D01*
X478278Y386579D01*
X478043Y386563D01*
X477165Y386431D01*
X477118Y386454D01*
X476998Y386487D01*
X476879Y386528D01*
X476803Y386539D01*
X476730Y386559D01*
X476567Y386572D01*
X476481Y386585D01*
X476445Y386582D01*
X476399Y386586D01*
X475532Y386586D01*
X475456Y386579D01*
X475379Y386581D01*
X475256Y386559D01*
X475131Y386547D01*
X475058Y386524D01*
X474983Y386511D01*
X474866Y386465D01*
X474760Y386433D01*
X473888Y386564D01*
X473821Y386568D01*
X473586Y386587D01*
X472698Y386587D01*
X472655Y386617D01*
X472541Y386668D01*
X472430Y386726D01*
X472357Y386748D01*
X472287Y386779D01*
X472128Y386816D01*
X472044Y386841D01*
X472008Y386844D01*
X471964Y386855D01*
X471195Y386971D01*
X471025Y386980D01*
X470856Y386994D01*
X470824Y386990D01*
X470793Y386992D01*
X470625Y386966D01*
X470456Y386947D01*
X470426Y386937D01*
X470395Y386932D01*
X470235Y386874D01*
X470073Y386822D01*
X470046Y386806D01*
X470016Y386795D01*
X469871Y386708D01*
X469723Y386624D01*
X469699Y386603D01*
X469672Y386587D01*
X469547Y386472D01*
X469418Y386361D01*
X469399Y386336D01*
X469375Y386314D01*
X469275Y386177D01*
X469171Y386043D01*
X469157Y386014D01*
X469138Y385989D01*
X469068Y385834D01*
X468992Y385682D01*
X468984Y385652D01*
X468970Y385623D01*
X468931Y385458D01*
X468887Y385293D01*
X468884Y385258D01*
X468878Y385231D01*
X468875Y385145D01*
X468860Y384963D01*
X468860Y346995D01*
X468863Y346969D01*
X468861Y346942D01*
X468883Y346768D01*
X468900Y346595D01*
X468908Y346569D01*
X468911Y346543D01*
X468953Y346419D01*
X468948Y344489D01*
X468948Y344486D01*
X468948Y344484D01*
X468948Y342135D01*
X468942Y342067D01*
X468860Y307406D01*
X468860Y307404D01*
X468860Y307401D01*
X468860Y305828D01*
X467741Y304714D01*
X467739Y304713D01*
X467737Y304711D01*
X458112Y295085D01*
X458072Y295037D01*
X458027Y294995D01*
X457945Y294882D01*
X457857Y294774D01*
X457828Y294719D01*
X457791Y294669D01*
X457733Y294541D01*
X457668Y294418D01*
X457650Y294359D01*
X457625Y294302D01*
X457593Y294166D01*
X457553Y294032D01*
X457548Y293970D01*
X457534Y293910D01*
X457529Y293770D01*
X457517Y293631D01*
X457524Y293569D01*
X457522Y293508D01*
X457545Y293370D01*
X457560Y293231D01*
X457579Y293172D01*
X457589Y293111D01*
X457639Y292980D01*
X457682Y292847D01*
X457712Y292793D01*
X457734Y292735D01*
X457809Y292617D01*
X457877Y292495D01*
X457917Y292447D01*
X457950Y292395D01*
X458047Y292294D01*
X458137Y292188D01*
X458186Y292149D01*
X458228Y292104D01*
X458343Y292025D01*
X458453Y291938D01*
X458508Y291910D01*
X458559Y291875D01*
X458687Y291819D01*
X458812Y291756D01*
X458872Y291739D01*
X458928Y291714D01*
X459065Y291685D01*
X459200Y291648D01*
X459262Y291643D01*
X459322Y291630D01*
X459462Y291628D01*
X459601Y291618D01*
X459663Y291626D01*
G37*
G36*
X478016Y388880D02*
X478016Y388880D01*
X478059Y388879D01*
X482052Y389479D01*
X482082Y389490D01*
X482125Y389496D01*
X485984Y390685D01*
X486012Y390700D01*
X486053Y390712D01*
X489691Y392463D01*
X489713Y392479D01*
X489739Y392489D01*
X489792Y392539D01*
X489850Y392583D01*
X489863Y392606D01*
X489883Y392625D01*
X489913Y392692D01*
X489949Y392755D01*
X489952Y392782D01*
X489963Y392807D01*
X489964Y392880D01*
X489973Y392953D01*
X489965Y392979D01*
X489965Y393006D01*
X489929Y393105D01*
X489917Y393144D01*
X489911Y393151D01*
X489907Y393162D01*
X462907Y439962D01*
X462889Y439982D01*
X462878Y440007D01*
X462824Y440056D01*
X462776Y440111D01*
X462751Y440123D01*
X462731Y440141D01*
X462662Y440165D01*
X462596Y440197D01*
X462569Y440198D01*
X462544Y440207D01*
X462471Y440202D01*
X462398Y440206D01*
X462372Y440196D01*
X462345Y440195D01*
X462249Y440151D01*
X462211Y440136D01*
X462204Y440130D01*
X462194Y440125D01*
X458857Y437852D01*
X458835Y437829D01*
X458799Y437805D01*
X455838Y435060D01*
X455819Y435034D01*
X455787Y435005D01*
X453269Y431849D01*
X453254Y431821D01*
X453227Y431788D01*
X451207Y428291D01*
X451197Y428261D01*
X451174Y428224D01*
X449698Y424466D01*
X449693Y424435D01*
X449676Y424395D01*
X448776Y420459D01*
X448776Y420427D01*
X448765Y420385D01*
X448462Y416359D01*
X448465Y416335D01*
X448462Y416315D01*
X448464Y416306D01*
X448462Y416284D01*
X448763Y412258D01*
X448771Y412227D01*
X448774Y412184D01*
X449671Y408247D01*
X449684Y408218D01*
X449693Y408176D01*
X451167Y404417D01*
X451184Y404390D01*
X451199Y404349D01*
X453217Y400852D01*
X453238Y400828D01*
X453259Y400790D01*
X455775Y397633D01*
X455800Y397612D01*
X455826Y397578D01*
X458785Y394831D01*
X458812Y394814D01*
X458843Y394784D01*
X462179Y392509D01*
X462208Y392496D01*
X462243Y392471D01*
X465881Y390718D01*
X465911Y390711D01*
X465950Y390691D01*
X469808Y389500D01*
X469840Y389497D01*
X469881Y389483D01*
X473873Y388880D01*
X473905Y388882D01*
X473947Y388874D01*
X477985Y388873D01*
X478016Y388880D01*
G37*
G36*
X218203Y388874D02*
X218203Y388874D01*
X218234Y388881D01*
X218277Y388880D01*
X222269Y389483D01*
X222299Y389494D01*
X222342Y389500D01*
X226200Y390691D01*
X226228Y390706D01*
X226270Y390718D01*
X229907Y392471D01*
X229932Y392491D01*
X229971Y392509D01*
X233307Y394784D01*
X233329Y394807D01*
X233365Y394831D01*
X236324Y397578D01*
X236343Y397604D01*
X236375Y397633D01*
X238891Y400790D01*
X238906Y400819D01*
X238933Y400852D01*
X240951Y404349D01*
X240961Y404380D01*
X240983Y404417D01*
X242457Y408176D01*
X242463Y408207D01*
X242479Y408247D01*
X243376Y412184D01*
X243377Y412216D01*
X243387Y412258D01*
X243688Y416284D01*
X243684Y416316D01*
X243685Y416332D01*
X243688Y416348D01*
X243687Y416352D01*
X243688Y416359D01*
X243385Y420385D01*
X243376Y420416D01*
X243374Y420459D01*
X242474Y424395D01*
X242461Y424424D01*
X242452Y424466D01*
X240976Y428224D01*
X240958Y428251D01*
X240943Y428291D01*
X238923Y431788D01*
X238902Y431811D01*
X238881Y431849D01*
X236363Y435005D01*
X236338Y435026D01*
X236312Y435060D01*
X233351Y437805D01*
X233324Y437822D01*
X233293Y437852D01*
X229956Y440125D01*
X229931Y440136D01*
X229910Y440153D01*
X229840Y440174D01*
X229773Y440202D01*
X229745Y440202D01*
X229719Y440210D01*
X229647Y440202D01*
X229574Y440201D01*
X229549Y440191D01*
X229522Y440188D01*
X229458Y440152D01*
X229391Y440123D01*
X229372Y440104D01*
X229349Y440090D01*
X229282Y440009D01*
X229253Y439980D01*
X229250Y439971D01*
X229243Y439962D01*
X202243Y393162D01*
X202234Y393136D01*
X202218Y393114D01*
X202203Y393043D01*
X202179Y392973D01*
X202182Y392946D01*
X202176Y392920D01*
X202189Y392848D01*
X202195Y392775D01*
X202208Y392751D01*
X202213Y392724D01*
X202253Y392664D01*
X202287Y392599D01*
X202308Y392581D01*
X202323Y392559D01*
X202409Y392498D01*
X202440Y392472D01*
X202449Y392469D01*
X202459Y392463D01*
X206097Y390712D01*
X206128Y390704D01*
X206166Y390685D01*
X210025Y389496D01*
X210057Y389493D01*
X210098Y389479D01*
X214091Y388879D01*
X214122Y388880D01*
X214165Y388873D01*
X218203Y388874D01*
G37*
G36*
X462503Y242423D02*
X462503Y242423D01*
X462576Y242424D01*
X462601Y242434D01*
X462628Y242437D01*
X462692Y242473D01*
X462759Y242502D01*
X462778Y242521D01*
X462801Y242535D01*
X462869Y242616D01*
X462897Y242645D01*
X462900Y242654D01*
X462907Y242663D01*
X489907Y289463D01*
X489916Y289489D01*
X489932Y289511D01*
X489947Y289582D01*
X489971Y289652D01*
X489968Y289679D01*
X489974Y289705D01*
X489961Y289777D01*
X489955Y289850D01*
X489942Y289874D01*
X489937Y289901D01*
X489897Y289962D01*
X489863Y290026D01*
X489842Y290044D01*
X489827Y290066D01*
X489741Y290127D01*
X489710Y290153D01*
X489701Y290156D01*
X489691Y290162D01*
X486053Y291913D01*
X486022Y291921D01*
X485984Y291940D01*
X482125Y293129D01*
X482093Y293132D01*
X482052Y293146D01*
X478059Y293746D01*
X478028Y293745D01*
X477985Y293752D01*
X473947Y293751D01*
X473916Y293744D01*
X473873Y293745D01*
X469881Y293142D01*
X469851Y293131D01*
X469808Y293125D01*
X465950Y291934D01*
X465922Y291919D01*
X465881Y291907D01*
X462243Y290154D01*
X462218Y290134D01*
X462179Y290116D01*
X458843Y287841D01*
X458821Y287818D01*
X458785Y287794D01*
X455826Y285047D01*
X455807Y285021D01*
X455775Y284992D01*
X453259Y281835D01*
X453244Y281806D01*
X453217Y281773D01*
X451199Y278276D01*
X451189Y278245D01*
X451167Y278208D01*
X449693Y274449D01*
X449687Y274418D01*
X449671Y274378D01*
X448774Y270441D01*
X448773Y270409D01*
X448763Y270367D01*
X448462Y266341D01*
X448466Y266309D01*
X448462Y266266D01*
X448765Y262240D01*
X448774Y262209D01*
X448776Y262166D01*
X449676Y258230D01*
X449689Y258201D01*
X449698Y258159D01*
X451174Y254401D01*
X451192Y254374D01*
X451207Y254334D01*
X453227Y250838D01*
X453248Y250814D01*
X453269Y250776D01*
X455787Y247620D01*
X455812Y247600D01*
X455838Y247565D01*
X458799Y244820D01*
X458826Y244803D01*
X458857Y244773D01*
X462194Y242500D01*
X462219Y242489D01*
X462240Y242472D01*
X462310Y242451D01*
X462377Y242423D01*
X462405Y242423D01*
X462431Y242415D01*
X462503Y242423D01*
G37*
G36*
X229679Y242423D02*
X229679Y242423D01*
X229752Y242419D01*
X229778Y242429D01*
X229805Y242430D01*
X229901Y242474D01*
X229939Y242489D01*
X229946Y242495D01*
X229956Y242500D01*
X233293Y244773D01*
X233315Y244796D01*
X233351Y244820D01*
X236312Y247565D01*
X236331Y247591D01*
X236363Y247620D01*
X238881Y250776D01*
X238896Y250804D01*
X238923Y250838D01*
X240943Y254334D01*
X240953Y254364D01*
X240976Y254401D01*
X242452Y258159D01*
X242457Y258190D01*
X242474Y258230D01*
X243374Y262166D01*
X243374Y262198D01*
X243385Y262240D01*
X243688Y266266D01*
X243684Y266298D01*
X243688Y266341D01*
X243387Y270367D01*
X243379Y270398D01*
X243376Y270441D01*
X242479Y274378D01*
X242466Y274407D01*
X242457Y274449D01*
X240983Y278208D01*
X240966Y278235D01*
X240951Y278276D01*
X238933Y281773D01*
X238912Y281797D01*
X238891Y281835D01*
X236375Y284992D01*
X236350Y285013D01*
X236324Y285047D01*
X233365Y287794D01*
X233338Y287811D01*
X233307Y287841D01*
X229971Y290116D01*
X229942Y290129D01*
X229907Y290154D01*
X226270Y291907D01*
X226239Y291914D01*
X226200Y291934D01*
X222342Y293125D01*
X222310Y293128D01*
X222269Y293142D01*
X218277Y293745D01*
X218245Y293743D01*
X218203Y293751D01*
X214165Y293752D01*
X214134Y293746D01*
X214091Y293746D01*
X210098Y293146D01*
X210068Y293135D01*
X210025Y293129D01*
X206166Y291940D01*
X206138Y291925D01*
X206097Y291913D01*
X202459Y290162D01*
X202437Y290146D01*
X202411Y290136D01*
X202358Y290086D01*
X202300Y290042D01*
X202287Y290019D01*
X202267Y290000D01*
X202237Y289933D01*
X202201Y289870D01*
X202198Y289843D01*
X202187Y289818D01*
X202186Y289745D01*
X202177Y289672D01*
X202185Y289646D01*
X202185Y289619D01*
X202221Y289520D01*
X202233Y289481D01*
X202239Y289474D01*
X202243Y289463D01*
X229243Y242663D01*
X229261Y242643D01*
X229272Y242618D01*
X229326Y242569D01*
X229374Y242514D01*
X229399Y242502D01*
X229419Y242484D01*
X229488Y242460D01*
X229554Y242428D01*
X229581Y242427D01*
X229606Y242418D01*
X229679Y242423D01*
G37*
G36*
X348124Y463895D02*
X348124Y463895D01*
X348167Y463894D01*
X352157Y464496D01*
X352187Y464507D01*
X352230Y464512D01*
X356086Y465702D01*
X356114Y465717D01*
X356156Y465729D01*
X359792Y467480D01*
X359817Y467499D01*
X359856Y467517D01*
X363190Y469791D01*
X363213Y469813D01*
X363249Y469837D01*
X366207Y472582D01*
X366226Y472608D01*
X366258Y472637D01*
X368774Y475792D01*
X368788Y475820D01*
X368816Y475853D01*
X370834Y479348D01*
X370844Y479378D01*
X370866Y479415D01*
X372340Y483172D01*
X372341Y483178D01*
X372343Y483180D01*
X372347Y483206D01*
X372362Y483243D01*
X373260Y487177D01*
X373261Y487209D01*
X373271Y487251D01*
X373573Y491275D01*
X373569Y491302D01*
X373574Y491329D01*
X373557Y491400D01*
X373548Y491472D01*
X373534Y491496D01*
X373528Y491522D01*
X373485Y491581D01*
X373448Y491644D01*
X373426Y491661D01*
X373410Y491683D01*
X373347Y491720D01*
X373289Y491764D01*
X373262Y491770D01*
X373239Y491784D01*
X373135Y491802D01*
X373096Y491811D01*
X373086Y491810D01*
X373075Y491812D01*
X319075Y491812D01*
X319048Y491806D01*
X319021Y491809D01*
X318952Y491787D01*
X318880Y491772D01*
X318858Y491757D01*
X318832Y491749D01*
X318776Y491701D01*
X318716Y491660D01*
X318702Y491637D01*
X318681Y491619D01*
X318649Y491554D01*
X318609Y491492D01*
X318605Y491465D01*
X318593Y491441D01*
X318583Y491336D01*
X318576Y491296D01*
X318578Y491287D01*
X318577Y491275D01*
X318879Y487251D01*
X318887Y487220D01*
X318890Y487177D01*
X319788Y483243D01*
X319801Y483214D01*
X319810Y483172D01*
X321284Y479415D01*
X321301Y479388D01*
X321316Y479348D01*
X323334Y475853D01*
X323355Y475829D01*
X323376Y475792D01*
X325892Y472637D01*
X325917Y472616D01*
X325943Y472582D01*
X328901Y469837D01*
X328928Y469821D01*
X328960Y469791D01*
X332294Y467517D01*
X332323Y467505D01*
X332358Y467480D01*
X335994Y465729D01*
X336025Y465721D01*
X336064Y465702D01*
X339920Y464512D01*
X339951Y464509D01*
X339993Y464496D01*
X343983Y463894D01*
X344015Y463896D01*
X344057Y463889D01*
X348093Y463889D01*
X348124Y463895D01*
G37*
G36*
X373102Y190819D02*
X373102Y190819D01*
X373129Y190816D01*
X373198Y190838D01*
X373270Y190853D01*
X373292Y190868D01*
X373318Y190877D01*
X373374Y190924D01*
X373434Y190965D01*
X373448Y190988D01*
X373469Y191006D01*
X373502Y191071D01*
X373541Y191133D01*
X373545Y191160D01*
X373557Y191184D01*
X373567Y191289D01*
X373574Y191329D01*
X373572Y191338D01*
X373573Y191350D01*
X373271Y195374D01*
X373263Y195405D01*
X373260Y195448D01*
X372362Y199382D01*
X372349Y199411D01*
X372340Y199453D01*
X370866Y203210D01*
X370849Y203237D01*
X370834Y203277D01*
X368816Y206772D01*
X368795Y206796D01*
X368774Y206833D01*
X366258Y209988D01*
X366233Y210009D01*
X366207Y210043D01*
X363249Y212788D01*
X363222Y212804D01*
X363190Y212834D01*
X359856Y215108D01*
X359827Y215120D01*
X359792Y215145D01*
X356156Y216896D01*
X356125Y216904D01*
X356086Y216923D01*
X352230Y218113D01*
X352199Y218116D01*
X352157Y218129D01*
X348167Y218731D01*
X348135Y218729D01*
X348093Y218736D01*
X344057Y218736D01*
X344026Y218730D01*
X343983Y218731D01*
X339993Y218129D01*
X339963Y218118D01*
X339920Y218113D01*
X336064Y216923D01*
X336036Y216908D01*
X335994Y216896D01*
X332358Y215145D01*
X332333Y215126D01*
X332294Y215108D01*
X328960Y212834D01*
X328937Y212812D01*
X328901Y212788D01*
X325943Y210043D01*
X325925Y210017D01*
X325892Y209988D01*
X323376Y206833D01*
X323362Y206805D01*
X323334Y206772D01*
X321316Y203277D01*
X321306Y203247D01*
X321284Y203210D01*
X319810Y199453D01*
X319804Y199422D01*
X319788Y199382D01*
X318890Y195448D01*
X318889Y195416D01*
X318879Y195374D01*
X318577Y191350D01*
X318581Y191323D01*
X318576Y191296D01*
X318593Y191225D01*
X318602Y191153D01*
X318616Y191129D01*
X318622Y191103D01*
X318665Y191044D01*
X318702Y190981D01*
X318724Y190964D01*
X318740Y190942D01*
X318803Y190905D01*
X318861Y190861D01*
X318888Y190855D01*
X318911Y190841D01*
X319015Y190823D01*
X319054Y190814D01*
X319064Y190815D01*
X319075Y190813D01*
X373075Y190813D01*
X373102Y190819D01*
G37*
D10*
X403543Y352035D03*
X403543Y335035D03*
D11*
X429895Y330543D03*
X429895Y349543D03*
D12*
X407353Y273115D03*
X407353Y285115D03*
X407353Y297115D03*
D13*
X450533Y376238D03*
D14*
X400758Y432753D03*
X417758Y432753D03*
X262328Y295593D03*
X279328Y295593D03*
X415535Y370205D03*
X398535Y370205D03*
D15*
X394995Y396240D03*
X413995Y396240D03*
D10*
X283455Y367665D03*
X266455Y367665D03*
D15*
X275883Y267335D03*
X256883Y267335D03*
D14*
X427355Y295348D03*
X427355Y312348D03*
D16*
X377444Y322782D03*
X377444Y317781D03*
X377444Y312779D03*
X377444Y307778D03*
X377444Y302777D03*
X377444Y297776D03*
X377444Y292774D03*
X377444Y287773D03*
X377444Y282772D03*
X377444Y277771D03*
X377444Y272769D03*
X377444Y267768D03*
D17*
X370407Y260731D03*
X365406Y260731D03*
X360404Y260731D03*
X355403Y260731D03*
X350402Y260731D03*
X345401Y260731D03*
X340399Y260731D03*
X335398Y260731D03*
X330397Y260731D03*
X325396Y260731D03*
X320394Y260731D03*
X315393Y260731D03*
D16*
X308356Y267768D03*
X308356Y272769D03*
X308356Y277771D03*
X308356Y282772D03*
X308356Y287773D03*
X308356Y292774D03*
X308356Y297776D03*
X308356Y302777D03*
X308356Y307778D03*
X308356Y312779D03*
X308356Y317781D03*
X308356Y322782D03*
D17*
X315393Y329819D03*
X320394Y329819D03*
X325396Y329819D03*
X330397Y329819D03*
X335398Y329819D03*
X340399Y329819D03*
X345401Y329819D03*
X350402Y329819D03*
X355403Y329819D03*
X360404Y329819D03*
X365406Y329819D03*
X370407Y329819D03*
D18*
X342900Y295275D03*
D19*
X428675Y484413D03*
X511275Y341313D03*
X428675Y198213D03*
X263475Y198213D03*
X180875Y341313D03*
X263475Y484413D03*
X469975Y412813D03*
X469975Y269813D03*
X346075Y198213D03*
X222175Y269813D03*
X222175Y412813D03*
X346075Y484413D03*
D14*
X346075Y379975D03*
X346075Y362975D03*
D10*
X340288Y398463D03*
X323288Y398463D03*
D20*
X242888Y374650D03*
X242888Y349250D03*
X242888Y323850D03*
D21*
X407353Y285115D02*
X417123Y285115D01*
D22*
X427355Y295348D01*
D23*
X309563Y242888D03*
X265113Y425450D03*
X265113Y393700D03*
D24*
X496988Y327025D02*
X511275Y341313D01*
X496988Y327025D02*
X474663Y327025D01*
D23*
X474663Y327025D03*
X449457Y327025D03*
D24*
X400758Y432753D02*
X364138Y436350D01*
X365125Y441325D01*
D23*
X365125Y441325D03*
X341313Y441325D03*
X333375Y242888D03*
D25*
X341160Y293535D02*
X342900Y295275D01*
X317500Y293688D02*
X316587Y292774D01*
X320001Y292774D02*
X320675Y292100D01*
X320675Y273050D01*
X315314Y267689D01*
D26*
X316587Y292774D02*
X308356Y292774D01*
X308356Y297776D02*
X281662Y297776D01*
D21*
X279328Y295593D02*
X279328Y304728D01*
D25*
X280915Y307903D02*
X280988Y307975D01*
X280915Y306315D02*
X279328Y304728D01*
D23*
X280988Y309563D03*
D21*
X280915Y307903D02*
X280915Y306315D01*
X280915Y307903D02*
X280915Y309490D01*
X280988Y309563D01*
D22*
X279328Y295593D02*
X279328Y270780D01*
D21*
X275883Y267335D01*
D25*
X279328Y295593D02*
X279478Y295593D01*
X281662Y297776D01*
D22*
X340288Y394825D02*
X340288Y398463D01*
D26*
X340288Y394825D02*
X339725Y394263D01*
D22*
X339725Y386325D01*
X346075Y379975D01*
X340288Y398463D02*
X340288Y410866D01*
X341609Y410866D01*
D23*
X341609Y410866D03*
D26*
X377444Y282772D02*
X391916Y282772D01*
X401638Y273050D01*
X407287Y273050D02*
X407353Y273115D01*
X407287Y273050D02*
X401638Y273050D01*
D23*
X393700Y260350D03*
D26*
X393700Y261938D01*
X386652Y268986D01*
X386652Y268923D01*
X382806Y272769D01*
X377444Y272769D01*
X377444Y264593D02*
X389625Y252413D01*
X377444Y264593D02*
X377444Y267768D01*
X465050Y407887D02*
X469975Y412813D01*
D25*
X410050Y252413D02*
X389625Y252413D01*
X410050Y252413D02*
X465050Y307412D01*
X465138Y344488D01*
X465050Y344576D01*
X465050Y407887D01*
D26*
X408938Y242888D02*
X408874Y242824D01*
D25*
X433388Y242888D02*
X438150Y247650D01*
X433388Y242888D02*
X408938Y242888D01*
D26*
X388314Y242824D02*
X370407Y260731D01*
D25*
X388314Y242824D02*
X408874Y242824D01*
D23*
X438150Y247650D03*
D26*
X365581Y260556D02*
X365406Y260731D01*
X365581Y260556D02*
X365581Y255194D01*
X384238Y236538D01*
D25*
X438150Y236538D01*
X469975Y268363D01*
D26*
X469975Y269813D01*
X325396Y260731D02*
X325396Y238167D01*
X334963Y228600D01*
D23*
X334963Y228600D03*
D26*
X320394Y223894D02*
X320394Y260731D01*
D22*
X320394Y223894D02*
X346075Y198213D01*
D25*
X254000Y407988D02*
X252413Y409575D01*
D23*
X252413Y409575D03*
D25*
X277813Y407988D02*
X325438Y360363D01*
D26*
X335398Y350402D01*
D25*
X277813Y407988D02*
X254000Y407988D01*
D26*
X335398Y350402D02*
X335398Y329819D01*
X220663Y401638D02*
X220663Y411300D01*
X222175Y412813D01*
D25*
X276225Y401638D02*
X317500Y360363D01*
D26*
X330397Y347466D01*
D25*
X276225Y401638D02*
X220663Y401638D01*
D26*
X330397Y347466D02*
X330397Y329819D01*
X308356Y287773D02*
X297298Y287773D01*
X295275Y285750D01*
X295275Y282575D01*
D23*
X295275Y282575D03*
D26*
X299102Y302777D02*
X308356Y302777D01*
X299102Y302777D02*
X284379Y317500D01*
D25*
X263513Y317500D01*
X225419Y279406D01*
D26*
X223831Y274638D02*
X223831Y271469D01*
X222175Y269813D01*
X225419Y276225D02*
X225419Y279406D01*
X225419Y276225D02*
X223831Y274638D01*
X308181Y317956D02*
X308356Y317781D01*
D24*
X257175Y323850D02*
X242888Y323850D01*
X257175Y323850D02*
X260350Y327025D01*
X284553Y327025D01*
X290708Y320870D01*
D26*
X293622Y317956D01*
X308181Y317956D01*
D24*
X242888Y360363D02*
X242888Y374650D01*
X242888Y360363D02*
X242888Y349250D01*
X242888Y360363D02*
X260350Y360363D01*
X266455Y366468D01*
X266455Y367665D01*
X268288Y360363D02*
X260350Y360363D01*
X268288Y360363D02*
X300038Y328613D01*
D26*
X305868Y322782D01*
X308356Y322782D01*
X308356Y272769D02*
X302932Y272769D01*
X298450Y268288D01*
X298450Y255588D01*
D23*
X298450Y255588D03*
D26*
X387567Y277771D02*
X399367Y265972D01*
X387567Y277771D02*
X377444Y277771D01*
D25*
X399367Y265972D02*
X415197Y265972D01*
X458636Y309411D01*
D22*
X453708Y376238D02*
X450533Y376238D01*
D25*
X453708Y376238D02*
X458636Y371309D01*
X458636Y309411D01*
D22*
X433388Y417123D02*
X417758Y432753D01*
X444500Y390525D02*
X450533Y384493D01*
X444500Y390525D02*
X444500Y404813D01*
X433388Y415925D01*
X433388Y417123D01*
X450533Y384493D02*
X450533Y376238D01*
D26*
X407353Y297115D02*
X401673Y297115D01*
X392331Y287773D02*
X377444Y287773D01*
X392331Y287773D02*
X401673Y297115D01*
X357188Y473300D02*
X346075Y484413D01*
X357188Y473300D02*
X357188Y407988D01*
X378277Y386898D02*
X378277Y345799D01*
X378277Y386898D02*
X357188Y407988D01*
X378277Y345799D02*
X370407Y337929D01*
X370407Y329819D01*
D23*
X323850Y461963D03*
D26*
X365406Y339753D02*
X365406Y329819D01*
D25*
X373063Y384175D02*
X350838Y406400D01*
X350838Y444500D02*
X333375Y461963D01*
X323850Y461963D01*
X350838Y444500D02*
X350838Y406400D01*
D26*
X373063Y347410D02*
X365406Y339753D01*
X373063Y347410D02*
X373063Y384175D01*
X377444Y302777D02*
X377444Y297776D01*
X377444Y302777D02*
X377444Y307778D01*
X386652Y311624D02*
X386652Y314969D01*
D25*
X403543Y331860D02*
X403543Y335035D01*
X403543Y331860D02*
X386652Y314969D01*
D26*
X382806Y307778D02*
X377444Y307778D01*
X382806Y307778D02*
X386652Y311624D01*
D22*
X408035Y330543D02*
X403543Y335035D01*
X408035Y330543D02*
X429895Y330543D01*
D21*
X398535Y392700D02*
X394995Y396240D01*
X398535Y392700D02*
X398535Y370205D01*
D23*
X412750Y322263D03*
D25*
X398535Y368618D02*
X398535Y370205D01*
X398535Y368618D02*
X393700Y363783D01*
X393700Y344878D01*
D22*
X412750Y325828D02*
X412750Y322263D01*
X412750Y325828D02*
X403543Y335035D01*
D25*
X393700Y344878D01*
D26*
X346075Y352500D02*
X346075Y362975D01*
X346075Y352500D02*
X347737Y350838D01*
X347737Y350350D02*
X345401Y348014D01*
X345401Y329819D01*
D23*
X347737Y350838D03*
X328613Y385763D03*
D26*
X346075Y363538D02*
X346075Y362975D01*
D25*
X346075Y363538D02*
X328613Y381000D01*
X328613Y385763D01*
D26*
X347737Y350838D02*
X347737Y350350D01*
X323288Y398333D02*
X323288Y398463D01*
D25*
X323288Y398333D02*
X317796Y392841D01*
X317796Y379709D01*
X332084Y365421D01*
D23*
X332084Y365421D03*
D26*
X336846Y355896D02*
X340224Y352519D01*
X336846Y360659D02*
X332084Y365421D01*
X336846Y360659D02*
X336846Y355896D01*
X340224Y329994D02*
X340399Y329819D01*
X340224Y329994D02*
X340224Y352519D01*
D23*
X364526Y350838D03*
D26*
X364526Y347889D01*
X355403Y338766D01*
X355403Y329819D01*
D23*
X352425Y393700D03*
D25*
X355600Y390525D01*
D26*
X355600Y346075D01*
X350402Y340877D01*
X350402Y329819D01*
X320394Y329819D02*
X320394Y335244D01*
D23*
X301625Y354013D03*
D26*
X320394Y335244D01*
X325396Y329819D02*
X325396Y341354D01*
X312738Y354013D01*
D23*
X312738Y354013D03*
D26*
X293688Y351525D02*
X315393Y329819D01*
X287338Y379413D02*
X285750Y379413D01*
X287338Y379413D02*
X293688Y373063D01*
X293688Y351525D01*
D23*
X285750Y379413D03*
D26*
X385064Y295205D02*
X402206Y312348D01*
D22*
X427355Y312348D01*
D26*
X385064Y295205D02*
X385064Y295033D01*
X382805Y292774D02*
X377444Y292774D01*
X382805Y292774D02*
X385064Y295033D01*
D25*
X441459Y322359D02*
X441459Y346663D01*
X441459Y322359D02*
X431447Y312348D01*
X427355Y312348D01*
X441459Y346663D02*
X438580Y349543D01*
X429895Y349543D01*
D21*
X429848Y349543D01*
X418735Y349543D01*
D22*
X429848Y349543D02*
X415535Y363855D01*
X415535Y370205D01*
D21*
X415535Y394700D02*
X413995Y396240D01*
X415535Y394700D02*
X415535Y370205D01*
D22*
X403543Y352035D02*
X406035Y349543D01*
X418735Y349543D01*
M02*
