G04 EAGLE Gerber RS-274X export*
G75*
%MOMM*%
%FSLAX34Y34*%
%LPD*%
%INSilkscreen Top*%
%IPPOS*%
%AMOC8*
5,1,8,0,0,1.08239X$1,22.5*%
G01*
%ADD10C,0.101600*%
%ADD11C,0.152400*%
%ADD12R,0.014731X0.014731*%
%ADD13R,0.147319X0.014731*%
%ADD14R,0.265175X0.014731*%
%ADD15R,0.383031X0.014731*%
%ADD16R,0.515619X0.014731*%
%ADD17R,0.633475X0.014731*%
%ADD18R,0.751331X0.014731*%
%ADD19R,0.883919X0.014731*%
%ADD20R,1.001775X0.014731*%
%ADD21R,1.119631X0.014731*%
%ADD22R,1.134363X0.014731*%
%ADD23R,1.149094X0.014731*%
%ADD24R,1.163825X0.014731*%
%ADD25R,1.178556X0.014731*%
%ADD26R,1.193288X0.014731*%
%ADD27R,1.222756X0.014731*%
%ADD28R,1.237488X0.014731*%
%ADD29R,1.266950X0.014731*%
%ADD30R,1.281681X0.014731*%
%ADD31R,1.311144X0.014731*%
%ADD32R,1.325881X0.014731*%
%ADD33R,1.355344X0.014731*%
%ADD34R,1.370075X0.014731*%
%ADD35R,1.384806X0.014731*%
%ADD36R,1.399538X0.014731*%
%ADD37R,1.414275X0.014731*%
%ADD38R,1.443738X0.014731*%
%ADD39R,1.458469X0.014731*%
%ADD40R,1.487931X0.014731*%
%ADD41R,1.502663X0.014731*%
%ADD42R,1.517394X0.014731*%
%ADD43R,1.532125X0.014731*%
%ADD44R,1.546856X0.014731*%
%ADD45R,1.576319X0.014731*%
%ADD46R,1.605788X0.014731*%
%ADD47R,1.620519X0.014731*%
%ADD48R,1.649981X0.014731*%
%ADD49R,1.664713X0.014731*%
%ADD50R,1.694175X0.014731*%
%ADD51R,1.708913X0.014731*%
%ADD52R,1.738375X0.014731*%
%ADD53R,1.753106X0.014731*%
%ADD54R,1.767838X0.014731*%
%ADD55R,1.782569X0.014731*%
%ADD56R,1.797306X0.014731*%
%ADD57R,0.117856X0.014731*%
%ADD58R,1.826769X0.014731*%
%ADD59R,0.235713X0.014731*%
%ADD60R,0.353569X0.014731*%
%ADD61R,1.856231X0.014731*%
%ADD62R,0.486156X0.014731*%
%ADD63R,1.870963X0.014731*%
%ADD64R,0.604013X0.014731*%
%ADD65R,0.721869X0.014731*%
%ADD66R,1.885694X0.014731*%
%ADD67R,0.839719X0.014731*%
%ADD68R,0.972306X0.014731*%
%ADD69R,1.090169X0.014731*%
%ADD70R,1.208025X0.014731*%
%ADD71R,1.252219X0.014731*%
%ADD72R,1.296412X0.014731*%
%ADD73R,1.340612X0.014731*%
%ADD74R,1.826763X0.014731*%
%ADD75R,1.414269X0.014731*%
%ADD76R,1.812031X0.014731*%
%ADD77R,1.429000X0.014731*%
%ADD78R,1.458462X0.014731*%
%ADD79R,1.473200X0.014731*%
%ADD80R,1.723644X0.014731*%
%ADD81R,1.694181X0.014731*%
%ADD82R,1.679450X0.014731*%
%ADD83R,1.561594X0.014731*%
%ADD84R,1.576325X0.014731*%
%ADD85R,1.591056X0.014731*%
%ADD86R,1.635250X0.014731*%
%ADD87R,1.561588X0.014731*%
%ADD88R,1.443731X0.014731*%
%ADD89R,1.797300X0.014731*%
%ADD90R,1.841500X0.014731*%
%ADD91R,1.311150X0.014731*%
%ADD92R,1.296419X0.014731*%
%ADD93R,1.193294X0.014731*%
%ADD94R,0.957575X0.014731*%
%ADD95R,0.589281X0.014731*%
%ADD96R,0.471425X0.014731*%
%ADD97R,0.220975X0.014731*%
%ADD98R,1.812038X0.014731*%
%ADD99R,0.103119X0.014731*%
%ADD100R,0.029463X0.014731*%
%ADD101R,0.162050X0.014731*%
%ADD102R,0.397763X0.014731*%
%ADD103R,0.648206X0.014731*%
%ADD104R,1.679444X0.014731*%
%ADD105R,1.016506X0.014731*%
%ADD106R,1.104900X0.014731*%
%ADD107R,1.222750X0.014731*%
%ADD108R,1.429006X0.014731*%
%ADD109R,1.208019X0.014731*%
%ADD110R,0.987044X0.014731*%
%ADD111R,0.854456X0.014731*%
%ADD112R,0.618744X0.014731*%
%ADD113R,0.500888X0.014731*%
%ADD114R,0.368300X0.014731*%
%ADD115R,0.132587X0.014731*%
%ADD116R,1.664719X0.014731*%
%ADD117R,1.075438X0.014731*%
%ADD118R,0.942844X0.014731*%
%ADD119R,0.707131X0.014731*%
%ADD120R,0.456694X0.014731*%
%ADD121R,0.088388X0.014731*%
%ADD122C,0.304800*%
%ADD123C,0.127000*%
%ADD124C,0.076200*%
%ADD125C,0.200000*%


D10*
X497967Y328224D02*
X497967Y331470D01*
X497965Y331583D01*
X497959Y331696D01*
X497949Y331809D01*
X497935Y331922D01*
X497918Y332034D01*
X497896Y332145D01*
X497871Y332255D01*
X497841Y332365D01*
X497808Y332473D01*
X497771Y332580D01*
X497731Y332686D01*
X497686Y332790D01*
X497638Y332893D01*
X497587Y332994D01*
X497532Y333093D01*
X497474Y333190D01*
X497412Y333285D01*
X497347Y333378D01*
X497279Y333468D01*
X497208Y333556D01*
X497133Y333642D01*
X497056Y333725D01*
X496976Y333805D01*
X496893Y333882D01*
X496807Y333957D01*
X496719Y334028D01*
X496629Y334096D01*
X496536Y334161D01*
X496441Y334223D01*
X496344Y334281D01*
X496245Y334336D01*
X496144Y334387D01*
X496041Y334435D01*
X495937Y334480D01*
X495831Y334520D01*
X495724Y334557D01*
X495616Y334590D01*
X495506Y334620D01*
X495396Y334645D01*
X495285Y334667D01*
X495173Y334684D01*
X495060Y334698D01*
X494947Y334708D01*
X494834Y334714D01*
X494721Y334716D01*
X494608Y334714D01*
X494495Y334708D01*
X494382Y334698D01*
X494269Y334684D01*
X494157Y334667D01*
X494046Y334645D01*
X493936Y334620D01*
X493826Y334590D01*
X493718Y334557D01*
X493611Y334520D01*
X493505Y334480D01*
X493401Y334435D01*
X493298Y334387D01*
X493197Y334336D01*
X493098Y334281D01*
X493001Y334223D01*
X492906Y334161D01*
X492813Y334096D01*
X492723Y334028D01*
X492635Y333957D01*
X492549Y333882D01*
X492466Y333805D01*
X492386Y333725D01*
X492309Y333642D01*
X492234Y333556D01*
X492163Y333468D01*
X492095Y333378D01*
X492030Y333285D01*
X491968Y333190D01*
X491910Y333093D01*
X491855Y332994D01*
X491804Y332893D01*
X491756Y332790D01*
X491711Y332686D01*
X491671Y332580D01*
X491634Y332473D01*
X491601Y332365D01*
X491571Y332255D01*
X491546Y332145D01*
X491524Y332034D01*
X491507Y331922D01*
X491493Y331809D01*
X491483Y331696D01*
X491477Y331583D01*
X491475Y331470D01*
X486283Y332119D02*
X486283Y328224D01*
X486283Y332119D02*
X486285Y332220D01*
X486291Y332320D01*
X486301Y332420D01*
X486314Y332520D01*
X486332Y332619D01*
X486353Y332718D01*
X486378Y332815D01*
X486407Y332912D01*
X486440Y333007D01*
X486476Y333101D01*
X486516Y333193D01*
X486559Y333284D01*
X486606Y333373D01*
X486656Y333460D01*
X486710Y333546D01*
X486767Y333629D01*
X486827Y333709D01*
X486890Y333788D01*
X486957Y333864D01*
X487026Y333937D01*
X487098Y334007D01*
X487172Y334075D01*
X487249Y334140D01*
X487329Y334201D01*
X487411Y334260D01*
X487495Y334315D01*
X487581Y334367D01*
X487669Y334416D01*
X487759Y334461D01*
X487851Y334503D01*
X487944Y334541D01*
X488039Y334575D01*
X488134Y334606D01*
X488231Y334633D01*
X488329Y334656D01*
X488428Y334676D01*
X488528Y334691D01*
X488628Y334703D01*
X488728Y334711D01*
X488829Y334715D01*
X488929Y334715D01*
X489030Y334711D01*
X489130Y334703D01*
X489230Y334691D01*
X489330Y334676D01*
X489429Y334656D01*
X489527Y334633D01*
X489624Y334606D01*
X489719Y334575D01*
X489814Y334541D01*
X489907Y334503D01*
X489999Y334461D01*
X490089Y334416D01*
X490177Y334367D01*
X490263Y334315D01*
X490347Y334260D01*
X490429Y334201D01*
X490509Y334140D01*
X490586Y334075D01*
X490660Y334007D01*
X490732Y333937D01*
X490801Y333864D01*
X490868Y333788D01*
X490931Y333709D01*
X490991Y333629D01*
X491048Y333546D01*
X491102Y333460D01*
X491152Y333373D01*
X491199Y333284D01*
X491242Y333193D01*
X491282Y333101D01*
X491318Y333007D01*
X491351Y332912D01*
X491380Y332815D01*
X491405Y332718D01*
X491426Y332619D01*
X491444Y332520D01*
X491457Y332420D01*
X491467Y332320D01*
X491473Y332220D01*
X491475Y332119D01*
X491476Y332119D02*
X491476Y329523D01*
X486283Y339005D02*
X497967Y342900D01*
X486283Y346795D01*
X497967Y351084D02*
X497967Y354330D01*
X497965Y354443D01*
X497959Y354556D01*
X497949Y354669D01*
X497935Y354782D01*
X497918Y354894D01*
X497896Y355005D01*
X497871Y355115D01*
X497841Y355225D01*
X497808Y355333D01*
X497771Y355440D01*
X497731Y355546D01*
X497686Y355650D01*
X497638Y355753D01*
X497587Y355854D01*
X497532Y355953D01*
X497474Y356050D01*
X497412Y356145D01*
X497347Y356238D01*
X497279Y356328D01*
X497208Y356416D01*
X497133Y356502D01*
X497056Y356585D01*
X496976Y356665D01*
X496893Y356742D01*
X496807Y356817D01*
X496719Y356888D01*
X496629Y356956D01*
X496536Y357021D01*
X496441Y357083D01*
X496344Y357141D01*
X496245Y357196D01*
X496144Y357247D01*
X496041Y357295D01*
X495937Y357340D01*
X495831Y357380D01*
X495724Y357417D01*
X495616Y357450D01*
X495506Y357480D01*
X495396Y357505D01*
X495285Y357527D01*
X495173Y357544D01*
X495060Y357558D01*
X494947Y357568D01*
X494834Y357574D01*
X494721Y357576D01*
X494608Y357574D01*
X494495Y357568D01*
X494382Y357558D01*
X494269Y357544D01*
X494157Y357527D01*
X494046Y357505D01*
X493936Y357480D01*
X493826Y357450D01*
X493718Y357417D01*
X493611Y357380D01*
X493505Y357340D01*
X493401Y357295D01*
X493298Y357247D01*
X493197Y357196D01*
X493098Y357141D01*
X493001Y357083D01*
X492906Y357021D01*
X492813Y356956D01*
X492723Y356888D01*
X492635Y356817D01*
X492549Y356742D01*
X492466Y356665D01*
X492386Y356585D01*
X492309Y356502D01*
X492234Y356416D01*
X492163Y356328D01*
X492095Y356238D01*
X492030Y356145D01*
X491968Y356050D01*
X491910Y355953D01*
X491855Y355854D01*
X491804Y355753D01*
X491756Y355650D01*
X491711Y355546D01*
X491671Y355440D01*
X491634Y355333D01*
X491601Y355225D01*
X491571Y355115D01*
X491546Y355005D01*
X491524Y354894D01*
X491507Y354782D01*
X491493Y354669D01*
X491483Y354556D01*
X491477Y354443D01*
X491475Y354330D01*
X486283Y354979D02*
X486283Y351084D01*
X486283Y354979D02*
X486285Y355080D01*
X486291Y355180D01*
X486301Y355280D01*
X486314Y355380D01*
X486332Y355479D01*
X486353Y355578D01*
X486378Y355675D01*
X486407Y355772D01*
X486440Y355867D01*
X486476Y355961D01*
X486516Y356053D01*
X486559Y356144D01*
X486606Y356233D01*
X486656Y356320D01*
X486710Y356406D01*
X486767Y356489D01*
X486827Y356569D01*
X486890Y356648D01*
X486957Y356724D01*
X487026Y356797D01*
X487098Y356867D01*
X487172Y356935D01*
X487249Y357000D01*
X487329Y357061D01*
X487411Y357120D01*
X487495Y357175D01*
X487581Y357227D01*
X487669Y357276D01*
X487759Y357321D01*
X487851Y357363D01*
X487944Y357401D01*
X488039Y357435D01*
X488134Y357466D01*
X488231Y357493D01*
X488329Y357516D01*
X488428Y357536D01*
X488528Y357551D01*
X488628Y357563D01*
X488728Y357571D01*
X488829Y357575D01*
X488929Y357575D01*
X489030Y357571D01*
X489130Y357563D01*
X489230Y357551D01*
X489330Y357536D01*
X489429Y357516D01*
X489527Y357493D01*
X489624Y357466D01*
X489719Y357435D01*
X489814Y357401D01*
X489907Y357363D01*
X489999Y357321D01*
X490089Y357276D01*
X490177Y357227D01*
X490263Y357175D01*
X490347Y357120D01*
X490429Y357061D01*
X490509Y357000D01*
X490586Y356935D01*
X490660Y356867D01*
X490732Y356797D01*
X490801Y356724D01*
X490868Y356648D01*
X490931Y356569D01*
X490991Y356489D01*
X491048Y356406D01*
X491102Y356320D01*
X491152Y356233D01*
X491199Y356144D01*
X491242Y356053D01*
X491282Y355961D01*
X491318Y355867D01*
X491351Y355772D01*
X491380Y355675D01*
X491405Y355578D01*
X491426Y355479D01*
X491444Y355380D01*
X491457Y355280D01*
X491467Y355180D01*
X491473Y355080D01*
X491475Y354979D01*
X491476Y354979D02*
X491476Y352383D01*
X412512Y200903D02*
X410026Y198816D01*
X412512Y200902D02*
X412598Y200977D01*
X412681Y201054D01*
X412761Y201134D01*
X412838Y201217D01*
X412913Y201302D01*
X412984Y201391D01*
X413052Y201481D01*
X413117Y201574D01*
X413179Y201669D01*
X413237Y201766D01*
X413292Y201865D01*
X413343Y201966D01*
X413391Y202069D01*
X413436Y202173D01*
X413476Y202279D01*
X413513Y202386D01*
X413546Y202494D01*
X413576Y202604D01*
X413601Y202714D01*
X413623Y202825D01*
X413640Y202937D01*
X413654Y203050D01*
X413664Y203163D01*
X413670Y203276D01*
X413672Y203389D01*
X413670Y203502D01*
X413664Y203615D01*
X413654Y203728D01*
X413640Y203841D01*
X413623Y203953D01*
X413601Y204064D01*
X413576Y204174D01*
X413546Y204284D01*
X413513Y204392D01*
X413476Y204499D01*
X413436Y204605D01*
X413391Y204709D01*
X413343Y204812D01*
X413292Y204913D01*
X413237Y205012D01*
X413179Y205109D01*
X413117Y205204D01*
X413052Y205297D01*
X412984Y205387D01*
X412913Y205475D01*
X412838Y205561D01*
X412761Y205644D01*
X412681Y205724D01*
X412598Y205801D01*
X412512Y205876D01*
X412424Y205947D01*
X412334Y206015D01*
X412241Y206080D01*
X412146Y206142D01*
X412049Y206200D01*
X411950Y206255D01*
X411849Y206306D01*
X411746Y206354D01*
X411642Y206399D01*
X411536Y206439D01*
X411429Y206476D01*
X411321Y206509D01*
X411211Y206539D01*
X411101Y206564D01*
X410990Y206586D01*
X410878Y206603D01*
X410765Y206617D01*
X410652Y206627D01*
X410539Y206633D01*
X410426Y206635D01*
X410313Y206633D01*
X410200Y206627D01*
X410087Y206617D01*
X409974Y206603D01*
X409862Y206586D01*
X409751Y206564D01*
X409641Y206539D01*
X409531Y206509D01*
X409423Y206476D01*
X409316Y206439D01*
X409210Y206399D01*
X409106Y206354D01*
X409003Y206306D01*
X408902Y206255D01*
X408803Y206200D01*
X408706Y206142D01*
X408611Y206080D01*
X408518Y206015D01*
X408428Y205947D01*
X408339Y205876D01*
X405499Y210270D02*
X402515Y207767D01*
X405499Y210270D02*
X405578Y210333D01*
X405658Y210393D01*
X405741Y210450D01*
X405827Y210504D01*
X405914Y210554D01*
X406003Y210601D01*
X406094Y210644D01*
X406186Y210684D01*
X406280Y210720D01*
X406375Y210753D01*
X406472Y210782D01*
X406569Y210807D01*
X406668Y210828D01*
X406767Y210846D01*
X406867Y210859D01*
X406967Y210869D01*
X407067Y210875D01*
X407168Y210877D01*
X407269Y210875D01*
X407369Y210869D01*
X407469Y210859D01*
X407569Y210846D01*
X407668Y210828D01*
X407767Y210807D01*
X407864Y210782D01*
X407961Y210753D01*
X408056Y210720D01*
X408150Y210684D01*
X408242Y210644D01*
X408333Y210601D01*
X408422Y210554D01*
X408509Y210504D01*
X408595Y210450D01*
X408678Y210393D01*
X408758Y210333D01*
X408837Y210270D01*
X408913Y210203D01*
X408986Y210134D01*
X409056Y210062D01*
X409124Y209988D01*
X409189Y209911D01*
X409250Y209831D01*
X409309Y209749D01*
X409364Y209665D01*
X409416Y209579D01*
X409465Y209491D01*
X409510Y209401D01*
X409552Y209309D01*
X409590Y209216D01*
X409624Y209121D01*
X409655Y209026D01*
X409682Y208929D01*
X409705Y208831D01*
X409725Y208732D01*
X409740Y208632D01*
X409752Y208532D01*
X409760Y208432D01*
X409764Y208331D01*
X409764Y208231D01*
X409760Y208130D01*
X409752Y208030D01*
X409740Y207930D01*
X409725Y207830D01*
X409705Y207731D01*
X409682Y207633D01*
X409655Y207536D01*
X409624Y207441D01*
X409590Y207346D01*
X409552Y207253D01*
X409510Y207161D01*
X409465Y207071D01*
X409416Y206983D01*
X409364Y206897D01*
X409309Y206813D01*
X409250Y206731D01*
X409189Y206651D01*
X409124Y206574D01*
X409056Y206500D01*
X408986Y206428D01*
X408913Y206359D01*
X408837Y206292D01*
X406848Y204623D01*
X410774Y214697D02*
X421268Y208250D01*
X416741Y219704D01*
X427537Y213511D02*
X430023Y215597D01*
X430023Y215596D02*
X430109Y215671D01*
X430192Y215748D01*
X430272Y215828D01*
X430349Y215911D01*
X430424Y215996D01*
X430495Y216085D01*
X430563Y216175D01*
X430628Y216268D01*
X430690Y216363D01*
X430748Y216460D01*
X430803Y216559D01*
X430854Y216660D01*
X430902Y216763D01*
X430947Y216867D01*
X430987Y216973D01*
X431024Y217080D01*
X431057Y217188D01*
X431087Y217298D01*
X431112Y217408D01*
X431134Y217519D01*
X431151Y217631D01*
X431165Y217744D01*
X431175Y217857D01*
X431181Y217970D01*
X431183Y218083D01*
X431181Y218196D01*
X431175Y218309D01*
X431165Y218422D01*
X431151Y218535D01*
X431134Y218647D01*
X431112Y218758D01*
X431087Y218868D01*
X431057Y218978D01*
X431024Y219086D01*
X430987Y219193D01*
X430947Y219299D01*
X430902Y219403D01*
X430854Y219506D01*
X430803Y219607D01*
X430748Y219706D01*
X430690Y219803D01*
X430628Y219898D01*
X430563Y219991D01*
X430495Y220081D01*
X430424Y220169D01*
X430349Y220255D01*
X430272Y220338D01*
X430192Y220418D01*
X430109Y220495D01*
X430023Y220570D01*
X429935Y220641D01*
X429845Y220709D01*
X429752Y220774D01*
X429657Y220836D01*
X429560Y220894D01*
X429461Y220949D01*
X429360Y221000D01*
X429257Y221048D01*
X429153Y221093D01*
X429047Y221133D01*
X428940Y221170D01*
X428832Y221203D01*
X428722Y221233D01*
X428612Y221258D01*
X428501Y221280D01*
X428389Y221297D01*
X428276Y221311D01*
X428163Y221321D01*
X428050Y221327D01*
X427937Y221329D01*
X427824Y221327D01*
X427711Y221321D01*
X427598Y221311D01*
X427485Y221297D01*
X427373Y221280D01*
X427262Y221258D01*
X427152Y221233D01*
X427042Y221203D01*
X426934Y221170D01*
X426827Y221133D01*
X426721Y221093D01*
X426617Y221048D01*
X426514Y221000D01*
X426413Y220949D01*
X426314Y220894D01*
X426217Y220836D01*
X426122Y220774D01*
X426029Y220709D01*
X425939Y220641D01*
X425850Y220570D01*
X423010Y224964D02*
X420027Y222461D01*
X423010Y224964D02*
X423089Y225027D01*
X423169Y225087D01*
X423252Y225144D01*
X423338Y225198D01*
X423425Y225248D01*
X423514Y225295D01*
X423605Y225338D01*
X423697Y225378D01*
X423791Y225414D01*
X423886Y225447D01*
X423983Y225476D01*
X424080Y225501D01*
X424179Y225522D01*
X424278Y225540D01*
X424378Y225553D01*
X424478Y225563D01*
X424578Y225569D01*
X424679Y225571D01*
X424780Y225569D01*
X424880Y225563D01*
X424980Y225553D01*
X425080Y225540D01*
X425179Y225522D01*
X425278Y225501D01*
X425375Y225476D01*
X425472Y225447D01*
X425567Y225414D01*
X425661Y225378D01*
X425753Y225338D01*
X425844Y225295D01*
X425933Y225248D01*
X426020Y225198D01*
X426106Y225144D01*
X426189Y225087D01*
X426269Y225027D01*
X426348Y224964D01*
X426424Y224897D01*
X426497Y224828D01*
X426567Y224756D01*
X426635Y224682D01*
X426700Y224605D01*
X426761Y224525D01*
X426820Y224443D01*
X426875Y224359D01*
X426927Y224273D01*
X426976Y224185D01*
X427021Y224095D01*
X427063Y224003D01*
X427101Y223910D01*
X427135Y223815D01*
X427166Y223720D01*
X427193Y223623D01*
X427216Y223525D01*
X427236Y223426D01*
X427251Y223326D01*
X427263Y223226D01*
X427271Y223126D01*
X427275Y223025D01*
X427275Y222925D01*
X427271Y222824D01*
X427263Y222724D01*
X427251Y222624D01*
X427236Y222524D01*
X427216Y222425D01*
X427193Y222327D01*
X427166Y222230D01*
X427135Y222135D01*
X427101Y222040D01*
X427063Y221947D01*
X427021Y221855D01*
X426976Y221765D01*
X426927Y221677D01*
X426875Y221591D01*
X426820Y221507D01*
X426761Y221425D01*
X426700Y221345D01*
X426635Y221268D01*
X426567Y221194D01*
X426497Y221122D01*
X426424Y221053D01*
X426348Y220986D01*
X424359Y219317D01*
X261924Y214495D02*
X259265Y216357D01*
X261923Y214495D02*
X262017Y214432D01*
X262113Y214372D01*
X262211Y214315D01*
X262311Y214262D01*
X262413Y214212D01*
X262517Y214166D01*
X262622Y214124D01*
X262728Y214085D01*
X262836Y214050D01*
X262945Y214019D01*
X263055Y213991D01*
X263166Y213968D01*
X263277Y213948D01*
X263389Y213932D01*
X263502Y213920D01*
X263615Y213912D01*
X263728Y213908D01*
X263842Y213908D01*
X263955Y213912D01*
X264068Y213920D01*
X264181Y213932D01*
X264293Y213948D01*
X264404Y213968D01*
X264515Y213991D01*
X264625Y214019D01*
X264734Y214050D01*
X264842Y214085D01*
X264948Y214124D01*
X265053Y214166D01*
X265157Y214212D01*
X265259Y214262D01*
X265359Y214315D01*
X265457Y214372D01*
X265553Y214432D01*
X265647Y214495D01*
X265738Y214562D01*
X265828Y214631D01*
X265915Y214704D01*
X265999Y214780D01*
X266080Y214859D01*
X266159Y214940D01*
X266235Y215024D01*
X266308Y215111D01*
X266377Y215201D01*
X266444Y215292D01*
X266507Y215386D01*
X266567Y215482D01*
X266624Y215580D01*
X266677Y215680D01*
X266727Y215782D01*
X266773Y215886D01*
X266815Y215991D01*
X266854Y216097D01*
X266889Y216205D01*
X266920Y216314D01*
X266948Y216424D01*
X266971Y216535D01*
X266991Y216646D01*
X267007Y216758D01*
X267019Y216871D01*
X267027Y216984D01*
X267031Y217097D01*
X267031Y217211D01*
X267027Y217324D01*
X267019Y217437D01*
X267007Y217550D01*
X266991Y217662D01*
X266971Y217773D01*
X266948Y217884D01*
X266920Y217994D01*
X266889Y218103D01*
X266854Y218211D01*
X266815Y218317D01*
X266773Y218422D01*
X266727Y218526D01*
X266677Y218628D01*
X266624Y218728D01*
X266567Y218826D01*
X266507Y218922D01*
X266444Y219016D01*
X266377Y219107D01*
X266308Y219197D01*
X266235Y219284D01*
X266159Y219368D01*
X266080Y219449D01*
X265999Y219528D01*
X265915Y219604D01*
X265828Y219677D01*
X265739Y219746D01*
X265647Y219813D01*
X269157Y223694D02*
X265967Y225928D01*
X269157Y223694D02*
X269238Y223634D01*
X269317Y223572D01*
X269394Y223506D01*
X269468Y223438D01*
X269539Y223367D01*
X269607Y223293D01*
X269673Y223216D01*
X269735Y223137D01*
X269795Y223056D01*
X269851Y222972D01*
X269904Y222887D01*
X269953Y222799D01*
X269999Y222710D01*
X270042Y222618D01*
X270081Y222525D01*
X270116Y222431D01*
X270148Y222336D01*
X270176Y222239D01*
X270200Y222141D01*
X270220Y222043D01*
X270237Y221943D01*
X270249Y221843D01*
X270258Y221743D01*
X270263Y221643D01*
X270264Y221542D01*
X270261Y221441D01*
X270254Y221341D01*
X270243Y221241D01*
X270229Y221141D01*
X270210Y221042D01*
X270188Y220944D01*
X270162Y220847D01*
X270132Y220750D01*
X270099Y220656D01*
X270062Y220562D01*
X270021Y220470D01*
X269976Y220379D01*
X269929Y220291D01*
X269877Y220204D01*
X269823Y220120D01*
X269765Y220037D01*
X269704Y219957D01*
X269640Y219879D01*
X269573Y219804D01*
X269504Y219731D01*
X269431Y219662D01*
X269356Y219595D01*
X269278Y219531D01*
X269198Y219470D01*
X269115Y219412D01*
X269031Y219358D01*
X268944Y219306D01*
X268856Y219259D01*
X268765Y219214D01*
X268673Y219173D01*
X268579Y219136D01*
X268485Y219103D01*
X268388Y219073D01*
X268291Y219047D01*
X268193Y219025D01*
X268094Y219006D01*
X267994Y218992D01*
X267894Y218981D01*
X267794Y218974D01*
X267693Y218971D01*
X267592Y218972D01*
X267492Y218977D01*
X267392Y218986D01*
X267292Y218998D01*
X267192Y219015D01*
X267094Y219035D01*
X266996Y219059D01*
X266899Y219087D01*
X266804Y219119D01*
X266710Y219154D01*
X266617Y219193D01*
X266525Y219236D01*
X266436Y219282D01*
X266348Y219331D01*
X266263Y219384D01*
X266179Y219440D01*
X264052Y220930D01*
X274798Y219744D02*
X271287Y207939D01*
X281179Y215277D01*
X277991Y203245D02*
X280649Y201383D01*
X280743Y201320D01*
X280839Y201260D01*
X280937Y201203D01*
X281037Y201150D01*
X281139Y201100D01*
X281243Y201054D01*
X281348Y201012D01*
X281454Y200973D01*
X281562Y200938D01*
X281671Y200907D01*
X281781Y200879D01*
X281892Y200856D01*
X282003Y200836D01*
X282115Y200820D01*
X282228Y200808D01*
X282341Y200800D01*
X282454Y200796D01*
X282568Y200796D01*
X282681Y200800D01*
X282794Y200808D01*
X282907Y200820D01*
X283019Y200836D01*
X283130Y200856D01*
X283241Y200879D01*
X283351Y200907D01*
X283460Y200938D01*
X283568Y200973D01*
X283674Y201012D01*
X283779Y201054D01*
X283883Y201100D01*
X283985Y201150D01*
X284085Y201203D01*
X284183Y201260D01*
X284279Y201320D01*
X284373Y201383D01*
X284464Y201450D01*
X284554Y201519D01*
X284641Y201592D01*
X284725Y201668D01*
X284806Y201747D01*
X284885Y201828D01*
X284961Y201912D01*
X285034Y201999D01*
X285103Y202089D01*
X285170Y202180D01*
X285233Y202274D01*
X285293Y202370D01*
X285350Y202468D01*
X285403Y202568D01*
X285453Y202670D01*
X285499Y202774D01*
X285541Y202879D01*
X285580Y202985D01*
X285615Y203093D01*
X285646Y203202D01*
X285674Y203312D01*
X285697Y203423D01*
X285717Y203534D01*
X285733Y203646D01*
X285745Y203759D01*
X285753Y203872D01*
X285757Y203985D01*
X285757Y204099D01*
X285753Y204212D01*
X285745Y204325D01*
X285733Y204438D01*
X285717Y204550D01*
X285697Y204661D01*
X285674Y204772D01*
X285646Y204882D01*
X285615Y204991D01*
X285580Y205099D01*
X285541Y205205D01*
X285499Y205310D01*
X285453Y205414D01*
X285403Y205516D01*
X285350Y205616D01*
X285293Y205714D01*
X285233Y205810D01*
X285170Y205904D01*
X285103Y205995D01*
X285034Y206085D01*
X284961Y206172D01*
X284885Y206256D01*
X284806Y206337D01*
X284725Y206416D01*
X284641Y206492D01*
X284554Y206565D01*
X284465Y206634D01*
X284373Y206701D01*
X287883Y210582D02*
X284693Y212816D01*
X287883Y210582D02*
X287964Y210522D01*
X288043Y210460D01*
X288120Y210394D01*
X288194Y210326D01*
X288265Y210255D01*
X288333Y210181D01*
X288399Y210104D01*
X288461Y210025D01*
X288521Y209944D01*
X288577Y209860D01*
X288630Y209775D01*
X288679Y209687D01*
X288725Y209598D01*
X288768Y209506D01*
X288807Y209413D01*
X288842Y209319D01*
X288874Y209224D01*
X288902Y209127D01*
X288926Y209029D01*
X288946Y208931D01*
X288963Y208831D01*
X288975Y208731D01*
X288984Y208631D01*
X288989Y208531D01*
X288990Y208430D01*
X288987Y208329D01*
X288980Y208229D01*
X288969Y208129D01*
X288955Y208029D01*
X288936Y207930D01*
X288914Y207832D01*
X288888Y207735D01*
X288858Y207638D01*
X288825Y207544D01*
X288788Y207450D01*
X288747Y207358D01*
X288702Y207267D01*
X288655Y207179D01*
X288603Y207092D01*
X288549Y207008D01*
X288491Y206925D01*
X288430Y206845D01*
X288366Y206767D01*
X288299Y206692D01*
X288230Y206619D01*
X288157Y206550D01*
X288082Y206483D01*
X288004Y206419D01*
X287924Y206358D01*
X287841Y206300D01*
X287757Y206246D01*
X287670Y206194D01*
X287582Y206147D01*
X287491Y206102D01*
X287399Y206061D01*
X287305Y206024D01*
X287211Y205991D01*
X287114Y205961D01*
X287017Y205935D01*
X286919Y205913D01*
X286820Y205894D01*
X286720Y205880D01*
X286620Y205869D01*
X286520Y205862D01*
X286419Y205859D01*
X286318Y205860D01*
X286218Y205865D01*
X286118Y205874D01*
X286018Y205886D01*
X285918Y205903D01*
X285820Y205923D01*
X285722Y205947D01*
X285625Y205975D01*
X285530Y206007D01*
X285436Y206042D01*
X285343Y206081D01*
X285251Y206124D01*
X285162Y206170D01*
X285074Y206219D01*
X284989Y206272D01*
X284905Y206328D01*
X284904Y206328D02*
X282777Y207818D01*
X205867Y328224D02*
X205867Y331470D01*
X205865Y331583D01*
X205859Y331696D01*
X205849Y331809D01*
X205835Y331922D01*
X205818Y332034D01*
X205796Y332145D01*
X205771Y332255D01*
X205741Y332365D01*
X205708Y332473D01*
X205671Y332580D01*
X205631Y332686D01*
X205586Y332790D01*
X205538Y332893D01*
X205487Y332994D01*
X205432Y333093D01*
X205374Y333190D01*
X205312Y333285D01*
X205247Y333378D01*
X205179Y333468D01*
X205108Y333556D01*
X205033Y333642D01*
X204956Y333725D01*
X204876Y333805D01*
X204793Y333882D01*
X204707Y333957D01*
X204619Y334028D01*
X204529Y334096D01*
X204436Y334161D01*
X204341Y334223D01*
X204244Y334281D01*
X204145Y334336D01*
X204044Y334387D01*
X203941Y334435D01*
X203837Y334480D01*
X203731Y334520D01*
X203624Y334557D01*
X203516Y334590D01*
X203406Y334620D01*
X203296Y334645D01*
X203185Y334667D01*
X203073Y334684D01*
X202960Y334698D01*
X202847Y334708D01*
X202734Y334714D01*
X202621Y334716D01*
X202508Y334714D01*
X202395Y334708D01*
X202282Y334698D01*
X202169Y334684D01*
X202057Y334667D01*
X201946Y334645D01*
X201836Y334620D01*
X201726Y334590D01*
X201618Y334557D01*
X201511Y334520D01*
X201405Y334480D01*
X201301Y334435D01*
X201198Y334387D01*
X201097Y334336D01*
X200998Y334281D01*
X200901Y334223D01*
X200806Y334161D01*
X200713Y334096D01*
X200623Y334028D01*
X200535Y333957D01*
X200449Y333882D01*
X200366Y333805D01*
X200286Y333725D01*
X200209Y333642D01*
X200134Y333556D01*
X200063Y333468D01*
X199995Y333378D01*
X199930Y333285D01*
X199868Y333190D01*
X199810Y333093D01*
X199755Y332994D01*
X199704Y332893D01*
X199656Y332790D01*
X199611Y332686D01*
X199571Y332580D01*
X199534Y332473D01*
X199501Y332365D01*
X199471Y332255D01*
X199446Y332145D01*
X199424Y332034D01*
X199407Y331922D01*
X199393Y331809D01*
X199383Y331696D01*
X199377Y331583D01*
X199375Y331470D01*
X194183Y332119D02*
X194183Y328224D01*
X194183Y332119D02*
X194185Y332220D01*
X194191Y332320D01*
X194201Y332420D01*
X194214Y332520D01*
X194232Y332619D01*
X194253Y332718D01*
X194278Y332815D01*
X194307Y332912D01*
X194340Y333007D01*
X194376Y333101D01*
X194416Y333193D01*
X194459Y333284D01*
X194506Y333373D01*
X194556Y333460D01*
X194610Y333546D01*
X194667Y333629D01*
X194727Y333709D01*
X194790Y333788D01*
X194857Y333864D01*
X194926Y333937D01*
X194998Y334007D01*
X195072Y334075D01*
X195149Y334140D01*
X195229Y334201D01*
X195311Y334260D01*
X195395Y334315D01*
X195481Y334367D01*
X195569Y334416D01*
X195659Y334461D01*
X195751Y334503D01*
X195844Y334541D01*
X195939Y334575D01*
X196034Y334606D01*
X196131Y334633D01*
X196229Y334656D01*
X196328Y334676D01*
X196428Y334691D01*
X196528Y334703D01*
X196628Y334711D01*
X196729Y334715D01*
X196829Y334715D01*
X196930Y334711D01*
X197030Y334703D01*
X197130Y334691D01*
X197230Y334676D01*
X197329Y334656D01*
X197427Y334633D01*
X197524Y334606D01*
X197619Y334575D01*
X197714Y334541D01*
X197807Y334503D01*
X197899Y334461D01*
X197989Y334416D01*
X198077Y334367D01*
X198163Y334315D01*
X198247Y334260D01*
X198329Y334201D01*
X198409Y334140D01*
X198486Y334075D01*
X198560Y334007D01*
X198632Y333937D01*
X198701Y333864D01*
X198768Y333788D01*
X198831Y333709D01*
X198891Y333629D01*
X198948Y333546D01*
X199002Y333460D01*
X199052Y333373D01*
X199099Y333284D01*
X199142Y333193D01*
X199182Y333101D01*
X199218Y333007D01*
X199251Y332912D01*
X199280Y332815D01*
X199305Y332718D01*
X199326Y332619D01*
X199344Y332520D01*
X199357Y332420D01*
X199367Y332320D01*
X199373Y332220D01*
X199375Y332119D01*
X199376Y332119D02*
X199376Y329523D01*
X194183Y339005D02*
X205867Y342900D01*
X194183Y346795D01*
X205867Y351084D02*
X205867Y354330D01*
X205865Y354443D01*
X205859Y354556D01*
X205849Y354669D01*
X205835Y354782D01*
X205818Y354894D01*
X205796Y355005D01*
X205771Y355115D01*
X205741Y355225D01*
X205708Y355333D01*
X205671Y355440D01*
X205631Y355546D01*
X205586Y355650D01*
X205538Y355753D01*
X205487Y355854D01*
X205432Y355953D01*
X205374Y356050D01*
X205312Y356145D01*
X205247Y356238D01*
X205179Y356328D01*
X205108Y356416D01*
X205033Y356502D01*
X204956Y356585D01*
X204876Y356665D01*
X204793Y356742D01*
X204707Y356817D01*
X204619Y356888D01*
X204529Y356956D01*
X204436Y357021D01*
X204341Y357083D01*
X204244Y357141D01*
X204145Y357196D01*
X204044Y357247D01*
X203941Y357295D01*
X203837Y357340D01*
X203731Y357380D01*
X203624Y357417D01*
X203516Y357450D01*
X203406Y357480D01*
X203296Y357505D01*
X203185Y357527D01*
X203073Y357544D01*
X202960Y357558D01*
X202847Y357568D01*
X202734Y357574D01*
X202621Y357576D01*
X202508Y357574D01*
X202395Y357568D01*
X202282Y357558D01*
X202169Y357544D01*
X202057Y357527D01*
X201946Y357505D01*
X201836Y357480D01*
X201726Y357450D01*
X201618Y357417D01*
X201511Y357380D01*
X201405Y357340D01*
X201301Y357295D01*
X201198Y357247D01*
X201097Y357196D01*
X200998Y357141D01*
X200901Y357083D01*
X200806Y357021D01*
X200713Y356956D01*
X200623Y356888D01*
X200535Y356817D01*
X200449Y356742D01*
X200366Y356665D01*
X200286Y356585D01*
X200209Y356502D01*
X200134Y356416D01*
X200063Y356328D01*
X199995Y356238D01*
X199930Y356145D01*
X199868Y356050D01*
X199810Y355953D01*
X199755Y355854D01*
X199704Y355753D01*
X199656Y355650D01*
X199611Y355546D01*
X199571Y355440D01*
X199534Y355333D01*
X199501Y355225D01*
X199471Y355115D01*
X199446Y355005D01*
X199424Y354894D01*
X199407Y354782D01*
X199393Y354669D01*
X199383Y354556D01*
X199377Y354443D01*
X199375Y354330D01*
X194183Y354979D02*
X194183Y351084D01*
X194183Y354979D02*
X194185Y355080D01*
X194191Y355180D01*
X194201Y355280D01*
X194214Y355380D01*
X194232Y355479D01*
X194253Y355578D01*
X194278Y355675D01*
X194307Y355772D01*
X194340Y355867D01*
X194376Y355961D01*
X194416Y356053D01*
X194459Y356144D01*
X194506Y356233D01*
X194556Y356320D01*
X194610Y356406D01*
X194667Y356489D01*
X194727Y356569D01*
X194790Y356648D01*
X194857Y356724D01*
X194926Y356797D01*
X194998Y356867D01*
X195072Y356935D01*
X195149Y357000D01*
X195229Y357061D01*
X195311Y357120D01*
X195395Y357175D01*
X195481Y357227D01*
X195569Y357276D01*
X195659Y357321D01*
X195751Y357363D01*
X195844Y357401D01*
X195939Y357435D01*
X196034Y357466D01*
X196131Y357493D01*
X196229Y357516D01*
X196328Y357536D01*
X196428Y357551D01*
X196528Y357563D01*
X196628Y357571D01*
X196729Y357575D01*
X196829Y357575D01*
X196930Y357571D01*
X197030Y357563D01*
X197130Y357551D01*
X197230Y357536D01*
X197329Y357516D01*
X197427Y357493D01*
X197524Y357466D01*
X197619Y357435D01*
X197714Y357401D01*
X197807Y357363D01*
X197899Y357321D01*
X197989Y357276D01*
X198077Y357227D01*
X198163Y357175D01*
X198247Y357120D01*
X198329Y357061D01*
X198409Y357000D01*
X198486Y356935D01*
X198560Y356867D01*
X198632Y356797D01*
X198701Y356724D01*
X198768Y356648D01*
X198831Y356569D01*
X198891Y356489D01*
X198948Y356406D01*
X199002Y356320D01*
X199052Y356233D01*
X199099Y356144D01*
X199142Y356053D01*
X199182Y355961D01*
X199218Y355867D01*
X199251Y355772D01*
X199280Y355675D01*
X199305Y355578D01*
X199326Y355479D01*
X199344Y355380D01*
X199357Y355280D01*
X199367Y355180D01*
X199373Y355080D01*
X199375Y354979D01*
X199376Y354979D02*
X199376Y352383D01*
D11*
X433151Y389573D02*
X433151Y407353D01*
X438090Y407353D01*
X438230Y407351D01*
X438369Y407345D01*
X438509Y407335D01*
X438648Y407321D01*
X438787Y407304D01*
X438925Y407282D01*
X439062Y407256D01*
X439199Y407227D01*
X439335Y407194D01*
X439469Y407157D01*
X439603Y407116D01*
X439735Y407071D01*
X439867Y407022D01*
X439996Y406970D01*
X440124Y406915D01*
X440251Y406855D01*
X440376Y406792D01*
X440499Y406726D01*
X440620Y406656D01*
X440739Y406583D01*
X440856Y406506D01*
X440970Y406426D01*
X441083Y406343D01*
X441193Y406257D01*
X441300Y406167D01*
X441405Y406075D01*
X441507Y405980D01*
X441607Y405882D01*
X441704Y405781D01*
X441798Y405677D01*
X441888Y405571D01*
X441976Y405462D01*
X442061Y405351D01*
X442142Y405237D01*
X442221Y405122D01*
X442296Y405004D01*
X442367Y404884D01*
X442435Y404761D01*
X442500Y404638D01*
X442561Y404512D01*
X442619Y404384D01*
X442673Y404256D01*
X442723Y404125D01*
X442770Y403993D01*
X442813Y403860D01*
X442852Y403726D01*
X442887Y403591D01*
X442918Y403455D01*
X442946Y403317D01*
X442969Y403180D01*
X442989Y403041D01*
X443005Y402902D01*
X443017Y402763D01*
X443025Y402624D01*
X443029Y402484D01*
X443029Y402344D01*
X443025Y402204D01*
X443017Y402065D01*
X443005Y401926D01*
X442989Y401787D01*
X442969Y401648D01*
X442946Y401511D01*
X442918Y401373D01*
X442887Y401237D01*
X442852Y401102D01*
X442813Y400968D01*
X442770Y400835D01*
X442723Y400703D01*
X442673Y400572D01*
X442619Y400444D01*
X442561Y400316D01*
X442500Y400190D01*
X442435Y400067D01*
X442367Y399945D01*
X442296Y399824D01*
X442221Y399706D01*
X442142Y399591D01*
X442061Y399477D01*
X441976Y399366D01*
X441888Y399257D01*
X441798Y399151D01*
X441704Y399047D01*
X441607Y398946D01*
X441507Y398848D01*
X441405Y398753D01*
X441300Y398661D01*
X441193Y398571D01*
X441083Y398485D01*
X440970Y398402D01*
X440856Y398322D01*
X440739Y398245D01*
X440620Y398172D01*
X440499Y398102D01*
X440376Y398036D01*
X440251Y397973D01*
X440124Y397913D01*
X439996Y397858D01*
X439867Y397806D01*
X439735Y397757D01*
X439603Y397712D01*
X439469Y397671D01*
X439335Y397634D01*
X439199Y397601D01*
X439062Y397572D01*
X438925Y397546D01*
X438787Y397524D01*
X438648Y397507D01*
X438509Y397493D01*
X438369Y397483D01*
X438230Y397477D01*
X438090Y397475D01*
X433151Y397475D01*
X449146Y403401D02*
X454085Y407353D01*
X454085Y389573D01*
X449146Y389573D02*
X459024Y389573D01*
X425837Y299403D02*
X425837Y281623D01*
X425837Y299403D02*
X430776Y299403D01*
X430916Y299401D01*
X431055Y299395D01*
X431195Y299385D01*
X431334Y299371D01*
X431473Y299354D01*
X431611Y299332D01*
X431748Y299306D01*
X431885Y299277D01*
X432021Y299244D01*
X432155Y299207D01*
X432289Y299166D01*
X432421Y299121D01*
X432553Y299072D01*
X432682Y299020D01*
X432810Y298965D01*
X432937Y298905D01*
X433062Y298842D01*
X433185Y298776D01*
X433306Y298706D01*
X433425Y298633D01*
X433542Y298556D01*
X433656Y298476D01*
X433769Y298393D01*
X433879Y298307D01*
X433986Y298217D01*
X434091Y298125D01*
X434193Y298030D01*
X434293Y297932D01*
X434390Y297831D01*
X434484Y297727D01*
X434574Y297621D01*
X434662Y297512D01*
X434747Y297401D01*
X434828Y297287D01*
X434907Y297172D01*
X434982Y297054D01*
X435053Y296934D01*
X435121Y296811D01*
X435186Y296688D01*
X435247Y296562D01*
X435305Y296434D01*
X435359Y296306D01*
X435409Y296175D01*
X435456Y296043D01*
X435499Y295910D01*
X435538Y295776D01*
X435573Y295641D01*
X435604Y295505D01*
X435632Y295367D01*
X435655Y295230D01*
X435675Y295091D01*
X435691Y294952D01*
X435703Y294813D01*
X435711Y294674D01*
X435715Y294534D01*
X435715Y294394D01*
X435711Y294254D01*
X435703Y294115D01*
X435691Y293976D01*
X435675Y293837D01*
X435655Y293698D01*
X435632Y293561D01*
X435604Y293423D01*
X435573Y293287D01*
X435538Y293152D01*
X435499Y293018D01*
X435456Y292885D01*
X435409Y292753D01*
X435359Y292622D01*
X435305Y292494D01*
X435247Y292366D01*
X435186Y292240D01*
X435121Y292117D01*
X435053Y291995D01*
X434982Y291874D01*
X434907Y291756D01*
X434828Y291641D01*
X434747Y291527D01*
X434662Y291416D01*
X434574Y291307D01*
X434484Y291201D01*
X434390Y291097D01*
X434293Y290996D01*
X434193Y290898D01*
X434091Y290803D01*
X433986Y290711D01*
X433879Y290621D01*
X433769Y290535D01*
X433656Y290452D01*
X433542Y290372D01*
X433425Y290295D01*
X433306Y290222D01*
X433185Y290152D01*
X433062Y290086D01*
X432937Y290023D01*
X432810Y289963D01*
X432682Y289908D01*
X432553Y289856D01*
X432421Y289807D01*
X432289Y289762D01*
X432155Y289721D01*
X432021Y289684D01*
X431885Y289651D01*
X431748Y289622D01*
X431611Y289596D01*
X431473Y289574D01*
X431334Y289557D01*
X431195Y289543D01*
X431055Y289533D01*
X430916Y289527D01*
X430776Y289525D01*
X425837Y289525D01*
X447265Y299403D02*
X447397Y299401D01*
X447528Y299395D01*
X447660Y299385D01*
X447791Y299372D01*
X447921Y299354D01*
X448051Y299333D01*
X448181Y299308D01*
X448309Y299279D01*
X448437Y299246D01*
X448563Y299209D01*
X448689Y299169D01*
X448813Y299125D01*
X448936Y299077D01*
X449057Y299026D01*
X449177Y298971D01*
X449295Y298913D01*
X449411Y298851D01*
X449525Y298785D01*
X449638Y298717D01*
X449748Y298645D01*
X449856Y298570D01*
X449962Y298491D01*
X450066Y298410D01*
X450167Y298325D01*
X450265Y298238D01*
X450361Y298147D01*
X450454Y298054D01*
X450545Y297958D01*
X450632Y297860D01*
X450717Y297759D01*
X450798Y297655D01*
X450877Y297549D01*
X450952Y297441D01*
X451024Y297331D01*
X451092Y297218D01*
X451158Y297104D01*
X451220Y296988D01*
X451278Y296870D01*
X451333Y296750D01*
X451384Y296629D01*
X451432Y296506D01*
X451476Y296382D01*
X451516Y296256D01*
X451553Y296130D01*
X451586Y296002D01*
X451615Y295874D01*
X451640Y295744D01*
X451661Y295614D01*
X451679Y295484D01*
X451692Y295353D01*
X451702Y295221D01*
X451708Y295090D01*
X451710Y294958D01*
X447265Y299403D02*
X447115Y299401D01*
X446966Y299395D01*
X446817Y299385D01*
X446668Y299372D01*
X446519Y299354D01*
X446371Y299333D01*
X446223Y299307D01*
X446077Y299278D01*
X445931Y299245D01*
X445786Y299208D01*
X445642Y299167D01*
X445499Y299123D01*
X445357Y299075D01*
X445217Y299023D01*
X445078Y298968D01*
X444940Y298909D01*
X444805Y298846D01*
X444670Y298780D01*
X444538Y298710D01*
X444408Y298637D01*
X444279Y298560D01*
X444152Y298480D01*
X444028Y298397D01*
X443906Y298311D01*
X443786Y298221D01*
X443669Y298128D01*
X443554Y298033D01*
X443441Y297934D01*
X443331Y297832D01*
X443224Y297728D01*
X443120Y297621D01*
X443018Y297511D01*
X442920Y297398D01*
X442824Y297283D01*
X442732Y297165D01*
X442642Y297045D01*
X442556Y296923D01*
X442473Y296799D01*
X442393Y296672D01*
X442317Y296544D01*
X442244Y296413D01*
X442174Y296280D01*
X442108Y296146D01*
X442046Y296010D01*
X441987Y295873D01*
X441931Y295734D01*
X441880Y295593D01*
X441832Y295452D01*
X450228Y291501D02*
X450324Y291594D01*
X450416Y291690D01*
X450506Y291789D01*
X450593Y291890D01*
X450678Y291993D01*
X450759Y292098D01*
X450837Y292206D01*
X450912Y292316D01*
X450985Y292428D01*
X451054Y292542D01*
X451120Y292658D01*
X451182Y292776D01*
X451241Y292895D01*
X451297Y293016D01*
X451350Y293139D01*
X451399Y293263D01*
X451444Y293388D01*
X451487Y293515D01*
X451525Y293642D01*
X451560Y293771D01*
X451591Y293900D01*
X451619Y294031D01*
X451643Y294162D01*
X451664Y294294D01*
X451680Y294426D01*
X451693Y294559D01*
X451703Y294692D01*
X451708Y294825D01*
X451710Y294958D01*
X450228Y291500D02*
X441832Y281623D01*
X451710Y281623D01*
X464080Y288537D02*
X464080Y294464D01*
X464080Y288537D02*
X467537Y284092D01*
X464080Y288537D02*
X460623Y284092D01*
X464080Y288537D02*
X469513Y290513D01*
X464080Y288537D02*
X458647Y290513D01*
X336314Y231140D02*
X336314Y213360D01*
X336314Y231140D02*
X341253Y231140D01*
X341393Y231138D01*
X341532Y231132D01*
X341672Y231122D01*
X341811Y231108D01*
X341950Y231091D01*
X342088Y231069D01*
X342225Y231043D01*
X342362Y231014D01*
X342498Y230981D01*
X342632Y230944D01*
X342766Y230903D01*
X342898Y230858D01*
X343030Y230809D01*
X343159Y230757D01*
X343287Y230702D01*
X343414Y230642D01*
X343539Y230579D01*
X343662Y230513D01*
X343783Y230443D01*
X343902Y230370D01*
X344019Y230293D01*
X344133Y230213D01*
X344246Y230130D01*
X344356Y230044D01*
X344463Y229954D01*
X344568Y229862D01*
X344670Y229767D01*
X344770Y229669D01*
X344867Y229568D01*
X344961Y229464D01*
X345051Y229358D01*
X345139Y229249D01*
X345224Y229138D01*
X345305Y229024D01*
X345384Y228909D01*
X345459Y228791D01*
X345530Y228671D01*
X345598Y228548D01*
X345663Y228425D01*
X345724Y228299D01*
X345782Y228171D01*
X345836Y228043D01*
X345886Y227912D01*
X345933Y227780D01*
X345976Y227647D01*
X346015Y227513D01*
X346050Y227378D01*
X346081Y227242D01*
X346109Y227104D01*
X346132Y226967D01*
X346152Y226828D01*
X346168Y226689D01*
X346180Y226550D01*
X346188Y226411D01*
X346192Y226271D01*
X346192Y226131D01*
X346188Y225991D01*
X346180Y225852D01*
X346168Y225713D01*
X346152Y225574D01*
X346132Y225435D01*
X346109Y225298D01*
X346081Y225160D01*
X346050Y225024D01*
X346015Y224889D01*
X345976Y224755D01*
X345933Y224622D01*
X345886Y224490D01*
X345836Y224359D01*
X345782Y224231D01*
X345724Y224103D01*
X345663Y223977D01*
X345598Y223854D01*
X345530Y223732D01*
X345459Y223611D01*
X345384Y223493D01*
X345305Y223378D01*
X345224Y223264D01*
X345139Y223153D01*
X345051Y223044D01*
X344961Y222938D01*
X344867Y222834D01*
X344770Y222733D01*
X344670Y222635D01*
X344568Y222540D01*
X344463Y222448D01*
X344356Y222358D01*
X344246Y222272D01*
X344133Y222189D01*
X344019Y222109D01*
X343902Y222032D01*
X343783Y221959D01*
X343662Y221889D01*
X343539Y221823D01*
X343414Y221760D01*
X343287Y221700D01*
X343159Y221645D01*
X343030Y221593D01*
X342898Y221544D01*
X342766Y221499D01*
X342632Y221458D01*
X342498Y221421D01*
X342362Y221388D01*
X342225Y221359D01*
X342088Y221333D01*
X341950Y221311D01*
X341811Y221294D01*
X341672Y221280D01*
X341532Y221270D01*
X341393Y221264D01*
X341253Y221262D01*
X336314Y221262D01*
X352309Y213360D02*
X357248Y213360D01*
X357388Y213362D01*
X357527Y213368D01*
X357667Y213378D01*
X357806Y213392D01*
X357945Y213409D01*
X358083Y213431D01*
X358220Y213457D01*
X358357Y213486D01*
X358493Y213519D01*
X358627Y213556D01*
X358761Y213597D01*
X358893Y213642D01*
X359025Y213691D01*
X359154Y213743D01*
X359282Y213798D01*
X359409Y213858D01*
X359534Y213921D01*
X359657Y213987D01*
X359778Y214057D01*
X359897Y214130D01*
X360014Y214207D01*
X360128Y214287D01*
X360241Y214370D01*
X360351Y214456D01*
X360458Y214546D01*
X360563Y214638D01*
X360665Y214733D01*
X360765Y214831D01*
X360862Y214932D01*
X360956Y215036D01*
X361046Y215142D01*
X361134Y215251D01*
X361219Y215362D01*
X361300Y215476D01*
X361379Y215591D01*
X361454Y215709D01*
X361525Y215830D01*
X361593Y215952D01*
X361658Y216075D01*
X361719Y216201D01*
X361777Y216329D01*
X361831Y216457D01*
X361881Y216588D01*
X361928Y216720D01*
X361971Y216853D01*
X362010Y216987D01*
X362045Y217122D01*
X362076Y217258D01*
X362104Y217396D01*
X362127Y217533D01*
X362147Y217672D01*
X362163Y217811D01*
X362175Y217950D01*
X362183Y218089D01*
X362187Y218229D01*
X362187Y218369D01*
X362183Y218509D01*
X362175Y218648D01*
X362163Y218787D01*
X362147Y218926D01*
X362127Y219065D01*
X362104Y219202D01*
X362076Y219340D01*
X362045Y219476D01*
X362010Y219611D01*
X361971Y219745D01*
X361928Y219878D01*
X361881Y220010D01*
X361831Y220141D01*
X361777Y220269D01*
X361719Y220397D01*
X361658Y220523D01*
X361593Y220646D01*
X361525Y220769D01*
X361454Y220889D01*
X361379Y221007D01*
X361300Y221122D01*
X361219Y221236D01*
X361134Y221347D01*
X361046Y221456D01*
X360956Y221562D01*
X360862Y221666D01*
X360765Y221767D01*
X360665Y221865D01*
X360563Y221960D01*
X360458Y222052D01*
X360351Y222142D01*
X360241Y222228D01*
X360128Y222311D01*
X360014Y222391D01*
X359897Y222468D01*
X359778Y222541D01*
X359657Y222611D01*
X359534Y222677D01*
X359409Y222740D01*
X359282Y222800D01*
X359154Y222855D01*
X359025Y222907D01*
X358893Y222956D01*
X358761Y223001D01*
X358627Y223042D01*
X358493Y223079D01*
X358357Y223112D01*
X358220Y223141D01*
X358083Y223167D01*
X357945Y223189D01*
X357806Y223206D01*
X357667Y223220D01*
X357527Y223230D01*
X357388Y223236D01*
X357248Y223238D01*
X358235Y231140D02*
X352309Y231140D01*
X358235Y231140D02*
X358359Y231138D01*
X358483Y231132D01*
X358607Y231122D01*
X358730Y231109D01*
X358853Y231091D01*
X358975Y231070D01*
X359097Y231045D01*
X359218Y231016D01*
X359337Y230983D01*
X359456Y230947D01*
X359573Y230906D01*
X359689Y230863D01*
X359804Y230815D01*
X359917Y230764D01*
X360029Y230709D01*
X360138Y230651D01*
X360246Y230590D01*
X360352Y230525D01*
X360456Y230457D01*
X360557Y230385D01*
X360657Y230311D01*
X360753Y230233D01*
X360848Y230153D01*
X360940Y230069D01*
X361029Y229983D01*
X361115Y229894D01*
X361199Y229802D01*
X361279Y229707D01*
X361357Y229611D01*
X361431Y229511D01*
X361503Y229410D01*
X361571Y229306D01*
X361636Y229200D01*
X361697Y229092D01*
X361755Y228983D01*
X361810Y228871D01*
X361861Y228758D01*
X361909Y228643D01*
X361952Y228527D01*
X361993Y228410D01*
X362029Y228291D01*
X362062Y228172D01*
X362091Y228051D01*
X362116Y227929D01*
X362137Y227807D01*
X362155Y227684D01*
X362168Y227561D01*
X362178Y227437D01*
X362184Y227313D01*
X362186Y227189D01*
X362184Y227065D01*
X362178Y226941D01*
X362168Y226817D01*
X362155Y226694D01*
X362137Y226571D01*
X362116Y226449D01*
X362091Y226327D01*
X362062Y226206D01*
X362029Y226087D01*
X361993Y225968D01*
X361952Y225851D01*
X361909Y225735D01*
X361861Y225620D01*
X361810Y225507D01*
X361755Y225395D01*
X361697Y225286D01*
X361636Y225178D01*
X361571Y225072D01*
X361503Y224968D01*
X361431Y224867D01*
X361357Y224767D01*
X361279Y224671D01*
X361199Y224576D01*
X361115Y224484D01*
X361029Y224395D01*
X360940Y224309D01*
X360848Y224225D01*
X360753Y224145D01*
X360657Y224067D01*
X360557Y223993D01*
X360456Y223921D01*
X360352Y223853D01*
X360246Y223788D01*
X360138Y223727D01*
X360029Y223669D01*
X359917Y223614D01*
X359804Y223563D01*
X359689Y223515D01*
X359573Y223472D01*
X359456Y223431D01*
X359337Y223395D01*
X359218Y223362D01*
X359097Y223333D01*
X358975Y223308D01*
X358853Y223287D01*
X358730Y223269D01*
X358607Y223256D01*
X358483Y223246D01*
X358359Y223240D01*
X358235Y223238D01*
X354284Y223238D01*
X233126Y278448D02*
X233126Y296228D01*
X238065Y296228D01*
X238205Y296226D01*
X238344Y296220D01*
X238484Y296210D01*
X238623Y296196D01*
X238762Y296179D01*
X238900Y296157D01*
X239037Y296131D01*
X239174Y296102D01*
X239310Y296069D01*
X239444Y296032D01*
X239578Y295991D01*
X239710Y295946D01*
X239842Y295897D01*
X239971Y295845D01*
X240099Y295790D01*
X240226Y295730D01*
X240351Y295667D01*
X240474Y295601D01*
X240595Y295531D01*
X240714Y295458D01*
X240831Y295381D01*
X240945Y295301D01*
X241058Y295218D01*
X241168Y295132D01*
X241275Y295042D01*
X241380Y294950D01*
X241482Y294855D01*
X241582Y294757D01*
X241679Y294656D01*
X241773Y294552D01*
X241863Y294446D01*
X241951Y294337D01*
X242036Y294226D01*
X242117Y294112D01*
X242196Y293997D01*
X242271Y293879D01*
X242342Y293759D01*
X242410Y293636D01*
X242475Y293513D01*
X242536Y293387D01*
X242594Y293259D01*
X242648Y293131D01*
X242698Y293000D01*
X242745Y292868D01*
X242788Y292735D01*
X242827Y292601D01*
X242862Y292466D01*
X242893Y292330D01*
X242921Y292192D01*
X242944Y292055D01*
X242964Y291916D01*
X242980Y291777D01*
X242992Y291638D01*
X243000Y291499D01*
X243004Y291359D01*
X243004Y291219D01*
X243000Y291079D01*
X242992Y290940D01*
X242980Y290801D01*
X242964Y290662D01*
X242944Y290523D01*
X242921Y290386D01*
X242893Y290248D01*
X242862Y290112D01*
X242827Y289977D01*
X242788Y289843D01*
X242745Y289710D01*
X242698Y289578D01*
X242648Y289447D01*
X242594Y289319D01*
X242536Y289191D01*
X242475Y289065D01*
X242410Y288942D01*
X242342Y288820D01*
X242271Y288699D01*
X242196Y288581D01*
X242117Y288466D01*
X242036Y288352D01*
X241951Y288241D01*
X241863Y288132D01*
X241773Y288026D01*
X241679Y287922D01*
X241582Y287821D01*
X241482Y287723D01*
X241380Y287628D01*
X241275Y287536D01*
X241168Y287446D01*
X241058Y287360D01*
X240945Y287277D01*
X240831Y287197D01*
X240714Y287120D01*
X240595Y287047D01*
X240474Y286977D01*
X240351Y286911D01*
X240226Y286848D01*
X240099Y286788D01*
X239971Y286733D01*
X239842Y286681D01*
X239710Y286632D01*
X239578Y286587D01*
X239444Y286546D01*
X239310Y286509D01*
X239174Y286476D01*
X239037Y286447D01*
X238900Y286421D01*
X238762Y286399D01*
X238623Y286382D01*
X238484Y286368D01*
X238344Y286358D01*
X238205Y286352D01*
X238065Y286350D01*
X233126Y286350D01*
X249121Y282399D02*
X253072Y296228D01*
X249121Y282399D02*
X258999Y282399D01*
X256036Y286350D02*
X256036Y278448D01*
X229951Y384810D02*
X229951Y402590D01*
X234890Y402590D01*
X235030Y402588D01*
X235169Y402582D01*
X235309Y402572D01*
X235448Y402558D01*
X235587Y402541D01*
X235725Y402519D01*
X235862Y402493D01*
X235999Y402464D01*
X236135Y402431D01*
X236269Y402394D01*
X236403Y402353D01*
X236535Y402308D01*
X236667Y402259D01*
X236796Y402207D01*
X236924Y402152D01*
X237051Y402092D01*
X237176Y402029D01*
X237299Y401963D01*
X237420Y401893D01*
X237539Y401820D01*
X237656Y401743D01*
X237770Y401663D01*
X237883Y401580D01*
X237993Y401494D01*
X238100Y401404D01*
X238205Y401312D01*
X238307Y401217D01*
X238407Y401119D01*
X238504Y401018D01*
X238598Y400914D01*
X238688Y400808D01*
X238776Y400699D01*
X238861Y400588D01*
X238942Y400474D01*
X239021Y400359D01*
X239096Y400241D01*
X239167Y400121D01*
X239235Y399998D01*
X239300Y399875D01*
X239361Y399749D01*
X239419Y399621D01*
X239473Y399493D01*
X239523Y399362D01*
X239570Y399230D01*
X239613Y399097D01*
X239652Y398963D01*
X239687Y398828D01*
X239718Y398692D01*
X239746Y398554D01*
X239769Y398417D01*
X239789Y398278D01*
X239805Y398139D01*
X239817Y398000D01*
X239825Y397861D01*
X239829Y397721D01*
X239829Y397581D01*
X239825Y397441D01*
X239817Y397302D01*
X239805Y397163D01*
X239789Y397024D01*
X239769Y396885D01*
X239746Y396748D01*
X239718Y396610D01*
X239687Y396474D01*
X239652Y396339D01*
X239613Y396205D01*
X239570Y396072D01*
X239523Y395940D01*
X239473Y395809D01*
X239419Y395681D01*
X239361Y395553D01*
X239300Y395427D01*
X239235Y395304D01*
X239167Y395182D01*
X239096Y395061D01*
X239021Y394943D01*
X238942Y394828D01*
X238861Y394714D01*
X238776Y394603D01*
X238688Y394494D01*
X238598Y394388D01*
X238504Y394284D01*
X238407Y394183D01*
X238307Y394085D01*
X238205Y393990D01*
X238100Y393898D01*
X237993Y393808D01*
X237883Y393722D01*
X237770Y393639D01*
X237656Y393559D01*
X237539Y393482D01*
X237420Y393409D01*
X237299Y393339D01*
X237176Y393273D01*
X237051Y393210D01*
X236924Y393150D01*
X236796Y393095D01*
X236667Y393043D01*
X236535Y392994D01*
X236403Y392949D01*
X236269Y392908D01*
X236135Y392871D01*
X235999Y392838D01*
X235862Y392809D01*
X235725Y392783D01*
X235587Y392761D01*
X235448Y392744D01*
X235309Y392730D01*
X235169Y392720D01*
X235030Y392714D01*
X234890Y392712D01*
X229951Y392712D01*
X245946Y384810D02*
X251873Y384810D01*
X251997Y384812D01*
X252121Y384818D01*
X252245Y384828D01*
X252368Y384841D01*
X252491Y384859D01*
X252613Y384880D01*
X252735Y384905D01*
X252856Y384934D01*
X252975Y384967D01*
X253094Y385003D01*
X253211Y385044D01*
X253327Y385087D01*
X253442Y385135D01*
X253555Y385186D01*
X253667Y385241D01*
X253776Y385299D01*
X253884Y385360D01*
X253990Y385425D01*
X254094Y385493D01*
X254195Y385565D01*
X254295Y385639D01*
X254391Y385717D01*
X254486Y385797D01*
X254578Y385881D01*
X254667Y385967D01*
X254753Y386056D01*
X254837Y386148D01*
X254917Y386243D01*
X254995Y386339D01*
X255069Y386439D01*
X255141Y386540D01*
X255209Y386644D01*
X255274Y386750D01*
X255335Y386858D01*
X255393Y386967D01*
X255448Y387079D01*
X255499Y387192D01*
X255547Y387307D01*
X255590Y387423D01*
X255631Y387540D01*
X255667Y387659D01*
X255700Y387778D01*
X255729Y387899D01*
X255754Y388021D01*
X255775Y388143D01*
X255793Y388266D01*
X255806Y388389D01*
X255816Y388513D01*
X255822Y388637D01*
X255824Y388761D01*
X255824Y390737D01*
X255822Y390861D01*
X255816Y390985D01*
X255806Y391109D01*
X255793Y391232D01*
X255775Y391355D01*
X255754Y391477D01*
X255729Y391599D01*
X255700Y391720D01*
X255667Y391839D01*
X255631Y391958D01*
X255590Y392075D01*
X255547Y392191D01*
X255499Y392306D01*
X255448Y392419D01*
X255393Y392531D01*
X255335Y392640D01*
X255274Y392748D01*
X255209Y392854D01*
X255141Y392958D01*
X255069Y393059D01*
X254995Y393159D01*
X254917Y393255D01*
X254837Y393350D01*
X254753Y393442D01*
X254667Y393531D01*
X254578Y393617D01*
X254486Y393701D01*
X254391Y393781D01*
X254295Y393859D01*
X254195Y393933D01*
X254094Y394005D01*
X253990Y394073D01*
X253884Y394138D01*
X253776Y394199D01*
X253667Y394257D01*
X253555Y394312D01*
X253442Y394363D01*
X253327Y394411D01*
X253211Y394454D01*
X253094Y394495D01*
X252975Y394531D01*
X252856Y394564D01*
X252735Y394593D01*
X252613Y394618D01*
X252491Y394639D01*
X252368Y394657D01*
X252245Y394670D01*
X252121Y394680D01*
X251997Y394686D01*
X251873Y394688D01*
X245946Y394688D01*
X245946Y402590D01*
X255824Y402590D01*
D12*
X383347Y255694D03*
D13*
X382831Y255842D03*
D14*
X382242Y255989D03*
D15*
X381800Y256136D03*
D16*
X381285Y256283D03*
D17*
X380843Y256431D03*
D18*
X380253Y256578D03*
D19*
X379738Y256725D03*
D20*
X379296Y256873D03*
D21*
X378854Y257020D03*
D22*
X378780Y257167D03*
D23*
X378854Y257315D03*
D24*
X378927Y257462D03*
D25*
X378854Y257609D03*
D26*
X378927Y257757D03*
D27*
X378927Y257904D03*
D28*
X379001Y258051D03*
X379001Y258199D03*
D29*
X379001Y258346D03*
D30*
X379075Y258493D03*
D31*
X379075Y258641D03*
X379075Y258788D03*
D32*
X379148Y258935D03*
D33*
X379148Y259083D03*
D34*
X379222Y259230D03*
D35*
X379148Y259377D03*
D36*
X379222Y259525D03*
D37*
X379296Y259672D03*
D38*
X379296Y259819D03*
X379296Y259966D03*
D39*
X379369Y260114D03*
D40*
X379369Y260261D03*
D41*
X379443Y260408D03*
D42*
X379369Y260556D03*
D43*
X379443Y260703D03*
D44*
X379517Y260850D03*
D45*
X379517Y260998D03*
X379517Y261145D03*
D46*
X379517Y261292D03*
D47*
X379590Y261440D03*
X379590Y261587D03*
D48*
X379590Y261734D03*
D49*
X379664Y261882D03*
D50*
X379664Y262029D03*
X379664Y262176D03*
D51*
X379738Y262324D03*
D52*
X379738Y262471D03*
D53*
X379811Y262618D03*
D54*
X379738Y262766D03*
D55*
X379811Y262913D03*
D56*
X379885Y263060D03*
D57*
X400362Y263060D03*
D58*
X379885Y263208D03*
D59*
X399773Y263208D03*
D58*
X379885Y263355D03*
D60*
X399331Y263355D03*
D61*
X379885Y263502D03*
D62*
X398816Y263502D03*
D63*
X379959Y263649D03*
D64*
X398374Y263649D03*
D63*
X379959Y263797D03*
D65*
X397784Y263797D03*
D66*
X379885Y263944D03*
D67*
X397342Y263944D03*
D66*
X379885Y264091D03*
D68*
X396827Y264091D03*
D63*
X379811Y264239D03*
D69*
X396385Y264239D03*
D66*
X379738Y264386D03*
D21*
X396238Y264386D03*
D66*
X379738Y264533D03*
D23*
X396238Y264533D03*
D66*
X379590Y264681D03*
D24*
X396311Y264681D03*
D66*
X379590Y264828D03*
D25*
X396385Y264828D03*
D63*
X379517Y264975D03*
D26*
X396311Y264975D03*
D66*
X379443Y265123D03*
D70*
X396385Y265123D03*
D66*
X379443Y265270D03*
D28*
X396385Y265270D03*
D66*
X379296Y265417D03*
D71*
X396459Y265417D03*
D66*
X379296Y265565D03*
D71*
X396459Y265565D03*
D63*
X379222Y265712D03*
D30*
X396459Y265712D03*
D66*
X379148Y265859D03*
D72*
X396532Y265859D03*
D66*
X379148Y266007D03*
D32*
X396532Y266007D03*
D66*
X379001Y266154D03*
D32*
X396532Y266154D03*
D66*
X379001Y266301D03*
D73*
X396606Y266301D03*
D63*
X378927Y266449D03*
D34*
X396606Y266449D03*
D61*
X379001Y266596D03*
D35*
X396679Y266596D03*
D61*
X379001Y266743D03*
D36*
X396606Y266743D03*
D74*
X379001Y266891D03*
D75*
X396679Y266891D03*
D76*
X379075Y267038D03*
D77*
X396753Y267038D03*
D55*
X379075Y267185D03*
D78*
X396753Y267185D03*
D55*
X379075Y267332D03*
D78*
X396753Y267332D03*
D54*
X379148Y267480D03*
D79*
X396827Y267480D03*
D52*
X379148Y267627D03*
D41*
X396827Y267627D03*
D80*
X379222Y267774D03*
D41*
X396827Y267774D03*
D51*
X379148Y267922D03*
D43*
X396827Y267922D03*
D81*
X379222Y268069D03*
D44*
X396900Y268069D03*
D82*
X379296Y268216D03*
D83*
X396974Y268216D03*
D48*
X379296Y268364D03*
D84*
X396900Y268364D03*
D48*
X379296Y268511D03*
D85*
X396974Y268511D03*
D86*
X379369Y268658D03*
D47*
X396974Y268658D03*
D46*
X379369Y268806D03*
D86*
X397048Y268806D03*
D46*
X379369Y268953D03*
D86*
X397048Y268953D03*
D84*
X379369Y269100D03*
D49*
X397048Y269100D03*
D87*
X379443Y269248D03*
D82*
X397121Y269248D03*
D44*
X379517Y269395D03*
D51*
X397121Y269395D03*
D43*
X379443Y269542D03*
D51*
X397121Y269542D03*
D42*
X379517Y269690D03*
D80*
X397195Y269690D03*
D40*
X379517Y269837D03*
D53*
X397195Y269837D03*
D79*
X379590Y269984D03*
D54*
X397269Y269984D03*
D79*
X379590Y270132D03*
D55*
X397195Y270132D03*
D88*
X379590Y270279D03*
D89*
X397269Y270279D03*
D77*
X379664Y270426D03*
D76*
X397342Y270426D03*
D36*
X379664Y270574D03*
D90*
X397342Y270574D03*
D36*
X379664Y270721D03*
D90*
X397342Y270721D03*
D35*
X379738Y270868D03*
D63*
X397342Y270868D03*
D33*
X379738Y271015D03*
D66*
X397416Y271015D03*
D73*
X379811Y271163D03*
D63*
X397342Y271163D03*
D32*
X379738Y271310D03*
D66*
X397269Y271310D03*
D91*
X379811Y271457D03*
D66*
X397269Y271457D03*
D92*
X379885Y271605D03*
D63*
X397195Y271605D03*
D29*
X379885Y271752D03*
D66*
X397121Y271752D03*
D29*
X379885Y271899D03*
D66*
X397121Y271899D03*
D71*
X379959Y272047D03*
D66*
X396974Y272047D03*
D27*
X379959Y272194D03*
D66*
X396974Y272194D03*
D70*
X380032Y272341D03*
D63*
X396900Y272341D03*
D93*
X379959Y272489D03*
D66*
X396827Y272489D03*
D25*
X380032Y272636D03*
D66*
X396827Y272636D03*
D24*
X380106Y272783D03*
D66*
X396679Y272783D03*
D23*
X380032Y272931D03*
D66*
X396679Y272931D03*
D22*
X380106Y273078D03*
D63*
X396606Y273078D03*
D69*
X380032Y273225D03*
D66*
X396532Y273225D03*
D94*
X379517Y273373D03*
D66*
X396532Y273373D03*
D67*
X378927Y273520D03*
D66*
X396385Y273520D03*
D65*
X378485Y273667D03*
D66*
X396385Y273667D03*
D95*
X377970Y273815D03*
D61*
X396385Y273815D03*
D96*
X377528Y273962D03*
D90*
X396459Y273962D03*
D60*
X376939Y274109D03*
D90*
X396459Y274109D03*
D97*
X376423Y274257D03*
D98*
X396459Y274257D03*
D99*
X375981Y274404D03*
D56*
X396532Y274404D03*
D100*
X385778Y274551D03*
D55*
X396458Y274551D03*
D101*
X385262Y274698D03*
D54*
X396532Y274698D03*
D14*
X384747Y274846D03*
D53*
X396606Y274846D03*
D102*
X384231Y274993D03*
D80*
X396606Y274993D03*
D16*
X383789Y275140D03*
D80*
X396606Y275140D03*
D103*
X383273Y275288D03*
D81*
X396606Y275288D03*
D18*
X382758Y275435D03*
D104*
X396679Y275435D03*
D19*
X382242Y275582D03*
D49*
X396753Y275582D03*
D105*
X381727Y275730D03*
D48*
X396679Y275730D03*
D106*
X381285Y275877D03*
D86*
X396753Y275877D03*
D22*
X381285Y276024D03*
D47*
X396827Y276024D03*
D23*
X381358Y276172D03*
D85*
X396827Y276172D03*
D24*
X381432Y276319D03*
D85*
X396827Y276319D03*
D25*
X381358Y276466D03*
D87*
X396827Y276466D03*
D26*
X381432Y276614D03*
D44*
X396900Y276614D03*
D107*
X381432Y276761D03*
D43*
X396974Y276761D03*
D28*
X381506Y276908D03*
D42*
X396900Y276908D03*
D28*
X381506Y277056D03*
D41*
X396974Y277056D03*
D29*
X381506Y277203D03*
D79*
X396974Y277203D03*
D30*
X381579Y277350D03*
D39*
X397048Y277350D03*
D31*
X381579Y277498D03*
D39*
X397048Y277498D03*
D31*
X381579Y277645D03*
D108*
X397048Y277645D03*
D32*
X381653Y277792D03*
D75*
X397121Y277792D03*
D33*
X381653Y277940D03*
D35*
X397121Y277940D03*
D34*
X381727Y278087D03*
D35*
X397121Y278087D03*
X381653Y278234D03*
D34*
X397195Y278234D03*
D36*
X381727Y278381D03*
D73*
X397195Y278381D03*
D75*
X381800Y278529D03*
D73*
X397195Y278529D03*
D38*
X381800Y278676D03*
D91*
X397195Y278676D03*
D38*
X381800Y278823D03*
D72*
X397269Y278823D03*
D79*
X381800Y278971D03*
D30*
X397342Y278971D03*
D40*
X381874Y279118D03*
D29*
X397269Y279118D03*
D41*
X381947Y279265D03*
D71*
X397342Y279265D03*
D42*
X381874Y279413D03*
D27*
X397342Y279413D03*
D43*
X381947Y279560D03*
D109*
X397416Y279560D03*
D87*
X381947Y279707D03*
D109*
X397416Y279707D03*
D45*
X382021Y279855D03*
D25*
X397416Y279855D03*
D45*
X382021Y280002D03*
D24*
X397490Y280002D03*
D46*
X382021Y280149D03*
D23*
X397563Y280149D03*
D47*
X382095Y280297D03*
D22*
X397490Y280297D03*
D47*
X382095Y280444D03*
D106*
X397490Y280444D03*
D48*
X382095Y280591D03*
D110*
X397048Y280591D03*
D49*
X382168Y280739D03*
D111*
X396532Y280739D03*
D50*
X382168Y280886D03*
D18*
X396017Y280886D03*
D50*
X382168Y281033D03*
D112*
X395501Y281033D03*
D51*
X382242Y281181D03*
D113*
X395059Y281181D03*
D52*
X382242Y281328D03*
D114*
X394543Y281328D03*
D53*
X382316Y281475D03*
D14*
X394028Y281475D03*
D54*
X382242Y281623D03*
D115*
X393512Y281623D03*
D55*
X382316Y281770D03*
D12*
X393070Y281770D03*
D56*
X382389Y281917D03*
D58*
X382389Y282064D03*
X382389Y282212D03*
D61*
X382389Y282359D03*
D63*
X382463Y282506D03*
X382463Y282654D03*
D66*
X382389Y282801D03*
X382389Y282948D03*
X382242Y283096D03*
X382242Y283243D03*
D63*
X382168Y283390D03*
D66*
X382095Y283538D03*
X382095Y283685D03*
X381947Y283832D03*
X381947Y283980D03*
D63*
X381874Y284127D03*
D66*
X381800Y284274D03*
X381800Y284422D03*
D63*
X381727Y284569D03*
D66*
X381653Y284716D03*
X381653Y284864D03*
X381506Y285011D03*
X381506Y285158D03*
D63*
X381432Y285306D03*
D61*
X381506Y285453D03*
X381506Y285600D03*
D74*
X381506Y285747D03*
D76*
X381579Y285895D03*
D55*
X381579Y286042D03*
X381579Y286189D03*
D54*
X381653Y286337D03*
D52*
X381653Y286484D03*
D80*
X381727Y286631D03*
D51*
X381653Y286779D03*
D81*
X381727Y286926D03*
D82*
X381800Y287073D03*
D116*
X381727Y287221D03*
D48*
X381800Y287368D03*
D47*
X381800Y287515D03*
D46*
X381874Y287663D03*
X381874Y287810D03*
D84*
X381874Y287957D03*
D87*
X381947Y288105D03*
D43*
X381947Y288252D03*
X381947Y288399D03*
D42*
X382021Y288547D03*
D40*
X382021Y288694D03*
D79*
X382095Y288841D03*
X382095Y288989D03*
D88*
X382095Y289136D03*
D77*
X382168Y289283D03*
D36*
X382168Y289430D03*
X382168Y289578D03*
D35*
X382242Y289725D03*
D33*
X382242Y289872D03*
D73*
X382316Y290020D03*
D32*
X382242Y290167D03*
D91*
X382316Y290314D03*
D92*
X382389Y290462D03*
D29*
X382389Y290609D03*
X382389Y290756D03*
D28*
X382389Y290904D03*
D27*
X382463Y291051D03*
D70*
X382537Y291198D03*
D93*
X382463Y291346D03*
D25*
X382537Y291493D03*
D23*
X382537Y291640D03*
X382537Y291788D03*
D22*
X382610Y291935D03*
D117*
X382463Y292082D03*
D118*
X381947Y292230D03*
D67*
X381432Y292377D03*
D119*
X380916Y292524D03*
D95*
X380474Y292672D03*
D120*
X379959Y292819D03*
D60*
X379443Y292966D03*
D97*
X378927Y293113D03*
D121*
X378412Y293261D03*
D11*
X305527Y391287D02*
X301576Y391287D01*
X301452Y391289D01*
X301328Y391295D01*
X301204Y391305D01*
X301081Y391318D01*
X300958Y391336D01*
X300836Y391357D01*
X300714Y391382D01*
X300593Y391411D01*
X300474Y391444D01*
X300355Y391480D01*
X300238Y391521D01*
X300122Y391564D01*
X300007Y391612D01*
X299894Y391663D01*
X299782Y391718D01*
X299673Y391776D01*
X299565Y391837D01*
X299459Y391902D01*
X299355Y391970D01*
X299254Y392042D01*
X299154Y392116D01*
X299058Y392194D01*
X298963Y392274D01*
X298871Y392358D01*
X298782Y392444D01*
X298696Y392533D01*
X298612Y392625D01*
X298532Y392720D01*
X298454Y392816D01*
X298380Y392916D01*
X298308Y393017D01*
X298240Y393121D01*
X298175Y393227D01*
X298114Y393335D01*
X298056Y393444D01*
X298001Y393556D01*
X297950Y393669D01*
X297902Y393784D01*
X297859Y393900D01*
X297818Y394017D01*
X297782Y394136D01*
X297749Y394255D01*
X297720Y394376D01*
X297695Y394498D01*
X297674Y394620D01*
X297656Y394743D01*
X297643Y394866D01*
X297633Y394990D01*
X297627Y395114D01*
X297625Y395238D01*
X297625Y405116D01*
X297627Y405240D01*
X297633Y405364D01*
X297643Y405488D01*
X297656Y405611D01*
X297674Y405734D01*
X297695Y405856D01*
X297720Y405978D01*
X297749Y406099D01*
X297782Y406218D01*
X297818Y406337D01*
X297859Y406454D01*
X297902Y406570D01*
X297950Y406685D01*
X298001Y406798D01*
X298056Y406910D01*
X298114Y407019D01*
X298175Y407127D01*
X298240Y407233D01*
X298308Y407337D01*
X298380Y407438D01*
X298454Y407538D01*
X298532Y407634D01*
X298612Y407729D01*
X298696Y407821D01*
X298782Y407910D01*
X298871Y407996D01*
X298963Y408080D01*
X299058Y408160D01*
X299154Y408238D01*
X299254Y408312D01*
X299355Y408384D01*
X299459Y408452D01*
X299565Y408517D01*
X299673Y408578D01*
X299782Y408636D01*
X299894Y408691D01*
X300007Y408742D01*
X300122Y408790D01*
X300238Y408833D01*
X300355Y408874D01*
X300474Y408910D01*
X300593Y408943D01*
X300714Y408972D01*
X300836Y408997D01*
X300958Y409018D01*
X301081Y409036D01*
X301204Y409049D01*
X301328Y409059D01*
X301452Y409065D01*
X301576Y409067D01*
X305527Y409067D01*
X297625Y385255D02*
X297625Y367475D01*
X297625Y385255D02*
X302563Y385255D01*
X302702Y385253D01*
X302840Y385247D01*
X302978Y385238D01*
X303116Y385224D01*
X303253Y385207D01*
X303390Y385185D01*
X303527Y385160D01*
X303662Y385131D01*
X303797Y385098D01*
X303930Y385062D01*
X304063Y385022D01*
X304194Y384978D01*
X304324Y384930D01*
X304453Y384879D01*
X304580Y384824D01*
X304706Y384766D01*
X304830Y384704D01*
X304952Y384639D01*
X305072Y384570D01*
X305191Y384498D01*
X305307Y384423D01*
X305421Y384344D01*
X305533Y384262D01*
X305642Y384177D01*
X305750Y384090D01*
X305854Y383999D01*
X305956Y383905D01*
X306055Y383808D01*
X306152Y383709D01*
X306246Y383607D01*
X306337Y383503D01*
X306424Y383395D01*
X306509Y383286D01*
X306591Y383174D01*
X306670Y383060D01*
X306745Y382944D01*
X306817Y382825D01*
X306886Y382705D01*
X306951Y382583D01*
X307013Y382459D01*
X307071Y382333D01*
X307126Y382206D01*
X307177Y382077D01*
X307225Y381947D01*
X307269Y381816D01*
X307309Y381683D01*
X307345Y381550D01*
X307378Y381415D01*
X307407Y381280D01*
X307432Y381143D01*
X307454Y381006D01*
X307471Y380869D01*
X307485Y380731D01*
X307494Y380593D01*
X307500Y380455D01*
X307502Y380316D01*
X307502Y372413D01*
X307500Y372274D01*
X307494Y372136D01*
X307485Y371998D01*
X307471Y371860D01*
X307454Y371723D01*
X307432Y371586D01*
X307407Y371449D01*
X307378Y371314D01*
X307345Y371179D01*
X307309Y371046D01*
X307269Y370913D01*
X307225Y370782D01*
X307177Y370652D01*
X307126Y370523D01*
X307071Y370396D01*
X307013Y370270D01*
X306951Y370146D01*
X306886Y370024D01*
X306817Y369904D01*
X306745Y369785D01*
X306670Y369669D01*
X306591Y369555D01*
X306509Y369443D01*
X306424Y369334D01*
X306337Y369226D01*
X306246Y369122D01*
X306152Y369020D01*
X306055Y368921D01*
X305956Y368824D01*
X305854Y368730D01*
X305750Y368639D01*
X305642Y368552D01*
X305533Y368467D01*
X305421Y368385D01*
X305307Y368306D01*
X305191Y368231D01*
X305072Y368159D01*
X304952Y368090D01*
X304830Y368025D01*
X304706Y367963D01*
X304580Y367905D01*
X304453Y367850D01*
X304324Y367799D01*
X304194Y367751D01*
X304063Y367707D01*
X303930Y367667D01*
X303797Y367631D01*
X303662Y367598D01*
X303527Y367569D01*
X303390Y367544D01*
X303253Y367522D01*
X303116Y367505D01*
X302978Y367491D01*
X302840Y367482D01*
X302702Y367476D01*
X302563Y367474D01*
X302563Y367475D02*
X297625Y367475D01*
X297625Y426565D02*
X302563Y426565D01*
X302703Y426563D01*
X302842Y426557D01*
X302982Y426547D01*
X303121Y426533D01*
X303260Y426516D01*
X303398Y426494D01*
X303535Y426468D01*
X303672Y426439D01*
X303808Y426406D01*
X303942Y426369D01*
X304076Y426328D01*
X304208Y426283D01*
X304340Y426234D01*
X304469Y426182D01*
X304597Y426127D01*
X304724Y426067D01*
X304849Y426004D01*
X304972Y425938D01*
X305093Y425868D01*
X305212Y425795D01*
X305329Y425718D01*
X305443Y425638D01*
X305556Y425555D01*
X305666Y425469D01*
X305773Y425379D01*
X305878Y425287D01*
X305980Y425192D01*
X306080Y425094D01*
X306177Y424993D01*
X306271Y424889D01*
X306361Y424783D01*
X306449Y424674D01*
X306534Y424563D01*
X306615Y424449D01*
X306694Y424334D01*
X306769Y424216D01*
X306840Y424096D01*
X306908Y423973D01*
X306973Y423850D01*
X307034Y423724D01*
X307092Y423596D01*
X307146Y423468D01*
X307196Y423337D01*
X307243Y423205D01*
X307286Y423072D01*
X307325Y422938D01*
X307360Y422803D01*
X307391Y422667D01*
X307419Y422529D01*
X307442Y422392D01*
X307462Y422253D01*
X307478Y422114D01*
X307490Y421975D01*
X307498Y421836D01*
X307502Y421696D01*
X307502Y421556D01*
X307498Y421416D01*
X307490Y421277D01*
X307478Y421138D01*
X307462Y420999D01*
X307442Y420860D01*
X307419Y420723D01*
X307391Y420585D01*
X307360Y420449D01*
X307325Y420314D01*
X307286Y420180D01*
X307243Y420047D01*
X307196Y419915D01*
X307146Y419784D01*
X307092Y419656D01*
X307034Y419528D01*
X306973Y419402D01*
X306908Y419279D01*
X306840Y419157D01*
X306769Y419036D01*
X306694Y418918D01*
X306615Y418803D01*
X306534Y418689D01*
X306449Y418578D01*
X306361Y418469D01*
X306271Y418363D01*
X306177Y418259D01*
X306080Y418158D01*
X305980Y418060D01*
X305878Y417965D01*
X305773Y417873D01*
X305666Y417783D01*
X305556Y417697D01*
X305443Y417614D01*
X305329Y417534D01*
X305212Y417457D01*
X305093Y417384D01*
X304972Y417314D01*
X304849Y417248D01*
X304724Y417185D01*
X304597Y417125D01*
X304469Y417070D01*
X304340Y417018D01*
X304208Y416969D01*
X304076Y416924D01*
X303942Y416883D01*
X303808Y416846D01*
X303672Y416813D01*
X303535Y416784D01*
X303398Y416758D01*
X303260Y416736D01*
X303121Y416719D01*
X302982Y416705D01*
X302842Y416695D01*
X302703Y416689D01*
X302563Y416687D01*
X297625Y416687D01*
X297625Y434467D01*
X302563Y434467D01*
X302687Y434465D01*
X302811Y434459D01*
X302935Y434449D01*
X303058Y434436D01*
X303181Y434418D01*
X303303Y434397D01*
X303425Y434372D01*
X303546Y434343D01*
X303665Y434310D01*
X303784Y434274D01*
X303901Y434233D01*
X304017Y434190D01*
X304132Y434142D01*
X304245Y434091D01*
X304357Y434036D01*
X304466Y433978D01*
X304574Y433917D01*
X304680Y433852D01*
X304784Y433784D01*
X304885Y433712D01*
X304985Y433638D01*
X305081Y433560D01*
X305176Y433480D01*
X305268Y433396D01*
X305357Y433310D01*
X305443Y433221D01*
X305527Y433129D01*
X305607Y433034D01*
X305685Y432938D01*
X305759Y432838D01*
X305831Y432737D01*
X305899Y432633D01*
X305964Y432527D01*
X306025Y432419D01*
X306083Y432310D01*
X306138Y432198D01*
X306189Y432085D01*
X306237Y431970D01*
X306280Y431854D01*
X306321Y431737D01*
X306357Y431618D01*
X306390Y431499D01*
X306419Y431378D01*
X306444Y431256D01*
X306465Y431134D01*
X306483Y431011D01*
X306496Y430888D01*
X306506Y430764D01*
X306512Y430640D01*
X306514Y430516D01*
X306512Y430392D01*
X306506Y430268D01*
X306496Y430144D01*
X306483Y430021D01*
X306465Y429898D01*
X306444Y429776D01*
X306419Y429654D01*
X306390Y429533D01*
X306357Y429414D01*
X306321Y429295D01*
X306280Y429178D01*
X306237Y429062D01*
X306189Y428947D01*
X306138Y428834D01*
X306083Y428722D01*
X306025Y428613D01*
X305964Y428505D01*
X305899Y428399D01*
X305831Y428295D01*
X305759Y428194D01*
X305685Y428094D01*
X305607Y427998D01*
X305527Y427903D01*
X305443Y427811D01*
X305357Y427722D01*
X305268Y427636D01*
X305176Y427552D01*
X305081Y427472D01*
X304985Y427394D01*
X304885Y427320D01*
X304784Y427248D01*
X304680Y427180D01*
X304574Y427115D01*
X304466Y427054D01*
X304357Y426996D01*
X304245Y426941D01*
X304132Y426890D01*
X304017Y426842D01*
X303901Y426799D01*
X303784Y426758D01*
X303665Y426722D01*
X303546Y426689D01*
X303425Y426660D01*
X303303Y426635D01*
X303181Y426614D01*
X303058Y426596D01*
X302935Y426583D01*
X302811Y426573D01*
X302687Y426567D01*
X302563Y426565D01*
X433860Y346901D02*
X433860Y329121D01*
X433860Y346901D02*
X438799Y346901D01*
X438939Y346899D01*
X439078Y346893D01*
X439218Y346883D01*
X439357Y346869D01*
X439496Y346852D01*
X439634Y346830D01*
X439771Y346804D01*
X439908Y346775D01*
X440044Y346742D01*
X440178Y346705D01*
X440312Y346664D01*
X440444Y346619D01*
X440576Y346570D01*
X440705Y346518D01*
X440833Y346463D01*
X440960Y346403D01*
X441085Y346340D01*
X441208Y346274D01*
X441329Y346204D01*
X441448Y346131D01*
X441565Y346054D01*
X441679Y345974D01*
X441792Y345891D01*
X441902Y345805D01*
X442009Y345715D01*
X442114Y345623D01*
X442216Y345528D01*
X442316Y345430D01*
X442413Y345329D01*
X442507Y345225D01*
X442597Y345119D01*
X442685Y345010D01*
X442770Y344899D01*
X442851Y344785D01*
X442930Y344670D01*
X443005Y344552D01*
X443076Y344432D01*
X443144Y344309D01*
X443209Y344186D01*
X443270Y344060D01*
X443328Y343932D01*
X443382Y343804D01*
X443432Y343673D01*
X443479Y343541D01*
X443522Y343408D01*
X443561Y343274D01*
X443596Y343139D01*
X443627Y343003D01*
X443655Y342865D01*
X443678Y342728D01*
X443698Y342589D01*
X443714Y342450D01*
X443726Y342311D01*
X443734Y342172D01*
X443738Y342032D01*
X443738Y341892D01*
X443734Y341752D01*
X443726Y341613D01*
X443714Y341474D01*
X443698Y341335D01*
X443678Y341196D01*
X443655Y341059D01*
X443627Y340921D01*
X443596Y340785D01*
X443561Y340650D01*
X443522Y340516D01*
X443479Y340383D01*
X443432Y340251D01*
X443382Y340120D01*
X443328Y339992D01*
X443270Y339864D01*
X443209Y339738D01*
X443144Y339615D01*
X443076Y339493D01*
X443005Y339372D01*
X442930Y339254D01*
X442851Y339139D01*
X442770Y339025D01*
X442685Y338914D01*
X442597Y338805D01*
X442507Y338699D01*
X442413Y338595D01*
X442316Y338494D01*
X442216Y338396D01*
X442114Y338301D01*
X442009Y338209D01*
X441902Y338119D01*
X441792Y338033D01*
X441679Y337950D01*
X441565Y337870D01*
X441448Y337793D01*
X441329Y337720D01*
X441208Y337650D01*
X441085Y337584D01*
X440960Y337521D01*
X440833Y337461D01*
X440705Y337406D01*
X440576Y337354D01*
X440444Y337305D01*
X440312Y337260D01*
X440178Y337219D01*
X440044Y337182D01*
X439908Y337149D01*
X439771Y337120D01*
X439634Y337094D01*
X439496Y337072D01*
X439357Y337055D01*
X439218Y337041D01*
X439078Y337031D01*
X438939Y337025D01*
X438799Y337023D01*
X433860Y337023D01*
X439787Y337023D02*
X443738Y329121D01*
X333139Y448310D02*
X333139Y466090D01*
X338078Y466090D01*
X338218Y466088D01*
X338357Y466082D01*
X338497Y466072D01*
X338636Y466058D01*
X338775Y466041D01*
X338913Y466019D01*
X339050Y465993D01*
X339187Y465964D01*
X339323Y465931D01*
X339457Y465894D01*
X339591Y465853D01*
X339723Y465808D01*
X339855Y465759D01*
X339984Y465707D01*
X340112Y465652D01*
X340239Y465592D01*
X340364Y465529D01*
X340487Y465463D01*
X340608Y465393D01*
X340727Y465320D01*
X340844Y465243D01*
X340958Y465163D01*
X341071Y465080D01*
X341181Y464994D01*
X341288Y464904D01*
X341393Y464812D01*
X341495Y464717D01*
X341595Y464619D01*
X341692Y464518D01*
X341786Y464414D01*
X341876Y464308D01*
X341964Y464199D01*
X342049Y464088D01*
X342130Y463974D01*
X342209Y463859D01*
X342284Y463741D01*
X342355Y463621D01*
X342423Y463498D01*
X342488Y463375D01*
X342549Y463249D01*
X342607Y463121D01*
X342661Y462993D01*
X342711Y462862D01*
X342758Y462730D01*
X342801Y462597D01*
X342840Y462463D01*
X342875Y462328D01*
X342906Y462192D01*
X342934Y462054D01*
X342957Y461917D01*
X342977Y461778D01*
X342993Y461639D01*
X343005Y461500D01*
X343013Y461361D01*
X343017Y461221D01*
X343017Y461081D01*
X343013Y460941D01*
X343005Y460802D01*
X342993Y460663D01*
X342977Y460524D01*
X342957Y460385D01*
X342934Y460248D01*
X342906Y460110D01*
X342875Y459974D01*
X342840Y459839D01*
X342801Y459705D01*
X342758Y459572D01*
X342711Y459440D01*
X342661Y459309D01*
X342607Y459181D01*
X342549Y459053D01*
X342488Y458927D01*
X342423Y458804D01*
X342355Y458682D01*
X342284Y458561D01*
X342209Y458443D01*
X342130Y458328D01*
X342049Y458214D01*
X341964Y458103D01*
X341876Y457994D01*
X341786Y457888D01*
X341692Y457784D01*
X341595Y457683D01*
X341495Y457585D01*
X341393Y457490D01*
X341288Y457398D01*
X341181Y457308D01*
X341071Y457222D01*
X340958Y457139D01*
X340844Y457059D01*
X340727Y456982D01*
X340608Y456909D01*
X340487Y456839D01*
X340364Y456773D01*
X340239Y456710D01*
X340112Y456650D01*
X339984Y456595D01*
X339855Y456543D01*
X339723Y456494D01*
X339591Y456449D01*
X339457Y456408D01*
X339323Y456371D01*
X339187Y456338D01*
X339050Y456309D01*
X338913Y456283D01*
X338775Y456261D01*
X338636Y456244D01*
X338497Y456230D01*
X338357Y456220D01*
X338218Y456214D01*
X338078Y456212D01*
X333139Y456212D01*
X349134Y458188D02*
X355060Y458188D01*
X355184Y458186D01*
X355308Y458180D01*
X355432Y458170D01*
X355555Y458157D01*
X355678Y458139D01*
X355800Y458118D01*
X355922Y458093D01*
X356043Y458064D01*
X356162Y458031D01*
X356281Y457995D01*
X356398Y457954D01*
X356514Y457911D01*
X356629Y457863D01*
X356742Y457812D01*
X356854Y457757D01*
X356963Y457699D01*
X357071Y457638D01*
X357177Y457573D01*
X357281Y457505D01*
X357382Y457433D01*
X357482Y457359D01*
X357578Y457281D01*
X357673Y457201D01*
X357765Y457117D01*
X357854Y457031D01*
X357940Y456942D01*
X358024Y456850D01*
X358104Y456755D01*
X358182Y456659D01*
X358256Y456559D01*
X358328Y456458D01*
X358396Y456354D01*
X358461Y456248D01*
X358522Y456140D01*
X358580Y456031D01*
X358635Y455919D01*
X358686Y455806D01*
X358734Y455691D01*
X358777Y455575D01*
X358818Y455458D01*
X358854Y455339D01*
X358887Y455220D01*
X358916Y455099D01*
X358941Y454977D01*
X358962Y454855D01*
X358980Y454732D01*
X358993Y454609D01*
X359003Y454485D01*
X359009Y454361D01*
X359011Y454237D01*
X359011Y453249D01*
X359012Y453249D02*
X359010Y453109D01*
X359004Y452970D01*
X358994Y452830D01*
X358980Y452691D01*
X358963Y452552D01*
X358941Y452414D01*
X358915Y452277D01*
X358886Y452140D01*
X358853Y452004D01*
X358816Y451870D01*
X358775Y451736D01*
X358730Y451604D01*
X358681Y451472D01*
X358629Y451343D01*
X358574Y451215D01*
X358514Y451088D01*
X358451Y450963D01*
X358385Y450840D01*
X358315Y450719D01*
X358242Y450600D01*
X358165Y450483D01*
X358085Y450369D01*
X358002Y450256D01*
X357916Y450146D01*
X357826Y450039D01*
X357734Y449934D01*
X357639Y449832D01*
X357541Y449732D01*
X357440Y449635D01*
X357336Y449541D01*
X357230Y449451D01*
X357121Y449363D01*
X357010Y449278D01*
X356896Y449197D01*
X356781Y449118D01*
X356663Y449043D01*
X356543Y448972D01*
X356420Y448904D01*
X356297Y448839D01*
X356171Y448778D01*
X356043Y448720D01*
X355915Y448666D01*
X355784Y448616D01*
X355652Y448569D01*
X355519Y448526D01*
X355385Y448487D01*
X355250Y448452D01*
X355114Y448421D01*
X354976Y448393D01*
X354839Y448370D01*
X354700Y448350D01*
X354561Y448334D01*
X354422Y448322D01*
X354283Y448314D01*
X354143Y448310D01*
X354003Y448310D01*
X353863Y448314D01*
X353724Y448322D01*
X353585Y448334D01*
X353446Y448350D01*
X353307Y448370D01*
X353170Y448393D01*
X353032Y448421D01*
X352896Y448452D01*
X352761Y448487D01*
X352627Y448526D01*
X352494Y448569D01*
X352362Y448616D01*
X352231Y448666D01*
X352103Y448720D01*
X351975Y448778D01*
X351849Y448839D01*
X351726Y448904D01*
X351604Y448972D01*
X351483Y449043D01*
X351365Y449118D01*
X351250Y449197D01*
X351136Y449278D01*
X351025Y449363D01*
X350916Y449451D01*
X350810Y449541D01*
X350706Y449635D01*
X350605Y449732D01*
X350507Y449832D01*
X350412Y449934D01*
X350320Y450039D01*
X350230Y450146D01*
X350144Y450256D01*
X350061Y450369D01*
X349981Y450483D01*
X349904Y450600D01*
X349831Y450719D01*
X349761Y450840D01*
X349695Y450963D01*
X349632Y451088D01*
X349572Y451215D01*
X349517Y451343D01*
X349465Y451472D01*
X349416Y451604D01*
X349371Y451736D01*
X349330Y451870D01*
X349293Y452004D01*
X349260Y452140D01*
X349231Y452277D01*
X349205Y452414D01*
X349183Y452552D01*
X349166Y452691D01*
X349152Y452830D01*
X349142Y452970D01*
X349136Y453109D01*
X349134Y453249D01*
X349134Y458188D01*
X349136Y458382D01*
X349144Y458576D01*
X349155Y458769D01*
X349172Y458963D01*
X349193Y459155D01*
X349220Y459347D01*
X349250Y459539D01*
X349286Y459730D01*
X349326Y459919D01*
X349371Y460108D01*
X349420Y460296D01*
X349474Y460482D01*
X349533Y460667D01*
X349596Y460850D01*
X349663Y461032D01*
X349736Y461212D01*
X349812Y461390D01*
X349893Y461567D01*
X349978Y461741D01*
X350067Y461913D01*
X350161Y462083D01*
X350258Y462250D01*
X350360Y462416D01*
X350466Y462578D01*
X350575Y462738D01*
X350689Y462895D01*
X350806Y463050D01*
X350928Y463201D01*
X351053Y463349D01*
X351181Y463495D01*
X351313Y463637D01*
X351448Y463776D01*
X351587Y463911D01*
X351729Y464043D01*
X351875Y464171D01*
X352023Y464296D01*
X352174Y464418D01*
X352329Y464535D01*
X352486Y464649D01*
X352646Y464758D01*
X352808Y464864D01*
X352974Y464966D01*
X353141Y465063D01*
X353311Y465157D01*
X353483Y465246D01*
X353657Y465331D01*
X353834Y465412D01*
X354012Y465488D01*
X354192Y465561D01*
X354374Y465628D01*
X354557Y465691D01*
X354742Y465750D01*
X354928Y465804D01*
X355116Y465853D01*
X355305Y465898D01*
X355494Y465938D01*
X355685Y465974D01*
X355877Y466004D01*
X356069Y466031D01*
X356261Y466052D01*
X356455Y466069D01*
X356648Y466080D01*
X356842Y466088D01*
X357036Y466090D01*
D10*
X270213Y458559D02*
X267554Y456697D01*
X270213Y458558D02*
X270304Y458625D01*
X270394Y458694D01*
X270481Y458767D01*
X270565Y458843D01*
X270646Y458922D01*
X270725Y459003D01*
X270801Y459087D01*
X270874Y459174D01*
X270943Y459264D01*
X271010Y459355D01*
X271073Y459449D01*
X271133Y459545D01*
X271190Y459643D01*
X271243Y459743D01*
X271293Y459845D01*
X271339Y459949D01*
X271381Y460054D01*
X271420Y460160D01*
X271455Y460268D01*
X271486Y460377D01*
X271514Y460487D01*
X271537Y460598D01*
X271557Y460709D01*
X271573Y460821D01*
X271585Y460934D01*
X271593Y461047D01*
X271597Y461160D01*
X271597Y461274D01*
X271593Y461387D01*
X271585Y461500D01*
X271573Y461613D01*
X271557Y461725D01*
X271537Y461836D01*
X271514Y461947D01*
X271486Y462057D01*
X271455Y462166D01*
X271420Y462274D01*
X271381Y462380D01*
X271339Y462485D01*
X271293Y462589D01*
X271243Y462691D01*
X271190Y462791D01*
X271133Y462889D01*
X271073Y462985D01*
X271010Y463079D01*
X270943Y463170D01*
X270874Y463260D01*
X270801Y463347D01*
X270725Y463431D01*
X270646Y463512D01*
X270565Y463591D01*
X270481Y463667D01*
X270394Y463740D01*
X270305Y463809D01*
X270213Y463876D01*
X270119Y463939D01*
X270023Y463999D01*
X269925Y464056D01*
X269825Y464109D01*
X269723Y464159D01*
X269619Y464205D01*
X269514Y464247D01*
X269408Y464286D01*
X269300Y464321D01*
X269191Y464352D01*
X269081Y464380D01*
X268970Y464403D01*
X268859Y464423D01*
X268747Y464439D01*
X268634Y464451D01*
X268521Y464459D01*
X268408Y464463D01*
X268294Y464463D01*
X268181Y464459D01*
X268068Y464451D01*
X267955Y464439D01*
X267843Y464423D01*
X267732Y464403D01*
X267621Y464380D01*
X267511Y464352D01*
X267402Y464321D01*
X267294Y464286D01*
X267188Y464247D01*
X267083Y464205D01*
X266979Y464159D01*
X266877Y464109D01*
X266777Y464056D01*
X266679Y463999D01*
X266583Y463939D01*
X266489Y463876D01*
X264043Y468502D02*
X260853Y466268D01*
X264043Y468502D02*
X264127Y468558D01*
X264212Y468611D01*
X264300Y468660D01*
X264389Y468706D01*
X264481Y468749D01*
X264574Y468788D01*
X264668Y468823D01*
X264763Y468855D01*
X264860Y468883D01*
X264958Y468907D01*
X265056Y468927D01*
X265156Y468944D01*
X265256Y468956D01*
X265356Y468965D01*
X265457Y468970D01*
X265557Y468971D01*
X265658Y468968D01*
X265758Y468961D01*
X265858Y468950D01*
X265958Y468936D01*
X266057Y468917D01*
X266155Y468895D01*
X266252Y468869D01*
X266349Y468839D01*
X266444Y468806D01*
X266537Y468769D01*
X266629Y468728D01*
X266720Y468683D01*
X266808Y468636D01*
X266895Y468584D01*
X266979Y468530D01*
X267062Y468472D01*
X267142Y468411D01*
X267220Y468347D01*
X267295Y468280D01*
X267368Y468211D01*
X267437Y468138D01*
X267504Y468063D01*
X267568Y467985D01*
X267629Y467905D01*
X267687Y467822D01*
X267741Y467738D01*
X267793Y467651D01*
X267840Y467563D01*
X267885Y467472D01*
X267926Y467380D01*
X267963Y467286D01*
X267996Y467192D01*
X268026Y467095D01*
X268052Y466998D01*
X268074Y466900D01*
X268093Y466801D01*
X268107Y466701D01*
X268118Y466601D01*
X268125Y466501D01*
X268128Y466400D01*
X268127Y466300D01*
X268122Y466199D01*
X268113Y466099D01*
X268101Y465999D01*
X268084Y465899D01*
X268064Y465801D01*
X268040Y465703D01*
X268012Y465606D01*
X267980Y465511D01*
X267945Y465417D01*
X267906Y465324D01*
X267863Y465232D01*
X267817Y465143D01*
X267768Y465055D01*
X267715Y464970D01*
X267659Y464886D01*
X267599Y464805D01*
X267537Y464726D01*
X267471Y464649D01*
X267403Y464575D01*
X267332Y464504D01*
X267258Y464436D01*
X267181Y464370D01*
X267102Y464308D01*
X267021Y464248D01*
X264895Y462759D01*
X269684Y472452D02*
X279576Y465114D01*
X276064Y476919D01*
X286280Y469809D02*
X288939Y471670D01*
X289030Y471737D01*
X289120Y471806D01*
X289207Y471879D01*
X289291Y471955D01*
X289372Y472034D01*
X289451Y472115D01*
X289527Y472199D01*
X289600Y472286D01*
X289669Y472376D01*
X289736Y472467D01*
X289799Y472561D01*
X289859Y472657D01*
X289916Y472755D01*
X289969Y472855D01*
X290019Y472957D01*
X290065Y473061D01*
X290107Y473166D01*
X290146Y473272D01*
X290181Y473380D01*
X290212Y473489D01*
X290240Y473599D01*
X290263Y473710D01*
X290283Y473821D01*
X290299Y473933D01*
X290311Y474046D01*
X290319Y474159D01*
X290323Y474272D01*
X290323Y474386D01*
X290319Y474499D01*
X290311Y474612D01*
X290299Y474725D01*
X290283Y474837D01*
X290263Y474948D01*
X290240Y475059D01*
X290212Y475169D01*
X290181Y475278D01*
X290146Y475386D01*
X290107Y475492D01*
X290065Y475597D01*
X290019Y475701D01*
X289969Y475803D01*
X289916Y475903D01*
X289859Y476001D01*
X289799Y476097D01*
X289736Y476191D01*
X289669Y476282D01*
X289600Y476372D01*
X289527Y476459D01*
X289451Y476543D01*
X289372Y476624D01*
X289291Y476703D01*
X289207Y476779D01*
X289120Y476852D01*
X289031Y476921D01*
X288939Y476988D01*
X288845Y477051D01*
X288749Y477111D01*
X288651Y477168D01*
X288551Y477221D01*
X288449Y477271D01*
X288345Y477317D01*
X288240Y477359D01*
X288134Y477398D01*
X288026Y477433D01*
X287917Y477464D01*
X287807Y477492D01*
X287696Y477515D01*
X287585Y477535D01*
X287473Y477551D01*
X287360Y477563D01*
X287247Y477571D01*
X287134Y477575D01*
X287020Y477575D01*
X286907Y477571D01*
X286794Y477563D01*
X286681Y477551D01*
X286569Y477535D01*
X286458Y477515D01*
X286347Y477492D01*
X286237Y477464D01*
X286128Y477433D01*
X286020Y477398D01*
X285914Y477359D01*
X285809Y477317D01*
X285705Y477271D01*
X285603Y477221D01*
X285503Y477168D01*
X285405Y477111D01*
X285309Y477051D01*
X285215Y476988D01*
X282769Y481614D02*
X279578Y479380D01*
X282769Y481614D02*
X282853Y481670D01*
X282938Y481723D01*
X283026Y481772D01*
X283115Y481818D01*
X283207Y481861D01*
X283300Y481900D01*
X283394Y481935D01*
X283489Y481967D01*
X283586Y481995D01*
X283684Y482019D01*
X283782Y482039D01*
X283882Y482056D01*
X283982Y482068D01*
X284082Y482077D01*
X284183Y482082D01*
X284283Y482083D01*
X284384Y482080D01*
X284484Y482073D01*
X284584Y482062D01*
X284684Y482048D01*
X284783Y482029D01*
X284881Y482007D01*
X284978Y481981D01*
X285075Y481951D01*
X285170Y481918D01*
X285263Y481881D01*
X285355Y481840D01*
X285446Y481795D01*
X285534Y481748D01*
X285621Y481696D01*
X285705Y481642D01*
X285788Y481584D01*
X285868Y481523D01*
X285946Y481459D01*
X286021Y481392D01*
X286094Y481323D01*
X286163Y481250D01*
X286230Y481175D01*
X286294Y481097D01*
X286355Y481017D01*
X286413Y480934D01*
X286467Y480850D01*
X286519Y480763D01*
X286566Y480675D01*
X286611Y480584D01*
X286652Y480492D01*
X286689Y480398D01*
X286722Y480304D01*
X286752Y480207D01*
X286778Y480110D01*
X286800Y480012D01*
X286819Y479913D01*
X286833Y479813D01*
X286844Y479713D01*
X286851Y479613D01*
X286854Y479512D01*
X286853Y479412D01*
X286848Y479311D01*
X286839Y479211D01*
X286827Y479111D01*
X286810Y479011D01*
X286790Y478913D01*
X286766Y478815D01*
X286738Y478718D01*
X286706Y478623D01*
X286671Y478529D01*
X286632Y478436D01*
X286589Y478344D01*
X286543Y478255D01*
X286494Y478167D01*
X286441Y478082D01*
X286385Y477998D01*
X286325Y477917D01*
X286263Y477838D01*
X286197Y477761D01*
X286129Y477687D01*
X286058Y477616D01*
X285984Y477548D01*
X285907Y477482D01*
X285828Y477420D01*
X285747Y477360D01*
X283620Y475871D01*
X400553Y473532D02*
X403211Y471670D01*
X403305Y471607D01*
X403401Y471547D01*
X403499Y471490D01*
X403599Y471437D01*
X403701Y471387D01*
X403805Y471341D01*
X403910Y471299D01*
X404016Y471260D01*
X404124Y471225D01*
X404233Y471194D01*
X404343Y471166D01*
X404454Y471143D01*
X404565Y471123D01*
X404677Y471107D01*
X404790Y471095D01*
X404903Y471087D01*
X405016Y471083D01*
X405130Y471083D01*
X405243Y471087D01*
X405356Y471095D01*
X405469Y471107D01*
X405581Y471123D01*
X405692Y471143D01*
X405803Y471166D01*
X405913Y471194D01*
X406022Y471225D01*
X406130Y471260D01*
X406236Y471299D01*
X406341Y471341D01*
X406445Y471387D01*
X406547Y471437D01*
X406647Y471490D01*
X406745Y471547D01*
X406841Y471607D01*
X406935Y471670D01*
X407026Y471737D01*
X407116Y471806D01*
X407203Y471879D01*
X407287Y471955D01*
X407368Y472034D01*
X407447Y472115D01*
X407523Y472199D01*
X407596Y472286D01*
X407665Y472376D01*
X407732Y472467D01*
X407795Y472561D01*
X407855Y472657D01*
X407912Y472755D01*
X407965Y472855D01*
X408015Y472957D01*
X408061Y473061D01*
X408103Y473166D01*
X408142Y473272D01*
X408177Y473380D01*
X408208Y473489D01*
X408236Y473599D01*
X408259Y473710D01*
X408279Y473821D01*
X408295Y473933D01*
X408307Y474046D01*
X408315Y474159D01*
X408319Y474272D01*
X408319Y474386D01*
X408315Y474499D01*
X408307Y474612D01*
X408295Y474725D01*
X408279Y474837D01*
X408259Y474948D01*
X408236Y475059D01*
X408208Y475169D01*
X408177Y475278D01*
X408142Y475386D01*
X408103Y475492D01*
X408061Y475597D01*
X408015Y475701D01*
X407965Y475803D01*
X407912Y475903D01*
X407855Y476001D01*
X407795Y476097D01*
X407732Y476191D01*
X407665Y476282D01*
X407596Y476372D01*
X407523Y476459D01*
X407447Y476543D01*
X407368Y476624D01*
X407287Y476703D01*
X407203Y476779D01*
X407116Y476852D01*
X407027Y476921D01*
X406935Y476988D01*
X410445Y480869D02*
X407254Y483103D01*
X410444Y480869D02*
X410525Y480809D01*
X410604Y480747D01*
X410681Y480681D01*
X410755Y480613D01*
X410826Y480542D01*
X410894Y480468D01*
X410960Y480391D01*
X411022Y480312D01*
X411082Y480231D01*
X411138Y480147D01*
X411191Y480062D01*
X411240Y479974D01*
X411286Y479885D01*
X411329Y479793D01*
X411368Y479700D01*
X411403Y479606D01*
X411435Y479511D01*
X411463Y479414D01*
X411487Y479316D01*
X411507Y479218D01*
X411524Y479118D01*
X411536Y479018D01*
X411545Y478918D01*
X411550Y478818D01*
X411551Y478717D01*
X411548Y478616D01*
X411541Y478516D01*
X411530Y478416D01*
X411516Y478316D01*
X411497Y478217D01*
X411475Y478119D01*
X411449Y478022D01*
X411419Y477925D01*
X411386Y477831D01*
X411349Y477737D01*
X411308Y477645D01*
X411263Y477554D01*
X411216Y477466D01*
X411164Y477379D01*
X411110Y477295D01*
X411052Y477212D01*
X410991Y477132D01*
X410927Y477054D01*
X410860Y476979D01*
X410791Y476906D01*
X410718Y476837D01*
X410643Y476770D01*
X410565Y476706D01*
X410485Y476645D01*
X410402Y476587D01*
X410318Y476533D01*
X410231Y476481D01*
X410143Y476434D01*
X410052Y476389D01*
X409960Y476348D01*
X409866Y476311D01*
X409772Y476278D01*
X409675Y476248D01*
X409578Y476222D01*
X409480Y476200D01*
X409381Y476181D01*
X409281Y476167D01*
X409181Y476156D01*
X409081Y476149D01*
X408980Y476146D01*
X408879Y476147D01*
X408779Y476152D01*
X408679Y476161D01*
X408579Y476173D01*
X408479Y476190D01*
X408381Y476210D01*
X408283Y476234D01*
X408186Y476262D01*
X408091Y476294D01*
X407997Y476329D01*
X407904Y476368D01*
X407812Y476411D01*
X407723Y476457D01*
X407635Y476506D01*
X407550Y476559D01*
X407466Y476615D01*
X405339Y478105D01*
X416085Y476919D02*
X412574Y465114D01*
X422466Y472452D01*
X419278Y460420D02*
X421937Y458558D01*
X422031Y458495D01*
X422127Y458435D01*
X422225Y458378D01*
X422325Y458325D01*
X422427Y458275D01*
X422531Y458229D01*
X422636Y458187D01*
X422742Y458148D01*
X422850Y458113D01*
X422959Y458082D01*
X423069Y458054D01*
X423180Y458031D01*
X423291Y458011D01*
X423403Y457995D01*
X423516Y457983D01*
X423629Y457975D01*
X423742Y457971D01*
X423856Y457971D01*
X423969Y457975D01*
X424082Y457983D01*
X424195Y457995D01*
X424307Y458011D01*
X424418Y458031D01*
X424529Y458054D01*
X424639Y458082D01*
X424748Y458113D01*
X424856Y458148D01*
X424962Y458187D01*
X425067Y458229D01*
X425171Y458275D01*
X425273Y458325D01*
X425373Y458378D01*
X425471Y458435D01*
X425567Y458495D01*
X425661Y458558D01*
X425752Y458625D01*
X425842Y458694D01*
X425929Y458767D01*
X426013Y458843D01*
X426094Y458922D01*
X426173Y459003D01*
X426249Y459087D01*
X426322Y459174D01*
X426391Y459264D01*
X426458Y459355D01*
X426521Y459449D01*
X426581Y459545D01*
X426638Y459643D01*
X426691Y459743D01*
X426741Y459845D01*
X426787Y459949D01*
X426829Y460054D01*
X426868Y460160D01*
X426903Y460268D01*
X426934Y460377D01*
X426962Y460487D01*
X426985Y460598D01*
X427005Y460709D01*
X427021Y460821D01*
X427033Y460934D01*
X427041Y461047D01*
X427045Y461160D01*
X427045Y461274D01*
X427041Y461387D01*
X427033Y461500D01*
X427021Y461613D01*
X427005Y461725D01*
X426985Y461836D01*
X426962Y461947D01*
X426934Y462057D01*
X426903Y462166D01*
X426868Y462274D01*
X426829Y462380D01*
X426787Y462485D01*
X426741Y462589D01*
X426691Y462691D01*
X426638Y462791D01*
X426581Y462889D01*
X426521Y462985D01*
X426458Y463079D01*
X426391Y463170D01*
X426322Y463260D01*
X426249Y463347D01*
X426173Y463431D01*
X426094Y463512D01*
X426013Y463591D01*
X425929Y463667D01*
X425842Y463740D01*
X425753Y463809D01*
X425661Y463876D01*
X429170Y467757D02*
X425980Y469991D01*
X429170Y467757D02*
X429251Y467697D01*
X429330Y467635D01*
X429407Y467569D01*
X429481Y467501D01*
X429552Y467430D01*
X429620Y467356D01*
X429686Y467279D01*
X429748Y467200D01*
X429808Y467119D01*
X429864Y467035D01*
X429917Y466950D01*
X429966Y466862D01*
X430012Y466773D01*
X430055Y466681D01*
X430094Y466588D01*
X430129Y466494D01*
X430161Y466399D01*
X430189Y466302D01*
X430213Y466204D01*
X430233Y466106D01*
X430250Y466006D01*
X430262Y465906D01*
X430271Y465806D01*
X430276Y465706D01*
X430277Y465605D01*
X430274Y465504D01*
X430267Y465404D01*
X430256Y465304D01*
X430242Y465204D01*
X430223Y465105D01*
X430201Y465007D01*
X430175Y464910D01*
X430145Y464813D01*
X430112Y464719D01*
X430075Y464625D01*
X430034Y464533D01*
X429989Y464442D01*
X429942Y464354D01*
X429890Y464267D01*
X429836Y464183D01*
X429778Y464100D01*
X429717Y464020D01*
X429653Y463942D01*
X429586Y463867D01*
X429517Y463794D01*
X429444Y463725D01*
X429369Y463658D01*
X429291Y463594D01*
X429211Y463533D01*
X429128Y463475D01*
X429044Y463421D01*
X428957Y463369D01*
X428869Y463322D01*
X428778Y463277D01*
X428686Y463236D01*
X428592Y463199D01*
X428498Y463166D01*
X428401Y463136D01*
X428304Y463110D01*
X428206Y463088D01*
X428107Y463069D01*
X428007Y463055D01*
X427907Y463044D01*
X427807Y463037D01*
X427706Y463034D01*
X427605Y463035D01*
X427505Y463040D01*
X427405Y463049D01*
X427305Y463061D01*
X427205Y463078D01*
X427107Y463098D01*
X427009Y463122D01*
X426912Y463150D01*
X426817Y463182D01*
X426723Y463217D01*
X426630Y463256D01*
X426538Y463299D01*
X426449Y463345D01*
X426361Y463394D01*
X426276Y463447D01*
X426192Y463503D01*
X424065Y464993D01*
D122*
X281724Y304127D02*
X281724Y285686D01*
X281724Y304127D02*
X300888Y304127D01*
X281851Y304000D02*
X270573Y315227D01*
X270104Y315227D02*
X271589Y309131D01*
X270345Y315709D02*
X277127Y314858D01*
X278206Y290665D02*
X281241Y285331D01*
X281610Y284963D02*
X285242Y290424D01*
X296888Y300723D02*
X301003Y304127D01*
X300888Y304609D02*
X297002Y307759D01*
D10*
X304305Y301066D02*
X310175Y309871D01*
X304305Y309871D02*
X310175Y301066D01*
X289275Y283519D02*
X287807Y283519D01*
X289275Y283519D02*
X293678Y296727D01*
X287807Y296727D02*
X290742Y287922D01*
X285994Y321352D02*
X280124Y321352D01*
X285994Y321352D02*
X280124Y312547D01*
X285994Y312547D01*
D122*
X379882Y359956D02*
X379882Y382892D01*
X379882Y359956D02*
X399669Y359969D01*
X380009Y360083D02*
X367068Y348259D01*
X366598Y348259D02*
X368287Y355168D01*
X366839Y347777D02*
X373621Y348628D01*
X376364Y377914D02*
X379400Y383248D01*
X379768Y383616D02*
X383400Y378155D01*
X395668Y363372D02*
X399783Y359969D01*
X399669Y359486D02*
X395783Y356337D01*
D10*
X402857Y355562D02*
X408727Y364367D01*
X402857Y364367D02*
X408727Y355562D01*
X387916Y373854D02*
X386448Y373854D01*
X387916Y373854D02*
X392319Y387062D01*
X386448Y387062D02*
X389383Y378257D01*
X369217Y367504D02*
X363347Y367504D01*
X369217Y367504D02*
X363347Y358699D01*
X369217Y358699D01*
D123*
X240388Y343813D02*
X240388Y341313D01*
X240388Y338813D01*
X240388Y341313D02*
X245388Y343813D01*
X245388Y338813D02*
X240388Y341313D01*
X245388Y338813D02*
X245388Y343813D01*
X255388Y346313D02*
X255388Y336313D01*
X230388Y336313D01*
X230388Y346313D01*
X255388Y346313D01*
D124*
X232794Y331484D02*
X232794Y322086D01*
X232794Y331484D02*
X235404Y331484D01*
X235504Y331482D01*
X235604Y331476D01*
X235703Y331467D01*
X235803Y331453D01*
X235901Y331436D01*
X235999Y331415D01*
X236096Y331391D01*
X236192Y331362D01*
X236287Y331330D01*
X236380Y331295D01*
X236472Y331256D01*
X236563Y331213D01*
X236651Y331167D01*
X236738Y331117D01*
X236823Y331065D01*
X236906Y331009D01*
X236987Y330950D01*
X237065Y330887D01*
X237141Y330822D01*
X237215Y330754D01*
X237285Y330684D01*
X237353Y330610D01*
X237418Y330534D01*
X237481Y330456D01*
X237540Y330375D01*
X237596Y330292D01*
X237648Y330207D01*
X237698Y330120D01*
X237744Y330032D01*
X237787Y329941D01*
X237826Y329849D01*
X237861Y329756D01*
X237893Y329661D01*
X237922Y329565D01*
X237946Y329468D01*
X237967Y329370D01*
X237984Y329272D01*
X237998Y329172D01*
X238007Y329073D01*
X238013Y328973D01*
X238015Y328873D01*
X238015Y324697D01*
X238013Y324597D01*
X238007Y324497D01*
X237998Y324398D01*
X237984Y324298D01*
X237967Y324200D01*
X237946Y324102D01*
X237922Y324005D01*
X237893Y323909D01*
X237861Y323814D01*
X237826Y323721D01*
X237787Y323629D01*
X237744Y323538D01*
X237698Y323450D01*
X237648Y323363D01*
X237596Y323278D01*
X237540Y323195D01*
X237481Y323114D01*
X237418Y323036D01*
X237353Y322960D01*
X237285Y322886D01*
X237215Y322816D01*
X237141Y322748D01*
X237065Y322683D01*
X236987Y322620D01*
X236906Y322561D01*
X236823Y322505D01*
X236738Y322453D01*
X236651Y322403D01*
X236563Y322357D01*
X236472Y322314D01*
X236380Y322275D01*
X236287Y322240D01*
X236192Y322208D01*
X236096Y322179D01*
X235999Y322155D01*
X235901Y322134D01*
X235803Y322117D01*
X235703Y322103D01*
X235604Y322094D01*
X235504Y322088D01*
X235404Y322086D01*
X232794Y322086D01*
X242242Y329396D02*
X244853Y331484D01*
X244853Y322086D01*
X247463Y322086D02*
X242242Y322086D01*
D11*
X455613Y350838D02*
X468313Y350838D01*
X474663Y344488D01*
X474663Y331788D01*
X468313Y325438D01*
X449263Y331788D02*
X449263Y344488D01*
X455613Y350838D01*
X449263Y331788D02*
X455613Y325438D01*
X468313Y325438D01*
D124*
X394529Y422021D02*
X394529Y431419D01*
X398706Y431419D01*
X398706Y427242D02*
X394529Y427242D01*
X402567Y427242D02*
X405178Y427242D01*
X405178Y427243D02*
X405279Y427241D01*
X405380Y427235D01*
X405481Y427225D01*
X405581Y427212D01*
X405681Y427194D01*
X405780Y427173D01*
X405878Y427147D01*
X405975Y427118D01*
X406071Y427086D01*
X406165Y427049D01*
X406258Y427009D01*
X406350Y426965D01*
X406439Y426918D01*
X406527Y426867D01*
X406613Y426813D01*
X406696Y426756D01*
X406778Y426696D01*
X406856Y426632D01*
X406933Y426566D01*
X407006Y426496D01*
X407077Y426424D01*
X407145Y426349D01*
X407210Y426271D01*
X407272Y426191D01*
X407331Y426109D01*
X407387Y426024D01*
X407439Y425937D01*
X407488Y425849D01*
X407534Y425758D01*
X407575Y425666D01*
X407614Y425572D01*
X407648Y425477D01*
X407679Y425381D01*
X407706Y425283D01*
X407730Y425185D01*
X407749Y425085D01*
X407765Y424985D01*
X407777Y424885D01*
X407785Y424784D01*
X407789Y424683D01*
X407789Y424581D01*
X407785Y424480D01*
X407777Y424379D01*
X407765Y424279D01*
X407749Y424179D01*
X407730Y424079D01*
X407706Y423981D01*
X407679Y423883D01*
X407648Y423787D01*
X407614Y423692D01*
X407575Y423598D01*
X407534Y423506D01*
X407488Y423415D01*
X407439Y423327D01*
X407387Y423240D01*
X407331Y423155D01*
X407272Y423073D01*
X407210Y422993D01*
X407145Y422915D01*
X407077Y422840D01*
X407006Y422768D01*
X406933Y422698D01*
X406856Y422632D01*
X406778Y422568D01*
X406696Y422508D01*
X406613Y422451D01*
X406527Y422397D01*
X406439Y422346D01*
X406350Y422299D01*
X406258Y422255D01*
X406165Y422215D01*
X406071Y422178D01*
X405975Y422146D01*
X405878Y422117D01*
X405780Y422091D01*
X405681Y422070D01*
X405581Y422052D01*
X405481Y422039D01*
X405380Y422029D01*
X405279Y422023D01*
X405178Y422021D01*
X402567Y422021D01*
X402567Y431419D01*
X405178Y431419D01*
X405268Y431417D01*
X405357Y431411D01*
X405447Y431402D01*
X405536Y431388D01*
X405624Y431371D01*
X405711Y431350D01*
X405798Y431325D01*
X405883Y431296D01*
X405967Y431264D01*
X406049Y431229D01*
X406130Y431189D01*
X406209Y431147D01*
X406286Y431101D01*
X406361Y431051D01*
X406434Y430999D01*
X406505Y430943D01*
X406573Y430885D01*
X406638Y430823D01*
X406701Y430759D01*
X406761Y430692D01*
X406818Y430623D01*
X406872Y430551D01*
X406923Y430477D01*
X406971Y430401D01*
X407015Y430323D01*
X407056Y430243D01*
X407094Y430161D01*
X407128Y430078D01*
X407158Y429993D01*
X407185Y429907D01*
X407208Y429821D01*
X407227Y429733D01*
X407242Y429644D01*
X407254Y429555D01*
X407262Y429466D01*
X407266Y429376D01*
X407266Y429286D01*
X407262Y429196D01*
X407254Y429107D01*
X407242Y429018D01*
X407227Y428929D01*
X407208Y428841D01*
X407185Y428755D01*
X407158Y428669D01*
X407128Y428584D01*
X407094Y428501D01*
X407056Y428419D01*
X407015Y428339D01*
X406971Y428261D01*
X406923Y428185D01*
X406872Y428111D01*
X406818Y428039D01*
X406761Y427970D01*
X406701Y427903D01*
X406638Y427839D01*
X406573Y427777D01*
X406505Y427719D01*
X406434Y427663D01*
X406361Y427611D01*
X406286Y427561D01*
X406209Y427515D01*
X406130Y427473D01*
X406049Y427433D01*
X405967Y427398D01*
X405883Y427366D01*
X405798Y427337D01*
X405711Y427312D01*
X405624Y427291D01*
X405536Y427274D01*
X405447Y427260D01*
X405357Y427251D01*
X405268Y427245D01*
X405178Y427243D01*
X411275Y429331D02*
X413886Y431419D01*
X413886Y422021D01*
X411275Y422021D02*
X416497Y422021D01*
D125*
X364855Y331513D02*
X364857Y331546D01*
X364863Y331578D01*
X364873Y331609D01*
X364886Y331638D01*
X364903Y331666D01*
X364923Y331692D01*
X364946Y331715D01*
X364972Y331735D01*
X365000Y331752D01*
X365029Y331765D01*
X365060Y331775D01*
X365092Y331781D01*
X365125Y331783D01*
X365158Y331781D01*
X365190Y331775D01*
X365221Y331765D01*
X365250Y331752D01*
X365278Y331735D01*
X365304Y331715D01*
X365327Y331692D01*
X365347Y331666D01*
X365364Y331638D01*
X365377Y331609D01*
X365387Y331578D01*
X365393Y331546D01*
X365395Y331513D01*
X365393Y331480D01*
X365387Y331448D01*
X365377Y331417D01*
X365364Y331388D01*
X365347Y331360D01*
X365327Y331334D01*
X365304Y331311D01*
X365278Y331291D01*
X365250Y331274D01*
X365221Y331261D01*
X365190Y331251D01*
X365158Y331245D01*
X365125Y331243D01*
X365092Y331245D01*
X365060Y331251D01*
X365029Y331261D01*
X365000Y331274D01*
X364972Y331291D01*
X364946Y331311D01*
X364923Y331334D01*
X364903Y331360D01*
X364886Y331388D01*
X364873Y331417D01*
X364863Y331448D01*
X364857Y331480D01*
X364855Y331513D01*
D124*
X324253Y335037D02*
X317466Y335037D01*
X324253Y335036D02*
X324354Y335038D01*
X324455Y335044D01*
X324556Y335054D01*
X324656Y335067D01*
X324756Y335085D01*
X324855Y335106D01*
X324953Y335132D01*
X325050Y335161D01*
X325146Y335193D01*
X325240Y335230D01*
X325333Y335270D01*
X325425Y335314D01*
X325514Y335361D01*
X325602Y335412D01*
X325688Y335466D01*
X325771Y335523D01*
X325853Y335583D01*
X325931Y335647D01*
X326008Y335713D01*
X326081Y335783D01*
X326152Y335855D01*
X326220Y335930D01*
X326285Y336008D01*
X326347Y336088D01*
X326406Y336170D01*
X326462Y336255D01*
X326514Y336342D01*
X326563Y336430D01*
X326609Y336521D01*
X326650Y336613D01*
X326689Y336707D01*
X326723Y336802D01*
X326754Y336898D01*
X326781Y336996D01*
X326805Y337094D01*
X326824Y337194D01*
X326840Y337294D01*
X326852Y337394D01*
X326860Y337495D01*
X326864Y337596D01*
X326864Y337698D01*
X326860Y337799D01*
X326852Y337900D01*
X326840Y338000D01*
X326824Y338100D01*
X326805Y338200D01*
X326781Y338298D01*
X326754Y338396D01*
X326723Y338492D01*
X326689Y338587D01*
X326650Y338681D01*
X326609Y338773D01*
X326563Y338864D01*
X326514Y338952D01*
X326462Y339039D01*
X326406Y339124D01*
X326347Y339206D01*
X326285Y339286D01*
X326220Y339364D01*
X326152Y339439D01*
X326081Y339511D01*
X326008Y339581D01*
X325931Y339647D01*
X325853Y339711D01*
X325771Y339771D01*
X325688Y339828D01*
X325602Y339882D01*
X325514Y339933D01*
X325425Y339980D01*
X325333Y340024D01*
X325240Y340064D01*
X325146Y340101D01*
X325050Y340133D01*
X324953Y340162D01*
X324855Y340188D01*
X324756Y340209D01*
X324656Y340227D01*
X324556Y340240D01*
X324455Y340250D01*
X324354Y340256D01*
X324253Y340258D01*
X317466Y340258D01*
X317466Y347357D02*
X317468Y347452D01*
X317474Y347546D01*
X317483Y347640D01*
X317496Y347734D01*
X317513Y347827D01*
X317534Y347919D01*
X317559Y348011D01*
X317587Y348101D01*
X317619Y348190D01*
X317654Y348278D01*
X317693Y348364D01*
X317735Y348449D01*
X317781Y348532D01*
X317830Y348613D01*
X317882Y348692D01*
X317937Y348769D01*
X317996Y348843D01*
X318057Y348915D01*
X318121Y348985D01*
X318188Y349052D01*
X318258Y349116D01*
X318330Y349177D01*
X318404Y349236D01*
X318481Y349291D01*
X318560Y349343D01*
X318641Y349392D01*
X318724Y349438D01*
X318809Y349480D01*
X318895Y349519D01*
X318983Y349554D01*
X319072Y349586D01*
X319162Y349614D01*
X319254Y349639D01*
X319346Y349660D01*
X319439Y349677D01*
X319533Y349690D01*
X319627Y349699D01*
X319721Y349705D01*
X319816Y349707D01*
X317466Y347357D02*
X317468Y347249D01*
X317474Y347140D01*
X317484Y347032D01*
X317497Y346925D01*
X317515Y346818D01*
X317536Y346711D01*
X317561Y346606D01*
X317590Y346501D01*
X317622Y346398D01*
X317659Y346296D01*
X317699Y346195D01*
X317742Y346096D01*
X317789Y345998D01*
X317840Y345902D01*
X317894Y345808D01*
X317951Y345716D01*
X318012Y345626D01*
X318076Y345538D01*
X318142Y345453D01*
X318212Y345370D01*
X318285Y345290D01*
X318361Y345212D01*
X318439Y345137D01*
X318520Y345065D01*
X318604Y344996D01*
X318690Y344930D01*
X318778Y344867D01*
X318869Y344808D01*
X318961Y344751D01*
X319056Y344698D01*
X319153Y344649D01*
X319251Y344603D01*
X319350Y344560D01*
X319452Y344521D01*
X319554Y344486D01*
X321644Y348924D02*
X321575Y348993D01*
X321504Y349059D01*
X321431Y349123D01*
X321355Y349184D01*
X321276Y349242D01*
X321196Y349296D01*
X321113Y349348D01*
X321029Y349396D01*
X320943Y349442D01*
X320855Y349483D01*
X320765Y349522D01*
X320674Y349557D01*
X320582Y349588D01*
X320489Y349616D01*
X320395Y349640D01*
X320300Y349660D01*
X320204Y349677D01*
X320107Y349690D01*
X320010Y349699D01*
X319913Y349705D01*
X319816Y349707D01*
X321643Y348923D02*
X326864Y344485D01*
X326864Y349707D01*
X337884Y302006D02*
X347282Y302006D01*
X337884Y302006D02*
X337884Y304617D01*
X337883Y304617D02*
X337885Y304718D01*
X337891Y304819D01*
X337901Y304920D01*
X337914Y305020D01*
X337932Y305120D01*
X337953Y305219D01*
X337979Y305317D01*
X338008Y305414D01*
X338040Y305510D01*
X338077Y305604D01*
X338117Y305697D01*
X338161Y305789D01*
X338208Y305878D01*
X338259Y305966D01*
X338313Y306052D01*
X338370Y306135D01*
X338430Y306217D01*
X338494Y306295D01*
X338560Y306372D01*
X338630Y306445D01*
X338702Y306516D01*
X338777Y306584D01*
X338855Y306649D01*
X338935Y306711D01*
X339017Y306770D01*
X339102Y306826D01*
X339189Y306878D01*
X339277Y306927D01*
X339368Y306973D01*
X339460Y307014D01*
X339554Y307053D01*
X339649Y307087D01*
X339745Y307118D01*
X339843Y307145D01*
X339941Y307169D01*
X340041Y307188D01*
X340141Y307204D01*
X340241Y307216D01*
X340342Y307224D01*
X340443Y307228D01*
X340545Y307228D01*
X340646Y307224D01*
X340747Y307216D01*
X340847Y307204D01*
X340947Y307188D01*
X341047Y307169D01*
X341145Y307145D01*
X341243Y307118D01*
X341339Y307087D01*
X341434Y307053D01*
X341528Y307014D01*
X341620Y306973D01*
X341711Y306927D01*
X341800Y306878D01*
X341886Y306826D01*
X341971Y306770D01*
X342053Y306711D01*
X342133Y306649D01*
X342211Y306584D01*
X342286Y306516D01*
X342358Y306445D01*
X342428Y306372D01*
X342494Y306295D01*
X342558Y306217D01*
X342618Y306135D01*
X342675Y306052D01*
X342729Y305966D01*
X342780Y305878D01*
X342827Y305789D01*
X342871Y305697D01*
X342911Y305604D01*
X342948Y305510D01*
X342980Y305414D01*
X343009Y305317D01*
X343035Y305219D01*
X343056Y305120D01*
X343074Y305020D01*
X343087Y304920D01*
X343097Y304819D01*
X343103Y304718D01*
X343105Y304617D01*
X343105Y302006D01*
X343105Y305139D02*
X347282Y307227D01*
X344671Y311092D02*
X344570Y311094D01*
X344469Y311100D01*
X344368Y311110D01*
X344268Y311123D01*
X344168Y311141D01*
X344069Y311162D01*
X343971Y311188D01*
X343874Y311217D01*
X343778Y311249D01*
X343684Y311286D01*
X343591Y311326D01*
X343499Y311370D01*
X343410Y311417D01*
X343322Y311468D01*
X343236Y311522D01*
X343153Y311579D01*
X343071Y311639D01*
X342993Y311703D01*
X342916Y311769D01*
X342843Y311839D01*
X342772Y311911D01*
X342704Y311986D01*
X342639Y312064D01*
X342577Y312144D01*
X342518Y312226D01*
X342462Y312311D01*
X342410Y312398D01*
X342361Y312486D01*
X342315Y312577D01*
X342274Y312669D01*
X342235Y312763D01*
X342201Y312858D01*
X342170Y312954D01*
X342143Y313052D01*
X342119Y313150D01*
X342100Y313250D01*
X342084Y313350D01*
X342072Y313450D01*
X342064Y313551D01*
X342060Y313652D01*
X342060Y313754D01*
X342064Y313855D01*
X342072Y313956D01*
X342084Y314056D01*
X342100Y314156D01*
X342119Y314256D01*
X342143Y314354D01*
X342170Y314452D01*
X342201Y314548D01*
X342235Y314643D01*
X342274Y314737D01*
X342315Y314829D01*
X342361Y314920D01*
X342410Y315009D01*
X342462Y315095D01*
X342518Y315180D01*
X342577Y315262D01*
X342639Y315342D01*
X342704Y315420D01*
X342772Y315495D01*
X342843Y315567D01*
X342916Y315637D01*
X342993Y315703D01*
X343071Y315767D01*
X343153Y315827D01*
X343236Y315884D01*
X343322Y315938D01*
X343410Y315989D01*
X343499Y316036D01*
X343591Y316080D01*
X343684Y316120D01*
X343778Y316157D01*
X343874Y316189D01*
X343971Y316218D01*
X344069Y316244D01*
X344168Y316265D01*
X344268Y316283D01*
X344368Y316296D01*
X344469Y316306D01*
X344570Y316312D01*
X344671Y316314D01*
X344772Y316312D01*
X344873Y316306D01*
X344974Y316296D01*
X345074Y316283D01*
X345174Y316265D01*
X345273Y316244D01*
X345371Y316218D01*
X345468Y316189D01*
X345564Y316157D01*
X345658Y316120D01*
X345751Y316080D01*
X345843Y316036D01*
X345932Y315989D01*
X346020Y315938D01*
X346106Y315884D01*
X346189Y315827D01*
X346271Y315767D01*
X346349Y315703D01*
X346426Y315637D01*
X346499Y315567D01*
X346570Y315495D01*
X346638Y315420D01*
X346703Y315342D01*
X346765Y315262D01*
X346824Y315180D01*
X346880Y315095D01*
X346932Y315008D01*
X346981Y314920D01*
X347027Y314829D01*
X347068Y314737D01*
X347107Y314643D01*
X347141Y314548D01*
X347172Y314452D01*
X347199Y314354D01*
X347223Y314256D01*
X347242Y314156D01*
X347258Y314056D01*
X347270Y313956D01*
X347278Y313855D01*
X347282Y313754D01*
X347282Y313652D01*
X347278Y313551D01*
X347270Y313450D01*
X347258Y313350D01*
X347242Y313250D01*
X347223Y313150D01*
X347199Y313052D01*
X347172Y312954D01*
X347141Y312858D01*
X347107Y312763D01*
X347068Y312669D01*
X347027Y312577D01*
X346981Y312486D01*
X346932Y312398D01*
X346880Y312311D01*
X346824Y312226D01*
X346765Y312144D01*
X346703Y312064D01*
X346638Y311986D01*
X346570Y311911D01*
X346499Y311839D01*
X346426Y311769D01*
X346349Y311703D01*
X346271Y311639D01*
X346189Y311579D01*
X346106Y311522D01*
X346020Y311468D01*
X345932Y311417D01*
X345843Y311370D01*
X345751Y311326D01*
X345658Y311286D01*
X345564Y311249D01*
X345468Y311217D01*
X345371Y311188D01*
X345273Y311162D01*
X345174Y311141D01*
X345074Y311123D01*
X344974Y311110D01*
X344873Y311100D01*
X344772Y311094D01*
X344671Y311092D01*
X339972Y311615D02*
X339882Y311617D01*
X339793Y311623D01*
X339703Y311632D01*
X339614Y311646D01*
X339526Y311663D01*
X339439Y311684D01*
X339352Y311709D01*
X339267Y311738D01*
X339183Y311770D01*
X339101Y311805D01*
X339020Y311845D01*
X338941Y311887D01*
X338864Y311933D01*
X338789Y311983D01*
X338716Y312035D01*
X338645Y312091D01*
X338577Y312149D01*
X338512Y312211D01*
X338449Y312275D01*
X338389Y312342D01*
X338332Y312411D01*
X338278Y312483D01*
X338227Y312557D01*
X338179Y312633D01*
X338135Y312711D01*
X338094Y312791D01*
X338056Y312873D01*
X338022Y312956D01*
X337992Y313041D01*
X337965Y313127D01*
X337942Y313213D01*
X337923Y313301D01*
X337908Y313390D01*
X337896Y313479D01*
X337888Y313568D01*
X337884Y313658D01*
X337884Y313748D01*
X337888Y313838D01*
X337896Y313927D01*
X337908Y314016D01*
X337923Y314105D01*
X337942Y314193D01*
X337965Y314279D01*
X337992Y314365D01*
X338022Y314450D01*
X338056Y314533D01*
X338094Y314615D01*
X338135Y314695D01*
X338179Y314773D01*
X338227Y314849D01*
X338278Y314923D01*
X338332Y314995D01*
X338389Y315064D01*
X338449Y315131D01*
X338512Y315195D01*
X338577Y315257D01*
X338645Y315315D01*
X338716Y315371D01*
X338789Y315423D01*
X338864Y315473D01*
X338941Y315519D01*
X339020Y315561D01*
X339101Y315601D01*
X339183Y315636D01*
X339267Y315668D01*
X339352Y315697D01*
X339439Y315722D01*
X339526Y315743D01*
X339614Y315760D01*
X339703Y315774D01*
X339793Y315783D01*
X339882Y315789D01*
X339972Y315791D01*
X340062Y315789D01*
X340151Y315783D01*
X340241Y315774D01*
X340330Y315760D01*
X340418Y315743D01*
X340505Y315722D01*
X340592Y315697D01*
X340677Y315668D01*
X340761Y315636D01*
X340843Y315601D01*
X340924Y315561D01*
X341003Y315519D01*
X341080Y315473D01*
X341155Y315423D01*
X341228Y315371D01*
X341299Y315315D01*
X341367Y315257D01*
X341432Y315195D01*
X341495Y315131D01*
X341555Y315064D01*
X341612Y314995D01*
X341666Y314923D01*
X341717Y314849D01*
X341765Y314773D01*
X341809Y314695D01*
X341850Y314615D01*
X341888Y314533D01*
X341922Y314450D01*
X341952Y314365D01*
X341979Y314279D01*
X342002Y314193D01*
X342021Y314105D01*
X342036Y314016D01*
X342048Y313927D01*
X342056Y313838D01*
X342060Y313748D01*
X342060Y313658D01*
X342056Y313568D01*
X342048Y313479D01*
X342036Y313390D01*
X342021Y313301D01*
X342002Y313213D01*
X341979Y313127D01*
X341952Y313041D01*
X341922Y312956D01*
X341888Y312873D01*
X341850Y312791D01*
X341809Y312711D01*
X341765Y312633D01*
X341717Y312557D01*
X341666Y312483D01*
X341612Y312411D01*
X341555Y312342D01*
X341495Y312275D01*
X341432Y312211D01*
X341367Y312149D01*
X341299Y312091D01*
X341228Y312035D01*
X341155Y311983D01*
X341080Y311933D01*
X341003Y311887D01*
X340924Y311845D01*
X340843Y311805D01*
X340761Y311770D01*
X340677Y311738D01*
X340592Y311709D01*
X340505Y311684D01*
X340418Y311663D01*
X340330Y311646D01*
X340241Y311632D01*
X340151Y311623D01*
X340062Y311617D01*
X339972Y311615D01*
X333170Y394081D02*
X331082Y394081D01*
X330993Y394083D01*
X330905Y394089D01*
X330817Y394098D01*
X330729Y394111D01*
X330642Y394128D01*
X330556Y394148D01*
X330471Y394173D01*
X330386Y394200D01*
X330303Y394232D01*
X330222Y394266D01*
X330142Y394305D01*
X330064Y394346D01*
X329987Y394391D01*
X329913Y394439D01*
X329840Y394490D01*
X329770Y394544D01*
X329703Y394602D01*
X329637Y394662D01*
X329575Y394724D01*
X329515Y394790D01*
X329457Y394857D01*
X329403Y394927D01*
X329352Y395000D01*
X329304Y395074D01*
X329259Y395151D01*
X329218Y395229D01*
X329179Y395309D01*
X329145Y395390D01*
X329113Y395473D01*
X329086Y395558D01*
X329061Y395643D01*
X329041Y395729D01*
X329024Y395816D01*
X329011Y395904D01*
X329002Y395992D01*
X328996Y396080D01*
X328994Y396169D01*
X328994Y401391D01*
X328996Y401482D01*
X329002Y401573D01*
X329012Y401664D01*
X329026Y401754D01*
X329043Y401843D01*
X329065Y401931D01*
X329091Y402019D01*
X329120Y402105D01*
X329153Y402190D01*
X329190Y402273D01*
X329230Y402355D01*
X329274Y402435D01*
X329321Y402513D01*
X329372Y402589D01*
X329425Y402662D01*
X329482Y402733D01*
X329543Y402802D01*
X329606Y402867D01*
X329671Y402930D01*
X329740Y402990D01*
X329811Y403048D01*
X329884Y403101D01*
X329960Y403152D01*
X330038Y403199D01*
X330118Y403243D01*
X330200Y403283D01*
X330283Y403320D01*
X330368Y403353D01*
X330454Y403382D01*
X330542Y403408D01*
X330630Y403430D01*
X330719Y403447D01*
X330809Y403461D01*
X330900Y403471D01*
X330991Y403477D01*
X331082Y403479D01*
X333170Y403479D01*
X336639Y401391D02*
X339250Y403479D01*
X339250Y394081D01*
X341860Y394081D02*
X336639Y394081D01*
X348655Y403480D02*
X348750Y403478D01*
X348844Y403472D01*
X348938Y403463D01*
X349032Y403450D01*
X349125Y403433D01*
X349217Y403412D01*
X349309Y403387D01*
X349399Y403359D01*
X349488Y403327D01*
X349576Y403292D01*
X349662Y403253D01*
X349747Y403211D01*
X349830Y403165D01*
X349911Y403116D01*
X349990Y403064D01*
X350067Y403009D01*
X350141Y402950D01*
X350213Y402889D01*
X350283Y402825D01*
X350350Y402758D01*
X350414Y402688D01*
X350475Y402616D01*
X350534Y402542D01*
X350589Y402465D01*
X350641Y402386D01*
X350690Y402305D01*
X350736Y402222D01*
X350778Y402137D01*
X350817Y402051D01*
X350852Y401963D01*
X350884Y401874D01*
X350912Y401784D01*
X350937Y401692D01*
X350958Y401600D01*
X350975Y401507D01*
X350988Y401413D01*
X350997Y401319D01*
X351003Y401225D01*
X351005Y401130D01*
X348655Y403479D02*
X348547Y403477D01*
X348438Y403471D01*
X348330Y403461D01*
X348223Y403448D01*
X348116Y403430D01*
X348009Y403409D01*
X347904Y403384D01*
X347799Y403355D01*
X347696Y403323D01*
X347594Y403286D01*
X347493Y403246D01*
X347394Y403203D01*
X347296Y403156D01*
X347200Y403105D01*
X347106Y403051D01*
X347014Y402994D01*
X346924Y402933D01*
X346836Y402869D01*
X346751Y402803D01*
X346668Y402733D01*
X346588Y402660D01*
X346510Y402584D01*
X346435Y402506D01*
X346363Y402425D01*
X346294Y402341D01*
X346228Y402255D01*
X346165Y402167D01*
X346106Y402076D01*
X346049Y401984D01*
X345996Y401889D01*
X345947Y401793D01*
X345901Y401694D01*
X345858Y401595D01*
X345819Y401493D01*
X345784Y401391D01*
X350222Y399302D02*
X350291Y399371D01*
X350357Y399442D01*
X350421Y399515D01*
X350482Y399591D01*
X350540Y399670D01*
X350594Y399750D01*
X350646Y399833D01*
X350694Y399917D01*
X350740Y400003D01*
X350781Y400091D01*
X350820Y400181D01*
X350855Y400272D01*
X350886Y400364D01*
X350914Y400457D01*
X350938Y400551D01*
X350958Y400646D01*
X350975Y400742D01*
X350988Y400839D01*
X350997Y400936D01*
X351003Y401033D01*
X351005Y401130D01*
X350221Y399302D02*
X345783Y394081D01*
X351004Y394081D01*
X333170Y408369D02*
X331082Y408369D01*
X330993Y408371D01*
X330905Y408377D01*
X330817Y408386D01*
X330729Y408399D01*
X330642Y408416D01*
X330556Y408436D01*
X330471Y408461D01*
X330386Y408488D01*
X330303Y408520D01*
X330222Y408554D01*
X330142Y408593D01*
X330064Y408634D01*
X329987Y408679D01*
X329913Y408727D01*
X329840Y408778D01*
X329770Y408832D01*
X329703Y408890D01*
X329637Y408950D01*
X329575Y409012D01*
X329515Y409078D01*
X329457Y409145D01*
X329403Y409215D01*
X329352Y409288D01*
X329304Y409362D01*
X329259Y409439D01*
X329218Y409517D01*
X329179Y409597D01*
X329145Y409678D01*
X329113Y409761D01*
X329086Y409846D01*
X329061Y409931D01*
X329041Y410017D01*
X329024Y410104D01*
X329011Y410192D01*
X329002Y410280D01*
X328996Y410368D01*
X328994Y410457D01*
X328994Y415678D01*
X328996Y415769D01*
X329002Y415860D01*
X329012Y415951D01*
X329026Y416041D01*
X329043Y416130D01*
X329065Y416218D01*
X329091Y416306D01*
X329120Y416392D01*
X329153Y416477D01*
X329190Y416560D01*
X329230Y416642D01*
X329274Y416722D01*
X329321Y416800D01*
X329372Y416876D01*
X329425Y416949D01*
X329482Y417020D01*
X329543Y417089D01*
X329606Y417154D01*
X329671Y417217D01*
X329740Y417277D01*
X329811Y417335D01*
X329884Y417388D01*
X329960Y417439D01*
X330038Y417486D01*
X330118Y417530D01*
X330200Y417570D01*
X330283Y417607D01*
X330368Y417640D01*
X330454Y417669D01*
X330542Y417695D01*
X330630Y417717D01*
X330719Y417734D01*
X330809Y417748D01*
X330900Y417758D01*
X330991Y417764D01*
X331082Y417766D01*
X331082Y417767D02*
X333170Y417767D01*
X336639Y415678D02*
X339250Y417767D01*
X339250Y408369D01*
X341860Y408369D02*
X336639Y408369D01*
X345783Y408369D02*
X348394Y408369D01*
X348394Y408368D02*
X348495Y408370D01*
X348596Y408376D01*
X348697Y408386D01*
X348797Y408399D01*
X348897Y408417D01*
X348996Y408438D01*
X349094Y408464D01*
X349191Y408493D01*
X349287Y408525D01*
X349381Y408562D01*
X349474Y408602D01*
X349566Y408646D01*
X349655Y408693D01*
X349743Y408744D01*
X349829Y408798D01*
X349912Y408855D01*
X349994Y408915D01*
X350072Y408979D01*
X350149Y409045D01*
X350222Y409115D01*
X350293Y409187D01*
X350361Y409262D01*
X350426Y409340D01*
X350488Y409420D01*
X350547Y409502D01*
X350603Y409587D01*
X350655Y409674D01*
X350704Y409762D01*
X350750Y409853D01*
X350791Y409945D01*
X350830Y410039D01*
X350864Y410134D01*
X350895Y410230D01*
X350922Y410328D01*
X350946Y410426D01*
X350965Y410526D01*
X350981Y410626D01*
X350993Y410726D01*
X351001Y410827D01*
X351005Y410928D01*
X351005Y411030D01*
X351001Y411131D01*
X350993Y411232D01*
X350981Y411332D01*
X350965Y411432D01*
X350946Y411532D01*
X350922Y411630D01*
X350895Y411728D01*
X350864Y411824D01*
X350830Y411919D01*
X350791Y412013D01*
X350750Y412105D01*
X350704Y412196D01*
X350655Y412284D01*
X350603Y412371D01*
X350547Y412456D01*
X350488Y412538D01*
X350426Y412618D01*
X350361Y412696D01*
X350293Y412771D01*
X350222Y412843D01*
X350149Y412913D01*
X350072Y412979D01*
X349994Y413043D01*
X349912Y413103D01*
X349829Y413160D01*
X349743Y413214D01*
X349655Y413265D01*
X349566Y413312D01*
X349474Y413356D01*
X349381Y413396D01*
X349287Y413433D01*
X349191Y413465D01*
X349094Y413494D01*
X348996Y413520D01*
X348897Y413541D01*
X348797Y413559D01*
X348697Y413572D01*
X348596Y413582D01*
X348495Y413588D01*
X348394Y413590D01*
X348916Y417767D02*
X345783Y417767D01*
X348916Y417766D02*
X349006Y417764D01*
X349095Y417758D01*
X349185Y417749D01*
X349274Y417735D01*
X349362Y417718D01*
X349449Y417697D01*
X349536Y417672D01*
X349621Y417643D01*
X349705Y417611D01*
X349787Y417576D01*
X349868Y417536D01*
X349947Y417494D01*
X350024Y417448D01*
X350099Y417398D01*
X350172Y417346D01*
X350243Y417290D01*
X350311Y417232D01*
X350376Y417170D01*
X350439Y417106D01*
X350499Y417039D01*
X350556Y416970D01*
X350610Y416898D01*
X350661Y416824D01*
X350709Y416748D01*
X350753Y416670D01*
X350794Y416590D01*
X350832Y416508D01*
X350866Y416425D01*
X350896Y416340D01*
X350923Y416254D01*
X350946Y416168D01*
X350965Y416080D01*
X350980Y415991D01*
X350992Y415902D01*
X351000Y415813D01*
X351004Y415723D01*
X351004Y415633D01*
X351000Y415543D01*
X350992Y415454D01*
X350980Y415365D01*
X350965Y415276D01*
X350946Y415188D01*
X350923Y415102D01*
X350896Y415016D01*
X350866Y414931D01*
X350832Y414848D01*
X350794Y414766D01*
X350753Y414686D01*
X350709Y414608D01*
X350661Y414532D01*
X350610Y414458D01*
X350556Y414386D01*
X350499Y414317D01*
X350439Y414250D01*
X350376Y414186D01*
X350311Y414124D01*
X350243Y414066D01*
X350172Y414010D01*
X350099Y413958D01*
X350024Y413908D01*
X349947Y413862D01*
X349868Y413820D01*
X349787Y413780D01*
X349705Y413745D01*
X349621Y413713D01*
X349536Y413684D01*
X349449Y413659D01*
X349362Y413638D01*
X349274Y413621D01*
X349185Y413607D01*
X349095Y413598D01*
X349006Y413592D01*
X348916Y413590D01*
X346827Y413590D01*
D11*
X277812Y280988D02*
X277814Y281067D01*
X277820Y281146D01*
X277830Y281225D01*
X277843Y281303D01*
X277861Y281380D01*
X277883Y281456D01*
X277908Y281531D01*
X277937Y281605D01*
X277969Y281677D01*
X278005Y281747D01*
X278045Y281816D01*
X278088Y281883D01*
X278134Y281947D01*
X278184Y282009D01*
X278236Y282068D01*
X278291Y282125D01*
X278349Y282179D01*
X278410Y282230D01*
X278473Y282277D01*
X278538Y282322D01*
X278606Y282363D01*
X278676Y282401D01*
X278747Y282435D01*
X278820Y282466D01*
X278894Y282493D01*
X278970Y282517D01*
X279047Y282536D01*
X279124Y282552D01*
X279203Y282564D01*
X279281Y282572D01*
X279360Y282576D01*
X279440Y282576D01*
X279519Y282572D01*
X279597Y282564D01*
X279676Y282552D01*
X279753Y282536D01*
X279830Y282517D01*
X279906Y282493D01*
X279980Y282466D01*
X280053Y282435D01*
X280124Y282401D01*
X280194Y282363D01*
X280262Y282322D01*
X280327Y282277D01*
X280390Y282230D01*
X280451Y282179D01*
X280509Y282125D01*
X280564Y282068D01*
X280616Y282009D01*
X280666Y281947D01*
X280712Y281883D01*
X280755Y281816D01*
X280795Y281747D01*
X280831Y281677D01*
X280863Y281605D01*
X280892Y281531D01*
X280917Y281456D01*
X280939Y281380D01*
X280957Y281303D01*
X280970Y281225D01*
X280980Y281146D01*
X280986Y281067D01*
X280988Y280988D01*
X280986Y280909D01*
X280980Y280830D01*
X280970Y280751D01*
X280957Y280673D01*
X280939Y280596D01*
X280917Y280520D01*
X280892Y280445D01*
X280863Y280371D01*
X280831Y280299D01*
X280795Y280229D01*
X280755Y280160D01*
X280712Y280093D01*
X280666Y280029D01*
X280616Y279967D01*
X280564Y279908D01*
X280509Y279851D01*
X280451Y279797D01*
X280390Y279746D01*
X280327Y279699D01*
X280262Y279654D01*
X280194Y279613D01*
X280124Y279575D01*
X280053Y279541D01*
X279980Y279510D01*
X279906Y279483D01*
X279830Y279459D01*
X279753Y279440D01*
X279676Y279424D01*
X279597Y279412D01*
X279519Y279404D01*
X279440Y279400D01*
X279360Y279400D01*
X279281Y279404D01*
X279203Y279412D01*
X279124Y279424D01*
X279047Y279440D01*
X278970Y279459D01*
X278894Y279483D01*
X278820Y279510D01*
X278747Y279541D01*
X278676Y279575D01*
X278606Y279613D01*
X278538Y279654D01*
X278473Y279699D01*
X278410Y279746D01*
X278349Y279797D01*
X278291Y279851D01*
X278236Y279908D01*
X278184Y279967D01*
X278134Y280029D01*
X278088Y280093D01*
X278045Y280160D01*
X278005Y280229D01*
X277969Y280299D01*
X277937Y280371D01*
X277908Y280445D01*
X277883Y280520D01*
X277861Y280596D01*
X277843Y280673D01*
X277830Y280751D01*
X277820Y280830D01*
X277814Y280909D01*
X277812Y280988D01*
D124*
X265031Y252132D02*
X265031Y245460D01*
X265033Y245361D01*
X265039Y245261D01*
X265048Y245162D01*
X265062Y245064D01*
X265079Y244966D01*
X265100Y244868D01*
X265125Y244772D01*
X265154Y244677D01*
X265186Y244582D01*
X265222Y244490D01*
X265261Y244398D01*
X265304Y244308D01*
X265350Y244220D01*
X265400Y244134D01*
X265453Y244050D01*
X265509Y243968D01*
X265569Y243888D01*
X265631Y243811D01*
X265697Y243736D01*
X265765Y243663D01*
X265836Y243594D01*
X265910Y243527D01*
X265986Y243463D01*
X266065Y243402D01*
X266146Y243344D01*
X266229Y243289D01*
X266314Y243238D01*
X266401Y243190D01*
X266490Y243145D01*
X266581Y243104D01*
X266673Y243066D01*
X266766Y243032D01*
X266861Y243002D01*
X266957Y242975D01*
X267054Y242952D01*
X267151Y242933D01*
X267250Y242918D01*
X267349Y242906D01*
X267448Y242898D01*
X267547Y242894D01*
X267647Y242894D01*
X267746Y242898D01*
X267845Y242906D01*
X267944Y242918D01*
X268043Y242933D01*
X268140Y242952D01*
X268237Y242975D01*
X268333Y243002D01*
X268428Y243032D01*
X268521Y243066D01*
X268613Y243104D01*
X268704Y243145D01*
X268793Y243190D01*
X268880Y243238D01*
X268965Y243289D01*
X269048Y243344D01*
X269129Y243402D01*
X269208Y243463D01*
X269284Y243527D01*
X269358Y243594D01*
X269429Y243663D01*
X269497Y243736D01*
X269563Y243811D01*
X269625Y243888D01*
X269685Y243968D01*
X269741Y244050D01*
X269794Y244134D01*
X269844Y244220D01*
X269890Y244308D01*
X269933Y244398D01*
X269972Y244490D01*
X270008Y244582D01*
X270040Y244677D01*
X270069Y244772D01*
X270094Y244868D01*
X270115Y244966D01*
X270132Y245064D01*
X270146Y245162D01*
X270155Y245261D01*
X270161Y245361D01*
X270163Y245460D01*
X270163Y252132D01*
X274331Y242894D02*
X276897Y242894D01*
X276996Y242896D01*
X277096Y242902D01*
X277195Y242911D01*
X277293Y242925D01*
X277391Y242942D01*
X277489Y242963D01*
X277585Y242988D01*
X277680Y243017D01*
X277775Y243049D01*
X277867Y243085D01*
X277959Y243124D01*
X278049Y243167D01*
X278137Y243213D01*
X278223Y243263D01*
X278307Y243316D01*
X278389Y243372D01*
X278469Y243432D01*
X278546Y243494D01*
X278621Y243560D01*
X278694Y243628D01*
X278763Y243699D01*
X278830Y243773D01*
X278894Y243849D01*
X278955Y243928D01*
X279013Y244009D01*
X279068Y244092D01*
X279119Y244177D01*
X279167Y244264D01*
X279212Y244353D01*
X279253Y244444D01*
X279291Y244536D01*
X279325Y244629D01*
X279355Y244724D01*
X279382Y244820D01*
X279405Y244917D01*
X279424Y245014D01*
X279439Y245113D01*
X279451Y245212D01*
X279459Y245311D01*
X279463Y245410D01*
X279463Y245510D01*
X279459Y245609D01*
X279451Y245708D01*
X279439Y245807D01*
X279424Y245906D01*
X279405Y246003D01*
X279382Y246100D01*
X279355Y246196D01*
X279325Y246291D01*
X279291Y246384D01*
X279253Y246476D01*
X279212Y246567D01*
X279167Y246656D01*
X279119Y246743D01*
X279068Y246828D01*
X279013Y246911D01*
X278955Y246992D01*
X278894Y247071D01*
X278830Y247147D01*
X278763Y247221D01*
X278694Y247292D01*
X278621Y247360D01*
X278546Y247426D01*
X278469Y247488D01*
X278389Y247548D01*
X278307Y247604D01*
X278223Y247657D01*
X278137Y247707D01*
X278049Y247753D01*
X277959Y247796D01*
X277867Y247835D01*
X277775Y247871D01*
X277680Y247903D01*
X277585Y247932D01*
X277489Y247957D01*
X277391Y247978D01*
X277293Y247995D01*
X277195Y248009D01*
X277096Y248018D01*
X276996Y248024D01*
X276897Y248026D01*
X277410Y252132D02*
X274331Y252132D01*
X277410Y252132D02*
X277500Y252130D01*
X277589Y252124D01*
X277678Y252114D01*
X277766Y252101D01*
X277854Y252083D01*
X277941Y252062D01*
X278027Y252037D01*
X278112Y252008D01*
X278196Y251976D01*
X278278Y251940D01*
X278358Y251900D01*
X278437Y251857D01*
X278513Y251810D01*
X278588Y251761D01*
X278660Y251708D01*
X278730Y251652D01*
X278797Y251593D01*
X278862Y251531D01*
X278924Y251466D01*
X278983Y251399D01*
X279039Y251329D01*
X279092Y251257D01*
X279141Y251182D01*
X279188Y251106D01*
X279231Y251027D01*
X279271Y250947D01*
X279307Y250865D01*
X279339Y250781D01*
X279368Y250696D01*
X279393Y250610D01*
X279414Y250523D01*
X279432Y250435D01*
X279445Y250347D01*
X279455Y250258D01*
X279461Y250169D01*
X279463Y250079D01*
X279461Y249989D01*
X279455Y249900D01*
X279445Y249811D01*
X279432Y249723D01*
X279414Y249635D01*
X279393Y249548D01*
X279368Y249462D01*
X279339Y249377D01*
X279307Y249293D01*
X279271Y249211D01*
X279231Y249131D01*
X279188Y249053D01*
X279141Y248976D01*
X279092Y248901D01*
X279039Y248829D01*
X278983Y248759D01*
X278924Y248692D01*
X278862Y248627D01*
X278797Y248565D01*
X278730Y248506D01*
X278660Y248450D01*
X278588Y248397D01*
X278513Y248348D01*
X278437Y248301D01*
X278358Y248258D01*
X278278Y248218D01*
X278196Y248182D01*
X278112Y248150D01*
X278027Y248121D01*
X277941Y248096D01*
X277854Y248075D01*
X277766Y248057D01*
X277678Y248044D01*
X277589Y248034D01*
X277500Y248028D01*
X277410Y248026D01*
X275357Y248026D01*
D11*
X292100Y420688D02*
X292100Y433388D01*
X292100Y420688D02*
X285750Y414338D01*
X273050Y414338D01*
X266700Y420688D01*
X285750Y414338D02*
X292100Y407988D01*
X292100Y395288D01*
X285750Y388938D01*
X273050Y388938D01*
X266700Y395288D01*
X266700Y407988D01*
X273050Y414338D01*
X273050Y439738D02*
X285750Y439738D01*
X292100Y433388D01*
X273050Y439738D02*
X266700Y433388D01*
X266700Y420688D01*
X285750Y388938D02*
X292100Y382588D01*
X292100Y369888D01*
X285750Y363538D01*
X273050Y363538D01*
X266700Y369888D01*
X266700Y382588D01*
X273050Y388938D01*
M02*
