G04 EAGLE Gerber RS-274X export*
G75*
%MOMM*%
%FSLAX34Y34*%
%LPD*%
%INSilkscreen Bottom*%
%IPPOS*%
%AMOC8*
5,1,8,0,0,1.08239X$1,22.5*%
G01*
%ADD10C,0.101600*%
%ADD11C,0.152400*%
%ADD12C,0.076200*%
%ADD13C,0.254000*%

G36*
X337067Y382335D02*
X337067Y382335D01*
X337069Y382334D01*
X337112Y382354D01*
X337155Y382373D01*
X337156Y382375D01*
X337158Y382376D01*
X337191Y382461D01*
X337191Y385001D01*
X337190Y385003D01*
X337191Y385005D01*
X337171Y385048D01*
X337152Y385091D01*
X337150Y385092D01*
X337149Y385094D01*
X337065Y385127D01*
X333255Y385127D01*
X333253Y385126D01*
X333250Y385127D01*
X333207Y385107D01*
X333164Y385088D01*
X333163Y385086D01*
X333161Y385085D01*
X333128Y385001D01*
X333128Y382461D01*
X333129Y382459D01*
X333128Y382456D01*
X333148Y382413D01*
X333167Y382370D01*
X333169Y382369D01*
X333170Y382367D01*
X333255Y382334D01*
X337065Y382334D01*
X337067Y382335D01*
G37*
G36*
X306517Y336781D02*
X306517Y336781D01*
X306519Y336780D01*
X306562Y336800D01*
X306605Y336819D01*
X306606Y336821D01*
X306608Y336822D01*
X306641Y336907D01*
X306641Y340717D01*
X306640Y340719D01*
X306641Y340721D01*
X306621Y340764D01*
X306602Y340807D01*
X306600Y340808D01*
X306599Y340810D01*
X306515Y340843D01*
X303975Y340843D01*
X303973Y340842D01*
X303970Y340843D01*
X303927Y340823D01*
X303884Y340804D01*
X303883Y340802D01*
X303881Y340801D01*
X303848Y340717D01*
X303848Y336907D01*
X303849Y336905D01*
X303848Y336902D01*
X303868Y336859D01*
X303887Y336816D01*
X303889Y336815D01*
X303890Y336813D01*
X303975Y336780D01*
X306515Y336780D01*
X306517Y336781D01*
G37*
G36*
X391353Y321778D02*
X391353Y321778D01*
X391355Y321777D01*
X391398Y321797D01*
X391441Y321816D01*
X391442Y321818D01*
X391444Y321819D01*
X391477Y321904D01*
X391477Y325714D01*
X391476Y325716D01*
X391477Y325718D01*
X391457Y325761D01*
X391438Y325804D01*
X391436Y325805D01*
X391435Y325807D01*
X391351Y325840D01*
X388811Y325840D01*
X388809Y325839D01*
X388806Y325840D01*
X388763Y325820D01*
X388720Y325801D01*
X388719Y325799D01*
X388717Y325798D01*
X388684Y325714D01*
X388684Y321904D01*
X388685Y321902D01*
X388684Y321899D01*
X388704Y321856D01*
X388723Y321813D01*
X388725Y321812D01*
X388726Y321810D01*
X388811Y321777D01*
X391351Y321777D01*
X391353Y321778D01*
G37*
G36*
X342068Y297499D02*
X342068Y297499D01*
X342070Y297498D01*
X342113Y297518D01*
X342156Y297537D01*
X342157Y297539D01*
X342159Y297540D01*
X342192Y297625D01*
X342192Y300165D01*
X342191Y300167D01*
X342192Y300169D01*
X342172Y300212D01*
X342153Y300255D01*
X342151Y300256D01*
X342150Y300258D01*
X342066Y300291D01*
X338256Y300291D01*
X338254Y300290D01*
X338251Y300291D01*
X338208Y300271D01*
X338165Y300252D01*
X338164Y300250D01*
X338162Y300249D01*
X338129Y300165D01*
X338129Y297625D01*
X338130Y297623D01*
X338129Y297620D01*
X338149Y297577D01*
X338168Y297534D01*
X338170Y297533D01*
X338171Y297531D01*
X338256Y297498D01*
X342066Y297498D01*
X342068Y297499D01*
G37*
D10*
X492774Y332006D02*
X492774Y333954D01*
X486283Y333954D01*
X486283Y330059D01*
X486285Y329960D01*
X486291Y329860D01*
X486300Y329761D01*
X486313Y329663D01*
X486330Y329565D01*
X486351Y329467D01*
X486376Y329371D01*
X486404Y329276D01*
X486436Y329182D01*
X486471Y329089D01*
X486510Y328997D01*
X486553Y328907D01*
X486598Y328819D01*
X486648Y328732D01*
X486700Y328648D01*
X486756Y328565D01*
X486814Y328485D01*
X486876Y328407D01*
X486941Y328332D01*
X487009Y328259D01*
X487079Y328189D01*
X487152Y328121D01*
X487227Y328056D01*
X487305Y327994D01*
X487385Y327936D01*
X487468Y327880D01*
X487552Y327828D01*
X487639Y327778D01*
X487727Y327733D01*
X487817Y327690D01*
X487909Y327651D01*
X488002Y327616D01*
X488096Y327584D01*
X488191Y327556D01*
X488287Y327531D01*
X488385Y327510D01*
X488483Y327493D01*
X488581Y327480D01*
X488680Y327471D01*
X488780Y327465D01*
X488879Y327463D01*
X495371Y327463D01*
X495470Y327465D01*
X495570Y327471D01*
X495669Y327480D01*
X495767Y327493D01*
X495865Y327510D01*
X495963Y327531D01*
X496059Y327556D01*
X496154Y327584D01*
X496248Y327616D01*
X496341Y327651D01*
X496433Y327690D01*
X496523Y327733D01*
X496611Y327778D01*
X496698Y327828D01*
X496782Y327880D01*
X496865Y327936D01*
X496945Y327994D01*
X497023Y328056D01*
X497098Y328121D01*
X497171Y328189D01*
X497241Y328259D01*
X497309Y328332D01*
X497374Y328407D01*
X497436Y328485D01*
X497494Y328565D01*
X497550Y328648D01*
X497602Y328732D01*
X497652Y328819D01*
X497697Y328907D01*
X497740Y328997D01*
X497779Y329089D01*
X497814Y329181D01*
X497846Y329276D01*
X497874Y329371D01*
X497899Y329467D01*
X497920Y329565D01*
X497937Y329663D01*
X497950Y329761D01*
X497959Y329860D01*
X497965Y329960D01*
X497967Y330059D01*
X497967Y333954D01*
X497967Y339654D02*
X486283Y339654D01*
X486283Y346146D02*
X497967Y339654D01*
X497967Y346146D02*
X486283Y346146D01*
X486283Y351846D02*
X497967Y351846D01*
X497967Y355092D01*
X497965Y355205D01*
X497959Y355318D01*
X497949Y355431D01*
X497935Y355544D01*
X497918Y355656D01*
X497896Y355767D01*
X497871Y355877D01*
X497841Y355987D01*
X497808Y356095D01*
X497771Y356202D01*
X497731Y356308D01*
X497686Y356412D01*
X497638Y356515D01*
X497587Y356616D01*
X497532Y356715D01*
X497474Y356812D01*
X497412Y356907D01*
X497347Y357000D01*
X497279Y357090D01*
X497208Y357178D01*
X497133Y357264D01*
X497056Y357347D01*
X496976Y357427D01*
X496893Y357504D01*
X496807Y357579D01*
X496719Y357650D01*
X496629Y357718D01*
X496536Y357783D01*
X496441Y357845D01*
X496344Y357903D01*
X496245Y357958D01*
X496144Y358009D01*
X496041Y358057D01*
X495937Y358102D01*
X495831Y358142D01*
X495724Y358179D01*
X495616Y358212D01*
X495506Y358242D01*
X495396Y358267D01*
X495285Y358289D01*
X495173Y358306D01*
X495060Y358320D01*
X494947Y358330D01*
X494834Y358336D01*
X494721Y358338D01*
X489529Y358338D01*
X489416Y358336D01*
X489303Y358330D01*
X489190Y358320D01*
X489077Y358306D01*
X488965Y358289D01*
X488854Y358267D01*
X488744Y358242D01*
X488634Y358212D01*
X488526Y358179D01*
X488419Y358142D01*
X488313Y358102D01*
X488209Y358057D01*
X488106Y358009D01*
X488005Y357958D01*
X487906Y357903D01*
X487809Y357845D01*
X487714Y357783D01*
X487621Y357718D01*
X487531Y357650D01*
X487443Y357579D01*
X487357Y357504D01*
X487274Y357427D01*
X487194Y357347D01*
X487117Y357264D01*
X487042Y357178D01*
X486971Y357090D01*
X486903Y357000D01*
X486838Y356907D01*
X486776Y356812D01*
X486718Y356715D01*
X486663Y356616D01*
X486612Y356515D01*
X486564Y356412D01*
X486519Y356308D01*
X486479Y356202D01*
X486442Y356095D01*
X486409Y355987D01*
X486379Y355877D01*
X486354Y355767D01*
X486332Y355656D01*
X486315Y355544D01*
X486301Y355431D01*
X486291Y355318D01*
X486285Y355205D01*
X486283Y355092D01*
X486283Y351846D01*
X425440Y220225D02*
X423949Y218973D01*
X428121Y214000D01*
X431105Y216504D01*
X431180Y216570D01*
X431252Y216638D01*
X431322Y216709D01*
X431389Y216782D01*
X431453Y216858D01*
X431514Y216937D01*
X431572Y217018D01*
X431627Y217101D01*
X431679Y217185D01*
X431727Y217272D01*
X431772Y217361D01*
X431814Y217451D01*
X431852Y217543D01*
X431887Y217636D01*
X431918Y217731D01*
X431945Y217826D01*
X431969Y217923D01*
X431989Y218020D01*
X432005Y218119D01*
X432017Y218217D01*
X432026Y218316D01*
X432031Y218416D01*
X432032Y218515D01*
X432029Y218615D01*
X432023Y218714D01*
X432012Y218813D01*
X431998Y218911D01*
X431980Y219009D01*
X431959Y219106D01*
X431933Y219202D01*
X431904Y219297D01*
X431872Y219391D01*
X431835Y219484D01*
X431796Y219575D01*
X431753Y219665D01*
X431706Y219753D01*
X431656Y219839D01*
X431603Y219923D01*
X431547Y220005D01*
X431487Y220084D01*
X431425Y220162D01*
X427252Y225134D01*
X427187Y225209D01*
X427119Y225282D01*
X427048Y225351D01*
X426974Y225418D01*
X426898Y225483D01*
X426820Y225544D01*
X426739Y225602D01*
X426656Y225657D01*
X426571Y225709D01*
X426484Y225757D01*
X426395Y225802D01*
X426305Y225844D01*
X426213Y225882D01*
X426120Y225917D01*
X426025Y225948D01*
X425930Y225975D01*
X425833Y225999D01*
X425736Y226019D01*
X425638Y226035D01*
X425539Y226047D01*
X425440Y226056D01*
X425340Y226061D01*
X425241Y226062D01*
X425141Y226059D01*
X425042Y226053D01*
X424943Y226042D01*
X424845Y226028D01*
X424747Y226010D01*
X424650Y225989D01*
X424554Y225963D01*
X424458Y225934D01*
X424364Y225902D01*
X424272Y225865D01*
X424181Y225826D01*
X424091Y225782D01*
X424003Y225736D01*
X423917Y225686D01*
X423833Y225633D01*
X423751Y225576D01*
X423671Y225517D01*
X423594Y225454D01*
X420611Y222951D01*
X416244Y219286D02*
X423754Y210336D01*
X418782Y206163D02*
X416244Y219286D01*
X411271Y215114D02*
X418782Y206163D01*
X414414Y202499D02*
X406904Y211449D01*
X404418Y209363D01*
X404418Y209364D02*
X404332Y209289D01*
X404249Y209212D01*
X404169Y209132D01*
X404092Y209049D01*
X404017Y208964D01*
X403946Y208875D01*
X403878Y208785D01*
X403813Y208692D01*
X403751Y208597D01*
X403693Y208500D01*
X403638Y208401D01*
X403587Y208300D01*
X403539Y208197D01*
X403494Y208093D01*
X403454Y207987D01*
X403417Y207880D01*
X403384Y207772D01*
X403354Y207662D01*
X403329Y207552D01*
X403307Y207441D01*
X403290Y207329D01*
X403276Y207216D01*
X403266Y207103D01*
X403260Y206990D01*
X403258Y206877D01*
X403260Y206764D01*
X403266Y206651D01*
X403276Y206538D01*
X403290Y206425D01*
X403307Y206313D01*
X403329Y206202D01*
X403354Y206092D01*
X403384Y205982D01*
X403417Y205874D01*
X403454Y205767D01*
X403494Y205661D01*
X403539Y205557D01*
X403587Y205454D01*
X403638Y205353D01*
X403693Y205254D01*
X403751Y205157D01*
X403813Y205062D01*
X403878Y204969D01*
X403946Y204879D01*
X404017Y204791D01*
X404018Y204791D02*
X407356Y200813D01*
X407355Y200813D02*
X407430Y200727D01*
X407507Y200644D01*
X407587Y200564D01*
X407670Y200487D01*
X407756Y200412D01*
X407844Y200341D01*
X407934Y200273D01*
X408027Y200208D01*
X408122Y200146D01*
X408219Y200088D01*
X408318Y200033D01*
X408419Y199982D01*
X408522Y199934D01*
X408626Y199889D01*
X408732Y199849D01*
X408839Y199812D01*
X408947Y199779D01*
X409057Y199749D01*
X409167Y199724D01*
X409278Y199702D01*
X409390Y199685D01*
X409503Y199671D01*
X409616Y199661D01*
X409729Y199655D01*
X409842Y199653D01*
X409955Y199655D01*
X410068Y199661D01*
X410181Y199671D01*
X410294Y199685D01*
X410406Y199702D01*
X410517Y199724D01*
X410627Y199749D01*
X410737Y199779D01*
X410845Y199812D01*
X410952Y199849D01*
X411058Y199889D01*
X411162Y199934D01*
X411265Y199982D01*
X411366Y200033D01*
X411465Y200088D01*
X411562Y200146D01*
X411657Y200208D01*
X411750Y200273D01*
X411840Y200341D01*
X411929Y200412D01*
X411928Y200413D02*
X414414Y202499D01*
X283934Y207008D02*
X282338Y208125D01*
X278615Y202808D01*
X281806Y200574D01*
X281889Y200519D01*
X281973Y200467D01*
X282060Y200418D01*
X282148Y200372D01*
X282238Y200330D01*
X282330Y200291D01*
X282423Y200256D01*
X282517Y200224D01*
X282612Y200196D01*
X282709Y200172D01*
X282806Y200151D01*
X282904Y200135D01*
X283003Y200121D01*
X283102Y200112D01*
X283201Y200107D01*
X283301Y200105D01*
X283400Y200107D01*
X283499Y200113D01*
X283598Y200123D01*
X283697Y200136D01*
X283795Y200154D01*
X283892Y200175D01*
X283988Y200199D01*
X284084Y200228D01*
X284178Y200260D01*
X284271Y200295D01*
X284362Y200334D01*
X284452Y200377D01*
X284540Y200423D01*
X284626Y200472D01*
X284711Y200525D01*
X284793Y200581D01*
X284873Y200640D01*
X284951Y200702D01*
X285026Y200767D01*
X285099Y200834D01*
X285169Y200905D01*
X285237Y200978D01*
X285301Y201054D01*
X285363Y201132D01*
X285422Y201212D01*
X289145Y206529D01*
X289200Y206612D01*
X289252Y206696D01*
X289301Y206783D01*
X289347Y206871D01*
X289389Y206961D01*
X289428Y207053D01*
X289463Y207146D01*
X289495Y207240D01*
X289523Y207335D01*
X289547Y207432D01*
X289568Y207529D01*
X289584Y207627D01*
X289598Y207726D01*
X289607Y207825D01*
X289612Y207924D01*
X289614Y208024D01*
X289612Y208123D01*
X289606Y208222D01*
X289596Y208321D01*
X289583Y208420D01*
X289565Y208518D01*
X289544Y208615D01*
X289520Y208711D01*
X289491Y208807D01*
X289459Y208901D01*
X289424Y208994D01*
X289385Y209085D01*
X289342Y209175D01*
X289296Y209263D01*
X289247Y209349D01*
X289194Y209434D01*
X289138Y209516D01*
X289079Y209596D01*
X289017Y209674D01*
X288952Y209749D01*
X288885Y209822D01*
X288814Y209892D01*
X288741Y209960D01*
X288665Y210024D01*
X288587Y210086D01*
X288507Y210145D01*
X285317Y212379D01*
X280647Y215649D02*
X273945Y206078D01*
X268628Y209801D02*
X280647Y215649D01*
X275330Y219372D02*
X268628Y209801D01*
X263958Y213071D02*
X270660Y222642D01*
X268001Y224503D01*
X268002Y224504D02*
X267908Y224567D01*
X267812Y224627D01*
X267714Y224684D01*
X267614Y224737D01*
X267512Y224787D01*
X267408Y224833D01*
X267303Y224875D01*
X267197Y224914D01*
X267089Y224949D01*
X266980Y224980D01*
X266870Y225008D01*
X266759Y225031D01*
X266648Y225051D01*
X266536Y225067D01*
X266423Y225079D01*
X266310Y225087D01*
X266197Y225091D01*
X266083Y225091D01*
X265970Y225087D01*
X265857Y225079D01*
X265744Y225067D01*
X265632Y225051D01*
X265521Y225031D01*
X265410Y225008D01*
X265300Y224980D01*
X265191Y224949D01*
X265083Y224914D01*
X264977Y224875D01*
X264872Y224833D01*
X264768Y224787D01*
X264666Y224737D01*
X264566Y224684D01*
X264468Y224627D01*
X264372Y224567D01*
X264278Y224504D01*
X264187Y224437D01*
X264097Y224368D01*
X264010Y224295D01*
X263926Y224219D01*
X263845Y224140D01*
X263766Y224059D01*
X263690Y223975D01*
X263617Y223888D01*
X263548Y223799D01*
X263481Y223707D01*
X263481Y223706D02*
X260503Y219453D01*
X260502Y219453D02*
X260439Y219359D01*
X260379Y219263D01*
X260322Y219165D01*
X260269Y219065D01*
X260219Y218963D01*
X260173Y218859D01*
X260131Y218754D01*
X260092Y218648D01*
X260057Y218540D01*
X260026Y218431D01*
X259998Y218321D01*
X259975Y218210D01*
X259955Y218099D01*
X259939Y217987D01*
X259927Y217874D01*
X259919Y217761D01*
X259915Y217648D01*
X259915Y217534D01*
X259919Y217421D01*
X259927Y217308D01*
X259939Y217195D01*
X259955Y217083D01*
X259975Y216972D01*
X259998Y216861D01*
X260026Y216751D01*
X260057Y216642D01*
X260092Y216534D01*
X260131Y216428D01*
X260173Y216323D01*
X260219Y216219D01*
X260269Y216117D01*
X260322Y216017D01*
X260379Y215919D01*
X260439Y215823D01*
X260502Y215729D01*
X260569Y215637D01*
X260638Y215548D01*
X260711Y215461D01*
X260787Y215377D01*
X260866Y215296D01*
X260947Y215217D01*
X261031Y215141D01*
X261118Y215068D01*
X261208Y214999D01*
X261299Y214932D01*
X261300Y214932D02*
X263958Y213071D01*
X200674Y332006D02*
X200674Y333954D01*
X194183Y333954D01*
X194183Y330059D01*
X194185Y329960D01*
X194191Y329860D01*
X194200Y329761D01*
X194213Y329663D01*
X194230Y329565D01*
X194251Y329467D01*
X194276Y329371D01*
X194304Y329276D01*
X194336Y329182D01*
X194371Y329089D01*
X194410Y328997D01*
X194453Y328907D01*
X194498Y328819D01*
X194548Y328732D01*
X194600Y328648D01*
X194656Y328565D01*
X194714Y328485D01*
X194776Y328407D01*
X194841Y328332D01*
X194909Y328259D01*
X194979Y328189D01*
X195052Y328121D01*
X195127Y328056D01*
X195205Y327994D01*
X195285Y327936D01*
X195368Y327880D01*
X195452Y327828D01*
X195539Y327778D01*
X195627Y327733D01*
X195717Y327690D01*
X195809Y327651D01*
X195902Y327616D01*
X195996Y327584D01*
X196091Y327556D01*
X196187Y327531D01*
X196285Y327510D01*
X196383Y327493D01*
X196481Y327480D01*
X196580Y327471D01*
X196680Y327465D01*
X196779Y327463D01*
X203271Y327463D01*
X203370Y327465D01*
X203470Y327471D01*
X203569Y327480D01*
X203667Y327493D01*
X203765Y327510D01*
X203863Y327531D01*
X203959Y327556D01*
X204054Y327584D01*
X204148Y327616D01*
X204241Y327651D01*
X204333Y327690D01*
X204423Y327733D01*
X204511Y327778D01*
X204598Y327828D01*
X204682Y327880D01*
X204765Y327936D01*
X204845Y327994D01*
X204923Y328056D01*
X204998Y328121D01*
X205071Y328189D01*
X205141Y328259D01*
X205209Y328332D01*
X205274Y328407D01*
X205336Y328485D01*
X205394Y328565D01*
X205450Y328648D01*
X205502Y328732D01*
X205552Y328819D01*
X205597Y328907D01*
X205640Y328997D01*
X205679Y329089D01*
X205714Y329181D01*
X205746Y329276D01*
X205774Y329371D01*
X205799Y329467D01*
X205820Y329565D01*
X205837Y329663D01*
X205850Y329761D01*
X205859Y329860D01*
X205865Y329960D01*
X205867Y330059D01*
X205867Y333954D01*
X205867Y339654D02*
X194183Y339654D01*
X194183Y346146D02*
X205867Y339654D01*
X205867Y346146D02*
X194183Y346146D01*
X194183Y351846D02*
X205867Y351846D01*
X205867Y355092D01*
X205865Y355205D01*
X205859Y355318D01*
X205849Y355431D01*
X205835Y355544D01*
X205818Y355656D01*
X205796Y355767D01*
X205771Y355877D01*
X205741Y355987D01*
X205708Y356095D01*
X205671Y356202D01*
X205631Y356308D01*
X205586Y356412D01*
X205538Y356515D01*
X205487Y356616D01*
X205432Y356715D01*
X205374Y356812D01*
X205312Y356907D01*
X205247Y357000D01*
X205179Y357090D01*
X205108Y357178D01*
X205033Y357264D01*
X204956Y357347D01*
X204876Y357427D01*
X204793Y357504D01*
X204707Y357579D01*
X204619Y357650D01*
X204529Y357718D01*
X204436Y357783D01*
X204341Y357845D01*
X204244Y357903D01*
X204145Y357958D01*
X204044Y358009D01*
X203941Y358057D01*
X203837Y358102D01*
X203731Y358142D01*
X203624Y358179D01*
X203516Y358212D01*
X203406Y358242D01*
X203296Y358267D01*
X203185Y358289D01*
X203073Y358306D01*
X202960Y358320D01*
X202847Y358330D01*
X202734Y358336D01*
X202621Y358338D01*
X197429Y358338D01*
X197316Y358336D01*
X197203Y358330D01*
X197090Y358320D01*
X196977Y358306D01*
X196865Y358289D01*
X196754Y358267D01*
X196644Y358242D01*
X196534Y358212D01*
X196426Y358179D01*
X196319Y358142D01*
X196213Y358102D01*
X196109Y358057D01*
X196006Y358009D01*
X195905Y357958D01*
X195806Y357903D01*
X195709Y357845D01*
X195614Y357783D01*
X195521Y357718D01*
X195431Y357650D01*
X195343Y357579D01*
X195257Y357504D01*
X195174Y357427D01*
X195094Y357347D01*
X195017Y357264D01*
X194942Y357178D01*
X194871Y357090D01*
X194803Y357000D01*
X194738Y356907D01*
X194676Y356812D01*
X194618Y356715D01*
X194563Y356616D01*
X194512Y356515D01*
X194464Y356412D01*
X194419Y356308D01*
X194379Y356202D01*
X194342Y356095D01*
X194309Y355987D01*
X194279Y355877D01*
X194254Y355767D01*
X194232Y355656D01*
X194215Y355544D01*
X194201Y355431D01*
X194191Y355318D01*
X194185Y355205D01*
X194183Y355092D01*
X194183Y351846D01*
D11*
X457436Y397510D02*
X457436Y415290D01*
X452498Y415290D01*
X452358Y415288D01*
X452219Y415282D01*
X452079Y415272D01*
X451940Y415258D01*
X451801Y415241D01*
X451663Y415219D01*
X451526Y415193D01*
X451389Y415164D01*
X451253Y415131D01*
X451119Y415094D01*
X450985Y415053D01*
X450853Y415008D01*
X450721Y414959D01*
X450592Y414907D01*
X450464Y414852D01*
X450337Y414792D01*
X450212Y414729D01*
X450089Y414663D01*
X449968Y414593D01*
X449849Y414520D01*
X449732Y414443D01*
X449618Y414363D01*
X449505Y414280D01*
X449395Y414194D01*
X449288Y414104D01*
X449183Y414012D01*
X449081Y413917D01*
X448981Y413819D01*
X448884Y413718D01*
X448790Y413614D01*
X448700Y413508D01*
X448612Y413399D01*
X448527Y413288D01*
X448446Y413174D01*
X448367Y413059D01*
X448292Y412941D01*
X448221Y412821D01*
X448153Y412698D01*
X448088Y412575D01*
X448027Y412449D01*
X447969Y412321D01*
X447915Y412193D01*
X447865Y412062D01*
X447818Y411930D01*
X447775Y411797D01*
X447736Y411663D01*
X447701Y411528D01*
X447670Y411392D01*
X447642Y411254D01*
X447619Y411117D01*
X447599Y410978D01*
X447583Y410839D01*
X447571Y410700D01*
X447563Y410561D01*
X447559Y410421D01*
X447559Y410281D01*
X447563Y410141D01*
X447571Y410002D01*
X447583Y409863D01*
X447599Y409724D01*
X447619Y409585D01*
X447642Y409448D01*
X447670Y409310D01*
X447701Y409174D01*
X447736Y409039D01*
X447775Y408905D01*
X447818Y408772D01*
X447865Y408640D01*
X447915Y408509D01*
X447969Y408381D01*
X448027Y408253D01*
X448088Y408127D01*
X448153Y408004D01*
X448221Y407882D01*
X448292Y407761D01*
X448367Y407643D01*
X448446Y407528D01*
X448527Y407414D01*
X448612Y407303D01*
X448700Y407194D01*
X448790Y407088D01*
X448884Y406984D01*
X448981Y406883D01*
X449081Y406785D01*
X449183Y406690D01*
X449288Y406598D01*
X449395Y406508D01*
X449505Y406422D01*
X449618Y406339D01*
X449732Y406259D01*
X449849Y406182D01*
X449968Y406109D01*
X450089Y406039D01*
X450212Y405973D01*
X450337Y405910D01*
X450464Y405850D01*
X450592Y405795D01*
X450721Y405743D01*
X450853Y405694D01*
X450985Y405649D01*
X451119Y405608D01*
X451253Y405571D01*
X451389Y405538D01*
X451526Y405509D01*
X451663Y405483D01*
X451801Y405461D01*
X451940Y405444D01*
X452079Y405430D01*
X452219Y405420D01*
X452358Y405414D01*
X452498Y405412D01*
X457436Y405412D01*
X441441Y411339D02*
X436502Y415290D01*
X436502Y397510D01*
X431564Y397510D02*
X441441Y397510D01*
X455225Y291465D02*
X455225Y273685D01*
X455225Y291465D02*
X450286Y291465D01*
X450146Y291463D01*
X450007Y291457D01*
X449867Y291447D01*
X449728Y291433D01*
X449589Y291416D01*
X449451Y291394D01*
X449314Y291368D01*
X449177Y291339D01*
X449041Y291306D01*
X448907Y291269D01*
X448773Y291228D01*
X448641Y291183D01*
X448509Y291134D01*
X448380Y291082D01*
X448252Y291027D01*
X448125Y290967D01*
X448000Y290904D01*
X447877Y290838D01*
X447756Y290768D01*
X447637Y290695D01*
X447520Y290618D01*
X447406Y290538D01*
X447293Y290455D01*
X447183Y290369D01*
X447076Y290279D01*
X446971Y290187D01*
X446869Y290092D01*
X446769Y289994D01*
X446672Y289893D01*
X446578Y289789D01*
X446488Y289683D01*
X446400Y289574D01*
X446315Y289463D01*
X446234Y289349D01*
X446155Y289234D01*
X446080Y289116D01*
X446009Y288996D01*
X445941Y288873D01*
X445876Y288750D01*
X445815Y288624D01*
X445757Y288496D01*
X445703Y288368D01*
X445653Y288237D01*
X445606Y288105D01*
X445563Y287972D01*
X445524Y287838D01*
X445489Y287703D01*
X445458Y287567D01*
X445430Y287429D01*
X445407Y287292D01*
X445387Y287153D01*
X445371Y287014D01*
X445359Y286875D01*
X445351Y286736D01*
X445347Y286596D01*
X445347Y286456D01*
X445351Y286316D01*
X445359Y286177D01*
X445371Y286038D01*
X445387Y285899D01*
X445407Y285760D01*
X445430Y285623D01*
X445458Y285485D01*
X445489Y285349D01*
X445524Y285214D01*
X445563Y285080D01*
X445606Y284947D01*
X445653Y284815D01*
X445703Y284684D01*
X445757Y284556D01*
X445815Y284428D01*
X445876Y284302D01*
X445941Y284179D01*
X446009Y284057D01*
X446080Y283936D01*
X446155Y283818D01*
X446234Y283703D01*
X446315Y283589D01*
X446400Y283478D01*
X446488Y283369D01*
X446578Y283263D01*
X446672Y283159D01*
X446769Y283058D01*
X446869Y282960D01*
X446971Y282865D01*
X447076Y282773D01*
X447183Y282683D01*
X447293Y282597D01*
X447406Y282514D01*
X447520Y282434D01*
X447637Y282357D01*
X447756Y282284D01*
X447877Y282214D01*
X448000Y282148D01*
X448125Y282085D01*
X448252Y282025D01*
X448380Y281970D01*
X448509Y281918D01*
X448641Y281869D01*
X448773Y281824D01*
X448907Y281783D01*
X449041Y281746D01*
X449177Y281713D01*
X449314Y281684D01*
X449451Y281658D01*
X449589Y281636D01*
X449728Y281619D01*
X449867Y281605D01*
X450007Y281595D01*
X450146Y281589D01*
X450286Y281587D01*
X455225Y281587D01*
X433797Y291465D02*
X433665Y291463D01*
X433534Y291457D01*
X433402Y291447D01*
X433271Y291434D01*
X433141Y291416D01*
X433011Y291395D01*
X432881Y291370D01*
X432753Y291341D01*
X432625Y291308D01*
X432499Y291271D01*
X432373Y291231D01*
X432249Y291187D01*
X432126Y291139D01*
X432005Y291088D01*
X431885Y291033D01*
X431767Y290975D01*
X431651Y290913D01*
X431537Y290847D01*
X431424Y290779D01*
X431314Y290707D01*
X431206Y290632D01*
X431100Y290553D01*
X430996Y290472D01*
X430895Y290387D01*
X430797Y290300D01*
X430701Y290209D01*
X430608Y290116D01*
X430517Y290020D01*
X430430Y289922D01*
X430345Y289821D01*
X430264Y289717D01*
X430185Y289611D01*
X430110Y289503D01*
X430038Y289393D01*
X429970Y289280D01*
X429904Y289166D01*
X429842Y289050D01*
X429784Y288932D01*
X429729Y288812D01*
X429678Y288691D01*
X429630Y288568D01*
X429586Y288444D01*
X429546Y288318D01*
X429509Y288192D01*
X429476Y288064D01*
X429447Y287936D01*
X429422Y287806D01*
X429401Y287676D01*
X429383Y287546D01*
X429370Y287415D01*
X429360Y287283D01*
X429354Y287152D01*
X429352Y287020D01*
X433797Y291465D02*
X433947Y291463D01*
X434096Y291457D01*
X434245Y291447D01*
X434394Y291434D01*
X434543Y291416D01*
X434691Y291395D01*
X434839Y291369D01*
X434985Y291340D01*
X435131Y291307D01*
X435276Y291270D01*
X435420Y291229D01*
X435563Y291185D01*
X435705Y291137D01*
X435845Y291085D01*
X435984Y291030D01*
X436122Y290971D01*
X436257Y290908D01*
X436392Y290842D01*
X436524Y290772D01*
X436654Y290699D01*
X436783Y290622D01*
X436910Y290542D01*
X437034Y290459D01*
X437156Y290373D01*
X437276Y290283D01*
X437393Y290190D01*
X437508Y290095D01*
X437621Y289996D01*
X437731Y289894D01*
X437838Y289790D01*
X437942Y289683D01*
X438044Y289573D01*
X438142Y289460D01*
X438238Y289345D01*
X438330Y289227D01*
X438420Y289107D01*
X438506Y288985D01*
X438589Y288861D01*
X438669Y288734D01*
X438745Y288606D01*
X438818Y288475D01*
X438888Y288342D01*
X438954Y288208D01*
X439016Y288072D01*
X439075Y287935D01*
X439131Y287796D01*
X439182Y287655D01*
X439230Y287514D01*
X430835Y283563D02*
X430739Y283656D01*
X430647Y283752D01*
X430557Y283851D01*
X430470Y283952D01*
X430386Y284055D01*
X430304Y284160D01*
X430226Y284268D01*
X430151Y284378D01*
X430078Y284490D01*
X430009Y284604D01*
X429943Y284720D01*
X429881Y284838D01*
X429822Y284957D01*
X429766Y285078D01*
X429713Y285201D01*
X429664Y285325D01*
X429619Y285450D01*
X429576Y285577D01*
X429538Y285704D01*
X429503Y285833D01*
X429472Y285962D01*
X429444Y286093D01*
X429420Y286224D01*
X429399Y286356D01*
X429383Y286488D01*
X429370Y286621D01*
X429360Y286754D01*
X429355Y286887D01*
X429353Y287020D01*
X430834Y283563D02*
X439230Y273685D01*
X429352Y273685D01*
X416983Y280599D02*
X416983Y286526D01*
X416983Y280599D02*
X413525Y276154D01*
X416983Y280599D02*
X420440Y276154D01*
X416983Y280599D02*
X411550Y282575D01*
X416983Y280599D02*
X422415Y282575D01*
X355836Y227965D02*
X355836Y210185D01*
X355836Y227965D02*
X350898Y227965D01*
X350758Y227963D01*
X350619Y227957D01*
X350479Y227947D01*
X350340Y227933D01*
X350201Y227916D01*
X350063Y227894D01*
X349926Y227868D01*
X349789Y227839D01*
X349653Y227806D01*
X349519Y227769D01*
X349385Y227728D01*
X349253Y227683D01*
X349121Y227634D01*
X348992Y227582D01*
X348864Y227527D01*
X348737Y227467D01*
X348612Y227404D01*
X348489Y227338D01*
X348368Y227268D01*
X348249Y227195D01*
X348132Y227118D01*
X348018Y227038D01*
X347905Y226955D01*
X347795Y226869D01*
X347688Y226779D01*
X347583Y226687D01*
X347481Y226592D01*
X347381Y226494D01*
X347284Y226393D01*
X347190Y226289D01*
X347100Y226183D01*
X347012Y226074D01*
X346927Y225963D01*
X346846Y225849D01*
X346767Y225734D01*
X346692Y225616D01*
X346621Y225496D01*
X346553Y225373D01*
X346488Y225250D01*
X346427Y225124D01*
X346369Y224996D01*
X346315Y224868D01*
X346265Y224737D01*
X346218Y224605D01*
X346175Y224472D01*
X346136Y224338D01*
X346101Y224203D01*
X346070Y224067D01*
X346042Y223929D01*
X346019Y223792D01*
X345999Y223653D01*
X345983Y223514D01*
X345971Y223375D01*
X345963Y223236D01*
X345959Y223096D01*
X345959Y222956D01*
X345963Y222816D01*
X345971Y222677D01*
X345983Y222538D01*
X345999Y222399D01*
X346019Y222260D01*
X346042Y222123D01*
X346070Y221985D01*
X346101Y221849D01*
X346136Y221714D01*
X346175Y221580D01*
X346218Y221447D01*
X346265Y221315D01*
X346315Y221184D01*
X346369Y221056D01*
X346427Y220928D01*
X346488Y220802D01*
X346553Y220679D01*
X346621Y220556D01*
X346692Y220436D01*
X346767Y220318D01*
X346846Y220203D01*
X346927Y220089D01*
X347012Y219978D01*
X347100Y219869D01*
X347190Y219763D01*
X347284Y219659D01*
X347381Y219558D01*
X347481Y219460D01*
X347583Y219365D01*
X347688Y219273D01*
X347795Y219183D01*
X347905Y219097D01*
X348018Y219014D01*
X348132Y218934D01*
X348249Y218857D01*
X348368Y218784D01*
X348489Y218714D01*
X348612Y218648D01*
X348737Y218585D01*
X348864Y218525D01*
X348992Y218470D01*
X349121Y218418D01*
X349253Y218369D01*
X349385Y218324D01*
X349519Y218283D01*
X349653Y218246D01*
X349789Y218213D01*
X349926Y218184D01*
X350063Y218158D01*
X350201Y218136D01*
X350340Y218119D01*
X350479Y218105D01*
X350619Y218095D01*
X350758Y218089D01*
X350898Y218087D01*
X355836Y218087D01*
X339841Y210185D02*
X334902Y210185D01*
X334762Y210187D01*
X334623Y210193D01*
X334483Y210203D01*
X334344Y210217D01*
X334205Y210234D01*
X334067Y210256D01*
X333930Y210282D01*
X333793Y210311D01*
X333657Y210344D01*
X333523Y210381D01*
X333389Y210422D01*
X333257Y210467D01*
X333125Y210516D01*
X332996Y210568D01*
X332868Y210623D01*
X332741Y210683D01*
X332616Y210746D01*
X332493Y210812D01*
X332372Y210882D01*
X332253Y210955D01*
X332136Y211032D01*
X332022Y211112D01*
X331909Y211195D01*
X331799Y211281D01*
X331692Y211371D01*
X331587Y211463D01*
X331485Y211558D01*
X331385Y211656D01*
X331288Y211757D01*
X331194Y211861D01*
X331104Y211967D01*
X331016Y212076D01*
X330931Y212187D01*
X330850Y212301D01*
X330771Y212416D01*
X330696Y212534D01*
X330625Y212654D01*
X330557Y212777D01*
X330492Y212900D01*
X330431Y213026D01*
X330373Y213154D01*
X330319Y213282D01*
X330269Y213413D01*
X330222Y213545D01*
X330179Y213678D01*
X330140Y213812D01*
X330105Y213947D01*
X330074Y214083D01*
X330046Y214221D01*
X330023Y214358D01*
X330003Y214497D01*
X329987Y214636D01*
X329975Y214775D01*
X329967Y214914D01*
X329963Y215054D01*
X329963Y215194D01*
X329967Y215334D01*
X329975Y215473D01*
X329987Y215612D01*
X330003Y215751D01*
X330023Y215890D01*
X330046Y216027D01*
X330074Y216165D01*
X330105Y216301D01*
X330140Y216436D01*
X330179Y216570D01*
X330222Y216703D01*
X330269Y216835D01*
X330319Y216966D01*
X330373Y217094D01*
X330431Y217222D01*
X330492Y217348D01*
X330557Y217471D01*
X330625Y217594D01*
X330696Y217714D01*
X330771Y217832D01*
X330850Y217947D01*
X330931Y218061D01*
X331016Y218172D01*
X331104Y218281D01*
X331194Y218387D01*
X331288Y218491D01*
X331385Y218592D01*
X331485Y218690D01*
X331587Y218785D01*
X331692Y218877D01*
X331799Y218967D01*
X331909Y219053D01*
X332022Y219136D01*
X332136Y219216D01*
X332253Y219293D01*
X332372Y219366D01*
X332493Y219436D01*
X332616Y219502D01*
X332741Y219565D01*
X332868Y219625D01*
X332996Y219680D01*
X333125Y219732D01*
X333257Y219781D01*
X333389Y219826D01*
X333523Y219867D01*
X333657Y219904D01*
X333793Y219937D01*
X333930Y219966D01*
X334067Y219992D01*
X334205Y220014D01*
X334344Y220031D01*
X334483Y220045D01*
X334623Y220055D01*
X334762Y220061D01*
X334902Y220063D01*
X333915Y227965D02*
X339841Y227965D01*
X333915Y227965D02*
X333791Y227963D01*
X333667Y227957D01*
X333543Y227947D01*
X333420Y227934D01*
X333297Y227916D01*
X333175Y227895D01*
X333053Y227870D01*
X332932Y227841D01*
X332813Y227808D01*
X332694Y227772D01*
X332577Y227731D01*
X332461Y227688D01*
X332346Y227640D01*
X332233Y227589D01*
X332121Y227534D01*
X332012Y227476D01*
X331904Y227415D01*
X331798Y227350D01*
X331694Y227282D01*
X331593Y227210D01*
X331493Y227136D01*
X331397Y227058D01*
X331302Y226978D01*
X331210Y226894D01*
X331121Y226808D01*
X331035Y226719D01*
X330951Y226627D01*
X330871Y226532D01*
X330793Y226436D01*
X330719Y226336D01*
X330647Y226235D01*
X330579Y226131D01*
X330514Y226025D01*
X330453Y225917D01*
X330395Y225808D01*
X330340Y225696D01*
X330289Y225583D01*
X330241Y225468D01*
X330198Y225352D01*
X330157Y225235D01*
X330121Y225116D01*
X330088Y224997D01*
X330059Y224876D01*
X330034Y224754D01*
X330013Y224632D01*
X329995Y224509D01*
X329982Y224386D01*
X329972Y224262D01*
X329966Y224138D01*
X329964Y224014D01*
X329966Y223890D01*
X329972Y223766D01*
X329982Y223642D01*
X329995Y223519D01*
X330013Y223396D01*
X330034Y223274D01*
X330059Y223152D01*
X330088Y223031D01*
X330121Y222912D01*
X330157Y222793D01*
X330198Y222676D01*
X330241Y222560D01*
X330289Y222445D01*
X330340Y222332D01*
X330395Y222220D01*
X330453Y222111D01*
X330514Y222003D01*
X330579Y221897D01*
X330647Y221793D01*
X330719Y221692D01*
X330793Y221592D01*
X330871Y221496D01*
X330951Y221401D01*
X331035Y221309D01*
X331121Y221220D01*
X331210Y221134D01*
X331302Y221050D01*
X331397Y220970D01*
X331493Y220892D01*
X331593Y220818D01*
X331694Y220746D01*
X331798Y220678D01*
X331904Y220613D01*
X332012Y220552D01*
X332121Y220494D01*
X332233Y220439D01*
X332346Y220388D01*
X332461Y220340D01*
X332577Y220297D01*
X332694Y220256D01*
X332813Y220220D01*
X332932Y220187D01*
X333053Y220158D01*
X333175Y220133D01*
X333297Y220112D01*
X333420Y220094D01*
X333543Y220081D01*
X333667Y220071D01*
X333791Y220065D01*
X333915Y220063D01*
X337866Y220063D01*
X255824Y283210D02*
X255824Y300990D01*
X250885Y300990D01*
X250745Y300988D01*
X250606Y300982D01*
X250466Y300972D01*
X250327Y300958D01*
X250188Y300941D01*
X250050Y300919D01*
X249913Y300893D01*
X249776Y300864D01*
X249640Y300831D01*
X249506Y300794D01*
X249372Y300753D01*
X249240Y300708D01*
X249108Y300659D01*
X248979Y300607D01*
X248851Y300552D01*
X248724Y300492D01*
X248599Y300429D01*
X248476Y300363D01*
X248355Y300293D01*
X248236Y300220D01*
X248119Y300143D01*
X248005Y300063D01*
X247892Y299980D01*
X247782Y299894D01*
X247675Y299804D01*
X247570Y299712D01*
X247468Y299617D01*
X247368Y299519D01*
X247271Y299418D01*
X247177Y299314D01*
X247087Y299208D01*
X246999Y299099D01*
X246914Y298988D01*
X246833Y298874D01*
X246754Y298759D01*
X246679Y298641D01*
X246608Y298521D01*
X246540Y298398D01*
X246475Y298275D01*
X246414Y298149D01*
X246356Y298021D01*
X246302Y297893D01*
X246252Y297762D01*
X246205Y297630D01*
X246162Y297497D01*
X246123Y297363D01*
X246088Y297228D01*
X246057Y297092D01*
X246029Y296954D01*
X246006Y296817D01*
X245986Y296678D01*
X245970Y296539D01*
X245958Y296400D01*
X245950Y296261D01*
X245946Y296121D01*
X245946Y295981D01*
X245950Y295841D01*
X245958Y295702D01*
X245970Y295563D01*
X245986Y295424D01*
X246006Y295285D01*
X246029Y295148D01*
X246057Y295010D01*
X246088Y294874D01*
X246123Y294739D01*
X246162Y294605D01*
X246205Y294472D01*
X246252Y294340D01*
X246302Y294209D01*
X246356Y294081D01*
X246414Y293953D01*
X246475Y293827D01*
X246540Y293704D01*
X246608Y293582D01*
X246679Y293461D01*
X246754Y293343D01*
X246833Y293228D01*
X246914Y293114D01*
X246999Y293003D01*
X247087Y292894D01*
X247177Y292788D01*
X247271Y292684D01*
X247368Y292583D01*
X247468Y292485D01*
X247570Y292390D01*
X247675Y292298D01*
X247782Y292208D01*
X247892Y292122D01*
X248005Y292039D01*
X248119Y291959D01*
X248236Y291882D01*
X248355Y291809D01*
X248476Y291739D01*
X248599Y291673D01*
X248724Y291610D01*
X248851Y291550D01*
X248979Y291495D01*
X249108Y291443D01*
X249240Y291394D01*
X249372Y291349D01*
X249506Y291308D01*
X249640Y291271D01*
X249776Y291238D01*
X249913Y291209D01*
X250050Y291183D01*
X250188Y291161D01*
X250327Y291144D01*
X250466Y291130D01*
X250606Y291120D01*
X250745Y291114D01*
X250885Y291112D01*
X255824Y291112D01*
X239829Y287161D02*
X235878Y300990D01*
X239829Y287161D02*
X229951Y287161D01*
X232914Y291112D02*
X232914Y283210D01*
X266936Y400685D02*
X266936Y418465D01*
X261998Y418465D01*
X261858Y418463D01*
X261719Y418457D01*
X261579Y418447D01*
X261440Y418433D01*
X261301Y418416D01*
X261163Y418394D01*
X261026Y418368D01*
X260889Y418339D01*
X260753Y418306D01*
X260619Y418269D01*
X260485Y418228D01*
X260353Y418183D01*
X260221Y418134D01*
X260092Y418082D01*
X259964Y418027D01*
X259837Y417967D01*
X259712Y417904D01*
X259589Y417838D01*
X259468Y417768D01*
X259349Y417695D01*
X259232Y417618D01*
X259118Y417538D01*
X259005Y417455D01*
X258895Y417369D01*
X258788Y417279D01*
X258683Y417187D01*
X258581Y417092D01*
X258481Y416994D01*
X258384Y416893D01*
X258290Y416789D01*
X258200Y416683D01*
X258112Y416574D01*
X258027Y416463D01*
X257946Y416349D01*
X257867Y416234D01*
X257792Y416116D01*
X257721Y415996D01*
X257653Y415873D01*
X257588Y415750D01*
X257527Y415624D01*
X257469Y415496D01*
X257415Y415368D01*
X257365Y415237D01*
X257318Y415105D01*
X257275Y414972D01*
X257236Y414838D01*
X257201Y414703D01*
X257170Y414567D01*
X257142Y414429D01*
X257119Y414292D01*
X257099Y414153D01*
X257083Y414014D01*
X257071Y413875D01*
X257063Y413736D01*
X257059Y413596D01*
X257059Y413456D01*
X257063Y413316D01*
X257071Y413177D01*
X257083Y413038D01*
X257099Y412899D01*
X257119Y412760D01*
X257142Y412623D01*
X257170Y412485D01*
X257201Y412349D01*
X257236Y412214D01*
X257275Y412080D01*
X257318Y411947D01*
X257365Y411815D01*
X257415Y411684D01*
X257469Y411556D01*
X257527Y411428D01*
X257588Y411302D01*
X257653Y411179D01*
X257721Y411057D01*
X257792Y410936D01*
X257867Y410818D01*
X257946Y410703D01*
X258027Y410589D01*
X258112Y410478D01*
X258200Y410369D01*
X258290Y410263D01*
X258384Y410159D01*
X258481Y410058D01*
X258581Y409960D01*
X258683Y409865D01*
X258788Y409773D01*
X258895Y409683D01*
X259005Y409597D01*
X259118Y409514D01*
X259232Y409434D01*
X259349Y409357D01*
X259468Y409284D01*
X259589Y409214D01*
X259712Y409148D01*
X259837Y409085D01*
X259964Y409025D01*
X260092Y408970D01*
X260221Y408918D01*
X260353Y408869D01*
X260485Y408824D01*
X260619Y408783D01*
X260753Y408746D01*
X260889Y408713D01*
X261026Y408684D01*
X261163Y408658D01*
X261301Y408636D01*
X261440Y408619D01*
X261579Y408605D01*
X261719Y408595D01*
X261858Y408589D01*
X261998Y408587D01*
X266936Y408587D01*
X250941Y400685D02*
X245015Y400685D01*
X244891Y400687D01*
X244767Y400693D01*
X244643Y400703D01*
X244520Y400716D01*
X244397Y400734D01*
X244275Y400755D01*
X244153Y400780D01*
X244032Y400809D01*
X243913Y400842D01*
X243794Y400878D01*
X243677Y400919D01*
X243561Y400962D01*
X243446Y401010D01*
X243333Y401061D01*
X243221Y401116D01*
X243112Y401174D01*
X243004Y401235D01*
X242898Y401300D01*
X242794Y401368D01*
X242693Y401440D01*
X242593Y401514D01*
X242497Y401592D01*
X242402Y401672D01*
X242310Y401756D01*
X242221Y401842D01*
X242135Y401931D01*
X242051Y402023D01*
X241971Y402118D01*
X241893Y402214D01*
X241819Y402314D01*
X241747Y402415D01*
X241679Y402519D01*
X241614Y402625D01*
X241553Y402733D01*
X241495Y402842D01*
X241440Y402954D01*
X241389Y403067D01*
X241341Y403182D01*
X241298Y403298D01*
X241257Y403415D01*
X241221Y403534D01*
X241188Y403653D01*
X241159Y403774D01*
X241134Y403896D01*
X241113Y404018D01*
X241095Y404141D01*
X241082Y404264D01*
X241072Y404388D01*
X241066Y404512D01*
X241064Y404636D01*
X241064Y406612D01*
X241066Y406736D01*
X241072Y406860D01*
X241082Y406984D01*
X241095Y407107D01*
X241113Y407230D01*
X241134Y407352D01*
X241159Y407474D01*
X241188Y407595D01*
X241221Y407714D01*
X241257Y407833D01*
X241298Y407950D01*
X241341Y408066D01*
X241389Y408181D01*
X241440Y408294D01*
X241495Y408406D01*
X241553Y408515D01*
X241614Y408623D01*
X241679Y408729D01*
X241747Y408833D01*
X241819Y408934D01*
X241893Y409034D01*
X241971Y409130D01*
X242051Y409225D01*
X242135Y409317D01*
X242221Y409406D01*
X242310Y409492D01*
X242402Y409576D01*
X242497Y409656D01*
X242593Y409734D01*
X242693Y409808D01*
X242794Y409880D01*
X242898Y409948D01*
X243004Y410013D01*
X243112Y410074D01*
X243221Y410132D01*
X243333Y410187D01*
X243446Y410238D01*
X243561Y410286D01*
X243677Y410329D01*
X243794Y410370D01*
X243913Y410406D01*
X244032Y410439D01*
X244153Y410468D01*
X244275Y410493D01*
X244397Y410514D01*
X244520Y410532D01*
X244643Y410545D01*
X244767Y410555D01*
X244891Y410561D01*
X245015Y410563D01*
X250941Y410563D01*
X250941Y418465D01*
X241064Y418465D01*
X383923Y426085D02*
X383923Y443865D01*
X383923Y435963D02*
X374046Y435963D01*
X374046Y443865D02*
X374046Y426085D01*
X366615Y434975D02*
X366611Y435325D01*
X366598Y435674D01*
X366577Y436023D01*
X366548Y436372D01*
X366511Y436720D01*
X366465Y437067D01*
X366411Y437412D01*
X366349Y437756D01*
X366278Y438099D01*
X366199Y438440D01*
X366113Y438779D01*
X366018Y439115D01*
X365915Y439450D01*
X365804Y439781D01*
X365686Y440111D01*
X365559Y440437D01*
X365425Y440760D01*
X365283Y441079D01*
X365133Y441396D01*
X365133Y441395D02*
X365093Y441508D01*
X365049Y441618D01*
X365001Y441728D01*
X364950Y441835D01*
X364895Y441941D01*
X364837Y442046D01*
X364775Y442148D01*
X364710Y442248D01*
X364642Y442346D01*
X364571Y442442D01*
X364496Y442535D01*
X364419Y442626D01*
X364339Y442714D01*
X364256Y442799D01*
X364170Y442882D01*
X364081Y442962D01*
X363990Y443039D01*
X363896Y443113D01*
X363800Y443184D01*
X363702Y443252D01*
X363602Y443316D01*
X363499Y443378D01*
X363395Y443435D01*
X363289Y443490D01*
X363181Y443541D01*
X363071Y443588D01*
X362960Y443632D01*
X362848Y443672D01*
X362734Y443708D01*
X362620Y443741D01*
X362504Y443770D01*
X362387Y443795D01*
X362270Y443816D01*
X362152Y443834D01*
X362033Y443847D01*
X361914Y443857D01*
X361795Y443863D01*
X361676Y443865D01*
X361557Y443863D01*
X361438Y443857D01*
X361319Y443847D01*
X361200Y443834D01*
X361082Y443816D01*
X360965Y443795D01*
X360848Y443770D01*
X360732Y443741D01*
X360618Y443708D01*
X360504Y443672D01*
X360392Y443632D01*
X360281Y443588D01*
X360171Y443541D01*
X360063Y443490D01*
X359957Y443435D01*
X359853Y443378D01*
X359750Y443316D01*
X359650Y443252D01*
X359552Y443184D01*
X359456Y443113D01*
X359362Y443039D01*
X359271Y442962D01*
X359182Y442882D01*
X359097Y442799D01*
X359013Y442714D01*
X358933Y442626D01*
X358856Y442535D01*
X358781Y442442D01*
X358710Y442346D01*
X358642Y442248D01*
X358577Y442148D01*
X358515Y442046D01*
X358457Y441941D01*
X358402Y441836D01*
X358351Y441728D01*
X358303Y441618D01*
X358259Y441508D01*
X358219Y441395D01*
X358219Y441396D02*
X358069Y441079D01*
X357927Y440760D01*
X357793Y440437D01*
X357666Y440111D01*
X357548Y439781D01*
X357437Y439450D01*
X357334Y439115D01*
X357239Y438779D01*
X357153Y438440D01*
X357074Y438099D01*
X357003Y437756D01*
X356941Y437412D01*
X356887Y437067D01*
X356841Y436720D01*
X356804Y436372D01*
X356775Y436023D01*
X356754Y435674D01*
X356741Y435325D01*
X356737Y434975D01*
X366614Y434975D02*
X366610Y434625D01*
X366597Y434276D01*
X366576Y433927D01*
X366547Y433578D01*
X366510Y433230D01*
X366464Y432883D01*
X366410Y432538D01*
X366348Y432194D01*
X366277Y431851D01*
X366198Y431510D01*
X366112Y431171D01*
X366017Y430835D01*
X365914Y430500D01*
X365803Y430169D01*
X365685Y429840D01*
X365558Y429513D01*
X365424Y429190D01*
X365282Y428871D01*
X365132Y428555D01*
X365133Y428555D02*
X365093Y428442D01*
X365049Y428332D01*
X365001Y428222D01*
X364950Y428115D01*
X364895Y428009D01*
X364837Y427904D01*
X364775Y427802D01*
X364710Y427702D01*
X364642Y427604D01*
X364571Y427508D01*
X364496Y427415D01*
X364419Y427324D01*
X364339Y427236D01*
X364256Y427151D01*
X364170Y427068D01*
X364081Y426988D01*
X363990Y426911D01*
X363896Y426837D01*
X363800Y426766D01*
X363702Y426698D01*
X363602Y426634D01*
X363499Y426572D01*
X363395Y426515D01*
X363289Y426460D01*
X363181Y426409D01*
X363071Y426362D01*
X362960Y426318D01*
X362848Y426278D01*
X362734Y426242D01*
X362620Y426209D01*
X362504Y426180D01*
X362387Y426155D01*
X362270Y426134D01*
X362152Y426116D01*
X362033Y426103D01*
X361914Y426093D01*
X361795Y426087D01*
X361676Y426085D01*
X358219Y428555D02*
X358069Y428871D01*
X357927Y429190D01*
X357793Y429513D01*
X357666Y429840D01*
X357548Y430169D01*
X357437Y430500D01*
X357334Y430835D01*
X357239Y431171D01*
X357153Y431510D01*
X357074Y431851D01*
X357003Y432194D01*
X356941Y432538D01*
X356887Y432883D01*
X356841Y433230D01*
X356804Y433578D01*
X356775Y433927D01*
X356754Y434276D01*
X356741Y434625D01*
X356737Y434975D01*
X358219Y428555D02*
X358259Y428442D01*
X358303Y428332D01*
X358351Y428222D01*
X358402Y428114D01*
X358457Y428008D01*
X358515Y427904D01*
X358577Y427802D01*
X358642Y427702D01*
X358710Y427604D01*
X358781Y427508D01*
X358856Y427415D01*
X358933Y427324D01*
X359013Y427236D01*
X359097Y427151D01*
X359182Y427068D01*
X359271Y426988D01*
X359362Y426911D01*
X359456Y426837D01*
X359552Y426766D01*
X359650Y426698D01*
X359750Y426634D01*
X359853Y426572D01*
X359957Y426514D01*
X360063Y426460D01*
X360171Y426409D01*
X360281Y426362D01*
X360392Y426318D01*
X360504Y426278D01*
X360618Y426242D01*
X360732Y426209D01*
X360848Y426180D01*
X360965Y426155D01*
X361082Y426134D01*
X361200Y426116D01*
X361319Y426103D01*
X361438Y426093D01*
X361557Y426087D01*
X361676Y426085D01*
X365627Y430036D02*
X357725Y439914D01*
X349109Y435963D02*
X344170Y435963D01*
X344030Y435961D01*
X343891Y435955D01*
X343751Y435945D01*
X343612Y435931D01*
X343473Y435914D01*
X343335Y435892D01*
X343198Y435866D01*
X343061Y435837D01*
X342925Y435804D01*
X342791Y435767D01*
X342657Y435726D01*
X342525Y435681D01*
X342393Y435632D01*
X342264Y435580D01*
X342136Y435525D01*
X342009Y435465D01*
X341884Y435402D01*
X341761Y435336D01*
X341640Y435266D01*
X341521Y435193D01*
X341404Y435116D01*
X341290Y435036D01*
X341177Y434953D01*
X341067Y434867D01*
X340960Y434777D01*
X340855Y434685D01*
X340753Y434590D01*
X340653Y434492D01*
X340556Y434391D01*
X340462Y434287D01*
X340372Y434181D01*
X340284Y434072D01*
X340199Y433961D01*
X340118Y433847D01*
X340039Y433732D01*
X339964Y433614D01*
X339893Y433494D01*
X339825Y433371D01*
X339760Y433248D01*
X339699Y433122D01*
X339641Y432994D01*
X339587Y432866D01*
X339537Y432735D01*
X339490Y432603D01*
X339447Y432470D01*
X339408Y432336D01*
X339373Y432201D01*
X339342Y432065D01*
X339314Y431927D01*
X339291Y431790D01*
X339271Y431651D01*
X339255Y431512D01*
X339243Y431373D01*
X339235Y431234D01*
X339231Y431094D01*
X339231Y430954D01*
X339235Y430814D01*
X339243Y430675D01*
X339255Y430536D01*
X339271Y430397D01*
X339291Y430258D01*
X339314Y430121D01*
X339342Y429983D01*
X339373Y429847D01*
X339408Y429712D01*
X339447Y429578D01*
X339490Y429445D01*
X339537Y429313D01*
X339587Y429182D01*
X339641Y429054D01*
X339699Y428926D01*
X339760Y428800D01*
X339825Y428677D01*
X339893Y428555D01*
X339964Y428434D01*
X340039Y428316D01*
X340118Y428201D01*
X340199Y428087D01*
X340284Y427976D01*
X340372Y427867D01*
X340462Y427761D01*
X340556Y427657D01*
X340653Y427556D01*
X340753Y427458D01*
X340855Y427363D01*
X340960Y427271D01*
X341067Y427181D01*
X341177Y427095D01*
X341290Y427012D01*
X341404Y426932D01*
X341521Y426855D01*
X341640Y426782D01*
X341761Y426712D01*
X341884Y426646D01*
X342009Y426583D01*
X342136Y426523D01*
X342264Y426468D01*
X342393Y426416D01*
X342525Y426367D01*
X342657Y426322D01*
X342791Y426281D01*
X342925Y426244D01*
X343061Y426211D01*
X343198Y426182D01*
X343335Y426156D01*
X343473Y426134D01*
X343612Y426117D01*
X343751Y426103D01*
X343891Y426093D01*
X344030Y426087D01*
X344170Y426085D01*
X349109Y426085D01*
X349109Y443865D01*
X344170Y443865D01*
X344046Y443863D01*
X343922Y443857D01*
X343798Y443847D01*
X343675Y443834D01*
X343552Y443816D01*
X343430Y443795D01*
X343308Y443770D01*
X343187Y443741D01*
X343068Y443708D01*
X342949Y443672D01*
X342832Y443631D01*
X342716Y443588D01*
X342601Y443540D01*
X342488Y443489D01*
X342376Y443434D01*
X342267Y443376D01*
X342159Y443315D01*
X342053Y443250D01*
X341949Y443182D01*
X341848Y443110D01*
X341748Y443036D01*
X341652Y442958D01*
X341557Y442878D01*
X341465Y442794D01*
X341376Y442708D01*
X341290Y442619D01*
X341206Y442527D01*
X341126Y442432D01*
X341048Y442336D01*
X340974Y442236D01*
X340902Y442135D01*
X340834Y442031D01*
X340769Y441925D01*
X340708Y441817D01*
X340650Y441708D01*
X340595Y441596D01*
X340544Y441483D01*
X340496Y441368D01*
X340453Y441252D01*
X340412Y441135D01*
X340376Y441016D01*
X340343Y440897D01*
X340314Y440776D01*
X340289Y440654D01*
X340268Y440532D01*
X340250Y440409D01*
X340237Y440286D01*
X340227Y440162D01*
X340221Y440038D01*
X340219Y439914D01*
X340221Y439790D01*
X340227Y439666D01*
X340237Y439542D01*
X340250Y439419D01*
X340268Y439296D01*
X340289Y439174D01*
X340314Y439052D01*
X340343Y438931D01*
X340376Y438812D01*
X340412Y438693D01*
X340453Y438576D01*
X340496Y438460D01*
X340544Y438345D01*
X340595Y438232D01*
X340650Y438120D01*
X340708Y438011D01*
X340769Y437903D01*
X340834Y437797D01*
X340902Y437693D01*
X340974Y437592D01*
X341048Y437492D01*
X341126Y437396D01*
X341206Y437301D01*
X341290Y437209D01*
X341376Y437120D01*
X341465Y437034D01*
X341557Y436950D01*
X341652Y436870D01*
X341748Y436792D01*
X341848Y436718D01*
X341949Y436646D01*
X342053Y436578D01*
X342159Y436513D01*
X342267Y436452D01*
X342376Y436394D01*
X342488Y436339D01*
X342601Y436288D01*
X342716Y436240D01*
X342832Y436197D01*
X342949Y436156D01*
X343068Y436120D01*
X343187Y436087D01*
X343308Y436058D01*
X343430Y436033D01*
X343552Y436012D01*
X343675Y435994D01*
X343798Y435981D01*
X343922Y435971D01*
X344046Y435965D01*
X344170Y435963D01*
X332470Y443865D02*
X332470Y426085D01*
X332470Y443865D02*
X327531Y443865D01*
X327391Y443863D01*
X327252Y443857D01*
X327112Y443847D01*
X326973Y443833D01*
X326834Y443816D01*
X326696Y443794D01*
X326559Y443768D01*
X326422Y443739D01*
X326286Y443706D01*
X326152Y443669D01*
X326018Y443628D01*
X325886Y443583D01*
X325754Y443534D01*
X325625Y443482D01*
X325497Y443427D01*
X325370Y443367D01*
X325245Y443304D01*
X325122Y443238D01*
X325001Y443168D01*
X324882Y443095D01*
X324765Y443018D01*
X324651Y442938D01*
X324538Y442855D01*
X324428Y442769D01*
X324321Y442679D01*
X324216Y442587D01*
X324114Y442492D01*
X324014Y442394D01*
X323917Y442293D01*
X323823Y442189D01*
X323733Y442083D01*
X323645Y441974D01*
X323560Y441863D01*
X323479Y441749D01*
X323400Y441634D01*
X323325Y441516D01*
X323254Y441396D01*
X323186Y441273D01*
X323121Y441150D01*
X323060Y441024D01*
X323002Y440896D01*
X322948Y440768D01*
X322898Y440637D01*
X322851Y440505D01*
X322808Y440372D01*
X322769Y440238D01*
X322734Y440103D01*
X322703Y439967D01*
X322675Y439829D01*
X322652Y439692D01*
X322632Y439553D01*
X322616Y439414D01*
X322604Y439275D01*
X322596Y439136D01*
X322592Y438996D01*
X322592Y438856D01*
X322596Y438716D01*
X322604Y438577D01*
X322616Y438438D01*
X322632Y438299D01*
X322652Y438160D01*
X322675Y438023D01*
X322703Y437885D01*
X322734Y437749D01*
X322769Y437614D01*
X322808Y437480D01*
X322851Y437347D01*
X322898Y437215D01*
X322948Y437084D01*
X323002Y436956D01*
X323060Y436828D01*
X323121Y436702D01*
X323186Y436579D01*
X323254Y436457D01*
X323325Y436336D01*
X323400Y436218D01*
X323479Y436103D01*
X323560Y435989D01*
X323645Y435878D01*
X323733Y435769D01*
X323823Y435663D01*
X323917Y435559D01*
X324014Y435458D01*
X324114Y435360D01*
X324216Y435265D01*
X324321Y435173D01*
X324428Y435083D01*
X324538Y434997D01*
X324651Y434914D01*
X324765Y434834D01*
X324882Y434757D01*
X325001Y434684D01*
X325122Y434614D01*
X325245Y434548D01*
X325370Y434485D01*
X325497Y434425D01*
X325625Y434370D01*
X325754Y434318D01*
X325886Y434269D01*
X326018Y434224D01*
X326152Y434183D01*
X326286Y434146D01*
X326422Y434113D01*
X326559Y434084D01*
X326696Y434058D01*
X326834Y434036D01*
X326973Y434019D01*
X327112Y434005D01*
X327252Y433995D01*
X327391Y433989D01*
X327531Y433987D01*
X332470Y433987D01*
X326543Y433987D02*
X322592Y426085D01*
X315805Y430036D02*
X311854Y443865D01*
X315805Y430036D02*
X305927Y430036D01*
X308890Y433987D02*
X308890Y426085D01*
X299054Y439914D02*
X294116Y443865D01*
X294116Y426085D01*
X299054Y426085D02*
X289177Y426085D01*
X357424Y454660D02*
X357424Y472440D01*
X352485Y472440D01*
X352345Y472438D01*
X352206Y472432D01*
X352066Y472422D01*
X351927Y472408D01*
X351788Y472391D01*
X351650Y472369D01*
X351513Y472343D01*
X351376Y472314D01*
X351240Y472281D01*
X351106Y472244D01*
X350972Y472203D01*
X350840Y472158D01*
X350708Y472109D01*
X350579Y472057D01*
X350451Y472002D01*
X350324Y471942D01*
X350199Y471879D01*
X350076Y471813D01*
X349955Y471743D01*
X349836Y471670D01*
X349719Y471593D01*
X349605Y471513D01*
X349492Y471430D01*
X349382Y471344D01*
X349275Y471254D01*
X349170Y471162D01*
X349068Y471067D01*
X348968Y470969D01*
X348871Y470868D01*
X348777Y470764D01*
X348687Y470658D01*
X348599Y470549D01*
X348514Y470438D01*
X348433Y470324D01*
X348354Y470209D01*
X348279Y470091D01*
X348208Y469971D01*
X348140Y469848D01*
X348075Y469725D01*
X348014Y469599D01*
X347956Y469471D01*
X347902Y469343D01*
X347852Y469212D01*
X347805Y469080D01*
X347762Y468947D01*
X347723Y468813D01*
X347688Y468678D01*
X347657Y468542D01*
X347629Y468404D01*
X347606Y468267D01*
X347586Y468128D01*
X347570Y467989D01*
X347558Y467850D01*
X347550Y467711D01*
X347546Y467571D01*
X347546Y467431D01*
X347550Y467291D01*
X347558Y467152D01*
X347570Y467013D01*
X347586Y466874D01*
X347606Y466735D01*
X347629Y466598D01*
X347657Y466460D01*
X347688Y466324D01*
X347723Y466189D01*
X347762Y466055D01*
X347805Y465922D01*
X347852Y465790D01*
X347902Y465659D01*
X347956Y465531D01*
X348014Y465403D01*
X348075Y465277D01*
X348140Y465154D01*
X348208Y465032D01*
X348279Y464911D01*
X348354Y464793D01*
X348433Y464678D01*
X348514Y464564D01*
X348599Y464453D01*
X348687Y464344D01*
X348777Y464238D01*
X348871Y464134D01*
X348968Y464033D01*
X349068Y463935D01*
X349170Y463840D01*
X349275Y463748D01*
X349382Y463658D01*
X349492Y463572D01*
X349605Y463489D01*
X349719Y463409D01*
X349836Y463332D01*
X349955Y463259D01*
X350076Y463189D01*
X350199Y463123D01*
X350324Y463060D01*
X350451Y463000D01*
X350579Y462945D01*
X350708Y462893D01*
X350840Y462844D01*
X350972Y462799D01*
X351106Y462758D01*
X351240Y462721D01*
X351376Y462688D01*
X351513Y462659D01*
X351650Y462633D01*
X351788Y462611D01*
X351927Y462594D01*
X352066Y462580D01*
X352206Y462570D01*
X352345Y462564D01*
X352485Y462562D01*
X357424Y462562D01*
X341429Y464538D02*
X335502Y464538D01*
X335378Y464536D01*
X335254Y464530D01*
X335130Y464520D01*
X335007Y464507D01*
X334884Y464489D01*
X334762Y464468D01*
X334640Y464443D01*
X334519Y464414D01*
X334400Y464381D01*
X334281Y464345D01*
X334164Y464304D01*
X334048Y464261D01*
X333933Y464213D01*
X333820Y464162D01*
X333708Y464107D01*
X333599Y464049D01*
X333491Y463988D01*
X333385Y463923D01*
X333281Y463855D01*
X333180Y463783D01*
X333080Y463709D01*
X332984Y463631D01*
X332889Y463551D01*
X332797Y463467D01*
X332708Y463381D01*
X332622Y463292D01*
X332538Y463200D01*
X332458Y463105D01*
X332380Y463009D01*
X332306Y462909D01*
X332234Y462808D01*
X332166Y462704D01*
X332101Y462598D01*
X332040Y462490D01*
X331982Y462381D01*
X331927Y462269D01*
X331876Y462156D01*
X331828Y462041D01*
X331785Y461925D01*
X331744Y461808D01*
X331708Y461689D01*
X331675Y461570D01*
X331646Y461449D01*
X331621Y461327D01*
X331600Y461205D01*
X331582Y461082D01*
X331569Y460959D01*
X331559Y460835D01*
X331553Y460711D01*
X331551Y460587D01*
X331551Y459599D01*
X331553Y459459D01*
X331559Y459320D01*
X331569Y459180D01*
X331583Y459041D01*
X331600Y458902D01*
X331622Y458764D01*
X331648Y458627D01*
X331677Y458490D01*
X331710Y458354D01*
X331747Y458220D01*
X331788Y458086D01*
X331833Y457954D01*
X331882Y457822D01*
X331934Y457693D01*
X331989Y457565D01*
X332049Y457438D01*
X332112Y457313D01*
X332178Y457190D01*
X332248Y457069D01*
X332321Y456950D01*
X332398Y456833D01*
X332478Y456719D01*
X332561Y456606D01*
X332647Y456496D01*
X332737Y456389D01*
X332829Y456284D01*
X332924Y456182D01*
X333022Y456082D01*
X333123Y455985D01*
X333227Y455891D01*
X333333Y455801D01*
X333442Y455713D01*
X333553Y455628D01*
X333667Y455547D01*
X333782Y455468D01*
X333900Y455393D01*
X334021Y455322D01*
X334143Y455254D01*
X334266Y455189D01*
X334392Y455128D01*
X334520Y455070D01*
X334648Y455016D01*
X334779Y454966D01*
X334911Y454919D01*
X335044Y454876D01*
X335178Y454837D01*
X335313Y454802D01*
X335449Y454771D01*
X335587Y454743D01*
X335724Y454720D01*
X335863Y454700D01*
X336002Y454684D01*
X336141Y454672D01*
X336280Y454664D01*
X336420Y454660D01*
X336560Y454660D01*
X336700Y454664D01*
X336839Y454672D01*
X336978Y454684D01*
X337117Y454700D01*
X337256Y454720D01*
X337393Y454743D01*
X337531Y454771D01*
X337667Y454802D01*
X337802Y454837D01*
X337936Y454876D01*
X338069Y454919D01*
X338201Y454966D01*
X338332Y455016D01*
X338460Y455070D01*
X338588Y455128D01*
X338714Y455189D01*
X338837Y455254D01*
X338960Y455322D01*
X339080Y455393D01*
X339198Y455468D01*
X339313Y455547D01*
X339427Y455628D01*
X339538Y455713D01*
X339647Y455801D01*
X339753Y455891D01*
X339857Y455985D01*
X339958Y456082D01*
X340056Y456182D01*
X340151Y456284D01*
X340243Y456389D01*
X340333Y456496D01*
X340419Y456606D01*
X340502Y456719D01*
X340582Y456833D01*
X340659Y456950D01*
X340732Y457069D01*
X340802Y457190D01*
X340868Y457313D01*
X340931Y457438D01*
X340991Y457565D01*
X341046Y457693D01*
X341098Y457822D01*
X341147Y457954D01*
X341192Y458086D01*
X341233Y458220D01*
X341270Y458354D01*
X341303Y458490D01*
X341332Y458627D01*
X341358Y458764D01*
X341380Y458902D01*
X341397Y459041D01*
X341411Y459180D01*
X341421Y459320D01*
X341427Y459459D01*
X341429Y459599D01*
X341429Y464538D01*
X341427Y464732D01*
X341419Y464926D01*
X341408Y465119D01*
X341391Y465313D01*
X341370Y465505D01*
X341343Y465697D01*
X341313Y465889D01*
X341277Y466080D01*
X341237Y466269D01*
X341192Y466458D01*
X341143Y466646D01*
X341089Y466832D01*
X341030Y467017D01*
X340967Y467200D01*
X340900Y467382D01*
X340828Y467562D01*
X340751Y467740D01*
X340670Y467917D01*
X340585Y468091D01*
X340496Y468263D01*
X340402Y468433D01*
X340305Y468600D01*
X340203Y468766D01*
X340097Y468928D01*
X339988Y469088D01*
X339874Y469245D01*
X339757Y469400D01*
X339635Y469551D01*
X339510Y469699D01*
X339382Y469845D01*
X339250Y469987D01*
X339115Y470126D01*
X338976Y470261D01*
X338834Y470393D01*
X338688Y470521D01*
X338540Y470646D01*
X338389Y470767D01*
X338234Y470885D01*
X338077Y470999D01*
X337917Y471108D01*
X337755Y471214D01*
X337589Y471316D01*
X337422Y471413D01*
X337252Y471507D01*
X337080Y471596D01*
X336906Y471681D01*
X336729Y471762D01*
X336551Y471838D01*
X336371Y471910D01*
X336189Y471978D01*
X336006Y472041D01*
X335821Y472100D01*
X335635Y472154D01*
X335447Y472203D01*
X335258Y472248D01*
X335069Y472288D01*
X334878Y472324D01*
X334687Y472354D01*
X334494Y472381D01*
X334302Y472402D01*
X334108Y472419D01*
X333915Y472430D01*
X333721Y472438D01*
X333527Y472440D01*
D10*
X284776Y476680D02*
X283181Y475563D01*
X286904Y470246D01*
X290095Y472480D01*
X290094Y472480D02*
X290174Y472539D01*
X290252Y472601D01*
X290328Y472665D01*
X290401Y472733D01*
X290472Y472803D01*
X290539Y472876D01*
X290604Y472951D01*
X290666Y473029D01*
X290725Y473109D01*
X290781Y473191D01*
X290834Y473276D01*
X290883Y473362D01*
X290929Y473450D01*
X290972Y473540D01*
X291011Y473631D01*
X291046Y473724D01*
X291078Y473818D01*
X291107Y473914D01*
X291131Y474010D01*
X291152Y474107D01*
X291170Y474205D01*
X291183Y474304D01*
X291193Y474403D01*
X291199Y474502D01*
X291201Y474601D01*
X291199Y474701D01*
X291194Y474800D01*
X291184Y474899D01*
X291171Y474998D01*
X291155Y475096D01*
X291134Y475193D01*
X291110Y475290D01*
X291082Y475385D01*
X291050Y475479D01*
X291015Y475572D01*
X290976Y475664D01*
X290934Y475754D01*
X290888Y475842D01*
X290839Y475929D01*
X290787Y476013D01*
X290732Y476096D01*
X287009Y481413D01*
X286950Y481493D01*
X286888Y481571D01*
X286824Y481647D01*
X286756Y481720D01*
X286686Y481791D01*
X286613Y481858D01*
X286538Y481923D01*
X286460Y481985D01*
X286380Y482044D01*
X286298Y482100D01*
X286213Y482153D01*
X286127Y482202D01*
X286039Y482248D01*
X285949Y482291D01*
X285858Y482330D01*
X285765Y482365D01*
X285671Y482397D01*
X285575Y482426D01*
X285479Y482450D01*
X285382Y482471D01*
X285284Y482489D01*
X285185Y482502D01*
X285086Y482512D01*
X284987Y482518D01*
X284888Y482520D01*
X284788Y482518D01*
X284689Y482513D01*
X284590Y482504D01*
X284491Y482490D01*
X284393Y482474D01*
X284296Y482453D01*
X284199Y482429D01*
X284104Y482401D01*
X284010Y482369D01*
X283917Y482334D01*
X283825Y482295D01*
X283735Y482253D01*
X283647Y482207D01*
X283560Y482158D01*
X283476Y482106D01*
X283393Y482051D01*
X280203Y479817D01*
X275533Y476547D02*
X282234Y466976D01*
X276917Y463253D02*
X275533Y476547D01*
X270216Y472824D02*
X276917Y463253D01*
X272247Y459983D02*
X265546Y469554D01*
X262887Y467692D01*
X262887Y467693D02*
X262796Y467626D01*
X262706Y467557D01*
X262619Y467484D01*
X262535Y467408D01*
X262454Y467329D01*
X262375Y467248D01*
X262299Y467164D01*
X262226Y467077D01*
X262157Y466988D01*
X262090Y466896D01*
X262027Y466802D01*
X261967Y466706D01*
X261910Y466608D01*
X261857Y466508D01*
X261807Y466406D01*
X261761Y466302D01*
X261719Y466197D01*
X261680Y466091D01*
X261645Y465983D01*
X261614Y465874D01*
X261586Y465764D01*
X261563Y465653D01*
X261543Y465542D01*
X261527Y465430D01*
X261515Y465317D01*
X261507Y465204D01*
X261503Y465091D01*
X261503Y464977D01*
X261507Y464864D01*
X261515Y464751D01*
X261527Y464638D01*
X261543Y464526D01*
X261563Y464415D01*
X261586Y464304D01*
X261614Y464194D01*
X261645Y464085D01*
X261680Y463977D01*
X261719Y463871D01*
X261761Y463766D01*
X261807Y463662D01*
X261857Y463560D01*
X261910Y463460D01*
X261967Y463362D01*
X262027Y463266D01*
X262090Y463172D01*
X265069Y458918D01*
X265068Y458918D02*
X265135Y458827D01*
X265204Y458737D01*
X265277Y458650D01*
X265353Y458566D01*
X265432Y458485D01*
X265513Y458406D01*
X265597Y458330D01*
X265684Y458257D01*
X265774Y458188D01*
X265865Y458121D01*
X265959Y458058D01*
X266055Y457998D01*
X266153Y457941D01*
X266253Y457888D01*
X266355Y457838D01*
X266459Y457792D01*
X266564Y457750D01*
X266670Y457711D01*
X266778Y457676D01*
X266887Y457645D01*
X266997Y457617D01*
X267108Y457594D01*
X267219Y457574D01*
X267331Y457558D01*
X267444Y457546D01*
X267557Y457538D01*
X267670Y457534D01*
X267784Y457534D01*
X267897Y457538D01*
X268010Y457546D01*
X268123Y457558D01*
X268235Y457574D01*
X268346Y457594D01*
X268457Y457617D01*
X268567Y457645D01*
X268676Y457676D01*
X268784Y457711D01*
X268890Y457750D01*
X268995Y457792D01*
X269099Y457838D01*
X269201Y457888D01*
X269301Y457941D01*
X269399Y457998D01*
X269495Y458058D01*
X269589Y458121D01*
X272247Y459983D01*
X423626Y465300D02*
X425221Y464183D01*
X423626Y465300D02*
X419903Y459983D01*
X423093Y457749D01*
X423176Y457694D01*
X423260Y457642D01*
X423347Y457593D01*
X423435Y457547D01*
X423525Y457505D01*
X423617Y457466D01*
X423710Y457431D01*
X423804Y457399D01*
X423899Y457371D01*
X423996Y457347D01*
X424093Y457326D01*
X424191Y457310D01*
X424290Y457296D01*
X424389Y457287D01*
X424488Y457282D01*
X424588Y457280D01*
X424687Y457282D01*
X424786Y457288D01*
X424885Y457298D01*
X424984Y457311D01*
X425082Y457329D01*
X425179Y457350D01*
X425275Y457374D01*
X425371Y457403D01*
X425465Y457435D01*
X425558Y457470D01*
X425649Y457509D01*
X425739Y457552D01*
X425827Y457598D01*
X425913Y457647D01*
X425998Y457700D01*
X426080Y457756D01*
X426160Y457815D01*
X426238Y457877D01*
X426313Y457942D01*
X426386Y458009D01*
X426456Y458080D01*
X426524Y458153D01*
X426588Y458229D01*
X426650Y458307D01*
X426709Y458387D01*
X430432Y463704D01*
X430487Y463787D01*
X430539Y463871D01*
X430588Y463958D01*
X430634Y464046D01*
X430676Y464136D01*
X430715Y464228D01*
X430750Y464321D01*
X430782Y464415D01*
X430810Y464510D01*
X430834Y464607D01*
X430855Y464704D01*
X430871Y464802D01*
X430885Y464901D01*
X430894Y465000D01*
X430899Y465099D01*
X430901Y465199D01*
X430899Y465298D01*
X430893Y465397D01*
X430883Y465496D01*
X430870Y465595D01*
X430852Y465693D01*
X430831Y465790D01*
X430807Y465886D01*
X430778Y465982D01*
X430746Y466076D01*
X430711Y466169D01*
X430672Y466260D01*
X430629Y466350D01*
X430583Y466438D01*
X430534Y466524D01*
X430481Y466609D01*
X430425Y466691D01*
X430366Y466771D01*
X430304Y466849D01*
X430239Y466924D01*
X430172Y466997D01*
X430101Y467067D01*
X430028Y467135D01*
X429952Y467199D01*
X429874Y467261D01*
X429794Y467320D01*
X429795Y467320D02*
X426604Y469554D01*
X421935Y472824D02*
X415233Y463253D01*
X409916Y466976D02*
X421935Y472824D01*
X416617Y476547D02*
X409916Y466976D01*
X405246Y470246D02*
X411947Y479817D01*
X409289Y481678D01*
X409289Y481679D02*
X409195Y481742D01*
X409099Y481802D01*
X409001Y481859D01*
X408901Y481912D01*
X408799Y481962D01*
X408695Y482008D01*
X408590Y482050D01*
X408484Y482089D01*
X408376Y482124D01*
X408267Y482155D01*
X408157Y482183D01*
X408046Y482206D01*
X407935Y482226D01*
X407823Y482242D01*
X407710Y482254D01*
X407597Y482262D01*
X407484Y482266D01*
X407370Y482266D01*
X407257Y482262D01*
X407144Y482254D01*
X407031Y482242D01*
X406919Y482226D01*
X406808Y482206D01*
X406697Y482183D01*
X406587Y482155D01*
X406478Y482124D01*
X406370Y482089D01*
X406264Y482050D01*
X406159Y482008D01*
X406055Y481962D01*
X405953Y481912D01*
X405853Y481859D01*
X405755Y481802D01*
X405659Y481742D01*
X405565Y481679D01*
X405474Y481612D01*
X405384Y481543D01*
X405297Y481470D01*
X405213Y481394D01*
X405132Y481315D01*
X405053Y481234D01*
X404977Y481150D01*
X404904Y481063D01*
X404835Y480974D01*
X404768Y480882D01*
X404769Y480881D02*
X401790Y476628D01*
X401727Y476534D01*
X401667Y476438D01*
X401610Y476340D01*
X401557Y476240D01*
X401507Y476138D01*
X401461Y476034D01*
X401419Y475929D01*
X401380Y475823D01*
X401345Y475715D01*
X401314Y475606D01*
X401286Y475496D01*
X401263Y475385D01*
X401243Y475274D01*
X401227Y475162D01*
X401215Y475049D01*
X401207Y474936D01*
X401203Y474823D01*
X401203Y474709D01*
X401207Y474596D01*
X401215Y474483D01*
X401227Y474370D01*
X401243Y474258D01*
X401263Y474147D01*
X401286Y474036D01*
X401314Y473926D01*
X401345Y473817D01*
X401380Y473709D01*
X401419Y473603D01*
X401461Y473498D01*
X401507Y473394D01*
X401557Y473292D01*
X401610Y473192D01*
X401667Y473094D01*
X401727Y472998D01*
X401790Y472904D01*
X401857Y472812D01*
X401926Y472723D01*
X401999Y472636D01*
X402075Y472552D01*
X402154Y472471D01*
X402235Y472392D01*
X402319Y472316D01*
X402406Y472243D01*
X402496Y472174D01*
X402587Y472107D01*
X405246Y470246D01*
D12*
X367919Y298704D02*
X367919Y291917D01*
X367917Y291816D01*
X367911Y291715D01*
X367901Y291614D01*
X367888Y291514D01*
X367870Y291414D01*
X367849Y291315D01*
X367823Y291217D01*
X367794Y291120D01*
X367762Y291024D01*
X367725Y290930D01*
X367685Y290837D01*
X367641Y290745D01*
X367594Y290656D01*
X367543Y290568D01*
X367489Y290482D01*
X367432Y290399D01*
X367372Y290317D01*
X367308Y290239D01*
X367242Y290162D01*
X367172Y290089D01*
X367100Y290018D01*
X367025Y289950D01*
X366947Y289885D01*
X366867Y289823D01*
X366785Y289764D01*
X366700Y289708D01*
X366613Y289656D01*
X366525Y289607D01*
X366434Y289561D01*
X366342Y289520D01*
X366248Y289481D01*
X366153Y289447D01*
X366057Y289416D01*
X365959Y289389D01*
X365861Y289365D01*
X365761Y289346D01*
X365661Y289330D01*
X365561Y289318D01*
X365460Y289310D01*
X365359Y289306D01*
X365257Y289306D01*
X365156Y289310D01*
X365055Y289318D01*
X364955Y289330D01*
X364855Y289346D01*
X364755Y289365D01*
X364657Y289389D01*
X364559Y289416D01*
X364463Y289447D01*
X364368Y289481D01*
X364274Y289520D01*
X364182Y289561D01*
X364091Y289607D01*
X364003Y289656D01*
X363916Y289708D01*
X363831Y289764D01*
X363749Y289823D01*
X363669Y289885D01*
X363591Y289950D01*
X363516Y290018D01*
X363444Y290089D01*
X363374Y290162D01*
X363308Y290239D01*
X363244Y290317D01*
X363184Y290399D01*
X363127Y290482D01*
X363073Y290568D01*
X363022Y290656D01*
X362975Y290745D01*
X362931Y290837D01*
X362891Y290930D01*
X362854Y291024D01*
X362822Y291120D01*
X362793Y291217D01*
X362767Y291315D01*
X362746Y291414D01*
X362728Y291514D01*
X362715Y291614D01*
X362705Y291715D01*
X362699Y291816D01*
X362697Y291917D01*
X362698Y291917D02*
X362698Y298704D01*
X358470Y296616D02*
X355860Y298704D01*
X355860Y289306D01*
X358470Y289306D02*
X353249Y289306D01*
X440895Y355664D02*
X442983Y355664D01*
X443072Y355666D01*
X443160Y355672D01*
X443248Y355681D01*
X443336Y355694D01*
X443423Y355711D01*
X443509Y355731D01*
X443594Y355756D01*
X443679Y355783D01*
X443762Y355815D01*
X443843Y355849D01*
X443923Y355888D01*
X444001Y355929D01*
X444078Y355974D01*
X444152Y356022D01*
X444225Y356073D01*
X444295Y356127D01*
X444362Y356185D01*
X444428Y356245D01*
X444490Y356307D01*
X444550Y356373D01*
X444608Y356440D01*
X444662Y356510D01*
X444713Y356583D01*
X444761Y356657D01*
X444806Y356734D01*
X444847Y356812D01*
X444886Y356892D01*
X444920Y356973D01*
X444952Y357056D01*
X444979Y357141D01*
X445004Y357226D01*
X445024Y357312D01*
X445041Y357399D01*
X445054Y357487D01*
X445063Y357575D01*
X445069Y357663D01*
X445071Y357752D01*
X445072Y357752D02*
X445072Y362973D01*
X445071Y362973D02*
X445069Y363062D01*
X445063Y363150D01*
X445054Y363238D01*
X445041Y363326D01*
X445024Y363413D01*
X445004Y363499D01*
X444979Y363584D01*
X444952Y363669D01*
X444920Y363752D01*
X444886Y363833D01*
X444847Y363913D01*
X444806Y363991D01*
X444761Y364068D01*
X444713Y364142D01*
X444662Y364215D01*
X444608Y364285D01*
X444550Y364352D01*
X444490Y364418D01*
X444428Y364480D01*
X444362Y364540D01*
X444295Y364598D01*
X444225Y364652D01*
X444152Y364703D01*
X444078Y364751D01*
X444001Y364796D01*
X443923Y364837D01*
X443843Y364876D01*
X443762Y364910D01*
X443679Y364942D01*
X443594Y364969D01*
X443509Y364994D01*
X443423Y365014D01*
X443336Y365031D01*
X443248Y365044D01*
X443160Y365053D01*
X443072Y365059D01*
X442983Y365061D01*
X442983Y365062D02*
X440895Y365062D01*
X437426Y362973D02*
X434815Y365062D01*
X434815Y355664D01*
X432205Y355664D02*
X437426Y355664D01*
D11*
X392595Y380568D02*
X392595Y400698D01*
D12*
X383904Y387731D02*
X381816Y387731D01*
X383904Y387731D02*
X383993Y387733D01*
X384081Y387739D01*
X384169Y387748D01*
X384257Y387761D01*
X384344Y387778D01*
X384430Y387798D01*
X384515Y387823D01*
X384600Y387850D01*
X384683Y387882D01*
X384764Y387916D01*
X384844Y387955D01*
X384922Y387996D01*
X384999Y388041D01*
X385073Y388089D01*
X385146Y388140D01*
X385216Y388194D01*
X385283Y388252D01*
X385349Y388312D01*
X385411Y388374D01*
X385471Y388440D01*
X385529Y388507D01*
X385583Y388577D01*
X385634Y388650D01*
X385682Y388724D01*
X385727Y388801D01*
X385768Y388879D01*
X385807Y388959D01*
X385841Y389040D01*
X385873Y389123D01*
X385900Y389208D01*
X385925Y389293D01*
X385945Y389379D01*
X385962Y389466D01*
X385975Y389554D01*
X385984Y389642D01*
X385990Y389730D01*
X385992Y389819D01*
X385993Y389819D02*
X385993Y395041D01*
X385992Y395041D02*
X385990Y395130D01*
X385984Y395218D01*
X385975Y395306D01*
X385962Y395394D01*
X385945Y395481D01*
X385925Y395567D01*
X385900Y395652D01*
X385873Y395737D01*
X385841Y395820D01*
X385807Y395901D01*
X385768Y395981D01*
X385727Y396059D01*
X385682Y396136D01*
X385634Y396210D01*
X385583Y396283D01*
X385529Y396353D01*
X385471Y396420D01*
X385411Y396486D01*
X385349Y396548D01*
X385283Y396608D01*
X385216Y396666D01*
X385146Y396720D01*
X385073Y396771D01*
X384999Y396819D01*
X384922Y396864D01*
X384844Y396905D01*
X384764Y396944D01*
X384683Y396978D01*
X384600Y397010D01*
X384515Y397037D01*
X384430Y397062D01*
X384344Y397082D01*
X384257Y397099D01*
X384169Y397112D01*
X384081Y397121D01*
X383993Y397127D01*
X383904Y397129D01*
X381816Y397129D01*
X378347Y387731D02*
X375737Y387731D01*
X375636Y387733D01*
X375535Y387739D01*
X375434Y387749D01*
X375334Y387762D01*
X375234Y387780D01*
X375135Y387801D01*
X375037Y387827D01*
X374940Y387856D01*
X374844Y387888D01*
X374750Y387925D01*
X374657Y387965D01*
X374565Y388009D01*
X374476Y388056D01*
X374388Y388107D01*
X374302Y388161D01*
X374219Y388218D01*
X374137Y388278D01*
X374059Y388342D01*
X373982Y388408D01*
X373909Y388478D01*
X373838Y388550D01*
X373770Y388625D01*
X373705Y388703D01*
X373643Y388783D01*
X373584Y388865D01*
X373528Y388950D01*
X373476Y389037D01*
X373427Y389125D01*
X373381Y389216D01*
X373340Y389308D01*
X373301Y389402D01*
X373267Y389497D01*
X373236Y389593D01*
X373209Y389691D01*
X373185Y389789D01*
X373166Y389889D01*
X373150Y389989D01*
X373138Y390089D01*
X373130Y390190D01*
X373126Y390291D01*
X373126Y390393D01*
X373130Y390494D01*
X373138Y390595D01*
X373150Y390695D01*
X373166Y390795D01*
X373185Y390895D01*
X373209Y390993D01*
X373236Y391091D01*
X373267Y391187D01*
X373301Y391282D01*
X373340Y391376D01*
X373381Y391468D01*
X373427Y391559D01*
X373476Y391648D01*
X373528Y391734D01*
X373584Y391819D01*
X373643Y391901D01*
X373705Y391981D01*
X373770Y392059D01*
X373838Y392134D01*
X373909Y392206D01*
X373982Y392276D01*
X374059Y392342D01*
X374137Y392406D01*
X374219Y392466D01*
X374302Y392523D01*
X374388Y392577D01*
X374476Y392628D01*
X374565Y392675D01*
X374657Y392719D01*
X374750Y392759D01*
X374844Y392796D01*
X374940Y392828D01*
X375037Y392857D01*
X375135Y392883D01*
X375234Y392904D01*
X375334Y392922D01*
X375434Y392935D01*
X375535Y392945D01*
X375636Y392951D01*
X375737Y392953D01*
X375214Y397129D02*
X378347Y397129D01*
X375214Y397129D02*
X375124Y397127D01*
X375035Y397121D01*
X374945Y397112D01*
X374856Y397098D01*
X374768Y397081D01*
X374681Y397060D01*
X374594Y397035D01*
X374509Y397006D01*
X374425Y396974D01*
X374343Y396939D01*
X374262Y396899D01*
X374183Y396857D01*
X374106Y396811D01*
X374031Y396761D01*
X373958Y396709D01*
X373887Y396653D01*
X373819Y396595D01*
X373754Y396533D01*
X373691Y396469D01*
X373631Y396402D01*
X373574Y396333D01*
X373520Y396261D01*
X373469Y396187D01*
X373421Y396111D01*
X373377Y396033D01*
X373336Y395953D01*
X373298Y395871D01*
X373264Y395788D01*
X373234Y395703D01*
X373207Y395617D01*
X373184Y395531D01*
X373165Y395443D01*
X373150Y395354D01*
X373138Y395265D01*
X373130Y395176D01*
X373126Y395086D01*
X373126Y394996D01*
X373130Y394906D01*
X373138Y394817D01*
X373150Y394728D01*
X373165Y394639D01*
X373184Y394551D01*
X373207Y394465D01*
X373234Y394379D01*
X373264Y394294D01*
X373298Y394211D01*
X373336Y394129D01*
X373377Y394049D01*
X373421Y393971D01*
X373469Y393895D01*
X373520Y393821D01*
X373574Y393749D01*
X373631Y393680D01*
X373691Y393613D01*
X373754Y393549D01*
X373819Y393487D01*
X373887Y393429D01*
X373958Y393373D01*
X374031Y393321D01*
X374106Y393271D01*
X374183Y393225D01*
X374262Y393183D01*
X374343Y393143D01*
X374425Y393108D01*
X374509Y393076D01*
X374594Y393047D01*
X374681Y393022D01*
X374768Y393001D01*
X374856Y392984D01*
X374945Y392970D01*
X375035Y392961D01*
X375124Y392955D01*
X375214Y392953D01*
X375214Y392952D02*
X377303Y392952D01*
X290132Y293942D02*
X290132Y284544D01*
X290132Y293942D02*
X287521Y293942D01*
X287420Y293940D01*
X287319Y293934D01*
X287218Y293924D01*
X287118Y293911D01*
X287018Y293893D01*
X286919Y293872D01*
X286821Y293846D01*
X286724Y293817D01*
X286628Y293785D01*
X286534Y293748D01*
X286441Y293708D01*
X286349Y293664D01*
X286260Y293617D01*
X286172Y293566D01*
X286086Y293512D01*
X286003Y293455D01*
X285921Y293395D01*
X285843Y293331D01*
X285766Y293265D01*
X285693Y293195D01*
X285622Y293123D01*
X285554Y293048D01*
X285489Y292970D01*
X285427Y292890D01*
X285368Y292808D01*
X285312Y292723D01*
X285260Y292637D01*
X285211Y292548D01*
X285165Y292457D01*
X285124Y292365D01*
X285085Y292271D01*
X285051Y292176D01*
X285020Y292080D01*
X284993Y291982D01*
X284969Y291884D01*
X284950Y291784D01*
X284934Y291684D01*
X284922Y291584D01*
X284914Y291483D01*
X284910Y291382D01*
X284910Y291280D01*
X284914Y291179D01*
X284922Y291078D01*
X284934Y290978D01*
X284950Y290878D01*
X284969Y290778D01*
X284993Y290680D01*
X285020Y290582D01*
X285051Y290486D01*
X285085Y290391D01*
X285124Y290297D01*
X285165Y290205D01*
X285211Y290114D01*
X285260Y290026D01*
X285312Y289939D01*
X285368Y289854D01*
X285427Y289772D01*
X285489Y289692D01*
X285554Y289614D01*
X285622Y289539D01*
X285693Y289467D01*
X285766Y289397D01*
X285843Y289331D01*
X285921Y289267D01*
X286003Y289207D01*
X286086Y289150D01*
X286172Y289096D01*
X286260Y289045D01*
X286349Y288998D01*
X286441Y288954D01*
X286534Y288914D01*
X286628Y288877D01*
X286724Y288845D01*
X286821Y288816D01*
X286919Y288790D01*
X287018Y288769D01*
X287118Y288751D01*
X287218Y288738D01*
X287319Y288728D01*
X287420Y288722D01*
X287521Y288720D01*
X290132Y288720D01*
X286999Y288720D02*
X284910Y284544D01*
X281045Y291853D02*
X278434Y293942D01*
X278434Y284544D01*
X275824Y284544D02*
X281045Y284544D01*
D13*
X401003Y317183D02*
X401003Y352743D01*
X401003Y317183D02*
X421323Y317183D01*
X421323Y352743D01*
X401003Y352743D01*
D12*
X424879Y326044D02*
X434277Y332310D01*
X434277Y326044D02*
X424879Y332310D01*
X432188Y335710D02*
X434277Y338321D01*
X424879Y338321D01*
X424879Y335710D02*
X424879Y340932D01*
X470422Y359156D02*
X472511Y359156D01*
X472600Y359158D01*
X472688Y359164D01*
X472776Y359173D01*
X472864Y359186D01*
X472951Y359203D01*
X473037Y359223D01*
X473122Y359248D01*
X473207Y359275D01*
X473290Y359307D01*
X473371Y359341D01*
X473451Y359380D01*
X473529Y359421D01*
X473606Y359466D01*
X473680Y359514D01*
X473753Y359565D01*
X473823Y359619D01*
X473890Y359677D01*
X473956Y359737D01*
X474018Y359799D01*
X474078Y359865D01*
X474136Y359932D01*
X474190Y360002D01*
X474241Y360075D01*
X474289Y360149D01*
X474334Y360226D01*
X474375Y360304D01*
X474414Y360384D01*
X474448Y360465D01*
X474480Y360548D01*
X474507Y360633D01*
X474532Y360718D01*
X474552Y360804D01*
X474569Y360891D01*
X474582Y360979D01*
X474591Y361067D01*
X474597Y361155D01*
X474599Y361244D01*
X474599Y366466D01*
X474597Y366555D01*
X474591Y366643D01*
X474582Y366731D01*
X474569Y366819D01*
X474552Y366906D01*
X474532Y366992D01*
X474507Y367077D01*
X474480Y367162D01*
X474448Y367245D01*
X474414Y367326D01*
X474375Y367406D01*
X474334Y367484D01*
X474289Y367561D01*
X474241Y367635D01*
X474190Y367708D01*
X474136Y367778D01*
X474078Y367845D01*
X474018Y367911D01*
X473956Y367973D01*
X473890Y368033D01*
X473823Y368091D01*
X473753Y368145D01*
X473680Y368196D01*
X473606Y368244D01*
X473529Y368289D01*
X473451Y368330D01*
X473371Y368369D01*
X473290Y368403D01*
X473207Y368435D01*
X473122Y368462D01*
X473037Y368487D01*
X472951Y368507D01*
X472864Y368524D01*
X472776Y368537D01*
X472688Y368546D01*
X472600Y368552D01*
X472511Y368554D01*
X470422Y368554D01*
X464865Y368554D02*
X466953Y361244D01*
X461732Y361244D01*
X463299Y359156D02*
X463299Y363333D01*
X287401Y365689D02*
X287401Y367778D01*
X287401Y365689D02*
X287403Y365600D01*
X287409Y365512D01*
X287418Y365424D01*
X287431Y365336D01*
X287448Y365249D01*
X287468Y365163D01*
X287493Y365078D01*
X287520Y364993D01*
X287552Y364910D01*
X287586Y364829D01*
X287625Y364749D01*
X287666Y364671D01*
X287711Y364594D01*
X287759Y364520D01*
X287810Y364447D01*
X287864Y364377D01*
X287922Y364310D01*
X287982Y364244D01*
X288044Y364182D01*
X288110Y364122D01*
X288177Y364064D01*
X288247Y364010D01*
X288320Y363959D01*
X288394Y363911D01*
X288471Y363866D01*
X288549Y363825D01*
X288629Y363786D01*
X288710Y363752D01*
X288793Y363720D01*
X288878Y363693D01*
X288963Y363668D01*
X289049Y363648D01*
X289136Y363631D01*
X289224Y363618D01*
X289312Y363609D01*
X289400Y363603D01*
X289489Y363601D01*
X294711Y363601D01*
X294802Y363603D01*
X294893Y363609D01*
X294984Y363619D01*
X295074Y363633D01*
X295163Y363650D01*
X295251Y363672D01*
X295339Y363698D01*
X295425Y363727D01*
X295510Y363760D01*
X295593Y363797D01*
X295675Y363837D01*
X295755Y363881D01*
X295833Y363928D01*
X295909Y363979D01*
X295982Y364032D01*
X296053Y364089D01*
X296122Y364150D01*
X296187Y364213D01*
X296250Y364278D01*
X296310Y364347D01*
X296368Y364418D01*
X296421Y364491D01*
X296472Y364567D01*
X296519Y364645D01*
X296563Y364725D01*
X296603Y364807D01*
X296640Y364890D01*
X296673Y364975D01*
X296702Y365061D01*
X296728Y365149D01*
X296750Y365237D01*
X296767Y365326D01*
X296781Y365416D01*
X296791Y365507D01*
X296797Y365598D01*
X296799Y365689D01*
X296799Y367778D01*
X287401Y371247D02*
X287401Y374379D01*
X287403Y374468D01*
X287409Y374556D01*
X287418Y374644D01*
X287431Y374732D01*
X287448Y374819D01*
X287468Y374905D01*
X287493Y374990D01*
X287520Y375075D01*
X287552Y375158D01*
X287586Y375239D01*
X287625Y375319D01*
X287666Y375397D01*
X287711Y375474D01*
X287759Y375548D01*
X287810Y375621D01*
X287864Y375691D01*
X287922Y375758D01*
X287982Y375824D01*
X288044Y375886D01*
X288110Y375946D01*
X288177Y376004D01*
X288247Y376058D01*
X288320Y376109D01*
X288394Y376157D01*
X288471Y376202D01*
X288549Y376243D01*
X288629Y376282D01*
X288710Y376316D01*
X288793Y376348D01*
X288878Y376375D01*
X288963Y376400D01*
X289049Y376420D01*
X289136Y376437D01*
X289224Y376450D01*
X289312Y376459D01*
X289400Y376465D01*
X289489Y376467D01*
X289489Y376468D02*
X290534Y376468D01*
X290534Y376467D02*
X290623Y376465D01*
X290711Y376459D01*
X290799Y376450D01*
X290887Y376437D01*
X290974Y376420D01*
X291060Y376400D01*
X291145Y376375D01*
X291230Y376348D01*
X291313Y376316D01*
X291394Y376282D01*
X291474Y376243D01*
X291552Y376202D01*
X291629Y376157D01*
X291703Y376109D01*
X291776Y376058D01*
X291846Y376004D01*
X291913Y375946D01*
X291979Y375886D01*
X292041Y375824D01*
X292101Y375758D01*
X292159Y375691D01*
X292213Y375621D01*
X292264Y375548D01*
X292312Y375474D01*
X292357Y375397D01*
X292398Y375319D01*
X292437Y375239D01*
X292471Y375158D01*
X292503Y375075D01*
X292530Y374990D01*
X292555Y374905D01*
X292575Y374819D01*
X292592Y374732D01*
X292605Y374644D01*
X292614Y374556D01*
X292620Y374468D01*
X292622Y374379D01*
X292622Y371247D01*
X296799Y371247D01*
X296799Y376468D01*
X439942Y371856D02*
X442031Y371856D01*
X442120Y371858D01*
X442208Y371864D01*
X442296Y371873D01*
X442384Y371886D01*
X442471Y371903D01*
X442557Y371923D01*
X442642Y371948D01*
X442727Y371975D01*
X442810Y372007D01*
X442891Y372041D01*
X442971Y372080D01*
X443049Y372121D01*
X443126Y372166D01*
X443200Y372214D01*
X443273Y372265D01*
X443343Y372319D01*
X443410Y372377D01*
X443476Y372437D01*
X443538Y372499D01*
X443598Y372565D01*
X443656Y372632D01*
X443710Y372702D01*
X443761Y372775D01*
X443809Y372849D01*
X443854Y372926D01*
X443895Y373004D01*
X443934Y373084D01*
X443968Y373165D01*
X444000Y373248D01*
X444027Y373333D01*
X444052Y373418D01*
X444072Y373504D01*
X444089Y373591D01*
X444102Y373679D01*
X444111Y373767D01*
X444117Y373855D01*
X444119Y373944D01*
X444119Y379166D01*
X444117Y379255D01*
X444111Y379343D01*
X444102Y379431D01*
X444089Y379519D01*
X444072Y379606D01*
X444052Y379692D01*
X444027Y379777D01*
X444000Y379862D01*
X443968Y379945D01*
X443934Y380026D01*
X443895Y380106D01*
X443854Y380184D01*
X443809Y380261D01*
X443761Y380335D01*
X443710Y380408D01*
X443656Y380478D01*
X443598Y380545D01*
X443538Y380611D01*
X443476Y380673D01*
X443410Y380733D01*
X443343Y380791D01*
X443273Y380845D01*
X443200Y380896D01*
X443126Y380944D01*
X443049Y380989D01*
X442971Y381030D01*
X442891Y381069D01*
X442810Y381103D01*
X442727Y381135D01*
X442642Y381162D01*
X442557Y381187D01*
X442471Y381207D01*
X442384Y381224D01*
X442296Y381237D01*
X442208Y381246D01*
X442120Y381252D01*
X442031Y381254D01*
X439942Y381254D01*
X436473Y381254D02*
X436473Y380210D01*
X436473Y381254D02*
X431252Y381254D01*
X433863Y371856D01*
D11*
X392595Y404381D02*
X392595Y424510D01*
D12*
X384222Y407734D02*
X382133Y407734D01*
X384222Y407734D02*
X384311Y407736D01*
X384399Y407742D01*
X384487Y407751D01*
X384575Y407764D01*
X384662Y407781D01*
X384748Y407801D01*
X384833Y407826D01*
X384918Y407853D01*
X385001Y407885D01*
X385082Y407919D01*
X385162Y407958D01*
X385240Y407999D01*
X385317Y408044D01*
X385391Y408092D01*
X385464Y408143D01*
X385534Y408197D01*
X385601Y408255D01*
X385667Y408315D01*
X385729Y408377D01*
X385789Y408443D01*
X385847Y408510D01*
X385901Y408580D01*
X385952Y408653D01*
X386000Y408727D01*
X386045Y408804D01*
X386086Y408882D01*
X386125Y408962D01*
X386159Y409043D01*
X386191Y409126D01*
X386218Y409211D01*
X386243Y409296D01*
X386263Y409382D01*
X386280Y409469D01*
X386293Y409557D01*
X386302Y409645D01*
X386308Y409733D01*
X386310Y409822D01*
X386310Y415043D01*
X386308Y415132D01*
X386302Y415220D01*
X386293Y415308D01*
X386280Y415396D01*
X386263Y415483D01*
X386243Y415569D01*
X386218Y415654D01*
X386191Y415739D01*
X386159Y415822D01*
X386125Y415903D01*
X386086Y415983D01*
X386045Y416061D01*
X386000Y416138D01*
X385952Y416212D01*
X385901Y416285D01*
X385847Y416355D01*
X385789Y416422D01*
X385729Y416488D01*
X385667Y416550D01*
X385601Y416610D01*
X385534Y416668D01*
X385464Y416722D01*
X385391Y416773D01*
X385317Y416821D01*
X385240Y416866D01*
X385162Y416907D01*
X385082Y416946D01*
X385001Y416980D01*
X384918Y417012D01*
X384833Y417039D01*
X384748Y417064D01*
X384662Y417084D01*
X384575Y417101D01*
X384487Y417114D01*
X384399Y417123D01*
X384311Y417129D01*
X384222Y417131D01*
X384222Y417132D02*
X382133Y417132D01*
X378665Y410344D02*
X378663Y410445D01*
X378657Y410546D01*
X378647Y410647D01*
X378634Y410747D01*
X378616Y410847D01*
X378595Y410946D01*
X378569Y411044D01*
X378540Y411141D01*
X378508Y411237D01*
X378471Y411331D01*
X378431Y411424D01*
X378387Y411516D01*
X378340Y411605D01*
X378289Y411693D01*
X378235Y411779D01*
X378178Y411862D01*
X378118Y411944D01*
X378054Y412022D01*
X377988Y412099D01*
X377918Y412172D01*
X377846Y412243D01*
X377771Y412311D01*
X377693Y412376D01*
X377613Y412438D01*
X377531Y412497D01*
X377446Y412553D01*
X377360Y412605D01*
X377271Y412654D01*
X377180Y412700D01*
X377088Y412741D01*
X376994Y412780D01*
X376899Y412814D01*
X376803Y412845D01*
X376705Y412872D01*
X376607Y412896D01*
X376507Y412915D01*
X376407Y412931D01*
X376307Y412943D01*
X376206Y412951D01*
X376105Y412955D01*
X376003Y412955D01*
X375902Y412951D01*
X375801Y412943D01*
X375701Y412931D01*
X375601Y412915D01*
X375501Y412896D01*
X375403Y412872D01*
X375305Y412845D01*
X375209Y412814D01*
X375114Y412780D01*
X375020Y412741D01*
X374928Y412700D01*
X374837Y412654D01*
X374749Y412605D01*
X374662Y412553D01*
X374577Y412497D01*
X374495Y412438D01*
X374415Y412376D01*
X374337Y412311D01*
X374262Y412243D01*
X374190Y412172D01*
X374120Y412099D01*
X374054Y412022D01*
X373990Y411944D01*
X373930Y411862D01*
X373873Y411779D01*
X373819Y411693D01*
X373768Y411605D01*
X373721Y411516D01*
X373677Y411424D01*
X373637Y411331D01*
X373600Y411237D01*
X373568Y411141D01*
X373539Y411044D01*
X373513Y410946D01*
X373492Y410847D01*
X373474Y410747D01*
X373461Y410647D01*
X373451Y410546D01*
X373445Y410445D01*
X373443Y410344D01*
X373445Y410243D01*
X373451Y410142D01*
X373461Y410041D01*
X373474Y409941D01*
X373492Y409841D01*
X373513Y409742D01*
X373539Y409644D01*
X373568Y409547D01*
X373600Y409451D01*
X373637Y409357D01*
X373677Y409264D01*
X373721Y409172D01*
X373768Y409083D01*
X373819Y408995D01*
X373873Y408909D01*
X373930Y408826D01*
X373990Y408744D01*
X374054Y408666D01*
X374120Y408589D01*
X374190Y408516D01*
X374262Y408445D01*
X374337Y408377D01*
X374415Y408312D01*
X374495Y408250D01*
X374577Y408191D01*
X374662Y408135D01*
X374749Y408083D01*
X374837Y408034D01*
X374928Y407988D01*
X375020Y407947D01*
X375114Y407908D01*
X375209Y407874D01*
X375305Y407843D01*
X375403Y407816D01*
X375501Y407792D01*
X375601Y407773D01*
X375701Y407757D01*
X375801Y407745D01*
X375902Y407737D01*
X376003Y407733D01*
X376105Y407733D01*
X376206Y407737D01*
X376307Y407745D01*
X376407Y407757D01*
X376507Y407773D01*
X376607Y407792D01*
X376705Y407816D01*
X376803Y407843D01*
X376899Y407874D01*
X376994Y407908D01*
X377088Y407947D01*
X377180Y407988D01*
X377271Y408034D01*
X377359Y408083D01*
X377446Y408135D01*
X377531Y408191D01*
X377613Y408250D01*
X377693Y408312D01*
X377771Y408377D01*
X377846Y408445D01*
X377918Y408516D01*
X377988Y408589D01*
X378054Y408666D01*
X378118Y408744D01*
X378178Y408826D01*
X378235Y408909D01*
X378289Y408995D01*
X378340Y409083D01*
X378387Y409172D01*
X378431Y409264D01*
X378471Y409357D01*
X378508Y409451D01*
X378540Y409547D01*
X378569Y409644D01*
X378595Y409742D01*
X378616Y409841D01*
X378634Y409941D01*
X378647Y410041D01*
X378657Y410142D01*
X378663Y410243D01*
X378665Y410344D01*
X378142Y415043D02*
X378140Y415133D01*
X378134Y415222D01*
X378125Y415312D01*
X378111Y415401D01*
X378094Y415489D01*
X378073Y415576D01*
X378048Y415663D01*
X378019Y415748D01*
X377987Y415832D01*
X377952Y415914D01*
X377912Y415995D01*
X377870Y416074D01*
X377824Y416151D01*
X377774Y416226D01*
X377722Y416299D01*
X377666Y416370D01*
X377608Y416438D01*
X377546Y416503D01*
X377482Y416566D01*
X377415Y416626D01*
X377346Y416683D01*
X377274Y416737D01*
X377200Y416788D01*
X377124Y416836D01*
X377046Y416880D01*
X376966Y416921D01*
X376884Y416959D01*
X376801Y416993D01*
X376716Y417023D01*
X376630Y417050D01*
X376544Y417073D01*
X376456Y417092D01*
X376367Y417107D01*
X376278Y417119D01*
X376189Y417127D01*
X376099Y417131D01*
X376009Y417131D01*
X375919Y417127D01*
X375830Y417119D01*
X375741Y417107D01*
X375652Y417092D01*
X375564Y417073D01*
X375478Y417050D01*
X375392Y417023D01*
X375307Y416993D01*
X375224Y416959D01*
X375142Y416921D01*
X375062Y416880D01*
X374984Y416836D01*
X374908Y416788D01*
X374834Y416737D01*
X374762Y416683D01*
X374693Y416626D01*
X374626Y416566D01*
X374562Y416503D01*
X374500Y416438D01*
X374442Y416370D01*
X374386Y416299D01*
X374334Y416226D01*
X374284Y416151D01*
X374238Y416074D01*
X374196Y415995D01*
X374156Y415914D01*
X374121Y415832D01*
X374089Y415748D01*
X374060Y415663D01*
X374035Y415576D01*
X374014Y415489D01*
X373997Y415401D01*
X373983Y415312D01*
X373974Y415222D01*
X373968Y415133D01*
X373966Y415043D01*
X373968Y414953D01*
X373974Y414864D01*
X373983Y414774D01*
X373997Y414685D01*
X374014Y414597D01*
X374035Y414510D01*
X374060Y414423D01*
X374089Y414338D01*
X374121Y414254D01*
X374156Y414172D01*
X374196Y414091D01*
X374238Y414012D01*
X374284Y413935D01*
X374334Y413860D01*
X374386Y413787D01*
X374442Y413716D01*
X374500Y413648D01*
X374562Y413583D01*
X374626Y413520D01*
X374693Y413460D01*
X374762Y413403D01*
X374834Y413349D01*
X374908Y413298D01*
X374984Y413250D01*
X375062Y413206D01*
X375142Y413165D01*
X375224Y413127D01*
X375307Y413093D01*
X375392Y413063D01*
X375478Y413036D01*
X375564Y413013D01*
X375652Y412994D01*
X375741Y412979D01*
X375830Y412967D01*
X375919Y412959D01*
X376009Y412955D01*
X376099Y412955D01*
X376189Y412959D01*
X376278Y412967D01*
X376367Y412979D01*
X376456Y412994D01*
X376544Y413013D01*
X376630Y413036D01*
X376716Y413063D01*
X376801Y413093D01*
X376884Y413127D01*
X376966Y413165D01*
X377046Y413206D01*
X377124Y413250D01*
X377200Y413298D01*
X377274Y413349D01*
X377346Y413403D01*
X377415Y413460D01*
X377482Y413520D01*
X377546Y413583D01*
X377608Y413648D01*
X377666Y413716D01*
X377722Y413787D01*
X377774Y413860D01*
X377824Y413935D01*
X377870Y414012D01*
X377912Y414091D01*
X377952Y414172D01*
X377987Y414254D01*
X378019Y414338D01*
X378048Y414423D01*
X378073Y414510D01*
X378094Y414597D01*
X378111Y414685D01*
X378125Y414774D01*
X378134Y414864D01*
X378140Y414953D01*
X378142Y415043D01*
X241237Y369169D02*
X231839Y369169D01*
X241237Y369169D02*
X241237Y371779D01*
X241235Y371880D01*
X241229Y371981D01*
X241219Y372082D01*
X241206Y372182D01*
X241188Y372282D01*
X241167Y372381D01*
X241141Y372479D01*
X241112Y372576D01*
X241080Y372672D01*
X241043Y372766D01*
X241003Y372859D01*
X240959Y372951D01*
X240912Y373040D01*
X240861Y373128D01*
X240807Y373214D01*
X240750Y373297D01*
X240690Y373379D01*
X240626Y373457D01*
X240560Y373534D01*
X240490Y373607D01*
X240418Y373678D01*
X240343Y373746D01*
X240265Y373811D01*
X240185Y373873D01*
X240103Y373932D01*
X240018Y373988D01*
X239932Y374040D01*
X239843Y374089D01*
X239752Y374135D01*
X239660Y374176D01*
X239566Y374215D01*
X239471Y374249D01*
X239375Y374280D01*
X239277Y374307D01*
X239179Y374331D01*
X239079Y374350D01*
X238979Y374366D01*
X238879Y374378D01*
X238778Y374386D01*
X238677Y374390D01*
X238575Y374390D01*
X238474Y374386D01*
X238373Y374378D01*
X238273Y374366D01*
X238173Y374350D01*
X238073Y374331D01*
X237975Y374307D01*
X237877Y374280D01*
X237781Y374249D01*
X237686Y374215D01*
X237592Y374176D01*
X237500Y374135D01*
X237409Y374089D01*
X237321Y374040D01*
X237234Y373988D01*
X237149Y373932D01*
X237067Y373873D01*
X236987Y373811D01*
X236909Y373746D01*
X236834Y373678D01*
X236762Y373607D01*
X236692Y373534D01*
X236626Y373457D01*
X236562Y373379D01*
X236502Y373297D01*
X236445Y373214D01*
X236391Y373128D01*
X236340Y373040D01*
X236293Y372951D01*
X236249Y372859D01*
X236209Y372766D01*
X236172Y372672D01*
X236140Y372576D01*
X236111Y372479D01*
X236085Y372381D01*
X236064Y372282D01*
X236046Y372182D01*
X236033Y372082D01*
X236023Y371981D01*
X236017Y371880D01*
X236015Y371779D01*
X236015Y369169D01*
X236015Y372301D02*
X231839Y374390D01*
X238887Y383477D02*
X238982Y383475D01*
X239076Y383469D01*
X239170Y383460D01*
X239264Y383447D01*
X239357Y383430D01*
X239449Y383409D01*
X239541Y383384D01*
X239631Y383356D01*
X239720Y383324D01*
X239808Y383289D01*
X239894Y383250D01*
X239979Y383208D01*
X240062Y383162D01*
X240143Y383113D01*
X240222Y383061D01*
X240299Y383006D01*
X240373Y382947D01*
X240445Y382886D01*
X240515Y382822D01*
X240582Y382755D01*
X240646Y382685D01*
X240707Y382613D01*
X240766Y382539D01*
X240821Y382462D01*
X240873Y382383D01*
X240922Y382302D01*
X240968Y382219D01*
X241010Y382134D01*
X241049Y382048D01*
X241084Y381960D01*
X241116Y381871D01*
X241144Y381781D01*
X241169Y381689D01*
X241190Y381597D01*
X241207Y381504D01*
X241220Y381410D01*
X241229Y381316D01*
X241235Y381222D01*
X241237Y381127D01*
X241236Y381127D02*
X241234Y381019D01*
X241228Y380910D01*
X241218Y380802D01*
X241205Y380695D01*
X241187Y380588D01*
X241166Y380481D01*
X241141Y380376D01*
X241112Y380271D01*
X241080Y380168D01*
X241043Y380066D01*
X241003Y379965D01*
X240960Y379866D01*
X240913Y379768D01*
X240862Y379672D01*
X240808Y379578D01*
X240751Y379486D01*
X240690Y379396D01*
X240626Y379308D01*
X240560Y379223D01*
X240490Y379140D01*
X240417Y379060D01*
X240341Y378982D01*
X240263Y378907D01*
X240182Y378835D01*
X240098Y378766D01*
X240012Y378700D01*
X239924Y378637D01*
X239833Y378578D01*
X239741Y378521D01*
X239646Y378468D01*
X239550Y378419D01*
X239451Y378373D01*
X239352Y378330D01*
X239250Y378291D01*
X239148Y378256D01*
X237059Y382694D02*
X237128Y382763D01*
X237199Y382829D01*
X237272Y382893D01*
X237348Y382954D01*
X237427Y383012D01*
X237507Y383066D01*
X237590Y383118D01*
X237674Y383166D01*
X237760Y383212D01*
X237848Y383253D01*
X237938Y383292D01*
X238029Y383327D01*
X238121Y383358D01*
X238214Y383386D01*
X238308Y383410D01*
X238403Y383430D01*
X238499Y383447D01*
X238596Y383460D01*
X238693Y383469D01*
X238790Y383475D01*
X238887Y383477D01*
X237060Y382693D02*
X231839Y378255D01*
X231839Y383477D01*
D11*
X264681Y361467D02*
X284810Y361467D01*
D12*
X260731Y368253D02*
X260731Y370342D01*
X260731Y368253D02*
X260733Y368164D01*
X260739Y368076D01*
X260748Y367988D01*
X260761Y367900D01*
X260778Y367813D01*
X260798Y367727D01*
X260823Y367642D01*
X260850Y367557D01*
X260882Y367474D01*
X260916Y367393D01*
X260955Y367313D01*
X260996Y367235D01*
X261041Y367158D01*
X261089Y367084D01*
X261140Y367011D01*
X261194Y366941D01*
X261252Y366874D01*
X261312Y366808D01*
X261374Y366746D01*
X261440Y366686D01*
X261507Y366628D01*
X261577Y366574D01*
X261650Y366523D01*
X261724Y366475D01*
X261801Y366430D01*
X261879Y366389D01*
X261959Y366350D01*
X262040Y366316D01*
X262123Y366284D01*
X262208Y366257D01*
X262293Y366232D01*
X262379Y366212D01*
X262466Y366195D01*
X262554Y366182D01*
X262642Y366173D01*
X262730Y366167D01*
X262819Y366165D01*
X268041Y366165D01*
X268132Y366167D01*
X268223Y366173D01*
X268314Y366183D01*
X268404Y366197D01*
X268493Y366214D01*
X268581Y366236D01*
X268669Y366262D01*
X268755Y366291D01*
X268840Y366324D01*
X268923Y366361D01*
X269005Y366401D01*
X269085Y366445D01*
X269163Y366492D01*
X269239Y366543D01*
X269312Y366596D01*
X269383Y366653D01*
X269452Y366714D01*
X269517Y366777D01*
X269580Y366842D01*
X269640Y366911D01*
X269698Y366982D01*
X269751Y367055D01*
X269802Y367131D01*
X269849Y367209D01*
X269893Y367289D01*
X269933Y367371D01*
X269970Y367454D01*
X270003Y367539D01*
X270032Y367625D01*
X270058Y367713D01*
X270080Y367801D01*
X270097Y367890D01*
X270111Y367980D01*
X270121Y368071D01*
X270127Y368162D01*
X270129Y368253D01*
X270129Y370342D01*
X265952Y373810D02*
X265952Y376943D01*
X265950Y377032D01*
X265944Y377120D01*
X265935Y377208D01*
X265922Y377296D01*
X265905Y377383D01*
X265885Y377469D01*
X265860Y377554D01*
X265833Y377639D01*
X265801Y377722D01*
X265767Y377803D01*
X265728Y377883D01*
X265687Y377961D01*
X265642Y378038D01*
X265594Y378112D01*
X265543Y378185D01*
X265489Y378255D01*
X265431Y378322D01*
X265371Y378388D01*
X265309Y378450D01*
X265243Y378510D01*
X265176Y378568D01*
X265106Y378622D01*
X265033Y378673D01*
X264959Y378721D01*
X264882Y378766D01*
X264804Y378807D01*
X264724Y378846D01*
X264643Y378880D01*
X264560Y378912D01*
X264475Y378939D01*
X264390Y378964D01*
X264304Y378984D01*
X264217Y379001D01*
X264129Y379014D01*
X264041Y379023D01*
X263953Y379029D01*
X263864Y379031D01*
X263864Y379032D02*
X263342Y379032D01*
X263241Y379030D01*
X263140Y379024D01*
X263039Y379014D01*
X262939Y379001D01*
X262839Y378983D01*
X262740Y378962D01*
X262642Y378936D01*
X262545Y378907D01*
X262449Y378875D01*
X262355Y378838D01*
X262262Y378798D01*
X262170Y378754D01*
X262081Y378707D01*
X261993Y378656D01*
X261907Y378602D01*
X261824Y378545D01*
X261742Y378485D01*
X261664Y378421D01*
X261587Y378355D01*
X261514Y378285D01*
X261443Y378213D01*
X261375Y378138D01*
X261310Y378060D01*
X261248Y377980D01*
X261189Y377898D01*
X261133Y377813D01*
X261081Y377727D01*
X261032Y377638D01*
X260986Y377547D01*
X260945Y377455D01*
X260906Y377361D01*
X260872Y377266D01*
X260841Y377170D01*
X260814Y377072D01*
X260790Y376974D01*
X260771Y376874D01*
X260755Y376774D01*
X260743Y376674D01*
X260735Y376573D01*
X260731Y376472D01*
X260731Y376370D01*
X260735Y376269D01*
X260743Y376168D01*
X260755Y376068D01*
X260771Y375968D01*
X260790Y375868D01*
X260814Y375770D01*
X260841Y375672D01*
X260872Y375576D01*
X260906Y375481D01*
X260945Y375387D01*
X260986Y375295D01*
X261032Y375204D01*
X261081Y375116D01*
X261133Y375029D01*
X261189Y374944D01*
X261248Y374862D01*
X261310Y374782D01*
X261375Y374704D01*
X261443Y374629D01*
X261514Y374557D01*
X261587Y374487D01*
X261664Y374421D01*
X261742Y374357D01*
X261824Y374297D01*
X261907Y374240D01*
X261993Y374186D01*
X262081Y374135D01*
X262170Y374088D01*
X262262Y374044D01*
X262355Y374004D01*
X262449Y373967D01*
X262545Y373935D01*
X262642Y373906D01*
X262740Y373880D01*
X262839Y373859D01*
X262939Y373841D01*
X263039Y373828D01*
X263140Y373818D01*
X263241Y373812D01*
X263342Y373810D01*
X265952Y373810D01*
X266081Y373812D01*
X266209Y373818D01*
X266337Y373828D01*
X266465Y373842D01*
X266593Y373859D01*
X266720Y373881D01*
X266846Y373907D01*
X266971Y373936D01*
X267095Y373969D01*
X267218Y374007D01*
X267340Y374047D01*
X267461Y374092D01*
X267580Y374140D01*
X267698Y374192D01*
X267814Y374248D01*
X267928Y374307D01*
X268040Y374370D01*
X268151Y374436D01*
X268259Y374505D01*
X268365Y374578D01*
X268469Y374654D01*
X268571Y374733D01*
X268670Y374815D01*
X268766Y374900D01*
X268860Y374988D01*
X268951Y375079D01*
X269039Y375173D01*
X269124Y375269D01*
X269206Y375368D01*
X269285Y375470D01*
X269361Y375574D01*
X269434Y375680D01*
X269503Y375788D01*
X269569Y375898D01*
X269632Y376011D01*
X269691Y376125D01*
X269747Y376241D01*
X269799Y376359D01*
X269847Y376478D01*
X269892Y376599D01*
X269932Y376721D01*
X269970Y376844D01*
X270003Y376968D01*
X270032Y377093D01*
X270058Y377219D01*
X270080Y377346D01*
X270097Y377474D01*
X270111Y377602D01*
X270121Y377730D01*
X270127Y377858D01*
X270129Y377987D01*
X416327Y441071D02*
X416327Y450469D01*
X413716Y450469D01*
X413615Y450467D01*
X413514Y450461D01*
X413413Y450451D01*
X413313Y450438D01*
X413213Y450420D01*
X413114Y450399D01*
X413016Y450373D01*
X412919Y450344D01*
X412823Y450312D01*
X412729Y450275D01*
X412636Y450235D01*
X412544Y450191D01*
X412455Y450144D01*
X412367Y450093D01*
X412281Y450039D01*
X412198Y449982D01*
X412116Y449922D01*
X412038Y449858D01*
X411961Y449792D01*
X411888Y449722D01*
X411817Y449650D01*
X411749Y449575D01*
X411684Y449497D01*
X411622Y449417D01*
X411563Y449335D01*
X411507Y449250D01*
X411455Y449164D01*
X411406Y449075D01*
X411360Y448984D01*
X411319Y448892D01*
X411280Y448798D01*
X411246Y448703D01*
X411215Y448607D01*
X411188Y448509D01*
X411164Y448411D01*
X411145Y448311D01*
X411129Y448211D01*
X411117Y448111D01*
X411109Y448010D01*
X411105Y447909D01*
X411105Y447807D01*
X411109Y447706D01*
X411117Y447605D01*
X411129Y447505D01*
X411145Y447405D01*
X411164Y447305D01*
X411188Y447207D01*
X411215Y447109D01*
X411246Y447013D01*
X411280Y446918D01*
X411319Y446824D01*
X411360Y446732D01*
X411406Y446641D01*
X411455Y446553D01*
X411507Y446466D01*
X411563Y446381D01*
X411622Y446299D01*
X411684Y446219D01*
X411749Y446141D01*
X411817Y446066D01*
X411888Y445994D01*
X411961Y445924D01*
X412038Y445858D01*
X412116Y445794D01*
X412198Y445734D01*
X412281Y445677D01*
X412367Y445623D01*
X412455Y445572D01*
X412544Y445525D01*
X412636Y445481D01*
X412729Y445441D01*
X412823Y445404D01*
X412919Y445372D01*
X413016Y445343D01*
X413114Y445317D01*
X413213Y445296D01*
X413313Y445278D01*
X413413Y445265D01*
X413514Y445255D01*
X413615Y445249D01*
X413716Y445247D01*
X413716Y445248D02*
X416327Y445248D01*
X413194Y445248D02*
X411105Y441071D01*
X407240Y441071D02*
X404629Y441071D01*
X404528Y441073D01*
X404427Y441079D01*
X404326Y441089D01*
X404226Y441102D01*
X404126Y441120D01*
X404027Y441141D01*
X403929Y441167D01*
X403832Y441196D01*
X403736Y441228D01*
X403642Y441265D01*
X403549Y441305D01*
X403457Y441349D01*
X403368Y441396D01*
X403280Y441447D01*
X403194Y441501D01*
X403111Y441558D01*
X403029Y441618D01*
X402951Y441682D01*
X402874Y441748D01*
X402801Y441818D01*
X402730Y441890D01*
X402662Y441965D01*
X402597Y442043D01*
X402535Y442123D01*
X402476Y442205D01*
X402420Y442290D01*
X402368Y442377D01*
X402319Y442465D01*
X402273Y442556D01*
X402232Y442648D01*
X402193Y442742D01*
X402159Y442837D01*
X402128Y442933D01*
X402101Y443031D01*
X402077Y443129D01*
X402058Y443229D01*
X402042Y443329D01*
X402030Y443429D01*
X402022Y443530D01*
X402018Y443631D01*
X402018Y443733D01*
X402022Y443834D01*
X402030Y443935D01*
X402042Y444035D01*
X402058Y444135D01*
X402077Y444235D01*
X402101Y444333D01*
X402128Y444431D01*
X402159Y444527D01*
X402193Y444622D01*
X402232Y444716D01*
X402273Y444808D01*
X402319Y444899D01*
X402368Y444988D01*
X402420Y445074D01*
X402476Y445159D01*
X402535Y445241D01*
X402597Y445321D01*
X402662Y445399D01*
X402730Y445474D01*
X402801Y445546D01*
X402874Y445616D01*
X402951Y445682D01*
X403029Y445746D01*
X403111Y445806D01*
X403194Y445863D01*
X403280Y445917D01*
X403368Y445968D01*
X403457Y446015D01*
X403549Y446059D01*
X403642Y446099D01*
X403736Y446136D01*
X403832Y446168D01*
X403929Y446197D01*
X404027Y446223D01*
X404126Y446244D01*
X404226Y446262D01*
X404326Y446275D01*
X404427Y446285D01*
X404528Y446291D01*
X404629Y446293D01*
X404107Y450469D02*
X407240Y450469D01*
X404107Y450469D02*
X404017Y450467D01*
X403928Y450461D01*
X403838Y450452D01*
X403749Y450438D01*
X403661Y450421D01*
X403574Y450400D01*
X403487Y450375D01*
X403402Y450346D01*
X403318Y450314D01*
X403236Y450279D01*
X403155Y450239D01*
X403076Y450197D01*
X402999Y450151D01*
X402924Y450101D01*
X402851Y450049D01*
X402780Y449993D01*
X402712Y449935D01*
X402647Y449873D01*
X402584Y449809D01*
X402524Y449742D01*
X402467Y449673D01*
X402413Y449601D01*
X402362Y449527D01*
X402314Y449451D01*
X402270Y449373D01*
X402229Y449293D01*
X402191Y449211D01*
X402157Y449128D01*
X402127Y449043D01*
X402100Y448957D01*
X402077Y448871D01*
X402058Y448783D01*
X402043Y448694D01*
X402031Y448605D01*
X402023Y448516D01*
X402019Y448426D01*
X402019Y448336D01*
X402023Y448246D01*
X402031Y448157D01*
X402043Y448068D01*
X402058Y447979D01*
X402077Y447891D01*
X402100Y447805D01*
X402127Y447719D01*
X402157Y447634D01*
X402191Y447551D01*
X402229Y447469D01*
X402270Y447389D01*
X402314Y447311D01*
X402362Y447235D01*
X402413Y447161D01*
X402467Y447089D01*
X402524Y447020D01*
X402584Y446953D01*
X402647Y446889D01*
X402712Y446827D01*
X402780Y446769D01*
X402851Y446713D01*
X402924Y446661D01*
X402999Y446611D01*
X403076Y446565D01*
X403155Y446523D01*
X403236Y446483D01*
X403318Y446448D01*
X403402Y446416D01*
X403487Y446387D01*
X403574Y446362D01*
X403661Y446341D01*
X403749Y446324D01*
X403838Y446310D01*
X403928Y446301D01*
X404017Y446295D01*
X404107Y446293D01*
X404107Y446292D02*
X406195Y446292D01*
D11*
X296380Y246494D02*
X296380Y226365D01*
D12*
X254706Y232156D02*
X252617Y232156D01*
X254706Y232156D02*
X254795Y232158D01*
X254883Y232164D01*
X254971Y232173D01*
X255059Y232186D01*
X255146Y232203D01*
X255232Y232223D01*
X255317Y232248D01*
X255402Y232275D01*
X255485Y232307D01*
X255566Y232341D01*
X255646Y232380D01*
X255724Y232421D01*
X255801Y232466D01*
X255875Y232514D01*
X255948Y232565D01*
X256018Y232619D01*
X256085Y232677D01*
X256151Y232737D01*
X256213Y232799D01*
X256273Y232865D01*
X256331Y232932D01*
X256385Y233002D01*
X256436Y233075D01*
X256484Y233149D01*
X256529Y233226D01*
X256570Y233304D01*
X256609Y233384D01*
X256643Y233465D01*
X256675Y233548D01*
X256702Y233633D01*
X256727Y233718D01*
X256747Y233804D01*
X256764Y233891D01*
X256777Y233979D01*
X256786Y234067D01*
X256792Y234155D01*
X256794Y234244D01*
X256794Y239466D01*
X256792Y239555D01*
X256786Y239643D01*
X256777Y239731D01*
X256764Y239819D01*
X256747Y239906D01*
X256727Y239992D01*
X256702Y240077D01*
X256675Y240162D01*
X256643Y240245D01*
X256609Y240326D01*
X256570Y240406D01*
X256529Y240484D01*
X256484Y240561D01*
X256436Y240635D01*
X256385Y240708D01*
X256331Y240778D01*
X256273Y240845D01*
X256213Y240911D01*
X256151Y240973D01*
X256085Y241033D01*
X256018Y241091D01*
X255948Y241145D01*
X255875Y241196D01*
X255801Y241244D01*
X255724Y241289D01*
X255646Y241330D01*
X255566Y241369D01*
X255485Y241403D01*
X255402Y241435D01*
X255317Y241462D01*
X255232Y241487D01*
X255146Y241507D01*
X255059Y241524D01*
X254971Y241537D01*
X254883Y241546D01*
X254795Y241552D01*
X254706Y241554D01*
X252617Y241554D01*
X247060Y236333D02*
X243927Y236333D01*
X247060Y236333D02*
X247149Y236335D01*
X247237Y236341D01*
X247325Y236350D01*
X247413Y236363D01*
X247500Y236380D01*
X247586Y236400D01*
X247671Y236425D01*
X247756Y236452D01*
X247839Y236484D01*
X247920Y236518D01*
X248000Y236557D01*
X248078Y236598D01*
X248155Y236643D01*
X248229Y236691D01*
X248302Y236742D01*
X248372Y236796D01*
X248439Y236854D01*
X248505Y236914D01*
X248567Y236976D01*
X248627Y237042D01*
X248685Y237109D01*
X248739Y237179D01*
X248790Y237252D01*
X248838Y237326D01*
X248883Y237403D01*
X248924Y237481D01*
X248963Y237561D01*
X248997Y237642D01*
X249029Y237725D01*
X249056Y237810D01*
X249081Y237895D01*
X249101Y237981D01*
X249118Y238068D01*
X249131Y238156D01*
X249140Y238244D01*
X249146Y238332D01*
X249148Y238421D01*
X249148Y238943D01*
X249149Y238943D02*
X249147Y239044D01*
X249141Y239145D01*
X249131Y239246D01*
X249118Y239346D01*
X249100Y239446D01*
X249079Y239545D01*
X249053Y239643D01*
X249024Y239740D01*
X248992Y239836D01*
X248955Y239930D01*
X248915Y240023D01*
X248871Y240115D01*
X248824Y240204D01*
X248773Y240292D01*
X248719Y240378D01*
X248662Y240461D01*
X248602Y240543D01*
X248538Y240621D01*
X248472Y240698D01*
X248402Y240771D01*
X248330Y240842D01*
X248255Y240910D01*
X248177Y240975D01*
X248097Y241037D01*
X248015Y241096D01*
X247930Y241152D01*
X247844Y241204D01*
X247755Y241253D01*
X247664Y241299D01*
X247572Y241340D01*
X247478Y241379D01*
X247383Y241413D01*
X247287Y241444D01*
X247189Y241471D01*
X247091Y241495D01*
X246991Y241514D01*
X246891Y241530D01*
X246791Y241542D01*
X246690Y241550D01*
X246589Y241554D01*
X246487Y241554D01*
X246386Y241550D01*
X246285Y241542D01*
X246185Y241530D01*
X246085Y241514D01*
X245985Y241495D01*
X245887Y241471D01*
X245789Y241444D01*
X245693Y241413D01*
X245598Y241379D01*
X245504Y241340D01*
X245412Y241299D01*
X245321Y241253D01*
X245233Y241204D01*
X245146Y241152D01*
X245061Y241096D01*
X244979Y241037D01*
X244899Y240975D01*
X244821Y240910D01*
X244746Y240842D01*
X244674Y240771D01*
X244604Y240698D01*
X244538Y240621D01*
X244474Y240543D01*
X244414Y240461D01*
X244357Y240378D01*
X244303Y240292D01*
X244252Y240204D01*
X244205Y240115D01*
X244161Y240023D01*
X244121Y239930D01*
X244084Y239836D01*
X244052Y239740D01*
X244023Y239643D01*
X243997Y239545D01*
X243976Y239446D01*
X243958Y239346D01*
X243945Y239246D01*
X243935Y239145D01*
X243929Y239044D01*
X243927Y238943D01*
X243927Y236333D01*
X243929Y236207D01*
X243935Y236081D01*
X243944Y235955D01*
X243957Y235830D01*
X243975Y235705D01*
X243995Y235580D01*
X244020Y235456D01*
X244048Y235333D01*
X244080Y235211D01*
X244116Y235090D01*
X244155Y234970D01*
X244198Y234852D01*
X244245Y234735D01*
X244295Y234619D01*
X244349Y234504D01*
X244405Y234392D01*
X244466Y234281D01*
X244529Y234172D01*
X244596Y234065D01*
X244666Y233960D01*
X244740Y233857D01*
X244816Y233757D01*
X244895Y233659D01*
X244977Y233563D01*
X245063Y233470D01*
X245150Y233379D01*
X245241Y233292D01*
X245334Y233206D01*
X245430Y233124D01*
X245528Y233045D01*
X245628Y232969D01*
X245731Y232895D01*
X245836Y232825D01*
X245943Y232758D01*
X246052Y232695D01*
X246163Y232634D01*
X246275Y232578D01*
X246390Y232524D01*
X246506Y232474D01*
X246623Y232427D01*
X246741Y232384D01*
X246861Y232345D01*
X246982Y232309D01*
X247104Y232277D01*
X247227Y232249D01*
X247351Y232224D01*
X247476Y232204D01*
X247601Y232186D01*
X247726Y232173D01*
X247852Y232164D01*
X247978Y232158D01*
X248104Y232156D01*
X324252Y261684D02*
X324252Y271082D01*
X321641Y271082D01*
X321540Y271080D01*
X321439Y271074D01*
X321338Y271064D01*
X321238Y271051D01*
X321138Y271033D01*
X321039Y271012D01*
X320941Y270986D01*
X320844Y270957D01*
X320748Y270925D01*
X320654Y270888D01*
X320561Y270848D01*
X320469Y270804D01*
X320380Y270757D01*
X320292Y270706D01*
X320206Y270652D01*
X320123Y270595D01*
X320041Y270535D01*
X319963Y270471D01*
X319886Y270405D01*
X319813Y270335D01*
X319742Y270263D01*
X319674Y270188D01*
X319609Y270110D01*
X319547Y270030D01*
X319488Y269948D01*
X319432Y269863D01*
X319380Y269777D01*
X319331Y269688D01*
X319285Y269597D01*
X319244Y269505D01*
X319205Y269411D01*
X319171Y269316D01*
X319140Y269220D01*
X319113Y269122D01*
X319089Y269024D01*
X319070Y268924D01*
X319054Y268824D01*
X319042Y268724D01*
X319034Y268623D01*
X319030Y268522D01*
X319030Y268420D01*
X319034Y268319D01*
X319042Y268218D01*
X319054Y268118D01*
X319070Y268018D01*
X319089Y267918D01*
X319113Y267820D01*
X319140Y267722D01*
X319171Y267626D01*
X319205Y267531D01*
X319244Y267437D01*
X319285Y267345D01*
X319331Y267254D01*
X319380Y267166D01*
X319432Y267079D01*
X319488Y266994D01*
X319547Y266912D01*
X319609Y266832D01*
X319674Y266754D01*
X319742Y266679D01*
X319813Y266607D01*
X319886Y266537D01*
X319963Y266471D01*
X320041Y266407D01*
X320123Y266347D01*
X320206Y266290D01*
X320292Y266236D01*
X320380Y266185D01*
X320469Y266138D01*
X320561Y266094D01*
X320654Y266054D01*
X320748Y266017D01*
X320844Y265985D01*
X320941Y265956D01*
X321039Y265930D01*
X321138Y265909D01*
X321238Y265891D01*
X321338Y265878D01*
X321439Y265868D01*
X321540Y265862D01*
X321641Y265860D01*
X324252Y265860D01*
X321119Y265860D02*
X319030Y261684D01*
X313076Y265860D02*
X309944Y265860D01*
X313076Y265861D02*
X313165Y265863D01*
X313253Y265869D01*
X313341Y265878D01*
X313429Y265891D01*
X313516Y265908D01*
X313602Y265928D01*
X313687Y265953D01*
X313772Y265980D01*
X313855Y266012D01*
X313936Y266046D01*
X314016Y266085D01*
X314094Y266126D01*
X314171Y266171D01*
X314245Y266219D01*
X314318Y266270D01*
X314388Y266324D01*
X314455Y266382D01*
X314521Y266442D01*
X314583Y266504D01*
X314643Y266570D01*
X314701Y266637D01*
X314755Y266707D01*
X314806Y266780D01*
X314854Y266854D01*
X314899Y266931D01*
X314940Y267009D01*
X314979Y267089D01*
X315013Y267170D01*
X315045Y267253D01*
X315072Y267338D01*
X315097Y267423D01*
X315117Y267509D01*
X315134Y267596D01*
X315147Y267684D01*
X315156Y267772D01*
X315162Y267860D01*
X315164Y267949D01*
X315165Y267949D02*
X315165Y268471D01*
X315163Y268572D01*
X315157Y268673D01*
X315147Y268774D01*
X315134Y268874D01*
X315116Y268974D01*
X315095Y269073D01*
X315069Y269171D01*
X315040Y269268D01*
X315008Y269364D01*
X314971Y269458D01*
X314931Y269551D01*
X314887Y269643D01*
X314840Y269732D01*
X314789Y269820D01*
X314735Y269906D01*
X314678Y269989D01*
X314618Y270071D01*
X314554Y270149D01*
X314488Y270226D01*
X314418Y270299D01*
X314346Y270370D01*
X314271Y270438D01*
X314193Y270503D01*
X314113Y270565D01*
X314031Y270624D01*
X313946Y270680D01*
X313860Y270732D01*
X313771Y270781D01*
X313680Y270827D01*
X313588Y270868D01*
X313494Y270907D01*
X313399Y270941D01*
X313303Y270972D01*
X313205Y270999D01*
X313107Y271023D01*
X313007Y271042D01*
X312907Y271058D01*
X312807Y271070D01*
X312706Y271078D01*
X312605Y271082D01*
X312503Y271082D01*
X312402Y271078D01*
X312301Y271070D01*
X312201Y271058D01*
X312101Y271042D01*
X312001Y271023D01*
X311903Y270999D01*
X311805Y270972D01*
X311709Y270941D01*
X311614Y270907D01*
X311520Y270868D01*
X311428Y270827D01*
X311337Y270781D01*
X311249Y270732D01*
X311162Y270680D01*
X311077Y270624D01*
X310995Y270565D01*
X310915Y270503D01*
X310837Y270438D01*
X310762Y270370D01*
X310690Y270299D01*
X310620Y270226D01*
X310554Y270149D01*
X310490Y270071D01*
X310430Y269989D01*
X310373Y269906D01*
X310319Y269820D01*
X310268Y269732D01*
X310221Y269643D01*
X310177Y269551D01*
X310137Y269458D01*
X310100Y269364D01*
X310068Y269268D01*
X310039Y269171D01*
X310013Y269073D01*
X309992Y268974D01*
X309974Y268874D01*
X309961Y268774D01*
X309951Y268673D01*
X309945Y268572D01*
X309943Y268471D01*
X309944Y268471D02*
X309944Y265860D01*
X309943Y265860D02*
X309945Y265734D01*
X309951Y265608D01*
X309960Y265482D01*
X309973Y265357D01*
X309991Y265232D01*
X310011Y265107D01*
X310036Y264983D01*
X310064Y264860D01*
X310096Y264738D01*
X310132Y264617D01*
X310171Y264497D01*
X310214Y264379D01*
X310261Y264262D01*
X310311Y264146D01*
X310365Y264031D01*
X310421Y263919D01*
X310482Y263808D01*
X310545Y263699D01*
X310612Y263592D01*
X310682Y263487D01*
X310756Y263384D01*
X310832Y263284D01*
X310911Y263186D01*
X310993Y263090D01*
X311079Y262997D01*
X311166Y262906D01*
X311257Y262819D01*
X311350Y262733D01*
X311446Y262651D01*
X311544Y262572D01*
X311644Y262496D01*
X311747Y262422D01*
X311852Y262352D01*
X311959Y262285D01*
X312068Y262222D01*
X312179Y262161D01*
X312291Y262105D01*
X312406Y262051D01*
X312522Y262001D01*
X312639Y261954D01*
X312757Y261911D01*
X312877Y261872D01*
X312998Y261836D01*
X313120Y261804D01*
X313243Y261776D01*
X313367Y261751D01*
X313492Y261731D01*
X313617Y261713D01*
X313742Y261700D01*
X313868Y261691D01*
X313994Y261685D01*
X314120Y261683D01*
X255253Y261684D02*
X253165Y261684D01*
X255253Y261684D02*
X255342Y261686D01*
X255430Y261692D01*
X255518Y261701D01*
X255606Y261714D01*
X255693Y261731D01*
X255779Y261751D01*
X255864Y261776D01*
X255949Y261803D01*
X256032Y261835D01*
X256113Y261869D01*
X256193Y261908D01*
X256271Y261949D01*
X256348Y261994D01*
X256422Y262042D01*
X256495Y262093D01*
X256565Y262147D01*
X256632Y262205D01*
X256698Y262265D01*
X256760Y262327D01*
X256820Y262393D01*
X256878Y262460D01*
X256932Y262530D01*
X256983Y262603D01*
X257031Y262677D01*
X257076Y262754D01*
X257117Y262832D01*
X257156Y262912D01*
X257190Y262993D01*
X257222Y263076D01*
X257249Y263161D01*
X257274Y263246D01*
X257294Y263332D01*
X257311Y263419D01*
X257324Y263507D01*
X257333Y263595D01*
X257339Y263683D01*
X257341Y263772D01*
X257342Y263772D02*
X257342Y268993D01*
X257341Y268993D02*
X257339Y269082D01*
X257333Y269170D01*
X257324Y269258D01*
X257311Y269346D01*
X257294Y269433D01*
X257274Y269519D01*
X257249Y269604D01*
X257222Y269689D01*
X257190Y269772D01*
X257156Y269853D01*
X257117Y269933D01*
X257076Y270011D01*
X257031Y270088D01*
X256983Y270162D01*
X256932Y270235D01*
X256878Y270305D01*
X256820Y270372D01*
X256760Y270438D01*
X256698Y270500D01*
X256632Y270560D01*
X256565Y270618D01*
X256495Y270672D01*
X256422Y270723D01*
X256348Y270771D01*
X256271Y270816D01*
X256193Y270857D01*
X256113Y270896D01*
X256032Y270930D01*
X255949Y270962D01*
X255864Y270989D01*
X255779Y271014D01*
X255693Y271034D01*
X255606Y271051D01*
X255518Y271064D01*
X255430Y271073D01*
X255342Y271079D01*
X255253Y271081D01*
X255253Y271082D02*
X253165Y271082D01*
X249696Y268993D02*
X247086Y271082D01*
X247086Y261684D01*
X249696Y261684D02*
X244475Y261684D01*
X240552Y263772D02*
X238464Y271082D01*
X240552Y263772D02*
X235331Y263772D01*
X236897Y265860D02*
X236897Y261684D01*
X253165Y247396D02*
X255253Y247396D01*
X255342Y247398D01*
X255430Y247404D01*
X255518Y247413D01*
X255606Y247426D01*
X255693Y247443D01*
X255779Y247463D01*
X255864Y247488D01*
X255949Y247515D01*
X256032Y247547D01*
X256113Y247581D01*
X256193Y247620D01*
X256271Y247661D01*
X256348Y247706D01*
X256422Y247754D01*
X256495Y247805D01*
X256565Y247859D01*
X256632Y247917D01*
X256698Y247977D01*
X256760Y248039D01*
X256820Y248105D01*
X256878Y248172D01*
X256932Y248242D01*
X256983Y248315D01*
X257031Y248389D01*
X257076Y248466D01*
X257117Y248544D01*
X257156Y248624D01*
X257190Y248705D01*
X257222Y248788D01*
X257249Y248873D01*
X257274Y248958D01*
X257294Y249044D01*
X257311Y249131D01*
X257324Y249219D01*
X257333Y249307D01*
X257339Y249395D01*
X257341Y249484D01*
X257342Y249484D02*
X257342Y254706D01*
X257341Y254706D02*
X257339Y254795D01*
X257333Y254883D01*
X257324Y254971D01*
X257311Y255059D01*
X257294Y255146D01*
X257274Y255232D01*
X257249Y255317D01*
X257222Y255402D01*
X257190Y255485D01*
X257156Y255566D01*
X257117Y255646D01*
X257076Y255724D01*
X257031Y255801D01*
X256983Y255875D01*
X256932Y255948D01*
X256878Y256018D01*
X256820Y256085D01*
X256760Y256151D01*
X256698Y256213D01*
X256632Y256273D01*
X256565Y256331D01*
X256495Y256385D01*
X256422Y256436D01*
X256348Y256484D01*
X256271Y256529D01*
X256193Y256570D01*
X256113Y256609D01*
X256032Y256643D01*
X255949Y256675D01*
X255864Y256702D01*
X255779Y256727D01*
X255693Y256747D01*
X255606Y256764D01*
X255518Y256777D01*
X255430Y256786D01*
X255342Y256792D01*
X255253Y256794D01*
X253165Y256794D01*
X249696Y254706D02*
X247086Y256794D01*
X247086Y247396D01*
X249696Y247396D02*
X244475Y247396D01*
X240552Y247396D02*
X237419Y247396D01*
X237330Y247398D01*
X237242Y247404D01*
X237154Y247413D01*
X237066Y247426D01*
X236979Y247443D01*
X236893Y247463D01*
X236808Y247488D01*
X236723Y247515D01*
X236640Y247547D01*
X236559Y247581D01*
X236479Y247620D01*
X236401Y247661D01*
X236324Y247706D01*
X236250Y247754D01*
X236177Y247805D01*
X236107Y247859D01*
X236040Y247917D01*
X235974Y247977D01*
X235912Y248039D01*
X235852Y248105D01*
X235794Y248172D01*
X235740Y248242D01*
X235689Y248315D01*
X235641Y248389D01*
X235596Y248466D01*
X235555Y248544D01*
X235516Y248624D01*
X235482Y248705D01*
X235450Y248788D01*
X235423Y248873D01*
X235398Y248958D01*
X235378Y249044D01*
X235361Y249131D01*
X235348Y249219D01*
X235339Y249307D01*
X235333Y249395D01*
X235331Y249484D01*
X235331Y250529D01*
X235333Y250618D01*
X235339Y250706D01*
X235348Y250794D01*
X235361Y250882D01*
X235378Y250969D01*
X235398Y251055D01*
X235423Y251140D01*
X235450Y251225D01*
X235482Y251308D01*
X235516Y251389D01*
X235555Y251469D01*
X235596Y251547D01*
X235641Y251624D01*
X235689Y251698D01*
X235740Y251771D01*
X235794Y251841D01*
X235852Y251908D01*
X235912Y251974D01*
X235974Y252036D01*
X236040Y252096D01*
X236107Y252154D01*
X236177Y252208D01*
X236250Y252259D01*
X236324Y252307D01*
X236401Y252352D01*
X236479Y252393D01*
X236559Y252432D01*
X236640Y252466D01*
X236723Y252498D01*
X236808Y252525D01*
X236893Y252550D01*
X236979Y252570D01*
X237066Y252587D01*
X237154Y252600D01*
X237242Y252609D01*
X237330Y252615D01*
X237419Y252617D01*
X240552Y252617D01*
X240552Y256794D01*
X235331Y256794D01*
D11*
X379767Y304483D02*
X384493Y304483D01*
X310833Y304483D02*
X310833Y309209D01*
X310833Y378143D02*
X315559Y378143D01*
X384493Y378143D02*
X384493Y373417D01*
X384493Y309209D02*
X384493Y304483D01*
X315559Y304483D02*
X310833Y304483D01*
X310833Y373417D02*
X310833Y378143D01*
X379767Y378143D02*
X384493Y378143D01*
D12*
X392831Y370671D02*
X392831Y366692D01*
X390510Y363708D01*
X392831Y366692D02*
X395152Y363708D01*
X392831Y366692D02*
X389183Y368019D01*
X392831Y366692D02*
X396479Y368019D01*
M02*
