G04 EAGLE Gerber RS-274X export*
G75*
%MOMM*%
%FSLAX34Y34*%
%LPD*%
%INSilkscreen Bottom*%
%IPPOS*%
%AMOC8*
5,1,8,0,0,1.08239X$1,22.5*%
G01*
%ADD10C,0.152400*%
%ADD11C,0.101600*%
%ADD12C,0.076200*%
%ADD13C,0.254000*%

G36*
X332304Y336298D02*
X332304Y336298D01*
X332306Y336297D01*
X332349Y336317D01*
X332393Y336335D01*
X332393Y336337D01*
X332395Y336338D01*
X332428Y336423D01*
X332428Y338963D01*
X332427Y338965D01*
X332428Y338967D01*
X332408Y339010D01*
X332390Y339054D01*
X332388Y339054D01*
X332387Y339056D01*
X332302Y339089D01*
X328492Y339089D01*
X328490Y339088D01*
X328488Y339089D01*
X328445Y339069D01*
X328401Y339051D01*
X328401Y339049D01*
X328399Y339048D01*
X328366Y338963D01*
X328366Y336423D01*
X328367Y336421D01*
X328366Y336419D01*
X328386Y336376D01*
X328404Y336332D01*
X328406Y336332D01*
X328407Y336330D01*
X328492Y336297D01*
X332302Y336297D01*
X332304Y336298D01*
G37*
G36*
X301754Y290744D02*
X301754Y290744D01*
X301756Y290743D01*
X301799Y290763D01*
X301843Y290781D01*
X301843Y290783D01*
X301845Y290784D01*
X301878Y290869D01*
X301878Y294679D01*
X301877Y294681D01*
X301878Y294683D01*
X301858Y294726D01*
X301840Y294770D01*
X301838Y294770D01*
X301837Y294772D01*
X301752Y294805D01*
X299212Y294805D01*
X299210Y294804D01*
X299208Y294805D01*
X299165Y294785D01*
X299121Y294767D01*
X299121Y294765D01*
X299119Y294764D01*
X299086Y294679D01*
X299086Y290869D01*
X299087Y290867D01*
X299086Y290865D01*
X299106Y290822D01*
X299124Y290778D01*
X299126Y290778D01*
X299127Y290776D01*
X299212Y290743D01*
X301752Y290743D01*
X301754Y290744D01*
G37*
G36*
X386590Y275741D02*
X386590Y275741D01*
X386592Y275740D01*
X386635Y275760D01*
X386679Y275778D01*
X386679Y275780D01*
X386681Y275781D01*
X386714Y275866D01*
X386714Y279676D01*
X386713Y279678D01*
X386714Y279680D01*
X386694Y279723D01*
X386676Y279767D01*
X386674Y279767D01*
X386673Y279769D01*
X386588Y279802D01*
X384048Y279802D01*
X384046Y279801D01*
X384044Y279802D01*
X384001Y279782D01*
X383957Y279764D01*
X383957Y279762D01*
X383955Y279761D01*
X383922Y279676D01*
X383922Y275866D01*
X383923Y275864D01*
X383922Y275862D01*
X383942Y275819D01*
X383960Y275775D01*
X383962Y275775D01*
X383963Y275773D01*
X384048Y275740D01*
X386588Y275740D01*
X386590Y275741D01*
G37*
G36*
X337305Y251462D02*
X337305Y251462D01*
X337307Y251461D01*
X337350Y251481D01*
X337394Y251499D01*
X337394Y251501D01*
X337396Y251502D01*
X337429Y251587D01*
X337429Y254127D01*
X337428Y254129D01*
X337429Y254131D01*
X337409Y254174D01*
X337391Y254218D01*
X337389Y254218D01*
X337388Y254220D01*
X337303Y254253D01*
X333493Y254253D01*
X333491Y254252D01*
X333489Y254253D01*
X333446Y254233D01*
X333402Y254215D01*
X333402Y254213D01*
X333400Y254212D01*
X333367Y254127D01*
X333367Y251587D01*
X333368Y251585D01*
X333367Y251583D01*
X333387Y251540D01*
X333405Y251496D01*
X333407Y251496D01*
X333408Y251494D01*
X333493Y251461D01*
X337303Y251461D01*
X337305Y251462D01*
G37*
D10*
X231196Y374848D02*
X226257Y374848D01*
X226117Y374846D01*
X225978Y374840D01*
X225838Y374830D01*
X225699Y374816D01*
X225560Y374799D01*
X225422Y374777D01*
X225285Y374751D01*
X225148Y374722D01*
X225012Y374689D01*
X224878Y374652D01*
X224744Y374611D01*
X224612Y374566D01*
X224480Y374517D01*
X224351Y374465D01*
X224223Y374410D01*
X224096Y374350D01*
X223971Y374287D01*
X223848Y374221D01*
X223727Y374151D01*
X223608Y374078D01*
X223491Y374001D01*
X223377Y373921D01*
X223264Y373838D01*
X223154Y373752D01*
X223047Y373662D01*
X222942Y373570D01*
X222840Y373475D01*
X222740Y373377D01*
X222643Y373276D01*
X222549Y373172D01*
X222459Y373066D01*
X222371Y372957D01*
X222286Y372846D01*
X222205Y372732D01*
X222126Y372617D01*
X222051Y372499D01*
X221980Y372379D01*
X221912Y372256D01*
X221847Y372133D01*
X221786Y372007D01*
X221728Y371879D01*
X221674Y371751D01*
X221624Y371620D01*
X221577Y371488D01*
X221534Y371355D01*
X221495Y371221D01*
X221460Y371086D01*
X221429Y370950D01*
X221401Y370812D01*
X221378Y370675D01*
X221358Y370536D01*
X221342Y370397D01*
X221330Y370258D01*
X221322Y370119D01*
X221318Y369979D01*
X221318Y369839D01*
X221322Y369699D01*
X221330Y369560D01*
X221342Y369421D01*
X221358Y369282D01*
X221378Y369143D01*
X221401Y369006D01*
X221429Y368868D01*
X221460Y368732D01*
X221495Y368597D01*
X221534Y368463D01*
X221577Y368330D01*
X221624Y368198D01*
X221674Y368067D01*
X221728Y367939D01*
X221786Y367811D01*
X221847Y367685D01*
X221912Y367562D01*
X221980Y367440D01*
X222051Y367319D01*
X222126Y367201D01*
X222205Y367086D01*
X222286Y366972D01*
X222371Y366861D01*
X222459Y366752D01*
X222549Y366646D01*
X222643Y366542D01*
X222740Y366441D01*
X222840Y366343D01*
X222942Y366248D01*
X223047Y366156D01*
X223154Y366066D01*
X223264Y365980D01*
X223377Y365897D01*
X223491Y365817D01*
X223608Y365740D01*
X223727Y365667D01*
X223848Y365597D01*
X223971Y365531D01*
X224096Y365468D01*
X224223Y365408D01*
X224351Y365353D01*
X224480Y365301D01*
X224612Y365252D01*
X224744Y365207D01*
X224878Y365166D01*
X225012Y365129D01*
X225148Y365096D01*
X225285Y365067D01*
X225422Y365041D01*
X225560Y365019D01*
X225699Y365002D01*
X225838Y364988D01*
X225978Y364978D01*
X226117Y364972D01*
X226257Y364970D01*
X231196Y364970D01*
X231196Y382750D01*
X226257Y382750D01*
X226133Y382748D01*
X226009Y382742D01*
X225885Y382732D01*
X225762Y382719D01*
X225639Y382701D01*
X225517Y382680D01*
X225395Y382655D01*
X225274Y382626D01*
X225155Y382593D01*
X225036Y382557D01*
X224919Y382516D01*
X224803Y382473D01*
X224688Y382425D01*
X224575Y382374D01*
X224463Y382319D01*
X224354Y382261D01*
X224246Y382200D01*
X224140Y382135D01*
X224036Y382067D01*
X223935Y381995D01*
X223835Y381921D01*
X223739Y381843D01*
X223644Y381763D01*
X223552Y381679D01*
X223463Y381593D01*
X223377Y381504D01*
X223293Y381412D01*
X223213Y381317D01*
X223135Y381221D01*
X223061Y381121D01*
X222989Y381020D01*
X222921Y380916D01*
X222856Y380810D01*
X222795Y380702D01*
X222737Y380593D01*
X222682Y380481D01*
X222631Y380368D01*
X222583Y380253D01*
X222540Y380137D01*
X222499Y380020D01*
X222463Y379901D01*
X222430Y379782D01*
X222401Y379661D01*
X222376Y379539D01*
X222355Y379417D01*
X222337Y379294D01*
X222324Y379171D01*
X222314Y379047D01*
X222308Y378923D01*
X222306Y378799D01*
X222308Y378675D01*
X222314Y378551D01*
X222324Y378427D01*
X222337Y378304D01*
X222355Y378181D01*
X222376Y378059D01*
X222401Y377937D01*
X222430Y377816D01*
X222463Y377697D01*
X222499Y377578D01*
X222540Y377461D01*
X222583Y377345D01*
X222631Y377230D01*
X222682Y377117D01*
X222737Y377005D01*
X222795Y376896D01*
X222856Y376788D01*
X222921Y376682D01*
X222989Y376578D01*
X223061Y376477D01*
X223135Y376377D01*
X223213Y376281D01*
X223293Y376186D01*
X223377Y376094D01*
X223463Y376005D01*
X223552Y375919D01*
X223644Y375835D01*
X223739Y375755D01*
X223835Y375677D01*
X223935Y375603D01*
X224036Y375531D01*
X224140Y375463D01*
X224246Y375398D01*
X224354Y375337D01*
X224463Y375279D01*
X224575Y375224D01*
X224688Y375173D01*
X224803Y375125D01*
X224919Y375082D01*
X225036Y375041D01*
X225155Y375005D01*
X225274Y374972D01*
X225395Y374943D01*
X225517Y374918D01*
X225639Y374897D01*
X225762Y374879D01*
X225885Y374866D01*
X226009Y374856D01*
X226133Y374850D01*
X226257Y374848D01*
X471175Y382608D02*
X471175Y364828D01*
X471175Y382608D02*
X466236Y382608D01*
X466096Y382606D01*
X465957Y382600D01*
X465817Y382590D01*
X465678Y382576D01*
X465539Y382559D01*
X465401Y382537D01*
X465264Y382511D01*
X465127Y382482D01*
X464991Y382449D01*
X464857Y382412D01*
X464723Y382371D01*
X464591Y382326D01*
X464459Y382277D01*
X464330Y382225D01*
X464202Y382170D01*
X464075Y382110D01*
X463950Y382047D01*
X463827Y381981D01*
X463706Y381911D01*
X463587Y381838D01*
X463470Y381761D01*
X463356Y381681D01*
X463243Y381598D01*
X463133Y381512D01*
X463026Y381422D01*
X462921Y381330D01*
X462819Y381235D01*
X462719Y381137D01*
X462622Y381036D01*
X462528Y380932D01*
X462438Y380826D01*
X462350Y380717D01*
X462265Y380606D01*
X462184Y380492D01*
X462105Y380377D01*
X462030Y380259D01*
X461959Y380139D01*
X461891Y380016D01*
X461826Y379893D01*
X461765Y379767D01*
X461707Y379639D01*
X461653Y379511D01*
X461603Y379380D01*
X461556Y379248D01*
X461513Y379115D01*
X461474Y378981D01*
X461439Y378846D01*
X461408Y378710D01*
X461380Y378572D01*
X461357Y378435D01*
X461337Y378296D01*
X461321Y378157D01*
X461309Y378018D01*
X461301Y377879D01*
X461297Y377739D01*
X461297Y377599D01*
X461301Y377459D01*
X461309Y377320D01*
X461321Y377181D01*
X461337Y377042D01*
X461357Y376903D01*
X461380Y376766D01*
X461408Y376628D01*
X461439Y376492D01*
X461474Y376357D01*
X461513Y376223D01*
X461556Y376090D01*
X461603Y375958D01*
X461653Y375827D01*
X461707Y375699D01*
X461765Y375571D01*
X461826Y375445D01*
X461891Y375322D01*
X461959Y375200D01*
X462030Y375079D01*
X462105Y374961D01*
X462184Y374846D01*
X462265Y374732D01*
X462350Y374621D01*
X462438Y374512D01*
X462528Y374406D01*
X462622Y374302D01*
X462719Y374201D01*
X462819Y374103D01*
X462921Y374008D01*
X463026Y373916D01*
X463133Y373826D01*
X463243Y373740D01*
X463356Y373657D01*
X463470Y373577D01*
X463587Y373500D01*
X463706Y373427D01*
X463827Y373357D01*
X463950Y373291D01*
X464075Y373228D01*
X464202Y373168D01*
X464330Y373113D01*
X464459Y373061D01*
X464591Y373012D01*
X464723Y372967D01*
X464857Y372926D01*
X464991Y372889D01*
X465127Y372856D01*
X465264Y372827D01*
X465401Y372801D01*
X465539Y372779D01*
X465678Y372762D01*
X465817Y372748D01*
X465957Y372738D01*
X466096Y372732D01*
X466236Y372730D01*
X471175Y372730D01*
X465248Y372730D02*
X461297Y364828D01*
X232120Y331330D02*
X232120Y313550D01*
X232120Y331330D02*
X227182Y331330D01*
X227043Y331328D01*
X226905Y331322D01*
X226767Y331313D01*
X226629Y331299D01*
X226492Y331282D01*
X226355Y331260D01*
X226218Y331235D01*
X226083Y331206D01*
X225948Y331173D01*
X225815Y331137D01*
X225682Y331097D01*
X225551Y331053D01*
X225421Y331005D01*
X225292Y330954D01*
X225165Y330899D01*
X225039Y330841D01*
X224915Y330779D01*
X224793Y330714D01*
X224673Y330645D01*
X224554Y330573D01*
X224438Y330498D01*
X224324Y330419D01*
X224212Y330337D01*
X224103Y330252D01*
X223995Y330165D01*
X223891Y330074D01*
X223789Y329980D01*
X223690Y329883D01*
X223593Y329784D01*
X223499Y329682D01*
X223408Y329578D01*
X223321Y329470D01*
X223236Y329361D01*
X223154Y329249D01*
X223075Y329135D01*
X223000Y329019D01*
X222928Y328900D01*
X222859Y328780D01*
X222794Y328658D01*
X222732Y328534D01*
X222674Y328408D01*
X222619Y328281D01*
X222568Y328152D01*
X222520Y328022D01*
X222476Y327891D01*
X222436Y327758D01*
X222400Y327625D01*
X222367Y327490D01*
X222338Y327355D01*
X222313Y327218D01*
X222291Y327081D01*
X222274Y326944D01*
X222260Y326806D01*
X222251Y326668D01*
X222245Y326530D01*
X222243Y326391D01*
X222243Y318489D01*
X222245Y318350D01*
X222251Y318212D01*
X222260Y318074D01*
X222274Y317936D01*
X222291Y317799D01*
X222313Y317662D01*
X222338Y317525D01*
X222367Y317390D01*
X222400Y317255D01*
X222436Y317122D01*
X222476Y316989D01*
X222520Y316858D01*
X222568Y316728D01*
X222619Y316599D01*
X222674Y316472D01*
X222732Y316346D01*
X222794Y316222D01*
X222859Y316100D01*
X222928Y315980D01*
X223000Y315861D01*
X223075Y315745D01*
X223154Y315631D01*
X223236Y315519D01*
X223321Y315410D01*
X223408Y315302D01*
X223499Y315198D01*
X223593Y315096D01*
X223690Y314997D01*
X223789Y314900D01*
X223891Y314806D01*
X223995Y314715D01*
X224103Y314628D01*
X224212Y314543D01*
X224324Y314461D01*
X224438Y314382D01*
X224554Y314307D01*
X224673Y314235D01*
X224793Y314166D01*
X224915Y314101D01*
X225039Y314039D01*
X225165Y313981D01*
X225292Y313926D01*
X225421Y313875D01*
X225551Y313827D01*
X225682Y313783D01*
X225815Y313743D01*
X225948Y313707D01*
X226083Y313674D01*
X226218Y313645D01*
X226355Y313620D01*
X226492Y313598D01*
X226629Y313581D01*
X226767Y313567D01*
X226905Y313558D01*
X227043Y313552D01*
X227182Y313550D01*
X232120Y313550D01*
X228451Y339428D02*
X224500Y339428D01*
X228451Y339428D02*
X228575Y339430D01*
X228699Y339436D01*
X228823Y339446D01*
X228946Y339459D01*
X229069Y339477D01*
X229191Y339498D01*
X229313Y339523D01*
X229434Y339552D01*
X229553Y339585D01*
X229672Y339621D01*
X229789Y339662D01*
X229905Y339705D01*
X230020Y339753D01*
X230133Y339804D01*
X230245Y339859D01*
X230354Y339917D01*
X230462Y339978D01*
X230568Y340043D01*
X230672Y340111D01*
X230773Y340183D01*
X230873Y340257D01*
X230969Y340335D01*
X231064Y340415D01*
X231156Y340499D01*
X231245Y340585D01*
X231331Y340674D01*
X231415Y340766D01*
X231495Y340861D01*
X231573Y340957D01*
X231647Y341057D01*
X231719Y341158D01*
X231787Y341262D01*
X231852Y341368D01*
X231913Y341476D01*
X231971Y341585D01*
X232026Y341697D01*
X232077Y341810D01*
X232125Y341925D01*
X232168Y342041D01*
X232209Y342158D01*
X232245Y342277D01*
X232278Y342396D01*
X232307Y342517D01*
X232332Y342639D01*
X232353Y342761D01*
X232371Y342884D01*
X232384Y343007D01*
X232394Y343131D01*
X232400Y343255D01*
X232402Y343379D01*
X232402Y353257D01*
X232400Y353381D01*
X232394Y353505D01*
X232384Y353629D01*
X232371Y353752D01*
X232353Y353875D01*
X232332Y353997D01*
X232307Y354119D01*
X232278Y354240D01*
X232245Y354359D01*
X232209Y354478D01*
X232168Y354595D01*
X232125Y354711D01*
X232077Y354826D01*
X232026Y354939D01*
X231971Y355051D01*
X231913Y355160D01*
X231852Y355268D01*
X231787Y355374D01*
X231719Y355478D01*
X231647Y355579D01*
X231573Y355679D01*
X231495Y355775D01*
X231415Y355870D01*
X231331Y355962D01*
X231245Y356051D01*
X231156Y356137D01*
X231064Y356221D01*
X230969Y356301D01*
X230873Y356379D01*
X230773Y356453D01*
X230672Y356525D01*
X230568Y356593D01*
X230462Y356658D01*
X230354Y356719D01*
X230245Y356777D01*
X230133Y356832D01*
X230020Y356883D01*
X229906Y356931D01*
X229789Y356974D01*
X229672Y357015D01*
X229553Y357051D01*
X229434Y357084D01*
X229313Y357113D01*
X229191Y357138D01*
X229069Y357159D01*
X228946Y357177D01*
X228823Y357190D01*
X228699Y357200D01*
X228575Y357206D01*
X228451Y357208D01*
X224500Y357208D01*
D11*
X492049Y337254D02*
X492049Y335306D01*
X492049Y337254D02*
X485558Y337254D01*
X485558Y333359D01*
X485560Y333260D01*
X485566Y333160D01*
X485575Y333061D01*
X485588Y332963D01*
X485605Y332865D01*
X485626Y332767D01*
X485651Y332671D01*
X485679Y332576D01*
X485711Y332482D01*
X485746Y332389D01*
X485785Y332297D01*
X485828Y332207D01*
X485873Y332119D01*
X485923Y332032D01*
X485975Y331948D01*
X486031Y331865D01*
X486089Y331785D01*
X486151Y331707D01*
X486216Y331632D01*
X486284Y331559D01*
X486354Y331489D01*
X486427Y331421D01*
X486502Y331356D01*
X486580Y331294D01*
X486660Y331236D01*
X486743Y331180D01*
X486827Y331128D01*
X486914Y331078D01*
X487002Y331033D01*
X487092Y330990D01*
X487184Y330951D01*
X487277Y330916D01*
X487371Y330884D01*
X487466Y330856D01*
X487562Y330831D01*
X487660Y330810D01*
X487758Y330793D01*
X487856Y330780D01*
X487955Y330771D01*
X488055Y330765D01*
X488154Y330763D01*
X494646Y330763D01*
X494745Y330765D01*
X494845Y330771D01*
X494944Y330780D01*
X495042Y330793D01*
X495140Y330810D01*
X495238Y330831D01*
X495334Y330856D01*
X495429Y330884D01*
X495523Y330916D01*
X495616Y330951D01*
X495708Y330990D01*
X495798Y331033D01*
X495886Y331078D01*
X495973Y331128D01*
X496057Y331180D01*
X496140Y331236D01*
X496220Y331294D01*
X496298Y331356D01*
X496373Y331421D01*
X496446Y331489D01*
X496516Y331559D01*
X496584Y331632D01*
X496649Y331707D01*
X496711Y331785D01*
X496769Y331865D01*
X496825Y331948D01*
X496877Y332032D01*
X496927Y332119D01*
X496972Y332207D01*
X497015Y332297D01*
X497054Y332389D01*
X497089Y332481D01*
X497121Y332576D01*
X497149Y332671D01*
X497174Y332767D01*
X497195Y332865D01*
X497212Y332963D01*
X497225Y333061D01*
X497234Y333160D01*
X497240Y333260D01*
X497242Y333359D01*
X497242Y337254D01*
X497242Y342954D02*
X485558Y342954D01*
X485558Y349446D02*
X497242Y342954D01*
X497242Y349446D02*
X485558Y349446D01*
X485558Y355146D02*
X497242Y355146D01*
X497242Y358392D01*
X497240Y358505D01*
X497234Y358618D01*
X497224Y358731D01*
X497210Y358844D01*
X497193Y358956D01*
X497171Y359067D01*
X497146Y359177D01*
X497116Y359287D01*
X497083Y359395D01*
X497046Y359502D01*
X497006Y359608D01*
X496961Y359712D01*
X496913Y359815D01*
X496862Y359916D01*
X496807Y360015D01*
X496749Y360112D01*
X496687Y360207D01*
X496622Y360300D01*
X496554Y360390D01*
X496483Y360478D01*
X496408Y360564D01*
X496331Y360647D01*
X496251Y360727D01*
X496168Y360804D01*
X496082Y360879D01*
X495994Y360950D01*
X495904Y361018D01*
X495811Y361083D01*
X495716Y361145D01*
X495619Y361203D01*
X495520Y361258D01*
X495419Y361309D01*
X495316Y361357D01*
X495212Y361402D01*
X495106Y361442D01*
X494999Y361479D01*
X494891Y361512D01*
X494781Y361542D01*
X494671Y361567D01*
X494560Y361589D01*
X494448Y361606D01*
X494335Y361620D01*
X494222Y361630D01*
X494109Y361636D01*
X493996Y361638D01*
X488804Y361638D01*
X488691Y361636D01*
X488578Y361630D01*
X488465Y361620D01*
X488352Y361606D01*
X488240Y361589D01*
X488129Y361567D01*
X488019Y361542D01*
X487909Y361512D01*
X487801Y361479D01*
X487694Y361442D01*
X487588Y361402D01*
X487484Y361357D01*
X487381Y361309D01*
X487280Y361258D01*
X487181Y361203D01*
X487084Y361145D01*
X486989Y361083D01*
X486896Y361018D01*
X486806Y360950D01*
X486718Y360879D01*
X486632Y360804D01*
X486549Y360727D01*
X486469Y360647D01*
X486392Y360564D01*
X486317Y360478D01*
X486246Y360390D01*
X486178Y360300D01*
X486113Y360207D01*
X486051Y360112D01*
X485993Y360015D01*
X485938Y359916D01*
X485887Y359815D01*
X485839Y359712D01*
X485794Y359608D01*
X485754Y359502D01*
X485717Y359395D01*
X485684Y359287D01*
X485654Y359177D01*
X485629Y359067D01*
X485607Y358956D01*
X485590Y358844D01*
X485576Y358731D01*
X485566Y358618D01*
X485560Y358505D01*
X485558Y358392D01*
X485558Y355146D01*
X421001Y219343D02*
X419406Y218226D01*
X423129Y212908D01*
X426320Y215142D01*
X426319Y215142D02*
X426399Y215201D01*
X426477Y215263D01*
X426553Y215327D01*
X426626Y215395D01*
X426697Y215465D01*
X426764Y215538D01*
X426829Y215613D01*
X426891Y215691D01*
X426950Y215771D01*
X427006Y215853D01*
X427059Y215938D01*
X427108Y216024D01*
X427154Y216112D01*
X427197Y216202D01*
X427236Y216293D01*
X427271Y216386D01*
X427303Y216480D01*
X427332Y216576D01*
X427356Y216672D01*
X427377Y216769D01*
X427395Y216867D01*
X427408Y216966D01*
X427418Y217065D01*
X427424Y217164D01*
X427426Y217263D01*
X427424Y217363D01*
X427419Y217462D01*
X427409Y217561D01*
X427396Y217660D01*
X427380Y217758D01*
X427359Y217855D01*
X427335Y217952D01*
X427307Y218047D01*
X427275Y218141D01*
X427240Y218234D01*
X427201Y218326D01*
X427159Y218416D01*
X427113Y218504D01*
X427064Y218591D01*
X427012Y218675D01*
X426957Y218758D01*
X423234Y224076D01*
X423234Y224075D02*
X423175Y224155D01*
X423113Y224233D01*
X423049Y224309D01*
X422981Y224382D01*
X422911Y224453D01*
X422838Y224520D01*
X422763Y224585D01*
X422685Y224647D01*
X422605Y224706D01*
X422523Y224762D01*
X422438Y224815D01*
X422352Y224864D01*
X422264Y224910D01*
X422174Y224953D01*
X422083Y224992D01*
X421990Y225027D01*
X421896Y225059D01*
X421800Y225088D01*
X421704Y225112D01*
X421607Y225133D01*
X421509Y225151D01*
X421410Y225164D01*
X421311Y225174D01*
X421212Y225180D01*
X421113Y225182D01*
X421013Y225180D01*
X420914Y225175D01*
X420815Y225166D01*
X420716Y225152D01*
X420618Y225136D01*
X420521Y225115D01*
X420424Y225091D01*
X420329Y225063D01*
X420235Y225031D01*
X420142Y224996D01*
X420050Y224957D01*
X419960Y224915D01*
X419872Y224869D01*
X419785Y224820D01*
X419701Y224768D01*
X419618Y224713D01*
X416428Y222479D01*
X411758Y219209D02*
X418459Y209639D01*
X413142Y205915D02*
X411758Y219209D01*
X406441Y215486D02*
X413142Y205915D01*
X408472Y202645D02*
X401771Y212216D01*
X399112Y210355D01*
X399021Y210288D01*
X398931Y210219D01*
X398844Y210146D01*
X398760Y210070D01*
X398679Y209991D01*
X398600Y209910D01*
X398524Y209826D01*
X398451Y209739D01*
X398382Y209650D01*
X398315Y209558D01*
X398252Y209464D01*
X398192Y209368D01*
X398135Y209270D01*
X398082Y209170D01*
X398032Y209068D01*
X397986Y208964D01*
X397944Y208859D01*
X397905Y208753D01*
X397870Y208645D01*
X397839Y208536D01*
X397811Y208426D01*
X397788Y208315D01*
X397768Y208204D01*
X397752Y208092D01*
X397740Y207979D01*
X397732Y207866D01*
X397728Y207753D01*
X397728Y207639D01*
X397732Y207526D01*
X397740Y207413D01*
X397752Y207300D01*
X397768Y207188D01*
X397788Y207077D01*
X397811Y206966D01*
X397839Y206856D01*
X397870Y206747D01*
X397905Y206639D01*
X397944Y206533D01*
X397986Y206428D01*
X398032Y206324D01*
X398082Y206222D01*
X398135Y206122D01*
X398192Y206024D01*
X398252Y205928D01*
X398315Y205834D01*
X398315Y205835D02*
X401294Y201581D01*
X401293Y201580D02*
X401360Y201489D01*
X401429Y201399D01*
X401502Y201312D01*
X401578Y201228D01*
X401657Y201147D01*
X401738Y201068D01*
X401822Y200992D01*
X401909Y200919D01*
X401999Y200850D01*
X402090Y200783D01*
X402184Y200720D01*
X402280Y200660D01*
X402378Y200603D01*
X402478Y200550D01*
X402580Y200500D01*
X402684Y200454D01*
X402789Y200412D01*
X402895Y200373D01*
X403003Y200338D01*
X403112Y200307D01*
X403222Y200279D01*
X403333Y200256D01*
X403444Y200236D01*
X403556Y200220D01*
X403669Y200208D01*
X403782Y200200D01*
X403895Y200196D01*
X404009Y200196D01*
X404122Y200200D01*
X404235Y200208D01*
X404348Y200220D01*
X404460Y200236D01*
X404571Y200256D01*
X404682Y200279D01*
X404792Y200307D01*
X404901Y200338D01*
X405009Y200373D01*
X405115Y200412D01*
X405220Y200454D01*
X405324Y200500D01*
X405426Y200550D01*
X405526Y200603D01*
X405624Y200660D01*
X405720Y200720D01*
X405814Y200783D01*
X405814Y200784D02*
X408472Y202645D01*
X284484Y211608D02*
X282888Y212725D01*
X279165Y207408D01*
X282356Y205174D01*
X282439Y205119D01*
X282523Y205067D01*
X282610Y205018D01*
X282698Y204972D01*
X282788Y204930D01*
X282880Y204891D01*
X282973Y204856D01*
X283067Y204824D01*
X283162Y204796D01*
X283259Y204772D01*
X283356Y204751D01*
X283454Y204735D01*
X283553Y204721D01*
X283652Y204712D01*
X283751Y204707D01*
X283851Y204705D01*
X283950Y204707D01*
X284049Y204713D01*
X284148Y204723D01*
X284247Y204736D01*
X284345Y204754D01*
X284442Y204775D01*
X284538Y204799D01*
X284634Y204828D01*
X284728Y204860D01*
X284821Y204895D01*
X284912Y204934D01*
X285002Y204977D01*
X285090Y205023D01*
X285176Y205072D01*
X285261Y205125D01*
X285343Y205181D01*
X285423Y205240D01*
X285501Y205302D01*
X285576Y205367D01*
X285649Y205434D01*
X285719Y205505D01*
X285787Y205578D01*
X285851Y205654D01*
X285913Y205732D01*
X285972Y205812D01*
X289695Y211129D01*
X289750Y211212D01*
X289802Y211296D01*
X289851Y211383D01*
X289897Y211471D01*
X289939Y211561D01*
X289978Y211653D01*
X290013Y211746D01*
X290045Y211840D01*
X290073Y211935D01*
X290097Y212032D01*
X290118Y212129D01*
X290134Y212227D01*
X290148Y212326D01*
X290157Y212425D01*
X290162Y212524D01*
X290164Y212624D01*
X290162Y212723D01*
X290156Y212822D01*
X290146Y212921D01*
X290133Y213020D01*
X290115Y213118D01*
X290094Y213215D01*
X290070Y213311D01*
X290041Y213407D01*
X290009Y213501D01*
X289974Y213594D01*
X289935Y213685D01*
X289892Y213775D01*
X289846Y213863D01*
X289797Y213949D01*
X289744Y214034D01*
X289688Y214116D01*
X289629Y214196D01*
X289567Y214274D01*
X289502Y214349D01*
X289435Y214422D01*
X289364Y214492D01*
X289291Y214560D01*
X289215Y214624D01*
X289137Y214686D01*
X289057Y214745D01*
X285867Y216979D01*
X281197Y220249D02*
X274495Y210678D01*
X269178Y214401D02*
X281197Y220249D01*
X275880Y223972D02*
X269178Y214401D01*
X264508Y217671D02*
X271210Y227242D01*
X268551Y229103D01*
X268552Y229104D02*
X268458Y229167D01*
X268362Y229227D01*
X268264Y229284D01*
X268164Y229337D01*
X268062Y229387D01*
X267958Y229433D01*
X267853Y229475D01*
X267747Y229514D01*
X267639Y229549D01*
X267530Y229580D01*
X267420Y229608D01*
X267309Y229631D01*
X267198Y229651D01*
X267086Y229667D01*
X266973Y229679D01*
X266860Y229687D01*
X266747Y229691D01*
X266633Y229691D01*
X266520Y229687D01*
X266407Y229679D01*
X266294Y229667D01*
X266182Y229651D01*
X266071Y229631D01*
X265960Y229608D01*
X265850Y229580D01*
X265741Y229549D01*
X265633Y229514D01*
X265527Y229475D01*
X265422Y229433D01*
X265318Y229387D01*
X265216Y229337D01*
X265116Y229284D01*
X265018Y229227D01*
X264922Y229167D01*
X264828Y229104D01*
X264737Y229037D01*
X264647Y228968D01*
X264560Y228895D01*
X264476Y228819D01*
X264395Y228740D01*
X264316Y228659D01*
X264240Y228575D01*
X264167Y228488D01*
X264098Y228399D01*
X264031Y228307D01*
X264031Y228306D02*
X261053Y224053D01*
X261052Y224053D02*
X260989Y223959D01*
X260929Y223863D01*
X260872Y223765D01*
X260819Y223665D01*
X260769Y223563D01*
X260723Y223459D01*
X260681Y223354D01*
X260642Y223248D01*
X260607Y223140D01*
X260576Y223031D01*
X260548Y222921D01*
X260525Y222810D01*
X260505Y222699D01*
X260489Y222587D01*
X260477Y222474D01*
X260469Y222361D01*
X260465Y222248D01*
X260465Y222134D01*
X260469Y222021D01*
X260477Y221908D01*
X260489Y221795D01*
X260505Y221683D01*
X260525Y221572D01*
X260548Y221461D01*
X260576Y221351D01*
X260607Y221242D01*
X260642Y221134D01*
X260681Y221028D01*
X260723Y220923D01*
X260769Y220819D01*
X260819Y220717D01*
X260872Y220617D01*
X260929Y220519D01*
X260989Y220423D01*
X261052Y220329D01*
X261119Y220237D01*
X261188Y220148D01*
X261261Y220061D01*
X261337Y219977D01*
X261416Y219896D01*
X261497Y219817D01*
X261581Y219741D01*
X261668Y219668D01*
X261758Y219599D01*
X261849Y219532D01*
X261850Y219532D02*
X264508Y217671D01*
X201649Y335306D02*
X201649Y337254D01*
X195158Y337254D01*
X195158Y333359D01*
X195160Y333260D01*
X195166Y333160D01*
X195175Y333061D01*
X195188Y332963D01*
X195205Y332865D01*
X195226Y332767D01*
X195251Y332671D01*
X195279Y332576D01*
X195311Y332482D01*
X195346Y332389D01*
X195385Y332297D01*
X195428Y332207D01*
X195473Y332119D01*
X195523Y332032D01*
X195575Y331948D01*
X195631Y331865D01*
X195689Y331785D01*
X195751Y331707D01*
X195816Y331632D01*
X195884Y331559D01*
X195954Y331489D01*
X196027Y331421D01*
X196102Y331356D01*
X196180Y331294D01*
X196260Y331236D01*
X196343Y331180D01*
X196427Y331128D01*
X196514Y331078D01*
X196602Y331033D01*
X196692Y330990D01*
X196784Y330951D01*
X196877Y330916D01*
X196971Y330884D01*
X197066Y330856D01*
X197162Y330831D01*
X197260Y330810D01*
X197358Y330793D01*
X197456Y330780D01*
X197555Y330771D01*
X197655Y330765D01*
X197754Y330763D01*
X204246Y330763D01*
X204345Y330765D01*
X204445Y330771D01*
X204544Y330780D01*
X204642Y330793D01*
X204740Y330810D01*
X204838Y330831D01*
X204934Y330856D01*
X205029Y330884D01*
X205123Y330916D01*
X205216Y330951D01*
X205308Y330990D01*
X205398Y331033D01*
X205486Y331078D01*
X205573Y331128D01*
X205657Y331180D01*
X205740Y331236D01*
X205820Y331294D01*
X205898Y331356D01*
X205973Y331421D01*
X206046Y331489D01*
X206116Y331559D01*
X206184Y331632D01*
X206249Y331707D01*
X206311Y331785D01*
X206369Y331865D01*
X206425Y331948D01*
X206477Y332032D01*
X206527Y332119D01*
X206572Y332207D01*
X206615Y332297D01*
X206654Y332389D01*
X206689Y332481D01*
X206721Y332576D01*
X206749Y332671D01*
X206774Y332767D01*
X206795Y332865D01*
X206812Y332963D01*
X206825Y333061D01*
X206834Y333160D01*
X206840Y333260D01*
X206842Y333359D01*
X206842Y337254D01*
X206842Y342954D02*
X195158Y342954D01*
X195158Y349446D02*
X206842Y342954D01*
X206842Y349446D02*
X195158Y349446D01*
X195158Y355146D02*
X206842Y355146D01*
X206842Y358392D01*
X206840Y358505D01*
X206834Y358618D01*
X206824Y358731D01*
X206810Y358844D01*
X206793Y358956D01*
X206771Y359067D01*
X206746Y359177D01*
X206716Y359287D01*
X206683Y359395D01*
X206646Y359502D01*
X206606Y359608D01*
X206561Y359712D01*
X206513Y359815D01*
X206462Y359916D01*
X206407Y360015D01*
X206349Y360112D01*
X206287Y360207D01*
X206222Y360300D01*
X206154Y360390D01*
X206083Y360478D01*
X206008Y360564D01*
X205931Y360647D01*
X205851Y360727D01*
X205768Y360804D01*
X205682Y360879D01*
X205594Y360950D01*
X205504Y361018D01*
X205411Y361083D01*
X205316Y361145D01*
X205219Y361203D01*
X205120Y361258D01*
X205019Y361309D01*
X204916Y361357D01*
X204812Y361402D01*
X204706Y361442D01*
X204599Y361479D01*
X204491Y361512D01*
X204381Y361542D01*
X204271Y361567D01*
X204160Y361589D01*
X204048Y361606D01*
X203935Y361620D01*
X203822Y361630D01*
X203709Y361636D01*
X203596Y361638D01*
X198404Y361638D01*
X198291Y361636D01*
X198178Y361630D01*
X198065Y361620D01*
X197952Y361606D01*
X197840Y361589D01*
X197729Y361567D01*
X197619Y361542D01*
X197509Y361512D01*
X197401Y361479D01*
X197294Y361442D01*
X197188Y361402D01*
X197084Y361357D01*
X196981Y361309D01*
X196880Y361258D01*
X196781Y361203D01*
X196684Y361145D01*
X196589Y361083D01*
X196496Y361018D01*
X196406Y360950D01*
X196318Y360879D01*
X196232Y360804D01*
X196149Y360727D01*
X196069Y360647D01*
X195992Y360564D01*
X195917Y360478D01*
X195846Y360390D01*
X195778Y360300D01*
X195713Y360207D01*
X195651Y360112D01*
X195593Y360015D01*
X195538Y359916D01*
X195487Y359815D01*
X195439Y359712D01*
X195394Y359608D01*
X195354Y359502D01*
X195317Y359395D01*
X195284Y359287D01*
X195254Y359177D01*
X195229Y359067D01*
X195207Y358956D01*
X195190Y358844D01*
X195176Y358731D01*
X195166Y358618D01*
X195160Y358505D01*
X195158Y358392D01*
X195158Y355146D01*
D10*
X449281Y396015D02*
X449281Y413795D01*
X444343Y413795D01*
X444203Y413793D01*
X444064Y413787D01*
X443924Y413777D01*
X443785Y413763D01*
X443646Y413746D01*
X443508Y413724D01*
X443371Y413698D01*
X443234Y413669D01*
X443098Y413636D01*
X442964Y413599D01*
X442830Y413558D01*
X442698Y413513D01*
X442566Y413464D01*
X442437Y413412D01*
X442309Y413357D01*
X442182Y413297D01*
X442057Y413234D01*
X441934Y413168D01*
X441813Y413098D01*
X441694Y413025D01*
X441577Y412948D01*
X441463Y412868D01*
X441350Y412785D01*
X441240Y412699D01*
X441133Y412609D01*
X441028Y412517D01*
X440926Y412422D01*
X440826Y412324D01*
X440729Y412223D01*
X440635Y412119D01*
X440545Y412013D01*
X440457Y411904D01*
X440372Y411793D01*
X440291Y411679D01*
X440212Y411564D01*
X440137Y411446D01*
X440066Y411326D01*
X439998Y411203D01*
X439933Y411080D01*
X439872Y410954D01*
X439814Y410826D01*
X439760Y410698D01*
X439710Y410567D01*
X439663Y410435D01*
X439620Y410302D01*
X439581Y410168D01*
X439546Y410033D01*
X439515Y409897D01*
X439487Y409759D01*
X439464Y409622D01*
X439444Y409483D01*
X439428Y409344D01*
X439416Y409205D01*
X439408Y409066D01*
X439404Y408926D01*
X439404Y408786D01*
X439408Y408646D01*
X439416Y408507D01*
X439428Y408368D01*
X439444Y408229D01*
X439464Y408090D01*
X439487Y407953D01*
X439515Y407815D01*
X439546Y407679D01*
X439581Y407544D01*
X439620Y407410D01*
X439663Y407277D01*
X439710Y407145D01*
X439760Y407014D01*
X439814Y406886D01*
X439872Y406758D01*
X439933Y406632D01*
X439998Y406509D01*
X440066Y406387D01*
X440137Y406266D01*
X440212Y406148D01*
X440291Y406033D01*
X440372Y405919D01*
X440457Y405808D01*
X440545Y405699D01*
X440635Y405593D01*
X440729Y405489D01*
X440826Y405388D01*
X440926Y405290D01*
X441028Y405195D01*
X441133Y405103D01*
X441240Y405013D01*
X441350Y404927D01*
X441463Y404844D01*
X441577Y404764D01*
X441694Y404687D01*
X441813Y404614D01*
X441934Y404544D01*
X442057Y404478D01*
X442182Y404415D01*
X442309Y404355D01*
X442437Y404300D01*
X442566Y404248D01*
X442698Y404199D01*
X442830Y404154D01*
X442964Y404113D01*
X443098Y404076D01*
X443234Y404043D01*
X443371Y404014D01*
X443508Y403988D01*
X443646Y403966D01*
X443785Y403949D01*
X443924Y403935D01*
X444064Y403925D01*
X444203Y403919D01*
X444343Y403917D01*
X449281Y403917D01*
X433286Y409844D02*
X428347Y413795D01*
X428347Y396015D01*
X423409Y396015D02*
X433286Y396015D01*
X457268Y266489D02*
X457268Y248709D01*
X457268Y266489D02*
X452329Y266489D01*
X452189Y266487D01*
X452050Y266481D01*
X451910Y266471D01*
X451771Y266457D01*
X451632Y266440D01*
X451494Y266418D01*
X451357Y266392D01*
X451220Y266363D01*
X451084Y266330D01*
X450950Y266293D01*
X450816Y266252D01*
X450684Y266207D01*
X450552Y266158D01*
X450423Y266106D01*
X450295Y266051D01*
X450168Y265991D01*
X450043Y265928D01*
X449920Y265862D01*
X449799Y265792D01*
X449680Y265719D01*
X449563Y265642D01*
X449449Y265562D01*
X449336Y265479D01*
X449226Y265393D01*
X449119Y265303D01*
X449014Y265211D01*
X448912Y265116D01*
X448812Y265018D01*
X448715Y264917D01*
X448621Y264813D01*
X448531Y264707D01*
X448443Y264598D01*
X448358Y264487D01*
X448277Y264373D01*
X448198Y264258D01*
X448123Y264140D01*
X448052Y264020D01*
X447984Y263897D01*
X447919Y263774D01*
X447858Y263648D01*
X447800Y263520D01*
X447746Y263392D01*
X447696Y263261D01*
X447649Y263129D01*
X447606Y262996D01*
X447567Y262862D01*
X447532Y262727D01*
X447501Y262591D01*
X447473Y262453D01*
X447450Y262316D01*
X447430Y262177D01*
X447414Y262038D01*
X447402Y261899D01*
X447394Y261760D01*
X447390Y261620D01*
X447390Y261480D01*
X447394Y261340D01*
X447402Y261201D01*
X447414Y261062D01*
X447430Y260923D01*
X447450Y260784D01*
X447473Y260647D01*
X447501Y260509D01*
X447532Y260373D01*
X447567Y260238D01*
X447606Y260104D01*
X447649Y259971D01*
X447696Y259839D01*
X447746Y259708D01*
X447800Y259580D01*
X447858Y259452D01*
X447919Y259326D01*
X447984Y259203D01*
X448052Y259080D01*
X448123Y258960D01*
X448198Y258842D01*
X448277Y258727D01*
X448358Y258613D01*
X448443Y258502D01*
X448531Y258393D01*
X448621Y258287D01*
X448715Y258183D01*
X448812Y258082D01*
X448912Y257984D01*
X449014Y257889D01*
X449119Y257797D01*
X449226Y257707D01*
X449336Y257621D01*
X449449Y257538D01*
X449563Y257458D01*
X449680Y257381D01*
X449799Y257308D01*
X449920Y257238D01*
X450043Y257172D01*
X450168Y257109D01*
X450295Y257049D01*
X450423Y256994D01*
X450552Y256942D01*
X450684Y256893D01*
X450816Y256848D01*
X450950Y256807D01*
X451084Y256770D01*
X451220Y256737D01*
X451357Y256708D01*
X451494Y256682D01*
X451632Y256660D01*
X451771Y256643D01*
X451910Y256629D01*
X452050Y256619D01*
X452189Y256613D01*
X452329Y256611D01*
X457268Y256611D01*
X435841Y266489D02*
X435709Y266487D01*
X435578Y266481D01*
X435446Y266471D01*
X435315Y266458D01*
X435185Y266440D01*
X435055Y266419D01*
X434925Y266394D01*
X434797Y266365D01*
X434669Y266332D01*
X434543Y266295D01*
X434417Y266255D01*
X434293Y266211D01*
X434170Y266163D01*
X434049Y266112D01*
X433929Y266057D01*
X433811Y265999D01*
X433695Y265937D01*
X433581Y265871D01*
X433468Y265803D01*
X433358Y265731D01*
X433250Y265656D01*
X433144Y265577D01*
X433040Y265496D01*
X432939Y265411D01*
X432841Y265324D01*
X432745Y265233D01*
X432652Y265140D01*
X432561Y265044D01*
X432474Y264946D01*
X432389Y264845D01*
X432308Y264741D01*
X432229Y264635D01*
X432154Y264527D01*
X432082Y264417D01*
X432014Y264304D01*
X431948Y264190D01*
X431886Y264074D01*
X431828Y263956D01*
X431773Y263836D01*
X431722Y263715D01*
X431674Y263592D01*
X431630Y263468D01*
X431590Y263342D01*
X431553Y263216D01*
X431520Y263088D01*
X431491Y262960D01*
X431466Y262830D01*
X431445Y262700D01*
X431427Y262570D01*
X431414Y262439D01*
X431404Y262307D01*
X431398Y262176D01*
X431396Y262044D01*
X435841Y266490D02*
X435991Y266488D01*
X436140Y266482D01*
X436289Y266472D01*
X436438Y266459D01*
X436587Y266441D01*
X436735Y266420D01*
X436883Y266394D01*
X437029Y266365D01*
X437175Y266332D01*
X437320Y266295D01*
X437464Y266254D01*
X437607Y266210D01*
X437749Y266162D01*
X437889Y266110D01*
X438028Y266055D01*
X438166Y265996D01*
X438301Y265933D01*
X438436Y265867D01*
X438568Y265797D01*
X438698Y265724D01*
X438827Y265647D01*
X438954Y265567D01*
X439078Y265484D01*
X439200Y265398D01*
X439320Y265308D01*
X439437Y265215D01*
X439552Y265120D01*
X439665Y265021D01*
X439775Y264919D01*
X439882Y264815D01*
X439986Y264708D01*
X440088Y264598D01*
X440186Y264485D01*
X440282Y264370D01*
X440374Y264252D01*
X440464Y264132D01*
X440550Y264010D01*
X440633Y263886D01*
X440713Y263759D01*
X440789Y263631D01*
X440862Y263500D01*
X440932Y263367D01*
X440998Y263233D01*
X441060Y263097D01*
X441119Y262960D01*
X441175Y262821D01*
X441226Y262680D01*
X441274Y262539D01*
X432878Y258587D02*
X432782Y258680D01*
X432690Y258776D01*
X432600Y258875D01*
X432513Y258976D01*
X432429Y259079D01*
X432347Y259184D01*
X432269Y259292D01*
X432194Y259402D01*
X432121Y259514D01*
X432052Y259628D01*
X431986Y259744D01*
X431924Y259862D01*
X431865Y259981D01*
X431809Y260102D01*
X431756Y260225D01*
X431707Y260349D01*
X431662Y260474D01*
X431619Y260601D01*
X431581Y260728D01*
X431546Y260857D01*
X431515Y260986D01*
X431487Y261117D01*
X431463Y261248D01*
X431442Y261380D01*
X431426Y261512D01*
X431413Y261645D01*
X431403Y261778D01*
X431398Y261911D01*
X431396Y262044D01*
X432877Y258587D02*
X441273Y248709D01*
X431396Y248709D01*
X419026Y255624D02*
X419026Y261550D01*
X419026Y255624D02*
X415568Y251179D01*
X419026Y255624D02*
X422483Y251179D01*
X419026Y255624D02*
X413593Y257599D01*
X419026Y255624D02*
X424458Y257599D01*
X356279Y234125D02*
X356279Y216345D01*
X356279Y234125D02*
X351340Y234125D01*
X351200Y234123D01*
X351061Y234117D01*
X350921Y234107D01*
X350782Y234093D01*
X350643Y234076D01*
X350505Y234054D01*
X350368Y234028D01*
X350231Y233999D01*
X350095Y233966D01*
X349961Y233929D01*
X349827Y233888D01*
X349695Y233843D01*
X349563Y233794D01*
X349434Y233742D01*
X349306Y233687D01*
X349179Y233627D01*
X349054Y233564D01*
X348931Y233498D01*
X348810Y233428D01*
X348691Y233355D01*
X348574Y233278D01*
X348460Y233198D01*
X348347Y233115D01*
X348237Y233029D01*
X348130Y232939D01*
X348025Y232847D01*
X347923Y232752D01*
X347823Y232654D01*
X347726Y232553D01*
X347632Y232449D01*
X347542Y232343D01*
X347454Y232234D01*
X347369Y232123D01*
X347288Y232009D01*
X347209Y231894D01*
X347134Y231776D01*
X347063Y231656D01*
X346995Y231533D01*
X346930Y231410D01*
X346869Y231284D01*
X346811Y231156D01*
X346757Y231028D01*
X346707Y230897D01*
X346660Y230765D01*
X346617Y230632D01*
X346578Y230498D01*
X346543Y230363D01*
X346512Y230227D01*
X346484Y230089D01*
X346461Y229952D01*
X346441Y229813D01*
X346425Y229674D01*
X346413Y229535D01*
X346405Y229396D01*
X346401Y229256D01*
X346401Y229116D01*
X346405Y228976D01*
X346413Y228837D01*
X346425Y228698D01*
X346441Y228559D01*
X346461Y228420D01*
X346484Y228283D01*
X346512Y228145D01*
X346543Y228009D01*
X346578Y227874D01*
X346617Y227740D01*
X346660Y227607D01*
X346707Y227475D01*
X346757Y227344D01*
X346811Y227216D01*
X346869Y227088D01*
X346930Y226962D01*
X346995Y226839D01*
X347063Y226716D01*
X347134Y226596D01*
X347209Y226478D01*
X347288Y226363D01*
X347369Y226249D01*
X347454Y226138D01*
X347542Y226029D01*
X347632Y225923D01*
X347726Y225819D01*
X347823Y225718D01*
X347923Y225620D01*
X348025Y225525D01*
X348130Y225433D01*
X348237Y225343D01*
X348347Y225257D01*
X348460Y225174D01*
X348574Y225094D01*
X348691Y225017D01*
X348810Y224944D01*
X348931Y224874D01*
X349054Y224808D01*
X349179Y224745D01*
X349306Y224685D01*
X349434Y224630D01*
X349563Y224578D01*
X349695Y224529D01*
X349827Y224484D01*
X349961Y224443D01*
X350095Y224406D01*
X350231Y224373D01*
X350368Y224344D01*
X350505Y224318D01*
X350643Y224296D01*
X350782Y224279D01*
X350921Y224265D01*
X351061Y224255D01*
X351200Y224249D01*
X351340Y224247D01*
X356279Y224247D01*
X340284Y216345D02*
X335345Y216345D01*
X335205Y216347D01*
X335066Y216353D01*
X334926Y216363D01*
X334787Y216377D01*
X334648Y216394D01*
X334510Y216416D01*
X334373Y216442D01*
X334236Y216471D01*
X334100Y216504D01*
X333966Y216541D01*
X333832Y216582D01*
X333700Y216627D01*
X333568Y216676D01*
X333439Y216728D01*
X333311Y216783D01*
X333184Y216843D01*
X333059Y216906D01*
X332936Y216972D01*
X332815Y217042D01*
X332696Y217115D01*
X332579Y217192D01*
X332465Y217272D01*
X332352Y217355D01*
X332242Y217441D01*
X332135Y217531D01*
X332030Y217623D01*
X331928Y217718D01*
X331828Y217816D01*
X331731Y217917D01*
X331637Y218021D01*
X331547Y218127D01*
X331459Y218236D01*
X331374Y218347D01*
X331293Y218461D01*
X331214Y218576D01*
X331139Y218694D01*
X331068Y218814D01*
X331000Y218937D01*
X330935Y219060D01*
X330874Y219186D01*
X330816Y219314D01*
X330762Y219442D01*
X330712Y219573D01*
X330665Y219705D01*
X330622Y219838D01*
X330583Y219972D01*
X330548Y220107D01*
X330517Y220243D01*
X330489Y220381D01*
X330466Y220518D01*
X330446Y220657D01*
X330430Y220796D01*
X330418Y220935D01*
X330410Y221074D01*
X330406Y221214D01*
X330406Y221354D01*
X330410Y221494D01*
X330418Y221633D01*
X330430Y221772D01*
X330446Y221911D01*
X330466Y222050D01*
X330489Y222187D01*
X330517Y222325D01*
X330548Y222461D01*
X330583Y222596D01*
X330622Y222730D01*
X330665Y222863D01*
X330712Y222995D01*
X330762Y223126D01*
X330816Y223254D01*
X330874Y223382D01*
X330935Y223508D01*
X331000Y223631D01*
X331068Y223754D01*
X331139Y223874D01*
X331214Y223992D01*
X331293Y224107D01*
X331374Y224221D01*
X331459Y224332D01*
X331547Y224441D01*
X331637Y224547D01*
X331731Y224651D01*
X331828Y224752D01*
X331928Y224850D01*
X332030Y224945D01*
X332135Y225037D01*
X332242Y225127D01*
X332352Y225213D01*
X332465Y225296D01*
X332579Y225376D01*
X332696Y225453D01*
X332815Y225526D01*
X332936Y225596D01*
X333059Y225662D01*
X333184Y225725D01*
X333311Y225785D01*
X333439Y225840D01*
X333568Y225892D01*
X333700Y225941D01*
X333832Y225986D01*
X333966Y226027D01*
X334100Y226064D01*
X334236Y226097D01*
X334373Y226126D01*
X334510Y226152D01*
X334648Y226174D01*
X334787Y226191D01*
X334926Y226205D01*
X335066Y226215D01*
X335205Y226221D01*
X335345Y226223D01*
X334357Y234125D02*
X340284Y234125D01*
X334357Y234125D02*
X334233Y234123D01*
X334109Y234117D01*
X333985Y234107D01*
X333862Y234094D01*
X333739Y234076D01*
X333617Y234055D01*
X333495Y234030D01*
X333374Y234001D01*
X333255Y233968D01*
X333136Y233932D01*
X333019Y233891D01*
X332903Y233848D01*
X332788Y233800D01*
X332675Y233749D01*
X332563Y233694D01*
X332454Y233636D01*
X332346Y233575D01*
X332240Y233510D01*
X332136Y233442D01*
X332035Y233370D01*
X331935Y233296D01*
X331839Y233218D01*
X331744Y233138D01*
X331652Y233054D01*
X331563Y232968D01*
X331477Y232879D01*
X331393Y232787D01*
X331313Y232692D01*
X331235Y232596D01*
X331161Y232496D01*
X331089Y232395D01*
X331021Y232291D01*
X330956Y232185D01*
X330895Y232077D01*
X330837Y231968D01*
X330782Y231856D01*
X330731Y231743D01*
X330683Y231628D01*
X330640Y231512D01*
X330599Y231395D01*
X330563Y231276D01*
X330530Y231157D01*
X330501Y231036D01*
X330476Y230914D01*
X330455Y230792D01*
X330437Y230669D01*
X330424Y230546D01*
X330414Y230422D01*
X330408Y230298D01*
X330406Y230174D01*
X330408Y230050D01*
X330414Y229926D01*
X330424Y229802D01*
X330437Y229679D01*
X330455Y229556D01*
X330476Y229434D01*
X330501Y229312D01*
X330530Y229191D01*
X330563Y229072D01*
X330599Y228953D01*
X330640Y228836D01*
X330683Y228720D01*
X330731Y228605D01*
X330782Y228492D01*
X330837Y228380D01*
X330895Y228271D01*
X330956Y228163D01*
X331021Y228057D01*
X331089Y227953D01*
X331161Y227852D01*
X331235Y227752D01*
X331313Y227656D01*
X331393Y227561D01*
X331477Y227469D01*
X331563Y227380D01*
X331652Y227294D01*
X331744Y227210D01*
X331839Y227130D01*
X331935Y227052D01*
X332035Y226978D01*
X332136Y226906D01*
X332240Y226838D01*
X332346Y226773D01*
X332454Y226712D01*
X332563Y226654D01*
X332675Y226599D01*
X332788Y226548D01*
X332903Y226500D01*
X333019Y226457D01*
X333136Y226416D01*
X333255Y226380D01*
X333374Y226347D01*
X333495Y226318D01*
X333617Y226293D01*
X333739Y226272D01*
X333862Y226254D01*
X333985Y226241D01*
X334109Y226231D01*
X334233Y226225D01*
X334357Y226223D01*
X338308Y226223D01*
X252824Y283596D02*
X252824Y301376D01*
X247885Y301376D01*
X247745Y301374D01*
X247606Y301368D01*
X247466Y301358D01*
X247327Y301344D01*
X247188Y301327D01*
X247050Y301305D01*
X246913Y301279D01*
X246776Y301250D01*
X246640Y301217D01*
X246506Y301180D01*
X246372Y301139D01*
X246240Y301094D01*
X246108Y301045D01*
X245979Y300993D01*
X245851Y300938D01*
X245724Y300878D01*
X245599Y300815D01*
X245476Y300749D01*
X245355Y300679D01*
X245236Y300606D01*
X245119Y300529D01*
X245005Y300449D01*
X244892Y300366D01*
X244782Y300280D01*
X244675Y300190D01*
X244570Y300098D01*
X244468Y300003D01*
X244368Y299905D01*
X244271Y299804D01*
X244177Y299700D01*
X244087Y299594D01*
X243999Y299485D01*
X243914Y299374D01*
X243833Y299260D01*
X243754Y299145D01*
X243679Y299027D01*
X243608Y298907D01*
X243540Y298784D01*
X243475Y298661D01*
X243414Y298535D01*
X243356Y298407D01*
X243302Y298279D01*
X243252Y298148D01*
X243205Y298016D01*
X243162Y297883D01*
X243123Y297749D01*
X243088Y297614D01*
X243057Y297478D01*
X243029Y297340D01*
X243006Y297203D01*
X242986Y297064D01*
X242970Y296925D01*
X242958Y296786D01*
X242950Y296647D01*
X242946Y296507D01*
X242946Y296367D01*
X242950Y296227D01*
X242958Y296088D01*
X242970Y295949D01*
X242986Y295810D01*
X243006Y295671D01*
X243029Y295534D01*
X243057Y295396D01*
X243088Y295260D01*
X243123Y295125D01*
X243162Y294991D01*
X243205Y294858D01*
X243252Y294726D01*
X243302Y294595D01*
X243356Y294467D01*
X243414Y294339D01*
X243475Y294213D01*
X243540Y294090D01*
X243608Y293968D01*
X243679Y293847D01*
X243754Y293729D01*
X243833Y293614D01*
X243914Y293500D01*
X243999Y293389D01*
X244087Y293280D01*
X244177Y293174D01*
X244271Y293070D01*
X244368Y292969D01*
X244468Y292871D01*
X244570Y292776D01*
X244675Y292684D01*
X244782Y292594D01*
X244892Y292508D01*
X245005Y292425D01*
X245119Y292345D01*
X245236Y292268D01*
X245355Y292195D01*
X245476Y292125D01*
X245599Y292059D01*
X245724Y291996D01*
X245851Y291936D01*
X245979Y291881D01*
X246108Y291829D01*
X246240Y291780D01*
X246372Y291735D01*
X246506Y291694D01*
X246640Y291657D01*
X246776Y291624D01*
X246913Y291595D01*
X247050Y291569D01*
X247188Y291547D01*
X247327Y291530D01*
X247466Y291516D01*
X247606Y291506D01*
X247745Y291500D01*
X247885Y291498D01*
X252824Y291498D01*
X236829Y287547D02*
X232878Y301376D01*
X236829Y287547D02*
X226952Y287547D01*
X229915Y291498D02*
X229915Y283596D01*
X266769Y401095D02*
X266769Y418875D01*
X261830Y418875D01*
X261690Y418873D01*
X261551Y418867D01*
X261411Y418857D01*
X261272Y418843D01*
X261133Y418826D01*
X260995Y418804D01*
X260858Y418778D01*
X260721Y418749D01*
X260585Y418716D01*
X260451Y418679D01*
X260317Y418638D01*
X260185Y418593D01*
X260053Y418544D01*
X259924Y418492D01*
X259796Y418437D01*
X259669Y418377D01*
X259544Y418314D01*
X259421Y418248D01*
X259300Y418178D01*
X259181Y418105D01*
X259064Y418028D01*
X258950Y417948D01*
X258837Y417865D01*
X258727Y417779D01*
X258620Y417689D01*
X258515Y417597D01*
X258413Y417502D01*
X258313Y417404D01*
X258216Y417303D01*
X258122Y417199D01*
X258032Y417093D01*
X257944Y416984D01*
X257859Y416873D01*
X257778Y416759D01*
X257699Y416644D01*
X257624Y416526D01*
X257553Y416406D01*
X257485Y416283D01*
X257420Y416160D01*
X257359Y416034D01*
X257301Y415906D01*
X257247Y415778D01*
X257197Y415647D01*
X257150Y415515D01*
X257107Y415382D01*
X257068Y415248D01*
X257033Y415113D01*
X257002Y414977D01*
X256974Y414839D01*
X256951Y414702D01*
X256931Y414563D01*
X256915Y414424D01*
X256903Y414285D01*
X256895Y414146D01*
X256891Y414006D01*
X256891Y413866D01*
X256895Y413726D01*
X256903Y413587D01*
X256915Y413448D01*
X256931Y413309D01*
X256951Y413170D01*
X256974Y413033D01*
X257002Y412895D01*
X257033Y412759D01*
X257068Y412624D01*
X257107Y412490D01*
X257150Y412357D01*
X257197Y412225D01*
X257247Y412094D01*
X257301Y411966D01*
X257359Y411838D01*
X257420Y411712D01*
X257485Y411589D01*
X257553Y411467D01*
X257624Y411346D01*
X257699Y411228D01*
X257778Y411113D01*
X257859Y410999D01*
X257944Y410888D01*
X258032Y410779D01*
X258122Y410673D01*
X258216Y410569D01*
X258313Y410468D01*
X258413Y410370D01*
X258515Y410275D01*
X258620Y410183D01*
X258727Y410093D01*
X258837Y410007D01*
X258950Y409924D01*
X259064Y409844D01*
X259181Y409767D01*
X259300Y409694D01*
X259421Y409624D01*
X259544Y409558D01*
X259669Y409495D01*
X259796Y409435D01*
X259924Y409380D01*
X260053Y409328D01*
X260185Y409279D01*
X260317Y409234D01*
X260451Y409193D01*
X260585Y409156D01*
X260721Y409123D01*
X260858Y409094D01*
X260995Y409068D01*
X261133Y409046D01*
X261272Y409029D01*
X261411Y409015D01*
X261551Y409005D01*
X261690Y408999D01*
X261830Y408997D01*
X266769Y408997D01*
X250774Y401095D02*
X244847Y401095D01*
X244723Y401097D01*
X244599Y401103D01*
X244475Y401113D01*
X244352Y401126D01*
X244229Y401144D01*
X244107Y401165D01*
X243985Y401190D01*
X243864Y401219D01*
X243745Y401252D01*
X243626Y401288D01*
X243509Y401329D01*
X243393Y401372D01*
X243278Y401420D01*
X243165Y401471D01*
X243053Y401526D01*
X242944Y401584D01*
X242836Y401645D01*
X242730Y401710D01*
X242626Y401778D01*
X242525Y401850D01*
X242425Y401924D01*
X242329Y402002D01*
X242234Y402082D01*
X242142Y402166D01*
X242053Y402252D01*
X241967Y402341D01*
X241883Y402433D01*
X241803Y402528D01*
X241725Y402624D01*
X241651Y402724D01*
X241579Y402825D01*
X241511Y402929D01*
X241446Y403035D01*
X241385Y403143D01*
X241327Y403252D01*
X241272Y403364D01*
X241221Y403477D01*
X241173Y403592D01*
X241130Y403708D01*
X241089Y403825D01*
X241053Y403944D01*
X241020Y404063D01*
X240991Y404184D01*
X240966Y404306D01*
X240945Y404428D01*
X240927Y404551D01*
X240914Y404674D01*
X240904Y404798D01*
X240898Y404922D01*
X240896Y405046D01*
X240896Y407022D01*
X240898Y407146D01*
X240904Y407270D01*
X240914Y407394D01*
X240927Y407517D01*
X240945Y407640D01*
X240966Y407762D01*
X240991Y407884D01*
X241020Y408005D01*
X241053Y408124D01*
X241089Y408243D01*
X241130Y408360D01*
X241173Y408476D01*
X241221Y408591D01*
X241272Y408704D01*
X241327Y408816D01*
X241385Y408925D01*
X241446Y409033D01*
X241511Y409139D01*
X241579Y409243D01*
X241651Y409344D01*
X241725Y409444D01*
X241803Y409540D01*
X241883Y409635D01*
X241967Y409727D01*
X242053Y409816D01*
X242142Y409902D01*
X242234Y409986D01*
X242329Y410066D01*
X242425Y410144D01*
X242525Y410218D01*
X242626Y410290D01*
X242730Y410358D01*
X242836Y410423D01*
X242944Y410484D01*
X243053Y410542D01*
X243165Y410597D01*
X243278Y410648D01*
X243393Y410696D01*
X243509Y410739D01*
X243626Y410780D01*
X243745Y410816D01*
X243864Y410849D01*
X243985Y410878D01*
X244107Y410903D01*
X244229Y410924D01*
X244352Y410942D01*
X244475Y410955D01*
X244599Y410965D01*
X244723Y410971D01*
X244847Y410973D01*
X250774Y410973D01*
X250774Y418875D01*
X240896Y418875D01*
X380875Y421211D02*
X380875Y438991D01*
X380875Y431089D02*
X370998Y431089D01*
X370998Y438991D02*
X370998Y421211D01*
X363567Y430101D02*
X363563Y430451D01*
X363550Y430800D01*
X363529Y431149D01*
X363500Y431498D01*
X363463Y431846D01*
X363417Y432193D01*
X363363Y432538D01*
X363301Y432882D01*
X363230Y433225D01*
X363151Y433566D01*
X363065Y433905D01*
X362970Y434241D01*
X362867Y434576D01*
X362756Y434907D01*
X362638Y435237D01*
X362511Y435563D01*
X362377Y435886D01*
X362235Y436205D01*
X362085Y436522D01*
X362085Y436521D02*
X362045Y436634D01*
X362001Y436744D01*
X361953Y436854D01*
X361902Y436961D01*
X361847Y437067D01*
X361789Y437172D01*
X361727Y437274D01*
X361662Y437374D01*
X361594Y437472D01*
X361523Y437568D01*
X361448Y437661D01*
X361371Y437752D01*
X361291Y437840D01*
X361208Y437925D01*
X361122Y438008D01*
X361033Y438088D01*
X360942Y438165D01*
X360848Y438239D01*
X360752Y438310D01*
X360654Y438378D01*
X360554Y438442D01*
X360451Y438504D01*
X360347Y438561D01*
X360241Y438616D01*
X360133Y438667D01*
X360023Y438714D01*
X359912Y438758D01*
X359800Y438798D01*
X359686Y438834D01*
X359572Y438867D01*
X359456Y438896D01*
X359339Y438921D01*
X359222Y438942D01*
X359104Y438960D01*
X358985Y438973D01*
X358866Y438983D01*
X358747Y438989D01*
X358628Y438991D01*
X358509Y438989D01*
X358390Y438983D01*
X358271Y438973D01*
X358152Y438960D01*
X358034Y438942D01*
X357917Y438921D01*
X357800Y438896D01*
X357684Y438867D01*
X357570Y438834D01*
X357456Y438798D01*
X357344Y438758D01*
X357233Y438714D01*
X357123Y438667D01*
X357015Y438616D01*
X356909Y438561D01*
X356805Y438504D01*
X356702Y438442D01*
X356602Y438378D01*
X356504Y438310D01*
X356408Y438239D01*
X356314Y438165D01*
X356223Y438088D01*
X356134Y438008D01*
X356049Y437925D01*
X355965Y437840D01*
X355885Y437752D01*
X355808Y437661D01*
X355733Y437568D01*
X355662Y437472D01*
X355594Y437374D01*
X355529Y437274D01*
X355467Y437172D01*
X355409Y437067D01*
X355354Y436962D01*
X355303Y436854D01*
X355255Y436744D01*
X355211Y436634D01*
X355171Y436521D01*
X355171Y436522D02*
X355021Y436205D01*
X354879Y435886D01*
X354745Y435563D01*
X354618Y435237D01*
X354500Y434907D01*
X354389Y434576D01*
X354286Y434241D01*
X354191Y433905D01*
X354105Y433566D01*
X354026Y433225D01*
X353955Y432882D01*
X353893Y432538D01*
X353839Y432193D01*
X353793Y431846D01*
X353756Y431498D01*
X353727Y431149D01*
X353706Y430800D01*
X353693Y430451D01*
X353689Y430101D01*
X363566Y430101D02*
X363562Y429751D01*
X363549Y429402D01*
X363528Y429053D01*
X363499Y428704D01*
X363462Y428356D01*
X363416Y428009D01*
X363362Y427664D01*
X363300Y427320D01*
X363229Y426977D01*
X363150Y426636D01*
X363064Y426297D01*
X362969Y425961D01*
X362866Y425626D01*
X362755Y425295D01*
X362637Y424966D01*
X362510Y424639D01*
X362376Y424316D01*
X362234Y423997D01*
X362084Y423681D01*
X362085Y423681D02*
X362045Y423568D01*
X362001Y423458D01*
X361953Y423348D01*
X361902Y423241D01*
X361847Y423135D01*
X361789Y423030D01*
X361727Y422928D01*
X361662Y422828D01*
X361594Y422730D01*
X361523Y422634D01*
X361448Y422541D01*
X361371Y422450D01*
X361291Y422362D01*
X361208Y422277D01*
X361122Y422194D01*
X361033Y422114D01*
X360942Y422037D01*
X360848Y421963D01*
X360752Y421892D01*
X360654Y421824D01*
X360554Y421760D01*
X360451Y421698D01*
X360347Y421641D01*
X360241Y421586D01*
X360133Y421535D01*
X360023Y421488D01*
X359912Y421444D01*
X359800Y421404D01*
X359686Y421368D01*
X359572Y421335D01*
X359456Y421306D01*
X359339Y421281D01*
X359222Y421260D01*
X359104Y421242D01*
X358985Y421229D01*
X358866Y421219D01*
X358747Y421213D01*
X358628Y421211D01*
X355171Y423681D02*
X355021Y423997D01*
X354879Y424316D01*
X354745Y424639D01*
X354618Y424966D01*
X354500Y425295D01*
X354389Y425626D01*
X354286Y425961D01*
X354191Y426297D01*
X354105Y426636D01*
X354026Y426977D01*
X353955Y427320D01*
X353893Y427664D01*
X353839Y428009D01*
X353793Y428356D01*
X353756Y428704D01*
X353727Y429053D01*
X353706Y429402D01*
X353693Y429751D01*
X353689Y430101D01*
X355171Y423681D02*
X355211Y423568D01*
X355255Y423458D01*
X355303Y423348D01*
X355354Y423240D01*
X355409Y423134D01*
X355467Y423030D01*
X355529Y422928D01*
X355594Y422828D01*
X355662Y422730D01*
X355733Y422634D01*
X355808Y422541D01*
X355885Y422450D01*
X355965Y422362D01*
X356049Y422277D01*
X356134Y422194D01*
X356223Y422114D01*
X356314Y422037D01*
X356408Y421963D01*
X356504Y421892D01*
X356602Y421824D01*
X356702Y421760D01*
X356805Y421698D01*
X356909Y421640D01*
X357015Y421586D01*
X357123Y421535D01*
X357233Y421488D01*
X357344Y421444D01*
X357456Y421404D01*
X357570Y421368D01*
X357684Y421335D01*
X357800Y421306D01*
X357917Y421281D01*
X358034Y421260D01*
X358152Y421242D01*
X358271Y421229D01*
X358390Y421219D01*
X358509Y421213D01*
X358628Y421211D01*
X362579Y425162D02*
X354677Y435040D01*
X346061Y431089D02*
X341122Y431089D01*
X340982Y431087D01*
X340843Y431081D01*
X340703Y431071D01*
X340564Y431057D01*
X340425Y431040D01*
X340287Y431018D01*
X340150Y430992D01*
X340013Y430963D01*
X339877Y430930D01*
X339743Y430893D01*
X339609Y430852D01*
X339477Y430807D01*
X339345Y430758D01*
X339216Y430706D01*
X339088Y430651D01*
X338961Y430591D01*
X338836Y430528D01*
X338713Y430462D01*
X338592Y430392D01*
X338473Y430319D01*
X338356Y430242D01*
X338242Y430162D01*
X338129Y430079D01*
X338019Y429993D01*
X337912Y429903D01*
X337807Y429811D01*
X337705Y429716D01*
X337605Y429618D01*
X337508Y429517D01*
X337414Y429413D01*
X337324Y429307D01*
X337236Y429198D01*
X337151Y429087D01*
X337070Y428973D01*
X336991Y428858D01*
X336916Y428740D01*
X336845Y428620D01*
X336777Y428497D01*
X336712Y428374D01*
X336651Y428248D01*
X336593Y428120D01*
X336539Y427992D01*
X336489Y427861D01*
X336442Y427729D01*
X336399Y427596D01*
X336360Y427462D01*
X336325Y427327D01*
X336294Y427191D01*
X336266Y427053D01*
X336243Y426916D01*
X336223Y426777D01*
X336207Y426638D01*
X336195Y426499D01*
X336187Y426360D01*
X336183Y426220D01*
X336183Y426080D01*
X336187Y425940D01*
X336195Y425801D01*
X336207Y425662D01*
X336223Y425523D01*
X336243Y425384D01*
X336266Y425247D01*
X336294Y425109D01*
X336325Y424973D01*
X336360Y424838D01*
X336399Y424704D01*
X336442Y424571D01*
X336489Y424439D01*
X336539Y424308D01*
X336593Y424180D01*
X336651Y424052D01*
X336712Y423926D01*
X336777Y423803D01*
X336845Y423681D01*
X336916Y423560D01*
X336991Y423442D01*
X337070Y423327D01*
X337151Y423213D01*
X337236Y423102D01*
X337324Y422993D01*
X337414Y422887D01*
X337508Y422783D01*
X337605Y422682D01*
X337705Y422584D01*
X337807Y422489D01*
X337912Y422397D01*
X338019Y422307D01*
X338129Y422221D01*
X338242Y422138D01*
X338356Y422058D01*
X338473Y421981D01*
X338592Y421908D01*
X338713Y421838D01*
X338836Y421772D01*
X338961Y421709D01*
X339088Y421649D01*
X339216Y421594D01*
X339345Y421542D01*
X339477Y421493D01*
X339609Y421448D01*
X339743Y421407D01*
X339877Y421370D01*
X340013Y421337D01*
X340150Y421308D01*
X340287Y421282D01*
X340425Y421260D01*
X340564Y421243D01*
X340703Y421229D01*
X340843Y421219D01*
X340982Y421213D01*
X341122Y421211D01*
X346061Y421211D01*
X346061Y438991D01*
X341122Y438991D01*
X340998Y438989D01*
X340874Y438983D01*
X340750Y438973D01*
X340627Y438960D01*
X340504Y438942D01*
X340382Y438921D01*
X340260Y438896D01*
X340139Y438867D01*
X340020Y438834D01*
X339901Y438798D01*
X339784Y438757D01*
X339668Y438714D01*
X339553Y438666D01*
X339440Y438615D01*
X339328Y438560D01*
X339219Y438502D01*
X339111Y438441D01*
X339005Y438376D01*
X338901Y438308D01*
X338800Y438236D01*
X338700Y438162D01*
X338604Y438084D01*
X338509Y438004D01*
X338417Y437920D01*
X338328Y437834D01*
X338242Y437745D01*
X338158Y437653D01*
X338078Y437558D01*
X338000Y437462D01*
X337926Y437362D01*
X337854Y437261D01*
X337786Y437157D01*
X337721Y437051D01*
X337660Y436943D01*
X337602Y436834D01*
X337547Y436722D01*
X337496Y436609D01*
X337448Y436494D01*
X337405Y436378D01*
X337364Y436261D01*
X337328Y436142D01*
X337295Y436023D01*
X337266Y435902D01*
X337241Y435780D01*
X337220Y435658D01*
X337202Y435535D01*
X337189Y435412D01*
X337179Y435288D01*
X337173Y435164D01*
X337171Y435040D01*
X337173Y434916D01*
X337179Y434792D01*
X337189Y434668D01*
X337202Y434545D01*
X337220Y434422D01*
X337241Y434300D01*
X337266Y434178D01*
X337295Y434057D01*
X337328Y433938D01*
X337364Y433819D01*
X337405Y433702D01*
X337448Y433586D01*
X337496Y433471D01*
X337547Y433358D01*
X337602Y433246D01*
X337660Y433137D01*
X337721Y433029D01*
X337786Y432923D01*
X337854Y432819D01*
X337926Y432718D01*
X338000Y432618D01*
X338078Y432522D01*
X338158Y432427D01*
X338242Y432335D01*
X338328Y432246D01*
X338417Y432160D01*
X338509Y432076D01*
X338604Y431996D01*
X338700Y431918D01*
X338800Y431844D01*
X338901Y431772D01*
X339005Y431704D01*
X339111Y431639D01*
X339219Y431578D01*
X339328Y431520D01*
X339440Y431465D01*
X339553Y431414D01*
X339668Y431366D01*
X339784Y431323D01*
X339901Y431282D01*
X340020Y431246D01*
X340139Y431213D01*
X340260Y431184D01*
X340382Y431159D01*
X340504Y431138D01*
X340627Y431120D01*
X340750Y431107D01*
X340874Y431097D01*
X340998Y431091D01*
X341122Y431089D01*
X329422Y438991D02*
X329422Y421211D01*
X329422Y438991D02*
X324483Y438991D01*
X324343Y438989D01*
X324204Y438983D01*
X324064Y438973D01*
X323925Y438959D01*
X323786Y438942D01*
X323648Y438920D01*
X323511Y438894D01*
X323374Y438865D01*
X323238Y438832D01*
X323104Y438795D01*
X322970Y438754D01*
X322838Y438709D01*
X322706Y438660D01*
X322577Y438608D01*
X322449Y438553D01*
X322322Y438493D01*
X322197Y438430D01*
X322074Y438364D01*
X321953Y438294D01*
X321834Y438221D01*
X321717Y438144D01*
X321603Y438064D01*
X321490Y437981D01*
X321380Y437895D01*
X321273Y437805D01*
X321168Y437713D01*
X321066Y437618D01*
X320966Y437520D01*
X320869Y437419D01*
X320775Y437315D01*
X320685Y437209D01*
X320597Y437100D01*
X320512Y436989D01*
X320431Y436875D01*
X320352Y436760D01*
X320277Y436642D01*
X320206Y436522D01*
X320138Y436399D01*
X320073Y436276D01*
X320012Y436150D01*
X319954Y436022D01*
X319900Y435894D01*
X319850Y435763D01*
X319803Y435631D01*
X319760Y435498D01*
X319721Y435364D01*
X319686Y435229D01*
X319655Y435093D01*
X319627Y434955D01*
X319604Y434818D01*
X319584Y434679D01*
X319568Y434540D01*
X319556Y434401D01*
X319548Y434262D01*
X319544Y434122D01*
X319544Y433982D01*
X319548Y433842D01*
X319556Y433703D01*
X319568Y433564D01*
X319584Y433425D01*
X319604Y433286D01*
X319627Y433149D01*
X319655Y433011D01*
X319686Y432875D01*
X319721Y432740D01*
X319760Y432606D01*
X319803Y432473D01*
X319850Y432341D01*
X319900Y432210D01*
X319954Y432082D01*
X320012Y431954D01*
X320073Y431828D01*
X320138Y431705D01*
X320206Y431583D01*
X320277Y431462D01*
X320352Y431344D01*
X320431Y431229D01*
X320512Y431115D01*
X320597Y431004D01*
X320685Y430895D01*
X320775Y430789D01*
X320869Y430685D01*
X320966Y430584D01*
X321066Y430486D01*
X321168Y430391D01*
X321273Y430299D01*
X321380Y430209D01*
X321490Y430123D01*
X321603Y430040D01*
X321717Y429960D01*
X321834Y429883D01*
X321953Y429810D01*
X322074Y429740D01*
X322197Y429674D01*
X322322Y429611D01*
X322449Y429551D01*
X322577Y429496D01*
X322706Y429444D01*
X322838Y429395D01*
X322970Y429350D01*
X323104Y429309D01*
X323238Y429272D01*
X323374Y429239D01*
X323511Y429210D01*
X323648Y429184D01*
X323786Y429162D01*
X323925Y429145D01*
X324064Y429131D01*
X324204Y429121D01*
X324343Y429115D01*
X324483Y429113D01*
X329422Y429113D01*
X323495Y429113D02*
X319544Y421211D01*
X312757Y425162D02*
X308806Y438991D01*
X312757Y425162D02*
X302879Y425162D01*
X305842Y429113D02*
X305842Y421211D01*
X296006Y435040D02*
X291068Y438991D01*
X291068Y421211D01*
X296006Y421211D02*
X286129Y421211D01*
X360114Y446815D02*
X360114Y464595D01*
X355175Y464595D01*
X355035Y464593D01*
X354896Y464587D01*
X354756Y464577D01*
X354617Y464563D01*
X354478Y464546D01*
X354340Y464524D01*
X354203Y464498D01*
X354066Y464469D01*
X353930Y464436D01*
X353796Y464399D01*
X353662Y464358D01*
X353530Y464313D01*
X353398Y464264D01*
X353269Y464212D01*
X353141Y464157D01*
X353014Y464097D01*
X352889Y464034D01*
X352766Y463968D01*
X352645Y463898D01*
X352526Y463825D01*
X352409Y463748D01*
X352295Y463668D01*
X352182Y463585D01*
X352072Y463499D01*
X351965Y463409D01*
X351860Y463317D01*
X351758Y463222D01*
X351658Y463124D01*
X351561Y463023D01*
X351467Y462919D01*
X351377Y462813D01*
X351289Y462704D01*
X351204Y462593D01*
X351123Y462479D01*
X351044Y462364D01*
X350969Y462246D01*
X350898Y462126D01*
X350830Y462003D01*
X350765Y461880D01*
X350704Y461754D01*
X350646Y461626D01*
X350592Y461498D01*
X350542Y461367D01*
X350495Y461235D01*
X350452Y461102D01*
X350413Y460968D01*
X350378Y460833D01*
X350347Y460697D01*
X350319Y460559D01*
X350296Y460422D01*
X350276Y460283D01*
X350260Y460144D01*
X350248Y460005D01*
X350240Y459866D01*
X350236Y459726D01*
X350236Y459586D01*
X350240Y459446D01*
X350248Y459307D01*
X350260Y459168D01*
X350276Y459029D01*
X350296Y458890D01*
X350319Y458753D01*
X350347Y458615D01*
X350378Y458479D01*
X350413Y458344D01*
X350452Y458210D01*
X350495Y458077D01*
X350542Y457945D01*
X350592Y457814D01*
X350646Y457686D01*
X350704Y457558D01*
X350765Y457432D01*
X350830Y457309D01*
X350898Y457187D01*
X350969Y457066D01*
X351044Y456948D01*
X351123Y456833D01*
X351204Y456719D01*
X351289Y456608D01*
X351377Y456499D01*
X351467Y456393D01*
X351561Y456289D01*
X351658Y456188D01*
X351758Y456090D01*
X351860Y455995D01*
X351965Y455903D01*
X352072Y455813D01*
X352182Y455727D01*
X352295Y455644D01*
X352409Y455564D01*
X352526Y455487D01*
X352645Y455414D01*
X352766Y455344D01*
X352889Y455278D01*
X353014Y455215D01*
X353141Y455155D01*
X353269Y455100D01*
X353398Y455048D01*
X353530Y454999D01*
X353662Y454954D01*
X353796Y454913D01*
X353930Y454876D01*
X354066Y454843D01*
X354203Y454814D01*
X354340Y454788D01*
X354478Y454766D01*
X354617Y454749D01*
X354756Y454735D01*
X354896Y454725D01*
X355035Y454719D01*
X355175Y454717D01*
X360114Y454717D01*
X344119Y456693D02*
X338192Y456693D01*
X338068Y456691D01*
X337944Y456685D01*
X337820Y456675D01*
X337697Y456662D01*
X337574Y456644D01*
X337452Y456623D01*
X337330Y456598D01*
X337209Y456569D01*
X337090Y456536D01*
X336971Y456500D01*
X336854Y456459D01*
X336738Y456416D01*
X336623Y456368D01*
X336510Y456317D01*
X336398Y456262D01*
X336289Y456204D01*
X336181Y456143D01*
X336075Y456078D01*
X335971Y456010D01*
X335870Y455938D01*
X335770Y455864D01*
X335674Y455786D01*
X335579Y455706D01*
X335487Y455622D01*
X335398Y455536D01*
X335312Y455447D01*
X335228Y455355D01*
X335148Y455260D01*
X335070Y455164D01*
X334996Y455064D01*
X334924Y454963D01*
X334856Y454859D01*
X334791Y454753D01*
X334730Y454645D01*
X334672Y454536D01*
X334617Y454424D01*
X334566Y454311D01*
X334518Y454196D01*
X334475Y454080D01*
X334434Y453963D01*
X334398Y453844D01*
X334365Y453725D01*
X334336Y453604D01*
X334311Y453482D01*
X334290Y453360D01*
X334272Y453237D01*
X334259Y453114D01*
X334249Y452990D01*
X334243Y452866D01*
X334241Y452742D01*
X334241Y451754D01*
X334243Y451614D01*
X334249Y451475D01*
X334259Y451335D01*
X334273Y451196D01*
X334290Y451057D01*
X334312Y450919D01*
X334338Y450782D01*
X334367Y450645D01*
X334400Y450509D01*
X334437Y450375D01*
X334478Y450241D01*
X334523Y450109D01*
X334572Y449977D01*
X334624Y449848D01*
X334679Y449720D01*
X334739Y449593D01*
X334802Y449468D01*
X334868Y449345D01*
X334938Y449224D01*
X335011Y449105D01*
X335088Y448988D01*
X335168Y448874D01*
X335251Y448761D01*
X335337Y448651D01*
X335427Y448544D01*
X335519Y448439D01*
X335614Y448337D01*
X335712Y448237D01*
X335813Y448140D01*
X335917Y448046D01*
X336023Y447956D01*
X336132Y447868D01*
X336243Y447783D01*
X336357Y447702D01*
X336472Y447623D01*
X336590Y447548D01*
X336711Y447477D01*
X336833Y447409D01*
X336956Y447344D01*
X337082Y447283D01*
X337210Y447225D01*
X337338Y447171D01*
X337469Y447121D01*
X337601Y447074D01*
X337734Y447031D01*
X337868Y446992D01*
X338003Y446957D01*
X338139Y446926D01*
X338277Y446898D01*
X338414Y446875D01*
X338553Y446855D01*
X338692Y446839D01*
X338831Y446827D01*
X338970Y446819D01*
X339110Y446815D01*
X339250Y446815D01*
X339390Y446819D01*
X339529Y446827D01*
X339668Y446839D01*
X339807Y446855D01*
X339946Y446875D01*
X340083Y446898D01*
X340221Y446926D01*
X340357Y446957D01*
X340492Y446992D01*
X340626Y447031D01*
X340759Y447074D01*
X340891Y447121D01*
X341022Y447171D01*
X341150Y447225D01*
X341278Y447283D01*
X341404Y447344D01*
X341527Y447409D01*
X341650Y447477D01*
X341770Y447548D01*
X341888Y447623D01*
X342003Y447702D01*
X342117Y447783D01*
X342228Y447868D01*
X342337Y447956D01*
X342443Y448046D01*
X342547Y448140D01*
X342648Y448237D01*
X342746Y448337D01*
X342841Y448439D01*
X342933Y448544D01*
X343023Y448651D01*
X343109Y448761D01*
X343192Y448874D01*
X343272Y448988D01*
X343349Y449105D01*
X343422Y449224D01*
X343492Y449345D01*
X343558Y449468D01*
X343621Y449593D01*
X343681Y449720D01*
X343736Y449848D01*
X343788Y449977D01*
X343837Y450109D01*
X343882Y450241D01*
X343923Y450375D01*
X343960Y450509D01*
X343993Y450645D01*
X344022Y450782D01*
X344048Y450919D01*
X344070Y451057D01*
X344087Y451196D01*
X344101Y451335D01*
X344111Y451475D01*
X344117Y451614D01*
X344119Y451754D01*
X344119Y456693D01*
X344117Y456887D01*
X344109Y457081D01*
X344098Y457274D01*
X344081Y457468D01*
X344060Y457660D01*
X344033Y457852D01*
X344003Y458044D01*
X343967Y458235D01*
X343927Y458424D01*
X343882Y458613D01*
X343833Y458801D01*
X343779Y458987D01*
X343720Y459172D01*
X343657Y459355D01*
X343590Y459537D01*
X343518Y459717D01*
X343441Y459895D01*
X343360Y460072D01*
X343275Y460246D01*
X343186Y460418D01*
X343092Y460588D01*
X342995Y460755D01*
X342893Y460921D01*
X342787Y461083D01*
X342678Y461243D01*
X342564Y461400D01*
X342447Y461555D01*
X342325Y461706D01*
X342200Y461854D01*
X342072Y462000D01*
X341940Y462142D01*
X341805Y462281D01*
X341666Y462416D01*
X341524Y462548D01*
X341378Y462676D01*
X341230Y462801D01*
X341079Y462922D01*
X340924Y463040D01*
X340767Y463154D01*
X340607Y463263D01*
X340445Y463369D01*
X340279Y463471D01*
X340112Y463568D01*
X339942Y463662D01*
X339770Y463751D01*
X339596Y463836D01*
X339419Y463917D01*
X339241Y463993D01*
X339061Y464065D01*
X338879Y464133D01*
X338696Y464196D01*
X338511Y464255D01*
X338325Y464309D01*
X338137Y464358D01*
X337948Y464403D01*
X337759Y464443D01*
X337568Y464479D01*
X337377Y464509D01*
X337184Y464536D01*
X336992Y464557D01*
X336798Y464574D01*
X336605Y464585D01*
X336411Y464593D01*
X336217Y464595D01*
D11*
X284476Y476518D02*
X282881Y475401D01*
X286604Y470083D01*
X289795Y472317D01*
X289794Y472317D02*
X289874Y472376D01*
X289952Y472438D01*
X290028Y472502D01*
X290101Y472570D01*
X290172Y472640D01*
X290239Y472713D01*
X290304Y472788D01*
X290366Y472866D01*
X290425Y472946D01*
X290481Y473028D01*
X290534Y473113D01*
X290583Y473199D01*
X290629Y473287D01*
X290672Y473377D01*
X290711Y473468D01*
X290746Y473561D01*
X290778Y473655D01*
X290807Y473751D01*
X290831Y473847D01*
X290852Y473944D01*
X290870Y474042D01*
X290883Y474141D01*
X290893Y474240D01*
X290899Y474339D01*
X290901Y474438D01*
X290899Y474538D01*
X290894Y474637D01*
X290884Y474736D01*
X290871Y474835D01*
X290855Y474933D01*
X290834Y475030D01*
X290810Y475127D01*
X290782Y475222D01*
X290750Y475316D01*
X290715Y475409D01*
X290676Y475501D01*
X290634Y475591D01*
X290588Y475679D01*
X290539Y475766D01*
X290487Y475850D01*
X290432Y475933D01*
X286709Y481251D01*
X286709Y481250D02*
X286650Y481330D01*
X286588Y481408D01*
X286524Y481484D01*
X286456Y481557D01*
X286386Y481628D01*
X286313Y481695D01*
X286238Y481760D01*
X286160Y481822D01*
X286080Y481881D01*
X285998Y481937D01*
X285913Y481990D01*
X285827Y482039D01*
X285739Y482085D01*
X285649Y482128D01*
X285558Y482167D01*
X285465Y482202D01*
X285371Y482234D01*
X285275Y482263D01*
X285179Y482287D01*
X285082Y482308D01*
X284984Y482326D01*
X284885Y482339D01*
X284786Y482349D01*
X284687Y482355D01*
X284588Y482357D01*
X284488Y482355D01*
X284389Y482350D01*
X284290Y482341D01*
X284191Y482327D01*
X284093Y482311D01*
X283996Y482290D01*
X283899Y482266D01*
X283804Y482238D01*
X283710Y482206D01*
X283617Y482171D01*
X283525Y482132D01*
X283435Y482090D01*
X283347Y482044D01*
X283260Y481995D01*
X283176Y481943D01*
X283093Y481888D01*
X279903Y479654D01*
X275233Y476384D02*
X281934Y466814D01*
X276617Y463090D02*
X275233Y476384D01*
X269916Y472661D02*
X276617Y463090D01*
X271947Y459820D02*
X265246Y469391D01*
X262587Y467530D01*
X262496Y467463D01*
X262406Y467394D01*
X262319Y467321D01*
X262235Y467245D01*
X262154Y467166D01*
X262075Y467085D01*
X261999Y467001D01*
X261926Y466914D01*
X261857Y466825D01*
X261790Y466733D01*
X261727Y466639D01*
X261667Y466543D01*
X261610Y466445D01*
X261557Y466345D01*
X261507Y466243D01*
X261461Y466139D01*
X261419Y466034D01*
X261380Y465928D01*
X261345Y465820D01*
X261314Y465711D01*
X261286Y465601D01*
X261263Y465490D01*
X261243Y465379D01*
X261227Y465267D01*
X261215Y465154D01*
X261207Y465041D01*
X261203Y464928D01*
X261203Y464814D01*
X261207Y464701D01*
X261215Y464588D01*
X261227Y464475D01*
X261243Y464363D01*
X261263Y464252D01*
X261286Y464141D01*
X261314Y464031D01*
X261345Y463922D01*
X261380Y463814D01*
X261419Y463708D01*
X261461Y463603D01*
X261507Y463499D01*
X261557Y463397D01*
X261610Y463297D01*
X261667Y463199D01*
X261727Y463103D01*
X261790Y463009D01*
X261790Y463010D02*
X264769Y458756D01*
X264768Y458755D02*
X264835Y458664D01*
X264904Y458574D01*
X264977Y458487D01*
X265053Y458403D01*
X265132Y458322D01*
X265213Y458243D01*
X265297Y458167D01*
X265384Y458094D01*
X265474Y458025D01*
X265565Y457958D01*
X265659Y457895D01*
X265755Y457835D01*
X265853Y457778D01*
X265953Y457725D01*
X266055Y457675D01*
X266159Y457629D01*
X266264Y457587D01*
X266370Y457548D01*
X266478Y457513D01*
X266587Y457482D01*
X266697Y457454D01*
X266808Y457431D01*
X266919Y457411D01*
X267031Y457395D01*
X267144Y457383D01*
X267257Y457375D01*
X267370Y457371D01*
X267484Y457371D01*
X267597Y457375D01*
X267710Y457383D01*
X267823Y457395D01*
X267935Y457411D01*
X268046Y457431D01*
X268157Y457454D01*
X268267Y457482D01*
X268376Y457513D01*
X268484Y457548D01*
X268590Y457587D01*
X268695Y457629D01*
X268799Y457675D01*
X268901Y457725D01*
X269001Y457778D01*
X269099Y457835D01*
X269195Y457895D01*
X269289Y457958D01*
X269289Y457959D02*
X271947Y459820D01*
X424176Y465138D02*
X425771Y464021D01*
X424176Y465138D02*
X420453Y459821D01*
X423643Y457587D01*
X423726Y457532D01*
X423810Y457480D01*
X423897Y457431D01*
X423985Y457385D01*
X424075Y457343D01*
X424167Y457304D01*
X424260Y457269D01*
X424354Y457237D01*
X424449Y457209D01*
X424546Y457185D01*
X424643Y457164D01*
X424741Y457148D01*
X424840Y457134D01*
X424939Y457125D01*
X425038Y457120D01*
X425138Y457118D01*
X425237Y457120D01*
X425336Y457126D01*
X425435Y457136D01*
X425534Y457149D01*
X425632Y457167D01*
X425729Y457188D01*
X425825Y457212D01*
X425921Y457241D01*
X426015Y457273D01*
X426108Y457308D01*
X426199Y457347D01*
X426289Y457390D01*
X426377Y457436D01*
X426463Y457485D01*
X426548Y457538D01*
X426630Y457594D01*
X426710Y457653D01*
X426788Y457715D01*
X426863Y457780D01*
X426936Y457847D01*
X427006Y457918D01*
X427074Y457991D01*
X427138Y458067D01*
X427200Y458145D01*
X427259Y458225D01*
X427259Y458224D02*
X430982Y463541D01*
X430982Y463542D02*
X431037Y463625D01*
X431089Y463709D01*
X431138Y463796D01*
X431184Y463884D01*
X431226Y463974D01*
X431265Y464066D01*
X431300Y464159D01*
X431332Y464253D01*
X431360Y464348D01*
X431384Y464445D01*
X431405Y464542D01*
X431421Y464640D01*
X431435Y464739D01*
X431444Y464838D01*
X431449Y464937D01*
X431451Y465037D01*
X431449Y465136D01*
X431443Y465235D01*
X431433Y465334D01*
X431420Y465433D01*
X431402Y465531D01*
X431381Y465628D01*
X431357Y465724D01*
X431328Y465820D01*
X431296Y465914D01*
X431261Y466007D01*
X431222Y466098D01*
X431179Y466188D01*
X431133Y466276D01*
X431084Y466362D01*
X431031Y466447D01*
X430975Y466529D01*
X430916Y466609D01*
X430854Y466687D01*
X430789Y466762D01*
X430722Y466835D01*
X430651Y466905D01*
X430578Y466973D01*
X430502Y467037D01*
X430424Y467099D01*
X430344Y467158D01*
X430345Y467158D02*
X427154Y469392D01*
X422485Y472661D02*
X415783Y463090D01*
X410466Y466814D02*
X422485Y472661D01*
X417167Y476385D02*
X410466Y466814D01*
X405796Y470083D02*
X412497Y479654D01*
X409839Y481516D01*
X409745Y481579D01*
X409649Y481639D01*
X409551Y481696D01*
X409451Y481749D01*
X409349Y481799D01*
X409245Y481845D01*
X409140Y481887D01*
X409034Y481926D01*
X408926Y481961D01*
X408817Y481992D01*
X408707Y482020D01*
X408596Y482043D01*
X408485Y482063D01*
X408373Y482079D01*
X408260Y482091D01*
X408147Y482099D01*
X408034Y482103D01*
X407920Y482103D01*
X407807Y482099D01*
X407694Y482091D01*
X407581Y482079D01*
X407469Y482063D01*
X407358Y482043D01*
X407247Y482020D01*
X407137Y481992D01*
X407028Y481961D01*
X406920Y481926D01*
X406814Y481887D01*
X406709Y481845D01*
X406605Y481799D01*
X406503Y481749D01*
X406403Y481696D01*
X406305Y481639D01*
X406209Y481579D01*
X406115Y481516D01*
X406024Y481449D01*
X405934Y481380D01*
X405847Y481307D01*
X405763Y481231D01*
X405682Y481152D01*
X405603Y481071D01*
X405527Y480987D01*
X405454Y480900D01*
X405385Y480811D01*
X405318Y480719D01*
X405319Y480719D02*
X402340Y476465D01*
X402340Y476466D02*
X402277Y476372D01*
X402217Y476276D01*
X402160Y476178D01*
X402107Y476078D01*
X402057Y475976D01*
X402011Y475872D01*
X401969Y475767D01*
X401930Y475661D01*
X401895Y475553D01*
X401864Y475444D01*
X401836Y475334D01*
X401813Y475223D01*
X401793Y475112D01*
X401777Y475000D01*
X401765Y474887D01*
X401757Y474774D01*
X401753Y474661D01*
X401753Y474547D01*
X401757Y474434D01*
X401765Y474321D01*
X401777Y474208D01*
X401793Y474096D01*
X401813Y473985D01*
X401836Y473874D01*
X401864Y473764D01*
X401895Y473655D01*
X401930Y473547D01*
X401969Y473441D01*
X402011Y473336D01*
X402057Y473232D01*
X402107Y473130D01*
X402160Y473030D01*
X402217Y472932D01*
X402277Y472836D01*
X402340Y472742D01*
X402407Y472650D01*
X402476Y472561D01*
X402549Y472474D01*
X402625Y472390D01*
X402704Y472309D01*
X402785Y472230D01*
X402869Y472154D01*
X402956Y472081D01*
X403046Y472012D01*
X403137Y471945D01*
X405796Y470083D01*
D12*
X325057Y252667D02*
X325057Y245879D01*
X325055Y245778D01*
X325049Y245677D01*
X325039Y245576D01*
X325026Y245476D01*
X325008Y245376D01*
X324987Y245277D01*
X324961Y245179D01*
X324932Y245082D01*
X324900Y244986D01*
X324863Y244892D01*
X324823Y244799D01*
X324779Y244707D01*
X324732Y244618D01*
X324681Y244530D01*
X324627Y244444D01*
X324570Y244361D01*
X324510Y244279D01*
X324446Y244201D01*
X324380Y244124D01*
X324310Y244051D01*
X324238Y243980D01*
X324163Y243912D01*
X324085Y243847D01*
X324005Y243785D01*
X323923Y243726D01*
X323838Y243670D01*
X323751Y243618D01*
X323663Y243569D01*
X323572Y243523D01*
X323480Y243482D01*
X323386Y243443D01*
X323291Y243409D01*
X323195Y243378D01*
X323097Y243351D01*
X322999Y243327D01*
X322899Y243308D01*
X322799Y243292D01*
X322699Y243280D01*
X322598Y243272D01*
X322497Y243268D01*
X322395Y243268D01*
X322294Y243272D01*
X322193Y243280D01*
X322093Y243292D01*
X321993Y243308D01*
X321893Y243327D01*
X321795Y243351D01*
X321697Y243378D01*
X321601Y243409D01*
X321506Y243443D01*
X321412Y243482D01*
X321320Y243523D01*
X321229Y243569D01*
X321141Y243618D01*
X321054Y243670D01*
X320969Y243726D01*
X320887Y243785D01*
X320807Y243847D01*
X320729Y243912D01*
X320654Y243980D01*
X320582Y244051D01*
X320512Y244124D01*
X320446Y244201D01*
X320382Y244279D01*
X320322Y244361D01*
X320265Y244444D01*
X320211Y244530D01*
X320160Y244618D01*
X320113Y244707D01*
X320069Y244799D01*
X320029Y244892D01*
X319992Y244986D01*
X319960Y245082D01*
X319931Y245179D01*
X319905Y245277D01*
X319884Y245376D01*
X319866Y245476D01*
X319853Y245576D01*
X319843Y245677D01*
X319837Y245778D01*
X319835Y245879D01*
X319835Y252667D01*
X315608Y250578D02*
X312997Y252667D01*
X312997Y243269D01*
X310387Y243269D02*
X315608Y243269D01*
X411544Y341266D02*
X411544Y343354D01*
X411544Y341266D02*
X411546Y341177D01*
X411552Y341089D01*
X411561Y341001D01*
X411574Y340913D01*
X411591Y340826D01*
X411611Y340740D01*
X411636Y340655D01*
X411663Y340570D01*
X411695Y340487D01*
X411729Y340406D01*
X411768Y340326D01*
X411809Y340248D01*
X411854Y340171D01*
X411902Y340097D01*
X411953Y340024D01*
X412007Y339954D01*
X412065Y339887D01*
X412125Y339821D01*
X412187Y339759D01*
X412253Y339699D01*
X412320Y339641D01*
X412390Y339587D01*
X412463Y339536D01*
X412537Y339488D01*
X412614Y339443D01*
X412692Y339402D01*
X412772Y339363D01*
X412853Y339329D01*
X412936Y339297D01*
X413021Y339270D01*
X413106Y339245D01*
X413192Y339225D01*
X413279Y339208D01*
X413367Y339195D01*
X413455Y339186D01*
X413543Y339180D01*
X413632Y339178D01*
X413632Y339177D02*
X418853Y339177D01*
X418853Y339178D02*
X418944Y339180D01*
X419035Y339186D01*
X419126Y339196D01*
X419216Y339210D01*
X419305Y339227D01*
X419393Y339249D01*
X419481Y339275D01*
X419567Y339304D01*
X419652Y339337D01*
X419735Y339374D01*
X419817Y339414D01*
X419897Y339458D01*
X419975Y339505D01*
X420051Y339556D01*
X420124Y339609D01*
X420195Y339666D01*
X420264Y339727D01*
X420329Y339790D01*
X420392Y339855D01*
X420452Y339924D01*
X420510Y339995D01*
X420563Y340068D01*
X420614Y340144D01*
X420661Y340222D01*
X420705Y340302D01*
X420745Y340384D01*
X420782Y340467D01*
X420815Y340552D01*
X420844Y340638D01*
X420870Y340726D01*
X420892Y340814D01*
X420909Y340903D01*
X420923Y340993D01*
X420933Y341084D01*
X420939Y341175D01*
X420941Y341266D01*
X420942Y341266D02*
X420942Y343354D01*
X418853Y346823D02*
X420942Y349433D01*
X411544Y349433D01*
X411544Y346823D02*
X411544Y352044D01*
D10*
X419722Y319888D02*
X439852Y319888D01*
D12*
X442341Y335844D02*
X442341Y337933D01*
X442341Y335844D02*
X442343Y335755D01*
X442349Y335667D01*
X442358Y335579D01*
X442371Y335491D01*
X442388Y335404D01*
X442408Y335318D01*
X442433Y335233D01*
X442460Y335148D01*
X442492Y335065D01*
X442526Y334984D01*
X442565Y334904D01*
X442606Y334826D01*
X442651Y334749D01*
X442699Y334675D01*
X442750Y334602D01*
X442804Y334532D01*
X442862Y334465D01*
X442922Y334399D01*
X442984Y334337D01*
X443050Y334277D01*
X443117Y334219D01*
X443187Y334165D01*
X443260Y334114D01*
X443334Y334066D01*
X443411Y334021D01*
X443489Y333980D01*
X443569Y333941D01*
X443650Y333907D01*
X443733Y333875D01*
X443818Y333848D01*
X443903Y333823D01*
X443989Y333803D01*
X444076Y333786D01*
X444164Y333773D01*
X444252Y333764D01*
X444340Y333758D01*
X444429Y333756D01*
X449651Y333756D01*
X449742Y333758D01*
X449833Y333764D01*
X449924Y333774D01*
X450014Y333788D01*
X450103Y333805D01*
X450191Y333827D01*
X450279Y333853D01*
X450365Y333882D01*
X450450Y333915D01*
X450533Y333952D01*
X450615Y333992D01*
X450695Y334036D01*
X450773Y334083D01*
X450849Y334134D01*
X450922Y334187D01*
X450993Y334244D01*
X451062Y334305D01*
X451127Y334368D01*
X451190Y334433D01*
X451250Y334502D01*
X451308Y334573D01*
X451361Y334646D01*
X451412Y334722D01*
X451459Y334800D01*
X451503Y334880D01*
X451543Y334962D01*
X451580Y335045D01*
X451613Y335130D01*
X451642Y335216D01*
X451668Y335304D01*
X451690Y335392D01*
X451707Y335481D01*
X451721Y335571D01*
X451731Y335662D01*
X451737Y335753D01*
X451739Y335844D01*
X451739Y337933D01*
X442341Y341402D02*
X442341Y344012D01*
X442343Y344113D01*
X442349Y344214D01*
X442359Y344315D01*
X442372Y344415D01*
X442390Y344515D01*
X442411Y344614D01*
X442437Y344712D01*
X442466Y344809D01*
X442498Y344905D01*
X442535Y344999D01*
X442575Y345092D01*
X442619Y345184D01*
X442666Y345273D01*
X442717Y345361D01*
X442771Y345447D01*
X442828Y345530D01*
X442888Y345612D01*
X442952Y345690D01*
X443018Y345767D01*
X443088Y345840D01*
X443160Y345911D01*
X443235Y345979D01*
X443313Y346044D01*
X443393Y346106D01*
X443475Y346165D01*
X443560Y346221D01*
X443647Y346273D01*
X443735Y346322D01*
X443826Y346368D01*
X443918Y346409D01*
X444012Y346448D01*
X444107Y346482D01*
X444203Y346513D01*
X444301Y346540D01*
X444399Y346564D01*
X444499Y346583D01*
X444599Y346599D01*
X444699Y346611D01*
X444800Y346619D01*
X444901Y346623D01*
X445003Y346623D01*
X445104Y346619D01*
X445205Y346611D01*
X445305Y346599D01*
X445405Y346583D01*
X445505Y346564D01*
X445603Y346540D01*
X445701Y346513D01*
X445797Y346482D01*
X445892Y346448D01*
X445986Y346409D01*
X446078Y346368D01*
X446169Y346322D01*
X446258Y346273D01*
X446344Y346221D01*
X446429Y346165D01*
X446511Y346106D01*
X446591Y346044D01*
X446669Y345979D01*
X446744Y345911D01*
X446816Y345840D01*
X446886Y345767D01*
X446952Y345690D01*
X447016Y345612D01*
X447076Y345530D01*
X447133Y345447D01*
X447187Y345361D01*
X447238Y345273D01*
X447285Y345184D01*
X447329Y345092D01*
X447369Y344999D01*
X447406Y344905D01*
X447438Y344809D01*
X447467Y344712D01*
X447493Y344614D01*
X447514Y344515D01*
X447532Y344415D01*
X447545Y344315D01*
X447555Y344214D01*
X447561Y344113D01*
X447563Y344012D01*
X451739Y344534D02*
X451739Y341402D01*
X451739Y344534D02*
X451737Y344624D01*
X451731Y344713D01*
X451722Y344803D01*
X451708Y344892D01*
X451691Y344980D01*
X451670Y345067D01*
X451645Y345154D01*
X451616Y345239D01*
X451584Y345323D01*
X451549Y345405D01*
X451509Y345486D01*
X451467Y345565D01*
X451421Y345642D01*
X451371Y345717D01*
X451319Y345790D01*
X451263Y345861D01*
X451205Y345929D01*
X451143Y345994D01*
X451079Y346057D01*
X451012Y346117D01*
X450943Y346174D01*
X450871Y346228D01*
X450797Y346279D01*
X450721Y346327D01*
X450643Y346371D01*
X450563Y346412D01*
X450481Y346450D01*
X450398Y346484D01*
X450313Y346514D01*
X450227Y346541D01*
X450141Y346564D01*
X450053Y346583D01*
X449964Y346598D01*
X449875Y346610D01*
X449786Y346618D01*
X449696Y346622D01*
X449606Y346622D01*
X449516Y346618D01*
X449427Y346610D01*
X449338Y346598D01*
X449249Y346583D01*
X449161Y346564D01*
X449075Y346541D01*
X448989Y346514D01*
X448904Y346484D01*
X448821Y346450D01*
X448739Y346412D01*
X448659Y346371D01*
X448581Y346327D01*
X448505Y346279D01*
X448431Y346228D01*
X448359Y346174D01*
X448290Y346117D01*
X448223Y346057D01*
X448159Y345994D01*
X448097Y345929D01*
X448039Y345861D01*
X447983Y345790D01*
X447931Y345717D01*
X447881Y345642D01*
X447835Y345565D01*
X447793Y345486D01*
X447753Y345405D01*
X447718Y345323D01*
X447686Y345239D01*
X447657Y345154D01*
X447632Y345067D01*
X447611Y344980D01*
X447594Y344892D01*
X447580Y344803D01*
X447571Y344713D01*
X447565Y344624D01*
X447563Y344534D01*
X447562Y344534D02*
X447562Y342446D01*
D13*
X417513Y302895D02*
X417513Y267335D01*
X417513Y302895D02*
X397193Y302895D01*
X397193Y267335D01*
X417513Y267335D01*
D12*
X420751Y274384D02*
X430149Y280649D01*
X430149Y274384D02*
X420751Y280649D01*
X428061Y284050D02*
X430149Y286660D01*
X420751Y286660D01*
X420751Y284050D02*
X420751Y289271D01*
X413749Y440436D02*
X411661Y440436D01*
X413749Y440436D02*
X413838Y440438D01*
X413926Y440444D01*
X414014Y440453D01*
X414102Y440466D01*
X414189Y440483D01*
X414275Y440503D01*
X414360Y440528D01*
X414445Y440555D01*
X414528Y440587D01*
X414609Y440621D01*
X414689Y440660D01*
X414767Y440701D01*
X414844Y440746D01*
X414918Y440794D01*
X414991Y440845D01*
X415061Y440899D01*
X415128Y440957D01*
X415194Y441017D01*
X415256Y441079D01*
X415316Y441145D01*
X415374Y441212D01*
X415428Y441282D01*
X415479Y441355D01*
X415527Y441429D01*
X415572Y441506D01*
X415613Y441584D01*
X415652Y441664D01*
X415686Y441745D01*
X415718Y441828D01*
X415745Y441913D01*
X415770Y441998D01*
X415790Y442084D01*
X415807Y442171D01*
X415820Y442259D01*
X415829Y442347D01*
X415835Y442435D01*
X415837Y442524D01*
X415838Y442524D02*
X415838Y447746D01*
X415837Y447746D02*
X415835Y447835D01*
X415829Y447923D01*
X415820Y448011D01*
X415807Y448099D01*
X415790Y448186D01*
X415770Y448272D01*
X415745Y448357D01*
X415718Y448442D01*
X415686Y448525D01*
X415652Y448606D01*
X415613Y448686D01*
X415572Y448764D01*
X415527Y448841D01*
X415479Y448915D01*
X415428Y448988D01*
X415374Y449058D01*
X415316Y449125D01*
X415256Y449191D01*
X415194Y449253D01*
X415128Y449313D01*
X415061Y449371D01*
X414991Y449425D01*
X414918Y449476D01*
X414844Y449524D01*
X414767Y449569D01*
X414689Y449610D01*
X414609Y449649D01*
X414528Y449683D01*
X414445Y449715D01*
X414360Y449742D01*
X414275Y449767D01*
X414189Y449787D01*
X414102Y449804D01*
X414014Y449817D01*
X413926Y449826D01*
X413838Y449832D01*
X413749Y449834D01*
X411661Y449834D01*
X406104Y449834D02*
X408192Y442524D01*
X402971Y442524D01*
X404537Y444613D02*
X404537Y440436D01*
X276907Y302006D02*
X274818Y302006D01*
X276907Y302006D02*
X276996Y302008D01*
X277084Y302014D01*
X277172Y302023D01*
X277260Y302036D01*
X277347Y302053D01*
X277433Y302073D01*
X277518Y302098D01*
X277603Y302125D01*
X277686Y302157D01*
X277767Y302191D01*
X277847Y302230D01*
X277925Y302271D01*
X278002Y302316D01*
X278076Y302364D01*
X278149Y302415D01*
X278219Y302469D01*
X278286Y302527D01*
X278352Y302587D01*
X278414Y302649D01*
X278474Y302715D01*
X278532Y302782D01*
X278586Y302852D01*
X278637Y302925D01*
X278685Y302999D01*
X278730Y303076D01*
X278771Y303154D01*
X278810Y303234D01*
X278844Y303315D01*
X278876Y303398D01*
X278903Y303483D01*
X278928Y303568D01*
X278948Y303654D01*
X278965Y303741D01*
X278978Y303829D01*
X278987Y303917D01*
X278993Y304005D01*
X278995Y304094D01*
X278995Y309316D01*
X278993Y309405D01*
X278987Y309493D01*
X278978Y309581D01*
X278965Y309669D01*
X278948Y309756D01*
X278928Y309842D01*
X278903Y309927D01*
X278876Y310012D01*
X278844Y310095D01*
X278810Y310176D01*
X278771Y310256D01*
X278730Y310334D01*
X278685Y310411D01*
X278637Y310485D01*
X278586Y310558D01*
X278532Y310628D01*
X278474Y310695D01*
X278414Y310761D01*
X278352Y310823D01*
X278286Y310883D01*
X278219Y310941D01*
X278149Y310995D01*
X278076Y311046D01*
X278002Y311094D01*
X277925Y311139D01*
X277847Y311180D01*
X277767Y311219D01*
X277686Y311253D01*
X277603Y311285D01*
X277518Y311312D01*
X277433Y311337D01*
X277347Y311357D01*
X277260Y311374D01*
X277172Y311387D01*
X277084Y311396D01*
X276996Y311402D01*
X276907Y311404D01*
X274818Y311404D01*
X271350Y302006D02*
X268217Y302006D01*
X268128Y302008D01*
X268040Y302014D01*
X267952Y302023D01*
X267864Y302036D01*
X267777Y302053D01*
X267691Y302073D01*
X267606Y302098D01*
X267521Y302125D01*
X267438Y302157D01*
X267357Y302191D01*
X267277Y302230D01*
X267199Y302271D01*
X267122Y302316D01*
X267048Y302364D01*
X266975Y302415D01*
X266905Y302469D01*
X266838Y302527D01*
X266772Y302587D01*
X266710Y302649D01*
X266650Y302715D01*
X266592Y302782D01*
X266538Y302852D01*
X266487Y302925D01*
X266439Y302999D01*
X266394Y303076D01*
X266353Y303154D01*
X266314Y303234D01*
X266280Y303315D01*
X266248Y303398D01*
X266221Y303483D01*
X266196Y303568D01*
X266176Y303654D01*
X266159Y303741D01*
X266146Y303829D01*
X266137Y303917D01*
X266131Y304005D01*
X266129Y304094D01*
X266129Y305139D01*
X266131Y305228D01*
X266137Y305316D01*
X266146Y305404D01*
X266159Y305492D01*
X266176Y305579D01*
X266196Y305665D01*
X266221Y305750D01*
X266248Y305835D01*
X266280Y305918D01*
X266314Y305999D01*
X266353Y306079D01*
X266394Y306157D01*
X266439Y306234D01*
X266487Y306308D01*
X266538Y306381D01*
X266592Y306451D01*
X266650Y306518D01*
X266710Y306584D01*
X266772Y306646D01*
X266838Y306706D01*
X266905Y306764D01*
X266975Y306818D01*
X267048Y306869D01*
X267122Y306917D01*
X267199Y306962D01*
X267277Y307003D01*
X267357Y307042D01*
X267438Y307076D01*
X267521Y307108D01*
X267606Y307135D01*
X267691Y307160D01*
X267777Y307180D01*
X267864Y307197D01*
X267952Y307210D01*
X268040Y307219D01*
X268128Y307225D01*
X268217Y307227D01*
X271350Y307227D01*
X271350Y311404D01*
X266129Y311404D01*
X408827Y376936D02*
X410916Y376936D01*
X411005Y376938D01*
X411093Y376944D01*
X411181Y376953D01*
X411269Y376966D01*
X411356Y376983D01*
X411442Y377003D01*
X411527Y377028D01*
X411612Y377055D01*
X411695Y377087D01*
X411776Y377121D01*
X411856Y377160D01*
X411934Y377201D01*
X412011Y377246D01*
X412085Y377294D01*
X412158Y377345D01*
X412228Y377399D01*
X412295Y377457D01*
X412361Y377517D01*
X412423Y377579D01*
X412483Y377645D01*
X412541Y377712D01*
X412595Y377782D01*
X412646Y377855D01*
X412694Y377929D01*
X412739Y378006D01*
X412780Y378084D01*
X412819Y378164D01*
X412853Y378245D01*
X412885Y378328D01*
X412912Y378413D01*
X412937Y378498D01*
X412957Y378584D01*
X412974Y378671D01*
X412987Y378759D01*
X412996Y378847D01*
X413002Y378935D01*
X413004Y379024D01*
X413004Y384246D01*
X413002Y384335D01*
X412996Y384423D01*
X412987Y384511D01*
X412974Y384599D01*
X412957Y384686D01*
X412937Y384772D01*
X412912Y384857D01*
X412885Y384942D01*
X412853Y385025D01*
X412819Y385106D01*
X412780Y385186D01*
X412739Y385264D01*
X412694Y385341D01*
X412646Y385415D01*
X412595Y385488D01*
X412541Y385558D01*
X412483Y385625D01*
X412423Y385691D01*
X412361Y385753D01*
X412295Y385813D01*
X412228Y385871D01*
X412158Y385925D01*
X412085Y385976D01*
X412011Y386024D01*
X411934Y386069D01*
X411856Y386110D01*
X411776Y386149D01*
X411695Y386183D01*
X411612Y386215D01*
X411527Y386242D01*
X411442Y386267D01*
X411356Y386287D01*
X411269Y386304D01*
X411181Y386317D01*
X411093Y386326D01*
X411005Y386332D01*
X410916Y386334D01*
X408827Y386334D01*
X405358Y386334D02*
X405358Y385290D01*
X405358Y386334D02*
X400137Y386334D01*
X402748Y376936D01*
D10*
X384340Y386283D02*
X384340Y406413D01*
D12*
X407216Y405511D02*
X409304Y405511D01*
X409393Y405513D01*
X409481Y405519D01*
X409569Y405528D01*
X409657Y405541D01*
X409744Y405558D01*
X409830Y405578D01*
X409915Y405603D01*
X410000Y405630D01*
X410083Y405662D01*
X410164Y405696D01*
X410244Y405735D01*
X410322Y405776D01*
X410399Y405821D01*
X410473Y405869D01*
X410546Y405920D01*
X410616Y405974D01*
X410683Y406032D01*
X410749Y406092D01*
X410811Y406154D01*
X410871Y406220D01*
X410929Y406287D01*
X410983Y406357D01*
X411034Y406430D01*
X411082Y406504D01*
X411127Y406581D01*
X411168Y406659D01*
X411207Y406739D01*
X411241Y406820D01*
X411273Y406903D01*
X411300Y406988D01*
X411325Y407073D01*
X411345Y407159D01*
X411362Y407246D01*
X411375Y407334D01*
X411384Y407422D01*
X411390Y407510D01*
X411392Y407599D01*
X411393Y407599D02*
X411393Y412821D01*
X411392Y412821D02*
X411390Y412910D01*
X411384Y412998D01*
X411375Y413086D01*
X411362Y413174D01*
X411345Y413261D01*
X411325Y413347D01*
X411300Y413432D01*
X411273Y413517D01*
X411241Y413600D01*
X411207Y413681D01*
X411168Y413761D01*
X411127Y413839D01*
X411082Y413916D01*
X411034Y413990D01*
X410983Y414063D01*
X410929Y414133D01*
X410871Y414200D01*
X410811Y414266D01*
X410749Y414328D01*
X410683Y414388D01*
X410616Y414446D01*
X410546Y414500D01*
X410473Y414551D01*
X410399Y414599D01*
X410322Y414644D01*
X410244Y414685D01*
X410164Y414724D01*
X410083Y414758D01*
X410000Y414790D01*
X409915Y414817D01*
X409830Y414842D01*
X409744Y414862D01*
X409657Y414879D01*
X409569Y414892D01*
X409481Y414901D01*
X409393Y414907D01*
X409304Y414909D01*
X407216Y414909D01*
X403748Y408122D02*
X403746Y408223D01*
X403740Y408324D01*
X403730Y408425D01*
X403717Y408525D01*
X403699Y408625D01*
X403678Y408724D01*
X403652Y408822D01*
X403623Y408919D01*
X403591Y409015D01*
X403554Y409109D01*
X403514Y409202D01*
X403470Y409294D01*
X403423Y409383D01*
X403372Y409471D01*
X403318Y409557D01*
X403261Y409640D01*
X403201Y409722D01*
X403137Y409800D01*
X403071Y409877D01*
X403001Y409950D01*
X402929Y410021D01*
X402854Y410089D01*
X402776Y410154D01*
X402696Y410216D01*
X402614Y410275D01*
X402529Y410331D01*
X402443Y410383D01*
X402354Y410432D01*
X402263Y410478D01*
X402171Y410519D01*
X402077Y410558D01*
X401982Y410592D01*
X401886Y410623D01*
X401788Y410650D01*
X401690Y410674D01*
X401590Y410693D01*
X401490Y410709D01*
X401390Y410721D01*
X401289Y410729D01*
X401188Y410733D01*
X401086Y410733D01*
X400985Y410729D01*
X400884Y410721D01*
X400784Y410709D01*
X400684Y410693D01*
X400584Y410674D01*
X400486Y410650D01*
X400388Y410623D01*
X400292Y410592D01*
X400197Y410558D01*
X400103Y410519D01*
X400011Y410478D01*
X399920Y410432D01*
X399832Y410383D01*
X399745Y410331D01*
X399660Y410275D01*
X399578Y410216D01*
X399498Y410154D01*
X399420Y410089D01*
X399345Y410021D01*
X399273Y409950D01*
X399203Y409877D01*
X399137Y409800D01*
X399073Y409722D01*
X399013Y409640D01*
X398956Y409557D01*
X398902Y409471D01*
X398851Y409383D01*
X398804Y409294D01*
X398760Y409202D01*
X398720Y409109D01*
X398683Y409015D01*
X398651Y408919D01*
X398622Y408822D01*
X398596Y408724D01*
X398575Y408625D01*
X398557Y408525D01*
X398544Y408425D01*
X398534Y408324D01*
X398528Y408223D01*
X398526Y408122D01*
X398528Y408021D01*
X398534Y407920D01*
X398544Y407819D01*
X398557Y407719D01*
X398575Y407619D01*
X398596Y407520D01*
X398622Y407422D01*
X398651Y407325D01*
X398683Y407229D01*
X398720Y407135D01*
X398760Y407042D01*
X398804Y406950D01*
X398851Y406861D01*
X398902Y406773D01*
X398956Y406687D01*
X399013Y406604D01*
X399073Y406522D01*
X399137Y406444D01*
X399203Y406367D01*
X399273Y406294D01*
X399345Y406223D01*
X399420Y406155D01*
X399498Y406090D01*
X399578Y406028D01*
X399660Y405969D01*
X399745Y405913D01*
X399832Y405861D01*
X399920Y405812D01*
X400011Y405766D01*
X400103Y405725D01*
X400197Y405686D01*
X400292Y405652D01*
X400388Y405621D01*
X400486Y405594D01*
X400584Y405570D01*
X400684Y405551D01*
X400784Y405535D01*
X400884Y405523D01*
X400985Y405515D01*
X401086Y405511D01*
X401188Y405511D01*
X401289Y405515D01*
X401390Y405523D01*
X401490Y405535D01*
X401590Y405551D01*
X401690Y405570D01*
X401788Y405594D01*
X401886Y405621D01*
X401982Y405652D01*
X402077Y405686D01*
X402171Y405725D01*
X402263Y405766D01*
X402354Y405812D01*
X402442Y405861D01*
X402529Y405913D01*
X402614Y405969D01*
X402696Y406028D01*
X402776Y406090D01*
X402854Y406155D01*
X402929Y406223D01*
X403001Y406294D01*
X403071Y406367D01*
X403137Y406444D01*
X403201Y406522D01*
X403261Y406604D01*
X403318Y406687D01*
X403372Y406773D01*
X403423Y406861D01*
X403470Y406950D01*
X403514Y407042D01*
X403554Y407135D01*
X403591Y407229D01*
X403623Y407325D01*
X403652Y407422D01*
X403678Y407520D01*
X403699Y407619D01*
X403717Y407719D01*
X403730Y407819D01*
X403740Y407920D01*
X403746Y408021D01*
X403748Y408122D01*
X403225Y412821D02*
X403223Y412911D01*
X403217Y413000D01*
X403208Y413090D01*
X403194Y413179D01*
X403177Y413267D01*
X403156Y413354D01*
X403131Y413441D01*
X403102Y413526D01*
X403070Y413610D01*
X403035Y413692D01*
X402995Y413773D01*
X402953Y413852D01*
X402907Y413929D01*
X402857Y414004D01*
X402805Y414077D01*
X402749Y414148D01*
X402691Y414216D01*
X402629Y414281D01*
X402565Y414344D01*
X402498Y414404D01*
X402429Y414461D01*
X402357Y414515D01*
X402283Y414566D01*
X402207Y414614D01*
X402129Y414658D01*
X402049Y414699D01*
X401967Y414737D01*
X401884Y414771D01*
X401799Y414801D01*
X401713Y414828D01*
X401627Y414851D01*
X401539Y414870D01*
X401450Y414885D01*
X401361Y414897D01*
X401272Y414905D01*
X401182Y414909D01*
X401092Y414909D01*
X401002Y414905D01*
X400913Y414897D01*
X400824Y414885D01*
X400735Y414870D01*
X400647Y414851D01*
X400561Y414828D01*
X400475Y414801D01*
X400390Y414771D01*
X400307Y414737D01*
X400225Y414699D01*
X400145Y414658D01*
X400067Y414614D01*
X399991Y414566D01*
X399917Y414515D01*
X399845Y414461D01*
X399776Y414404D01*
X399709Y414344D01*
X399645Y414281D01*
X399583Y414216D01*
X399525Y414148D01*
X399469Y414077D01*
X399417Y414004D01*
X399367Y413929D01*
X399321Y413852D01*
X399279Y413773D01*
X399239Y413692D01*
X399204Y413610D01*
X399172Y413526D01*
X399143Y413441D01*
X399118Y413354D01*
X399097Y413267D01*
X399080Y413179D01*
X399066Y413090D01*
X399057Y413000D01*
X399051Y412911D01*
X399049Y412821D01*
X399051Y412731D01*
X399057Y412642D01*
X399066Y412552D01*
X399080Y412463D01*
X399097Y412375D01*
X399118Y412288D01*
X399143Y412201D01*
X399172Y412116D01*
X399204Y412032D01*
X399239Y411950D01*
X399279Y411869D01*
X399321Y411790D01*
X399367Y411713D01*
X399417Y411638D01*
X399469Y411565D01*
X399525Y411494D01*
X399583Y411426D01*
X399645Y411361D01*
X399709Y411298D01*
X399776Y411238D01*
X399845Y411181D01*
X399917Y411127D01*
X399991Y411076D01*
X400067Y411028D01*
X400145Y410984D01*
X400225Y410943D01*
X400307Y410905D01*
X400390Y410871D01*
X400475Y410841D01*
X400561Y410814D01*
X400647Y410791D01*
X400735Y410772D01*
X400824Y410757D01*
X400913Y410745D01*
X401002Y410737D01*
X401092Y410733D01*
X401182Y410733D01*
X401272Y410737D01*
X401361Y410745D01*
X401450Y410757D01*
X401539Y410772D01*
X401627Y410791D01*
X401713Y410814D01*
X401799Y410841D01*
X401884Y410871D01*
X401967Y410905D01*
X402049Y410943D01*
X402129Y410984D01*
X402207Y411028D01*
X402283Y411076D01*
X402357Y411127D01*
X402429Y411181D01*
X402498Y411238D01*
X402565Y411298D01*
X402629Y411361D01*
X402691Y411426D01*
X402749Y411494D01*
X402805Y411565D01*
X402857Y411638D01*
X402907Y411713D01*
X402953Y411790D01*
X402995Y411869D01*
X403035Y411950D01*
X403070Y412032D01*
X403102Y412116D01*
X403131Y412201D01*
X403156Y412288D01*
X403177Y412375D01*
X403194Y412463D01*
X403208Y412552D01*
X403217Y412642D01*
X403223Y412731D01*
X403225Y412821D01*
X275844Y383477D02*
X275844Y374079D01*
X275844Y383477D02*
X273233Y383477D01*
X273132Y383475D01*
X273031Y383469D01*
X272930Y383459D01*
X272830Y383446D01*
X272730Y383428D01*
X272631Y383407D01*
X272533Y383381D01*
X272436Y383352D01*
X272340Y383320D01*
X272246Y383283D01*
X272153Y383243D01*
X272061Y383199D01*
X271972Y383152D01*
X271884Y383101D01*
X271798Y383047D01*
X271715Y382990D01*
X271633Y382930D01*
X271555Y382866D01*
X271478Y382800D01*
X271405Y382730D01*
X271334Y382658D01*
X271266Y382583D01*
X271201Y382505D01*
X271139Y382425D01*
X271080Y382343D01*
X271024Y382258D01*
X270972Y382172D01*
X270923Y382083D01*
X270877Y381992D01*
X270836Y381900D01*
X270797Y381806D01*
X270763Y381711D01*
X270732Y381615D01*
X270705Y381517D01*
X270681Y381419D01*
X270662Y381319D01*
X270646Y381219D01*
X270634Y381119D01*
X270626Y381018D01*
X270622Y380917D01*
X270622Y380815D01*
X270626Y380714D01*
X270634Y380613D01*
X270646Y380513D01*
X270662Y380413D01*
X270681Y380313D01*
X270705Y380215D01*
X270732Y380117D01*
X270763Y380021D01*
X270797Y379926D01*
X270836Y379832D01*
X270877Y379740D01*
X270923Y379649D01*
X270972Y379561D01*
X271024Y379474D01*
X271080Y379389D01*
X271139Y379307D01*
X271201Y379227D01*
X271266Y379149D01*
X271334Y379074D01*
X271405Y379002D01*
X271478Y378932D01*
X271555Y378866D01*
X271633Y378802D01*
X271715Y378742D01*
X271798Y378685D01*
X271884Y378631D01*
X271972Y378580D01*
X272061Y378533D01*
X272153Y378489D01*
X272246Y378449D01*
X272340Y378412D01*
X272436Y378380D01*
X272533Y378351D01*
X272631Y378325D01*
X272730Y378304D01*
X272830Y378286D01*
X272930Y378273D01*
X273031Y378263D01*
X273132Y378257D01*
X273233Y378255D01*
X275844Y378255D01*
X272711Y378255D02*
X270623Y374079D01*
X261536Y381127D02*
X261538Y381222D01*
X261544Y381316D01*
X261553Y381410D01*
X261566Y381504D01*
X261583Y381597D01*
X261604Y381689D01*
X261629Y381781D01*
X261657Y381871D01*
X261689Y381960D01*
X261724Y382048D01*
X261763Y382134D01*
X261805Y382219D01*
X261851Y382302D01*
X261900Y382383D01*
X261952Y382462D01*
X262007Y382539D01*
X262066Y382613D01*
X262127Y382685D01*
X262191Y382755D01*
X262258Y382822D01*
X262328Y382886D01*
X262400Y382947D01*
X262474Y383006D01*
X262551Y383061D01*
X262630Y383113D01*
X262711Y383162D01*
X262794Y383208D01*
X262879Y383250D01*
X262965Y383289D01*
X263053Y383324D01*
X263142Y383356D01*
X263232Y383384D01*
X263324Y383409D01*
X263416Y383430D01*
X263509Y383447D01*
X263603Y383460D01*
X263697Y383469D01*
X263791Y383475D01*
X263886Y383477D01*
X263886Y383476D02*
X263994Y383474D01*
X264103Y383468D01*
X264211Y383458D01*
X264318Y383445D01*
X264425Y383427D01*
X264532Y383406D01*
X264637Y383381D01*
X264742Y383352D01*
X264845Y383320D01*
X264947Y383283D01*
X265048Y383243D01*
X265147Y383200D01*
X265245Y383153D01*
X265341Y383102D01*
X265435Y383048D01*
X265527Y382991D01*
X265617Y382930D01*
X265705Y382866D01*
X265790Y382800D01*
X265873Y382730D01*
X265953Y382657D01*
X266031Y382581D01*
X266106Y382503D01*
X266178Y382422D01*
X266247Y382338D01*
X266313Y382252D01*
X266376Y382164D01*
X266435Y382073D01*
X266492Y381981D01*
X266545Y381886D01*
X266594Y381789D01*
X266640Y381691D01*
X266683Y381592D01*
X266722Y381490D01*
X266757Y381388D01*
X262319Y379299D02*
X262250Y379368D01*
X262184Y379439D01*
X262120Y379512D01*
X262059Y379588D01*
X262001Y379667D01*
X261947Y379747D01*
X261895Y379830D01*
X261847Y379914D01*
X261801Y380000D01*
X261760Y380088D01*
X261721Y380178D01*
X261686Y380269D01*
X261655Y380361D01*
X261627Y380454D01*
X261603Y380548D01*
X261583Y380643D01*
X261566Y380739D01*
X261553Y380836D01*
X261544Y380933D01*
X261538Y381030D01*
X261536Y381127D01*
X262319Y379300D02*
X266757Y374079D01*
X261536Y374079D01*
D10*
X286537Y277292D02*
X286537Y257162D01*
D12*
X271851Y275019D02*
X269762Y275019D01*
X271851Y275019D02*
X271940Y275021D01*
X272028Y275027D01*
X272116Y275036D01*
X272204Y275049D01*
X272291Y275066D01*
X272377Y275086D01*
X272462Y275111D01*
X272547Y275138D01*
X272630Y275170D01*
X272711Y275204D01*
X272791Y275243D01*
X272869Y275284D01*
X272946Y275329D01*
X273020Y275377D01*
X273093Y275428D01*
X273163Y275482D01*
X273230Y275540D01*
X273296Y275600D01*
X273358Y275662D01*
X273418Y275728D01*
X273476Y275795D01*
X273530Y275865D01*
X273581Y275938D01*
X273629Y276012D01*
X273674Y276089D01*
X273715Y276167D01*
X273754Y276247D01*
X273788Y276328D01*
X273820Y276411D01*
X273847Y276496D01*
X273872Y276581D01*
X273892Y276667D01*
X273909Y276754D01*
X273922Y276842D01*
X273931Y276930D01*
X273937Y277018D01*
X273939Y277107D01*
X273939Y282328D01*
X273937Y282417D01*
X273931Y282505D01*
X273922Y282593D01*
X273909Y282681D01*
X273892Y282768D01*
X273872Y282854D01*
X273847Y282939D01*
X273820Y283024D01*
X273788Y283107D01*
X273754Y283188D01*
X273715Y283268D01*
X273674Y283346D01*
X273629Y283423D01*
X273581Y283497D01*
X273530Y283570D01*
X273476Y283640D01*
X273418Y283707D01*
X273358Y283773D01*
X273296Y283835D01*
X273230Y283895D01*
X273163Y283953D01*
X273093Y284007D01*
X273020Y284058D01*
X272946Y284106D01*
X272869Y284151D01*
X272791Y284192D01*
X272711Y284231D01*
X272630Y284265D01*
X272547Y284297D01*
X272462Y284324D01*
X272377Y284349D01*
X272291Y284369D01*
X272204Y284386D01*
X272116Y284399D01*
X272028Y284408D01*
X271940Y284414D01*
X271851Y284416D01*
X271851Y284417D02*
X269762Y284417D01*
X266293Y280240D02*
X263161Y280240D01*
X263161Y280239D02*
X263072Y280237D01*
X262984Y280231D01*
X262896Y280222D01*
X262808Y280209D01*
X262721Y280192D01*
X262635Y280172D01*
X262550Y280147D01*
X262465Y280120D01*
X262382Y280088D01*
X262301Y280054D01*
X262221Y280015D01*
X262143Y279974D01*
X262066Y279929D01*
X261992Y279881D01*
X261919Y279830D01*
X261849Y279776D01*
X261782Y279718D01*
X261716Y279658D01*
X261654Y279596D01*
X261594Y279530D01*
X261536Y279463D01*
X261482Y279393D01*
X261431Y279320D01*
X261383Y279246D01*
X261338Y279169D01*
X261297Y279091D01*
X261258Y279011D01*
X261224Y278930D01*
X261192Y278847D01*
X261165Y278762D01*
X261140Y278677D01*
X261120Y278591D01*
X261103Y278504D01*
X261090Y278416D01*
X261081Y278328D01*
X261075Y278240D01*
X261073Y278151D01*
X261072Y278151D02*
X261072Y277629D01*
X261074Y277528D01*
X261080Y277427D01*
X261090Y277326D01*
X261103Y277226D01*
X261121Y277126D01*
X261142Y277027D01*
X261168Y276929D01*
X261197Y276832D01*
X261229Y276736D01*
X261266Y276642D01*
X261306Y276549D01*
X261350Y276457D01*
X261397Y276368D01*
X261448Y276280D01*
X261502Y276194D01*
X261559Y276111D01*
X261619Y276029D01*
X261683Y275951D01*
X261749Y275874D01*
X261819Y275801D01*
X261891Y275730D01*
X261966Y275662D01*
X262044Y275597D01*
X262124Y275535D01*
X262206Y275476D01*
X262291Y275420D01*
X262378Y275368D01*
X262466Y275319D01*
X262557Y275273D01*
X262649Y275232D01*
X262743Y275193D01*
X262838Y275159D01*
X262934Y275128D01*
X263032Y275101D01*
X263130Y275077D01*
X263230Y275058D01*
X263330Y275042D01*
X263430Y275030D01*
X263531Y275022D01*
X263632Y275018D01*
X263734Y275018D01*
X263835Y275022D01*
X263936Y275030D01*
X264036Y275042D01*
X264136Y275058D01*
X264236Y275077D01*
X264334Y275101D01*
X264432Y275128D01*
X264528Y275159D01*
X264623Y275193D01*
X264717Y275232D01*
X264809Y275273D01*
X264900Y275319D01*
X264988Y275368D01*
X265075Y275420D01*
X265160Y275476D01*
X265242Y275535D01*
X265322Y275597D01*
X265400Y275662D01*
X265475Y275730D01*
X265547Y275801D01*
X265617Y275874D01*
X265683Y275951D01*
X265747Y276029D01*
X265807Y276111D01*
X265864Y276194D01*
X265918Y276280D01*
X265969Y276368D01*
X266016Y276457D01*
X266060Y276549D01*
X266100Y276642D01*
X266137Y276736D01*
X266169Y276832D01*
X266198Y276929D01*
X266224Y277027D01*
X266245Y277126D01*
X266263Y277226D01*
X266276Y277326D01*
X266286Y277427D01*
X266292Y277528D01*
X266294Y277629D01*
X266293Y277629D02*
X266293Y280240D01*
X266291Y280366D01*
X266285Y280492D01*
X266276Y280618D01*
X266263Y280743D01*
X266245Y280868D01*
X266225Y280993D01*
X266200Y281117D01*
X266172Y281240D01*
X266140Y281362D01*
X266104Y281483D01*
X266065Y281603D01*
X266022Y281721D01*
X265975Y281838D01*
X265925Y281954D01*
X265871Y282069D01*
X265815Y282181D01*
X265754Y282292D01*
X265691Y282401D01*
X265624Y282508D01*
X265554Y282613D01*
X265480Y282716D01*
X265404Y282816D01*
X265325Y282914D01*
X265243Y283010D01*
X265157Y283103D01*
X265070Y283194D01*
X264979Y283281D01*
X264886Y283367D01*
X264790Y283449D01*
X264692Y283528D01*
X264592Y283604D01*
X264489Y283678D01*
X264384Y283748D01*
X264277Y283815D01*
X264168Y283878D01*
X264057Y283939D01*
X263945Y283995D01*
X263830Y284049D01*
X263714Y284099D01*
X263597Y284146D01*
X263479Y284189D01*
X263359Y284228D01*
X263238Y284264D01*
X263116Y284296D01*
X262993Y284324D01*
X262869Y284349D01*
X262744Y284369D01*
X262619Y284387D01*
X262494Y284400D01*
X262368Y284409D01*
X262242Y284415D01*
X262116Y284417D01*
X435674Y297879D02*
X445072Y297879D01*
X445072Y300489D01*
X445070Y300590D01*
X445064Y300691D01*
X445054Y300792D01*
X445041Y300892D01*
X445023Y300992D01*
X445002Y301091D01*
X444976Y301189D01*
X444947Y301286D01*
X444915Y301382D01*
X444878Y301476D01*
X444838Y301569D01*
X444794Y301661D01*
X444747Y301750D01*
X444696Y301838D01*
X444642Y301924D01*
X444585Y302007D01*
X444525Y302089D01*
X444461Y302167D01*
X444395Y302244D01*
X444325Y302317D01*
X444253Y302388D01*
X444178Y302456D01*
X444100Y302521D01*
X444020Y302583D01*
X443938Y302642D01*
X443853Y302698D01*
X443767Y302750D01*
X443678Y302799D01*
X443587Y302845D01*
X443495Y302886D01*
X443401Y302925D01*
X443306Y302959D01*
X443210Y302990D01*
X443112Y303017D01*
X443014Y303041D01*
X442914Y303060D01*
X442814Y303076D01*
X442714Y303088D01*
X442613Y303096D01*
X442512Y303100D01*
X442410Y303100D01*
X442309Y303096D01*
X442208Y303088D01*
X442108Y303076D01*
X442008Y303060D01*
X441908Y303041D01*
X441810Y303017D01*
X441712Y302990D01*
X441616Y302959D01*
X441521Y302925D01*
X441427Y302886D01*
X441335Y302845D01*
X441244Y302799D01*
X441156Y302750D01*
X441069Y302698D01*
X440984Y302642D01*
X440902Y302583D01*
X440822Y302521D01*
X440744Y302456D01*
X440669Y302388D01*
X440597Y302317D01*
X440527Y302244D01*
X440461Y302167D01*
X440397Y302089D01*
X440337Y302007D01*
X440280Y301924D01*
X440226Y301838D01*
X440175Y301750D01*
X440128Y301661D01*
X440084Y301569D01*
X440044Y301476D01*
X440007Y301382D01*
X439975Y301286D01*
X439946Y301189D01*
X439920Y301091D01*
X439899Y300992D01*
X439881Y300892D01*
X439868Y300792D01*
X439858Y300691D01*
X439852Y300590D01*
X439850Y300489D01*
X439850Y297879D01*
X439850Y301011D02*
X435674Y303100D01*
X435674Y306965D02*
X435674Y309576D01*
X435673Y309576D02*
X435675Y309677D01*
X435681Y309778D01*
X435691Y309879D01*
X435704Y309979D01*
X435722Y310079D01*
X435743Y310178D01*
X435769Y310276D01*
X435798Y310373D01*
X435830Y310469D01*
X435867Y310563D01*
X435907Y310656D01*
X435951Y310748D01*
X435998Y310837D01*
X436049Y310925D01*
X436103Y311011D01*
X436160Y311094D01*
X436220Y311176D01*
X436284Y311254D01*
X436350Y311331D01*
X436420Y311404D01*
X436492Y311475D01*
X436567Y311543D01*
X436645Y311608D01*
X436725Y311670D01*
X436807Y311729D01*
X436892Y311785D01*
X436979Y311837D01*
X437067Y311886D01*
X437158Y311932D01*
X437250Y311973D01*
X437344Y312012D01*
X437439Y312046D01*
X437535Y312077D01*
X437633Y312104D01*
X437731Y312128D01*
X437831Y312147D01*
X437931Y312163D01*
X438031Y312175D01*
X438132Y312183D01*
X438233Y312187D01*
X438335Y312187D01*
X438436Y312183D01*
X438537Y312175D01*
X438637Y312163D01*
X438737Y312147D01*
X438837Y312128D01*
X438935Y312104D01*
X439033Y312077D01*
X439129Y312046D01*
X439224Y312012D01*
X439318Y311973D01*
X439410Y311932D01*
X439501Y311886D01*
X439590Y311837D01*
X439676Y311785D01*
X439761Y311729D01*
X439843Y311670D01*
X439923Y311608D01*
X440001Y311543D01*
X440076Y311475D01*
X440148Y311404D01*
X440218Y311331D01*
X440284Y311254D01*
X440348Y311176D01*
X440408Y311094D01*
X440465Y311011D01*
X440519Y310925D01*
X440570Y310837D01*
X440617Y310748D01*
X440661Y310656D01*
X440701Y310563D01*
X440738Y310469D01*
X440770Y310373D01*
X440799Y310276D01*
X440825Y310178D01*
X440846Y310079D01*
X440864Y309979D01*
X440877Y309879D01*
X440887Y309778D01*
X440893Y309677D01*
X440895Y309576D01*
X445072Y310098D02*
X445072Y306965D01*
X445071Y310098D02*
X445069Y310188D01*
X445063Y310277D01*
X445054Y310367D01*
X445040Y310456D01*
X445023Y310544D01*
X445002Y310631D01*
X444977Y310718D01*
X444948Y310803D01*
X444916Y310887D01*
X444881Y310969D01*
X444841Y311050D01*
X444799Y311129D01*
X444753Y311206D01*
X444703Y311281D01*
X444651Y311354D01*
X444595Y311425D01*
X444537Y311493D01*
X444475Y311558D01*
X444411Y311621D01*
X444344Y311681D01*
X444275Y311738D01*
X444203Y311792D01*
X444129Y311843D01*
X444053Y311891D01*
X443975Y311935D01*
X443895Y311976D01*
X443813Y312014D01*
X443730Y312048D01*
X443645Y312078D01*
X443559Y312105D01*
X443473Y312128D01*
X443385Y312147D01*
X443296Y312162D01*
X443207Y312174D01*
X443118Y312182D01*
X443028Y312186D01*
X442938Y312186D01*
X442848Y312182D01*
X442759Y312174D01*
X442670Y312162D01*
X442581Y312147D01*
X442493Y312128D01*
X442407Y312105D01*
X442321Y312078D01*
X442236Y312048D01*
X442153Y312014D01*
X442071Y311976D01*
X441991Y311935D01*
X441913Y311891D01*
X441837Y311843D01*
X441763Y311792D01*
X441691Y311738D01*
X441622Y311681D01*
X441555Y311621D01*
X441491Y311558D01*
X441429Y311493D01*
X441371Y311425D01*
X441315Y311354D01*
X441263Y311281D01*
X441213Y311206D01*
X441167Y311129D01*
X441125Y311050D01*
X441085Y310969D01*
X441050Y310887D01*
X441018Y310803D01*
X440989Y310718D01*
X440964Y310631D01*
X440943Y310544D01*
X440926Y310456D01*
X440912Y310367D01*
X440903Y310277D01*
X440897Y310188D01*
X440895Y310098D01*
X440895Y308010D01*
D10*
X379730Y258445D02*
X375004Y258445D01*
X306070Y258445D02*
X306070Y263171D01*
X306070Y332105D02*
X310796Y332105D01*
X379730Y332105D02*
X379730Y327379D01*
X379730Y263171D02*
X379730Y258445D01*
X310796Y258445D02*
X306070Y258445D01*
X306070Y327379D02*
X306070Y332105D01*
X375004Y332105D02*
X379730Y332105D01*
D12*
X389592Y327936D02*
X389592Y323957D01*
X387271Y320972D01*
X389592Y323957D02*
X391914Y320972D01*
X389592Y323957D02*
X385945Y325283D01*
X389592Y323957D02*
X393240Y325283D01*
X361569Y364724D02*
X352171Y364724D01*
X361569Y364724D02*
X361569Y367334D01*
X361567Y367435D01*
X361561Y367536D01*
X361551Y367637D01*
X361538Y367737D01*
X361520Y367837D01*
X361499Y367936D01*
X361473Y368034D01*
X361444Y368131D01*
X361412Y368227D01*
X361375Y368321D01*
X361335Y368414D01*
X361291Y368506D01*
X361244Y368595D01*
X361193Y368683D01*
X361139Y368769D01*
X361082Y368852D01*
X361022Y368934D01*
X360958Y369012D01*
X360892Y369089D01*
X360822Y369162D01*
X360750Y369233D01*
X360675Y369301D01*
X360597Y369366D01*
X360517Y369428D01*
X360435Y369487D01*
X360350Y369543D01*
X360264Y369595D01*
X360175Y369644D01*
X360084Y369690D01*
X359992Y369731D01*
X359898Y369770D01*
X359803Y369804D01*
X359707Y369835D01*
X359609Y369862D01*
X359511Y369886D01*
X359411Y369905D01*
X359311Y369921D01*
X359211Y369933D01*
X359110Y369941D01*
X359009Y369945D01*
X358907Y369945D01*
X358806Y369941D01*
X358705Y369933D01*
X358605Y369921D01*
X358505Y369905D01*
X358405Y369886D01*
X358307Y369862D01*
X358209Y369835D01*
X358113Y369804D01*
X358018Y369770D01*
X357924Y369731D01*
X357832Y369690D01*
X357741Y369644D01*
X357653Y369595D01*
X357566Y369543D01*
X357481Y369487D01*
X357399Y369428D01*
X357319Y369366D01*
X357241Y369301D01*
X357166Y369233D01*
X357094Y369162D01*
X357024Y369089D01*
X356958Y369012D01*
X356894Y368934D01*
X356834Y368852D01*
X356777Y368769D01*
X356723Y368683D01*
X356672Y368595D01*
X356625Y368506D01*
X356581Y368414D01*
X356541Y368321D01*
X356504Y368227D01*
X356472Y368131D01*
X356443Y368034D01*
X356417Y367936D01*
X356396Y367837D01*
X356378Y367737D01*
X356365Y367637D01*
X356355Y367536D01*
X356349Y367435D01*
X356347Y367334D01*
X356348Y367334D02*
X356348Y364724D01*
X356348Y367856D02*
X352171Y369945D01*
X354782Y373810D02*
X354883Y373812D01*
X354984Y373818D01*
X355085Y373828D01*
X355185Y373841D01*
X355285Y373859D01*
X355384Y373880D01*
X355482Y373906D01*
X355579Y373935D01*
X355675Y373967D01*
X355769Y374004D01*
X355862Y374044D01*
X355954Y374088D01*
X356043Y374135D01*
X356131Y374186D01*
X356217Y374240D01*
X356300Y374297D01*
X356382Y374357D01*
X356460Y374421D01*
X356537Y374487D01*
X356610Y374557D01*
X356681Y374629D01*
X356749Y374704D01*
X356814Y374782D01*
X356876Y374862D01*
X356935Y374944D01*
X356991Y375029D01*
X357043Y375116D01*
X357092Y375204D01*
X357138Y375295D01*
X357179Y375387D01*
X357218Y375481D01*
X357252Y375576D01*
X357283Y375672D01*
X357310Y375770D01*
X357334Y375868D01*
X357353Y375968D01*
X357369Y376068D01*
X357381Y376168D01*
X357389Y376269D01*
X357393Y376370D01*
X357393Y376472D01*
X357389Y376573D01*
X357381Y376674D01*
X357369Y376774D01*
X357353Y376874D01*
X357334Y376974D01*
X357310Y377072D01*
X357283Y377170D01*
X357252Y377266D01*
X357218Y377361D01*
X357179Y377455D01*
X357138Y377547D01*
X357092Y377638D01*
X357043Y377726D01*
X356991Y377813D01*
X356935Y377898D01*
X356876Y377980D01*
X356814Y378060D01*
X356749Y378138D01*
X356681Y378213D01*
X356610Y378285D01*
X356537Y378355D01*
X356460Y378421D01*
X356382Y378485D01*
X356300Y378545D01*
X356217Y378602D01*
X356131Y378656D01*
X356043Y378707D01*
X355954Y378754D01*
X355862Y378798D01*
X355769Y378838D01*
X355675Y378875D01*
X355579Y378907D01*
X355482Y378936D01*
X355384Y378962D01*
X355285Y378983D01*
X355185Y379001D01*
X355085Y379014D01*
X354984Y379024D01*
X354883Y379030D01*
X354782Y379032D01*
X354681Y379030D01*
X354580Y379024D01*
X354479Y379014D01*
X354379Y379001D01*
X354279Y378983D01*
X354180Y378962D01*
X354082Y378936D01*
X353985Y378907D01*
X353889Y378875D01*
X353795Y378838D01*
X353702Y378798D01*
X353610Y378754D01*
X353521Y378707D01*
X353433Y378656D01*
X353347Y378602D01*
X353264Y378545D01*
X353182Y378485D01*
X353104Y378421D01*
X353027Y378355D01*
X352954Y378285D01*
X352883Y378213D01*
X352815Y378138D01*
X352750Y378060D01*
X352688Y377980D01*
X352629Y377898D01*
X352573Y377813D01*
X352521Y377727D01*
X352472Y377638D01*
X352426Y377547D01*
X352385Y377455D01*
X352346Y377361D01*
X352312Y377266D01*
X352281Y377170D01*
X352254Y377072D01*
X352230Y376974D01*
X352211Y376874D01*
X352195Y376774D01*
X352183Y376674D01*
X352175Y376573D01*
X352171Y376472D01*
X352171Y376370D01*
X352175Y376269D01*
X352183Y376168D01*
X352195Y376068D01*
X352211Y375968D01*
X352230Y375868D01*
X352254Y375770D01*
X352281Y375672D01*
X352312Y375576D01*
X352346Y375481D01*
X352385Y375387D01*
X352426Y375295D01*
X352472Y375204D01*
X352521Y375116D01*
X352573Y375029D01*
X352629Y374944D01*
X352688Y374862D01*
X352750Y374782D01*
X352815Y374704D01*
X352883Y374629D01*
X352954Y374557D01*
X353027Y374487D01*
X353104Y374421D01*
X353182Y374357D01*
X353264Y374297D01*
X353347Y374240D01*
X353433Y374186D01*
X353521Y374135D01*
X353610Y374088D01*
X353702Y374044D01*
X353795Y374004D01*
X353889Y373967D01*
X353985Y373935D01*
X354082Y373906D01*
X354180Y373880D01*
X354279Y373859D01*
X354379Y373841D01*
X354479Y373828D01*
X354580Y373818D01*
X354681Y373812D01*
X354782Y373810D01*
X359481Y374333D02*
X359571Y374335D01*
X359660Y374341D01*
X359750Y374350D01*
X359839Y374364D01*
X359927Y374381D01*
X360014Y374402D01*
X360101Y374427D01*
X360186Y374456D01*
X360270Y374488D01*
X360352Y374523D01*
X360433Y374563D01*
X360512Y374605D01*
X360589Y374651D01*
X360664Y374701D01*
X360737Y374753D01*
X360808Y374809D01*
X360876Y374867D01*
X360941Y374929D01*
X361004Y374993D01*
X361064Y375060D01*
X361121Y375129D01*
X361175Y375201D01*
X361226Y375275D01*
X361274Y375351D01*
X361318Y375429D01*
X361359Y375509D01*
X361397Y375591D01*
X361431Y375674D01*
X361461Y375759D01*
X361488Y375845D01*
X361511Y375931D01*
X361530Y376019D01*
X361545Y376108D01*
X361557Y376197D01*
X361565Y376286D01*
X361569Y376376D01*
X361569Y376466D01*
X361565Y376556D01*
X361557Y376645D01*
X361545Y376734D01*
X361530Y376823D01*
X361511Y376911D01*
X361488Y376997D01*
X361461Y377083D01*
X361431Y377168D01*
X361397Y377251D01*
X361359Y377333D01*
X361318Y377413D01*
X361274Y377491D01*
X361226Y377567D01*
X361175Y377641D01*
X361121Y377713D01*
X361064Y377782D01*
X361004Y377849D01*
X360941Y377913D01*
X360876Y377975D01*
X360808Y378033D01*
X360737Y378089D01*
X360664Y378141D01*
X360589Y378191D01*
X360512Y378237D01*
X360433Y378279D01*
X360352Y378319D01*
X360270Y378354D01*
X360186Y378386D01*
X360101Y378415D01*
X360014Y378440D01*
X359927Y378461D01*
X359839Y378478D01*
X359750Y378492D01*
X359660Y378501D01*
X359571Y378507D01*
X359481Y378509D01*
X359391Y378507D01*
X359302Y378501D01*
X359212Y378492D01*
X359123Y378478D01*
X359035Y378461D01*
X358948Y378440D01*
X358861Y378415D01*
X358776Y378386D01*
X358692Y378354D01*
X358610Y378319D01*
X358529Y378279D01*
X358450Y378237D01*
X358373Y378191D01*
X358298Y378141D01*
X358225Y378089D01*
X358154Y378033D01*
X358086Y377975D01*
X358021Y377913D01*
X357958Y377849D01*
X357898Y377782D01*
X357841Y377713D01*
X357787Y377641D01*
X357736Y377567D01*
X357688Y377491D01*
X357644Y377413D01*
X357603Y377333D01*
X357565Y377251D01*
X357531Y377168D01*
X357501Y377083D01*
X357474Y376997D01*
X357451Y376911D01*
X357432Y376823D01*
X357417Y376734D01*
X357405Y376645D01*
X357397Y376556D01*
X357393Y376466D01*
X357393Y376376D01*
X357397Y376286D01*
X357405Y376197D01*
X357417Y376108D01*
X357432Y376019D01*
X357451Y375931D01*
X357474Y375845D01*
X357501Y375759D01*
X357531Y375674D01*
X357565Y375591D01*
X357603Y375509D01*
X357644Y375429D01*
X357688Y375351D01*
X357736Y375275D01*
X357787Y375201D01*
X357841Y375129D01*
X357898Y375060D01*
X357958Y374993D01*
X358021Y374929D01*
X358086Y374867D01*
X358154Y374809D01*
X358225Y374753D01*
X358298Y374701D01*
X358373Y374651D01*
X358450Y374605D01*
X358529Y374563D01*
X358610Y374523D01*
X358692Y374488D01*
X358776Y374456D01*
X358861Y374427D01*
X358948Y374402D01*
X359035Y374381D01*
X359123Y374364D01*
X359212Y374350D01*
X359302Y374341D01*
X359391Y374335D01*
X359481Y374333D01*
X337757Y405194D02*
X337757Y414592D01*
X335146Y414592D01*
X335045Y414590D01*
X334944Y414584D01*
X334843Y414574D01*
X334743Y414561D01*
X334643Y414543D01*
X334544Y414522D01*
X334446Y414496D01*
X334349Y414467D01*
X334253Y414435D01*
X334159Y414398D01*
X334066Y414358D01*
X333974Y414314D01*
X333885Y414267D01*
X333797Y414216D01*
X333711Y414162D01*
X333628Y414105D01*
X333546Y414045D01*
X333468Y413981D01*
X333391Y413915D01*
X333318Y413845D01*
X333247Y413773D01*
X333179Y413698D01*
X333114Y413620D01*
X333052Y413540D01*
X332993Y413458D01*
X332937Y413373D01*
X332885Y413287D01*
X332836Y413198D01*
X332790Y413107D01*
X332749Y413015D01*
X332710Y412921D01*
X332676Y412826D01*
X332645Y412730D01*
X332618Y412632D01*
X332594Y412534D01*
X332575Y412434D01*
X332559Y412334D01*
X332547Y412234D01*
X332539Y412133D01*
X332535Y412032D01*
X332535Y411930D01*
X332539Y411829D01*
X332547Y411728D01*
X332559Y411628D01*
X332575Y411528D01*
X332594Y411428D01*
X332618Y411330D01*
X332645Y411232D01*
X332676Y411136D01*
X332710Y411041D01*
X332749Y410947D01*
X332790Y410855D01*
X332836Y410764D01*
X332885Y410676D01*
X332937Y410589D01*
X332993Y410504D01*
X333052Y410422D01*
X333114Y410342D01*
X333179Y410264D01*
X333247Y410189D01*
X333318Y410117D01*
X333391Y410047D01*
X333468Y409981D01*
X333546Y409917D01*
X333628Y409857D01*
X333711Y409800D01*
X333797Y409746D01*
X333885Y409695D01*
X333974Y409648D01*
X334066Y409604D01*
X334159Y409564D01*
X334253Y409527D01*
X334349Y409495D01*
X334446Y409466D01*
X334544Y409440D01*
X334643Y409419D01*
X334743Y409401D01*
X334843Y409388D01*
X334944Y409378D01*
X335045Y409372D01*
X335146Y409370D01*
X337757Y409370D01*
X334624Y409370D02*
X332535Y405194D01*
X326581Y409370D02*
X323449Y409370D01*
X326581Y409371D02*
X326670Y409373D01*
X326758Y409379D01*
X326846Y409388D01*
X326934Y409401D01*
X327021Y409418D01*
X327107Y409438D01*
X327192Y409463D01*
X327277Y409490D01*
X327360Y409522D01*
X327441Y409556D01*
X327521Y409595D01*
X327599Y409636D01*
X327676Y409681D01*
X327750Y409729D01*
X327823Y409780D01*
X327893Y409834D01*
X327960Y409892D01*
X328026Y409952D01*
X328088Y410014D01*
X328148Y410080D01*
X328206Y410147D01*
X328260Y410217D01*
X328311Y410290D01*
X328359Y410364D01*
X328404Y410441D01*
X328445Y410519D01*
X328484Y410599D01*
X328518Y410680D01*
X328550Y410763D01*
X328577Y410848D01*
X328602Y410933D01*
X328622Y411019D01*
X328639Y411106D01*
X328652Y411194D01*
X328661Y411282D01*
X328667Y411370D01*
X328669Y411459D01*
X328670Y411459D02*
X328670Y411981D01*
X328668Y412082D01*
X328662Y412183D01*
X328652Y412284D01*
X328639Y412384D01*
X328621Y412484D01*
X328600Y412583D01*
X328574Y412681D01*
X328545Y412778D01*
X328513Y412874D01*
X328476Y412968D01*
X328436Y413061D01*
X328392Y413153D01*
X328345Y413242D01*
X328294Y413330D01*
X328240Y413416D01*
X328183Y413499D01*
X328123Y413581D01*
X328059Y413659D01*
X327993Y413736D01*
X327923Y413809D01*
X327851Y413880D01*
X327776Y413948D01*
X327698Y414013D01*
X327618Y414075D01*
X327536Y414134D01*
X327451Y414190D01*
X327365Y414242D01*
X327276Y414291D01*
X327185Y414337D01*
X327093Y414378D01*
X326999Y414417D01*
X326904Y414451D01*
X326808Y414482D01*
X326710Y414509D01*
X326612Y414533D01*
X326512Y414552D01*
X326412Y414568D01*
X326312Y414580D01*
X326211Y414588D01*
X326110Y414592D01*
X326008Y414592D01*
X325907Y414588D01*
X325806Y414580D01*
X325706Y414568D01*
X325606Y414552D01*
X325506Y414533D01*
X325408Y414509D01*
X325310Y414482D01*
X325214Y414451D01*
X325119Y414417D01*
X325025Y414378D01*
X324933Y414337D01*
X324842Y414291D01*
X324754Y414242D01*
X324667Y414190D01*
X324582Y414134D01*
X324500Y414075D01*
X324420Y414013D01*
X324342Y413948D01*
X324267Y413880D01*
X324195Y413809D01*
X324125Y413736D01*
X324059Y413659D01*
X323995Y413581D01*
X323935Y413499D01*
X323878Y413416D01*
X323824Y413330D01*
X323773Y413242D01*
X323726Y413153D01*
X323682Y413061D01*
X323642Y412968D01*
X323605Y412874D01*
X323573Y412778D01*
X323544Y412681D01*
X323518Y412583D01*
X323497Y412484D01*
X323479Y412384D01*
X323466Y412284D01*
X323456Y412183D01*
X323450Y412082D01*
X323448Y411981D01*
X323449Y411981D02*
X323449Y409370D01*
X323448Y409370D02*
X323450Y409244D01*
X323456Y409118D01*
X323465Y408992D01*
X323478Y408867D01*
X323496Y408742D01*
X323516Y408617D01*
X323541Y408493D01*
X323569Y408370D01*
X323601Y408248D01*
X323637Y408127D01*
X323676Y408007D01*
X323719Y407889D01*
X323766Y407772D01*
X323816Y407656D01*
X323870Y407541D01*
X323926Y407429D01*
X323987Y407318D01*
X324050Y407209D01*
X324117Y407102D01*
X324187Y406997D01*
X324261Y406894D01*
X324337Y406794D01*
X324416Y406696D01*
X324498Y406600D01*
X324584Y406507D01*
X324671Y406416D01*
X324762Y406329D01*
X324855Y406243D01*
X324951Y406161D01*
X325049Y406082D01*
X325149Y406006D01*
X325252Y405932D01*
X325357Y405862D01*
X325464Y405795D01*
X325573Y405732D01*
X325684Y405671D01*
X325796Y405615D01*
X325911Y405561D01*
X326027Y405511D01*
X326144Y405464D01*
X326262Y405421D01*
X326382Y405382D01*
X326503Y405346D01*
X326625Y405314D01*
X326748Y405286D01*
X326872Y405261D01*
X326997Y405241D01*
X327122Y405223D01*
X327247Y405210D01*
X327373Y405201D01*
X327499Y405195D01*
X327625Y405193D01*
M02*
