G04 EAGLE Gerber RS-274X export*
G75*
%MOMM*%
%FSLAX34Y34*%
%LPD*%
%INSilkscreen Bottom*%
%IPPOS*%
%AMOC8*
5,1,8,0,0,1.08239X$1,22.5*%
G01*
%ADD10C,0.101600*%
%ADD11C,0.152400*%
%ADD12C,0.076200*%
%ADD13C,0.254000*%

G36*
X337067Y382335D02*
X337067Y382335D01*
X337069Y382334D01*
X337112Y382354D01*
X337155Y382373D01*
X337156Y382375D01*
X337158Y382376D01*
X337191Y382461D01*
X337191Y385001D01*
X337190Y385003D01*
X337191Y385005D01*
X337171Y385048D01*
X337152Y385091D01*
X337150Y385092D01*
X337149Y385094D01*
X337065Y385127D01*
X333255Y385127D01*
X333253Y385126D01*
X333250Y385127D01*
X333207Y385107D01*
X333164Y385088D01*
X333163Y385086D01*
X333161Y385085D01*
X333128Y385001D01*
X333128Y382461D01*
X333129Y382459D01*
X333128Y382456D01*
X333148Y382413D01*
X333167Y382370D01*
X333169Y382369D01*
X333170Y382367D01*
X333255Y382334D01*
X337065Y382334D01*
X337067Y382335D01*
G37*
G36*
X306517Y336781D02*
X306517Y336781D01*
X306519Y336780D01*
X306562Y336800D01*
X306605Y336819D01*
X306606Y336821D01*
X306608Y336822D01*
X306641Y336907D01*
X306641Y340717D01*
X306640Y340719D01*
X306641Y340721D01*
X306621Y340764D01*
X306602Y340807D01*
X306600Y340808D01*
X306599Y340810D01*
X306515Y340843D01*
X303975Y340843D01*
X303973Y340842D01*
X303970Y340843D01*
X303927Y340823D01*
X303884Y340804D01*
X303883Y340802D01*
X303881Y340801D01*
X303848Y340717D01*
X303848Y336907D01*
X303849Y336905D01*
X303848Y336902D01*
X303868Y336859D01*
X303887Y336816D01*
X303889Y336815D01*
X303890Y336813D01*
X303975Y336780D01*
X306515Y336780D01*
X306517Y336781D01*
G37*
G36*
X391353Y321778D02*
X391353Y321778D01*
X391355Y321777D01*
X391398Y321797D01*
X391441Y321816D01*
X391442Y321818D01*
X391444Y321819D01*
X391477Y321904D01*
X391477Y325714D01*
X391476Y325716D01*
X391477Y325718D01*
X391457Y325761D01*
X391438Y325804D01*
X391436Y325805D01*
X391435Y325807D01*
X391351Y325840D01*
X388811Y325840D01*
X388809Y325839D01*
X388806Y325840D01*
X388763Y325820D01*
X388720Y325801D01*
X388719Y325799D01*
X388717Y325798D01*
X388684Y325714D01*
X388684Y321904D01*
X388685Y321902D01*
X388684Y321899D01*
X388704Y321856D01*
X388723Y321813D01*
X388725Y321812D01*
X388726Y321810D01*
X388811Y321777D01*
X391351Y321777D01*
X391353Y321778D01*
G37*
G36*
X342068Y297499D02*
X342068Y297499D01*
X342070Y297498D01*
X342113Y297518D01*
X342156Y297537D01*
X342157Y297539D01*
X342159Y297540D01*
X342192Y297625D01*
X342192Y300165D01*
X342191Y300167D01*
X342192Y300169D01*
X342172Y300212D01*
X342153Y300255D01*
X342151Y300256D01*
X342150Y300258D01*
X342066Y300291D01*
X338256Y300291D01*
X338254Y300290D01*
X338251Y300291D01*
X338208Y300271D01*
X338165Y300252D01*
X338164Y300250D01*
X338162Y300249D01*
X338129Y300165D01*
X338129Y297625D01*
X338130Y297623D01*
X338129Y297620D01*
X338149Y297577D01*
X338168Y297534D01*
X338170Y297533D01*
X338171Y297531D01*
X338256Y297498D01*
X342066Y297498D01*
X342068Y297499D01*
G37*
D10*
X492774Y332006D02*
X492774Y333954D01*
X486283Y333954D01*
X486283Y330059D01*
X486285Y329960D01*
X486291Y329860D01*
X486300Y329761D01*
X486313Y329663D01*
X486330Y329565D01*
X486351Y329467D01*
X486376Y329371D01*
X486404Y329276D01*
X486436Y329182D01*
X486471Y329089D01*
X486510Y328997D01*
X486553Y328907D01*
X486598Y328819D01*
X486648Y328732D01*
X486700Y328648D01*
X486756Y328565D01*
X486814Y328485D01*
X486876Y328407D01*
X486941Y328332D01*
X487009Y328259D01*
X487079Y328189D01*
X487152Y328121D01*
X487227Y328056D01*
X487305Y327994D01*
X487385Y327936D01*
X487468Y327880D01*
X487552Y327828D01*
X487639Y327778D01*
X487727Y327733D01*
X487817Y327690D01*
X487909Y327651D01*
X488002Y327616D01*
X488096Y327584D01*
X488191Y327556D01*
X488287Y327531D01*
X488385Y327510D01*
X488483Y327493D01*
X488581Y327480D01*
X488680Y327471D01*
X488780Y327465D01*
X488879Y327463D01*
X495371Y327463D01*
X495470Y327465D01*
X495570Y327471D01*
X495669Y327480D01*
X495767Y327493D01*
X495865Y327510D01*
X495963Y327531D01*
X496059Y327556D01*
X496154Y327584D01*
X496248Y327616D01*
X496341Y327651D01*
X496433Y327690D01*
X496523Y327733D01*
X496611Y327778D01*
X496698Y327828D01*
X496782Y327880D01*
X496865Y327936D01*
X496945Y327994D01*
X497023Y328056D01*
X497098Y328121D01*
X497171Y328189D01*
X497241Y328259D01*
X497309Y328332D01*
X497374Y328407D01*
X497436Y328485D01*
X497494Y328565D01*
X497550Y328648D01*
X497602Y328732D01*
X497652Y328819D01*
X497697Y328907D01*
X497740Y328997D01*
X497779Y329089D01*
X497814Y329181D01*
X497846Y329276D01*
X497874Y329371D01*
X497899Y329467D01*
X497920Y329565D01*
X497937Y329663D01*
X497950Y329761D01*
X497959Y329860D01*
X497965Y329960D01*
X497967Y330059D01*
X497967Y333954D01*
X497967Y339654D02*
X486283Y339654D01*
X486283Y346146D02*
X497967Y339654D01*
X497967Y346146D02*
X486283Y346146D01*
X486283Y351846D02*
X497967Y351846D01*
X497967Y355092D01*
X497965Y355205D01*
X497959Y355318D01*
X497949Y355431D01*
X497935Y355544D01*
X497918Y355656D01*
X497896Y355767D01*
X497871Y355877D01*
X497841Y355987D01*
X497808Y356095D01*
X497771Y356202D01*
X497731Y356308D01*
X497686Y356412D01*
X497638Y356515D01*
X497587Y356616D01*
X497532Y356715D01*
X497474Y356812D01*
X497412Y356907D01*
X497347Y357000D01*
X497279Y357090D01*
X497208Y357178D01*
X497133Y357264D01*
X497056Y357347D01*
X496976Y357427D01*
X496893Y357504D01*
X496807Y357579D01*
X496719Y357650D01*
X496629Y357718D01*
X496536Y357783D01*
X496441Y357845D01*
X496344Y357903D01*
X496245Y357958D01*
X496144Y358009D01*
X496041Y358057D01*
X495937Y358102D01*
X495831Y358142D01*
X495724Y358179D01*
X495616Y358212D01*
X495506Y358242D01*
X495396Y358267D01*
X495285Y358289D01*
X495173Y358306D01*
X495060Y358320D01*
X494947Y358330D01*
X494834Y358336D01*
X494721Y358338D01*
X489529Y358338D01*
X489416Y358336D01*
X489303Y358330D01*
X489190Y358320D01*
X489077Y358306D01*
X488965Y358289D01*
X488854Y358267D01*
X488744Y358242D01*
X488634Y358212D01*
X488526Y358179D01*
X488419Y358142D01*
X488313Y358102D01*
X488209Y358057D01*
X488106Y358009D01*
X488005Y357958D01*
X487906Y357903D01*
X487809Y357845D01*
X487714Y357783D01*
X487621Y357718D01*
X487531Y357650D01*
X487443Y357579D01*
X487357Y357504D01*
X487274Y357427D01*
X487194Y357347D01*
X487117Y357264D01*
X487042Y357178D01*
X486971Y357090D01*
X486903Y357000D01*
X486838Y356907D01*
X486776Y356812D01*
X486718Y356715D01*
X486663Y356616D01*
X486612Y356515D01*
X486564Y356412D01*
X486519Y356308D01*
X486479Y356202D01*
X486442Y356095D01*
X486409Y355987D01*
X486379Y355877D01*
X486354Y355767D01*
X486332Y355656D01*
X486315Y355544D01*
X486301Y355431D01*
X486291Y355318D01*
X486285Y355205D01*
X486283Y355092D01*
X486283Y351846D01*
X425440Y220225D02*
X423949Y218973D01*
X428121Y214000D01*
X431105Y216504D01*
X431180Y216570D01*
X431252Y216638D01*
X431322Y216709D01*
X431389Y216782D01*
X431453Y216858D01*
X431514Y216937D01*
X431572Y217018D01*
X431627Y217101D01*
X431679Y217185D01*
X431727Y217272D01*
X431772Y217361D01*
X431814Y217451D01*
X431852Y217543D01*
X431887Y217636D01*
X431918Y217731D01*
X431945Y217826D01*
X431969Y217923D01*
X431989Y218020D01*
X432005Y218119D01*
X432017Y218217D01*
X432026Y218316D01*
X432031Y218416D01*
X432032Y218515D01*
X432029Y218615D01*
X432023Y218714D01*
X432012Y218813D01*
X431998Y218911D01*
X431980Y219009D01*
X431959Y219106D01*
X431933Y219202D01*
X431904Y219297D01*
X431872Y219391D01*
X431835Y219484D01*
X431796Y219575D01*
X431753Y219665D01*
X431706Y219753D01*
X431656Y219839D01*
X431603Y219923D01*
X431547Y220005D01*
X431487Y220084D01*
X431425Y220162D01*
X427252Y225134D01*
X427187Y225209D01*
X427119Y225282D01*
X427048Y225351D01*
X426974Y225418D01*
X426898Y225483D01*
X426820Y225544D01*
X426739Y225602D01*
X426656Y225657D01*
X426571Y225709D01*
X426484Y225757D01*
X426395Y225802D01*
X426305Y225844D01*
X426213Y225882D01*
X426120Y225917D01*
X426025Y225948D01*
X425930Y225975D01*
X425833Y225999D01*
X425736Y226019D01*
X425638Y226035D01*
X425539Y226047D01*
X425440Y226056D01*
X425340Y226061D01*
X425241Y226062D01*
X425141Y226059D01*
X425042Y226053D01*
X424943Y226042D01*
X424845Y226028D01*
X424747Y226010D01*
X424650Y225989D01*
X424554Y225963D01*
X424458Y225934D01*
X424364Y225902D01*
X424272Y225865D01*
X424181Y225826D01*
X424091Y225782D01*
X424003Y225736D01*
X423917Y225686D01*
X423833Y225633D01*
X423751Y225576D01*
X423671Y225517D01*
X423594Y225454D01*
X420611Y222951D01*
X416244Y219286D02*
X423754Y210336D01*
X418782Y206163D02*
X416244Y219286D01*
X411271Y215114D02*
X418782Y206163D01*
X414414Y202499D02*
X406904Y211449D01*
X404418Y209363D01*
X404418Y209364D02*
X404332Y209289D01*
X404249Y209212D01*
X404169Y209132D01*
X404092Y209049D01*
X404017Y208964D01*
X403946Y208875D01*
X403878Y208785D01*
X403813Y208692D01*
X403751Y208597D01*
X403693Y208500D01*
X403638Y208401D01*
X403587Y208300D01*
X403539Y208197D01*
X403494Y208093D01*
X403454Y207987D01*
X403417Y207880D01*
X403384Y207772D01*
X403354Y207662D01*
X403329Y207552D01*
X403307Y207441D01*
X403290Y207329D01*
X403276Y207216D01*
X403266Y207103D01*
X403260Y206990D01*
X403258Y206877D01*
X403260Y206764D01*
X403266Y206651D01*
X403276Y206538D01*
X403290Y206425D01*
X403307Y206313D01*
X403329Y206202D01*
X403354Y206092D01*
X403384Y205982D01*
X403417Y205874D01*
X403454Y205767D01*
X403494Y205661D01*
X403539Y205557D01*
X403587Y205454D01*
X403638Y205353D01*
X403693Y205254D01*
X403751Y205157D01*
X403813Y205062D01*
X403878Y204969D01*
X403946Y204879D01*
X404017Y204791D01*
X404018Y204791D02*
X407356Y200813D01*
X407355Y200813D02*
X407430Y200727D01*
X407507Y200644D01*
X407587Y200564D01*
X407670Y200487D01*
X407756Y200412D01*
X407844Y200341D01*
X407934Y200273D01*
X408027Y200208D01*
X408122Y200146D01*
X408219Y200088D01*
X408318Y200033D01*
X408419Y199982D01*
X408522Y199934D01*
X408626Y199889D01*
X408732Y199849D01*
X408839Y199812D01*
X408947Y199779D01*
X409057Y199749D01*
X409167Y199724D01*
X409278Y199702D01*
X409390Y199685D01*
X409503Y199671D01*
X409616Y199661D01*
X409729Y199655D01*
X409842Y199653D01*
X409955Y199655D01*
X410068Y199661D01*
X410181Y199671D01*
X410294Y199685D01*
X410406Y199702D01*
X410517Y199724D01*
X410627Y199749D01*
X410737Y199779D01*
X410845Y199812D01*
X410952Y199849D01*
X411058Y199889D01*
X411162Y199934D01*
X411265Y199982D01*
X411366Y200033D01*
X411465Y200088D01*
X411562Y200146D01*
X411657Y200208D01*
X411750Y200273D01*
X411840Y200341D01*
X411929Y200412D01*
X411928Y200413D02*
X414414Y202499D01*
X283934Y207008D02*
X282338Y208125D01*
X278615Y202808D01*
X281806Y200574D01*
X281889Y200519D01*
X281973Y200467D01*
X282060Y200418D01*
X282148Y200372D01*
X282238Y200330D01*
X282330Y200291D01*
X282423Y200256D01*
X282517Y200224D01*
X282612Y200196D01*
X282709Y200172D01*
X282806Y200151D01*
X282904Y200135D01*
X283003Y200121D01*
X283102Y200112D01*
X283201Y200107D01*
X283301Y200105D01*
X283400Y200107D01*
X283499Y200113D01*
X283598Y200123D01*
X283697Y200136D01*
X283795Y200154D01*
X283892Y200175D01*
X283988Y200199D01*
X284084Y200228D01*
X284178Y200260D01*
X284271Y200295D01*
X284362Y200334D01*
X284452Y200377D01*
X284540Y200423D01*
X284626Y200472D01*
X284711Y200525D01*
X284793Y200581D01*
X284873Y200640D01*
X284951Y200702D01*
X285026Y200767D01*
X285099Y200834D01*
X285169Y200905D01*
X285237Y200978D01*
X285301Y201054D01*
X285363Y201132D01*
X285422Y201212D01*
X289145Y206529D01*
X289200Y206612D01*
X289252Y206696D01*
X289301Y206783D01*
X289347Y206871D01*
X289389Y206961D01*
X289428Y207053D01*
X289463Y207146D01*
X289495Y207240D01*
X289523Y207335D01*
X289547Y207432D01*
X289568Y207529D01*
X289584Y207627D01*
X289598Y207726D01*
X289607Y207825D01*
X289612Y207924D01*
X289614Y208024D01*
X289612Y208123D01*
X289606Y208222D01*
X289596Y208321D01*
X289583Y208420D01*
X289565Y208518D01*
X289544Y208615D01*
X289520Y208711D01*
X289491Y208807D01*
X289459Y208901D01*
X289424Y208994D01*
X289385Y209085D01*
X289342Y209175D01*
X289296Y209263D01*
X289247Y209349D01*
X289194Y209434D01*
X289138Y209516D01*
X289079Y209596D01*
X289017Y209674D01*
X288952Y209749D01*
X288885Y209822D01*
X288814Y209892D01*
X288741Y209960D01*
X288665Y210024D01*
X288587Y210086D01*
X288507Y210145D01*
X285317Y212379D01*
X280647Y215649D02*
X273945Y206078D01*
X268628Y209801D02*
X280647Y215649D01*
X275330Y219372D02*
X268628Y209801D01*
X263958Y213071D02*
X270660Y222642D01*
X268001Y224503D01*
X268002Y224504D02*
X267908Y224567D01*
X267812Y224627D01*
X267714Y224684D01*
X267614Y224737D01*
X267512Y224787D01*
X267408Y224833D01*
X267303Y224875D01*
X267197Y224914D01*
X267089Y224949D01*
X266980Y224980D01*
X266870Y225008D01*
X266759Y225031D01*
X266648Y225051D01*
X266536Y225067D01*
X266423Y225079D01*
X266310Y225087D01*
X266197Y225091D01*
X266083Y225091D01*
X265970Y225087D01*
X265857Y225079D01*
X265744Y225067D01*
X265632Y225051D01*
X265521Y225031D01*
X265410Y225008D01*
X265300Y224980D01*
X265191Y224949D01*
X265083Y224914D01*
X264977Y224875D01*
X264872Y224833D01*
X264768Y224787D01*
X264666Y224737D01*
X264566Y224684D01*
X264468Y224627D01*
X264372Y224567D01*
X264278Y224504D01*
X264187Y224437D01*
X264097Y224368D01*
X264010Y224295D01*
X263926Y224219D01*
X263845Y224140D01*
X263766Y224059D01*
X263690Y223975D01*
X263617Y223888D01*
X263548Y223799D01*
X263481Y223707D01*
X263481Y223706D02*
X260503Y219453D01*
X260502Y219453D02*
X260439Y219359D01*
X260379Y219263D01*
X260322Y219165D01*
X260269Y219065D01*
X260219Y218963D01*
X260173Y218859D01*
X260131Y218754D01*
X260092Y218648D01*
X260057Y218540D01*
X260026Y218431D01*
X259998Y218321D01*
X259975Y218210D01*
X259955Y218099D01*
X259939Y217987D01*
X259927Y217874D01*
X259919Y217761D01*
X259915Y217648D01*
X259915Y217534D01*
X259919Y217421D01*
X259927Y217308D01*
X259939Y217195D01*
X259955Y217083D01*
X259975Y216972D01*
X259998Y216861D01*
X260026Y216751D01*
X260057Y216642D01*
X260092Y216534D01*
X260131Y216428D01*
X260173Y216323D01*
X260219Y216219D01*
X260269Y216117D01*
X260322Y216017D01*
X260379Y215919D01*
X260439Y215823D01*
X260502Y215729D01*
X260569Y215637D01*
X260638Y215548D01*
X260711Y215461D01*
X260787Y215377D01*
X260866Y215296D01*
X260947Y215217D01*
X261031Y215141D01*
X261118Y215068D01*
X261208Y214999D01*
X261299Y214932D01*
X261300Y214932D02*
X263958Y213071D01*
X200674Y332006D02*
X200674Y333954D01*
X194183Y333954D01*
X194183Y330059D01*
X194185Y329960D01*
X194191Y329860D01*
X194200Y329761D01*
X194213Y329663D01*
X194230Y329565D01*
X194251Y329467D01*
X194276Y329371D01*
X194304Y329276D01*
X194336Y329182D01*
X194371Y329089D01*
X194410Y328997D01*
X194453Y328907D01*
X194498Y328819D01*
X194548Y328732D01*
X194600Y328648D01*
X194656Y328565D01*
X194714Y328485D01*
X194776Y328407D01*
X194841Y328332D01*
X194909Y328259D01*
X194979Y328189D01*
X195052Y328121D01*
X195127Y328056D01*
X195205Y327994D01*
X195285Y327936D01*
X195368Y327880D01*
X195452Y327828D01*
X195539Y327778D01*
X195627Y327733D01*
X195717Y327690D01*
X195809Y327651D01*
X195902Y327616D01*
X195996Y327584D01*
X196091Y327556D01*
X196187Y327531D01*
X196285Y327510D01*
X196383Y327493D01*
X196481Y327480D01*
X196580Y327471D01*
X196680Y327465D01*
X196779Y327463D01*
X203271Y327463D01*
X203370Y327465D01*
X203470Y327471D01*
X203569Y327480D01*
X203667Y327493D01*
X203765Y327510D01*
X203863Y327531D01*
X203959Y327556D01*
X204054Y327584D01*
X204148Y327616D01*
X204241Y327651D01*
X204333Y327690D01*
X204423Y327733D01*
X204511Y327778D01*
X204598Y327828D01*
X204682Y327880D01*
X204765Y327936D01*
X204845Y327994D01*
X204923Y328056D01*
X204998Y328121D01*
X205071Y328189D01*
X205141Y328259D01*
X205209Y328332D01*
X205274Y328407D01*
X205336Y328485D01*
X205394Y328565D01*
X205450Y328648D01*
X205502Y328732D01*
X205552Y328819D01*
X205597Y328907D01*
X205640Y328997D01*
X205679Y329089D01*
X205714Y329181D01*
X205746Y329276D01*
X205774Y329371D01*
X205799Y329467D01*
X205820Y329565D01*
X205837Y329663D01*
X205850Y329761D01*
X205859Y329860D01*
X205865Y329960D01*
X205867Y330059D01*
X205867Y333954D01*
X205867Y339654D02*
X194183Y339654D01*
X194183Y346146D02*
X205867Y339654D01*
X205867Y346146D02*
X194183Y346146D01*
X194183Y351846D02*
X205867Y351846D01*
X205867Y355092D01*
X205865Y355205D01*
X205859Y355318D01*
X205849Y355431D01*
X205835Y355544D01*
X205818Y355656D01*
X205796Y355767D01*
X205771Y355877D01*
X205741Y355987D01*
X205708Y356095D01*
X205671Y356202D01*
X205631Y356308D01*
X205586Y356412D01*
X205538Y356515D01*
X205487Y356616D01*
X205432Y356715D01*
X205374Y356812D01*
X205312Y356907D01*
X205247Y357000D01*
X205179Y357090D01*
X205108Y357178D01*
X205033Y357264D01*
X204956Y357347D01*
X204876Y357427D01*
X204793Y357504D01*
X204707Y357579D01*
X204619Y357650D01*
X204529Y357718D01*
X204436Y357783D01*
X204341Y357845D01*
X204244Y357903D01*
X204145Y357958D01*
X204044Y358009D01*
X203941Y358057D01*
X203837Y358102D01*
X203731Y358142D01*
X203624Y358179D01*
X203516Y358212D01*
X203406Y358242D01*
X203296Y358267D01*
X203185Y358289D01*
X203073Y358306D01*
X202960Y358320D01*
X202847Y358330D01*
X202734Y358336D01*
X202621Y358338D01*
X197429Y358338D01*
X197316Y358336D01*
X197203Y358330D01*
X197090Y358320D01*
X196977Y358306D01*
X196865Y358289D01*
X196754Y358267D01*
X196644Y358242D01*
X196534Y358212D01*
X196426Y358179D01*
X196319Y358142D01*
X196213Y358102D01*
X196109Y358057D01*
X196006Y358009D01*
X195905Y357958D01*
X195806Y357903D01*
X195709Y357845D01*
X195614Y357783D01*
X195521Y357718D01*
X195431Y357650D01*
X195343Y357579D01*
X195257Y357504D01*
X195174Y357427D01*
X195094Y357347D01*
X195017Y357264D01*
X194942Y357178D01*
X194871Y357090D01*
X194803Y357000D01*
X194738Y356907D01*
X194676Y356812D01*
X194618Y356715D01*
X194563Y356616D01*
X194512Y356515D01*
X194464Y356412D01*
X194419Y356308D01*
X194379Y356202D01*
X194342Y356095D01*
X194309Y355987D01*
X194279Y355877D01*
X194254Y355767D01*
X194232Y355656D01*
X194215Y355544D01*
X194201Y355431D01*
X194191Y355318D01*
X194185Y355205D01*
X194183Y355092D01*
X194183Y351846D01*
D11*
X457436Y397510D02*
X457436Y415290D01*
X452498Y415290D01*
X452358Y415288D01*
X452219Y415282D01*
X452079Y415272D01*
X451940Y415258D01*
X451801Y415241D01*
X451663Y415219D01*
X451526Y415193D01*
X451389Y415164D01*
X451253Y415131D01*
X451119Y415094D01*
X450985Y415053D01*
X450853Y415008D01*
X450721Y414959D01*
X450592Y414907D01*
X450464Y414852D01*
X450337Y414792D01*
X450212Y414729D01*
X450089Y414663D01*
X449968Y414593D01*
X449849Y414520D01*
X449732Y414443D01*
X449618Y414363D01*
X449505Y414280D01*
X449395Y414194D01*
X449288Y414104D01*
X449183Y414012D01*
X449081Y413917D01*
X448981Y413819D01*
X448884Y413718D01*
X448790Y413614D01*
X448700Y413508D01*
X448612Y413399D01*
X448527Y413288D01*
X448446Y413174D01*
X448367Y413059D01*
X448292Y412941D01*
X448221Y412821D01*
X448153Y412698D01*
X448088Y412575D01*
X448027Y412449D01*
X447969Y412321D01*
X447915Y412193D01*
X447865Y412062D01*
X447818Y411930D01*
X447775Y411797D01*
X447736Y411663D01*
X447701Y411528D01*
X447670Y411392D01*
X447642Y411254D01*
X447619Y411117D01*
X447599Y410978D01*
X447583Y410839D01*
X447571Y410700D01*
X447563Y410561D01*
X447559Y410421D01*
X447559Y410281D01*
X447563Y410141D01*
X447571Y410002D01*
X447583Y409863D01*
X447599Y409724D01*
X447619Y409585D01*
X447642Y409448D01*
X447670Y409310D01*
X447701Y409174D01*
X447736Y409039D01*
X447775Y408905D01*
X447818Y408772D01*
X447865Y408640D01*
X447915Y408509D01*
X447969Y408381D01*
X448027Y408253D01*
X448088Y408127D01*
X448153Y408004D01*
X448221Y407882D01*
X448292Y407761D01*
X448367Y407643D01*
X448446Y407528D01*
X448527Y407414D01*
X448612Y407303D01*
X448700Y407194D01*
X448790Y407088D01*
X448884Y406984D01*
X448981Y406883D01*
X449081Y406785D01*
X449183Y406690D01*
X449288Y406598D01*
X449395Y406508D01*
X449505Y406422D01*
X449618Y406339D01*
X449732Y406259D01*
X449849Y406182D01*
X449968Y406109D01*
X450089Y406039D01*
X450212Y405973D01*
X450337Y405910D01*
X450464Y405850D01*
X450592Y405795D01*
X450721Y405743D01*
X450853Y405694D01*
X450985Y405649D01*
X451119Y405608D01*
X451253Y405571D01*
X451389Y405538D01*
X451526Y405509D01*
X451663Y405483D01*
X451801Y405461D01*
X451940Y405444D01*
X452079Y405430D01*
X452219Y405420D01*
X452358Y405414D01*
X452498Y405412D01*
X457436Y405412D01*
X441441Y411339D02*
X436502Y415290D01*
X436502Y397510D01*
X431564Y397510D02*
X441441Y397510D01*
X455225Y291465D02*
X455225Y273685D01*
X455225Y291465D02*
X450286Y291465D01*
X450146Y291463D01*
X450007Y291457D01*
X449867Y291447D01*
X449728Y291433D01*
X449589Y291416D01*
X449451Y291394D01*
X449314Y291368D01*
X449177Y291339D01*
X449041Y291306D01*
X448907Y291269D01*
X448773Y291228D01*
X448641Y291183D01*
X448509Y291134D01*
X448380Y291082D01*
X448252Y291027D01*
X448125Y290967D01*
X448000Y290904D01*
X447877Y290838D01*
X447756Y290768D01*
X447637Y290695D01*
X447520Y290618D01*
X447406Y290538D01*
X447293Y290455D01*
X447183Y290369D01*
X447076Y290279D01*
X446971Y290187D01*
X446869Y290092D01*
X446769Y289994D01*
X446672Y289893D01*
X446578Y289789D01*
X446488Y289683D01*
X446400Y289574D01*
X446315Y289463D01*
X446234Y289349D01*
X446155Y289234D01*
X446080Y289116D01*
X446009Y288996D01*
X445941Y288873D01*
X445876Y288750D01*
X445815Y288624D01*
X445757Y288496D01*
X445703Y288368D01*
X445653Y288237D01*
X445606Y288105D01*
X445563Y287972D01*
X445524Y287838D01*
X445489Y287703D01*
X445458Y287567D01*
X445430Y287429D01*
X445407Y287292D01*
X445387Y287153D01*
X445371Y287014D01*
X445359Y286875D01*
X445351Y286736D01*
X445347Y286596D01*
X445347Y286456D01*
X445351Y286316D01*
X445359Y286177D01*
X445371Y286038D01*
X445387Y285899D01*
X445407Y285760D01*
X445430Y285623D01*
X445458Y285485D01*
X445489Y285349D01*
X445524Y285214D01*
X445563Y285080D01*
X445606Y284947D01*
X445653Y284815D01*
X445703Y284684D01*
X445757Y284556D01*
X445815Y284428D01*
X445876Y284302D01*
X445941Y284179D01*
X446009Y284057D01*
X446080Y283936D01*
X446155Y283818D01*
X446234Y283703D01*
X446315Y283589D01*
X446400Y283478D01*
X446488Y283369D01*
X446578Y283263D01*
X446672Y283159D01*
X446769Y283058D01*
X446869Y282960D01*
X446971Y282865D01*
X447076Y282773D01*
X447183Y282683D01*
X447293Y282597D01*
X447406Y282514D01*
X447520Y282434D01*
X447637Y282357D01*
X447756Y282284D01*
X447877Y282214D01*
X448000Y282148D01*
X448125Y282085D01*
X448252Y282025D01*
X448380Y281970D01*
X448509Y281918D01*
X448641Y281869D01*
X448773Y281824D01*
X448907Y281783D01*
X449041Y281746D01*
X449177Y281713D01*
X449314Y281684D01*
X449451Y281658D01*
X449589Y281636D01*
X449728Y281619D01*
X449867Y281605D01*
X450007Y281595D01*
X450146Y281589D01*
X450286Y281587D01*
X455225Y281587D01*
X433797Y291465D02*
X433665Y291463D01*
X433534Y291457D01*
X433402Y291447D01*
X433271Y291434D01*
X433141Y291416D01*
X433011Y291395D01*
X432881Y291370D01*
X432753Y291341D01*
X432625Y291308D01*
X432499Y291271D01*
X432373Y291231D01*
X432249Y291187D01*
X432126Y291139D01*
X432005Y291088D01*
X431885Y291033D01*
X431767Y290975D01*
X431651Y290913D01*
X431537Y290847D01*
X431424Y290779D01*
X431314Y290707D01*
X431206Y290632D01*
X431100Y290553D01*
X430996Y290472D01*
X430895Y290387D01*
X430797Y290300D01*
X430701Y290209D01*
X430608Y290116D01*
X430517Y290020D01*
X430430Y289922D01*
X430345Y289821D01*
X430264Y289717D01*
X430185Y289611D01*
X430110Y289503D01*
X430038Y289393D01*
X429970Y289280D01*
X429904Y289166D01*
X429842Y289050D01*
X429784Y288932D01*
X429729Y288812D01*
X429678Y288691D01*
X429630Y288568D01*
X429586Y288444D01*
X429546Y288318D01*
X429509Y288192D01*
X429476Y288064D01*
X429447Y287936D01*
X429422Y287806D01*
X429401Y287676D01*
X429383Y287546D01*
X429370Y287415D01*
X429360Y287283D01*
X429354Y287152D01*
X429352Y287020D01*
X433797Y291465D02*
X433947Y291463D01*
X434096Y291457D01*
X434245Y291447D01*
X434394Y291434D01*
X434543Y291416D01*
X434691Y291395D01*
X434839Y291369D01*
X434985Y291340D01*
X435131Y291307D01*
X435276Y291270D01*
X435420Y291229D01*
X435563Y291185D01*
X435705Y291137D01*
X435845Y291085D01*
X435984Y291030D01*
X436122Y290971D01*
X436257Y290908D01*
X436392Y290842D01*
X436524Y290772D01*
X436654Y290699D01*
X436783Y290622D01*
X436910Y290542D01*
X437034Y290459D01*
X437156Y290373D01*
X437276Y290283D01*
X437393Y290190D01*
X437508Y290095D01*
X437621Y289996D01*
X437731Y289894D01*
X437838Y289790D01*
X437942Y289683D01*
X438044Y289573D01*
X438142Y289460D01*
X438238Y289345D01*
X438330Y289227D01*
X438420Y289107D01*
X438506Y288985D01*
X438589Y288861D01*
X438669Y288734D01*
X438745Y288606D01*
X438818Y288475D01*
X438888Y288342D01*
X438954Y288208D01*
X439016Y288072D01*
X439075Y287935D01*
X439131Y287796D01*
X439182Y287655D01*
X439230Y287514D01*
X430835Y283563D02*
X430739Y283656D01*
X430647Y283752D01*
X430557Y283851D01*
X430470Y283952D01*
X430386Y284055D01*
X430304Y284160D01*
X430226Y284268D01*
X430151Y284378D01*
X430078Y284490D01*
X430009Y284604D01*
X429943Y284720D01*
X429881Y284838D01*
X429822Y284957D01*
X429766Y285078D01*
X429713Y285201D01*
X429664Y285325D01*
X429619Y285450D01*
X429576Y285577D01*
X429538Y285704D01*
X429503Y285833D01*
X429472Y285962D01*
X429444Y286093D01*
X429420Y286224D01*
X429399Y286356D01*
X429383Y286488D01*
X429370Y286621D01*
X429360Y286754D01*
X429355Y286887D01*
X429353Y287020D01*
X430834Y283563D02*
X439230Y273685D01*
X429352Y273685D01*
X416983Y280599D02*
X416983Y286526D01*
X416983Y280599D02*
X413525Y276154D01*
X416983Y280599D02*
X420440Y276154D01*
X416983Y280599D02*
X411550Y282575D01*
X416983Y280599D02*
X422415Y282575D01*
X355836Y227965D02*
X355836Y210185D01*
X355836Y227965D02*
X350898Y227965D01*
X350758Y227963D01*
X350619Y227957D01*
X350479Y227947D01*
X350340Y227933D01*
X350201Y227916D01*
X350063Y227894D01*
X349926Y227868D01*
X349789Y227839D01*
X349653Y227806D01*
X349519Y227769D01*
X349385Y227728D01*
X349253Y227683D01*
X349121Y227634D01*
X348992Y227582D01*
X348864Y227527D01*
X348737Y227467D01*
X348612Y227404D01*
X348489Y227338D01*
X348368Y227268D01*
X348249Y227195D01*
X348132Y227118D01*
X348018Y227038D01*
X347905Y226955D01*
X347795Y226869D01*
X347688Y226779D01*
X347583Y226687D01*
X347481Y226592D01*
X347381Y226494D01*
X347284Y226393D01*
X347190Y226289D01*
X347100Y226183D01*
X347012Y226074D01*
X346927Y225963D01*
X346846Y225849D01*
X346767Y225734D01*
X346692Y225616D01*
X346621Y225496D01*
X346553Y225373D01*
X346488Y225250D01*
X346427Y225124D01*
X346369Y224996D01*
X346315Y224868D01*
X346265Y224737D01*
X346218Y224605D01*
X346175Y224472D01*
X346136Y224338D01*
X346101Y224203D01*
X346070Y224067D01*
X346042Y223929D01*
X346019Y223792D01*
X345999Y223653D01*
X345983Y223514D01*
X345971Y223375D01*
X345963Y223236D01*
X345959Y223096D01*
X345959Y222956D01*
X345963Y222816D01*
X345971Y222677D01*
X345983Y222538D01*
X345999Y222399D01*
X346019Y222260D01*
X346042Y222123D01*
X346070Y221985D01*
X346101Y221849D01*
X346136Y221714D01*
X346175Y221580D01*
X346218Y221447D01*
X346265Y221315D01*
X346315Y221184D01*
X346369Y221056D01*
X346427Y220928D01*
X346488Y220802D01*
X346553Y220679D01*
X346621Y220556D01*
X346692Y220436D01*
X346767Y220318D01*
X346846Y220203D01*
X346927Y220089D01*
X347012Y219978D01*
X347100Y219869D01*
X347190Y219763D01*
X347284Y219659D01*
X347381Y219558D01*
X347481Y219460D01*
X347583Y219365D01*
X347688Y219273D01*
X347795Y219183D01*
X347905Y219097D01*
X348018Y219014D01*
X348132Y218934D01*
X348249Y218857D01*
X348368Y218784D01*
X348489Y218714D01*
X348612Y218648D01*
X348737Y218585D01*
X348864Y218525D01*
X348992Y218470D01*
X349121Y218418D01*
X349253Y218369D01*
X349385Y218324D01*
X349519Y218283D01*
X349653Y218246D01*
X349789Y218213D01*
X349926Y218184D01*
X350063Y218158D01*
X350201Y218136D01*
X350340Y218119D01*
X350479Y218105D01*
X350619Y218095D01*
X350758Y218089D01*
X350898Y218087D01*
X355836Y218087D01*
X339841Y210185D02*
X334902Y210185D01*
X334762Y210187D01*
X334623Y210193D01*
X334483Y210203D01*
X334344Y210217D01*
X334205Y210234D01*
X334067Y210256D01*
X333930Y210282D01*
X333793Y210311D01*
X333657Y210344D01*
X333523Y210381D01*
X333389Y210422D01*
X333257Y210467D01*
X333125Y210516D01*
X332996Y210568D01*
X332868Y210623D01*
X332741Y210683D01*
X332616Y210746D01*
X332493Y210812D01*
X332372Y210882D01*
X332253Y210955D01*
X332136Y211032D01*
X332022Y211112D01*
X331909Y211195D01*
X331799Y211281D01*
X331692Y211371D01*
X331587Y211463D01*
X331485Y211558D01*
X331385Y211656D01*
X331288Y211757D01*
X331194Y211861D01*
X331104Y211967D01*
X331016Y212076D01*
X330931Y212187D01*
X330850Y212301D01*
X330771Y212416D01*
X330696Y212534D01*
X330625Y212654D01*
X330557Y212777D01*
X330492Y212900D01*
X330431Y213026D01*
X330373Y213154D01*
X330319Y213282D01*
X330269Y213413D01*
X330222Y213545D01*
X330179Y213678D01*
X330140Y213812D01*
X330105Y213947D01*
X330074Y214083D01*
X330046Y214221D01*
X330023Y214358D01*
X330003Y214497D01*
X329987Y214636D01*
X329975Y214775D01*
X329967Y214914D01*
X329963Y215054D01*
X329963Y215194D01*
X329967Y215334D01*
X329975Y215473D01*
X329987Y215612D01*
X330003Y215751D01*
X330023Y215890D01*
X330046Y216027D01*
X330074Y216165D01*
X330105Y216301D01*
X330140Y216436D01*
X330179Y216570D01*
X330222Y216703D01*
X330269Y216835D01*
X330319Y216966D01*
X330373Y217094D01*
X330431Y217222D01*
X330492Y217348D01*
X330557Y217471D01*
X330625Y217594D01*
X330696Y217714D01*
X330771Y217832D01*
X330850Y217947D01*
X330931Y218061D01*
X331016Y218172D01*
X331104Y218281D01*
X331194Y218387D01*
X331288Y218491D01*
X331385Y218592D01*
X331485Y218690D01*
X331587Y218785D01*
X331692Y218877D01*
X331799Y218967D01*
X331909Y219053D01*
X332022Y219136D01*
X332136Y219216D01*
X332253Y219293D01*
X332372Y219366D01*
X332493Y219436D01*
X332616Y219502D01*
X332741Y219565D01*
X332868Y219625D01*
X332996Y219680D01*
X333125Y219732D01*
X333257Y219781D01*
X333389Y219826D01*
X333523Y219867D01*
X333657Y219904D01*
X333793Y219937D01*
X333930Y219966D01*
X334067Y219992D01*
X334205Y220014D01*
X334344Y220031D01*
X334483Y220045D01*
X334623Y220055D01*
X334762Y220061D01*
X334902Y220063D01*
X333915Y227965D02*
X339841Y227965D01*
X333915Y227965D02*
X333791Y227963D01*
X333667Y227957D01*
X333543Y227947D01*
X333420Y227934D01*
X333297Y227916D01*
X333175Y227895D01*
X333053Y227870D01*
X332932Y227841D01*
X332813Y227808D01*
X332694Y227772D01*
X332577Y227731D01*
X332461Y227688D01*
X332346Y227640D01*
X332233Y227589D01*
X332121Y227534D01*
X332012Y227476D01*
X331904Y227415D01*
X331798Y227350D01*
X331694Y227282D01*
X331593Y227210D01*
X331493Y227136D01*
X331397Y227058D01*
X331302Y226978D01*
X331210Y226894D01*
X331121Y226808D01*
X331035Y226719D01*
X330951Y226627D01*
X330871Y226532D01*
X330793Y226436D01*
X330719Y226336D01*
X330647Y226235D01*
X330579Y226131D01*
X330514Y226025D01*
X330453Y225917D01*
X330395Y225808D01*
X330340Y225696D01*
X330289Y225583D01*
X330241Y225468D01*
X330198Y225352D01*
X330157Y225235D01*
X330121Y225116D01*
X330088Y224997D01*
X330059Y224876D01*
X330034Y224754D01*
X330013Y224632D01*
X329995Y224509D01*
X329982Y224386D01*
X329972Y224262D01*
X329966Y224138D01*
X329964Y224014D01*
X329966Y223890D01*
X329972Y223766D01*
X329982Y223642D01*
X329995Y223519D01*
X330013Y223396D01*
X330034Y223274D01*
X330059Y223152D01*
X330088Y223031D01*
X330121Y222912D01*
X330157Y222793D01*
X330198Y222676D01*
X330241Y222560D01*
X330289Y222445D01*
X330340Y222332D01*
X330395Y222220D01*
X330453Y222111D01*
X330514Y222003D01*
X330579Y221897D01*
X330647Y221793D01*
X330719Y221692D01*
X330793Y221592D01*
X330871Y221496D01*
X330951Y221401D01*
X331035Y221309D01*
X331121Y221220D01*
X331210Y221134D01*
X331302Y221050D01*
X331397Y220970D01*
X331493Y220892D01*
X331593Y220818D01*
X331694Y220746D01*
X331798Y220678D01*
X331904Y220613D01*
X332012Y220552D01*
X332121Y220494D01*
X332233Y220439D01*
X332346Y220388D01*
X332461Y220340D01*
X332577Y220297D01*
X332694Y220256D01*
X332813Y220220D01*
X332932Y220187D01*
X333053Y220158D01*
X333175Y220133D01*
X333297Y220112D01*
X333420Y220094D01*
X333543Y220081D01*
X333667Y220071D01*
X333791Y220065D01*
X333915Y220063D01*
X337866Y220063D01*
X255824Y283210D02*
X255824Y300990D01*
X250885Y300990D01*
X250745Y300988D01*
X250606Y300982D01*
X250466Y300972D01*
X250327Y300958D01*
X250188Y300941D01*
X250050Y300919D01*
X249913Y300893D01*
X249776Y300864D01*
X249640Y300831D01*
X249506Y300794D01*
X249372Y300753D01*
X249240Y300708D01*
X249108Y300659D01*
X248979Y300607D01*
X248851Y300552D01*
X248724Y300492D01*
X248599Y300429D01*
X248476Y300363D01*
X248355Y300293D01*
X248236Y300220D01*
X248119Y300143D01*
X248005Y300063D01*
X247892Y299980D01*
X247782Y299894D01*
X247675Y299804D01*
X247570Y299712D01*
X247468Y299617D01*
X247368Y299519D01*
X247271Y299418D01*
X247177Y299314D01*
X247087Y299208D01*
X246999Y299099D01*
X246914Y298988D01*
X246833Y298874D01*
X246754Y298759D01*
X246679Y298641D01*
X246608Y298521D01*
X246540Y298398D01*
X246475Y298275D01*
X246414Y298149D01*
X246356Y298021D01*
X246302Y297893D01*
X246252Y297762D01*
X246205Y297630D01*
X246162Y297497D01*
X246123Y297363D01*
X246088Y297228D01*
X246057Y297092D01*
X246029Y296954D01*
X246006Y296817D01*
X245986Y296678D01*
X245970Y296539D01*
X245958Y296400D01*
X245950Y296261D01*
X245946Y296121D01*
X245946Y295981D01*
X245950Y295841D01*
X245958Y295702D01*
X245970Y295563D01*
X245986Y295424D01*
X246006Y295285D01*
X246029Y295148D01*
X246057Y295010D01*
X246088Y294874D01*
X246123Y294739D01*
X246162Y294605D01*
X246205Y294472D01*
X246252Y294340D01*
X246302Y294209D01*
X246356Y294081D01*
X246414Y293953D01*
X246475Y293827D01*
X246540Y293704D01*
X246608Y293582D01*
X246679Y293461D01*
X246754Y293343D01*
X246833Y293228D01*
X246914Y293114D01*
X246999Y293003D01*
X247087Y292894D01*
X247177Y292788D01*
X247271Y292684D01*
X247368Y292583D01*
X247468Y292485D01*
X247570Y292390D01*
X247675Y292298D01*
X247782Y292208D01*
X247892Y292122D01*
X248005Y292039D01*
X248119Y291959D01*
X248236Y291882D01*
X248355Y291809D01*
X248476Y291739D01*
X248599Y291673D01*
X248724Y291610D01*
X248851Y291550D01*
X248979Y291495D01*
X249108Y291443D01*
X249240Y291394D01*
X249372Y291349D01*
X249506Y291308D01*
X249640Y291271D01*
X249776Y291238D01*
X249913Y291209D01*
X250050Y291183D01*
X250188Y291161D01*
X250327Y291144D01*
X250466Y291130D01*
X250606Y291120D01*
X250745Y291114D01*
X250885Y291112D01*
X255824Y291112D01*
X239829Y287161D02*
X235878Y300990D01*
X239829Y287161D02*
X229951Y287161D01*
X232914Y291112D02*
X232914Y283210D01*
X266936Y400685D02*
X266936Y418465D01*
X261998Y418465D01*
X261858Y418463D01*
X261719Y418457D01*
X261579Y418447D01*
X261440Y418433D01*
X261301Y418416D01*
X261163Y418394D01*
X261026Y418368D01*
X260889Y418339D01*
X260753Y418306D01*
X260619Y418269D01*
X260485Y418228D01*
X260353Y418183D01*
X260221Y418134D01*
X260092Y418082D01*
X259964Y418027D01*
X259837Y417967D01*
X259712Y417904D01*
X259589Y417838D01*
X259468Y417768D01*
X259349Y417695D01*
X259232Y417618D01*
X259118Y417538D01*
X259005Y417455D01*
X258895Y417369D01*
X258788Y417279D01*
X258683Y417187D01*
X258581Y417092D01*
X258481Y416994D01*
X258384Y416893D01*
X258290Y416789D01*
X258200Y416683D01*
X258112Y416574D01*
X258027Y416463D01*
X257946Y416349D01*
X257867Y416234D01*
X257792Y416116D01*
X257721Y415996D01*
X257653Y415873D01*
X257588Y415750D01*
X257527Y415624D01*
X257469Y415496D01*
X257415Y415368D01*
X257365Y415237D01*
X257318Y415105D01*
X257275Y414972D01*
X257236Y414838D01*
X257201Y414703D01*
X257170Y414567D01*
X257142Y414429D01*
X257119Y414292D01*
X257099Y414153D01*
X257083Y414014D01*
X257071Y413875D01*
X257063Y413736D01*
X257059Y413596D01*
X257059Y413456D01*
X257063Y413316D01*
X257071Y413177D01*
X257083Y413038D01*
X257099Y412899D01*
X257119Y412760D01*
X257142Y412623D01*
X257170Y412485D01*
X257201Y412349D01*
X257236Y412214D01*
X257275Y412080D01*
X257318Y411947D01*
X257365Y411815D01*
X257415Y411684D01*
X257469Y411556D01*
X257527Y411428D01*
X257588Y411302D01*
X257653Y411179D01*
X257721Y411057D01*
X257792Y410936D01*
X257867Y410818D01*
X257946Y410703D01*
X258027Y410589D01*
X258112Y410478D01*
X258200Y410369D01*
X258290Y410263D01*
X258384Y410159D01*
X258481Y410058D01*
X258581Y409960D01*
X258683Y409865D01*
X258788Y409773D01*
X258895Y409683D01*
X259005Y409597D01*
X259118Y409514D01*
X259232Y409434D01*
X259349Y409357D01*
X259468Y409284D01*
X259589Y409214D01*
X259712Y409148D01*
X259837Y409085D01*
X259964Y409025D01*
X260092Y408970D01*
X260221Y408918D01*
X260353Y408869D01*
X260485Y408824D01*
X260619Y408783D01*
X260753Y408746D01*
X260889Y408713D01*
X261026Y408684D01*
X261163Y408658D01*
X261301Y408636D01*
X261440Y408619D01*
X261579Y408605D01*
X261719Y408595D01*
X261858Y408589D01*
X261998Y408587D01*
X266936Y408587D01*
X250941Y400685D02*
X245015Y400685D01*
X244891Y400687D01*
X244767Y400693D01*
X244643Y400703D01*
X244520Y400716D01*
X244397Y400734D01*
X244275Y400755D01*
X244153Y400780D01*
X244032Y400809D01*
X243913Y400842D01*
X243794Y400878D01*
X243677Y400919D01*
X243561Y400962D01*
X243446Y401010D01*
X243333Y401061D01*
X243221Y401116D01*
X243112Y401174D01*
X243004Y401235D01*
X242898Y401300D01*
X242794Y401368D01*
X242693Y401440D01*
X242593Y401514D01*
X242497Y401592D01*
X242402Y401672D01*
X242310Y401756D01*
X242221Y401842D01*
X242135Y401931D01*
X242051Y402023D01*
X241971Y402118D01*
X241893Y402214D01*
X241819Y402314D01*
X241747Y402415D01*
X241679Y402519D01*
X241614Y402625D01*
X241553Y402733D01*
X241495Y402842D01*
X241440Y402954D01*
X241389Y403067D01*
X241341Y403182D01*
X241298Y403298D01*
X241257Y403415D01*
X241221Y403534D01*
X241188Y403653D01*
X241159Y403774D01*
X241134Y403896D01*
X241113Y404018D01*
X241095Y404141D01*
X241082Y404264D01*
X241072Y404388D01*
X241066Y404512D01*
X241064Y404636D01*
X241064Y406612D01*
X241066Y406736D01*
X241072Y406860D01*
X241082Y406984D01*
X241095Y407107D01*
X241113Y407230D01*
X241134Y407352D01*
X241159Y407474D01*
X241188Y407595D01*
X241221Y407714D01*
X241257Y407833D01*
X241298Y407950D01*
X241341Y408066D01*
X241389Y408181D01*
X241440Y408294D01*
X241495Y408406D01*
X241553Y408515D01*
X241614Y408623D01*
X241679Y408729D01*
X241747Y408833D01*
X241819Y408934D01*
X241893Y409034D01*
X241971Y409130D01*
X242051Y409225D01*
X242135Y409317D01*
X242221Y409406D01*
X242310Y409492D01*
X242402Y409576D01*
X242497Y409656D01*
X242593Y409734D01*
X242693Y409808D01*
X242794Y409880D01*
X242898Y409948D01*
X243004Y410013D01*
X243112Y410074D01*
X243221Y410132D01*
X243333Y410187D01*
X243446Y410238D01*
X243561Y410286D01*
X243677Y410329D01*
X243794Y410370D01*
X243913Y410406D01*
X244032Y410439D01*
X244153Y410468D01*
X244275Y410493D01*
X244397Y410514D01*
X244520Y410532D01*
X244643Y410545D01*
X244767Y410555D01*
X244891Y410561D01*
X245015Y410563D01*
X250941Y410563D01*
X250941Y418465D01*
X241064Y418465D01*
X383923Y426085D02*
X383923Y443865D01*
X383923Y435963D02*
X374046Y435963D01*
X374046Y443865D02*
X374046Y426085D01*
X366615Y434975D02*
X366611Y435325D01*
X366598Y435674D01*
X366577Y436023D01*
X366548Y436372D01*
X366511Y436720D01*
X366465Y437067D01*
X366411Y437412D01*
X366349Y437756D01*
X366278Y438099D01*
X366199Y438440D01*
X366113Y438779D01*
X366018Y439115D01*
X365915Y439450D01*
X365804Y439781D01*
X365686Y440111D01*
X365559Y440437D01*
X365425Y440760D01*
X365283Y441079D01*
X365133Y441396D01*
X365133Y441395D02*
X365093Y441508D01*
X365049Y441618D01*
X365001Y441728D01*
X364950Y441835D01*
X364895Y441941D01*
X364837Y442046D01*
X364775Y442148D01*
X364710Y442248D01*
X364642Y442346D01*
X364571Y442442D01*
X364496Y442535D01*
X364419Y442626D01*
X364339Y442714D01*
X364256Y442799D01*
X364170Y442882D01*
X364081Y442962D01*
X363990Y443039D01*
X363896Y443113D01*
X363800Y443184D01*
X363702Y443252D01*
X363602Y443316D01*
X363499Y443378D01*
X363395Y443435D01*
X363289Y443490D01*
X363181Y443541D01*
X363071Y443588D01*
X362960Y443632D01*
X362848Y443672D01*
X362734Y443708D01*
X362620Y443741D01*
X362504Y443770D01*
X362387Y443795D01*
X362270Y443816D01*
X362152Y443834D01*
X362033Y443847D01*
X361914Y443857D01*
X361795Y443863D01*
X361676Y443865D01*
X361557Y443863D01*
X361438Y443857D01*
X361319Y443847D01*
X361200Y443834D01*
X361082Y443816D01*
X360965Y443795D01*
X360848Y443770D01*
X360732Y443741D01*
X360618Y443708D01*
X360504Y443672D01*
X360392Y443632D01*
X360281Y443588D01*
X360171Y443541D01*
X360063Y443490D01*
X359957Y443435D01*
X359853Y443378D01*
X359750Y443316D01*
X359650Y443252D01*
X359552Y443184D01*
X359456Y443113D01*
X359362Y443039D01*
X359271Y442962D01*
X359182Y442882D01*
X359097Y442799D01*
X359013Y442714D01*
X358933Y442626D01*
X358856Y442535D01*
X358781Y442442D01*
X358710Y442346D01*
X358642Y442248D01*
X358577Y442148D01*
X358515Y442046D01*
X358457Y441941D01*
X358402Y441836D01*
X358351Y441728D01*
X358303Y441618D01*
X358259Y441508D01*
X358219Y441395D01*
X358219Y441396D02*
X358069Y441079D01*
X357927Y440760D01*
X357793Y440437D01*
X357666Y440111D01*
X357548Y439781D01*
X357437Y439450D01*
X357334Y439115D01*
X357239Y438779D01*
X357153Y438440D01*
X357074Y438099D01*
X357003Y437756D01*
X356941Y437412D01*
X356887Y437067D01*
X356841Y436720D01*
X356804Y436372D01*
X356775Y436023D01*
X356754Y435674D01*
X356741Y435325D01*
X356737Y434975D01*
X366614Y434975D02*
X366610Y434625D01*
X366597Y434276D01*
X366576Y433927D01*
X366547Y433578D01*
X366510Y433230D01*
X366464Y432883D01*
X366410Y432538D01*
X366348Y432194D01*
X366277Y431851D01*
X366198Y431510D01*
X366112Y431171D01*
X366017Y430835D01*
X365914Y430500D01*
X365803Y430169D01*
X365685Y429840D01*
X365558Y429513D01*
X365424Y429190D01*
X365282Y428871D01*
X365132Y428555D01*
X365133Y428555D02*
X365093Y428442D01*
X365049Y428332D01*
X365001Y428222D01*
X364950Y428115D01*
X364895Y428009D01*
X364837Y427904D01*
X364775Y427802D01*
X364710Y427702D01*
X364642Y427604D01*
X364571Y427508D01*
X364496Y427415D01*
X364419Y427324D01*
X364339Y427236D01*
X364256Y427151D01*
X364170Y427068D01*
X364081Y426988D01*
X363990Y426911D01*
X363896Y426837D01*
X363800Y426766D01*
X363702Y426698D01*
X363602Y426634D01*
X363499Y426572D01*
X363395Y426515D01*
X363289Y426460D01*
X363181Y426409D01*
X363071Y426362D01*
X362960Y426318D01*
X362848Y426278D01*
X362734Y426242D01*
X362620Y426209D01*
X362504Y426180D01*
X362387Y426155D01*
X362270Y426134D01*
X362152Y426116D01*
X362033Y426103D01*
X361914Y426093D01*
X361795Y426087D01*
X361676Y426085D01*
X358219Y428555D02*
X358069Y428871D01*
X357927Y429190D01*
X357793Y429513D01*
X357666Y429840D01*
X357548Y430169D01*
X357437Y430500D01*
X357334Y430835D01*
X357239Y431171D01*
X357153Y431510D01*
X357074Y431851D01*
X357003Y432194D01*
X356941Y432538D01*
X356887Y432883D01*
X356841Y433230D01*
X356804Y433578D01*
X356775Y433927D01*
X356754Y434276D01*
X356741Y434625D01*
X356737Y434975D01*
X358219Y428555D02*
X358259Y428442D01*
X358303Y428332D01*
X358351Y428222D01*
X358402Y428114D01*
X358457Y428008D01*
X358515Y427904D01*
X358577Y427802D01*
X358642Y427702D01*
X358710Y427604D01*
X358781Y427508D01*
X358856Y427415D01*
X358933Y427324D01*
X359013Y427236D01*
X359097Y427151D01*
X359182Y427068D01*
X359271Y426988D01*
X359362Y426911D01*
X359456Y426837D01*
X359552Y426766D01*
X359650Y426698D01*
X359750Y426634D01*
X359853Y426572D01*
X359957Y426514D01*
X360063Y426460D01*
X360171Y426409D01*
X360281Y426362D01*
X360392Y426318D01*
X360504Y426278D01*
X360618Y426242D01*
X360732Y426209D01*
X360848Y426180D01*
X360965Y426155D01*
X361082Y426134D01*
X361200Y426116D01*
X361319Y426103D01*
X361438Y426093D01*
X361557Y426087D01*
X361676Y426085D01*
X365627Y430036D02*
X357725Y439914D01*
X349109Y435963D02*
X344170Y435963D01*
X344030Y435961D01*
X343891Y435955D01*
X343751Y435945D01*
X343612Y435931D01*
X343473Y435914D01*
X343335Y435892D01*
X343198Y435866D01*
X343061Y435837D01*
X342925Y435804D01*
X342791Y435767D01*
X342657Y435726D01*
X342525Y435681D01*
X342393Y435632D01*
X342264Y435580D01*
X342136Y435525D01*
X342009Y435465D01*
X341884Y435402D01*
X341761Y435336D01*
X341640Y435266D01*
X341521Y435193D01*
X341404Y435116D01*
X341290Y435036D01*
X341177Y434953D01*
X341067Y434867D01*
X340960Y434777D01*
X340855Y434685D01*
X340753Y434590D01*
X340653Y434492D01*
X340556Y434391D01*
X340462Y434287D01*
X340372Y434181D01*
X340284Y434072D01*
X340199Y433961D01*
X340118Y433847D01*
X340039Y433732D01*
X339964Y433614D01*
X339893Y433494D01*
X339825Y433371D01*
X339760Y433248D01*
X339699Y433122D01*
X339641Y432994D01*
X339587Y432866D01*
X339537Y432735D01*
X339490Y432603D01*
X339447Y432470D01*
X339408Y432336D01*
X339373Y432201D01*
X339342Y432065D01*
X339314Y431927D01*
X339291Y431790D01*
X339271Y431651D01*
X339255Y431512D01*
X339243Y431373D01*
X339235Y431234D01*
X339231Y431094D01*
X339231Y430954D01*
X339235Y430814D01*
X339243Y430675D01*
X339255Y430536D01*
X339271Y430397D01*
X339291Y430258D01*
X339314Y430121D01*
X339342Y429983D01*
X339373Y429847D01*
X339408Y429712D01*
X339447Y429578D01*
X339490Y429445D01*
X339537Y429313D01*
X339587Y429182D01*
X339641Y429054D01*
X339699Y428926D01*
X339760Y428800D01*
X339825Y428677D01*
X339893Y428555D01*
X339964Y428434D01*
X340039Y428316D01*
X340118Y428201D01*
X340199Y428087D01*
X340284Y427976D01*
X340372Y427867D01*
X340462Y427761D01*
X340556Y427657D01*
X340653Y427556D01*
X340753Y427458D01*
X340855Y427363D01*
X340960Y427271D01*
X341067Y427181D01*
X341177Y427095D01*
X341290Y427012D01*
X341404Y426932D01*
X341521Y426855D01*
X341640Y426782D01*
X341761Y426712D01*
X341884Y426646D01*
X342009Y426583D01*
X342136Y426523D01*
X342264Y426468D01*
X342393Y426416D01*
X342525Y426367D01*
X342657Y426322D01*
X342791Y426281D01*
X342925Y426244D01*
X343061Y426211D01*
X343198Y426182D01*
X343335Y426156D01*
X343473Y426134D01*
X343612Y426117D01*
X343751Y426103D01*
X343891Y426093D01*
X344030Y426087D01*
X344170Y426085D01*
X349109Y426085D01*
X349109Y443865D01*
X344170Y443865D01*
X344046Y443863D01*
X343922Y443857D01*
X343798Y443847D01*
X343675Y443834D01*
X343552Y443816D01*
X343430Y443795D01*
X343308Y443770D01*
X343187Y443741D01*
X343068Y443708D01*
X342949Y443672D01*
X342832Y443631D01*
X342716Y443588D01*
X342601Y443540D01*
X342488Y443489D01*
X342376Y443434D01*
X342267Y443376D01*
X342159Y443315D01*
X342053Y443250D01*
X341949Y443182D01*
X341848Y443110D01*
X341748Y443036D01*
X341652Y442958D01*
X341557Y442878D01*
X341465Y442794D01*
X341376Y442708D01*
X341290Y442619D01*
X341206Y442527D01*
X341126Y442432D01*
X341048Y442336D01*
X340974Y442236D01*
X340902Y442135D01*
X340834Y442031D01*
X340769Y441925D01*
X340708Y441817D01*
X340650Y441708D01*
X340595Y441596D01*
X340544Y441483D01*
X340496Y441368D01*
X340453Y441252D01*
X340412Y441135D01*
X340376Y441016D01*
X340343Y440897D01*
X340314Y440776D01*
X340289Y440654D01*
X340268Y440532D01*
X340250Y440409D01*
X340237Y440286D01*
X340227Y440162D01*
X340221Y440038D01*
X340219Y439914D01*
X340221Y439790D01*
X340227Y439666D01*
X340237Y439542D01*
X340250Y439419D01*
X340268Y439296D01*
X340289Y439174D01*
X340314Y439052D01*
X340343Y438931D01*
X340376Y438812D01*
X340412Y438693D01*
X340453Y438576D01*
X340496Y438460D01*
X340544Y438345D01*
X340595Y438232D01*
X340650Y438120D01*
X340708Y438011D01*
X340769Y437903D01*
X340834Y437797D01*
X340902Y437693D01*
X340974Y437592D01*
X341048Y437492D01*
X341126Y437396D01*
X341206Y437301D01*
X341290Y437209D01*
X341376Y437120D01*
X341465Y437034D01*
X341557Y436950D01*
X341652Y436870D01*
X341748Y436792D01*
X341848Y436718D01*
X341949Y436646D01*
X342053Y436578D01*
X342159Y436513D01*
X342267Y436452D01*
X342376Y436394D01*
X342488Y436339D01*
X342601Y436288D01*
X342716Y436240D01*
X342832Y436197D01*
X342949Y436156D01*
X343068Y436120D01*
X343187Y436087D01*
X343308Y436058D01*
X343430Y436033D01*
X343552Y436012D01*
X343675Y435994D01*
X343798Y435981D01*
X343922Y435971D01*
X344046Y435965D01*
X344170Y435963D01*
X332470Y443865D02*
X332470Y426085D01*
X332470Y443865D02*
X327531Y443865D01*
X327391Y443863D01*
X327252Y443857D01*
X327112Y443847D01*
X326973Y443833D01*
X326834Y443816D01*
X326696Y443794D01*
X326559Y443768D01*
X326422Y443739D01*
X326286Y443706D01*
X326152Y443669D01*
X326018Y443628D01*
X325886Y443583D01*
X325754Y443534D01*
X325625Y443482D01*
X325497Y443427D01*
X325370Y443367D01*
X325245Y443304D01*
X325122Y443238D01*
X325001Y443168D01*
X324882Y443095D01*
X324765Y443018D01*
X324651Y442938D01*
X324538Y442855D01*
X324428Y442769D01*
X324321Y442679D01*
X324216Y442587D01*
X324114Y442492D01*
X324014Y442394D01*
X323917Y442293D01*
X323823Y442189D01*
X323733Y442083D01*
X323645Y441974D01*
X323560Y441863D01*
X323479Y441749D01*
X323400Y441634D01*
X323325Y441516D01*
X323254Y441396D01*
X323186Y441273D01*
X323121Y441150D01*
X323060Y441024D01*
X323002Y440896D01*
X322948Y440768D01*
X322898Y440637D01*
X322851Y440505D01*
X322808Y440372D01*
X322769Y440238D01*
X322734Y440103D01*
X322703Y439967D01*
X322675Y439829D01*
X322652Y439692D01*
X322632Y439553D01*
X322616Y439414D01*
X322604Y439275D01*
X322596Y439136D01*
X322592Y438996D01*
X322592Y438856D01*
X322596Y438716D01*
X322604Y438577D01*
X322616Y438438D01*
X322632Y438299D01*
X322652Y438160D01*
X322675Y438023D01*
X322703Y437885D01*
X322734Y437749D01*
X322769Y437614D01*
X322808Y437480D01*
X322851Y437347D01*
X322898Y437215D01*
X322948Y437084D01*
X323002Y436956D01*
X323060Y436828D01*
X323121Y436702D01*
X323186Y436579D01*
X323254Y436457D01*
X323325Y436336D01*
X323400Y436218D01*
X323479Y436103D01*
X323560Y435989D01*
X323645Y435878D01*
X323733Y435769D01*
X323823Y435663D01*
X323917Y435559D01*
X324014Y435458D01*
X324114Y435360D01*
X324216Y435265D01*
X324321Y435173D01*
X324428Y435083D01*
X324538Y434997D01*
X324651Y434914D01*
X324765Y434834D01*
X324882Y434757D01*
X325001Y434684D01*
X325122Y434614D01*
X325245Y434548D01*
X325370Y434485D01*
X325497Y434425D01*
X325625Y434370D01*
X325754Y434318D01*
X325886Y434269D01*
X326018Y434224D01*
X326152Y434183D01*
X326286Y434146D01*
X326422Y434113D01*
X326559Y434084D01*
X326696Y434058D01*
X326834Y434036D01*
X326973Y434019D01*
X327112Y434005D01*
X327252Y433995D01*
X327391Y433989D01*
X327531Y433987D01*
X332470Y433987D01*
X326543Y433987D02*
X322592Y426085D01*
X315805Y430036D02*
X311854Y443865D01*
X315805Y430036D02*
X305927Y430036D01*
X308890Y433987D02*
X308890Y426085D01*
X299054Y439914D02*
X294116Y443865D01*
X294116Y426085D01*
X299054Y426085D02*
X289177Y426085D01*
X357424Y454660D02*
X357424Y472440D01*
X352485Y472440D01*
X352345Y472438D01*
X352206Y472432D01*
X352066Y472422D01*
X351927Y472408D01*
X351788Y472391D01*
X351650Y472369D01*
X351513Y472343D01*
X351376Y472314D01*
X351240Y472281D01*
X351106Y472244D01*
X350972Y472203D01*
X350840Y472158D01*
X350708Y472109D01*
X350579Y472057D01*
X350451Y472002D01*
X350324Y471942D01*
X350199Y471879D01*
X350076Y471813D01*
X349955Y471743D01*
X349836Y471670D01*
X349719Y471593D01*
X349605Y471513D01*
X349492Y471430D01*
X349382Y471344D01*
X349275Y471254D01*
X349170Y471162D01*
X349068Y471067D01*
X348968Y470969D01*
X348871Y470868D01*
X348777Y470764D01*
X348687Y470658D01*
X348599Y470549D01*
X348514Y470438D01*
X348433Y470324D01*
X348354Y470209D01*
X348279Y470091D01*
X348208Y469971D01*
X348140Y469848D01*
X348075Y469725D01*
X348014Y469599D01*
X347956Y469471D01*
X347902Y469343D01*
X347852Y469212D01*
X347805Y469080D01*
X347762Y468947D01*
X347723Y468813D01*
X347688Y468678D01*
X347657Y468542D01*
X347629Y468404D01*
X347606Y468267D01*
X347586Y468128D01*
X347570Y467989D01*
X347558Y467850D01*
X347550Y467711D01*
X347546Y467571D01*
X347546Y467431D01*
X347550Y467291D01*
X347558Y467152D01*
X347570Y467013D01*
X347586Y466874D01*
X347606Y466735D01*
X347629Y466598D01*
X347657Y466460D01*
X347688Y466324D01*
X347723Y466189D01*
X347762Y466055D01*
X347805Y465922D01*
X347852Y465790D01*
X347902Y465659D01*
X347956Y465531D01*
X348014Y465403D01*
X348075Y465277D01*
X348140Y465154D01*
X348208Y465032D01*
X348279Y464911D01*
X348354Y464793D01*
X348433Y464678D01*
X348514Y464564D01*
X348599Y464453D01*
X348687Y464344D01*
X348777Y464238D01*
X348871Y464134D01*
X348968Y464033D01*
X349068Y463935D01*
X349170Y463840D01*
X349275Y463748D01*
X349382Y463658D01*
X349492Y463572D01*
X349605Y463489D01*
X349719Y463409D01*
X349836Y463332D01*
X349955Y463259D01*
X350076Y463189D01*
X350199Y463123D01*
X350324Y463060D01*
X350451Y463000D01*
X350579Y462945D01*
X350708Y462893D01*
X350840Y462844D01*
X350972Y462799D01*
X351106Y462758D01*
X351240Y462721D01*
X351376Y462688D01*
X351513Y462659D01*
X351650Y462633D01*
X351788Y462611D01*
X351927Y462594D01*
X352066Y462580D01*
X352206Y462570D01*
X352345Y462564D01*
X352485Y462562D01*
X357424Y462562D01*
X341429Y464538D02*
X335502Y464538D01*
X335378Y464536D01*
X335254Y464530D01*
X335130Y464520D01*
X335007Y464507D01*
X334884Y464489D01*
X334762Y464468D01*
X334640Y464443D01*
X334519Y464414D01*
X334400Y464381D01*
X334281Y464345D01*
X334164Y464304D01*
X334048Y464261D01*
X333933Y464213D01*
X333820Y464162D01*
X333708Y464107D01*
X333599Y464049D01*
X333491Y463988D01*
X333385Y463923D01*
X333281Y463855D01*
X333180Y463783D01*
X333080Y463709D01*
X332984Y463631D01*
X332889Y463551D01*
X332797Y463467D01*
X332708Y463381D01*
X332622Y463292D01*
X332538Y463200D01*
X332458Y463105D01*
X332380Y463009D01*
X332306Y462909D01*
X332234Y462808D01*
X332166Y462704D01*
X332101Y462598D01*
X332040Y462490D01*
X331982Y462381D01*
X331927Y462269D01*
X331876Y462156D01*
X331828Y462041D01*
X331785Y461925D01*
X331744Y461808D01*
X331708Y461689D01*
X331675Y461570D01*
X331646Y461449D01*
X331621Y461327D01*
X331600Y461205D01*
X331582Y461082D01*
X331569Y460959D01*
X331559Y460835D01*
X331553Y460711D01*
X331551Y460587D01*
X331551Y459599D01*
X331553Y459459D01*
X331559Y459320D01*
X331569Y459180D01*
X331583Y459041D01*
X331600Y458902D01*
X331622Y458764D01*
X331648Y458627D01*
X331677Y458490D01*
X331710Y458354D01*
X331747Y458220D01*
X331788Y458086D01*
X331833Y457954D01*
X331882Y457822D01*
X331934Y457693D01*
X331989Y457565D01*
X332049Y457438D01*
X332112Y457313D01*
X332178Y457190D01*
X332248Y457069D01*
X332321Y456950D01*
X332398Y456833D01*
X332478Y456719D01*
X332561Y456606D01*
X332647Y456496D01*
X332737Y456389D01*
X332829Y456284D01*
X332924Y456182D01*
X333022Y456082D01*
X333123Y455985D01*
X333227Y455891D01*
X333333Y455801D01*
X333442Y455713D01*
X333553Y455628D01*
X333667Y455547D01*
X333782Y455468D01*
X333900Y455393D01*
X334021Y455322D01*
X334143Y455254D01*
X334266Y455189D01*
X334392Y455128D01*
X334520Y455070D01*
X334648Y455016D01*
X334779Y454966D01*
X334911Y454919D01*
X335044Y454876D01*
X335178Y454837D01*
X335313Y454802D01*
X335449Y454771D01*
X335587Y454743D01*
X335724Y454720D01*
X335863Y454700D01*
X336002Y454684D01*
X336141Y454672D01*
X336280Y454664D01*
X336420Y454660D01*
X336560Y454660D01*
X336700Y454664D01*
X336839Y454672D01*
X336978Y454684D01*
X337117Y454700D01*
X337256Y454720D01*
X337393Y454743D01*
X337531Y454771D01*
X337667Y454802D01*
X337802Y454837D01*
X337936Y454876D01*
X338069Y454919D01*
X338201Y454966D01*
X338332Y455016D01*
X338460Y455070D01*
X338588Y455128D01*
X338714Y455189D01*
X338837Y455254D01*
X338960Y455322D01*
X339080Y455393D01*
X339198Y455468D01*
X339313Y455547D01*
X339427Y455628D01*
X339538Y455713D01*
X339647Y455801D01*
X339753Y455891D01*
X339857Y455985D01*
X339958Y456082D01*
X340056Y456182D01*
X340151Y456284D01*
X340243Y456389D01*
X340333Y456496D01*
X340419Y456606D01*
X340502Y456719D01*
X340582Y456833D01*
X340659Y456950D01*
X340732Y457069D01*
X340802Y457190D01*
X340868Y457313D01*
X340931Y457438D01*
X340991Y457565D01*
X341046Y457693D01*
X341098Y457822D01*
X341147Y457954D01*
X341192Y458086D01*
X341233Y458220D01*
X341270Y458354D01*
X341303Y458490D01*
X341332Y458627D01*
X341358Y458764D01*
X341380Y458902D01*
X341397Y459041D01*
X341411Y459180D01*
X341421Y459320D01*
X341427Y459459D01*
X341429Y459599D01*
X341429Y464538D01*
X341427Y464732D01*
X341419Y464926D01*
X341408Y465119D01*
X341391Y465313D01*
X341370Y465505D01*
X341343Y465697D01*
X341313Y465889D01*
X341277Y466080D01*
X341237Y466269D01*
X341192Y466458D01*
X341143Y466646D01*
X341089Y466832D01*
X341030Y467017D01*
X340967Y467200D01*
X340900Y467382D01*
X340828Y467562D01*
X340751Y467740D01*
X340670Y467917D01*
X340585Y468091D01*
X340496Y468263D01*
X340402Y468433D01*
X340305Y468600D01*
X340203Y468766D01*
X340097Y468928D01*
X339988Y469088D01*
X339874Y469245D01*
X339757Y469400D01*
X339635Y469551D01*
X339510Y469699D01*
X339382Y469845D01*
X339250Y469987D01*
X339115Y470126D01*
X338976Y470261D01*
X338834Y470393D01*
X338688Y470521D01*
X338540Y470646D01*
X338389Y470767D01*
X338234Y470885D01*
X338077Y470999D01*
X337917Y471108D01*
X337755Y471214D01*
X337589Y471316D01*
X337422Y471413D01*
X337252Y471507D01*
X337080Y471596D01*
X336906Y471681D01*
X336729Y471762D01*
X336551Y471838D01*
X336371Y471910D01*
X336189Y471978D01*
X336006Y472041D01*
X335821Y472100D01*
X335635Y472154D01*
X335447Y472203D01*
X335258Y472248D01*
X335069Y472288D01*
X334878Y472324D01*
X334687Y472354D01*
X334494Y472381D01*
X334302Y472402D01*
X334108Y472419D01*
X333915Y472430D01*
X333721Y472438D01*
X333527Y472440D01*
D10*
X284776Y476680D02*
X283181Y475563D01*
X286904Y470246D01*
X290095Y472480D01*
X290094Y472480D02*
X290174Y472539D01*
X290252Y472601D01*
X290328Y472665D01*
X290401Y472733D01*
X290472Y472803D01*
X290539Y472876D01*
X290604Y472951D01*
X290666Y473029D01*
X290725Y473109D01*
X290781Y473191D01*
X290834Y473276D01*
X290883Y473362D01*
X290929Y473450D01*
X290972Y473540D01*
X291011Y473631D01*
X291046Y473724D01*
X291078Y473818D01*
X291107Y473914D01*
X291131Y474010D01*
X291152Y474107D01*
X291170Y474205D01*
X291183Y474304D01*
X291193Y474403D01*
X291199Y474502D01*
X291201Y474601D01*
X291199Y474701D01*
X291194Y474800D01*
X291184Y474899D01*
X291171Y474998D01*
X291155Y475096D01*
X291134Y475193D01*
X291110Y475290D01*
X291082Y475385D01*
X291050Y475479D01*
X291015Y475572D01*
X290976Y475664D01*
X290934Y475754D01*
X290888Y475842D01*
X290839Y475929D01*
X290787Y476013D01*
X290732Y476096D01*
X287009Y481413D01*
X286950Y481493D01*
X286888Y481571D01*
X286824Y481647D01*
X286756Y481720D01*
X286686Y481791D01*
X286613Y481858D01*
X286538Y481923D01*
X286460Y481985D01*
X286380Y482044D01*
X286298Y482100D01*
X286213Y482153D01*
X286127Y482202D01*
X286039Y482248D01*
X285949Y482291D01*
X285858Y482330D01*
X285765Y482365D01*
X285671Y482397D01*
X285575Y482426D01*
X285479Y482450D01*
X285382Y482471D01*
X285284Y482489D01*
X285185Y482502D01*
X285086Y482512D01*
X284987Y482518D01*
X284888Y482520D01*
X284788Y482518D01*
X284689Y482513D01*
X284590Y482504D01*
X284491Y482490D01*
X284393Y482474D01*
X284296Y482453D01*
X284199Y482429D01*
X284104Y482401D01*
X284010Y482369D01*
X283917Y482334D01*
X283825Y482295D01*
X283735Y482253D01*
X283647Y482207D01*
X283560Y482158D01*
X283476Y482106D01*
X283393Y482051D01*
X280203Y479817D01*
X275533Y476547D02*
X282234Y466976D01*
X276917Y463253D02*
X275533Y476547D01*
X270216Y472824D02*
X276917Y463253D01*
X272247Y459983D02*
X265546Y469554D01*
X262887Y467692D01*
X262887Y467693D02*
X262796Y467626D01*
X262706Y467557D01*
X262619Y467484D01*
X262535Y467408D01*
X262454Y467329D01*
X262375Y467248D01*
X262299Y467164D01*
X262226Y467077D01*
X262157Y466988D01*
X262090Y466896D01*
X262027Y466802D01*
X261967Y466706D01*
X261910Y466608D01*
X261857Y466508D01*
X261807Y466406D01*
X261761Y466302D01*
X261719Y466197D01*
X261680Y466091D01*
X261645Y465983D01*
X261614Y465874D01*
X261586Y465764D01*
X261563Y465653D01*
X261543Y465542D01*
X261527Y465430D01*
X261515Y465317D01*
X261507Y465204D01*
X261503Y465091D01*
X261503Y464977D01*
X261507Y464864D01*
X261515Y464751D01*
X261527Y464638D01*
X261543Y464526D01*
X261563Y464415D01*
X261586Y464304D01*
X261614Y464194D01*
X261645Y464085D01*
X261680Y463977D01*
X261719Y463871D01*
X261761Y463766D01*
X261807Y463662D01*
X261857Y463560D01*
X261910Y463460D01*
X261967Y463362D01*
X262027Y463266D01*
X262090Y463172D01*
X265069Y458918D01*
X265068Y458918D02*
X265135Y458827D01*
X265204Y458737D01*
X265277Y458650D01*
X265353Y458566D01*
X265432Y458485D01*
X265513Y458406D01*
X265597Y458330D01*
X265684Y458257D01*
X265774Y458188D01*
X265865Y458121D01*
X265959Y458058D01*
X266055Y457998D01*
X266153Y457941D01*
X266253Y457888D01*
X266355Y457838D01*
X266459Y457792D01*
X266564Y457750D01*
X266670Y457711D01*
X266778Y457676D01*
X266887Y457645D01*
X266997Y457617D01*
X267108Y457594D01*
X267219Y457574D01*
X267331Y457558D01*
X267444Y457546D01*
X267557Y457538D01*
X267670Y457534D01*
X267784Y457534D01*
X267897Y457538D01*
X268010Y457546D01*
X268123Y457558D01*
X268235Y457574D01*
X268346Y457594D01*
X268457Y457617D01*
X268567Y457645D01*
X268676Y457676D01*
X268784Y457711D01*
X268890Y457750D01*
X268995Y457792D01*
X269099Y457838D01*
X269201Y457888D01*
X269301Y457941D01*
X269399Y457998D01*
X269495Y458058D01*
X269589Y458121D01*
X272247Y459983D01*
X423626Y465300D02*
X425221Y464183D01*
X423626Y465300D02*
X419903Y459983D01*
X423093Y457749D01*
X423176Y457694D01*
X423260Y457642D01*
X423347Y457593D01*
X423435Y457547D01*
X423525Y457505D01*
X423617Y457466D01*
X423710Y457431D01*
X423804Y457399D01*
X423899Y457371D01*
X423996Y457347D01*
X424093Y457326D01*
X424191Y457310D01*
X424290Y457296D01*
X424389Y457287D01*
X424488Y457282D01*
X424588Y457280D01*
X424687Y457282D01*
X424786Y457288D01*
X424885Y457298D01*
X424984Y457311D01*
X425082Y457329D01*
X425179Y457350D01*
X425275Y457374D01*
X425371Y457403D01*
X425465Y457435D01*
X425558Y457470D01*
X425649Y457509D01*
X425739Y457552D01*
X425827Y457598D01*
X425913Y457647D01*
X425998Y457700D01*
X426080Y457756D01*
X426160Y457815D01*
X426238Y457877D01*
X426313Y457942D01*
X426386Y458009D01*
X426456Y458080D01*
X426524Y458153D01*
X426588Y458229D01*
X426650Y458307D01*
X426709Y458387D01*
X430432Y463704D01*
X430487Y463787D01*
X430539Y463871D01*
X430588Y463958D01*
X430634Y464046D01*
X430676Y464136D01*
X430715Y464228D01*
X430750Y464321D01*
X430782Y464415D01*
X430810Y464510D01*
X430834Y464607D01*
X430855Y464704D01*
X430871Y464802D01*
X430885Y464901D01*
X430894Y465000D01*
X430899Y465099D01*
X430901Y465199D01*
X430899Y465298D01*
X430893Y465397D01*
X430883Y465496D01*
X430870Y465595D01*
X430852Y465693D01*
X430831Y465790D01*
X430807Y465886D01*
X430778Y465982D01*
X430746Y466076D01*
X430711Y466169D01*
X430672Y466260D01*
X430629Y466350D01*
X430583Y466438D01*
X430534Y466524D01*
X430481Y466609D01*
X430425Y466691D01*
X430366Y466771D01*
X430304Y466849D01*
X430239Y466924D01*
X430172Y466997D01*
X430101Y467067D01*
X430028Y467135D01*
X429952Y467199D01*
X429874Y467261D01*
X429794Y467320D01*
X429795Y467320D02*
X426604Y469554D01*
X421935Y472824D02*
X415233Y463253D01*
X409916Y466976D02*
X421935Y472824D01*
X416617Y476547D02*
X409916Y466976D01*
X405246Y470246D02*
X411947Y479817D01*
X409289Y481678D01*
X409289Y481679D02*
X409195Y481742D01*
X409099Y481802D01*
X409001Y481859D01*
X408901Y481912D01*
X408799Y481962D01*
X408695Y482008D01*
X408590Y482050D01*
X408484Y482089D01*
X408376Y482124D01*
X408267Y482155D01*
X408157Y482183D01*
X408046Y482206D01*
X407935Y482226D01*
X407823Y482242D01*
X407710Y482254D01*
X407597Y482262D01*
X407484Y482266D01*
X407370Y482266D01*
X407257Y482262D01*
X407144Y482254D01*
X407031Y482242D01*
X406919Y482226D01*
X406808Y482206D01*
X406697Y482183D01*
X406587Y482155D01*
X406478Y482124D01*
X406370Y482089D01*
X406264Y482050D01*
X406159Y482008D01*
X406055Y481962D01*
X405953Y481912D01*
X405853Y481859D01*
X405755Y481802D01*
X405659Y481742D01*
X405565Y481679D01*
X405474Y481612D01*
X405384Y481543D01*
X405297Y481470D01*
X405213Y481394D01*
X405132Y481315D01*
X405053Y481234D01*
X404977Y481150D01*
X404904Y481063D01*
X404835Y480974D01*
X404768Y480882D01*
X404769Y480881D02*
X401790Y476628D01*
X401727Y476534D01*
X401667Y476438D01*
X401610Y476340D01*
X401557Y476240D01*
X401507Y476138D01*
X401461Y476034D01*
X401419Y475929D01*
X401380Y475823D01*
X401345Y475715D01*
X401314Y475606D01*
X401286Y475496D01*
X401263Y475385D01*
X401243Y475274D01*
X401227Y475162D01*
X401215Y475049D01*
X401207Y474936D01*
X401203Y474823D01*
X401203Y474709D01*
X401207Y474596D01*
X401215Y474483D01*
X401227Y474370D01*
X401243Y474258D01*
X401263Y474147D01*
X401286Y474036D01*
X401314Y473926D01*
X401345Y473817D01*
X401380Y473709D01*
X401419Y473603D01*
X401461Y473498D01*
X401507Y473394D01*
X401557Y473292D01*
X401610Y473192D01*
X401667Y473094D01*
X401727Y472998D01*
X401790Y472904D01*
X401857Y472812D01*
X401926Y472723D01*
X401999Y472636D01*
X402075Y472552D01*
X402154Y472471D01*
X402235Y472392D01*
X402319Y472316D01*
X402406Y472243D01*
X402496Y472174D01*
X402587Y472107D01*
X405246Y470246D01*
D12*
X367919Y298704D02*
X367919Y291917D01*
X367917Y291816D01*
X367911Y291715D01*
X367901Y291614D01*
X367888Y291514D01*
X367870Y291414D01*
X367849Y291315D01*
X367823Y291217D01*
X367794Y291120D01*
X367762Y291024D01*
X367725Y290930D01*
X367685Y290837D01*
X367641Y290745D01*
X367594Y290656D01*
X367543Y290568D01*
X367489Y290482D01*
X367432Y290399D01*
X367372Y290317D01*
X367308Y290239D01*
X367242Y290162D01*
X367172Y290089D01*
X367100Y290018D01*
X367025Y289950D01*
X366947Y289885D01*
X366867Y289823D01*
X366785Y289764D01*
X366700Y289708D01*
X366613Y289656D01*
X366525Y289607D01*
X366434Y289561D01*
X366342Y289520D01*
X366248Y289481D01*
X366153Y289447D01*
X366057Y289416D01*
X365959Y289389D01*
X365861Y289365D01*
X365761Y289346D01*
X365661Y289330D01*
X365561Y289318D01*
X365460Y289310D01*
X365359Y289306D01*
X365257Y289306D01*
X365156Y289310D01*
X365055Y289318D01*
X364955Y289330D01*
X364855Y289346D01*
X364755Y289365D01*
X364657Y289389D01*
X364559Y289416D01*
X364463Y289447D01*
X364368Y289481D01*
X364274Y289520D01*
X364182Y289561D01*
X364091Y289607D01*
X364003Y289656D01*
X363916Y289708D01*
X363831Y289764D01*
X363749Y289823D01*
X363669Y289885D01*
X363591Y289950D01*
X363516Y290018D01*
X363444Y290089D01*
X363374Y290162D01*
X363308Y290239D01*
X363244Y290317D01*
X363184Y290399D01*
X363127Y290482D01*
X363073Y290568D01*
X363022Y290656D01*
X362975Y290745D01*
X362931Y290837D01*
X362891Y290930D01*
X362854Y291024D01*
X362822Y291120D01*
X362793Y291217D01*
X362767Y291315D01*
X362746Y291414D01*
X362728Y291514D01*
X362715Y291614D01*
X362705Y291715D01*
X362699Y291816D01*
X362697Y291917D01*
X362698Y291917D02*
X362698Y298704D01*
X358470Y296616D02*
X355860Y298704D01*
X355860Y289306D01*
X358470Y289306D02*
X353249Y289306D01*
X440895Y352489D02*
X442983Y352489D01*
X443072Y352491D01*
X443160Y352497D01*
X443248Y352506D01*
X443336Y352519D01*
X443423Y352536D01*
X443509Y352556D01*
X443594Y352581D01*
X443679Y352608D01*
X443762Y352640D01*
X443843Y352674D01*
X443923Y352713D01*
X444001Y352754D01*
X444078Y352799D01*
X444152Y352847D01*
X444225Y352898D01*
X444295Y352952D01*
X444362Y353010D01*
X444428Y353070D01*
X444490Y353132D01*
X444550Y353198D01*
X444608Y353265D01*
X444662Y353335D01*
X444713Y353408D01*
X444761Y353482D01*
X444806Y353559D01*
X444847Y353637D01*
X444886Y353717D01*
X444920Y353798D01*
X444952Y353881D01*
X444979Y353966D01*
X445004Y354051D01*
X445024Y354137D01*
X445041Y354224D01*
X445054Y354312D01*
X445063Y354400D01*
X445069Y354488D01*
X445071Y354577D01*
X445072Y354577D02*
X445072Y359798D01*
X445071Y359798D02*
X445069Y359887D01*
X445063Y359975D01*
X445054Y360063D01*
X445041Y360151D01*
X445024Y360238D01*
X445004Y360324D01*
X444979Y360409D01*
X444952Y360494D01*
X444920Y360577D01*
X444886Y360658D01*
X444847Y360738D01*
X444806Y360816D01*
X444761Y360893D01*
X444713Y360967D01*
X444662Y361040D01*
X444608Y361110D01*
X444550Y361177D01*
X444490Y361243D01*
X444428Y361305D01*
X444362Y361365D01*
X444295Y361423D01*
X444225Y361477D01*
X444152Y361528D01*
X444078Y361576D01*
X444001Y361621D01*
X443923Y361662D01*
X443843Y361701D01*
X443762Y361735D01*
X443679Y361767D01*
X443594Y361794D01*
X443509Y361819D01*
X443423Y361839D01*
X443336Y361856D01*
X443248Y361869D01*
X443160Y361878D01*
X443072Y361884D01*
X442983Y361886D01*
X442983Y361887D02*
X440895Y361887D01*
X437426Y359798D02*
X434815Y361887D01*
X434815Y352489D01*
X432205Y352489D02*
X437426Y352489D01*
D11*
X392595Y377393D02*
X392595Y397523D01*
D12*
X383904Y384556D02*
X381816Y384556D01*
X383904Y384556D02*
X383993Y384558D01*
X384081Y384564D01*
X384169Y384573D01*
X384257Y384586D01*
X384344Y384603D01*
X384430Y384623D01*
X384515Y384648D01*
X384600Y384675D01*
X384683Y384707D01*
X384764Y384741D01*
X384844Y384780D01*
X384922Y384821D01*
X384999Y384866D01*
X385073Y384914D01*
X385146Y384965D01*
X385216Y385019D01*
X385283Y385077D01*
X385349Y385137D01*
X385411Y385199D01*
X385471Y385265D01*
X385529Y385332D01*
X385583Y385402D01*
X385634Y385475D01*
X385682Y385549D01*
X385727Y385626D01*
X385768Y385704D01*
X385807Y385784D01*
X385841Y385865D01*
X385873Y385948D01*
X385900Y386033D01*
X385925Y386118D01*
X385945Y386204D01*
X385962Y386291D01*
X385975Y386379D01*
X385984Y386467D01*
X385990Y386555D01*
X385992Y386644D01*
X385993Y386644D02*
X385993Y391866D01*
X385992Y391866D02*
X385990Y391955D01*
X385984Y392043D01*
X385975Y392131D01*
X385962Y392219D01*
X385945Y392306D01*
X385925Y392392D01*
X385900Y392477D01*
X385873Y392562D01*
X385841Y392645D01*
X385807Y392726D01*
X385768Y392806D01*
X385727Y392884D01*
X385682Y392961D01*
X385634Y393035D01*
X385583Y393108D01*
X385529Y393178D01*
X385471Y393245D01*
X385411Y393311D01*
X385349Y393373D01*
X385283Y393433D01*
X385216Y393491D01*
X385146Y393545D01*
X385073Y393596D01*
X384999Y393644D01*
X384922Y393689D01*
X384844Y393730D01*
X384764Y393769D01*
X384683Y393803D01*
X384600Y393835D01*
X384515Y393862D01*
X384430Y393887D01*
X384344Y393907D01*
X384257Y393924D01*
X384169Y393937D01*
X384081Y393946D01*
X383993Y393952D01*
X383904Y393954D01*
X381816Y393954D01*
X378347Y384556D02*
X375737Y384556D01*
X375636Y384558D01*
X375535Y384564D01*
X375434Y384574D01*
X375334Y384587D01*
X375234Y384605D01*
X375135Y384626D01*
X375037Y384652D01*
X374940Y384681D01*
X374844Y384713D01*
X374750Y384750D01*
X374657Y384790D01*
X374565Y384834D01*
X374476Y384881D01*
X374388Y384932D01*
X374302Y384986D01*
X374219Y385043D01*
X374137Y385103D01*
X374059Y385167D01*
X373982Y385233D01*
X373909Y385303D01*
X373838Y385375D01*
X373770Y385450D01*
X373705Y385528D01*
X373643Y385608D01*
X373584Y385690D01*
X373528Y385775D01*
X373476Y385862D01*
X373427Y385950D01*
X373381Y386041D01*
X373340Y386133D01*
X373301Y386227D01*
X373267Y386322D01*
X373236Y386418D01*
X373209Y386516D01*
X373185Y386614D01*
X373166Y386714D01*
X373150Y386814D01*
X373138Y386914D01*
X373130Y387015D01*
X373126Y387116D01*
X373126Y387218D01*
X373130Y387319D01*
X373138Y387420D01*
X373150Y387520D01*
X373166Y387620D01*
X373185Y387720D01*
X373209Y387818D01*
X373236Y387916D01*
X373267Y388012D01*
X373301Y388107D01*
X373340Y388201D01*
X373381Y388293D01*
X373427Y388384D01*
X373476Y388473D01*
X373528Y388559D01*
X373584Y388644D01*
X373643Y388726D01*
X373705Y388806D01*
X373770Y388884D01*
X373838Y388959D01*
X373909Y389031D01*
X373982Y389101D01*
X374059Y389167D01*
X374137Y389231D01*
X374219Y389291D01*
X374302Y389348D01*
X374388Y389402D01*
X374476Y389453D01*
X374565Y389500D01*
X374657Y389544D01*
X374750Y389584D01*
X374844Y389621D01*
X374940Y389653D01*
X375037Y389682D01*
X375135Y389708D01*
X375234Y389729D01*
X375334Y389747D01*
X375434Y389760D01*
X375535Y389770D01*
X375636Y389776D01*
X375737Y389778D01*
X375214Y393954D02*
X378347Y393954D01*
X375214Y393954D02*
X375124Y393952D01*
X375035Y393946D01*
X374945Y393937D01*
X374856Y393923D01*
X374768Y393906D01*
X374681Y393885D01*
X374594Y393860D01*
X374509Y393831D01*
X374425Y393799D01*
X374343Y393764D01*
X374262Y393724D01*
X374183Y393682D01*
X374106Y393636D01*
X374031Y393586D01*
X373958Y393534D01*
X373887Y393478D01*
X373819Y393420D01*
X373754Y393358D01*
X373691Y393294D01*
X373631Y393227D01*
X373574Y393158D01*
X373520Y393086D01*
X373469Y393012D01*
X373421Y392936D01*
X373377Y392858D01*
X373336Y392778D01*
X373298Y392696D01*
X373264Y392613D01*
X373234Y392528D01*
X373207Y392442D01*
X373184Y392356D01*
X373165Y392268D01*
X373150Y392179D01*
X373138Y392090D01*
X373130Y392001D01*
X373126Y391911D01*
X373126Y391821D01*
X373130Y391731D01*
X373138Y391642D01*
X373150Y391553D01*
X373165Y391464D01*
X373184Y391376D01*
X373207Y391290D01*
X373234Y391204D01*
X373264Y391119D01*
X373298Y391036D01*
X373336Y390954D01*
X373377Y390874D01*
X373421Y390796D01*
X373469Y390720D01*
X373520Y390646D01*
X373574Y390574D01*
X373631Y390505D01*
X373691Y390438D01*
X373754Y390374D01*
X373819Y390312D01*
X373887Y390254D01*
X373958Y390198D01*
X374031Y390146D01*
X374106Y390096D01*
X374183Y390050D01*
X374262Y390008D01*
X374343Y389968D01*
X374425Y389933D01*
X374509Y389901D01*
X374594Y389872D01*
X374681Y389847D01*
X374768Y389826D01*
X374856Y389809D01*
X374945Y389795D01*
X375035Y389786D01*
X375124Y389780D01*
X375214Y389778D01*
X375214Y389777D02*
X377303Y389777D01*
X290132Y293942D02*
X290132Y284544D01*
X290132Y293942D02*
X287521Y293942D01*
X287420Y293940D01*
X287319Y293934D01*
X287218Y293924D01*
X287118Y293911D01*
X287018Y293893D01*
X286919Y293872D01*
X286821Y293846D01*
X286724Y293817D01*
X286628Y293785D01*
X286534Y293748D01*
X286441Y293708D01*
X286349Y293664D01*
X286260Y293617D01*
X286172Y293566D01*
X286086Y293512D01*
X286003Y293455D01*
X285921Y293395D01*
X285843Y293331D01*
X285766Y293265D01*
X285693Y293195D01*
X285622Y293123D01*
X285554Y293048D01*
X285489Y292970D01*
X285427Y292890D01*
X285368Y292808D01*
X285312Y292723D01*
X285260Y292637D01*
X285211Y292548D01*
X285165Y292457D01*
X285124Y292365D01*
X285085Y292271D01*
X285051Y292176D01*
X285020Y292080D01*
X284993Y291982D01*
X284969Y291884D01*
X284950Y291784D01*
X284934Y291684D01*
X284922Y291584D01*
X284914Y291483D01*
X284910Y291382D01*
X284910Y291280D01*
X284914Y291179D01*
X284922Y291078D01*
X284934Y290978D01*
X284950Y290878D01*
X284969Y290778D01*
X284993Y290680D01*
X285020Y290582D01*
X285051Y290486D01*
X285085Y290391D01*
X285124Y290297D01*
X285165Y290205D01*
X285211Y290114D01*
X285260Y290026D01*
X285312Y289939D01*
X285368Y289854D01*
X285427Y289772D01*
X285489Y289692D01*
X285554Y289614D01*
X285622Y289539D01*
X285693Y289467D01*
X285766Y289397D01*
X285843Y289331D01*
X285921Y289267D01*
X286003Y289207D01*
X286086Y289150D01*
X286172Y289096D01*
X286260Y289045D01*
X286349Y288998D01*
X286441Y288954D01*
X286534Y288914D01*
X286628Y288877D01*
X286724Y288845D01*
X286821Y288816D01*
X286919Y288790D01*
X287018Y288769D01*
X287118Y288751D01*
X287218Y288738D01*
X287319Y288728D01*
X287420Y288722D01*
X287521Y288720D01*
X290132Y288720D01*
X286999Y288720D02*
X284910Y284544D01*
X281045Y291853D02*
X278434Y293942D01*
X278434Y284544D01*
X275824Y284544D02*
X281045Y284544D01*
D13*
X401003Y314008D02*
X401003Y349568D01*
X401003Y314008D02*
X421323Y314008D01*
X421323Y349568D01*
X401003Y349568D01*
D12*
X424879Y322869D02*
X434277Y329135D01*
X434277Y322869D02*
X424879Y329135D01*
X432188Y332535D02*
X434277Y335146D01*
X424879Y335146D01*
X424879Y332535D02*
X424879Y337757D01*
X470422Y359156D02*
X472511Y359156D01*
X472600Y359158D01*
X472688Y359164D01*
X472776Y359173D01*
X472864Y359186D01*
X472951Y359203D01*
X473037Y359223D01*
X473122Y359248D01*
X473207Y359275D01*
X473290Y359307D01*
X473371Y359341D01*
X473451Y359380D01*
X473529Y359421D01*
X473606Y359466D01*
X473680Y359514D01*
X473753Y359565D01*
X473823Y359619D01*
X473890Y359677D01*
X473956Y359737D01*
X474018Y359799D01*
X474078Y359865D01*
X474136Y359932D01*
X474190Y360002D01*
X474241Y360075D01*
X474289Y360149D01*
X474334Y360226D01*
X474375Y360304D01*
X474414Y360384D01*
X474448Y360465D01*
X474480Y360548D01*
X474507Y360633D01*
X474532Y360718D01*
X474552Y360804D01*
X474569Y360891D01*
X474582Y360979D01*
X474591Y361067D01*
X474597Y361155D01*
X474599Y361244D01*
X474599Y366466D01*
X474597Y366555D01*
X474591Y366643D01*
X474582Y366731D01*
X474569Y366819D01*
X474552Y366906D01*
X474532Y366992D01*
X474507Y367077D01*
X474480Y367162D01*
X474448Y367245D01*
X474414Y367326D01*
X474375Y367406D01*
X474334Y367484D01*
X474289Y367561D01*
X474241Y367635D01*
X474190Y367708D01*
X474136Y367778D01*
X474078Y367845D01*
X474018Y367911D01*
X473956Y367973D01*
X473890Y368033D01*
X473823Y368091D01*
X473753Y368145D01*
X473680Y368196D01*
X473606Y368244D01*
X473529Y368289D01*
X473451Y368330D01*
X473371Y368369D01*
X473290Y368403D01*
X473207Y368435D01*
X473122Y368462D01*
X473037Y368487D01*
X472951Y368507D01*
X472864Y368524D01*
X472776Y368537D01*
X472688Y368546D01*
X472600Y368552D01*
X472511Y368554D01*
X470422Y368554D01*
X464865Y368554D02*
X466953Y361244D01*
X461732Y361244D01*
X463299Y359156D02*
X463299Y363333D01*
X285814Y315390D02*
X285814Y313302D01*
X285816Y313213D01*
X285822Y313125D01*
X285831Y313037D01*
X285844Y312949D01*
X285861Y312862D01*
X285881Y312776D01*
X285906Y312691D01*
X285933Y312606D01*
X285965Y312523D01*
X285999Y312442D01*
X286038Y312362D01*
X286079Y312284D01*
X286124Y312207D01*
X286172Y312133D01*
X286223Y312060D01*
X286277Y311990D01*
X286335Y311923D01*
X286395Y311857D01*
X286457Y311795D01*
X286523Y311735D01*
X286590Y311677D01*
X286660Y311623D01*
X286733Y311572D01*
X286807Y311524D01*
X286884Y311479D01*
X286962Y311438D01*
X287042Y311399D01*
X287123Y311365D01*
X287206Y311333D01*
X287291Y311306D01*
X287376Y311281D01*
X287462Y311261D01*
X287549Y311244D01*
X287637Y311231D01*
X287725Y311222D01*
X287813Y311216D01*
X287902Y311214D01*
X293123Y311214D01*
X293214Y311216D01*
X293305Y311222D01*
X293396Y311232D01*
X293486Y311246D01*
X293575Y311263D01*
X293663Y311285D01*
X293751Y311311D01*
X293837Y311340D01*
X293922Y311373D01*
X294005Y311410D01*
X294087Y311450D01*
X294167Y311494D01*
X294245Y311541D01*
X294321Y311592D01*
X294394Y311645D01*
X294465Y311702D01*
X294534Y311763D01*
X294599Y311826D01*
X294662Y311891D01*
X294722Y311960D01*
X294780Y312031D01*
X294833Y312104D01*
X294884Y312180D01*
X294931Y312258D01*
X294975Y312338D01*
X295015Y312420D01*
X295052Y312503D01*
X295085Y312588D01*
X295114Y312674D01*
X295140Y312762D01*
X295162Y312850D01*
X295179Y312939D01*
X295193Y313029D01*
X295203Y313120D01*
X295209Y313211D01*
X295211Y313302D01*
X295212Y313302D02*
X295212Y315390D01*
X285814Y318859D02*
X285814Y321992D01*
X285816Y322081D01*
X285822Y322169D01*
X285831Y322257D01*
X285844Y322345D01*
X285861Y322432D01*
X285881Y322518D01*
X285906Y322603D01*
X285933Y322688D01*
X285965Y322771D01*
X285999Y322852D01*
X286038Y322932D01*
X286079Y323010D01*
X286124Y323087D01*
X286172Y323161D01*
X286223Y323234D01*
X286277Y323304D01*
X286335Y323371D01*
X286395Y323437D01*
X286457Y323499D01*
X286523Y323559D01*
X286590Y323617D01*
X286660Y323671D01*
X286733Y323722D01*
X286807Y323770D01*
X286884Y323815D01*
X286962Y323856D01*
X287042Y323895D01*
X287123Y323929D01*
X287206Y323961D01*
X287291Y323988D01*
X287376Y324013D01*
X287462Y324033D01*
X287549Y324050D01*
X287637Y324063D01*
X287725Y324072D01*
X287813Y324078D01*
X287902Y324080D01*
X288946Y324080D01*
X289035Y324078D01*
X289123Y324072D01*
X289211Y324063D01*
X289299Y324050D01*
X289386Y324033D01*
X289472Y324013D01*
X289557Y323988D01*
X289642Y323961D01*
X289725Y323929D01*
X289806Y323895D01*
X289886Y323856D01*
X289964Y323815D01*
X290041Y323770D01*
X290115Y323722D01*
X290188Y323671D01*
X290258Y323617D01*
X290325Y323559D01*
X290391Y323499D01*
X290453Y323437D01*
X290513Y323371D01*
X290571Y323304D01*
X290625Y323234D01*
X290676Y323161D01*
X290724Y323087D01*
X290769Y323010D01*
X290810Y322932D01*
X290849Y322852D01*
X290883Y322771D01*
X290915Y322688D01*
X290942Y322603D01*
X290967Y322518D01*
X290987Y322432D01*
X291004Y322345D01*
X291017Y322257D01*
X291026Y322169D01*
X291032Y322081D01*
X291034Y321992D01*
X291035Y321992D02*
X291035Y318859D01*
X295212Y318859D01*
X295212Y324080D01*
X439942Y368681D02*
X442031Y368681D01*
X442120Y368683D01*
X442208Y368689D01*
X442296Y368698D01*
X442384Y368711D01*
X442471Y368728D01*
X442557Y368748D01*
X442642Y368773D01*
X442727Y368800D01*
X442810Y368832D01*
X442891Y368866D01*
X442971Y368905D01*
X443049Y368946D01*
X443126Y368991D01*
X443200Y369039D01*
X443273Y369090D01*
X443343Y369144D01*
X443410Y369202D01*
X443476Y369262D01*
X443538Y369324D01*
X443598Y369390D01*
X443656Y369457D01*
X443710Y369527D01*
X443761Y369600D01*
X443809Y369674D01*
X443854Y369751D01*
X443895Y369829D01*
X443934Y369909D01*
X443968Y369990D01*
X444000Y370073D01*
X444027Y370158D01*
X444052Y370243D01*
X444072Y370329D01*
X444089Y370416D01*
X444102Y370504D01*
X444111Y370592D01*
X444117Y370680D01*
X444119Y370769D01*
X444119Y375991D01*
X444117Y376080D01*
X444111Y376168D01*
X444102Y376256D01*
X444089Y376344D01*
X444072Y376431D01*
X444052Y376517D01*
X444027Y376602D01*
X444000Y376687D01*
X443968Y376770D01*
X443934Y376851D01*
X443895Y376931D01*
X443854Y377009D01*
X443809Y377086D01*
X443761Y377160D01*
X443710Y377233D01*
X443656Y377303D01*
X443598Y377370D01*
X443538Y377436D01*
X443476Y377498D01*
X443410Y377558D01*
X443343Y377616D01*
X443273Y377670D01*
X443200Y377721D01*
X443126Y377769D01*
X443049Y377814D01*
X442971Y377855D01*
X442891Y377894D01*
X442810Y377928D01*
X442727Y377960D01*
X442642Y377987D01*
X442557Y378012D01*
X442471Y378032D01*
X442384Y378049D01*
X442296Y378062D01*
X442208Y378071D01*
X442120Y378077D01*
X442031Y378079D01*
X439942Y378079D01*
X436473Y378079D02*
X436473Y377035D01*
X436473Y378079D02*
X431252Y378079D01*
X433863Y368681D01*
D11*
X392595Y396443D02*
X392595Y416573D01*
D12*
X384222Y399796D02*
X382133Y399796D01*
X384222Y399796D02*
X384311Y399798D01*
X384399Y399804D01*
X384487Y399813D01*
X384575Y399826D01*
X384662Y399843D01*
X384748Y399863D01*
X384833Y399888D01*
X384918Y399915D01*
X385001Y399947D01*
X385082Y399981D01*
X385162Y400020D01*
X385240Y400061D01*
X385317Y400106D01*
X385391Y400154D01*
X385464Y400205D01*
X385534Y400259D01*
X385601Y400317D01*
X385667Y400377D01*
X385729Y400439D01*
X385789Y400505D01*
X385847Y400572D01*
X385901Y400642D01*
X385952Y400715D01*
X386000Y400789D01*
X386045Y400866D01*
X386086Y400944D01*
X386125Y401024D01*
X386159Y401105D01*
X386191Y401188D01*
X386218Y401273D01*
X386243Y401358D01*
X386263Y401444D01*
X386280Y401531D01*
X386293Y401619D01*
X386302Y401707D01*
X386308Y401795D01*
X386310Y401884D01*
X386310Y407106D01*
X386308Y407195D01*
X386302Y407283D01*
X386293Y407371D01*
X386280Y407459D01*
X386263Y407546D01*
X386243Y407632D01*
X386218Y407717D01*
X386191Y407802D01*
X386159Y407885D01*
X386125Y407966D01*
X386086Y408046D01*
X386045Y408124D01*
X386000Y408201D01*
X385952Y408275D01*
X385901Y408348D01*
X385847Y408418D01*
X385789Y408485D01*
X385729Y408551D01*
X385667Y408613D01*
X385601Y408673D01*
X385534Y408731D01*
X385464Y408785D01*
X385391Y408836D01*
X385317Y408884D01*
X385240Y408929D01*
X385162Y408970D01*
X385082Y409009D01*
X385001Y409043D01*
X384918Y409075D01*
X384833Y409102D01*
X384748Y409127D01*
X384662Y409147D01*
X384575Y409164D01*
X384487Y409177D01*
X384399Y409186D01*
X384311Y409192D01*
X384222Y409194D01*
X382133Y409194D01*
X378665Y402407D02*
X378663Y402508D01*
X378657Y402609D01*
X378647Y402710D01*
X378634Y402810D01*
X378616Y402910D01*
X378595Y403009D01*
X378569Y403107D01*
X378540Y403204D01*
X378508Y403300D01*
X378471Y403394D01*
X378431Y403487D01*
X378387Y403579D01*
X378340Y403668D01*
X378289Y403756D01*
X378235Y403842D01*
X378178Y403925D01*
X378118Y404007D01*
X378054Y404085D01*
X377988Y404162D01*
X377918Y404235D01*
X377846Y404306D01*
X377771Y404374D01*
X377693Y404439D01*
X377613Y404501D01*
X377531Y404560D01*
X377446Y404616D01*
X377360Y404668D01*
X377271Y404717D01*
X377180Y404763D01*
X377088Y404804D01*
X376994Y404843D01*
X376899Y404877D01*
X376803Y404908D01*
X376705Y404935D01*
X376607Y404959D01*
X376507Y404978D01*
X376407Y404994D01*
X376307Y405006D01*
X376206Y405014D01*
X376105Y405018D01*
X376003Y405018D01*
X375902Y405014D01*
X375801Y405006D01*
X375701Y404994D01*
X375601Y404978D01*
X375501Y404959D01*
X375403Y404935D01*
X375305Y404908D01*
X375209Y404877D01*
X375114Y404843D01*
X375020Y404804D01*
X374928Y404763D01*
X374837Y404717D01*
X374749Y404668D01*
X374662Y404616D01*
X374577Y404560D01*
X374495Y404501D01*
X374415Y404439D01*
X374337Y404374D01*
X374262Y404306D01*
X374190Y404235D01*
X374120Y404162D01*
X374054Y404085D01*
X373990Y404007D01*
X373930Y403925D01*
X373873Y403842D01*
X373819Y403756D01*
X373768Y403668D01*
X373721Y403579D01*
X373677Y403487D01*
X373637Y403394D01*
X373600Y403300D01*
X373568Y403204D01*
X373539Y403107D01*
X373513Y403009D01*
X373492Y402910D01*
X373474Y402810D01*
X373461Y402710D01*
X373451Y402609D01*
X373445Y402508D01*
X373443Y402407D01*
X373445Y402306D01*
X373451Y402205D01*
X373461Y402104D01*
X373474Y402004D01*
X373492Y401904D01*
X373513Y401805D01*
X373539Y401707D01*
X373568Y401610D01*
X373600Y401514D01*
X373637Y401420D01*
X373677Y401327D01*
X373721Y401235D01*
X373768Y401146D01*
X373819Y401058D01*
X373873Y400972D01*
X373930Y400889D01*
X373990Y400807D01*
X374054Y400729D01*
X374120Y400652D01*
X374190Y400579D01*
X374262Y400508D01*
X374337Y400440D01*
X374415Y400375D01*
X374495Y400313D01*
X374577Y400254D01*
X374662Y400198D01*
X374749Y400146D01*
X374837Y400097D01*
X374928Y400051D01*
X375020Y400010D01*
X375114Y399971D01*
X375209Y399937D01*
X375305Y399906D01*
X375403Y399879D01*
X375501Y399855D01*
X375601Y399836D01*
X375701Y399820D01*
X375801Y399808D01*
X375902Y399800D01*
X376003Y399796D01*
X376105Y399796D01*
X376206Y399800D01*
X376307Y399808D01*
X376407Y399820D01*
X376507Y399836D01*
X376607Y399855D01*
X376705Y399879D01*
X376803Y399906D01*
X376899Y399937D01*
X376994Y399971D01*
X377088Y400010D01*
X377180Y400051D01*
X377271Y400097D01*
X377359Y400146D01*
X377446Y400198D01*
X377531Y400254D01*
X377613Y400313D01*
X377693Y400375D01*
X377771Y400440D01*
X377846Y400508D01*
X377918Y400579D01*
X377988Y400652D01*
X378054Y400729D01*
X378118Y400807D01*
X378178Y400889D01*
X378235Y400972D01*
X378289Y401058D01*
X378340Y401146D01*
X378387Y401235D01*
X378431Y401327D01*
X378471Y401420D01*
X378508Y401514D01*
X378540Y401610D01*
X378569Y401707D01*
X378595Y401805D01*
X378616Y401904D01*
X378634Y402004D01*
X378647Y402104D01*
X378657Y402205D01*
X378663Y402306D01*
X378665Y402407D01*
X378142Y407106D02*
X378140Y407196D01*
X378134Y407285D01*
X378125Y407375D01*
X378111Y407464D01*
X378094Y407552D01*
X378073Y407639D01*
X378048Y407726D01*
X378019Y407811D01*
X377987Y407895D01*
X377952Y407977D01*
X377912Y408058D01*
X377870Y408137D01*
X377824Y408214D01*
X377774Y408289D01*
X377722Y408362D01*
X377666Y408433D01*
X377608Y408501D01*
X377546Y408566D01*
X377482Y408629D01*
X377415Y408689D01*
X377346Y408746D01*
X377274Y408800D01*
X377200Y408851D01*
X377124Y408899D01*
X377046Y408943D01*
X376966Y408984D01*
X376884Y409022D01*
X376801Y409056D01*
X376716Y409086D01*
X376630Y409113D01*
X376544Y409136D01*
X376456Y409155D01*
X376367Y409170D01*
X376278Y409182D01*
X376189Y409190D01*
X376099Y409194D01*
X376009Y409194D01*
X375919Y409190D01*
X375830Y409182D01*
X375741Y409170D01*
X375652Y409155D01*
X375564Y409136D01*
X375478Y409113D01*
X375392Y409086D01*
X375307Y409056D01*
X375224Y409022D01*
X375142Y408984D01*
X375062Y408943D01*
X374984Y408899D01*
X374908Y408851D01*
X374834Y408800D01*
X374762Y408746D01*
X374693Y408689D01*
X374626Y408629D01*
X374562Y408566D01*
X374500Y408501D01*
X374442Y408433D01*
X374386Y408362D01*
X374334Y408289D01*
X374284Y408214D01*
X374238Y408137D01*
X374196Y408058D01*
X374156Y407977D01*
X374121Y407895D01*
X374089Y407811D01*
X374060Y407726D01*
X374035Y407639D01*
X374014Y407552D01*
X373997Y407464D01*
X373983Y407375D01*
X373974Y407285D01*
X373968Y407196D01*
X373966Y407106D01*
X373968Y407016D01*
X373974Y406927D01*
X373983Y406837D01*
X373997Y406748D01*
X374014Y406660D01*
X374035Y406573D01*
X374060Y406486D01*
X374089Y406401D01*
X374121Y406317D01*
X374156Y406235D01*
X374196Y406154D01*
X374238Y406075D01*
X374284Y405998D01*
X374334Y405923D01*
X374386Y405850D01*
X374442Y405779D01*
X374500Y405711D01*
X374562Y405646D01*
X374626Y405583D01*
X374693Y405523D01*
X374762Y405466D01*
X374834Y405412D01*
X374908Y405361D01*
X374984Y405313D01*
X375062Y405269D01*
X375142Y405228D01*
X375224Y405190D01*
X375307Y405156D01*
X375392Y405126D01*
X375478Y405099D01*
X375564Y405076D01*
X375652Y405057D01*
X375741Y405042D01*
X375830Y405030D01*
X375919Y405022D01*
X376009Y405018D01*
X376099Y405018D01*
X376189Y405022D01*
X376278Y405030D01*
X376367Y405042D01*
X376456Y405057D01*
X376544Y405076D01*
X376630Y405099D01*
X376716Y405126D01*
X376801Y405156D01*
X376884Y405190D01*
X376966Y405228D01*
X377046Y405269D01*
X377124Y405313D01*
X377200Y405361D01*
X377274Y405412D01*
X377346Y405466D01*
X377415Y405523D01*
X377482Y405583D01*
X377546Y405646D01*
X377608Y405711D01*
X377666Y405779D01*
X377722Y405850D01*
X377774Y405923D01*
X377824Y405998D01*
X377870Y406075D01*
X377912Y406154D01*
X377952Y406235D01*
X377987Y406317D01*
X378019Y406401D01*
X378048Y406486D01*
X378073Y406573D01*
X378094Y406660D01*
X378111Y406748D01*
X378125Y406837D01*
X378134Y406927D01*
X378140Y407016D01*
X378142Y407106D01*
X241237Y369169D02*
X231839Y369169D01*
X241237Y369169D02*
X241237Y371779D01*
X241235Y371880D01*
X241229Y371981D01*
X241219Y372082D01*
X241206Y372182D01*
X241188Y372282D01*
X241167Y372381D01*
X241141Y372479D01*
X241112Y372576D01*
X241080Y372672D01*
X241043Y372766D01*
X241003Y372859D01*
X240959Y372951D01*
X240912Y373040D01*
X240861Y373128D01*
X240807Y373214D01*
X240750Y373297D01*
X240690Y373379D01*
X240626Y373457D01*
X240560Y373534D01*
X240490Y373607D01*
X240418Y373678D01*
X240343Y373746D01*
X240265Y373811D01*
X240185Y373873D01*
X240103Y373932D01*
X240018Y373988D01*
X239932Y374040D01*
X239843Y374089D01*
X239752Y374135D01*
X239660Y374176D01*
X239566Y374215D01*
X239471Y374249D01*
X239375Y374280D01*
X239277Y374307D01*
X239179Y374331D01*
X239079Y374350D01*
X238979Y374366D01*
X238879Y374378D01*
X238778Y374386D01*
X238677Y374390D01*
X238575Y374390D01*
X238474Y374386D01*
X238373Y374378D01*
X238273Y374366D01*
X238173Y374350D01*
X238073Y374331D01*
X237975Y374307D01*
X237877Y374280D01*
X237781Y374249D01*
X237686Y374215D01*
X237592Y374176D01*
X237500Y374135D01*
X237409Y374089D01*
X237321Y374040D01*
X237234Y373988D01*
X237149Y373932D01*
X237067Y373873D01*
X236987Y373811D01*
X236909Y373746D01*
X236834Y373678D01*
X236762Y373607D01*
X236692Y373534D01*
X236626Y373457D01*
X236562Y373379D01*
X236502Y373297D01*
X236445Y373214D01*
X236391Y373128D01*
X236340Y373040D01*
X236293Y372951D01*
X236249Y372859D01*
X236209Y372766D01*
X236172Y372672D01*
X236140Y372576D01*
X236111Y372479D01*
X236085Y372381D01*
X236064Y372282D01*
X236046Y372182D01*
X236033Y372082D01*
X236023Y371981D01*
X236017Y371880D01*
X236015Y371779D01*
X236015Y369169D01*
X236015Y372301D02*
X231839Y374390D01*
X238887Y383477D02*
X238982Y383475D01*
X239076Y383469D01*
X239170Y383460D01*
X239264Y383447D01*
X239357Y383430D01*
X239449Y383409D01*
X239541Y383384D01*
X239631Y383356D01*
X239720Y383324D01*
X239808Y383289D01*
X239894Y383250D01*
X239979Y383208D01*
X240062Y383162D01*
X240143Y383113D01*
X240222Y383061D01*
X240299Y383006D01*
X240373Y382947D01*
X240445Y382886D01*
X240515Y382822D01*
X240582Y382755D01*
X240646Y382685D01*
X240707Y382613D01*
X240766Y382539D01*
X240821Y382462D01*
X240873Y382383D01*
X240922Y382302D01*
X240968Y382219D01*
X241010Y382134D01*
X241049Y382048D01*
X241084Y381960D01*
X241116Y381871D01*
X241144Y381781D01*
X241169Y381689D01*
X241190Y381597D01*
X241207Y381504D01*
X241220Y381410D01*
X241229Y381316D01*
X241235Y381222D01*
X241237Y381127D01*
X241236Y381127D02*
X241234Y381019D01*
X241228Y380910D01*
X241218Y380802D01*
X241205Y380695D01*
X241187Y380588D01*
X241166Y380481D01*
X241141Y380376D01*
X241112Y380271D01*
X241080Y380168D01*
X241043Y380066D01*
X241003Y379965D01*
X240960Y379866D01*
X240913Y379768D01*
X240862Y379672D01*
X240808Y379578D01*
X240751Y379486D01*
X240690Y379396D01*
X240626Y379308D01*
X240560Y379223D01*
X240490Y379140D01*
X240417Y379060D01*
X240341Y378982D01*
X240263Y378907D01*
X240182Y378835D01*
X240098Y378766D01*
X240012Y378700D01*
X239924Y378637D01*
X239833Y378578D01*
X239741Y378521D01*
X239646Y378468D01*
X239550Y378419D01*
X239451Y378373D01*
X239352Y378330D01*
X239250Y378291D01*
X239148Y378256D01*
X237059Y382694D02*
X237128Y382763D01*
X237199Y382829D01*
X237272Y382893D01*
X237348Y382954D01*
X237427Y383012D01*
X237507Y383066D01*
X237590Y383118D01*
X237674Y383166D01*
X237760Y383212D01*
X237848Y383253D01*
X237938Y383292D01*
X238029Y383327D01*
X238121Y383358D01*
X238214Y383386D01*
X238308Y383410D01*
X238403Y383430D01*
X238499Y383447D01*
X238596Y383460D01*
X238693Y383469D01*
X238790Y383475D01*
X238887Y383477D01*
X237060Y382693D02*
X231839Y378255D01*
X231839Y383477D01*
D11*
X264681Y361467D02*
X284810Y361467D01*
D12*
X268669Y314779D02*
X268669Y312691D01*
X268671Y312602D01*
X268677Y312514D01*
X268686Y312426D01*
X268699Y312338D01*
X268716Y312251D01*
X268736Y312165D01*
X268761Y312080D01*
X268788Y311995D01*
X268820Y311912D01*
X268854Y311831D01*
X268893Y311751D01*
X268934Y311673D01*
X268979Y311596D01*
X269027Y311522D01*
X269078Y311449D01*
X269132Y311379D01*
X269190Y311312D01*
X269250Y311246D01*
X269312Y311184D01*
X269378Y311124D01*
X269445Y311066D01*
X269515Y311012D01*
X269588Y310961D01*
X269662Y310913D01*
X269739Y310868D01*
X269817Y310827D01*
X269897Y310788D01*
X269978Y310754D01*
X270061Y310722D01*
X270146Y310695D01*
X270231Y310670D01*
X270317Y310650D01*
X270404Y310633D01*
X270492Y310620D01*
X270580Y310611D01*
X270668Y310605D01*
X270757Y310603D01*
X270757Y310602D02*
X275978Y310602D01*
X275978Y310603D02*
X276069Y310605D01*
X276160Y310611D01*
X276251Y310621D01*
X276341Y310635D01*
X276430Y310652D01*
X276518Y310674D01*
X276606Y310700D01*
X276692Y310729D01*
X276777Y310762D01*
X276860Y310799D01*
X276942Y310839D01*
X277022Y310883D01*
X277100Y310930D01*
X277176Y310981D01*
X277249Y311034D01*
X277320Y311091D01*
X277389Y311152D01*
X277454Y311215D01*
X277517Y311280D01*
X277577Y311349D01*
X277635Y311420D01*
X277688Y311493D01*
X277739Y311569D01*
X277786Y311647D01*
X277830Y311727D01*
X277870Y311809D01*
X277907Y311892D01*
X277940Y311977D01*
X277969Y312063D01*
X277995Y312151D01*
X278017Y312239D01*
X278034Y312328D01*
X278048Y312418D01*
X278058Y312509D01*
X278064Y312600D01*
X278066Y312691D01*
X278067Y312691D02*
X278067Y314779D01*
X273890Y318248D02*
X273890Y321381D01*
X273889Y321381D02*
X273887Y321470D01*
X273881Y321558D01*
X273872Y321646D01*
X273859Y321734D01*
X273842Y321821D01*
X273822Y321907D01*
X273797Y321992D01*
X273770Y322077D01*
X273738Y322160D01*
X273704Y322241D01*
X273665Y322321D01*
X273624Y322399D01*
X273579Y322476D01*
X273531Y322550D01*
X273480Y322623D01*
X273426Y322693D01*
X273368Y322760D01*
X273308Y322826D01*
X273246Y322888D01*
X273180Y322948D01*
X273113Y323006D01*
X273043Y323060D01*
X272970Y323111D01*
X272896Y323159D01*
X272819Y323204D01*
X272741Y323245D01*
X272661Y323284D01*
X272580Y323318D01*
X272497Y323350D01*
X272412Y323377D01*
X272327Y323402D01*
X272241Y323422D01*
X272154Y323439D01*
X272066Y323452D01*
X271978Y323461D01*
X271890Y323467D01*
X271801Y323469D01*
X271279Y323469D01*
X271178Y323467D01*
X271077Y323461D01*
X270976Y323451D01*
X270876Y323438D01*
X270776Y323420D01*
X270677Y323399D01*
X270579Y323373D01*
X270482Y323344D01*
X270386Y323312D01*
X270292Y323275D01*
X270199Y323235D01*
X270107Y323191D01*
X270018Y323144D01*
X269930Y323093D01*
X269844Y323039D01*
X269761Y322982D01*
X269679Y322922D01*
X269601Y322858D01*
X269524Y322792D01*
X269451Y322722D01*
X269380Y322650D01*
X269312Y322575D01*
X269247Y322497D01*
X269185Y322417D01*
X269126Y322335D01*
X269070Y322250D01*
X269018Y322164D01*
X268969Y322075D01*
X268923Y321984D01*
X268882Y321892D01*
X268843Y321798D01*
X268809Y321703D01*
X268778Y321607D01*
X268751Y321509D01*
X268727Y321411D01*
X268708Y321311D01*
X268692Y321211D01*
X268680Y321111D01*
X268672Y321010D01*
X268668Y320909D01*
X268668Y320807D01*
X268672Y320706D01*
X268680Y320605D01*
X268692Y320505D01*
X268708Y320405D01*
X268727Y320305D01*
X268751Y320207D01*
X268778Y320109D01*
X268809Y320013D01*
X268843Y319918D01*
X268882Y319824D01*
X268923Y319732D01*
X268969Y319641D01*
X269018Y319553D01*
X269070Y319466D01*
X269126Y319381D01*
X269185Y319299D01*
X269247Y319219D01*
X269312Y319141D01*
X269380Y319066D01*
X269451Y318994D01*
X269524Y318924D01*
X269601Y318858D01*
X269679Y318794D01*
X269761Y318734D01*
X269844Y318677D01*
X269930Y318623D01*
X270018Y318572D01*
X270107Y318525D01*
X270199Y318481D01*
X270292Y318441D01*
X270386Y318404D01*
X270482Y318372D01*
X270579Y318343D01*
X270677Y318317D01*
X270776Y318296D01*
X270876Y318278D01*
X270976Y318265D01*
X271077Y318255D01*
X271178Y318249D01*
X271279Y318247D01*
X271279Y318248D02*
X273890Y318248D01*
X274019Y318250D01*
X274147Y318256D01*
X274275Y318266D01*
X274403Y318280D01*
X274531Y318297D01*
X274658Y318319D01*
X274784Y318345D01*
X274909Y318374D01*
X275033Y318407D01*
X275156Y318445D01*
X275278Y318485D01*
X275399Y318530D01*
X275518Y318578D01*
X275636Y318630D01*
X275752Y318686D01*
X275866Y318745D01*
X275978Y318808D01*
X276089Y318874D01*
X276197Y318943D01*
X276303Y319016D01*
X276407Y319092D01*
X276509Y319171D01*
X276608Y319253D01*
X276704Y319338D01*
X276798Y319426D01*
X276889Y319517D01*
X276977Y319611D01*
X277062Y319707D01*
X277144Y319806D01*
X277223Y319908D01*
X277299Y320012D01*
X277372Y320118D01*
X277441Y320226D01*
X277507Y320336D01*
X277570Y320449D01*
X277629Y320563D01*
X277685Y320679D01*
X277737Y320797D01*
X277785Y320916D01*
X277830Y321037D01*
X277870Y321159D01*
X277908Y321282D01*
X277941Y321406D01*
X277970Y321531D01*
X277996Y321657D01*
X278018Y321784D01*
X278035Y321912D01*
X278049Y322040D01*
X278059Y322168D01*
X278065Y322296D01*
X278067Y322425D01*
X416327Y441071D02*
X416327Y450469D01*
X413716Y450469D01*
X413615Y450467D01*
X413514Y450461D01*
X413413Y450451D01*
X413313Y450438D01*
X413213Y450420D01*
X413114Y450399D01*
X413016Y450373D01*
X412919Y450344D01*
X412823Y450312D01*
X412729Y450275D01*
X412636Y450235D01*
X412544Y450191D01*
X412455Y450144D01*
X412367Y450093D01*
X412281Y450039D01*
X412198Y449982D01*
X412116Y449922D01*
X412038Y449858D01*
X411961Y449792D01*
X411888Y449722D01*
X411817Y449650D01*
X411749Y449575D01*
X411684Y449497D01*
X411622Y449417D01*
X411563Y449335D01*
X411507Y449250D01*
X411455Y449164D01*
X411406Y449075D01*
X411360Y448984D01*
X411319Y448892D01*
X411280Y448798D01*
X411246Y448703D01*
X411215Y448607D01*
X411188Y448509D01*
X411164Y448411D01*
X411145Y448311D01*
X411129Y448211D01*
X411117Y448111D01*
X411109Y448010D01*
X411105Y447909D01*
X411105Y447807D01*
X411109Y447706D01*
X411117Y447605D01*
X411129Y447505D01*
X411145Y447405D01*
X411164Y447305D01*
X411188Y447207D01*
X411215Y447109D01*
X411246Y447013D01*
X411280Y446918D01*
X411319Y446824D01*
X411360Y446732D01*
X411406Y446641D01*
X411455Y446553D01*
X411507Y446466D01*
X411563Y446381D01*
X411622Y446299D01*
X411684Y446219D01*
X411749Y446141D01*
X411817Y446066D01*
X411888Y445994D01*
X411961Y445924D01*
X412038Y445858D01*
X412116Y445794D01*
X412198Y445734D01*
X412281Y445677D01*
X412367Y445623D01*
X412455Y445572D01*
X412544Y445525D01*
X412636Y445481D01*
X412729Y445441D01*
X412823Y445404D01*
X412919Y445372D01*
X413016Y445343D01*
X413114Y445317D01*
X413213Y445296D01*
X413313Y445278D01*
X413413Y445265D01*
X413514Y445255D01*
X413615Y445249D01*
X413716Y445247D01*
X413716Y445248D02*
X416327Y445248D01*
X413194Y445248D02*
X411105Y441071D01*
X407240Y441071D02*
X404629Y441071D01*
X404528Y441073D01*
X404427Y441079D01*
X404326Y441089D01*
X404226Y441102D01*
X404126Y441120D01*
X404027Y441141D01*
X403929Y441167D01*
X403832Y441196D01*
X403736Y441228D01*
X403642Y441265D01*
X403549Y441305D01*
X403457Y441349D01*
X403368Y441396D01*
X403280Y441447D01*
X403194Y441501D01*
X403111Y441558D01*
X403029Y441618D01*
X402951Y441682D01*
X402874Y441748D01*
X402801Y441818D01*
X402730Y441890D01*
X402662Y441965D01*
X402597Y442043D01*
X402535Y442123D01*
X402476Y442205D01*
X402420Y442290D01*
X402368Y442377D01*
X402319Y442465D01*
X402273Y442556D01*
X402232Y442648D01*
X402193Y442742D01*
X402159Y442837D01*
X402128Y442933D01*
X402101Y443031D01*
X402077Y443129D01*
X402058Y443229D01*
X402042Y443329D01*
X402030Y443429D01*
X402022Y443530D01*
X402018Y443631D01*
X402018Y443733D01*
X402022Y443834D01*
X402030Y443935D01*
X402042Y444035D01*
X402058Y444135D01*
X402077Y444235D01*
X402101Y444333D01*
X402128Y444431D01*
X402159Y444527D01*
X402193Y444622D01*
X402232Y444716D01*
X402273Y444808D01*
X402319Y444899D01*
X402368Y444988D01*
X402420Y445074D01*
X402476Y445159D01*
X402535Y445241D01*
X402597Y445321D01*
X402662Y445399D01*
X402730Y445474D01*
X402801Y445546D01*
X402874Y445616D01*
X402951Y445682D01*
X403029Y445746D01*
X403111Y445806D01*
X403194Y445863D01*
X403280Y445917D01*
X403368Y445968D01*
X403457Y446015D01*
X403549Y446059D01*
X403642Y446099D01*
X403736Y446136D01*
X403832Y446168D01*
X403929Y446197D01*
X404027Y446223D01*
X404126Y446244D01*
X404226Y446262D01*
X404326Y446275D01*
X404427Y446285D01*
X404528Y446291D01*
X404629Y446293D01*
X404107Y450469D02*
X407240Y450469D01*
X404107Y450469D02*
X404017Y450467D01*
X403928Y450461D01*
X403838Y450452D01*
X403749Y450438D01*
X403661Y450421D01*
X403574Y450400D01*
X403487Y450375D01*
X403402Y450346D01*
X403318Y450314D01*
X403236Y450279D01*
X403155Y450239D01*
X403076Y450197D01*
X402999Y450151D01*
X402924Y450101D01*
X402851Y450049D01*
X402780Y449993D01*
X402712Y449935D01*
X402647Y449873D01*
X402584Y449809D01*
X402524Y449742D01*
X402467Y449673D01*
X402413Y449601D01*
X402362Y449527D01*
X402314Y449451D01*
X402270Y449373D01*
X402229Y449293D01*
X402191Y449211D01*
X402157Y449128D01*
X402127Y449043D01*
X402100Y448957D01*
X402077Y448871D01*
X402058Y448783D01*
X402043Y448694D01*
X402031Y448605D01*
X402023Y448516D01*
X402019Y448426D01*
X402019Y448336D01*
X402023Y448246D01*
X402031Y448157D01*
X402043Y448068D01*
X402058Y447979D01*
X402077Y447891D01*
X402100Y447805D01*
X402127Y447719D01*
X402157Y447634D01*
X402191Y447551D01*
X402229Y447469D01*
X402270Y447389D01*
X402314Y447311D01*
X402362Y447235D01*
X402413Y447161D01*
X402467Y447089D01*
X402524Y447020D01*
X402584Y446953D01*
X402647Y446889D01*
X402712Y446827D01*
X402780Y446769D01*
X402851Y446713D01*
X402924Y446661D01*
X402999Y446611D01*
X403076Y446565D01*
X403155Y446523D01*
X403236Y446483D01*
X403318Y446448D01*
X403402Y446416D01*
X403487Y446387D01*
X403574Y446362D01*
X403661Y446341D01*
X403749Y446324D01*
X403838Y446310D01*
X403928Y446301D01*
X404017Y446295D01*
X404107Y446293D01*
X404107Y446292D02*
X406195Y446292D01*
D11*
X296380Y246494D02*
X296380Y226365D01*
D12*
X311355Y227394D02*
X313443Y227394D01*
X313532Y227396D01*
X313620Y227402D01*
X313708Y227411D01*
X313796Y227424D01*
X313883Y227441D01*
X313969Y227461D01*
X314054Y227486D01*
X314139Y227513D01*
X314222Y227545D01*
X314303Y227579D01*
X314383Y227618D01*
X314461Y227659D01*
X314538Y227704D01*
X314612Y227752D01*
X314685Y227803D01*
X314755Y227857D01*
X314822Y227915D01*
X314888Y227975D01*
X314950Y228037D01*
X315010Y228103D01*
X315068Y228170D01*
X315122Y228240D01*
X315173Y228313D01*
X315221Y228387D01*
X315266Y228464D01*
X315307Y228542D01*
X315346Y228622D01*
X315380Y228703D01*
X315412Y228786D01*
X315439Y228871D01*
X315464Y228956D01*
X315484Y229042D01*
X315501Y229129D01*
X315514Y229217D01*
X315523Y229305D01*
X315529Y229393D01*
X315531Y229482D01*
X315532Y229482D02*
X315532Y234703D01*
X315531Y234703D02*
X315529Y234792D01*
X315523Y234880D01*
X315514Y234968D01*
X315501Y235056D01*
X315484Y235143D01*
X315464Y235229D01*
X315439Y235314D01*
X315412Y235399D01*
X315380Y235482D01*
X315346Y235563D01*
X315307Y235643D01*
X315266Y235721D01*
X315221Y235798D01*
X315173Y235872D01*
X315122Y235945D01*
X315068Y236015D01*
X315010Y236082D01*
X314950Y236148D01*
X314888Y236210D01*
X314822Y236270D01*
X314755Y236328D01*
X314685Y236382D01*
X314612Y236433D01*
X314538Y236481D01*
X314461Y236526D01*
X314383Y236567D01*
X314303Y236606D01*
X314222Y236640D01*
X314139Y236672D01*
X314054Y236699D01*
X313969Y236724D01*
X313883Y236744D01*
X313796Y236761D01*
X313708Y236774D01*
X313620Y236783D01*
X313532Y236789D01*
X313443Y236791D01*
X313443Y236792D02*
X311355Y236792D01*
X305797Y231570D02*
X302665Y231570D01*
X305797Y231571D02*
X305886Y231573D01*
X305974Y231579D01*
X306062Y231588D01*
X306150Y231601D01*
X306237Y231618D01*
X306323Y231638D01*
X306408Y231663D01*
X306493Y231690D01*
X306576Y231722D01*
X306657Y231756D01*
X306737Y231795D01*
X306815Y231836D01*
X306892Y231881D01*
X306966Y231929D01*
X307039Y231980D01*
X307109Y232034D01*
X307176Y232092D01*
X307242Y232152D01*
X307304Y232214D01*
X307364Y232280D01*
X307422Y232347D01*
X307476Y232417D01*
X307527Y232490D01*
X307575Y232564D01*
X307620Y232641D01*
X307661Y232719D01*
X307700Y232799D01*
X307734Y232880D01*
X307766Y232963D01*
X307793Y233048D01*
X307818Y233133D01*
X307838Y233219D01*
X307855Y233306D01*
X307868Y233394D01*
X307877Y233482D01*
X307883Y233570D01*
X307885Y233659D01*
X307886Y233659D02*
X307886Y234181D01*
X307884Y234282D01*
X307878Y234383D01*
X307868Y234484D01*
X307855Y234584D01*
X307837Y234684D01*
X307816Y234783D01*
X307790Y234881D01*
X307761Y234978D01*
X307729Y235074D01*
X307692Y235168D01*
X307652Y235261D01*
X307608Y235353D01*
X307561Y235442D01*
X307510Y235530D01*
X307456Y235616D01*
X307399Y235699D01*
X307339Y235781D01*
X307275Y235859D01*
X307209Y235936D01*
X307139Y236009D01*
X307067Y236080D01*
X306992Y236148D01*
X306914Y236213D01*
X306834Y236275D01*
X306752Y236334D01*
X306667Y236390D01*
X306581Y236442D01*
X306492Y236491D01*
X306401Y236537D01*
X306309Y236578D01*
X306215Y236617D01*
X306120Y236651D01*
X306024Y236682D01*
X305926Y236709D01*
X305828Y236733D01*
X305728Y236752D01*
X305628Y236768D01*
X305528Y236780D01*
X305427Y236788D01*
X305326Y236792D01*
X305224Y236792D01*
X305123Y236788D01*
X305022Y236780D01*
X304922Y236768D01*
X304822Y236752D01*
X304722Y236733D01*
X304624Y236709D01*
X304526Y236682D01*
X304430Y236651D01*
X304335Y236617D01*
X304241Y236578D01*
X304149Y236537D01*
X304058Y236491D01*
X303970Y236442D01*
X303883Y236390D01*
X303798Y236334D01*
X303716Y236275D01*
X303636Y236213D01*
X303558Y236148D01*
X303483Y236080D01*
X303411Y236009D01*
X303341Y235936D01*
X303275Y235859D01*
X303211Y235781D01*
X303151Y235699D01*
X303094Y235616D01*
X303040Y235530D01*
X302989Y235442D01*
X302942Y235353D01*
X302898Y235261D01*
X302858Y235168D01*
X302821Y235074D01*
X302789Y234978D01*
X302760Y234881D01*
X302734Y234783D01*
X302713Y234684D01*
X302695Y234584D01*
X302682Y234484D01*
X302672Y234383D01*
X302666Y234282D01*
X302664Y234181D01*
X302665Y234181D02*
X302665Y231570D01*
X302667Y231444D01*
X302673Y231318D01*
X302682Y231192D01*
X302695Y231067D01*
X302713Y230942D01*
X302733Y230817D01*
X302758Y230693D01*
X302786Y230570D01*
X302818Y230448D01*
X302854Y230327D01*
X302893Y230207D01*
X302936Y230089D01*
X302983Y229972D01*
X303033Y229856D01*
X303087Y229741D01*
X303143Y229629D01*
X303204Y229518D01*
X303267Y229409D01*
X303334Y229302D01*
X303404Y229197D01*
X303478Y229094D01*
X303554Y228994D01*
X303633Y228896D01*
X303715Y228800D01*
X303801Y228707D01*
X303888Y228616D01*
X303979Y228529D01*
X304072Y228443D01*
X304168Y228361D01*
X304266Y228282D01*
X304366Y228206D01*
X304469Y228132D01*
X304574Y228062D01*
X304681Y227995D01*
X304790Y227932D01*
X304901Y227871D01*
X305013Y227815D01*
X305128Y227761D01*
X305244Y227711D01*
X305361Y227664D01*
X305479Y227621D01*
X305599Y227582D01*
X305720Y227546D01*
X305842Y227514D01*
X305965Y227486D01*
X306089Y227461D01*
X306214Y227441D01*
X306339Y227423D01*
X306464Y227410D01*
X306590Y227401D01*
X306716Y227395D01*
X306842Y227393D01*
X333756Y240094D02*
X343154Y240094D01*
X343154Y242704D01*
X343152Y242805D01*
X343146Y242906D01*
X343136Y243007D01*
X343123Y243107D01*
X343105Y243207D01*
X343084Y243306D01*
X343058Y243404D01*
X343029Y243501D01*
X342997Y243597D01*
X342960Y243691D01*
X342920Y243784D01*
X342876Y243876D01*
X342829Y243965D01*
X342778Y244053D01*
X342724Y244139D01*
X342667Y244222D01*
X342607Y244304D01*
X342543Y244382D01*
X342477Y244459D01*
X342407Y244532D01*
X342335Y244603D01*
X342260Y244671D01*
X342182Y244736D01*
X342102Y244798D01*
X342020Y244857D01*
X341935Y244913D01*
X341849Y244965D01*
X341760Y245014D01*
X341669Y245060D01*
X341577Y245101D01*
X341483Y245140D01*
X341388Y245174D01*
X341292Y245205D01*
X341194Y245232D01*
X341096Y245256D01*
X340996Y245275D01*
X340896Y245291D01*
X340796Y245303D01*
X340695Y245311D01*
X340594Y245315D01*
X340492Y245315D01*
X340391Y245311D01*
X340290Y245303D01*
X340190Y245291D01*
X340090Y245275D01*
X339990Y245256D01*
X339892Y245232D01*
X339794Y245205D01*
X339698Y245174D01*
X339603Y245140D01*
X339509Y245101D01*
X339417Y245060D01*
X339326Y245014D01*
X339238Y244965D01*
X339151Y244913D01*
X339066Y244857D01*
X338984Y244798D01*
X338904Y244736D01*
X338826Y244671D01*
X338751Y244603D01*
X338679Y244532D01*
X338609Y244459D01*
X338543Y244382D01*
X338479Y244304D01*
X338419Y244222D01*
X338362Y244139D01*
X338308Y244053D01*
X338257Y243965D01*
X338210Y243876D01*
X338166Y243784D01*
X338126Y243691D01*
X338089Y243597D01*
X338057Y243501D01*
X338028Y243404D01*
X338002Y243306D01*
X337981Y243207D01*
X337963Y243107D01*
X337950Y243007D01*
X337940Y242906D01*
X337934Y242805D01*
X337932Y242704D01*
X337933Y242704D02*
X337933Y240094D01*
X337933Y243226D02*
X333756Y245315D01*
X337933Y251269D02*
X337933Y254402D01*
X337933Y251269D02*
X337935Y251180D01*
X337941Y251092D01*
X337950Y251004D01*
X337963Y250916D01*
X337980Y250829D01*
X338000Y250743D01*
X338025Y250658D01*
X338052Y250573D01*
X338084Y250490D01*
X338118Y250409D01*
X338157Y250329D01*
X338198Y250251D01*
X338243Y250174D01*
X338291Y250100D01*
X338342Y250027D01*
X338396Y249957D01*
X338454Y249890D01*
X338514Y249824D01*
X338576Y249762D01*
X338642Y249702D01*
X338709Y249644D01*
X338779Y249590D01*
X338852Y249539D01*
X338926Y249491D01*
X339003Y249446D01*
X339081Y249405D01*
X339161Y249366D01*
X339242Y249332D01*
X339325Y249300D01*
X339410Y249273D01*
X339495Y249248D01*
X339581Y249228D01*
X339668Y249211D01*
X339756Y249198D01*
X339844Y249189D01*
X339932Y249183D01*
X340021Y249181D01*
X340021Y249180D02*
X340543Y249180D01*
X340644Y249182D01*
X340745Y249188D01*
X340846Y249198D01*
X340946Y249211D01*
X341046Y249229D01*
X341145Y249250D01*
X341243Y249276D01*
X341340Y249305D01*
X341436Y249337D01*
X341530Y249374D01*
X341623Y249414D01*
X341715Y249458D01*
X341804Y249505D01*
X341892Y249556D01*
X341978Y249610D01*
X342061Y249667D01*
X342143Y249727D01*
X342221Y249791D01*
X342298Y249857D01*
X342371Y249927D01*
X342442Y249999D01*
X342510Y250074D01*
X342575Y250152D01*
X342637Y250232D01*
X342696Y250314D01*
X342752Y250399D01*
X342804Y250485D01*
X342853Y250574D01*
X342899Y250665D01*
X342940Y250757D01*
X342979Y250851D01*
X343013Y250946D01*
X343044Y251042D01*
X343071Y251140D01*
X343095Y251238D01*
X343114Y251338D01*
X343130Y251438D01*
X343142Y251538D01*
X343150Y251639D01*
X343154Y251740D01*
X343154Y251842D01*
X343150Y251943D01*
X343142Y252044D01*
X343130Y252144D01*
X343114Y252244D01*
X343095Y252344D01*
X343071Y252442D01*
X343044Y252540D01*
X343013Y252636D01*
X342979Y252731D01*
X342940Y252825D01*
X342899Y252917D01*
X342853Y253008D01*
X342804Y253096D01*
X342752Y253183D01*
X342696Y253268D01*
X342637Y253350D01*
X342575Y253430D01*
X342510Y253508D01*
X342442Y253583D01*
X342371Y253655D01*
X342298Y253725D01*
X342221Y253791D01*
X342143Y253855D01*
X342061Y253915D01*
X341978Y253972D01*
X341892Y254026D01*
X341804Y254077D01*
X341715Y254124D01*
X341623Y254168D01*
X341530Y254208D01*
X341436Y254245D01*
X341340Y254277D01*
X341243Y254306D01*
X341145Y254332D01*
X341046Y254353D01*
X340946Y254371D01*
X340846Y254384D01*
X340745Y254394D01*
X340644Y254400D01*
X340543Y254402D01*
X337933Y254402D01*
X337807Y254400D01*
X337681Y254394D01*
X337555Y254385D01*
X337430Y254372D01*
X337305Y254354D01*
X337180Y254334D01*
X337056Y254309D01*
X336933Y254281D01*
X336811Y254249D01*
X336690Y254213D01*
X336570Y254174D01*
X336452Y254131D01*
X336335Y254084D01*
X336219Y254034D01*
X336104Y253980D01*
X335992Y253924D01*
X335881Y253863D01*
X335772Y253800D01*
X335665Y253733D01*
X335560Y253663D01*
X335457Y253589D01*
X335357Y253513D01*
X335259Y253434D01*
X335163Y253352D01*
X335070Y253266D01*
X334979Y253179D01*
X334892Y253088D01*
X334806Y252995D01*
X334724Y252899D01*
X334645Y252801D01*
X334569Y252701D01*
X334495Y252598D01*
X334425Y252493D01*
X334358Y252386D01*
X334295Y252277D01*
X334234Y252166D01*
X334178Y252054D01*
X334124Y251939D01*
X334074Y251823D01*
X334027Y251706D01*
X333984Y251588D01*
X333945Y251468D01*
X333909Y251347D01*
X333877Y251225D01*
X333849Y251102D01*
X333824Y250978D01*
X333804Y250853D01*
X333786Y250728D01*
X333773Y250603D01*
X333764Y250477D01*
X333758Y250351D01*
X333756Y250225D01*
X312403Y263271D02*
X310315Y263271D01*
X312403Y263271D02*
X312492Y263273D01*
X312580Y263279D01*
X312668Y263288D01*
X312756Y263301D01*
X312843Y263318D01*
X312929Y263338D01*
X313014Y263363D01*
X313099Y263390D01*
X313182Y263422D01*
X313263Y263456D01*
X313343Y263495D01*
X313421Y263536D01*
X313498Y263581D01*
X313572Y263629D01*
X313645Y263680D01*
X313715Y263734D01*
X313782Y263792D01*
X313848Y263852D01*
X313910Y263914D01*
X313970Y263980D01*
X314028Y264047D01*
X314082Y264117D01*
X314133Y264190D01*
X314181Y264264D01*
X314226Y264341D01*
X314267Y264419D01*
X314306Y264499D01*
X314340Y264580D01*
X314372Y264663D01*
X314399Y264748D01*
X314424Y264833D01*
X314444Y264919D01*
X314461Y265006D01*
X314474Y265094D01*
X314483Y265182D01*
X314489Y265270D01*
X314491Y265359D01*
X314492Y265359D02*
X314492Y270581D01*
X314491Y270581D02*
X314489Y270670D01*
X314483Y270758D01*
X314474Y270846D01*
X314461Y270934D01*
X314444Y271021D01*
X314424Y271107D01*
X314399Y271192D01*
X314372Y271277D01*
X314340Y271360D01*
X314306Y271441D01*
X314267Y271521D01*
X314226Y271599D01*
X314181Y271676D01*
X314133Y271750D01*
X314082Y271823D01*
X314028Y271893D01*
X313970Y271960D01*
X313910Y272026D01*
X313848Y272088D01*
X313782Y272148D01*
X313715Y272206D01*
X313645Y272260D01*
X313572Y272311D01*
X313498Y272359D01*
X313421Y272404D01*
X313343Y272445D01*
X313263Y272484D01*
X313182Y272518D01*
X313099Y272550D01*
X313014Y272577D01*
X312929Y272602D01*
X312843Y272622D01*
X312756Y272639D01*
X312668Y272652D01*
X312580Y272661D01*
X312492Y272667D01*
X312403Y272669D01*
X310315Y272669D01*
X306846Y270581D02*
X304236Y272669D01*
X304236Y263271D01*
X306846Y263271D02*
X301625Y263271D01*
X297702Y265359D02*
X295614Y272669D01*
X297702Y265359D02*
X292481Y265359D01*
X294047Y267448D02*
X294047Y263271D01*
X310315Y248984D02*
X312403Y248984D01*
X312492Y248986D01*
X312580Y248992D01*
X312668Y249001D01*
X312756Y249014D01*
X312843Y249031D01*
X312929Y249051D01*
X313014Y249076D01*
X313099Y249103D01*
X313182Y249135D01*
X313263Y249169D01*
X313343Y249208D01*
X313421Y249249D01*
X313498Y249294D01*
X313572Y249342D01*
X313645Y249393D01*
X313715Y249447D01*
X313782Y249505D01*
X313848Y249565D01*
X313910Y249627D01*
X313970Y249693D01*
X314028Y249760D01*
X314082Y249830D01*
X314133Y249903D01*
X314181Y249977D01*
X314226Y250054D01*
X314267Y250132D01*
X314306Y250212D01*
X314340Y250293D01*
X314372Y250376D01*
X314399Y250461D01*
X314424Y250546D01*
X314444Y250632D01*
X314461Y250719D01*
X314474Y250807D01*
X314483Y250895D01*
X314489Y250983D01*
X314491Y251072D01*
X314492Y251072D02*
X314492Y256293D01*
X314491Y256293D02*
X314489Y256382D01*
X314483Y256470D01*
X314474Y256558D01*
X314461Y256646D01*
X314444Y256733D01*
X314424Y256819D01*
X314399Y256904D01*
X314372Y256989D01*
X314340Y257072D01*
X314306Y257153D01*
X314267Y257233D01*
X314226Y257311D01*
X314181Y257388D01*
X314133Y257462D01*
X314082Y257535D01*
X314028Y257605D01*
X313970Y257672D01*
X313910Y257738D01*
X313848Y257800D01*
X313782Y257860D01*
X313715Y257918D01*
X313645Y257972D01*
X313572Y258023D01*
X313498Y258071D01*
X313421Y258116D01*
X313343Y258157D01*
X313263Y258196D01*
X313182Y258230D01*
X313099Y258262D01*
X313014Y258289D01*
X312929Y258314D01*
X312843Y258334D01*
X312756Y258351D01*
X312668Y258364D01*
X312580Y258373D01*
X312492Y258379D01*
X312403Y258381D01*
X312403Y258382D02*
X310315Y258382D01*
X306846Y256293D02*
X304236Y258382D01*
X304236Y248984D01*
X306846Y248984D02*
X301625Y248984D01*
X297702Y248984D02*
X294569Y248984D01*
X294480Y248986D01*
X294392Y248992D01*
X294304Y249001D01*
X294216Y249014D01*
X294129Y249031D01*
X294043Y249051D01*
X293958Y249076D01*
X293873Y249103D01*
X293790Y249135D01*
X293709Y249169D01*
X293629Y249208D01*
X293551Y249249D01*
X293474Y249294D01*
X293400Y249342D01*
X293327Y249393D01*
X293257Y249447D01*
X293190Y249505D01*
X293124Y249565D01*
X293062Y249627D01*
X293002Y249693D01*
X292944Y249760D01*
X292890Y249830D01*
X292839Y249903D01*
X292791Y249977D01*
X292746Y250054D01*
X292705Y250132D01*
X292666Y250212D01*
X292632Y250293D01*
X292600Y250376D01*
X292573Y250461D01*
X292548Y250546D01*
X292528Y250632D01*
X292511Y250719D01*
X292498Y250807D01*
X292489Y250895D01*
X292483Y250983D01*
X292481Y251072D01*
X292481Y252116D01*
X292483Y252205D01*
X292489Y252293D01*
X292498Y252381D01*
X292511Y252469D01*
X292528Y252556D01*
X292548Y252642D01*
X292573Y252727D01*
X292600Y252812D01*
X292632Y252895D01*
X292666Y252976D01*
X292705Y253056D01*
X292746Y253134D01*
X292791Y253211D01*
X292839Y253285D01*
X292890Y253358D01*
X292944Y253428D01*
X293002Y253495D01*
X293062Y253561D01*
X293124Y253623D01*
X293190Y253683D01*
X293257Y253741D01*
X293327Y253795D01*
X293400Y253846D01*
X293474Y253894D01*
X293551Y253939D01*
X293629Y253980D01*
X293709Y254019D01*
X293790Y254053D01*
X293873Y254085D01*
X293958Y254112D01*
X294043Y254137D01*
X294129Y254157D01*
X294216Y254174D01*
X294304Y254187D01*
X294392Y254196D01*
X294480Y254202D01*
X294569Y254204D01*
X294569Y254205D02*
X297702Y254205D01*
X297702Y258382D01*
X292481Y258382D01*
D11*
X379767Y304483D02*
X384493Y304483D01*
X310833Y304483D02*
X310833Y309209D01*
X310833Y378143D02*
X315559Y378143D01*
X384493Y378143D02*
X384493Y373417D01*
X384493Y309209D02*
X384493Y304483D01*
X315559Y304483D02*
X310833Y304483D01*
X310833Y373417D02*
X310833Y378143D01*
X379767Y378143D02*
X384493Y378143D01*
D12*
X392831Y370671D02*
X392831Y366692D01*
X390510Y363708D01*
X392831Y366692D02*
X395152Y363708D01*
X392831Y366692D02*
X389183Y368019D01*
X392831Y366692D02*
X396479Y368019D01*
M02*
