G04 EAGLE Gerber RS-274X export*
G75*
%MOMM*%
%FSLAX34Y34*%
%LPD*%
%INSolderpaste Bottom*%
%IPPOS*%
%AMOC8*
5,1,8,0,0,1.08239X$1,22.5*%
G01*
%ADD10R,1.100000X1.000000*%
%ADD11R,1.300000X1.500000*%
%ADD12R,1.000000X1.100000*%
%ADD13R,1.399997X0.400000*%
%ADD14R,1.500000X1.300000*%
%ADD15C,0.002538*%
%ADD16R,0.812800X0.254000*%
%ADD17R,0.254000X0.812800*%

G36*
X332441Y356411D02*
X332441Y356411D01*
X332443Y356410D01*
X332486Y356430D01*
X332529Y356449D01*
X332530Y356451D01*
X332532Y356452D01*
X332565Y356537D01*
X332565Y368761D01*
X332564Y368763D01*
X332565Y368765D01*
X332545Y368808D01*
X332526Y368851D01*
X332524Y368852D01*
X332523Y368854D01*
X332439Y368887D01*
X320215Y368887D01*
X320213Y368886D01*
X320210Y368887D01*
X320167Y368867D01*
X320124Y368848D01*
X320123Y368846D01*
X320121Y368845D01*
X320088Y368761D01*
X320088Y356537D01*
X320089Y356535D01*
X320088Y356532D01*
X320108Y356489D01*
X320127Y356446D01*
X320129Y356445D01*
X320130Y356443D01*
X320215Y356410D01*
X332439Y356410D01*
X332441Y356411D01*
G37*
G36*
X360889Y356411D02*
X360889Y356411D01*
X360891Y356410D01*
X360934Y356430D01*
X360977Y356449D01*
X360978Y356451D01*
X360980Y356452D01*
X361013Y356537D01*
X361013Y368761D01*
X361012Y368763D01*
X361013Y368765D01*
X360993Y368808D01*
X360974Y368851D01*
X360972Y368852D01*
X360971Y368854D01*
X360887Y368887D01*
X348663Y368887D01*
X348661Y368886D01*
X348658Y368887D01*
X348615Y368867D01*
X348572Y368848D01*
X348571Y368846D01*
X348569Y368845D01*
X348536Y368761D01*
X348536Y356537D01*
X348537Y356535D01*
X348536Y356532D01*
X348556Y356489D01*
X348575Y356446D01*
X348577Y356445D01*
X348578Y356443D01*
X348663Y356410D01*
X360887Y356410D01*
X360889Y356411D01*
G37*
G36*
X346665Y356411D02*
X346665Y356411D01*
X346667Y356410D01*
X346710Y356430D01*
X346753Y356449D01*
X346754Y356451D01*
X346756Y356452D01*
X346789Y356537D01*
X346789Y368761D01*
X346788Y368763D01*
X346789Y368765D01*
X346769Y368808D01*
X346750Y368851D01*
X346748Y368852D01*
X346747Y368854D01*
X346663Y368887D01*
X334439Y368887D01*
X334437Y368886D01*
X334434Y368887D01*
X334391Y368867D01*
X334348Y368848D01*
X334347Y368846D01*
X334345Y368845D01*
X334312Y368761D01*
X334312Y356537D01*
X334313Y356535D01*
X334312Y356532D01*
X334332Y356489D01*
X334351Y356446D01*
X334353Y356445D01*
X334354Y356443D01*
X334439Y356410D01*
X346663Y356410D01*
X346665Y356411D01*
G37*
G36*
X375113Y356411D02*
X375113Y356411D01*
X375115Y356410D01*
X375158Y356430D01*
X375201Y356449D01*
X375202Y356451D01*
X375204Y356452D01*
X375237Y356537D01*
X375237Y368761D01*
X375236Y368763D01*
X375237Y368765D01*
X375217Y368808D01*
X375198Y368851D01*
X375196Y368852D01*
X375195Y368854D01*
X375111Y368887D01*
X362887Y368887D01*
X362885Y368886D01*
X362882Y368887D01*
X362839Y368867D01*
X362796Y368848D01*
X362795Y368846D01*
X362793Y368845D01*
X362760Y368761D01*
X362760Y356537D01*
X362761Y356535D01*
X362760Y356532D01*
X362780Y356489D01*
X362799Y356446D01*
X362801Y356445D01*
X362802Y356443D01*
X362887Y356410D01*
X375111Y356410D01*
X375113Y356411D01*
G37*
G36*
X360889Y342187D02*
X360889Y342187D01*
X360891Y342186D01*
X360934Y342206D01*
X360977Y342225D01*
X360978Y342227D01*
X360980Y342228D01*
X361013Y342313D01*
X361013Y354537D01*
X361012Y354539D01*
X361013Y354541D01*
X360993Y354584D01*
X360974Y354627D01*
X360972Y354628D01*
X360971Y354630D01*
X360887Y354663D01*
X348663Y354663D01*
X348661Y354662D01*
X348658Y354663D01*
X348615Y354643D01*
X348572Y354624D01*
X348571Y354622D01*
X348569Y354621D01*
X348536Y354537D01*
X348536Y342313D01*
X348537Y342311D01*
X348536Y342308D01*
X348556Y342265D01*
X348575Y342222D01*
X348577Y342221D01*
X348578Y342219D01*
X348663Y342186D01*
X360887Y342186D01*
X360889Y342187D01*
G37*
G36*
X332441Y342187D02*
X332441Y342187D01*
X332443Y342186D01*
X332486Y342206D01*
X332529Y342225D01*
X332530Y342227D01*
X332532Y342228D01*
X332565Y342313D01*
X332565Y354537D01*
X332564Y354539D01*
X332565Y354541D01*
X332545Y354584D01*
X332526Y354627D01*
X332524Y354628D01*
X332523Y354630D01*
X332439Y354663D01*
X320215Y354663D01*
X320213Y354662D01*
X320210Y354663D01*
X320167Y354643D01*
X320124Y354624D01*
X320123Y354622D01*
X320121Y354621D01*
X320088Y354537D01*
X320088Y342313D01*
X320089Y342311D01*
X320088Y342308D01*
X320108Y342265D01*
X320127Y342222D01*
X320129Y342221D01*
X320130Y342219D01*
X320215Y342186D01*
X332439Y342186D01*
X332441Y342187D01*
G37*
G36*
X346665Y342187D02*
X346665Y342187D01*
X346667Y342186D01*
X346710Y342206D01*
X346753Y342225D01*
X346754Y342227D01*
X346756Y342228D01*
X346789Y342313D01*
X346789Y354537D01*
X346788Y354539D01*
X346789Y354541D01*
X346769Y354584D01*
X346750Y354627D01*
X346748Y354628D01*
X346747Y354630D01*
X346663Y354663D01*
X334439Y354663D01*
X334437Y354662D01*
X334434Y354663D01*
X334391Y354643D01*
X334348Y354624D01*
X334347Y354622D01*
X334345Y354621D01*
X334312Y354537D01*
X334312Y342313D01*
X334313Y342311D01*
X334312Y342308D01*
X334332Y342265D01*
X334351Y342222D01*
X334353Y342221D01*
X334354Y342219D01*
X334439Y342186D01*
X346663Y342186D01*
X346665Y342187D01*
G37*
G36*
X375113Y342187D02*
X375113Y342187D01*
X375115Y342186D01*
X375158Y342206D01*
X375201Y342225D01*
X375202Y342227D01*
X375204Y342228D01*
X375237Y342313D01*
X375237Y354537D01*
X375236Y354539D01*
X375237Y354541D01*
X375217Y354584D01*
X375198Y354627D01*
X375196Y354628D01*
X375195Y354630D01*
X375111Y354663D01*
X362887Y354663D01*
X362885Y354662D01*
X362882Y354663D01*
X362839Y354643D01*
X362796Y354624D01*
X362795Y354622D01*
X362793Y354621D01*
X362760Y354537D01*
X362760Y342313D01*
X362761Y342311D01*
X362760Y342308D01*
X362780Y342265D01*
X362799Y342222D01*
X362801Y342221D01*
X362802Y342219D01*
X362887Y342186D01*
X375111Y342186D01*
X375113Y342187D01*
G37*
G36*
X332441Y327963D02*
X332441Y327963D01*
X332443Y327962D01*
X332486Y327982D01*
X332529Y328001D01*
X332530Y328003D01*
X332532Y328004D01*
X332565Y328089D01*
X332565Y340313D01*
X332564Y340315D01*
X332565Y340317D01*
X332545Y340360D01*
X332526Y340403D01*
X332524Y340404D01*
X332523Y340406D01*
X332439Y340439D01*
X320215Y340439D01*
X320213Y340438D01*
X320210Y340439D01*
X320167Y340419D01*
X320124Y340400D01*
X320123Y340398D01*
X320121Y340397D01*
X320088Y340313D01*
X320088Y328089D01*
X320089Y328087D01*
X320088Y328084D01*
X320108Y328041D01*
X320127Y327998D01*
X320129Y327997D01*
X320130Y327995D01*
X320215Y327962D01*
X332439Y327962D01*
X332441Y327963D01*
G37*
G36*
X360889Y327963D02*
X360889Y327963D01*
X360891Y327962D01*
X360934Y327982D01*
X360977Y328001D01*
X360978Y328003D01*
X360980Y328004D01*
X361013Y328089D01*
X361013Y340313D01*
X361012Y340315D01*
X361013Y340317D01*
X360993Y340360D01*
X360974Y340403D01*
X360972Y340404D01*
X360971Y340406D01*
X360887Y340439D01*
X348663Y340439D01*
X348661Y340438D01*
X348658Y340439D01*
X348615Y340419D01*
X348572Y340400D01*
X348571Y340398D01*
X348569Y340397D01*
X348536Y340313D01*
X348536Y328089D01*
X348537Y328087D01*
X348536Y328084D01*
X348556Y328041D01*
X348575Y327998D01*
X348577Y327997D01*
X348578Y327995D01*
X348663Y327962D01*
X360887Y327962D01*
X360889Y327963D01*
G37*
G36*
X346665Y327963D02*
X346665Y327963D01*
X346667Y327962D01*
X346710Y327982D01*
X346753Y328001D01*
X346754Y328003D01*
X346756Y328004D01*
X346789Y328089D01*
X346789Y340313D01*
X346788Y340315D01*
X346789Y340317D01*
X346769Y340360D01*
X346750Y340403D01*
X346748Y340404D01*
X346747Y340406D01*
X346663Y340439D01*
X334439Y340439D01*
X334437Y340438D01*
X334434Y340439D01*
X334391Y340419D01*
X334348Y340400D01*
X334347Y340398D01*
X334345Y340397D01*
X334312Y340313D01*
X334312Y328089D01*
X334313Y328087D01*
X334312Y328084D01*
X334332Y328041D01*
X334351Y327998D01*
X334353Y327997D01*
X334354Y327995D01*
X334439Y327962D01*
X346663Y327962D01*
X346665Y327963D01*
G37*
G36*
X375113Y327963D02*
X375113Y327963D01*
X375115Y327962D01*
X375158Y327982D01*
X375201Y328001D01*
X375202Y328003D01*
X375204Y328004D01*
X375237Y328089D01*
X375237Y340313D01*
X375236Y340315D01*
X375237Y340317D01*
X375217Y340360D01*
X375198Y340403D01*
X375196Y340404D01*
X375195Y340406D01*
X375111Y340439D01*
X362887Y340439D01*
X362885Y340438D01*
X362882Y340439D01*
X362839Y340419D01*
X362796Y340400D01*
X362795Y340398D01*
X362793Y340397D01*
X362760Y340313D01*
X362760Y328089D01*
X362761Y328087D01*
X362760Y328084D01*
X362780Y328041D01*
X362799Y327998D01*
X362801Y327997D01*
X362802Y327995D01*
X362887Y327962D01*
X375111Y327962D01*
X375113Y327963D01*
G37*
G36*
X346665Y313739D02*
X346665Y313739D01*
X346667Y313738D01*
X346710Y313758D01*
X346753Y313777D01*
X346754Y313779D01*
X346756Y313780D01*
X346789Y313865D01*
X346789Y326089D01*
X346788Y326091D01*
X346789Y326093D01*
X346769Y326136D01*
X346750Y326179D01*
X346748Y326180D01*
X346747Y326182D01*
X346663Y326215D01*
X334439Y326215D01*
X334437Y326214D01*
X334434Y326215D01*
X334391Y326195D01*
X334348Y326176D01*
X334347Y326174D01*
X334345Y326173D01*
X334312Y326089D01*
X334312Y313865D01*
X334313Y313863D01*
X334312Y313860D01*
X334332Y313817D01*
X334351Y313774D01*
X334353Y313773D01*
X334354Y313771D01*
X334439Y313738D01*
X346663Y313738D01*
X346665Y313739D01*
G37*
G36*
X360889Y313739D02*
X360889Y313739D01*
X360891Y313738D01*
X360934Y313758D01*
X360977Y313777D01*
X360978Y313779D01*
X360980Y313780D01*
X361013Y313865D01*
X361013Y326089D01*
X361012Y326091D01*
X361013Y326093D01*
X360993Y326136D01*
X360974Y326179D01*
X360972Y326180D01*
X360971Y326182D01*
X360887Y326215D01*
X348663Y326215D01*
X348661Y326214D01*
X348658Y326215D01*
X348615Y326195D01*
X348572Y326176D01*
X348571Y326174D01*
X348569Y326173D01*
X348536Y326089D01*
X348536Y313865D01*
X348537Y313863D01*
X348536Y313860D01*
X348556Y313817D01*
X348575Y313774D01*
X348577Y313773D01*
X348578Y313771D01*
X348663Y313738D01*
X360887Y313738D01*
X360889Y313739D01*
G37*
G36*
X375113Y313739D02*
X375113Y313739D01*
X375115Y313738D01*
X375158Y313758D01*
X375201Y313777D01*
X375202Y313779D01*
X375204Y313780D01*
X375237Y313865D01*
X375237Y326089D01*
X375236Y326091D01*
X375237Y326093D01*
X375217Y326136D01*
X375198Y326179D01*
X375196Y326180D01*
X375195Y326182D01*
X375111Y326215D01*
X362887Y326215D01*
X362885Y326214D01*
X362882Y326215D01*
X362839Y326195D01*
X362796Y326176D01*
X362795Y326174D01*
X362793Y326173D01*
X362760Y326089D01*
X362760Y313865D01*
X362761Y313863D01*
X362760Y313860D01*
X362780Y313817D01*
X362799Y313774D01*
X362801Y313773D01*
X362802Y313771D01*
X362887Y313738D01*
X375111Y313738D01*
X375113Y313739D01*
G37*
G36*
X332441Y313739D02*
X332441Y313739D01*
X332443Y313738D01*
X332486Y313758D01*
X332529Y313777D01*
X332530Y313779D01*
X332532Y313780D01*
X332565Y313865D01*
X332565Y326089D01*
X332564Y326091D01*
X332565Y326093D01*
X332545Y326136D01*
X332526Y326179D01*
X332524Y326180D01*
X332523Y326182D01*
X332439Y326215D01*
X320215Y326215D01*
X320213Y326214D01*
X320210Y326215D01*
X320167Y326195D01*
X320124Y326176D01*
X320123Y326174D01*
X320121Y326173D01*
X320088Y326089D01*
X320088Y313865D01*
X320089Y313863D01*
X320088Y313860D01*
X320108Y313817D01*
X320127Y313774D01*
X320129Y313773D01*
X320130Y313771D01*
X320215Y313738D01*
X332439Y313738D01*
X332441Y313739D01*
G37*
D10*
X421250Y361950D03*
X404250Y361950D03*
D11*
X403250Y390525D03*
X422250Y390525D03*
D12*
X291075Y303213D03*
X274075Y303213D03*
D13*
X411163Y346962D03*
X411163Y334963D03*
X411163Y322963D03*
D10*
X476813Y352425D03*
X459813Y352425D03*
D12*
X290513Y332813D03*
X290513Y349813D03*
D10*
X421250Y374650D03*
X404250Y374650D03*
D11*
X403250Y414338D03*
X422250Y414338D03*
D10*
X249238Y366150D03*
X249238Y383150D03*
D14*
X274638Y350813D03*
X274638Y331813D03*
D12*
X404250Y433388D03*
X421250Y433388D03*
D11*
X285725Y236538D03*
X266725Y236538D03*
D12*
X310588Y254000D03*
X327588Y254000D03*
D10*
X267725Y265113D03*
X284725Y265113D03*
X267725Y252413D03*
X284725Y252413D03*
D15*
X378155Y367562D02*
X378155Y370078D01*
X386259Y370078D01*
X386259Y367562D01*
X378155Y367562D01*
X378155Y367586D02*
X386259Y367586D01*
X386259Y367610D02*
X378155Y367610D01*
X378155Y367634D02*
X386259Y367634D01*
X386259Y367658D02*
X378155Y367658D01*
X378155Y367682D02*
X386259Y367682D01*
X386259Y367706D02*
X378155Y367706D01*
X378155Y367730D02*
X386259Y367730D01*
X386259Y367754D02*
X378155Y367754D01*
X378155Y367778D02*
X386259Y367778D01*
X386259Y367802D02*
X378155Y367802D01*
X378155Y367826D02*
X386259Y367826D01*
X386259Y367850D02*
X378155Y367850D01*
X378155Y367874D02*
X386259Y367874D01*
X386259Y367898D02*
X378155Y367898D01*
X378155Y367922D02*
X386259Y367922D01*
X386259Y367946D02*
X378155Y367946D01*
X378155Y367970D02*
X386259Y367970D01*
X386259Y367994D02*
X378155Y367994D01*
X378155Y368018D02*
X386259Y368018D01*
X386259Y368042D02*
X378155Y368042D01*
X378155Y368066D02*
X386259Y368066D01*
X386259Y368090D02*
X378155Y368090D01*
X378155Y368114D02*
X386259Y368114D01*
X386259Y368138D02*
X378155Y368138D01*
X378155Y368162D02*
X386259Y368162D01*
X386259Y368186D02*
X378155Y368186D01*
X378155Y368210D02*
X386259Y368210D01*
X386259Y368234D02*
X378155Y368234D01*
X378155Y368258D02*
X386259Y368258D01*
X386259Y368282D02*
X378155Y368282D01*
X378155Y368306D02*
X386259Y368306D01*
X386259Y368330D02*
X378155Y368330D01*
X378155Y368354D02*
X386259Y368354D01*
X386259Y368378D02*
X378155Y368378D01*
X378155Y368402D02*
X386259Y368402D01*
X386259Y368426D02*
X378155Y368426D01*
X378155Y368450D02*
X386259Y368450D01*
X386259Y368474D02*
X378155Y368474D01*
X378155Y368498D02*
X386259Y368498D01*
X386259Y368522D02*
X378155Y368522D01*
X378155Y368546D02*
X386259Y368546D01*
X386259Y368570D02*
X378155Y368570D01*
X378155Y368594D02*
X386259Y368594D01*
X386259Y368618D02*
X378155Y368618D01*
X378155Y368642D02*
X386259Y368642D01*
X386259Y368666D02*
X378155Y368666D01*
X378155Y368690D02*
X386259Y368690D01*
X386259Y368714D02*
X378155Y368714D01*
X378155Y368738D02*
X386259Y368738D01*
X386259Y368762D02*
X378155Y368762D01*
X378155Y368786D02*
X386259Y368786D01*
X386259Y368810D02*
X378155Y368810D01*
X378155Y368834D02*
X386259Y368834D01*
X386259Y368858D02*
X378155Y368858D01*
X378155Y368882D02*
X386259Y368882D01*
X386259Y368906D02*
X378155Y368906D01*
X378155Y368930D02*
X386259Y368930D01*
X386259Y368954D02*
X378155Y368954D01*
X378155Y368978D02*
X386259Y368978D01*
X386259Y369002D02*
X378155Y369002D01*
X378155Y369026D02*
X386259Y369026D01*
X386259Y369050D02*
X378155Y369050D01*
X378155Y369074D02*
X386259Y369074D01*
X386259Y369098D02*
X378155Y369098D01*
X378155Y369122D02*
X386259Y369122D01*
X386259Y369146D02*
X378155Y369146D01*
X378155Y369170D02*
X386259Y369170D01*
X386259Y369194D02*
X378155Y369194D01*
X378155Y369218D02*
X386259Y369218D01*
X386259Y369242D02*
X378155Y369242D01*
X378155Y369266D02*
X386259Y369266D01*
X386259Y369290D02*
X378155Y369290D01*
X378155Y369314D02*
X386259Y369314D01*
X386259Y369338D02*
X378155Y369338D01*
X378155Y369362D02*
X386259Y369362D01*
X386259Y369386D02*
X378155Y369386D01*
X378155Y369410D02*
X386259Y369410D01*
X386259Y369434D02*
X378155Y369434D01*
X378155Y369458D02*
X386259Y369458D01*
X386259Y369482D02*
X378155Y369482D01*
X378155Y369506D02*
X386259Y369506D01*
X386259Y369530D02*
X378155Y369530D01*
X378155Y369554D02*
X386259Y369554D01*
X386259Y369578D02*
X378155Y369578D01*
X378155Y369602D02*
X386259Y369602D01*
X386259Y369626D02*
X378155Y369626D01*
X378155Y369650D02*
X386259Y369650D01*
X386259Y369674D02*
X378155Y369674D01*
X378155Y369698D02*
X386259Y369698D01*
X386259Y369722D02*
X378155Y369722D01*
X378155Y369746D02*
X386259Y369746D01*
X386259Y369770D02*
X378155Y369770D01*
X378155Y369794D02*
X386259Y369794D01*
X386259Y369818D02*
X378155Y369818D01*
X378155Y369842D02*
X386259Y369842D01*
X386259Y369866D02*
X378155Y369866D01*
X378155Y369890D02*
X386259Y369890D01*
X386259Y369914D02*
X378155Y369914D01*
X378155Y369938D02*
X386259Y369938D01*
X386259Y369962D02*
X378155Y369962D01*
X378155Y369986D02*
X386259Y369986D01*
X386259Y370010D02*
X378155Y370010D01*
X378155Y370034D02*
X386259Y370034D01*
X386259Y370058D02*
X378155Y370058D01*
D16*
X382207Y363819D03*
X382207Y358817D03*
X382207Y353816D03*
X382207Y348815D03*
X382207Y343814D03*
X382207Y338812D03*
X382207Y333811D03*
X382207Y328810D03*
X382207Y323809D03*
X382207Y318807D03*
D15*
X378155Y315064D02*
X378155Y312548D01*
X378155Y315064D02*
X386259Y315064D01*
X386259Y312548D01*
X378155Y312548D01*
X378155Y312572D02*
X386259Y312572D01*
X386259Y312596D02*
X378155Y312596D01*
X378155Y312620D02*
X386259Y312620D01*
X386259Y312644D02*
X378155Y312644D01*
X378155Y312668D02*
X386259Y312668D01*
X386259Y312692D02*
X378155Y312692D01*
X378155Y312716D02*
X386259Y312716D01*
X386259Y312740D02*
X378155Y312740D01*
X378155Y312764D02*
X386259Y312764D01*
X386259Y312788D02*
X378155Y312788D01*
X378155Y312812D02*
X386259Y312812D01*
X386259Y312836D02*
X378155Y312836D01*
X378155Y312860D02*
X386259Y312860D01*
X386259Y312884D02*
X378155Y312884D01*
X378155Y312908D02*
X386259Y312908D01*
X386259Y312932D02*
X378155Y312932D01*
X378155Y312956D02*
X386259Y312956D01*
X386259Y312980D02*
X378155Y312980D01*
X378155Y313004D02*
X386259Y313004D01*
X386259Y313028D02*
X378155Y313028D01*
X378155Y313052D02*
X386259Y313052D01*
X386259Y313076D02*
X378155Y313076D01*
X378155Y313100D02*
X386259Y313100D01*
X386259Y313124D02*
X378155Y313124D01*
X378155Y313148D02*
X386259Y313148D01*
X386259Y313172D02*
X378155Y313172D01*
X378155Y313196D02*
X386259Y313196D01*
X386259Y313220D02*
X378155Y313220D01*
X378155Y313244D02*
X386259Y313244D01*
X386259Y313268D02*
X378155Y313268D01*
X378155Y313292D02*
X386259Y313292D01*
X386259Y313316D02*
X378155Y313316D01*
X378155Y313340D02*
X386259Y313340D01*
X386259Y313364D02*
X378155Y313364D01*
X378155Y313388D02*
X386259Y313388D01*
X386259Y313412D02*
X378155Y313412D01*
X378155Y313436D02*
X386259Y313436D01*
X386259Y313460D02*
X378155Y313460D01*
X378155Y313484D02*
X386259Y313484D01*
X386259Y313508D02*
X378155Y313508D01*
X378155Y313532D02*
X386259Y313532D01*
X386259Y313556D02*
X378155Y313556D01*
X378155Y313580D02*
X386259Y313580D01*
X386259Y313604D02*
X378155Y313604D01*
X378155Y313628D02*
X386259Y313628D01*
X386259Y313652D02*
X378155Y313652D01*
X378155Y313676D02*
X386259Y313676D01*
X386259Y313700D02*
X378155Y313700D01*
X378155Y313724D02*
X386259Y313724D01*
X386259Y313748D02*
X378155Y313748D01*
X378155Y313772D02*
X386259Y313772D01*
X386259Y313796D02*
X378155Y313796D01*
X378155Y313820D02*
X386259Y313820D01*
X386259Y313844D02*
X378155Y313844D01*
X378155Y313868D02*
X386259Y313868D01*
X386259Y313892D02*
X378155Y313892D01*
X378155Y313916D02*
X386259Y313916D01*
X386259Y313940D02*
X378155Y313940D01*
X378155Y313964D02*
X386259Y313964D01*
X386259Y313988D02*
X378155Y313988D01*
X378155Y314012D02*
X386259Y314012D01*
X386259Y314036D02*
X378155Y314036D01*
X378155Y314060D02*
X386259Y314060D01*
X386259Y314084D02*
X378155Y314084D01*
X378155Y314108D02*
X386259Y314108D01*
X386259Y314132D02*
X378155Y314132D01*
X378155Y314156D02*
X386259Y314156D01*
X386259Y314180D02*
X378155Y314180D01*
X378155Y314204D02*
X386259Y314204D01*
X386259Y314228D02*
X378155Y314228D01*
X378155Y314252D02*
X386259Y314252D01*
X386259Y314276D02*
X378155Y314276D01*
X378155Y314300D02*
X386259Y314300D01*
X386259Y314324D02*
X378155Y314324D01*
X378155Y314348D02*
X386259Y314348D01*
X386259Y314372D02*
X378155Y314372D01*
X378155Y314396D02*
X386259Y314396D01*
X386259Y314420D02*
X378155Y314420D01*
X378155Y314444D02*
X386259Y314444D01*
X386259Y314468D02*
X378155Y314468D01*
X378155Y314492D02*
X386259Y314492D01*
X386259Y314516D02*
X378155Y314516D01*
X378155Y314540D02*
X386259Y314540D01*
X386259Y314564D02*
X378155Y314564D01*
X378155Y314588D02*
X386259Y314588D01*
X386259Y314612D02*
X378155Y314612D01*
X378155Y314636D02*
X386259Y314636D01*
X386259Y314660D02*
X378155Y314660D01*
X378155Y314684D02*
X386259Y314684D01*
X386259Y314708D02*
X378155Y314708D01*
X378155Y314732D02*
X386259Y314732D01*
X386259Y314756D02*
X378155Y314756D01*
X378155Y314780D02*
X386259Y314780D01*
X386259Y314804D02*
X378155Y314804D01*
X378155Y314828D02*
X386259Y314828D01*
X386259Y314852D02*
X378155Y314852D01*
X378155Y314876D02*
X386259Y314876D01*
X386259Y314900D02*
X378155Y314900D01*
X378155Y314924D02*
X386259Y314924D01*
X386259Y314948D02*
X378155Y314948D01*
X378155Y314972D02*
X386259Y314972D01*
X386259Y314996D02*
X378155Y314996D01*
X378155Y315020D02*
X386259Y315020D01*
X386259Y315044D02*
X378155Y315044D01*
X376428Y302717D02*
X373912Y302717D01*
X373912Y310821D01*
X376428Y310821D01*
X376428Y302717D01*
X376428Y302741D02*
X373912Y302741D01*
X373912Y302765D02*
X376428Y302765D01*
X376428Y302789D02*
X373912Y302789D01*
X373912Y302813D02*
X376428Y302813D01*
X376428Y302837D02*
X373912Y302837D01*
X373912Y302861D02*
X376428Y302861D01*
X376428Y302885D02*
X373912Y302885D01*
X373912Y302909D02*
X376428Y302909D01*
X376428Y302933D02*
X373912Y302933D01*
X373912Y302957D02*
X376428Y302957D01*
X376428Y302981D02*
X373912Y302981D01*
X373912Y303005D02*
X376428Y303005D01*
X376428Y303029D02*
X373912Y303029D01*
X373912Y303053D02*
X376428Y303053D01*
X376428Y303077D02*
X373912Y303077D01*
X373912Y303101D02*
X376428Y303101D01*
X376428Y303125D02*
X373912Y303125D01*
X373912Y303149D02*
X376428Y303149D01*
X376428Y303173D02*
X373912Y303173D01*
X373912Y303197D02*
X376428Y303197D01*
X376428Y303221D02*
X373912Y303221D01*
X373912Y303245D02*
X376428Y303245D01*
X376428Y303269D02*
X373912Y303269D01*
X373912Y303293D02*
X376428Y303293D01*
X376428Y303317D02*
X373912Y303317D01*
X373912Y303341D02*
X376428Y303341D01*
X376428Y303365D02*
X373912Y303365D01*
X373912Y303389D02*
X376428Y303389D01*
X376428Y303413D02*
X373912Y303413D01*
X373912Y303437D02*
X376428Y303437D01*
X376428Y303461D02*
X373912Y303461D01*
X373912Y303485D02*
X376428Y303485D01*
X376428Y303509D02*
X373912Y303509D01*
X373912Y303533D02*
X376428Y303533D01*
X376428Y303557D02*
X373912Y303557D01*
X373912Y303581D02*
X376428Y303581D01*
X376428Y303605D02*
X373912Y303605D01*
X373912Y303629D02*
X376428Y303629D01*
X376428Y303653D02*
X373912Y303653D01*
X373912Y303677D02*
X376428Y303677D01*
X376428Y303701D02*
X373912Y303701D01*
X373912Y303725D02*
X376428Y303725D01*
X376428Y303749D02*
X373912Y303749D01*
X373912Y303773D02*
X376428Y303773D01*
X376428Y303797D02*
X373912Y303797D01*
X373912Y303821D02*
X376428Y303821D01*
X376428Y303845D02*
X373912Y303845D01*
X373912Y303869D02*
X376428Y303869D01*
X376428Y303893D02*
X373912Y303893D01*
X373912Y303917D02*
X376428Y303917D01*
X376428Y303941D02*
X373912Y303941D01*
X373912Y303965D02*
X376428Y303965D01*
X376428Y303989D02*
X373912Y303989D01*
X373912Y304013D02*
X376428Y304013D01*
X376428Y304037D02*
X373912Y304037D01*
X373912Y304061D02*
X376428Y304061D01*
X376428Y304085D02*
X373912Y304085D01*
X373912Y304109D02*
X376428Y304109D01*
X376428Y304133D02*
X373912Y304133D01*
X373912Y304157D02*
X376428Y304157D01*
X376428Y304181D02*
X373912Y304181D01*
X373912Y304205D02*
X376428Y304205D01*
X376428Y304229D02*
X373912Y304229D01*
X373912Y304253D02*
X376428Y304253D01*
X376428Y304277D02*
X373912Y304277D01*
X373912Y304301D02*
X376428Y304301D01*
X376428Y304325D02*
X373912Y304325D01*
X373912Y304349D02*
X376428Y304349D01*
X376428Y304373D02*
X373912Y304373D01*
X373912Y304397D02*
X376428Y304397D01*
X376428Y304421D02*
X373912Y304421D01*
X373912Y304445D02*
X376428Y304445D01*
X376428Y304469D02*
X373912Y304469D01*
X373912Y304493D02*
X376428Y304493D01*
X376428Y304517D02*
X373912Y304517D01*
X373912Y304541D02*
X376428Y304541D01*
X376428Y304565D02*
X373912Y304565D01*
X373912Y304589D02*
X376428Y304589D01*
X376428Y304613D02*
X373912Y304613D01*
X373912Y304637D02*
X376428Y304637D01*
X376428Y304661D02*
X373912Y304661D01*
X373912Y304685D02*
X376428Y304685D01*
X376428Y304709D02*
X373912Y304709D01*
X373912Y304733D02*
X376428Y304733D01*
X376428Y304757D02*
X373912Y304757D01*
X373912Y304781D02*
X376428Y304781D01*
X376428Y304805D02*
X373912Y304805D01*
X373912Y304829D02*
X376428Y304829D01*
X376428Y304853D02*
X373912Y304853D01*
X373912Y304877D02*
X376428Y304877D01*
X376428Y304901D02*
X373912Y304901D01*
X373912Y304925D02*
X376428Y304925D01*
X376428Y304949D02*
X373912Y304949D01*
X373912Y304973D02*
X376428Y304973D01*
X376428Y304997D02*
X373912Y304997D01*
X373912Y305021D02*
X376428Y305021D01*
X376428Y305045D02*
X373912Y305045D01*
X373912Y305069D02*
X376428Y305069D01*
X376428Y305093D02*
X373912Y305093D01*
X373912Y305117D02*
X376428Y305117D01*
X376428Y305141D02*
X373912Y305141D01*
X373912Y305165D02*
X376428Y305165D01*
X376428Y305189D02*
X373912Y305189D01*
X373912Y305213D02*
X376428Y305213D01*
X376428Y305237D02*
X373912Y305237D01*
X373912Y305261D02*
X376428Y305261D01*
X376428Y305285D02*
X373912Y305285D01*
X373912Y305309D02*
X376428Y305309D01*
X376428Y305333D02*
X373912Y305333D01*
X373912Y305357D02*
X376428Y305357D01*
X376428Y305381D02*
X373912Y305381D01*
X373912Y305405D02*
X376428Y305405D01*
X376428Y305429D02*
X373912Y305429D01*
X373912Y305453D02*
X376428Y305453D01*
X376428Y305477D02*
X373912Y305477D01*
X373912Y305501D02*
X376428Y305501D01*
X376428Y305525D02*
X373912Y305525D01*
X373912Y305549D02*
X376428Y305549D01*
X376428Y305573D02*
X373912Y305573D01*
X373912Y305597D02*
X376428Y305597D01*
X376428Y305621D02*
X373912Y305621D01*
X373912Y305645D02*
X376428Y305645D01*
X376428Y305669D02*
X373912Y305669D01*
X373912Y305693D02*
X376428Y305693D01*
X376428Y305717D02*
X373912Y305717D01*
X373912Y305741D02*
X376428Y305741D01*
X376428Y305765D02*
X373912Y305765D01*
X373912Y305789D02*
X376428Y305789D01*
X376428Y305813D02*
X373912Y305813D01*
X373912Y305837D02*
X376428Y305837D01*
X376428Y305861D02*
X373912Y305861D01*
X373912Y305885D02*
X376428Y305885D01*
X376428Y305909D02*
X373912Y305909D01*
X373912Y305933D02*
X376428Y305933D01*
X376428Y305957D02*
X373912Y305957D01*
X373912Y305981D02*
X376428Y305981D01*
X376428Y306005D02*
X373912Y306005D01*
X373912Y306029D02*
X376428Y306029D01*
X376428Y306053D02*
X373912Y306053D01*
X373912Y306077D02*
X376428Y306077D01*
X376428Y306101D02*
X373912Y306101D01*
X373912Y306125D02*
X376428Y306125D01*
X376428Y306149D02*
X373912Y306149D01*
X373912Y306173D02*
X376428Y306173D01*
X376428Y306197D02*
X373912Y306197D01*
X373912Y306221D02*
X376428Y306221D01*
X376428Y306245D02*
X373912Y306245D01*
X373912Y306269D02*
X376428Y306269D01*
X376428Y306293D02*
X373912Y306293D01*
X373912Y306317D02*
X376428Y306317D01*
X376428Y306341D02*
X373912Y306341D01*
X373912Y306365D02*
X376428Y306365D01*
X376428Y306389D02*
X373912Y306389D01*
X373912Y306413D02*
X376428Y306413D01*
X376428Y306437D02*
X373912Y306437D01*
X373912Y306461D02*
X376428Y306461D01*
X376428Y306485D02*
X373912Y306485D01*
X373912Y306509D02*
X376428Y306509D01*
X376428Y306533D02*
X373912Y306533D01*
X373912Y306557D02*
X376428Y306557D01*
X376428Y306581D02*
X373912Y306581D01*
X373912Y306605D02*
X376428Y306605D01*
X376428Y306629D02*
X373912Y306629D01*
X373912Y306653D02*
X376428Y306653D01*
X376428Y306677D02*
X373912Y306677D01*
X373912Y306701D02*
X376428Y306701D01*
X376428Y306725D02*
X373912Y306725D01*
X373912Y306749D02*
X376428Y306749D01*
X376428Y306773D02*
X373912Y306773D01*
X373912Y306797D02*
X376428Y306797D01*
X376428Y306821D02*
X373912Y306821D01*
X373912Y306845D02*
X376428Y306845D01*
X376428Y306869D02*
X373912Y306869D01*
X373912Y306893D02*
X376428Y306893D01*
X376428Y306917D02*
X373912Y306917D01*
X373912Y306941D02*
X376428Y306941D01*
X376428Y306965D02*
X373912Y306965D01*
X373912Y306989D02*
X376428Y306989D01*
X376428Y307013D02*
X373912Y307013D01*
X373912Y307037D02*
X376428Y307037D01*
X376428Y307061D02*
X373912Y307061D01*
X373912Y307085D02*
X376428Y307085D01*
X376428Y307109D02*
X373912Y307109D01*
X373912Y307133D02*
X376428Y307133D01*
X376428Y307157D02*
X373912Y307157D01*
X373912Y307181D02*
X376428Y307181D01*
X376428Y307205D02*
X373912Y307205D01*
X373912Y307229D02*
X376428Y307229D01*
X376428Y307253D02*
X373912Y307253D01*
X373912Y307277D02*
X376428Y307277D01*
X376428Y307301D02*
X373912Y307301D01*
X373912Y307325D02*
X376428Y307325D01*
X376428Y307349D02*
X373912Y307349D01*
X373912Y307373D02*
X376428Y307373D01*
X376428Y307397D02*
X373912Y307397D01*
X373912Y307421D02*
X376428Y307421D01*
X376428Y307445D02*
X373912Y307445D01*
X373912Y307469D02*
X376428Y307469D01*
X376428Y307493D02*
X373912Y307493D01*
X373912Y307517D02*
X376428Y307517D01*
X376428Y307541D02*
X373912Y307541D01*
X373912Y307565D02*
X376428Y307565D01*
X376428Y307589D02*
X373912Y307589D01*
X373912Y307613D02*
X376428Y307613D01*
X376428Y307637D02*
X373912Y307637D01*
X373912Y307661D02*
X376428Y307661D01*
X376428Y307685D02*
X373912Y307685D01*
X373912Y307709D02*
X376428Y307709D01*
X376428Y307733D02*
X373912Y307733D01*
X373912Y307757D02*
X376428Y307757D01*
X376428Y307781D02*
X373912Y307781D01*
X373912Y307805D02*
X376428Y307805D01*
X376428Y307829D02*
X373912Y307829D01*
X373912Y307853D02*
X376428Y307853D01*
X376428Y307877D02*
X373912Y307877D01*
X373912Y307901D02*
X376428Y307901D01*
X376428Y307925D02*
X373912Y307925D01*
X373912Y307949D02*
X376428Y307949D01*
X376428Y307973D02*
X373912Y307973D01*
X373912Y307997D02*
X376428Y307997D01*
X376428Y308021D02*
X373912Y308021D01*
X373912Y308045D02*
X376428Y308045D01*
X376428Y308069D02*
X373912Y308069D01*
X373912Y308093D02*
X376428Y308093D01*
X376428Y308117D02*
X373912Y308117D01*
X373912Y308141D02*
X376428Y308141D01*
X376428Y308165D02*
X373912Y308165D01*
X373912Y308189D02*
X376428Y308189D01*
X376428Y308213D02*
X373912Y308213D01*
X373912Y308237D02*
X376428Y308237D01*
X376428Y308261D02*
X373912Y308261D01*
X373912Y308285D02*
X376428Y308285D01*
X376428Y308309D02*
X373912Y308309D01*
X373912Y308333D02*
X376428Y308333D01*
X376428Y308357D02*
X373912Y308357D01*
X373912Y308381D02*
X376428Y308381D01*
X376428Y308405D02*
X373912Y308405D01*
X373912Y308429D02*
X376428Y308429D01*
X376428Y308453D02*
X373912Y308453D01*
X373912Y308477D02*
X376428Y308477D01*
X376428Y308501D02*
X373912Y308501D01*
X373912Y308525D02*
X376428Y308525D01*
X376428Y308549D02*
X373912Y308549D01*
X373912Y308573D02*
X376428Y308573D01*
X376428Y308597D02*
X373912Y308597D01*
X373912Y308621D02*
X376428Y308621D01*
X376428Y308645D02*
X373912Y308645D01*
X373912Y308669D02*
X376428Y308669D01*
X376428Y308693D02*
X373912Y308693D01*
X373912Y308717D02*
X376428Y308717D01*
X376428Y308741D02*
X373912Y308741D01*
X373912Y308765D02*
X376428Y308765D01*
X376428Y308789D02*
X373912Y308789D01*
X373912Y308813D02*
X376428Y308813D01*
X376428Y308837D02*
X373912Y308837D01*
X373912Y308861D02*
X376428Y308861D01*
X376428Y308885D02*
X373912Y308885D01*
X373912Y308909D02*
X376428Y308909D01*
X376428Y308933D02*
X373912Y308933D01*
X373912Y308957D02*
X376428Y308957D01*
X376428Y308981D02*
X373912Y308981D01*
X373912Y309005D02*
X376428Y309005D01*
X376428Y309029D02*
X373912Y309029D01*
X373912Y309053D02*
X376428Y309053D01*
X376428Y309077D02*
X373912Y309077D01*
X373912Y309101D02*
X376428Y309101D01*
X376428Y309125D02*
X373912Y309125D01*
X373912Y309149D02*
X376428Y309149D01*
X376428Y309173D02*
X373912Y309173D01*
X373912Y309197D02*
X376428Y309197D01*
X376428Y309221D02*
X373912Y309221D01*
X373912Y309245D02*
X376428Y309245D01*
X376428Y309269D02*
X373912Y309269D01*
X373912Y309293D02*
X376428Y309293D01*
X376428Y309317D02*
X373912Y309317D01*
X373912Y309341D02*
X376428Y309341D01*
X376428Y309365D02*
X373912Y309365D01*
X373912Y309389D02*
X376428Y309389D01*
X376428Y309413D02*
X373912Y309413D01*
X373912Y309437D02*
X376428Y309437D01*
X376428Y309461D02*
X373912Y309461D01*
X373912Y309485D02*
X376428Y309485D01*
X376428Y309509D02*
X373912Y309509D01*
X373912Y309533D02*
X376428Y309533D01*
X376428Y309557D02*
X373912Y309557D01*
X373912Y309581D02*
X376428Y309581D01*
X376428Y309605D02*
X373912Y309605D01*
X373912Y309629D02*
X376428Y309629D01*
X376428Y309653D02*
X373912Y309653D01*
X373912Y309677D02*
X376428Y309677D01*
X376428Y309701D02*
X373912Y309701D01*
X373912Y309725D02*
X376428Y309725D01*
X376428Y309749D02*
X373912Y309749D01*
X373912Y309773D02*
X376428Y309773D01*
X376428Y309797D02*
X373912Y309797D01*
X373912Y309821D02*
X376428Y309821D01*
X376428Y309845D02*
X373912Y309845D01*
X373912Y309869D02*
X376428Y309869D01*
X376428Y309893D02*
X373912Y309893D01*
X373912Y309917D02*
X376428Y309917D01*
X376428Y309941D02*
X373912Y309941D01*
X373912Y309965D02*
X376428Y309965D01*
X376428Y309989D02*
X373912Y309989D01*
X373912Y310013D02*
X376428Y310013D01*
X376428Y310037D02*
X373912Y310037D01*
X373912Y310061D02*
X376428Y310061D01*
X376428Y310085D02*
X373912Y310085D01*
X373912Y310109D02*
X376428Y310109D01*
X376428Y310133D02*
X373912Y310133D01*
X373912Y310157D02*
X376428Y310157D01*
X376428Y310181D02*
X373912Y310181D01*
X373912Y310205D02*
X376428Y310205D01*
X376428Y310229D02*
X373912Y310229D01*
X373912Y310253D02*
X376428Y310253D01*
X376428Y310277D02*
X373912Y310277D01*
X373912Y310301D02*
X376428Y310301D01*
X376428Y310325D02*
X373912Y310325D01*
X373912Y310349D02*
X376428Y310349D01*
X376428Y310373D02*
X373912Y310373D01*
X373912Y310397D02*
X376428Y310397D01*
X376428Y310421D02*
X373912Y310421D01*
X373912Y310445D02*
X376428Y310445D01*
X376428Y310469D02*
X373912Y310469D01*
X373912Y310493D02*
X376428Y310493D01*
X376428Y310517D02*
X373912Y310517D01*
X373912Y310541D02*
X376428Y310541D01*
X376428Y310565D02*
X373912Y310565D01*
X373912Y310589D02*
X376428Y310589D01*
X376428Y310613D02*
X373912Y310613D01*
X373912Y310637D02*
X376428Y310637D01*
X376428Y310661D02*
X373912Y310661D01*
X373912Y310685D02*
X376428Y310685D01*
X376428Y310709D02*
X373912Y310709D01*
X373912Y310733D02*
X376428Y310733D01*
X376428Y310757D02*
X373912Y310757D01*
X373912Y310781D02*
X376428Y310781D01*
X376428Y310805D02*
X373912Y310805D01*
D17*
X370169Y306769D03*
X365167Y306769D03*
X360166Y306769D03*
X355165Y306769D03*
X350164Y306769D03*
X345162Y306769D03*
X340161Y306769D03*
X335160Y306769D03*
X330159Y306769D03*
X325157Y306769D03*
D15*
X321414Y302717D02*
X318898Y302717D01*
X318898Y310821D01*
X321414Y310821D01*
X321414Y302717D01*
X321414Y302741D02*
X318898Y302741D01*
X318898Y302765D02*
X321414Y302765D01*
X321414Y302789D02*
X318898Y302789D01*
X318898Y302813D02*
X321414Y302813D01*
X321414Y302837D02*
X318898Y302837D01*
X318898Y302861D02*
X321414Y302861D01*
X321414Y302885D02*
X318898Y302885D01*
X318898Y302909D02*
X321414Y302909D01*
X321414Y302933D02*
X318898Y302933D01*
X318898Y302957D02*
X321414Y302957D01*
X321414Y302981D02*
X318898Y302981D01*
X318898Y303005D02*
X321414Y303005D01*
X321414Y303029D02*
X318898Y303029D01*
X318898Y303053D02*
X321414Y303053D01*
X321414Y303077D02*
X318898Y303077D01*
X318898Y303101D02*
X321414Y303101D01*
X321414Y303125D02*
X318898Y303125D01*
X318898Y303149D02*
X321414Y303149D01*
X321414Y303173D02*
X318898Y303173D01*
X318898Y303197D02*
X321414Y303197D01*
X321414Y303221D02*
X318898Y303221D01*
X318898Y303245D02*
X321414Y303245D01*
X321414Y303269D02*
X318898Y303269D01*
X318898Y303293D02*
X321414Y303293D01*
X321414Y303317D02*
X318898Y303317D01*
X318898Y303341D02*
X321414Y303341D01*
X321414Y303365D02*
X318898Y303365D01*
X318898Y303389D02*
X321414Y303389D01*
X321414Y303413D02*
X318898Y303413D01*
X318898Y303437D02*
X321414Y303437D01*
X321414Y303461D02*
X318898Y303461D01*
X318898Y303485D02*
X321414Y303485D01*
X321414Y303509D02*
X318898Y303509D01*
X318898Y303533D02*
X321414Y303533D01*
X321414Y303557D02*
X318898Y303557D01*
X318898Y303581D02*
X321414Y303581D01*
X321414Y303605D02*
X318898Y303605D01*
X318898Y303629D02*
X321414Y303629D01*
X321414Y303653D02*
X318898Y303653D01*
X318898Y303677D02*
X321414Y303677D01*
X321414Y303701D02*
X318898Y303701D01*
X318898Y303725D02*
X321414Y303725D01*
X321414Y303749D02*
X318898Y303749D01*
X318898Y303773D02*
X321414Y303773D01*
X321414Y303797D02*
X318898Y303797D01*
X318898Y303821D02*
X321414Y303821D01*
X321414Y303845D02*
X318898Y303845D01*
X318898Y303869D02*
X321414Y303869D01*
X321414Y303893D02*
X318898Y303893D01*
X318898Y303917D02*
X321414Y303917D01*
X321414Y303941D02*
X318898Y303941D01*
X318898Y303965D02*
X321414Y303965D01*
X321414Y303989D02*
X318898Y303989D01*
X318898Y304013D02*
X321414Y304013D01*
X321414Y304037D02*
X318898Y304037D01*
X318898Y304061D02*
X321414Y304061D01*
X321414Y304085D02*
X318898Y304085D01*
X318898Y304109D02*
X321414Y304109D01*
X321414Y304133D02*
X318898Y304133D01*
X318898Y304157D02*
X321414Y304157D01*
X321414Y304181D02*
X318898Y304181D01*
X318898Y304205D02*
X321414Y304205D01*
X321414Y304229D02*
X318898Y304229D01*
X318898Y304253D02*
X321414Y304253D01*
X321414Y304277D02*
X318898Y304277D01*
X318898Y304301D02*
X321414Y304301D01*
X321414Y304325D02*
X318898Y304325D01*
X318898Y304349D02*
X321414Y304349D01*
X321414Y304373D02*
X318898Y304373D01*
X318898Y304397D02*
X321414Y304397D01*
X321414Y304421D02*
X318898Y304421D01*
X318898Y304445D02*
X321414Y304445D01*
X321414Y304469D02*
X318898Y304469D01*
X318898Y304493D02*
X321414Y304493D01*
X321414Y304517D02*
X318898Y304517D01*
X318898Y304541D02*
X321414Y304541D01*
X321414Y304565D02*
X318898Y304565D01*
X318898Y304589D02*
X321414Y304589D01*
X321414Y304613D02*
X318898Y304613D01*
X318898Y304637D02*
X321414Y304637D01*
X321414Y304661D02*
X318898Y304661D01*
X318898Y304685D02*
X321414Y304685D01*
X321414Y304709D02*
X318898Y304709D01*
X318898Y304733D02*
X321414Y304733D01*
X321414Y304757D02*
X318898Y304757D01*
X318898Y304781D02*
X321414Y304781D01*
X321414Y304805D02*
X318898Y304805D01*
X318898Y304829D02*
X321414Y304829D01*
X321414Y304853D02*
X318898Y304853D01*
X318898Y304877D02*
X321414Y304877D01*
X321414Y304901D02*
X318898Y304901D01*
X318898Y304925D02*
X321414Y304925D01*
X321414Y304949D02*
X318898Y304949D01*
X318898Y304973D02*
X321414Y304973D01*
X321414Y304997D02*
X318898Y304997D01*
X318898Y305021D02*
X321414Y305021D01*
X321414Y305045D02*
X318898Y305045D01*
X318898Y305069D02*
X321414Y305069D01*
X321414Y305093D02*
X318898Y305093D01*
X318898Y305117D02*
X321414Y305117D01*
X321414Y305141D02*
X318898Y305141D01*
X318898Y305165D02*
X321414Y305165D01*
X321414Y305189D02*
X318898Y305189D01*
X318898Y305213D02*
X321414Y305213D01*
X321414Y305237D02*
X318898Y305237D01*
X318898Y305261D02*
X321414Y305261D01*
X321414Y305285D02*
X318898Y305285D01*
X318898Y305309D02*
X321414Y305309D01*
X321414Y305333D02*
X318898Y305333D01*
X318898Y305357D02*
X321414Y305357D01*
X321414Y305381D02*
X318898Y305381D01*
X318898Y305405D02*
X321414Y305405D01*
X321414Y305429D02*
X318898Y305429D01*
X318898Y305453D02*
X321414Y305453D01*
X321414Y305477D02*
X318898Y305477D01*
X318898Y305501D02*
X321414Y305501D01*
X321414Y305525D02*
X318898Y305525D01*
X318898Y305549D02*
X321414Y305549D01*
X321414Y305573D02*
X318898Y305573D01*
X318898Y305597D02*
X321414Y305597D01*
X321414Y305621D02*
X318898Y305621D01*
X318898Y305645D02*
X321414Y305645D01*
X321414Y305669D02*
X318898Y305669D01*
X318898Y305693D02*
X321414Y305693D01*
X321414Y305717D02*
X318898Y305717D01*
X318898Y305741D02*
X321414Y305741D01*
X321414Y305765D02*
X318898Y305765D01*
X318898Y305789D02*
X321414Y305789D01*
X321414Y305813D02*
X318898Y305813D01*
X318898Y305837D02*
X321414Y305837D01*
X321414Y305861D02*
X318898Y305861D01*
X318898Y305885D02*
X321414Y305885D01*
X321414Y305909D02*
X318898Y305909D01*
X318898Y305933D02*
X321414Y305933D01*
X321414Y305957D02*
X318898Y305957D01*
X318898Y305981D02*
X321414Y305981D01*
X321414Y306005D02*
X318898Y306005D01*
X318898Y306029D02*
X321414Y306029D01*
X321414Y306053D02*
X318898Y306053D01*
X318898Y306077D02*
X321414Y306077D01*
X321414Y306101D02*
X318898Y306101D01*
X318898Y306125D02*
X321414Y306125D01*
X321414Y306149D02*
X318898Y306149D01*
X318898Y306173D02*
X321414Y306173D01*
X321414Y306197D02*
X318898Y306197D01*
X318898Y306221D02*
X321414Y306221D01*
X321414Y306245D02*
X318898Y306245D01*
X318898Y306269D02*
X321414Y306269D01*
X321414Y306293D02*
X318898Y306293D01*
X318898Y306317D02*
X321414Y306317D01*
X321414Y306341D02*
X318898Y306341D01*
X318898Y306365D02*
X321414Y306365D01*
X321414Y306389D02*
X318898Y306389D01*
X318898Y306413D02*
X321414Y306413D01*
X321414Y306437D02*
X318898Y306437D01*
X318898Y306461D02*
X321414Y306461D01*
X321414Y306485D02*
X318898Y306485D01*
X318898Y306509D02*
X321414Y306509D01*
X321414Y306533D02*
X318898Y306533D01*
X318898Y306557D02*
X321414Y306557D01*
X321414Y306581D02*
X318898Y306581D01*
X318898Y306605D02*
X321414Y306605D01*
X321414Y306629D02*
X318898Y306629D01*
X318898Y306653D02*
X321414Y306653D01*
X321414Y306677D02*
X318898Y306677D01*
X318898Y306701D02*
X321414Y306701D01*
X321414Y306725D02*
X318898Y306725D01*
X318898Y306749D02*
X321414Y306749D01*
X321414Y306773D02*
X318898Y306773D01*
X318898Y306797D02*
X321414Y306797D01*
X321414Y306821D02*
X318898Y306821D01*
X318898Y306845D02*
X321414Y306845D01*
X321414Y306869D02*
X318898Y306869D01*
X318898Y306893D02*
X321414Y306893D01*
X321414Y306917D02*
X318898Y306917D01*
X318898Y306941D02*
X321414Y306941D01*
X321414Y306965D02*
X318898Y306965D01*
X318898Y306989D02*
X321414Y306989D01*
X321414Y307013D02*
X318898Y307013D01*
X318898Y307037D02*
X321414Y307037D01*
X321414Y307061D02*
X318898Y307061D01*
X318898Y307085D02*
X321414Y307085D01*
X321414Y307109D02*
X318898Y307109D01*
X318898Y307133D02*
X321414Y307133D01*
X321414Y307157D02*
X318898Y307157D01*
X318898Y307181D02*
X321414Y307181D01*
X321414Y307205D02*
X318898Y307205D01*
X318898Y307229D02*
X321414Y307229D01*
X321414Y307253D02*
X318898Y307253D01*
X318898Y307277D02*
X321414Y307277D01*
X321414Y307301D02*
X318898Y307301D01*
X318898Y307325D02*
X321414Y307325D01*
X321414Y307349D02*
X318898Y307349D01*
X318898Y307373D02*
X321414Y307373D01*
X321414Y307397D02*
X318898Y307397D01*
X318898Y307421D02*
X321414Y307421D01*
X321414Y307445D02*
X318898Y307445D01*
X318898Y307469D02*
X321414Y307469D01*
X321414Y307493D02*
X318898Y307493D01*
X318898Y307517D02*
X321414Y307517D01*
X321414Y307541D02*
X318898Y307541D01*
X318898Y307565D02*
X321414Y307565D01*
X321414Y307589D02*
X318898Y307589D01*
X318898Y307613D02*
X321414Y307613D01*
X321414Y307637D02*
X318898Y307637D01*
X318898Y307661D02*
X321414Y307661D01*
X321414Y307685D02*
X318898Y307685D01*
X318898Y307709D02*
X321414Y307709D01*
X321414Y307733D02*
X318898Y307733D01*
X318898Y307757D02*
X321414Y307757D01*
X321414Y307781D02*
X318898Y307781D01*
X318898Y307805D02*
X321414Y307805D01*
X321414Y307829D02*
X318898Y307829D01*
X318898Y307853D02*
X321414Y307853D01*
X321414Y307877D02*
X318898Y307877D01*
X318898Y307901D02*
X321414Y307901D01*
X321414Y307925D02*
X318898Y307925D01*
X318898Y307949D02*
X321414Y307949D01*
X321414Y307973D02*
X318898Y307973D01*
X318898Y307997D02*
X321414Y307997D01*
X321414Y308021D02*
X318898Y308021D01*
X318898Y308045D02*
X321414Y308045D01*
X321414Y308069D02*
X318898Y308069D01*
X318898Y308093D02*
X321414Y308093D01*
X321414Y308117D02*
X318898Y308117D01*
X318898Y308141D02*
X321414Y308141D01*
X321414Y308165D02*
X318898Y308165D01*
X318898Y308189D02*
X321414Y308189D01*
X321414Y308213D02*
X318898Y308213D01*
X318898Y308237D02*
X321414Y308237D01*
X321414Y308261D02*
X318898Y308261D01*
X318898Y308285D02*
X321414Y308285D01*
X321414Y308309D02*
X318898Y308309D01*
X318898Y308333D02*
X321414Y308333D01*
X321414Y308357D02*
X318898Y308357D01*
X318898Y308381D02*
X321414Y308381D01*
X321414Y308405D02*
X318898Y308405D01*
X318898Y308429D02*
X321414Y308429D01*
X321414Y308453D02*
X318898Y308453D01*
X318898Y308477D02*
X321414Y308477D01*
X321414Y308501D02*
X318898Y308501D01*
X318898Y308525D02*
X321414Y308525D01*
X321414Y308549D02*
X318898Y308549D01*
X318898Y308573D02*
X321414Y308573D01*
X321414Y308597D02*
X318898Y308597D01*
X318898Y308621D02*
X321414Y308621D01*
X321414Y308645D02*
X318898Y308645D01*
X318898Y308669D02*
X321414Y308669D01*
X321414Y308693D02*
X318898Y308693D01*
X318898Y308717D02*
X321414Y308717D01*
X321414Y308741D02*
X318898Y308741D01*
X318898Y308765D02*
X321414Y308765D01*
X321414Y308789D02*
X318898Y308789D01*
X318898Y308813D02*
X321414Y308813D01*
X321414Y308837D02*
X318898Y308837D01*
X318898Y308861D02*
X321414Y308861D01*
X321414Y308885D02*
X318898Y308885D01*
X318898Y308909D02*
X321414Y308909D01*
X321414Y308933D02*
X318898Y308933D01*
X318898Y308957D02*
X321414Y308957D01*
X321414Y308981D02*
X318898Y308981D01*
X318898Y309005D02*
X321414Y309005D01*
X321414Y309029D02*
X318898Y309029D01*
X318898Y309053D02*
X321414Y309053D01*
X321414Y309077D02*
X318898Y309077D01*
X318898Y309101D02*
X321414Y309101D01*
X321414Y309125D02*
X318898Y309125D01*
X318898Y309149D02*
X321414Y309149D01*
X321414Y309173D02*
X318898Y309173D01*
X318898Y309197D02*
X321414Y309197D01*
X321414Y309221D02*
X318898Y309221D01*
X318898Y309245D02*
X321414Y309245D01*
X321414Y309269D02*
X318898Y309269D01*
X318898Y309293D02*
X321414Y309293D01*
X321414Y309317D02*
X318898Y309317D01*
X318898Y309341D02*
X321414Y309341D01*
X321414Y309365D02*
X318898Y309365D01*
X318898Y309389D02*
X321414Y309389D01*
X321414Y309413D02*
X318898Y309413D01*
X318898Y309437D02*
X321414Y309437D01*
X321414Y309461D02*
X318898Y309461D01*
X318898Y309485D02*
X321414Y309485D01*
X321414Y309509D02*
X318898Y309509D01*
X318898Y309533D02*
X321414Y309533D01*
X321414Y309557D02*
X318898Y309557D01*
X318898Y309581D02*
X321414Y309581D01*
X321414Y309605D02*
X318898Y309605D01*
X318898Y309629D02*
X321414Y309629D01*
X321414Y309653D02*
X318898Y309653D01*
X318898Y309677D02*
X321414Y309677D01*
X321414Y309701D02*
X318898Y309701D01*
X318898Y309725D02*
X321414Y309725D01*
X321414Y309749D02*
X318898Y309749D01*
X318898Y309773D02*
X321414Y309773D01*
X321414Y309797D02*
X318898Y309797D01*
X318898Y309821D02*
X321414Y309821D01*
X321414Y309845D02*
X318898Y309845D01*
X318898Y309869D02*
X321414Y309869D01*
X321414Y309893D02*
X318898Y309893D01*
X318898Y309917D02*
X321414Y309917D01*
X321414Y309941D02*
X318898Y309941D01*
X318898Y309965D02*
X321414Y309965D01*
X321414Y309989D02*
X318898Y309989D01*
X318898Y310013D02*
X321414Y310013D01*
X321414Y310037D02*
X318898Y310037D01*
X318898Y310061D02*
X321414Y310061D01*
X321414Y310085D02*
X318898Y310085D01*
X318898Y310109D02*
X321414Y310109D01*
X321414Y310133D02*
X318898Y310133D01*
X318898Y310157D02*
X321414Y310157D01*
X321414Y310181D02*
X318898Y310181D01*
X318898Y310205D02*
X321414Y310205D01*
X321414Y310229D02*
X318898Y310229D01*
X318898Y310253D02*
X321414Y310253D01*
X321414Y310277D02*
X318898Y310277D01*
X318898Y310301D02*
X321414Y310301D01*
X321414Y310325D02*
X318898Y310325D01*
X318898Y310349D02*
X321414Y310349D01*
X321414Y310373D02*
X318898Y310373D01*
X318898Y310397D02*
X321414Y310397D01*
X321414Y310421D02*
X318898Y310421D01*
X318898Y310445D02*
X321414Y310445D01*
X321414Y310469D02*
X318898Y310469D01*
X318898Y310493D02*
X321414Y310493D01*
X321414Y310517D02*
X318898Y310517D01*
X318898Y310541D02*
X321414Y310541D01*
X321414Y310565D02*
X318898Y310565D01*
X318898Y310589D02*
X321414Y310589D01*
X321414Y310613D02*
X318898Y310613D01*
X318898Y310637D02*
X321414Y310637D01*
X321414Y310661D02*
X318898Y310661D01*
X318898Y310685D02*
X321414Y310685D01*
X321414Y310709D02*
X318898Y310709D01*
X318898Y310733D02*
X321414Y310733D01*
X321414Y310757D02*
X318898Y310757D01*
X318898Y310781D02*
X321414Y310781D01*
X321414Y310805D02*
X318898Y310805D01*
X309067Y312548D02*
X309067Y315064D01*
X317171Y315064D01*
X317171Y312548D01*
X309067Y312548D01*
X309067Y312572D02*
X317171Y312572D01*
X317171Y312596D02*
X309067Y312596D01*
X309067Y312620D02*
X317171Y312620D01*
X317171Y312644D02*
X309067Y312644D01*
X309067Y312668D02*
X317171Y312668D01*
X317171Y312692D02*
X309067Y312692D01*
X309067Y312716D02*
X317171Y312716D01*
X317171Y312740D02*
X309067Y312740D01*
X309067Y312764D02*
X317171Y312764D01*
X317171Y312788D02*
X309067Y312788D01*
X309067Y312812D02*
X317171Y312812D01*
X317171Y312836D02*
X309067Y312836D01*
X309067Y312860D02*
X317171Y312860D01*
X317171Y312884D02*
X309067Y312884D01*
X309067Y312908D02*
X317171Y312908D01*
X317171Y312932D02*
X309067Y312932D01*
X309067Y312956D02*
X317171Y312956D01*
X317171Y312980D02*
X309067Y312980D01*
X309067Y313004D02*
X317171Y313004D01*
X317171Y313028D02*
X309067Y313028D01*
X309067Y313052D02*
X317171Y313052D01*
X317171Y313076D02*
X309067Y313076D01*
X309067Y313100D02*
X317171Y313100D01*
X317171Y313124D02*
X309067Y313124D01*
X309067Y313148D02*
X317171Y313148D01*
X317171Y313172D02*
X309067Y313172D01*
X309067Y313196D02*
X317171Y313196D01*
X317171Y313220D02*
X309067Y313220D01*
X309067Y313244D02*
X317171Y313244D01*
X317171Y313268D02*
X309067Y313268D01*
X309067Y313292D02*
X317171Y313292D01*
X317171Y313316D02*
X309067Y313316D01*
X309067Y313340D02*
X317171Y313340D01*
X317171Y313364D02*
X309067Y313364D01*
X309067Y313388D02*
X317171Y313388D01*
X317171Y313412D02*
X309067Y313412D01*
X309067Y313436D02*
X317171Y313436D01*
X317171Y313460D02*
X309067Y313460D01*
X309067Y313484D02*
X317171Y313484D01*
X317171Y313508D02*
X309067Y313508D01*
X309067Y313532D02*
X317171Y313532D01*
X317171Y313556D02*
X309067Y313556D01*
X309067Y313580D02*
X317171Y313580D01*
X317171Y313604D02*
X309067Y313604D01*
X309067Y313628D02*
X317171Y313628D01*
X317171Y313652D02*
X309067Y313652D01*
X309067Y313676D02*
X317171Y313676D01*
X317171Y313700D02*
X309067Y313700D01*
X309067Y313724D02*
X317171Y313724D01*
X317171Y313748D02*
X309067Y313748D01*
X309067Y313772D02*
X317171Y313772D01*
X317171Y313796D02*
X309067Y313796D01*
X309067Y313820D02*
X317171Y313820D01*
X317171Y313844D02*
X309067Y313844D01*
X309067Y313868D02*
X317171Y313868D01*
X317171Y313892D02*
X309067Y313892D01*
X309067Y313916D02*
X317171Y313916D01*
X317171Y313940D02*
X309067Y313940D01*
X309067Y313964D02*
X317171Y313964D01*
X317171Y313988D02*
X309067Y313988D01*
X309067Y314012D02*
X317171Y314012D01*
X317171Y314036D02*
X309067Y314036D01*
X309067Y314060D02*
X317171Y314060D01*
X317171Y314084D02*
X309067Y314084D01*
X309067Y314108D02*
X317171Y314108D01*
X317171Y314132D02*
X309067Y314132D01*
X309067Y314156D02*
X317171Y314156D01*
X317171Y314180D02*
X309067Y314180D01*
X309067Y314204D02*
X317171Y314204D01*
X317171Y314228D02*
X309067Y314228D01*
X309067Y314252D02*
X317171Y314252D01*
X317171Y314276D02*
X309067Y314276D01*
X309067Y314300D02*
X317171Y314300D01*
X317171Y314324D02*
X309067Y314324D01*
X309067Y314348D02*
X317171Y314348D01*
X317171Y314372D02*
X309067Y314372D01*
X309067Y314396D02*
X317171Y314396D01*
X317171Y314420D02*
X309067Y314420D01*
X309067Y314444D02*
X317171Y314444D01*
X317171Y314468D02*
X309067Y314468D01*
X309067Y314492D02*
X317171Y314492D01*
X317171Y314516D02*
X309067Y314516D01*
X309067Y314540D02*
X317171Y314540D01*
X317171Y314564D02*
X309067Y314564D01*
X309067Y314588D02*
X317171Y314588D01*
X317171Y314612D02*
X309067Y314612D01*
X309067Y314636D02*
X317171Y314636D01*
X317171Y314660D02*
X309067Y314660D01*
X309067Y314684D02*
X317171Y314684D01*
X317171Y314708D02*
X309067Y314708D01*
X309067Y314732D02*
X317171Y314732D01*
X317171Y314756D02*
X309067Y314756D01*
X309067Y314780D02*
X317171Y314780D01*
X317171Y314804D02*
X309067Y314804D01*
X309067Y314828D02*
X317171Y314828D01*
X317171Y314852D02*
X309067Y314852D01*
X309067Y314876D02*
X317171Y314876D01*
X317171Y314900D02*
X309067Y314900D01*
X309067Y314924D02*
X317171Y314924D01*
X317171Y314948D02*
X309067Y314948D01*
X309067Y314972D02*
X317171Y314972D01*
X317171Y314996D02*
X309067Y314996D01*
X309067Y315020D02*
X317171Y315020D01*
X317171Y315044D02*
X309067Y315044D01*
D16*
X313119Y318807D03*
X313119Y323809D03*
X313119Y328810D03*
X313119Y333811D03*
X313119Y338812D03*
X313119Y343814D03*
X313119Y348815D03*
X313119Y353816D03*
X313119Y358817D03*
X313119Y363819D03*
D15*
X309067Y367562D02*
X309067Y370078D01*
X317171Y370078D01*
X317171Y367562D01*
X309067Y367562D01*
X309067Y367586D02*
X317171Y367586D01*
X317171Y367610D02*
X309067Y367610D01*
X309067Y367634D02*
X317171Y367634D01*
X317171Y367658D02*
X309067Y367658D01*
X309067Y367682D02*
X317171Y367682D01*
X317171Y367706D02*
X309067Y367706D01*
X309067Y367730D02*
X317171Y367730D01*
X317171Y367754D02*
X309067Y367754D01*
X309067Y367778D02*
X317171Y367778D01*
X317171Y367802D02*
X309067Y367802D01*
X309067Y367826D02*
X317171Y367826D01*
X317171Y367850D02*
X309067Y367850D01*
X309067Y367874D02*
X317171Y367874D01*
X317171Y367898D02*
X309067Y367898D01*
X309067Y367922D02*
X317171Y367922D01*
X317171Y367946D02*
X309067Y367946D01*
X309067Y367970D02*
X317171Y367970D01*
X317171Y367994D02*
X309067Y367994D01*
X309067Y368018D02*
X317171Y368018D01*
X317171Y368042D02*
X309067Y368042D01*
X309067Y368066D02*
X317171Y368066D01*
X317171Y368090D02*
X309067Y368090D01*
X309067Y368114D02*
X317171Y368114D01*
X317171Y368138D02*
X309067Y368138D01*
X309067Y368162D02*
X317171Y368162D01*
X317171Y368186D02*
X309067Y368186D01*
X309067Y368210D02*
X317171Y368210D01*
X317171Y368234D02*
X309067Y368234D01*
X309067Y368258D02*
X317171Y368258D01*
X317171Y368282D02*
X309067Y368282D01*
X309067Y368306D02*
X317171Y368306D01*
X317171Y368330D02*
X309067Y368330D01*
X309067Y368354D02*
X317171Y368354D01*
X317171Y368378D02*
X309067Y368378D01*
X309067Y368402D02*
X317171Y368402D01*
X317171Y368426D02*
X309067Y368426D01*
X309067Y368450D02*
X317171Y368450D01*
X317171Y368474D02*
X309067Y368474D01*
X309067Y368498D02*
X317171Y368498D01*
X317171Y368522D02*
X309067Y368522D01*
X309067Y368546D02*
X317171Y368546D01*
X317171Y368570D02*
X309067Y368570D01*
X309067Y368594D02*
X317171Y368594D01*
X317171Y368618D02*
X309067Y368618D01*
X309067Y368642D02*
X317171Y368642D01*
X317171Y368666D02*
X309067Y368666D01*
X309067Y368690D02*
X317171Y368690D01*
X317171Y368714D02*
X309067Y368714D01*
X309067Y368738D02*
X317171Y368738D01*
X317171Y368762D02*
X309067Y368762D01*
X309067Y368786D02*
X317171Y368786D01*
X317171Y368810D02*
X309067Y368810D01*
X309067Y368834D02*
X317171Y368834D01*
X317171Y368858D02*
X309067Y368858D01*
X309067Y368882D02*
X317171Y368882D01*
X317171Y368906D02*
X309067Y368906D01*
X309067Y368930D02*
X317171Y368930D01*
X317171Y368954D02*
X309067Y368954D01*
X309067Y368978D02*
X317171Y368978D01*
X317171Y369002D02*
X309067Y369002D01*
X309067Y369026D02*
X317171Y369026D01*
X317171Y369050D02*
X309067Y369050D01*
X309067Y369074D02*
X317171Y369074D01*
X317171Y369098D02*
X309067Y369098D01*
X309067Y369122D02*
X317171Y369122D01*
X317171Y369146D02*
X309067Y369146D01*
X309067Y369170D02*
X317171Y369170D01*
X317171Y369194D02*
X309067Y369194D01*
X309067Y369218D02*
X317171Y369218D01*
X317171Y369242D02*
X309067Y369242D01*
X309067Y369266D02*
X317171Y369266D01*
X317171Y369290D02*
X309067Y369290D01*
X309067Y369314D02*
X317171Y369314D01*
X317171Y369338D02*
X309067Y369338D01*
X309067Y369362D02*
X317171Y369362D01*
X317171Y369386D02*
X309067Y369386D01*
X309067Y369410D02*
X317171Y369410D01*
X317171Y369434D02*
X309067Y369434D01*
X309067Y369458D02*
X317171Y369458D01*
X317171Y369482D02*
X309067Y369482D01*
X309067Y369506D02*
X317171Y369506D01*
X317171Y369530D02*
X309067Y369530D01*
X309067Y369554D02*
X317171Y369554D01*
X317171Y369578D02*
X309067Y369578D01*
X309067Y369602D02*
X317171Y369602D01*
X317171Y369626D02*
X309067Y369626D01*
X309067Y369650D02*
X317171Y369650D01*
X317171Y369674D02*
X309067Y369674D01*
X309067Y369698D02*
X317171Y369698D01*
X317171Y369722D02*
X309067Y369722D01*
X309067Y369746D02*
X317171Y369746D01*
X317171Y369770D02*
X309067Y369770D01*
X309067Y369794D02*
X317171Y369794D01*
X317171Y369818D02*
X309067Y369818D01*
X309067Y369842D02*
X317171Y369842D01*
X317171Y369866D02*
X309067Y369866D01*
X309067Y369890D02*
X317171Y369890D01*
X317171Y369914D02*
X309067Y369914D01*
X309067Y369938D02*
X317171Y369938D01*
X317171Y369962D02*
X309067Y369962D01*
X309067Y369986D02*
X317171Y369986D01*
X317171Y370010D02*
X309067Y370010D01*
X309067Y370034D02*
X317171Y370034D01*
X317171Y370058D02*
X309067Y370058D01*
X318898Y371805D02*
X321414Y371805D01*
X318898Y371805D02*
X318898Y379909D01*
X321414Y379909D01*
X321414Y371805D01*
X321414Y371829D02*
X318898Y371829D01*
X318898Y371853D02*
X321414Y371853D01*
X321414Y371877D02*
X318898Y371877D01*
X318898Y371901D02*
X321414Y371901D01*
X321414Y371925D02*
X318898Y371925D01*
X318898Y371949D02*
X321414Y371949D01*
X321414Y371973D02*
X318898Y371973D01*
X318898Y371997D02*
X321414Y371997D01*
X321414Y372021D02*
X318898Y372021D01*
X318898Y372045D02*
X321414Y372045D01*
X321414Y372069D02*
X318898Y372069D01*
X318898Y372093D02*
X321414Y372093D01*
X321414Y372117D02*
X318898Y372117D01*
X318898Y372141D02*
X321414Y372141D01*
X321414Y372165D02*
X318898Y372165D01*
X318898Y372189D02*
X321414Y372189D01*
X321414Y372213D02*
X318898Y372213D01*
X318898Y372237D02*
X321414Y372237D01*
X321414Y372261D02*
X318898Y372261D01*
X318898Y372285D02*
X321414Y372285D01*
X321414Y372309D02*
X318898Y372309D01*
X318898Y372333D02*
X321414Y372333D01*
X321414Y372357D02*
X318898Y372357D01*
X318898Y372381D02*
X321414Y372381D01*
X321414Y372405D02*
X318898Y372405D01*
X318898Y372429D02*
X321414Y372429D01*
X321414Y372453D02*
X318898Y372453D01*
X318898Y372477D02*
X321414Y372477D01*
X321414Y372501D02*
X318898Y372501D01*
X318898Y372525D02*
X321414Y372525D01*
X321414Y372549D02*
X318898Y372549D01*
X318898Y372573D02*
X321414Y372573D01*
X321414Y372597D02*
X318898Y372597D01*
X318898Y372621D02*
X321414Y372621D01*
X321414Y372645D02*
X318898Y372645D01*
X318898Y372669D02*
X321414Y372669D01*
X321414Y372693D02*
X318898Y372693D01*
X318898Y372717D02*
X321414Y372717D01*
X321414Y372741D02*
X318898Y372741D01*
X318898Y372765D02*
X321414Y372765D01*
X321414Y372789D02*
X318898Y372789D01*
X318898Y372813D02*
X321414Y372813D01*
X321414Y372837D02*
X318898Y372837D01*
X318898Y372861D02*
X321414Y372861D01*
X321414Y372885D02*
X318898Y372885D01*
X318898Y372909D02*
X321414Y372909D01*
X321414Y372933D02*
X318898Y372933D01*
X318898Y372957D02*
X321414Y372957D01*
X321414Y372981D02*
X318898Y372981D01*
X318898Y373005D02*
X321414Y373005D01*
X321414Y373029D02*
X318898Y373029D01*
X318898Y373053D02*
X321414Y373053D01*
X321414Y373077D02*
X318898Y373077D01*
X318898Y373101D02*
X321414Y373101D01*
X321414Y373125D02*
X318898Y373125D01*
X318898Y373149D02*
X321414Y373149D01*
X321414Y373173D02*
X318898Y373173D01*
X318898Y373197D02*
X321414Y373197D01*
X321414Y373221D02*
X318898Y373221D01*
X318898Y373245D02*
X321414Y373245D01*
X321414Y373269D02*
X318898Y373269D01*
X318898Y373293D02*
X321414Y373293D01*
X321414Y373317D02*
X318898Y373317D01*
X318898Y373341D02*
X321414Y373341D01*
X321414Y373365D02*
X318898Y373365D01*
X318898Y373389D02*
X321414Y373389D01*
X321414Y373413D02*
X318898Y373413D01*
X318898Y373437D02*
X321414Y373437D01*
X321414Y373461D02*
X318898Y373461D01*
X318898Y373485D02*
X321414Y373485D01*
X321414Y373509D02*
X318898Y373509D01*
X318898Y373533D02*
X321414Y373533D01*
X321414Y373557D02*
X318898Y373557D01*
X318898Y373581D02*
X321414Y373581D01*
X321414Y373605D02*
X318898Y373605D01*
X318898Y373629D02*
X321414Y373629D01*
X321414Y373653D02*
X318898Y373653D01*
X318898Y373677D02*
X321414Y373677D01*
X321414Y373701D02*
X318898Y373701D01*
X318898Y373725D02*
X321414Y373725D01*
X321414Y373749D02*
X318898Y373749D01*
X318898Y373773D02*
X321414Y373773D01*
X321414Y373797D02*
X318898Y373797D01*
X318898Y373821D02*
X321414Y373821D01*
X321414Y373845D02*
X318898Y373845D01*
X318898Y373869D02*
X321414Y373869D01*
X321414Y373893D02*
X318898Y373893D01*
X318898Y373917D02*
X321414Y373917D01*
X321414Y373941D02*
X318898Y373941D01*
X318898Y373965D02*
X321414Y373965D01*
X321414Y373989D02*
X318898Y373989D01*
X318898Y374013D02*
X321414Y374013D01*
X321414Y374037D02*
X318898Y374037D01*
X318898Y374061D02*
X321414Y374061D01*
X321414Y374085D02*
X318898Y374085D01*
X318898Y374109D02*
X321414Y374109D01*
X321414Y374133D02*
X318898Y374133D01*
X318898Y374157D02*
X321414Y374157D01*
X321414Y374181D02*
X318898Y374181D01*
X318898Y374205D02*
X321414Y374205D01*
X321414Y374229D02*
X318898Y374229D01*
X318898Y374253D02*
X321414Y374253D01*
X321414Y374277D02*
X318898Y374277D01*
X318898Y374301D02*
X321414Y374301D01*
X321414Y374325D02*
X318898Y374325D01*
X318898Y374349D02*
X321414Y374349D01*
X321414Y374373D02*
X318898Y374373D01*
X318898Y374397D02*
X321414Y374397D01*
X321414Y374421D02*
X318898Y374421D01*
X318898Y374445D02*
X321414Y374445D01*
X321414Y374469D02*
X318898Y374469D01*
X318898Y374493D02*
X321414Y374493D01*
X321414Y374517D02*
X318898Y374517D01*
X318898Y374541D02*
X321414Y374541D01*
X321414Y374565D02*
X318898Y374565D01*
X318898Y374589D02*
X321414Y374589D01*
X321414Y374613D02*
X318898Y374613D01*
X318898Y374637D02*
X321414Y374637D01*
X321414Y374661D02*
X318898Y374661D01*
X318898Y374685D02*
X321414Y374685D01*
X321414Y374709D02*
X318898Y374709D01*
X318898Y374733D02*
X321414Y374733D01*
X321414Y374757D02*
X318898Y374757D01*
X318898Y374781D02*
X321414Y374781D01*
X321414Y374805D02*
X318898Y374805D01*
X318898Y374829D02*
X321414Y374829D01*
X321414Y374853D02*
X318898Y374853D01*
X318898Y374877D02*
X321414Y374877D01*
X321414Y374901D02*
X318898Y374901D01*
X318898Y374925D02*
X321414Y374925D01*
X321414Y374949D02*
X318898Y374949D01*
X318898Y374973D02*
X321414Y374973D01*
X321414Y374997D02*
X318898Y374997D01*
X318898Y375021D02*
X321414Y375021D01*
X321414Y375045D02*
X318898Y375045D01*
X318898Y375069D02*
X321414Y375069D01*
X321414Y375093D02*
X318898Y375093D01*
X318898Y375117D02*
X321414Y375117D01*
X321414Y375141D02*
X318898Y375141D01*
X318898Y375165D02*
X321414Y375165D01*
X321414Y375189D02*
X318898Y375189D01*
X318898Y375213D02*
X321414Y375213D01*
X321414Y375237D02*
X318898Y375237D01*
X318898Y375261D02*
X321414Y375261D01*
X321414Y375285D02*
X318898Y375285D01*
X318898Y375309D02*
X321414Y375309D01*
X321414Y375333D02*
X318898Y375333D01*
X318898Y375357D02*
X321414Y375357D01*
X321414Y375381D02*
X318898Y375381D01*
X318898Y375405D02*
X321414Y375405D01*
X321414Y375429D02*
X318898Y375429D01*
X318898Y375453D02*
X321414Y375453D01*
X321414Y375477D02*
X318898Y375477D01*
X318898Y375501D02*
X321414Y375501D01*
X321414Y375525D02*
X318898Y375525D01*
X318898Y375549D02*
X321414Y375549D01*
X321414Y375573D02*
X318898Y375573D01*
X318898Y375597D02*
X321414Y375597D01*
X321414Y375621D02*
X318898Y375621D01*
X318898Y375645D02*
X321414Y375645D01*
X321414Y375669D02*
X318898Y375669D01*
X318898Y375693D02*
X321414Y375693D01*
X321414Y375717D02*
X318898Y375717D01*
X318898Y375741D02*
X321414Y375741D01*
X321414Y375765D02*
X318898Y375765D01*
X318898Y375789D02*
X321414Y375789D01*
X321414Y375813D02*
X318898Y375813D01*
X318898Y375837D02*
X321414Y375837D01*
X321414Y375861D02*
X318898Y375861D01*
X318898Y375885D02*
X321414Y375885D01*
X321414Y375909D02*
X318898Y375909D01*
X318898Y375933D02*
X321414Y375933D01*
X321414Y375957D02*
X318898Y375957D01*
X318898Y375981D02*
X321414Y375981D01*
X321414Y376005D02*
X318898Y376005D01*
X318898Y376029D02*
X321414Y376029D01*
X321414Y376053D02*
X318898Y376053D01*
X318898Y376077D02*
X321414Y376077D01*
X321414Y376101D02*
X318898Y376101D01*
X318898Y376125D02*
X321414Y376125D01*
X321414Y376149D02*
X318898Y376149D01*
X318898Y376173D02*
X321414Y376173D01*
X321414Y376197D02*
X318898Y376197D01*
X318898Y376221D02*
X321414Y376221D01*
X321414Y376245D02*
X318898Y376245D01*
X318898Y376269D02*
X321414Y376269D01*
X321414Y376293D02*
X318898Y376293D01*
X318898Y376317D02*
X321414Y376317D01*
X321414Y376341D02*
X318898Y376341D01*
X318898Y376365D02*
X321414Y376365D01*
X321414Y376389D02*
X318898Y376389D01*
X318898Y376413D02*
X321414Y376413D01*
X321414Y376437D02*
X318898Y376437D01*
X318898Y376461D02*
X321414Y376461D01*
X321414Y376485D02*
X318898Y376485D01*
X318898Y376509D02*
X321414Y376509D01*
X321414Y376533D02*
X318898Y376533D01*
X318898Y376557D02*
X321414Y376557D01*
X321414Y376581D02*
X318898Y376581D01*
X318898Y376605D02*
X321414Y376605D01*
X321414Y376629D02*
X318898Y376629D01*
X318898Y376653D02*
X321414Y376653D01*
X321414Y376677D02*
X318898Y376677D01*
X318898Y376701D02*
X321414Y376701D01*
X321414Y376725D02*
X318898Y376725D01*
X318898Y376749D02*
X321414Y376749D01*
X321414Y376773D02*
X318898Y376773D01*
X318898Y376797D02*
X321414Y376797D01*
X321414Y376821D02*
X318898Y376821D01*
X318898Y376845D02*
X321414Y376845D01*
X321414Y376869D02*
X318898Y376869D01*
X318898Y376893D02*
X321414Y376893D01*
X321414Y376917D02*
X318898Y376917D01*
X318898Y376941D02*
X321414Y376941D01*
X321414Y376965D02*
X318898Y376965D01*
X318898Y376989D02*
X321414Y376989D01*
X321414Y377013D02*
X318898Y377013D01*
X318898Y377037D02*
X321414Y377037D01*
X321414Y377061D02*
X318898Y377061D01*
X318898Y377085D02*
X321414Y377085D01*
X321414Y377109D02*
X318898Y377109D01*
X318898Y377133D02*
X321414Y377133D01*
X321414Y377157D02*
X318898Y377157D01*
X318898Y377181D02*
X321414Y377181D01*
X321414Y377205D02*
X318898Y377205D01*
X318898Y377229D02*
X321414Y377229D01*
X321414Y377253D02*
X318898Y377253D01*
X318898Y377277D02*
X321414Y377277D01*
X321414Y377301D02*
X318898Y377301D01*
X318898Y377325D02*
X321414Y377325D01*
X321414Y377349D02*
X318898Y377349D01*
X318898Y377373D02*
X321414Y377373D01*
X321414Y377397D02*
X318898Y377397D01*
X318898Y377421D02*
X321414Y377421D01*
X321414Y377445D02*
X318898Y377445D01*
X318898Y377469D02*
X321414Y377469D01*
X321414Y377493D02*
X318898Y377493D01*
X318898Y377517D02*
X321414Y377517D01*
X321414Y377541D02*
X318898Y377541D01*
X318898Y377565D02*
X321414Y377565D01*
X321414Y377589D02*
X318898Y377589D01*
X318898Y377613D02*
X321414Y377613D01*
X321414Y377637D02*
X318898Y377637D01*
X318898Y377661D02*
X321414Y377661D01*
X321414Y377685D02*
X318898Y377685D01*
X318898Y377709D02*
X321414Y377709D01*
X321414Y377733D02*
X318898Y377733D01*
X318898Y377757D02*
X321414Y377757D01*
X321414Y377781D02*
X318898Y377781D01*
X318898Y377805D02*
X321414Y377805D01*
X321414Y377829D02*
X318898Y377829D01*
X318898Y377853D02*
X321414Y377853D01*
X321414Y377877D02*
X318898Y377877D01*
X318898Y377901D02*
X321414Y377901D01*
X321414Y377925D02*
X318898Y377925D01*
X318898Y377949D02*
X321414Y377949D01*
X321414Y377973D02*
X318898Y377973D01*
X318898Y377997D02*
X321414Y377997D01*
X321414Y378021D02*
X318898Y378021D01*
X318898Y378045D02*
X321414Y378045D01*
X321414Y378069D02*
X318898Y378069D01*
X318898Y378093D02*
X321414Y378093D01*
X321414Y378117D02*
X318898Y378117D01*
X318898Y378141D02*
X321414Y378141D01*
X321414Y378165D02*
X318898Y378165D01*
X318898Y378189D02*
X321414Y378189D01*
X321414Y378213D02*
X318898Y378213D01*
X318898Y378237D02*
X321414Y378237D01*
X321414Y378261D02*
X318898Y378261D01*
X318898Y378285D02*
X321414Y378285D01*
X321414Y378309D02*
X318898Y378309D01*
X318898Y378333D02*
X321414Y378333D01*
X321414Y378357D02*
X318898Y378357D01*
X318898Y378381D02*
X321414Y378381D01*
X321414Y378405D02*
X318898Y378405D01*
X318898Y378429D02*
X321414Y378429D01*
X321414Y378453D02*
X318898Y378453D01*
X318898Y378477D02*
X321414Y378477D01*
X321414Y378501D02*
X318898Y378501D01*
X318898Y378525D02*
X321414Y378525D01*
X321414Y378549D02*
X318898Y378549D01*
X318898Y378573D02*
X321414Y378573D01*
X321414Y378597D02*
X318898Y378597D01*
X318898Y378621D02*
X321414Y378621D01*
X321414Y378645D02*
X318898Y378645D01*
X318898Y378669D02*
X321414Y378669D01*
X321414Y378693D02*
X318898Y378693D01*
X318898Y378717D02*
X321414Y378717D01*
X321414Y378741D02*
X318898Y378741D01*
X318898Y378765D02*
X321414Y378765D01*
X321414Y378789D02*
X318898Y378789D01*
X318898Y378813D02*
X321414Y378813D01*
X321414Y378837D02*
X318898Y378837D01*
X318898Y378861D02*
X321414Y378861D01*
X321414Y378885D02*
X318898Y378885D01*
X318898Y378909D02*
X321414Y378909D01*
X321414Y378933D02*
X318898Y378933D01*
X318898Y378957D02*
X321414Y378957D01*
X321414Y378981D02*
X318898Y378981D01*
X318898Y379005D02*
X321414Y379005D01*
X321414Y379029D02*
X318898Y379029D01*
X318898Y379053D02*
X321414Y379053D01*
X321414Y379077D02*
X318898Y379077D01*
X318898Y379101D02*
X321414Y379101D01*
X321414Y379125D02*
X318898Y379125D01*
X318898Y379149D02*
X321414Y379149D01*
X321414Y379173D02*
X318898Y379173D01*
X318898Y379197D02*
X321414Y379197D01*
X321414Y379221D02*
X318898Y379221D01*
X318898Y379245D02*
X321414Y379245D01*
X321414Y379269D02*
X318898Y379269D01*
X318898Y379293D02*
X321414Y379293D01*
X321414Y379317D02*
X318898Y379317D01*
X318898Y379341D02*
X321414Y379341D01*
X321414Y379365D02*
X318898Y379365D01*
X318898Y379389D02*
X321414Y379389D01*
X321414Y379413D02*
X318898Y379413D01*
X318898Y379437D02*
X321414Y379437D01*
X321414Y379461D02*
X318898Y379461D01*
X318898Y379485D02*
X321414Y379485D01*
X321414Y379509D02*
X318898Y379509D01*
X318898Y379533D02*
X321414Y379533D01*
X321414Y379557D02*
X318898Y379557D01*
X318898Y379581D02*
X321414Y379581D01*
X321414Y379605D02*
X318898Y379605D01*
X318898Y379629D02*
X321414Y379629D01*
X321414Y379653D02*
X318898Y379653D01*
X318898Y379677D02*
X321414Y379677D01*
X321414Y379701D02*
X318898Y379701D01*
X318898Y379725D02*
X321414Y379725D01*
X321414Y379749D02*
X318898Y379749D01*
X318898Y379773D02*
X321414Y379773D01*
X321414Y379797D02*
X318898Y379797D01*
X318898Y379821D02*
X321414Y379821D01*
X321414Y379845D02*
X318898Y379845D01*
X318898Y379869D02*
X321414Y379869D01*
X321414Y379893D02*
X318898Y379893D01*
D17*
X325157Y375857D03*
X330159Y375857D03*
X335160Y375857D03*
X340161Y375857D03*
X345162Y375857D03*
X350164Y375857D03*
X355165Y375857D03*
X360166Y375857D03*
X365167Y375857D03*
X370169Y375857D03*
D15*
X373912Y371805D02*
X376428Y371805D01*
X373912Y371805D02*
X373912Y379909D01*
X376428Y379909D01*
X376428Y371805D01*
X376428Y371829D02*
X373912Y371829D01*
X373912Y371853D02*
X376428Y371853D01*
X376428Y371877D02*
X373912Y371877D01*
X373912Y371901D02*
X376428Y371901D01*
X376428Y371925D02*
X373912Y371925D01*
X373912Y371949D02*
X376428Y371949D01*
X376428Y371973D02*
X373912Y371973D01*
X373912Y371997D02*
X376428Y371997D01*
X376428Y372021D02*
X373912Y372021D01*
X373912Y372045D02*
X376428Y372045D01*
X376428Y372069D02*
X373912Y372069D01*
X373912Y372093D02*
X376428Y372093D01*
X376428Y372117D02*
X373912Y372117D01*
X373912Y372141D02*
X376428Y372141D01*
X376428Y372165D02*
X373912Y372165D01*
X373912Y372189D02*
X376428Y372189D01*
X376428Y372213D02*
X373912Y372213D01*
X373912Y372237D02*
X376428Y372237D01*
X376428Y372261D02*
X373912Y372261D01*
X373912Y372285D02*
X376428Y372285D01*
X376428Y372309D02*
X373912Y372309D01*
X373912Y372333D02*
X376428Y372333D01*
X376428Y372357D02*
X373912Y372357D01*
X373912Y372381D02*
X376428Y372381D01*
X376428Y372405D02*
X373912Y372405D01*
X373912Y372429D02*
X376428Y372429D01*
X376428Y372453D02*
X373912Y372453D01*
X373912Y372477D02*
X376428Y372477D01*
X376428Y372501D02*
X373912Y372501D01*
X373912Y372525D02*
X376428Y372525D01*
X376428Y372549D02*
X373912Y372549D01*
X373912Y372573D02*
X376428Y372573D01*
X376428Y372597D02*
X373912Y372597D01*
X373912Y372621D02*
X376428Y372621D01*
X376428Y372645D02*
X373912Y372645D01*
X373912Y372669D02*
X376428Y372669D01*
X376428Y372693D02*
X373912Y372693D01*
X373912Y372717D02*
X376428Y372717D01*
X376428Y372741D02*
X373912Y372741D01*
X373912Y372765D02*
X376428Y372765D01*
X376428Y372789D02*
X373912Y372789D01*
X373912Y372813D02*
X376428Y372813D01*
X376428Y372837D02*
X373912Y372837D01*
X373912Y372861D02*
X376428Y372861D01*
X376428Y372885D02*
X373912Y372885D01*
X373912Y372909D02*
X376428Y372909D01*
X376428Y372933D02*
X373912Y372933D01*
X373912Y372957D02*
X376428Y372957D01*
X376428Y372981D02*
X373912Y372981D01*
X373912Y373005D02*
X376428Y373005D01*
X376428Y373029D02*
X373912Y373029D01*
X373912Y373053D02*
X376428Y373053D01*
X376428Y373077D02*
X373912Y373077D01*
X373912Y373101D02*
X376428Y373101D01*
X376428Y373125D02*
X373912Y373125D01*
X373912Y373149D02*
X376428Y373149D01*
X376428Y373173D02*
X373912Y373173D01*
X373912Y373197D02*
X376428Y373197D01*
X376428Y373221D02*
X373912Y373221D01*
X373912Y373245D02*
X376428Y373245D01*
X376428Y373269D02*
X373912Y373269D01*
X373912Y373293D02*
X376428Y373293D01*
X376428Y373317D02*
X373912Y373317D01*
X373912Y373341D02*
X376428Y373341D01*
X376428Y373365D02*
X373912Y373365D01*
X373912Y373389D02*
X376428Y373389D01*
X376428Y373413D02*
X373912Y373413D01*
X373912Y373437D02*
X376428Y373437D01*
X376428Y373461D02*
X373912Y373461D01*
X373912Y373485D02*
X376428Y373485D01*
X376428Y373509D02*
X373912Y373509D01*
X373912Y373533D02*
X376428Y373533D01*
X376428Y373557D02*
X373912Y373557D01*
X373912Y373581D02*
X376428Y373581D01*
X376428Y373605D02*
X373912Y373605D01*
X373912Y373629D02*
X376428Y373629D01*
X376428Y373653D02*
X373912Y373653D01*
X373912Y373677D02*
X376428Y373677D01*
X376428Y373701D02*
X373912Y373701D01*
X373912Y373725D02*
X376428Y373725D01*
X376428Y373749D02*
X373912Y373749D01*
X373912Y373773D02*
X376428Y373773D01*
X376428Y373797D02*
X373912Y373797D01*
X373912Y373821D02*
X376428Y373821D01*
X376428Y373845D02*
X373912Y373845D01*
X373912Y373869D02*
X376428Y373869D01*
X376428Y373893D02*
X373912Y373893D01*
X373912Y373917D02*
X376428Y373917D01*
X376428Y373941D02*
X373912Y373941D01*
X373912Y373965D02*
X376428Y373965D01*
X376428Y373989D02*
X373912Y373989D01*
X373912Y374013D02*
X376428Y374013D01*
X376428Y374037D02*
X373912Y374037D01*
X373912Y374061D02*
X376428Y374061D01*
X376428Y374085D02*
X373912Y374085D01*
X373912Y374109D02*
X376428Y374109D01*
X376428Y374133D02*
X373912Y374133D01*
X373912Y374157D02*
X376428Y374157D01*
X376428Y374181D02*
X373912Y374181D01*
X373912Y374205D02*
X376428Y374205D01*
X376428Y374229D02*
X373912Y374229D01*
X373912Y374253D02*
X376428Y374253D01*
X376428Y374277D02*
X373912Y374277D01*
X373912Y374301D02*
X376428Y374301D01*
X376428Y374325D02*
X373912Y374325D01*
X373912Y374349D02*
X376428Y374349D01*
X376428Y374373D02*
X373912Y374373D01*
X373912Y374397D02*
X376428Y374397D01*
X376428Y374421D02*
X373912Y374421D01*
X373912Y374445D02*
X376428Y374445D01*
X376428Y374469D02*
X373912Y374469D01*
X373912Y374493D02*
X376428Y374493D01*
X376428Y374517D02*
X373912Y374517D01*
X373912Y374541D02*
X376428Y374541D01*
X376428Y374565D02*
X373912Y374565D01*
X373912Y374589D02*
X376428Y374589D01*
X376428Y374613D02*
X373912Y374613D01*
X373912Y374637D02*
X376428Y374637D01*
X376428Y374661D02*
X373912Y374661D01*
X373912Y374685D02*
X376428Y374685D01*
X376428Y374709D02*
X373912Y374709D01*
X373912Y374733D02*
X376428Y374733D01*
X376428Y374757D02*
X373912Y374757D01*
X373912Y374781D02*
X376428Y374781D01*
X376428Y374805D02*
X373912Y374805D01*
X373912Y374829D02*
X376428Y374829D01*
X376428Y374853D02*
X373912Y374853D01*
X373912Y374877D02*
X376428Y374877D01*
X376428Y374901D02*
X373912Y374901D01*
X373912Y374925D02*
X376428Y374925D01*
X376428Y374949D02*
X373912Y374949D01*
X373912Y374973D02*
X376428Y374973D01*
X376428Y374997D02*
X373912Y374997D01*
X373912Y375021D02*
X376428Y375021D01*
X376428Y375045D02*
X373912Y375045D01*
X373912Y375069D02*
X376428Y375069D01*
X376428Y375093D02*
X373912Y375093D01*
X373912Y375117D02*
X376428Y375117D01*
X376428Y375141D02*
X373912Y375141D01*
X373912Y375165D02*
X376428Y375165D01*
X376428Y375189D02*
X373912Y375189D01*
X373912Y375213D02*
X376428Y375213D01*
X376428Y375237D02*
X373912Y375237D01*
X373912Y375261D02*
X376428Y375261D01*
X376428Y375285D02*
X373912Y375285D01*
X373912Y375309D02*
X376428Y375309D01*
X376428Y375333D02*
X373912Y375333D01*
X373912Y375357D02*
X376428Y375357D01*
X376428Y375381D02*
X373912Y375381D01*
X373912Y375405D02*
X376428Y375405D01*
X376428Y375429D02*
X373912Y375429D01*
X373912Y375453D02*
X376428Y375453D01*
X376428Y375477D02*
X373912Y375477D01*
X373912Y375501D02*
X376428Y375501D01*
X376428Y375525D02*
X373912Y375525D01*
X373912Y375549D02*
X376428Y375549D01*
X376428Y375573D02*
X373912Y375573D01*
X373912Y375597D02*
X376428Y375597D01*
X376428Y375621D02*
X373912Y375621D01*
X373912Y375645D02*
X376428Y375645D01*
X376428Y375669D02*
X373912Y375669D01*
X373912Y375693D02*
X376428Y375693D01*
X376428Y375717D02*
X373912Y375717D01*
X373912Y375741D02*
X376428Y375741D01*
X376428Y375765D02*
X373912Y375765D01*
X373912Y375789D02*
X376428Y375789D01*
X376428Y375813D02*
X373912Y375813D01*
X373912Y375837D02*
X376428Y375837D01*
X376428Y375861D02*
X373912Y375861D01*
X373912Y375885D02*
X376428Y375885D01*
X376428Y375909D02*
X373912Y375909D01*
X373912Y375933D02*
X376428Y375933D01*
X376428Y375957D02*
X373912Y375957D01*
X373912Y375981D02*
X376428Y375981D01*
X376428Y376005D02*
X373912Y376005D01*
X373912Y376029D02*
X376428Y376029D01*
X376428Y376053D02*
X373912Y376053D01*
X373912Y376077D02*
X376428Y376077D01*
X376428Y376101D02*
X373912Y376101D01*
X373912Y376125D02*
X376428Y376125D01*
X376428Y376149D02*
X373912Y376149D01*
X373912Y376173D02*
X376428Y376173D01*
X376428Y376197D02*
X373912Y376197D01*
X373912Y376221D02*
X376428Y376221D01*
X376428Y376245D02*
X373912Y376245D01*
X373912Y376269D02*
X376428Y376269D01*
X376428Y376293D02*
X373912Y376293D01*
X373912Y376317D02*
X376428Y376317D01*
X376428Y376341D02*
X373912Y376341D01*
X373912Y376365D02*
X376428Y376365D01*
X376428Y376389D02*
X373912Y376389D01*
X373912Y376413D02*
X376428Y376413D01*
X376428Y376437D02*
X373912Y376437D01*
X373912Y376461D02*
X376428Y376461D01*
X376428Y376485D02*
X373912Y376485D01*
X373912Y376509D02*
X376428Y376509D01*
X376428Y376533D02*
X373912Y376533D01*
X373912Y376557D02*
X376428Y376557D01*
X376428Y376581D02*
X373912Y376581D01*
X373912Y376605D02*
X376428Y376605D01*
X376428Y376629D02*
X373912Y376629D01*
X373912Y376653D02*
X376428Y376653D01*
X376428Y376677D02*
X373912Y376677D01*
X373912Y376701D02*
X376428Y376701D01*
X376428Y376725D02*
X373912Y376725D01*
X373912Y376749D02*
X376428Y376749D01*
X376428Y376773D02*
X373912Y376773D01*
X373912Y376797D02*
X376428Y376797D01*
X376428Y376821D02*
X373912Y376821D01*
X373912Y376845D02*
X376428Y376845D01*
X376428Y376869D02*
X373912Y376869D01*
X373912Y376893D02*
X376428Y376893D01*
X376428Y376917D02*
X373912Y376917D01*
X373912Y376941D02*
X376428Y376941D01*
X376428Y376965D02*
X373912Y376965D01*
X373912Y376989D02*
X376428Y376989D01*
X376428Y377013D02*
X373912Y377013D01*
X373912Y377037D02*
X376428Y377037D01*
X376428Y377061D02*
X373912Y377061D01*
X373912Y377085D02*
X376428Y377085D01*
X376428Y377109D02*
X373912Y377109D01*
X373912Y377133D02*
X376428Y377133D01*
X376428Y377157D02*
X373912Y377157D01*
X373912Y377181D02*
X376428Y377181D01*
X376428Y377205D02*
X373912Y377205D01*
X373912Y377229D02*
X376428Y377229D01*
X376428Y377253D02*
X373912Y377253D01*
X373912Y377277D02*
X376428Y377277D01*
X376428Y377301D02*
X373912Y377301D01*
X373912Y377325D02*
X376428Y377325D01*
X376428Y377349D02*
X373912Y377349D01*
X373912Y377373D02*
X376428Y377373D01*
X376428Y377397D02*
X373912Y377397D01*
X373912Y377421D02*
X376428Y377421D01*
X376428Y377445D02*
X373912Y377445D01*
X373912Y377469D02*
X376428Y377469D01*
X376428Y377493D02*
X373912Y377493D01*
X373912Y377517D02*
X376428Y377517D01*
X376428Y377541D02*
X373912Y377541D01*
X373912Y377565D02*
X376428Y377565D01*
X376428Y377589D02*
X373912Y377589D01*
X373912Y377613D02*
X376428Y377613D01*
X376428Y377637D02*
X373912Y377637D01*
X373912Y377661D02*
X376428Y377661D01*
X376428Y377685D02*
X373912Y377685D01*
X373912Y377709D02*
X376428Y377709D01*
X376428Y377733D02*
X373912Y377733D01*
X373912Y377757D02*
X376428Y377757D01*
X376428Y377781D02*
X373912Y377781D01*
X373912Y377805D02*
X376428Y377805D01*
X376428Y377829D02*
X373912Y377829D01*
X373912Y377853D02*
X376428Y377853D01*
X376428Y377877D02*
X373912Y377877D01*
X373912Y377901D02*
X376428Y377901D01*
X376428Y377925D02*
X373912Y377925D01*
X373912Y377949D02*
X376428Y377949D01*
X376428Y377973D02*
X373912Y377973D01*
X373912Y377997D02*
X376428Y377997D01*
X376428Y378021D02*
X373912Y378021D01*
X373912Y378045D02*
X376428Y378045D01*
X376428Y378069D02*
X373912Y378069D01*
X373912Y378093D02*
X376428Y378093D01*
X376428Y378117D02*
X373912Y378117D01*
X373912Y378141D02*
X376428Y378141D01*
X376428Y378165D02*
X373912Y378165D01*
X373912Y378189D02*
X376428Y378189D01*
X376428Y378213D02*
X373912Y378213D01*
X373912Y378237D02*
X376428Y378237D01*
X376428Y378261D02*
X373912Y378261D01*
X373912Y378285D02*
X376428Y378285D01*
X376428Y378309D02*
X373912Y378309D01*
X373912Y378333D02*
X376428Y378333D01*
X376428Y378357D02*
X373912Y378357D01*
X373912Y378381D02*
X376428Y378381D01*
X376428Y378405D02*
X373912Y378405D01*
X373912Y378429D02*
X376428Y378429D01*
X376428Y378453D02*
X373912Y378453D01*
X373912Y378477D02*
X376428Y378477D01*
X376428Y378501D02*
X373912Y378501D01*
X373912Y378525D02*
X376428Y378525D01*
X376428Y378549D02*
X373912Y378549D01*
X373912Y378573D02*
X376428Y378573D01*
X376428Y378597D02*
X373912Y378597D01*
X373912Y378621D02*
X376428Y378621D01*
X376428Y378645D02*
X373912Y378645D01*
X373912Y378669D02*
X376428Y378669D01*
X376428Y378693D02*
X373912Y378693D01*
X373912Y378717D02*
X376428Y378717D01*
X376428Y378741D02*
X373912Y378741D01*
X373912Y378765D02*
X376428Y378765D01*
X376428Y378789D02*
X373912Y378789D01*
X373912Y378813D02*
X376428Y378813D01*
X376428Y378837D02*
X373912Y378837D01*
X373912Y378861D02*
X376428Y378861D01*
X376428Y378885D02*
X373912Y378885D01*
X373912Y378909D02*
X376428Y378909D01*
X376428Y378933D02*
X373912Y378933D01*
X373912Y378957D02*
X376428Y378957D01*
X376428Y378981D02*
X373912Y378981D01*
X373912Y379005D02*
X376428Y379005D01*
X376428Y379029D02*
X373912Y379029D01*
X373912Y379053D02*
X376428Y379053D01*
X376428Y379077D02*
X373912Y379077D01*
X373912Y379101D02*
X376428Y379101D01*
X376428Y379125D02*
X373912Y379125D01*
X373912Y379149D02*
X376428Y379149D01*
X376428Y379173D02*
X373912Y379173D01*
X373912Y379197D02*
X376428Y379197D01*
X376428Y379221D02*
X373912Y379221D01*
X373912Y379245D02*
X376428Y379245D01*
X376428Y379269D02*
X373912Y379269D01*
X373912Y379293D02*
X376428Y379293D01*
X376428Y379317D02*
X373912Y379317D01*
X373912Y379341D02*
X376428Y379341D01*
X376428Y379365D02*
X373912Y379365D01*
X373912Y379389D02*
X376428Y379389D01*
X376428Y379413D02*
X373912Y379413D01*
X373912Y379437D02*
X376428Y379437D01*
X376428Y379461D02*
X373912Y379461D01*
X373912Y379485D02*
X376428Y379485D01*
X376428Y379509D02*
X373912Y379509D01*
X373912Y379533D02*
X376428Y379533D01*
X376428Y379557D02*
X373912Y379557D01*
X373912Y379581D02*
X376428Y379581D01*
X376428Y379605D02*
X373912Y379605D01*
X373912Y379629D02*
X376428Y379629D01*
X376428Y379653D02*
X373912Y379653D01*
X373912Y379677D02*
X376428Y379677D01*
X376428Y379701D02*
X373912Y379701D01*
X373912Y379725D02*
X376428Y379725D01*
X376428Y379749D02*
X373912Y379749D01*
X373912Y379773D02*
X376428Y379773D01*
X376428Y379797D02*
X373912Y379797D01*
X373912Y379821D02*
X376428Y379821D01*
X376428Y379845D02*
X373912Y379845D01*
X373912Y379869D02*
X376428Y379869D01*
X376428Y379893D02*
X373912Y379893D01*
M02*
