G04 EAGLE Gerber RS-274X export*
G75*
%MOMM*%
%FSLAX34Y34*%
%LPD*%
%INSoldermask Bottom*%
%IPPOS*%
%AMOC8*
5,1,8,0,0,1.08239X$1,22.5*%
G01*
%ADD10R,1.201600X1.101600*%
%ADD11R,1.401600X1.601600*%
%ADD12R,1.101600X1.201600*%
%ADD13R,1.501597X0.501600*%
%ADD14P,1.759533X8X22.500000*%
%ADD15R,1.601600X1.401600*%
%ADD16C,1.101600*%
%ADD17C,1.625600*%
%ADD18C,0.103122*%
%ADD19R,0.914400X0.355600*%
%ADD20R,0.355600X0.914400*%
%ADD21R,5.486400X5.486400*%

G36*
X363104Y190819D02*
X363104Y190819D01*
X363133Y190817D01*
X363200Y190839D01*
X363270Y190853D01*
X363294Y190869D01*
X363322Y190878D01*
X363375Y190925D01*
X363434Y190965D01*
X363450Y190990D01*
X363472Y191009D01*
X363503Y191073D01*
X363541Y191133D01*
X363546Y191162D01*
X363558Y191188D01*
X363567Y191287D01*
X363574Y191329D01*
X363571Y191340D01*
X363573Y191354D01*
X363341Y194152D01*
X363331Y194185D01*
X363327Y194233D01*
X362638Y196955D01*
X362623Y196986D01*
X362611Y197033D01*
X361483Y199604D01*
X361463Y199632D01*
X361444Y199677D01*
X359908Y202027D01*
X359884Y202052D01*
X359858Y202092D01*
X357956Y204158D01*
X357928Y204178D01*
X357895Y204214D01*
X355680Y205938D01*
X355649Y205954D01*
X355611Y205983D01*
X353141Y207320D01*
X353108Y207330D01*
X353066Y207353D01*
X351880Y207760D01*
X350426Y208259D01*
X350410Y208265D01*
X350376Y208269D01*
X350330Y208285D01*
X347561Y208747D01*
X347526Y208746D01*
X347479Y208754D01*
X344671Y208754D01*
X344637Y208747D01*
X344589Y208747D01*
X341820Y208285D01*
X341787Y208272D01*
X341740Y208265D01*
X339084Y207353D01*
X339054Y207335D01*
X339009Y207320D01*
X336539Y205983D01*
X336513Y205961D01*
X336470Y205938D01*
X334255Y204214D01*
X334232Y204187D01*
X334194Y204158D01*
X332292Y202092D01*
X332274Y202063D01*
X332242Y202027D01*
X330706Y199677D01*
X330693Y199644D01*
X330667Y199604D01*
X329539Y197033D01*
X329532Y196999D01*
X329529Y196993D01*
X329523Y196984D01*
X329522Y196978D01*
X329512Y196955D01*
X328823Y194233D01*
X328821Y194198D01*
X328809Y194152D01*
X328577Y191354D01*
X328581Y191325D01*
X328576Y191296D01*
X328593Y191227D01*
X328601Y191156D01*
X328615Y191131D01*
X328622Y191103D01*
X328664Y191045D01*
X328699Y190984D01*
X328723Y190966D01*
X328740Y190942D01*
X328801Y190906D01*
X328858Y190863D01*
X328886Y190856D01*
X328911Y190841D01*
X329009Y190824D01*
X329050Y190814D01*
X329061Y190816D01*
X329075Y190813D01*
X363075Y190813D01*
X363104Y190819D01*
G37*
G36*
X347513Y473878D02*
X347513Y473878D01*
X347561Y473878D01*
X350330Y474340D01*
X350363Y474353D01*
X350410Y474361D01*
X353066Y475272D01*
X353096Y475290D01*
X353141Y475305D01*
X355611Y476642D01*
X355637Y476664D01*
X355680Y476687D01*
X357895Y478411D01*
X357918Y478438D01*
X357956Y478467D01*
X359858Y480533D01*
X359876Y480562D01*
X359908Y480598D01*
X361444Y482948D01*
X361457Y482981D01*
X361483Y483021D01*
X362611Y485592D01*
X362618Y485626D01*
X362638Y485670D01*
X363327Y488392D01*
X363329Y488427D01*
X363341Y488473D01*
X363573Y491271D01*
X363569Y491300D01*
X363574Y491329D01*
X363558Y491398D01*
X363549Y491469D01*
X363535Y491494D01*
X363528Y491522D01*
X363486Y491580D01*
X363451Y491641D01*
X363427Y491659D01*
X363410Y491683D01*
X363349Y491719D01*
X363292Y491762D01*
X363264Y491769D01*
X363239Y491784D01*
X363141Y491801D01*
X363100Y491811D01*
X363089Y491809D01*
X363075Y491812D01*
X329075Y491812D01*
X329046Y491806D01*
X329017Y491808D01*
X328950Y491786D01*
X328880Y491772D01*
X328856Y491756D01*
X328828Y491747D01*
X328775Y491700D01*
X328716Y491660D01*
X328701Y491635D01*
X328679Y491616D01*
X328647Y491552D01*
X328609Y491492D01*
X328604Y491463D01*
X328592Y491437D01*
X328583Y491338D01*
X328576Y491296D01*
X328579Y491285D01*
X328577Y491271D01*
X328809Y488473D01*
X328819Y488440D01*
X328823Y488392D01*
X329512Y485670D01*
X329527Y485639D01*
X329539Y485592D01*
X330667Y483021D01*
X330687Y482993D01*
X330706Y482948D01*
X332242Y480598D01*
X332266Y480573D01*
X332292Y480533D01*
X334194Y478467D01*
X334222Y478447D01*
X334255Y478411D01*
X336470Y476687D01*
X336501Y476671D01*
X336539Y476642D01*
X339009Y475305D01*
X339042Y475295D01*
X339084Y475272D01*
X341740Y474361D01*
X341774Y474356D01*
X341820Y474340D01*
X344589Y473878D01*
X344624Y473879D01*
X344671Y473871D01*
X347479Y473871D01*
X347513Y473878D01*
G37*
G36*
X224682Y251122D02*
X224682Y251122D01*
X224753Y251119D01*
X224780Y251130D01*
X224809Y251132D01*
X224899Y251174D01*
X224939Y251189D01*
X224947Y251197D01*
X224960Y251202D01*
X227263Y252802D01*
X227287Y252827D01*
X227327Y252854D01*
X229336Y254811D01*
X229355Y254840D01*
X229390Y254874D01*
X231049Y257134D01*
X231064Y257166D01*
X231093Y257205D01*
X232357Y259708D01*
X232366Y259741D01*
X232388Y259784D01*
X233224Y262461D01*
X233227Y262496D01*
X233242Y262542D01*
X233625Y265320D01*
X233623Y265355D01*
X233629Y265402D01*
X233550Y268206D01*
X233542Y268240D01*
X233541Y268288D01*
X233002Y271040D01*
X232988Y271072D01*
X232979Y271119D01*
X231994Y273745D01*
X231979Y273770D01*
X231974Y273789D01*
X231966Y273800D01*
X231959Y273819D01*
X230555Y276247D01*
X230532Y276273D01*
X230508Y276315D01*
X228724Y278479D01*
X228697Y278500D01*
X228666Y278538D01*
X226550Y280378D01*
X226520Y280395D01*
X226484Y280427D01*
X224093Y281894D01*
X224061Y281906D01*
X224020Y281931D01*
X221421Y282985D01*
X221387Y282991D01*
X221342Y283009D01*
X218605Y283621D01*
X218570Y283622D01*
X218523Y283632D01*
X215723Y283785D01*
X215689Y283780D01*
X215641Y283783D01*
X212853Y283472D01*
X212820Y283462D01*
X212772Y283456D01*
X210074Y282691D01*
X210044Y282676D01*
X209997Y282662D01*
X207462Y281464D01*
X207438Y281446D01*
X207411Y281436D01*
X207359Y281387D01*
X207302Y281345D01*
X207288Y281320D01*
X207267Y281300D01*
X207238Y281234D01*
X207202Y281173D01*
X207199Y281144D01*
X207187Y281117D01*
X207186Y281046D01*
X207177Y280976D01*
X207185Y280948D01*
X207185Y280918D01*
X207219Y280826D01*
X207231Y280784D01*
X207238Y280776D01*
X207243Y280763D01*
X224243Y251363D01*
X224262Y251341D01*
X224275Y251314D01*
X224328Y251267D01*
X224375Y251214D01*
X224401Y251201D01*
X224423Y251182D01*
X224490Y251159D01*
X224554Y251128D01*
X224583Y251127D01*
X224611Y251117D01*
X224682Y251122D01*
G37*
G36*
X476461Y398845D02*
X476461Y398845D01*
X476509Y398843D01*
X479297Y399153D01*
X479330Y399163D01*
X479378Y399169D01*
X482076Y399934D01*
X482106Y399950D01*
X482153Y399963D01*
X484688Y401161D01*
X484712Y401179D01*
X484739Y401189D01*
X484791Y401238D01*
X484848Y401280D01*
X484862Y401305D01*
X484884Y401325D01*
X484912Y401391D01*
X484948Y401452D01*
X484951Y401481D01*
X484963Y401508D01*
X484964Y401579D01*
X484973Y401649D01*
X484965Y401677D01*
X484965Y401707D01*
X484931Y401799D01*
X484919Y401841D01*
X484912Y401850D01*
X484907Y401862D01*
X467907Y431262D01*
X467888Y431284D01*
X467875Y431311D01*
X467822Y431358D01*
X467775Y431411D01*
X467749Y431424D01*
X467727Y431443D01*
X467660Y431466D01*
X467596Y431497D01*
X467567Y431498D01*
X467539Y431508D01*
X467468Y431503D01*
X467397Y431506D01*
X467370Y431495D01*
X467341Y431493D01*
X467251Y431451D01*
X467211Y431436D01*
X467203Y431429D01*
X467190Y431423D01*
X464887Y429823D01*
X464863Y429798D01*
X464823Y429771D01*
X462814Y427814D01*
X462795Y427785D01*
X462760Y427751D01*
X461101Y425491D01*
X461086Y425459D01*
X461057Y425420D01*
X459793Y422917D01*
X459784Y422884D01*
X459762Y422841D01*
X458926Y420164D01*
X458923Y420129D01*
X458908Y420083D01*
X458525Y417305D01*
X458527Y417270D01*
X458521Y417223D01*
X458600Y414419D01*
X458608Y414385D01*
X458609Y414337D01*
X459148Y411585D01*
X459162Y411553D01*
X459171Y411506D01*
X460156Y408880D01*
X460174Y408851D01*
X460191Y408806D01*
X461595Y406378D01*
X461618Y406352D01*
X461642Y406310D01*
X463426Y404146D01*
X463453Y404125D01*
X463484Y404087D01*
X465600Y402247D01*
X465630Y402230D01*
X465666Y402198D01*
X468057Y400731D01*
X468089Y400719D01*
X468130Y400694D01*
X470729Y399640D01*
X470763Y399634D01*
X470808Y399616D01*
X473545Y399004D01*
X473580Y399003D01*
X473627Y398993D01*
X476427Y398840D01*
X476461Y398845D01*
G37*
G36*
X467501Y251123D02*
X467501Y251123D01*
X467572Y251123D01*
X467599Y251134D01*
X467628Y251137D01*
X467690Y251172D01*
X467755Y251199D01*
X467776Y251220D01*
X467801Y251234D01*
X467864Y251311D01*
X467894Y251341D01*
X467898Y251352D01*
X467907Y251363D01*
X484907Y280763D01*
X484916Y280790D01*
X484933Y280814D01*
X484948Y280884D01*
X484970Y280951D01*
X484968Y280980D01*
X484974Y281009D01*
X484961Y281079D01*
X484955Y281149D01*
X484942Y281175D01*
X484936Y281204D01*
X484896Y281263D01*
X484864Y281326D01*
X484841Y281345D01*
X484825Y281369D01*
X484743Y281426D01*
X484710Y281453D01*
X484700Y281456D01*
X484688Y281464D01*
X482153Y282662D01*
X482119Y282671D01*
X482076Y282691D01*
X479378Y283456D01*
X479343Y283459D01*
X479297Y283472D01*
X476509Y283783D01*
X476475Y283779D01*
X476427Y283785D01*
X473627Y283632D01*
X473593Y283623D01*
X473545Y283621D01*
X470808Y283009D01*
X470776Y282995D01*
X470729Y282985D01*
X468130Y281931D01*
X468101Y281912D01*
X468057Y281894D01*
X465666Y280427D01*
X465641Y280403D01*
X465600Y280378D01*
X463484Y278538D01*
X463463Y278510D01*
X463426Y278479D01*
X461642Y276315D01*
X461626Y276284D01*
X461595Y276247D01*
X460191Y273819D01*
X460180Y273787D01*
X460173Y273774D01*
X460163Y273759D01*
X460163Y273757D01*
X460156Y273745D01*
X459171Y271119D01*
X459165Y271085D01*
X459148Y271040D01*
X458609Y268288D01*
X458609Y268253D01*
X458600Y268206D01*
X458521Y265402D01*
X458527Y265368D01*
X458525Y265320D01*
X458908Y262542D01*
X458920Y262509D01*
X458926Y262461D01*
X459762Y259784D01*
X459779Y259754D01*
X459793Y259708D01*
X461057Y257205D01*
X461079Y257177D01*
X461101Y257134D01*
X462760Y254874D01*
X462786Y254850D01*
X462814Y254811D01*
X464823Y252854D01*
X464852Y252836D01*
X464887Y252802D01*
X467190Y251202D01*
X467217Y251191D01*
X467240Y251172D01*
X467308Y251152D01*
X467373Y251124D01*
X467402Y251124D01*
X467430Y251115D01*
X467501Y251123D01*
G37*
G36*
X218523Y398993D02*
X218523Y398993D01*
X218557Y399002D01*
X218605Y399004D01*
X221342Y399616D01*
X221374Y399630D01*
X221421Y399640D01*
X224020Y400694D01*
X224049Y400713D01*
X224093Y400731D01*
X226484Y402198D01*
X226509Y402222D01*
X226550Y402247D01*
X228666Y404087D01*
X228687Y404115D01*
X228724Y404146D01*
X230508Y406310D01*
X230524Y406341D01*
X230555Y406378D01*
X231959Y408806D01*
X231970Y408838D01*
X231994Y408880D01*
X232979Y411506D01*
X232985Y411540D01*
X233002Y411585D01*
X233541Y414337D01*
X233541Y414372D01*
X233550Y414419D01*
X233629Y417223D01*
X233624Y417257D01*
X233625Y417305D01*
X233242Y420083D01*
X233230Y420116D01*
X233224Y420164D01*
X232388Y422841D01*
X232371Y422871D01*
X232357Y422917D01*
X231093Y425420D01*
X231071Y425448D01*
X231049Y425491D01*
X229390Y427751D01*
X229364Y427775D01*
X229336Y427814D01*
X227327Y429771D01*
X227298Y429789D01*
X227263Y429823D01*
X224960Y431423D01*
X224933Y431434D01*
X224910Y431453D01*
X224842Y431473D01*
X224777Y431501D01*
X224748Y431501D01*
X224720Y431510D01*
X224649Y431502D01*
X224578Y431502D01*
X224551Y431491D01*
X224522Y431488D01*
X224460Y431453D01*
X224395Y431426D01*
X224374Y431405D01*
X224349Y431391D01*
X224286Y431314D01*
X224256Y431284D01*
X224252Y431273D01*
X224243Y431262D01*
X207243Y401862D01*
X207234Y401835D01*
X207217Y401811D01*
X207202Y401741D01*
X207180Y401674D01*
X207182Y401645D01*
X207176Y401616D01*
X207189Y401546D01*
X207195Y401476D01*
X207208Y401450D01*
X207214Y401421D01*
X207254Y401362D01*
X207286Y401299D01*
X207309Y401280D01*
X207325Y401256D01*
X207407Y401199D01*
X207440Y401172D01*
X207450Y401169D01*
X207462Y401161D01*
X209997Y399963D01*
X210031Y399954D01*
X210074Y399934D01*
X212772Y399169D01*
X212807Y399166D01*
X212853Y399153D01*
X215641Y398843D01*
X215675Y398846D01*
X215723Y398840D01*
X218523Y398993D01*
G37*
G36*
X509802Y324323D02*
X509802Y324323D01*
X509873Y324323D01*
X509900Y324334D01*
X509929Y324337D01*
X509991Y324373D01*
X510056Y324400D01*
X510077Y324421D01*
X510102Y324435D01*
X510165Y324512D01*
X510195Y324543D01*
X510199Y324553D01*
X510208Y324563D01*
X519708Y341063D01*
X519718Y341095D01*
X519727Y341108D01*
X519731Y341133D01*
X519732Y341136D01*
X519763Y341207D01*
X519763Y341230D01*
X519771Y341252D01*
X519765Y341329D01*
X519766Y341406D01*
X519756Y341430D01*
X519755Y341450D01*
X519734Y341490D01*
X519708Y341562D01*
X510208Y358062D01*
X510189Y358083D01*
X510176Y358110D01*
X510123Y358157D01*
X510076Y358211D01*
X510050Y358223D01*
X510029Y358243D01*
X509961Y358266D01*
X509897Y358297D01*
X509868Y358298D01*
X509841Y358307D01*
X509769Y358303D01*
X509698Y358306D01*
X509671Y358296D01*
X509642Y358294D01*
X509552Y358251D01*
X509512Y358237D01*
X509504Y358229D01*
X509491Y358223D01*
X506968Y356482D01*
X506944Y356457D01*
X506906Y356431D01*
X504694Y354307D01*
X504675Y354279D01*
X504641Y354247D01*
X502799Y351795D01*
X502785Y351765D01*
X502756Y351727D01*
X501331Y349012D01*
X501322Y348981D01*
X501306Y348956D01*
X501305Y348948D01*
X501300Y348939D01*
X500329Y346030D01*
X500325Y345996D01*
X500310Y345952D01*
X499818Y342926D01*
X499819Y342892D01*
X499811Y342846D01*
X499811Y339779D01*
X499812Y339776D01*
X499812Y339773D01*
X499818Y339747D01*
X499818Y339746D01*
X499818Y339699D01*
X500310Y336673D01*
X500322Y336641D01*
X500329Y336595D01*
X501300Y333686D01*
X501317Y333657D01*
X501331Y333613D01*
X502756Y330898D01*
X502778Y330871D01*
X502799Y330830D01*
X504641Y328378D01*
X504666Y328356D01*
X504694Y328318D01*
X506906Y326194D01*
X506934Y326176D01*
X506968Y326143D01*
X509491Y324402D01*
X509518Y324390D01*
X509540Y324372D01*
X509609Y324352D01*
X509674Y324324D01*
X509703Y324323D01*
X509731Y324315D01*
X509802Y324323D01*
G37*
G36*
X182381Y324322D02*
X182381Y324322D01*
X182452Y324319D01*
X182479Y324329D01*
X182508Y324331D01*
X182598Y324374D01*
X182638Y324388D01*
X182646Y324396D01*
X182659Y324402D01*
X185182Y326143D01*
X185206Y326168D01*
X185244Y326194D01*
X187456Y328318D01*
X187475Y328346D01*
X187509Y328378D01*
X189351Y330830D01*
X189365Y330860D01*
X189394Y330898D01*
X190819Y333613D01*
X190828Y333645D01*
X190850Y333686D01*
X191821Y336595D01*
X191825Y336629D01*
X191840Y336673D01*
X192332Y339699D01*
X192331Y339733D01*
X192339Y339779D01*
X192339Y342846D01*
X192332Y342879D01*
X192332Y342926D01*
X191840Y345952D01*
X191828Y345984D01*
X191821Y346030D01*
X190850Y348939D01*
X190837Y348962D01*
X190831Y348986D01*
X190824Y348995D01*
X190819Y349012D01*
X189394Y351727D01*
X189372Y351754D01*
X189351Y351795D01*
X187509Y354247D01*
X187484Y354269D01*
X187456Y354307D01*
X185244Y356431D01*
X185216Y356449D01*
X185182Y356482D01*
X182659Y358223D01*
X182632Y358235D01*
X182610Y358253D01*
X182541Y358274D01*
X182476Y358301D01*
X182447Y358302D01*
X182419Y358310D01*
X182348Y358302D01*
X182277Y358302D01*
X182250Y358291D01*
X182221Y358288D01*
X182159Y358253D01*
X182094Y358225D01*
X182073Y358204D01*
X182048Y358190D01*
X181985Y358113D01*
X181955Y358082D01*
X181951Y358072D01*
X181942Y358062D01*
X172442Y341562D01*
X172418Y341489D01*
X172387Y341418D01*
X172387Y341395D01*
X172379Y341373D01*
X172386Y341296D01*
X172385Y341219D01*
X172394Y341195D01*
X172395Y341175D01*
X172416Y341135D01*
X172435Y341083D01*
X172436Y341078D01*
X172438Y341076D01*
X172442Y341063D01*
X181942Y324563D01*
X181961Y324542D01*
X181974Y324515D01*
X182027Y324468D01*
X182074Y324414D01*
X182100Y324402D01*
X182122Y324382D01*
X182189Y324359D01*
X182253Y324328D01*
X182282Y324327D01*
X182309Y324318D01*
X182381Y324322D01*
G37*
G36*
X432751Y190829D02*
X432751Y190829D01*
X432829Y190837D01*
X432848Y190848D01*
X432870Y190853D01*
X432934Y190897D01*
X433002Y190935D01*
X433018Y190954D01*
X433034Y190965D01*
X433058Y191003D01*
X433108Y191063D01*
X442608Y207563D01*
X442617Y207591D01*
X442633Y207614D01*
X442648Y207684D01*
X442671Y207752D01*
X442668Y207781D01*
X442674Y207809D01*
X442661Y207879D01*
X442655Y207950D01*
X442642Y207976D01*
X442636Y208004D01*
X442596Y208063D01*
X442563Y208127D01*
X442541Y208145D01*
X442525Y208169D01*
X442442Y208226D01*
X442410Y208253D01*
X442399Y208256D01*
X442389Y208264D01*
X439623Y209572D01*
X439590Y209580D01*
X439547Y209601D01*
X436607Y210448D01*
X436573Y210451D01*
X436529Y210464D01*
X433491Y210830D01*
X433457Y210827D01*
X433410Y210833D01*
X430353Y210706D01*
X430320Y210698D01*
X430273Y210696D01*
X427276Y210080D01*
X427245Y210067D01*
X427199Y210058D01*
X424339Y208970D01*
X424311Y208951D01*
X424267Y208935D01*
X421619Y207402D01*
X421593Y207379D01*
X421553Y207356D01*
X419185Y205418D01*
X419163Y205392D01*
X419127Y205362D01*
X417100Y203070D01*
X417084Y203040D01*
X417052Y203005D01*
X415420Y200417D01*
X415408Y200386D01*
X415383Y200346D01*
X414187Y197530D01*
X414180Y197496D01*
X414177Y197490D01*
X414173Y197483D01*
X414172Y197478D01*
X414161Y197453D01*
X413433Y194482D01*
X413431Y194448D01*
X413420Y194402D01*
X413177Y191352D01*
X413181Y191324D01*
X413176Y191296D01*
X413193Y191226D01*
X413201Y191155D01*
X413216Y191130D01*
X413222Y191103D01*
X413265Y191045D01*
X413301Y190982D01*
X413323Y190965D01*
X413340Y190942D01*
X413402Y190906D01*
X413459Y190862D01*
X413487Y190855D01*
X413511Y190841D01*
X413611Y190824D01*
X413652Y190814D01*
X413662Y190815D01*
X413675Y190813D01*
X432675Y190813D01*
X432751Y190829D01*
G37*
G36*
X433444Y471798D02*
X433444Y471798D01*
X433491Y471795D01*
X436529Y472161D01*
X436561Y472171D01*
X436607Y472177D01*
X439547Y473024D01*
X439577Y473040D01*
X439623Y473053D01*
X442389Y474361D01*
X442411Y474378D01*
X442438Y474388D01*
X442490Y474437D01*
X442548Y474480D01*
X442562Y474505D01*
X442583Y474525D01*
X442612Y474590D01*
X442648Y474652D01*
X442651Y474681D01*
X442663Y474707D01*
X442664Y474779D01*
X442673Y474849D01*
X442665Y474877D01*
X442666Y474906D01*
X442630Y475000D01*
X442619Y475041D01*
X442612Y475049D01*
X442608Y475062D01*
X433108Y491562D01*
X433056Y491620D01*
X433010Y491683D01*
X432991Y491694D01*
X432976Y491711D01*
X432906Y491744D01*
X432839Y491784D01*
X432815Y491788D01*
X432797Y491797D01*
X432752Y491799D01*
X432675Y491812D01*
X413675Y491812D01*
X413647Y491806D01*
X413619Y491809D01*
X413551Y491786D01*
X413480Y491772D01*
X413457Y491756D01*
X413430Y491747D01*
X413375Y491700D01*
X413316Y491660D01*
X413301Y491636D01*
X413280Y491617D01*
X413248Y491553D01*
X413209Y491492D01*
X413204Y491464D01*
X413192Y491439D01*
X413183Y491337D01*
X413176Y491296D01*
X413178Y491286D01*
X413177Y491273D01*
X413420Y488223D01*
X413429Y488190D01*
X413433Y488143D01*
X414161Y485172D01*
X414176Y485141D01*
X414187Y485095D01*
X415383Y482279D01*
X415402Y482251D01*
X415420Y482208D01*
X417052Y479620D01*
X417076Y479595D01*
X417100Y479555D01*
X419127Y477263D01*
X419154Y477242D01*
X419185Y477207D01*
X421553Y475269D01*
X421583Y475253D01*
X421619Y475223D01*
X424267Y473690D01*
X424299Y473679D01*
X424339Y473655D01*
X427199Y472567D01*
X427232Y472561D01*
X427276Y472545D01*
X430273Y471929D01*
X430307Y471929D01*
X430353Y471919D01*
X433410Y471792D01*
X433444Y471798D01*
G37*
G36*
X278503Y190819D02*
X278503Y190819D01*
X278531Y190816D01*
X278599Y190839D01*
X278670Y190853D01*
X278693Y190869D01*
X278720Y190878D01*
X278775Y190925D01*
X278834Y190965D01*
X278849Y190989D01*
X278871Y191008D01*
X278902Y191072D01*
X278941Y191133D01*
X278946Y191161D01*
X278958Y191186D01*
X278967Y191288D01*
X278974Y191329D01*
X278972Y191339D01*
X278973Y191352D01*
X278730Y194402D01*
X278721Y194435D01*
X278717Y194482D01*
X277989Y197453D01*
X277974Y197484D01*
X277963Y197530D01*
X276767Y200346D01*
X276748Y200374D01*
X276730Y200417D01*
X275098Y203005D01*
X275074Y203030D01*
X275050Y203070D01*
X273023Y205362D01*
X272996Y205383D01*
X272965Y205418D01*
X270598Y207356D01*
X270567Y207372D01*
X270531Y207402D01*
X267883Y208935D01*
X267851Y208946D01*
X267811Y208970D01*
X264951Y210058D01*
X264918Y210064D01*
X264874Y210080D01*
X261877Y210696D01*
X261843Y210696D01*
X261797Y210706D01*
X258740Y210833D01*
X258706Y210827D01*
X258659Y210830D01*
X255621Y210464D01*
X255589Y210454D01*
X255543Y210448D01*
X252603Y209601D01*
X252573Y209585D01*
X252528Y209572D01*
X249762Y208264D01*
X249739Y208247D01*
X249712Y208237D01*
X249660Y208188D01*
X249602Y208145D01*
X249588Y208120D01*
X249567Y208100D01*
X249538Y208035D01*
X249502Y207973D01*
X249499Y207945D01*
X249487Y207918D01*
X249486Y207846D01*
X249477Y207776D01*
X249485Y207748D01*
X249485Y207719D01*
X249520Y207625D01*
X249531Y207584D01*
X249538Y207576D01*
X249542Y207563D01*
X259042Y191063D01*
X259094Y191005D01*
X259140Y190942D01*
X259159Y190931D01*
X259174Y190914D01*
X259244Y190881D01*
X259311Y190841D01*
X259336Y190837D01*
X259353Y190828D01*
X259398Y190826D01*
X259475Y190813D01*
X278475Y190813D01*
X278503Y190819D01*
G37*
G36*
X261797Y471919D02*
X261797Y471919D01*
X261830Y471927D01*
X261877Y471929D01*
X264874Y472545D01*
X264905Y472558D01*
X264951Y472567D01*
X267811Y473655D01*
X267840Y473674D01*
X267883Y473690D01*
X270531Y475223D01*
X270557Y475246D01*
X270598Y475269D01*
X272965Y477207D01*
X272987Y477233D01*
X273023Y477263D01*
X275050Y479555D01*
X275067Y479585D01*
X275098Y479620D01*
X276730Y482208D01*
X276742Y482240D01*
X276767Y482279D01*
X277963Y485095D01*
X277970Y485129D01*
X277989Y485172D01*
X278717Y488143D01*
X278719Y488177D01*
X278730Y488223D01*
X278973Y491273D01*
X278969Y491301D01*
X278974Y491329D01*
X278957Y491399D01*
X278949Y491470D01*
X278935Y491495D01*
X278928Y491522D01*
X278885Y491580D01*
X278850Y491643D01*
X278827Y491660D01*
X278810Y491683D01*
X278748Y491719D01*
X278691Y491763D01*
X278663Y491770D01*
X278639Y491784D01*
X278539Y491801D01*
X278498Y491811D01*
X278488Y491810D01*
X278475Y491812D01*
X259475Y491812D01*
X259399Y491796D01*
X259321Y491788D01*
X259302Y491777D01*
X259280Y491772D01*
X259216Y491728D01*
X259148Y491690D01*
X259132Y491671D01*
X259116Y491660D01*
X259092Y491622D01*
X259042Y491562D01*
X249542Y475062D01*
X249533Y475034D01*
X249517Y475011D01*
X249502Y474941D01*
X249479Y474873D01*
X249482Y474845D01*
X249476Y474816D01*
X249490Y474746D01*
X249495Y474675D01*
X249508Y474649D01*
X249514Y474621D01*
X249554Y474562D01*
X249587Y474498D01*
X249609Y474480D01*
X249625Y474456D01*
X249708Y474399D01*
X249740Y474372D01*
X249751Y474369D01*
X249762Y474361D01*
X252528Y473053D01*
X252561Y473045D01*
X252603Y473024D01*
X255543Y472177D01*
X255577Y472174D01*
X255621Y472161D01*
X258659Y471795D01*
X258693Y471798D01*
X258740Y471792D01*
X261797Y471919D01*
G37*
D10*
X421250Y361950D03*
X404250Y361950D03*
D11*
X403250Y390525D03*
X422250Y390525D03*
D12*
X291075Y303213D03*
X274075Y303213D03*
D13*
X411163Y346962D03*
X411163Y334963D03*
X411163Y322963D03*
D14*
X461963Y338138D03*
D10*
X476813Y352425D03*
X459813Y352425D03*
D12*
X290513Y332813D03*
X290513Y349813D03*
D10*
X421250Y374650D03*
X404250Y374650D03*
D11*
X403250Y414338D03*
X422250Y414338D03*
D10*
X249238Y366150D03*
X249238Y383150D03*
D15*
X274638Y350813D03*
X274638Y331813D03*
D12*
X404250Y433388D03*
X421250Y433388D03*
D11*
X285725Y236538D03*
X266725Y236538D03*
D16*
X428675Y484413D03*
X511275Y341313D03*
X428675Y198213D03*
X263475Y198213D03*
X180875Y341313D03*
X263475Y484413D03*
X469975Y412813D03*
X469975Y269813D03*
X346075Y198213D03*
X222175Y269813D03*
X222175Y412813D03*
X346075Y484413D03*
D12*
X310588Y254000D03*
X327588Y254000D03*
D10*
X267725Y265113D03*
X284725Y265113D03*
X267725Y252413D03*
X284725Y252413D03*
D17*
X279400Y427038D03*
X279400Y401638D03*
X279400Y376238D03*
D18*
X378150Y370083D02*
X378150Y367557D01*
X378150Y370083D02*
X386264Y370083D01*
X386264Y367557D01*
X378150Y367557D01*
X378150Y368536D02*
X386264Y368536D01*
X386264Y369515D02*
X378150Y369515D01*
D19*
X382207Y363819D03*
X382207Y358817D03*
X382207Y353816D03*
X382207Y348815D03*
X382207Y343814D03*
X382207Y338812D03*
X382207Y333811D03*
X382207Y328810D03*
X382207Y323809D03*
X382207Y318807D03*
D18*
X378150Y315069D02*
X378150Y312543D01*
X378150Y315069D02*
X386264Y315069D01*
X386264Y312543D01*
X378150Y312543D01*
X378150Y313522D02*
X386264Y313522D01*
X386264Y314501D02*
X378150Y314501D01*
X376433Y302712D02*
X373907Y302712D01*
X373907Y310826D01*
X376433Y310826D01*
X376433Y302712D01*
X376433Y303691D02*
X373907Y303691D01*
X373907Y304670D02*
X376433Y304670D01*
X376433Y305649D02*
X373907Y305649D01*
X373907Y306628D02*
X376433Y306628D01*
X376433Y307607D02*
X373907Y307607D01*
X373907Y308586D02*
X376433Y308586D01*
X376433Y309565D02*
X373907Y309565D01*
X373907Y310544D02*
X376433Y310544D01*
D20*
X370169Y306769D03*
X365167Y306769D03*
X360166Y306769D03*
X355165Y306769D03*
X350164Y306769D03*
X345162Y306769D03*
X340161Y306769D03*
X335160Y306769D03*
X330159Y306769D03*
X325157Y306769D03*
D18*
X321419Y302712D02*
X318893Y302712D01*
X318893Y310826D01*
X321419Y310826D01*
X321419Y302712D01*
X321419Y303691D02*
X318893Y303691D01*
X318893Y304670D02*
X321419Y304670D01*
X321419Y305649D02*
X318893Y305649D01*
X318893Y306628D02*
X321419Y306628D01*
X321419Y307607D02*
X318893Y307607D01*
X318893Y308586D02*
X321419Y308586D01*
X321419Y309565D02*
X318893Y309565D01*
X318893Y310544D02*
X321419Y310544D01*
X309062Y312543D02*
X309062Y315069D01*
X317176Y315069D01*
X317176Y312543D01*
X309062Y312543D01*
X309062Y313522D02*
X317176Y313522D01*
X317176Y314501D02*
X309062Y314501D01*
D19*
X313119Y318807D03*
X313119Y323809D03*
X313119Y328810D03*
X313119Y333811D03*
X313119Y338812D03*
X313119Y343814D03*
X313119Y348815D03*
X313119Y353816D03*
X313119Y358817D03*
X313119Y363819D03*
D18*
X309062Y367557D02*
X309062Y370083D01*
X317176Y370083D01*
X317176Y367557D01*
X309062Y367557D01*
X309062Y368536D02*
X317176Y368536D01*
X317176Y369515D02*
X309062Y369515D01*
X318893Y371800D02*
X321419Y371800D01*
X318893Y371800D02*
X318893Y379914D01*
X321419Y379914D01*
X321419Y371800D01*
X321419Y372779D02*
X318893Y372779D01*
X318893Y373758D02*
X321419Y373758D01*
X321419Y374737D02*
X318893Y374737D01*
X318893Y375716D02*
X321419Y375716D01*
X321419Y376695D02*
X318893Y376695D01*
X318893Y377674D02*
X321419Y377674D01*
X321419Y378653D02*
X318893Y378653D01*
X318893Y379632D02*
X321419Y379632D01*
D20*
X325157Y375857D03*
X330159Y375857D03*
X335160Y375857D03*
X340161Y375857D03*
X345162Y375857D03*
X350164Y375857D03*
X355165Y375857D03*
X360166Y375857D03*
X365167Y375857D03*
X370169Y375857D03*
D18*
X373907Y371800D02*
X376433Y371800D01*
X373907Y371800D02*
X373907Y379914D01*
X376433Y379914D01*
X376433Y371800D01*
X376433Y372779D02*
X373907Y372779D01*
X373907Y373758D02*
X376433Y373758D01*
X376433Y374737D02*
X373907Y374737D01*
X373907Y375716D02*
X376433Y375716D01*
X376433Y376695D02*
X373907Y376695D01*
X373907Y377674D02*
X376433Y377674D01*
X376433Y378653D02*
X373907Y378653D01*
X373907Y379632D02*
X376433Y379632D01*
D21*
X347663Y341313D03*
M02*
