G04 EAGLE Gerber RS-274X export*
G75*
%MOMM*%
%FSLAX34Y34*%
%LPD*%
%INBottom Copper*%
%IPPOS*%
%AMOC8*
5,1,8,0,0,1.08239X$1,22.5*%
G01*
%ADD10R,1.100000X1.000000*%
%ADD11R,1.300000X1.500000*%
%ADD12R,1.000000X1.100000*%
%ADD13R,1.399997X0.400000*%
%ADD14P,1.649562X8X22.500000*%
%ADD15R,1.500000X1.300000*%
%ADD16C,1.000000*%
%ADD17C,1.524000*%
%ADD18R,0.550000X0.297181*%
%ADD19R,0.297181X0.550000*%
%ADD20R,5.600000X5.600000*%
%ADD21C,0.508000*%
%ADD22C,0.254000*%
%ADD23C,0.750000*%
%ADD24C,0.554800*%
%ADD25C,0.650000*%
%ADD26C,0.604800*%
%ADD27C,0.304800*%
%ADD28C,0.406400*%
%ADD29C,0.654800*%

G36*
X121440Y118144D02*
X121440Y118144D01*
X121531Y118151D01*
X121561Y118163D01*
X121593Y118169D01*
X121673Y118211D01*
X121757Y118247D01*
X121789Y118273D01*
X121810Y118284D01*
X121832Y118307D01*
X121888Y118352D01*
X123922Y120386D01*
X123976Y120460D01*
X124035Y120529D01*
X124047Y120560D01*
X124066Y120586D01*
X124093Y120673D01*
X124127Y120758D01*
X124131Y120799D01*
X124138Y120821D01*
X124137Y120853D01*
X124145Y120924D01*
X124145Y187840D01*
X124131Y187930D01*
X124124Y188021D01*
X124111Y188051D01*
X124106Y188083D01*
X124063Y188164D01*
X124027Y188248D01*
X124002Y188280D01*
X123991Y188300D01*
X123967Y188323D01*
X123922Y188379D01*
X122395Y189906D01*
X122395Y193881D01*
X123228Y194713D01*
X123236Y194725D01*
X123248Y194734D01*
X123308Y194825D01*
X123371Y194913D01*
X123375Y194927D01*
X123384Y194939D01*
X123412Y195045D01*
X123443Y195148D01*
X123443Y195163D01*
X123447Y195177D01*
X123440Y195285D01*
X123437Y195394D01*
X123432Y195408D01*
X123431Y195423D01*
X123390Y195523D01*
X123353Y195625D01*
X123343Y195637D01*
X123338Y195650D01*
X123267Y195732D01*
X123199Y195817D01*
X123187Y195825D01*
X123177Y195836D01*
X123083Y195891D01*
X122992Y195950D01*
X122978Y195954D01*
X122965Y195961D01*
X122803Y196004D01*
X122738Y196014D01*
X122683Y196059D01*
X122619Y196121D01*
X122588Y196136D01*
X122561Y196158D01*
X122407Y196225D01*
X120301Y196876D01*
X120266Y196880D01*
X120234Y196893D01*
X120145Y196897D01*
X120057Y196909D01*
X120023Y196903D01*
X119988Y196904D01*
X119911Y196887D01*
X119331Y197166D01*
X119300Y197175D01*
X119225Y197208D01*
X118613Y197397D01*
X118565Y197450D01*
X118511Y197521D01*
X118483Y197540D01*
X118459Y197566D01*
X118317Y197655D01*
X116332Y198612D01*
X116299Y198621D01*
X116268Y198639D01*
X116216Y198649D01*
X116170Y198668D01*
X116124Y198673D01*
X116096Y198681D01*
X116061Y198680D01*
X116027Y198687D01*
X116010Y198685D01*
X116003Y198686D01*
X115996Y198686D01*
X115975Y198683D01*
X115948Y198681D01*
X115416Y199043D01*
X115386Y199057D01*
X115318Y199100D01*
X114741Y199378D01*
X114701Y199438D01*
X114659Y199516D01*
X114633Y199540D01*
X114614Y199569D01*
X114487Y199678D01*
X112666Y200920D01*
X112634Y200935D01*
X112607Y200956D01*
X112524Y200986D01*
X112443Y201024D01*
X112408Y201028D01*
X112376Y201040D01*
X112297Y201045D01*
X111825Y201483D01*
X111797Y201502D01*
X111736Y201554D01*
X111207Y201915D01*
X111177Y201980D01*
X111146Y202064D01*
X111125Y202091D01*
X111110Y202122D01*
X111000Y202249D01*
X109385Y203749D01*
X109356Y203768D01*
X109332Y203793D01*
X109254Y203836D01*
X109180Y203885D01*
X109147Y203894D01*
X109116Y203910D01*
X109039Y203928D01*
X108637Y204431D01*
X108613Y204454D01*
X108560Y204515D01*
X108091Y204950D01*
X108070Y205019D01*
X108053Y205106D01*
X108035Y205136D01*
X108025Y205170D01*
X107936Y205312D01*
X106562Y207035D01*
X106537Y207058D01*
X106517Y207087D01*
X106446Y207141D01*
X106380Y207200D01*
X106348Y207214D01*
X106320Y207235D01*
X106246Y207264D01*
X105925Y207821D01*
X105904Y207847D01*
X105861Y207915D01*
X105462Y208416D01*
X105452Y208487D01*
X105447Y208576D01*
X105435Y208608D01*
X105430Y208643D01*
X105362Y208796D01*
X104261Y210706D01*
X104239Y210732D01*
X104224Y210764D01*
X104161Y210827D01*
X104105Y210896D01*
X104076Y210914D01*
X104052Y210939D01*
X103983Y210979D01*
X103748Y211578D01*
X103731Y211606D01*
X103698Y211680D01*
X103378Y212235D01*
X103379Y212307D01*
X103388Y212395D01*
X103380Y212429D01*
X103381Y212464D01*
X103337Y212626D01*
X102532Y214678D01*
X102515Y214708D01*
X102504Y214741D01*
X102452Y214813D01*
X102407Y214889D01*
X102380Y214912D01*
X102360Y214940D01*
X102298Y214989D01*
X102155Y215617D01*
X102143Y215648D01*
X102121Y215726D01*
X101888Y216322D01*
X101899Y216393D01*
X101921Y216479D01*
X101918Y216513D01*
X101924Y216548D01*
X101905Y216714D01*
X101415Y218863D01*
X101402Y218895D01*
X101397Y218930D01*
X101356Y219009D01*
X101322Y219091D01*
X101300Y219118D01*
X101284Y219148D01*
X101230Y219206D01*
X101182Y219848D01*
X101174Y219880D01*
X101165Y219961D01*
X101023Y220585D01*
X101044Y220654D01*
X101079Y220736D01*
X101082Y220770D01*
X101092Y220803D01*
X101098Y220971D01*
X100934Y223169D01*
X100926Y223202D01*
X100926Y223237D01*
X100897Y223322D01*
X100876Y223408D01*
X100858Y223437D01*
X100847Y223470D01*
X100802Y223536D01*
X100850Y224177D01*
X100847Y224210D01*
X100850Y224291D01*
X100803Y224930D01*
X100834Y224994D01*
X100881Y225070D01*
X100888Y225104D01*
X100904Y225135D01*
X100935Y225300D01*
X101100Y227498D01*
X101097Y227532D01*
X101102Y227567D01*
X101087Y227654D01*
X101079Y227743D01*
X101065Y227775D01*
X101059Y227809D01*
X101024Y227880D01*
X101168Y228508D01*
X101170Y228541D01*
X101185Y228620D01*
X101233Y229259D01*
X101274Y229317D01*
X101331Y229386D01*
X101344Y229418D01*
X101363Y229446D01*
X101419Y229605D01*
X101910Y231754D01*
X101912Y231788D01*
X101922Y231821D01*
X101919Y231910D01*
X101925Y231999D01*
X101916Y232033D01*
X101915Y232067D01*
X101892Y232143D01*
X102127Y232742D01*
X102134Y232774D01*
X102160Y232851D01*
X102303Y233475D01*
X102352Y233527D01*
X102419Y233586D01*
X102436Y233616D01*
X102460Y233641D01*
X102538Y233790D01*
X103344Y235841D01*
X103352Y235875D01*
X103367Y235906D01*
X103377Y235995D01*
X103396Y236082D01*
X103392Y236116D01*
X103396Y236151D01*
X103384Y236229D01*
X103706Y236786D01*
X103718Y236817D01*
X103756Y236889D01*
X103990Y237485D01*
X104047Y237529D01*
X104121Y237577D01*
X104143Y237604D01*
X104170Y237626D01*
X104270Y237761D01*
X105372Y239669D01*
X105385Y239702D01*
X105404Y239731D01*
X105428Y239816D01*
X105459Y239899D01*
X105461Y239934D01*
X105470Y239968D01*
X105470Y240047D01*
X105871Y240550D01*
X105887Y240579D01*
X105935Y240644D01*
X106256Y241198D01*
X106318Y241234D01*
X106399Y241270D01*
X106425Y241294D01*
X106455Y241311D01*
X106573Y241430D01*
X107948Y243153D01*
X107956Y243167D01*
X107961Y243172D01*
X107967Y243184D01*
X107989Y243208D01*
X108025Y243289D01*
X108068Y243367D01*
X108075Y243401D01*
X108089Y243433D01*
X108101Y243511D01*
X108573Y243949D01*
X108593Y243975D01*
X108650Y244032D01*
X109050Y244533D01*
X109116Y244558D01*
X109202Y244582D01*
X109231Y244602D01*
X109263Y244614D01*
X109398Y244714D01*
X111014Y246213D01*
X111036Y246240D01*
X111063Y246262D01*
X111111Y246337D01*
X111165Y246407D01*
X111177Y246440D01*
X111195Y246469D01*
X111219Y246545D01*
X111751Y246907D01*
X111775Y246930D01*
X111840Y246978D01*
X112309Y247414D01*
X112379Y247429D01*
X112467Y247440D01*
X112499Y247455D01*
X112533Y247462D01*
X112681Y247541D01*
X114375Y248695D01*
X114457Y248773D01*
X114541Y248850D01*
X114546Y248858D01*
X114553Y248865D01*
X114606Y248965D01*
X114662Y249064D01*
X114663Y249074D01*
X114668Y249082D01*
X114686Y249194D01*
X114707Y249306D01*
X114706Y249316D01*
X114707Y249325D01*
X114689Y249438D01*
X114673Y249550D01*
X114669Y249560D01*
X114667Y249568D01*
X114656Y249589D01*
X114606Y249703D01*
X95985Y282118D01*
X96314Y282274D01*
X96336Y282291D01*
X96363Y282301D01*
X96415Y282350D01*
X96473Y282393D01*
X96487Y282418D01*
X96508Y282437D01*
X96537Y282503D01*
X96573Y282565D01*
X96576Y282593D01*
X96588Y282619D01*
X96589Y282691D01*
X96598Y282762D01*
X96590Y282789D01*
X96591Y282818D01*
X96555Y282913D01*
X96544Y282953D01*
X96537Y282962D01*
X96533Y282974D01*
X87033Y299474D01*
X86981Y299533D01*
X86935Y299595D01*
X86916Y299606D01*
X86901Y299623D01*
X86831Y299657D01*
X86764Y299697D01*
X86740Y299701D01*
X86722Y299709D01*
X86677Y299711D01*
X86600Y299724D01*
X67600Y299724D01*
X67572Y299719D01*
X67544Y299721D01*
X67476Y299699D01*
X67405Y299685D01*
X67382Y299669D01*
X67355Y299660D01*
X67300Y299613D01*
X67241Y299572D01*
X67226Y299548D01*
X67205Y299530D01*
X67173Y299465D01*
X67134Y299405D01*
X67129Y299377D01*
X67117Y299351D01*
X67108Y299250D01*
X67102Y299211D01*
X29786Y299211D01*
X29766Y299208D01*
X29747Y299210D01*
X29645Y299188D01*
X29543Y299172D01*
X29526Y299162D01*
X29506Y299158D01*
X29417Y299105D01*
X29326Y299056D01*
X29312Y299042D01*
X29295Y299032D01*
X29228Y298953D01*
X29156Y298878D01*
X29148Y298860D01*
X29135Y298845D01*
X29096Y298749D01*
X29053Y298655D01*
X29051Y298635D01*
X29043Y298617D01*
X29025Y298450D01*
X29025Y298332D01*
X29019Y298325D01*
X29001Y298264D01*
X28973Y298208D01*
X28956Y298121D01*
X28947Y298090D01*
X28947Y298072D01*
X28942Y298043D01*
X28786Y295964D01*
X28789Y295929D01*
X28784Y295895D01*
X28800Y295807D01*
X28808Y295719D01*
X28821Y295687D01*
X28828Y295653D01*
X28862Y295581D01*
X28719Y294954D01*
X28717Y294921D01*
X28702Y294841D01*
X28654Y294203D01*
X28613Y294144D01*
X28556Y294076D01*
X28543Y294043D01*
X28524Y294015D01*
X28468Y293857D01*
X28309Y293159D01*
X28303Y293054D01*
X28291Y292950D01*
X28295Y292932D01*
X28294Y292913D01*
X28321Y292812D01*
X28343Y292710D01*
X28353Y292694D01*
X28358Y292676D01*
X28416Y292589D01*
X28470Y292498D01*
X28484Y292486D01*
X28494Y292471D01*
X28577Y292407D01*
X28656Y292339D01*
X28674Y292332D01*
X28688Y292320D01*
X28787Y292286D01*
X28885Y292247D01*
X28907Y292244D01*
X28921Y292239D01*
X28952Y292239D01*
X29051Y292228D01*
X31615Y292228D01*
X37090Y286753D01*
X37090Y277422D01*
X32366Y272698D01*
X32313Y272624D01*
X32254Y272555D01*
X32241Y272525D01*
X32223Y272498D01*
X32196Y272411D01*
X32162Y272327D01*
X32157Y272286D01*
X32150Y272263D01*
X32151Y272231D01*
X32143Y272160D01*
X32143Y181624D01*
X32124Y181575D01*
X32119Y181535D01*
X32112Y181513D01*
X32113Y181480D01*
X32105Y181409D01*
X32105Y180504D01*
X32108Y180484D01*
X32106Y180464D01*
X32128Y180363D01*
X32145Y180261D01*
X32154Y180244D01*
X32158Y180224D01*
X32212Y180135D01*
X32260Y180044D01*
X32274Y180030D01*
X32285Y180013D01*
X32363Y179946D01*
X32438Y179874D01*
X32456Y179866D01*
X32472Y179853D01*
X32568Y179814D01*
X32661Y179771D01*
X32681Y179769D01*
X32700Y179761D01*
X32866Y179743D01*
X38864Y179743D01*
X38884Y179746D01*
X38903Y179744D01*
X39005Y179766D01*
X39107Y179782D01*
X39124Y179792D01*
X39144Y179796D01*
X39233Y179849D01*
X39324Y179897D01*
X39338Y179912D01*
X39355Y179922D01*
X39422Y180001D01*
X39494Y180076D01*
X39502Y180094D01*
X39515Y180109D01*
X39554Y180205D01*
X39597Y180299D01*
X39599Y180319D01*
X39607Y180337D01*
X39625Y180504D01*
X39625Y208157D01*
X40377Y208909D01*
X40430Y208983D01*
X40490Y209052D01*
X40502Y209082D01*
X40521Y209108D01*
X40548Y209195D01*
X40582Y209280D01*
X40586Y209321D01*
X40593Y209343D01*
X40592Y209376D01*
X40600Y209447D01*
X40600Y217794D01*
X40734Y217928D01*
X40787Y218002D01*
X40846Y218071D01*
X40858Y218101D01*
X40877Y218127D01*
X40904Y218214D01*
X40911Y218231D01*
X42073Y219393D01*
X54764Y219393D01*
X55881Y218277D01*
X55881Y160558D01*
X55884Y160538D01*
X55882Y160518D01*
X55904Y160417D01*
X55920Y160315D01*
X55930Y160298D01*
X55934Y160278D01*
X55987Y160189D01*
X56036Y160098D01*
X56050Y160084D01*
X56060Y160067D01*
X56139Y160000D01*
X56214Y159928D01*
X56232Y159920D01*
X56247Y159907D01*
X56343Y159868D01*
X56437Y159825D01*
X56457Y159823D01*
X56475Y159815D01*
X56642Y159797D01*
X57864Y159797D01*
X57884Y159800D01*
X57903Y159798D01*
X58005Y159820D01*
X58107Y159836D01*
X58124Y159846D01*
X58144Y159850D01*
X58233Y159903D01*
X58324Y159951D01*
X58338Y159966D01*
X58355Y159976D01*
X58422Y160055D01*
X58494Y160130D01*
X58502Y160148D01*
X58515Y160163D01*
X58554Y160259D01*
X58597Y160353D01*
X58599Y160373D01*
X58607Y160391D01*
X58625Y160558D01*
X58625Y208157D01*
X59427Y208959D01*
X59480Y209033D01*
X59540Y209102D01*
X59552Y209132D01*
X59571Y209158D01*
X59598Y209245D01*
X59632Y209330D01*
X59636Y209371D01*
X59643Y209393D01*
X59642Y209426D01*
X59650Y209497D01*
X59650Y217794D01*
X60543Y218687D01*
X72807Y218687D01*
X73700Y217794D01*
X73700Y209447D01*
X73714Y209357D01*
X73722Y209266D01*
X73734Y209236D01*
X73739Y209204D01*
X73782Y209123D01*
X73818Y209040D01*
X73844Y209007D01*
X73855Y208987D01*
X73878Y208965D01*
X73923Y208909D01*
X74675Y208157D01*
X74675Y177606D01*
X73566Y176497D01*
X73513Y176423D01*
X73454Y176354D01*
X73441Y176324D01*
X73423Y176298D01*
X73396Y176211D01*
X73362Y176126D01*
X73357Y176085D01*
X73350Y176063D01*
X73351Y176030D01*
X73343Y175959D01*
X73343Y159548D01*
X72227Y158432D01*
X69396Y158432D01*
X69306Y158417D01*
X69215Y158410D01*
X69185Y158397D01*
X69153Y158392D01*
X69073Y158349D01*
X68989Y158314D01*
X68957Y158288D01*
X68936Y158277D01*
X68914Y158254D01*
X68858Y158209D01*
X67173Y156524D01*
X67131Y156466D01*
X67082Y156414D01*
X67060Y156367D01*
X67030Y156325D01*
X67009Y156256D01*
X66978Y156191D01*
X66973Y156139D01*
X66957Y156089D01*
X66959Y156018D01*
X66951Y155946D01*
X66962Y155896D01*
X66964Y155844D01*
X66988Y155776D01*
X67004Y155706D01*
X67030Y155661D01*
X67048Y155613D01*
X67093Y155556D01*
X67130Y155495D01*
X67169Y155461D01*
X67202Y155420D01*
X67262Y155382D01*
X67317Y155335D01*
X67365Y155316D01*
X67409Y155287D01*
X67478Y155270D01*
X67545Y155243D01*
X67616Y155235D01*
X67647Y155227D01*
X67671Y155229D01*
X67712Y155225D01*
X72719Y155225D01*
X73612Y154332D01*
X73612Y149068D01*
X72719Y148175D01*
X58780Y148175D01*
X58690Y148160D01*
X58599Y148153D01*
X58570Y148141D01*
X58538Y148135D01*
X58457Y148093D01*
X58373Y148057D01*
X58341Y148031D01*
X58320Y148020D01*
X58298Y147997D01*
X58242Y147952D01*
X49734Y139445D01*
X49723Y139428D01*
X49707Y139416D01*
X49651Y139329D01*
X49591Y139245D01*
X49585Y139226D01*
X49574Y139209D01*
X49549Y139109D01*
X49518Y139010D01*
X49519Y138990D01*
X49514Y138970D01*
X49522Y138867D01*
X49525Y138764D01*
X49532Y138745D01*
X49533Y138725D01*
X49574Y138630D01*
X49609Y138533D01*
X49622Y138517D01*
X49630Y138499D01*
X49734Y138368D01*
X50446Y137657D01*
X56655Y131448D01*
X56729Y131395D01*
X56798Y131335D01*
X56828Y131323D01*
X56854Y131304D01*
X56941Y131277D01*
X57026Y131243D01*
X57067Y131239D01*
X57089Y131232D01*
X57122Y131233D01*
X57193Y131225D01*
X72719Y131225D01*
X73612Y130332D01*
X73612Y125068D01*
X72719Y124175D01*
X67160Y124175D01*
X67089Y124164D01*
X67017Y124162D01*
X66968Y124144D01*
X66917Y124136D01*
X66854Y124102D01*
X66786Y124077D01*
X66746Y124045D01*
X66700Y124020D01*
X66650Y123968D01*
X66594Y123924D01*
X66566Y123880D01*
X66530Y123842D01*
X66500Y123777D01*
X66461Y123717D01*
X66449Y123666D01*
X66427Y123619D01*
X66419Y123548D01*
X66401Y123478D01*
X66405Y123426D01*
X66400Y123375D01*
X66415Y123304D01*
X66421Y123233D01*
X66441Y123185D01*
X66452Y123134D01*
X66461Y123119D01*
X66461Y119174D01*
X66457Y119160D01*
X66427Y119095D01*
X66421Y119043D01*
X66406Y118994D01*
X66408Y118922D01*
X66400Y118851D01*
X66411Y118800D01*
X66412Y118748D01*
X66437Y118680D01*
X66452Y118610D01*
X66479Y118566D01*
X66496Y118517D01*
X66541Y118461D01*
X66578Y118399D01*
X66618Y118365D01*
X66650Y118325D01*
X66710Y118286D01*
X66765Y118239D01*
X66813Y118220D01*
X66857Y118192D01*
X66926Y118174D01*
X66993Y118147D01*
X67064Y118139D01*
X67096Y118132D01*
X67119Y118133D01*
X67160Y118129D01*
X121350Y118129D01*
X121440Y118144D01*
G37*
G36*
X1626Y187242D02*
X1626Y187242D01*
X1730Y187245D01*
X1749Y187252D01*
X1768Y187253D01*
X1863Y187294D01*
X1880Y187300D01*
X6279Y187300D01*
X6286Y187295D01*
X6387Y187270D01*
X6485Y187239D01*
X6505Y187240D01*
X6525Y187235D01*
X6628Y187243D01*
X6731Y187245D01*
X6750Y187252D01*
X6770Y187254D01*
X6865Y187294D01*
X6880Y187300D01*
X11280Y187300D01*
X11287Y187295D01*
X11388Y187270D01*
X11486Y187239D01*
X11506Y187240D01*
X11526Y187235D01*
X11629Y187243D01*
X11732Y187245D01*
X11751Y187252D01*
X11771Y187254D01*
X11866Y187294D01*
X11881Y187300D01*
X16281Y187300D01*
X16288Y187295D01*
X16389Y187270D01*
X16487Y187239D01*
X16507Y187240D01*
X16527Y187235D01*
X16630Y187243D01*
X16733Y187245D01*
X16752Y187252D01*
X16772Y187254D01*
X16867Y187294D01*
X16882Y187300D01*
X20284Y187300D01*
X20303Y187303D01*
X20323Y187301D01*
X20424Y187323D01*
X20526Y187339D01*
X20544Y187349D01*
X20563Y187353D01*
X20652Y187406D01*
X20744Y187455D01*
X20757Y187469D01*
X20774Y187479D01*
X20842Y187558D01*
X20913Y187633D01*
X20921Y187651D01*
X20934Y187666D01*
X20973Y187762D01*
X21017Y187856D01*
X21019Y187876D01*
X21026Y187894D01*
X21045Y188061D01*
X21045Y277516D01*
X21035Y277572D01*
X21036Y277630D01*
X21016Y277693D01*
X21005Y277758D01*
X20978Y277809D01*
X20960Y277864D01*
X20921Y277917D01*
X20890Y277976D01*
X20848Y278015D01*
X20814Y278062D01*
X20760Y278099D01*
X20712Y278145D01*
X20659Y278169D01*
X20612Y278202D01*
X20549Y278221D01*
X20489Y278249D01*
X20431Y278255D01*
X20376Y278271D01*
X20310Y278268D01*
X20244Y278276D01*
X20188Y278263D01*
X20130Y278261D01*
X20068Y278238D01*
X20004Y278223D01*
X19954Y278194D01*
X19901Y278173D01*
X19819Y278113D01*
X19793Y278097D01*
X19784Y278087D01*
X19766Y278074D01*
X18883Y277255D01*
X18862Y277228D01*
X18835Y277206D01*
X18787Y277131D01*
X18733Y277061D01*
X18721Y277028D01*
X18702Y276999D01*
X18679Y276923D01*
X18147Y276560D01*
X18123Y276538D01*
X18058Y276489D01*
X17589Y276054D01*
X17519Y276038D01*
X17431Y276027D01*
X17399Y276012D01*
X17366Y276005D01*
X17217Y275926D01*
X15398Y274686D01*
X15373Y274662D01*
X15343Y274644D01*
X15284Y274578D01*
X15220Y274516D01*
X15206Y274489D01*
X15195Y274478D01*
X15193Y274473D01*
X15181Y274460D01*
X15147Y274388D01*
X14567Y274109D01*
X14540Y274090D01*
X14468Y274052D01*
X13939Y273691D01*
X13867Y273686D01*
X13778Y273689D01*
X13745Y273678D01*
X13711Y273676D01*
X13553Y273620D01*
X11569Y272665D01*
X11540Y272645D01*
X11508Y272632D01*
X11440Y272575D01*
X11367Y272524D01*
X11347Y272496D01*
X11320Y272474D01*
X11276Y272408D01*
X10661Y272218D01*
X10631Y272203D01*
X10555Y272177D01*
X9978Y271899D01*
X9906Y271905D01*
X9819Y271920D01*
X9784Y271915D01*
X9750Y271918D01*
X9585Y271886D01*
X7481Y271237D01*
X7450Y271222D01*
X7416Y271214D01*
X7340Y271168D01*
X7261Y271128D01*
X7236Y271103D01*
X7207Y271085D01*
X7153Y271027D01*
X6516Y270931D01*
X6485Y270921D01*
X6405Y270906D01*
X5793Y270717D01*
X5724Y270733D01*
X5639Y270762D01*
X5605Y270762D01*
X5571Y270770D01*
X5403Y270763D01*
X3226Y270435D01*
X3193Y270424D01*
X3158Y270422D01*
X3077Y270387D01*
X2992Y270360D01*
X2964Y270339D01*
X2932Y270325D01*
X2870Y270276D01*
X2227Y270276D01*
X2194Y270270D01*
X2113Y270267D01*
X1480Y270172D01*
X1413Y270199D01*
X1334Y270239D01*
X1300Y270244D01*
X1268Y270257D01*
X1101Y270276D01*
X-1101Y270276D01*
X-1135Y270270D01*
X-1170Y270273D01*
X-1256Y270250D01*
X-1344Y270236D01*
X-1374Y270220D01*
X-1408Y270211D01*
X-1477Y270171D01*
X-2113Y270267D01*
X-2146Y270267D01*
X-2227Y270276D01*
X-2867Y270276D01*
X-2929Y270312D01*
X-3001Y270364D01*
X-3034Y270374D01*
X-3064Y270392D01*
X-3226Y270435D01*
X-5403Y270763D01*
X-5438Y270763D01*
X-5472Y270770D01*
X-5560Y270761D01*
X-5649Y270760D01*
X-5682Y270749D01*
X-5717Y270745D01*
X-5790Y270716D01*
X-6405Y270906D01*
X-6438Y270910D01*
X-6516Y270931D01*
X-7150Y271026D01*
X-7205Y271072D01*
X-7269Y271134D01*
X-7300Y271149D01*
X-7327Y271171D01*
X-7481Y271237D01*
X-9585Y271886D01*
X-9619Y271891D01*
X-9652Y271904D01*
X-9741Y271908D01*
X-9829Y271920D01*
X-9863Y271914D01*
X-9897Y271915D01*
X-9975Y271897D01*
X-10555Y272177D01*
X-10586Y272186D01*
X-10661Y272218D01*
X-11273Y272407D01*
X-11321Y272460D01*
X-11374Y272531D01*
X-11403Y272550D01*
X-11426Y272576D01*
X-11569Y272665D01*
X-13553Y273620D01*
X-13586Y273630D01*
X-13616Y273647D01*
X-13703Y273665D01*
X-13788Y273690D01*
X-13823Y273689D01*
X-13857Y273695D01*
X-13936Y273689D01*
X-14468Y274052D01*
X-14498Y274066D01*
X-14567Y274109D01*
X-15144Y274387D01*
X-15183Y274446D01*
X-15226Y274524D01*
X-15241Y274538D01*
X-15243Y274541D01*
X-15252Y274549D01*
X-15271Y274577D01*
X-15398Y274686D01*
X-17217Y275926D01*
X-17249Y275941D01*
X-17276Y275962D01*
X-17360Y275993D01*
X-17440Y276030D01*
X-17475Y276034D01*
X-17507Y276046D01*
X-17587Y276052D01*
X-18058Y276489D01*
X-18086Y276508D01*
X-18147Y276560D01*
X-18676Y276921D01*
X-18707Y276986D01*
X-18737Y277069D01*
X-18759Y277097D01*
X-18774Y277128D01*
X-18883Y277255D01*
X-20498Y278753D01*
X-20526Y278772D01*
X-20550Y278797D01*
X-20628Y278839D01*
X-20703Y278889D01*
X-20736Y278897D01*
X-20766Y278914D01*
X-20844Y278931D01*
X-21245Y279435D01*
X-21270Y279457D01*
X-21323Y279518D01*
X-21792Y279954D01*
X-21813Y280022D01*
X-21830Y280110D01*
X-21848Y280140D01*
X-21857Y280173D01*
X-21947Y280315D01*
X-23320Y282036D01*
X-23345Y282059D01*
X-23365Y282088D01*
X-23437Y282142D01*
X-23502Y282201D01*
X-23534Y282215D01*
X-23562Y282236D01*
X-23636Y282265D01*
X-23957Y282822D01*
X-23978Y282848D01*
X-24022Y282916D01*
X-24421Y283417D01*
X-24431Y283488D01*
X-24435Y283577D01*
X-24448Y283609D01*
X-24453Y283643D01*
X-24520Y283797D01*
X-25621Y285704D01*
X-25643Y285731D01*
X-25658Y285762D01*
X-25721Y285826D01*
X-25777Y285894D01*
X-25806Y285913D01*
X-25831Y285937D01*
X-25900Y285977D01*
X-26135Y286576D01*
X-26151Y286604D01*
X-26184Y286679D01*
X-26504Y287233D01*
X-26504Y287305D01*
X-26495Y287393D01*
X-26502Y287427D01*
X-26502Y287462D01*
X-26546Y287624D01*
X-27350Y289674D01*
X-27368Y289703D01*
X-27378Y289736D01*
X-27430Y289808D01*
X-27476Y289885D01*
X-27502Y289908D01*
X-27523Y289936D01*
X-27585Y289985D01*
X-27728Y290613D01*
X-27740Y290643D01*
X-27762Y290721D01*
X-27995Y291317D01*
X-27984Y291388D01*
X-27962Y291474D01*
X-27965Y291509D01*
X-27959Y291543D01*
X-27965Y291594D01*
X-27965Y291598D01*
X-27967Y291609D01*
X-27978Y291710D01*
X-28468Y293857D01*
X-28481Y293889D01*
X-28487Y293923D01*
X-28528Y294002D01*
X-28561Y294084D01*
X-28584Y294111D01*
X-28600Y294141D01*
X-28654Y294199D01*
X-28702Y294841D01*
X-28710Y294873D01*
X-28719Y294954D01*
X-28861Y295578D01*
X-28840Y295647D01*
X-28805Y295728D01*
X-28803Y295763D01*
X-28792Y295796D01*
X-28786Y295964D01*
X-28942Y298043D01*
X-28957Y298104D01*
X-28962Y298167D01*
X-28985Y298223D01*
X-29000Y298282D01*
X-29025Y298322D01*
X-29025Y298450D01*
X-29028Y298470D01*
X-29026Y298489D01*
X-29048Y298591D01*
X-29064Y298693D01*
X-29074Y298710D01*
X-29078Y298730D01*
X-29131Y298819D01*
X-29180Y298910D01*
X-29194Y298924D01*
X-29204Y298941D01*
X-29283Y299008D01*
X-29358Y299080D01*
X-29376Y299088D01*
X-29391Y299101D01*
X-29487Y299140D01*
X-29581Y299183D01*
X-29601Y299185D01*
X-29619Y299193D01*
X-29786Y299211D01*
X-67105Y299211D01*
X-67106Y299214D01*
X-67101Y299242D01*
X-67118Y299311D01*
X-67126Y299383D01*
X-67141Y299407D01*
X-67147Y299435D01*
X-67190Y299493D01*
X-67226Y299555D01*
X-67248Y299572D01*
X-67265Y299595D01*
X-67327Y299632D01*
X-67384Y299675D01*
X-67412Y299682D01*
X-67436Y299697D01*
X-67536Y299713D01*
X-67577Y299724D01*
X-67587Y299722D01*
X-67600Y299724D01*
X-86600Y299724D01*
X-86676Y299709D01*
X-86754Y299700D01*
X-86773Y299689D01*
X-86795Y299685D01*
X-86859Y299641D01*
X-86927Y299602D01*
X-86943Y299583D01*
X-86959Y299572D01*
X-86983Y299534D01*
X-87033Y299474D01*
X-87184Y299211D01*
X-87313Y299211D01*
X-87380Y299200D01*
X-87448Y299199D01*
X-87501Y299180D01*
X-87555Y299172D01*
X-87616Y299140D01*
X-87680Y299117D01*
X-87724Y299082D01*
X-87773Y299056D01*
X-87820Y299007D01*
X-87874Y298965D01*
X-87919Y298902D01*
X-87942Y298878D01*
X-87951Y298859D01*
X-87973Y298829D01*
X-115747Y250481D01*
X-115787Y250374D01*
X-115830Y250269D01*
X-115830Y250259D01*
X-115834Y250251D01*
X-115838Y250137D01*
X-115844Y250023D01*
X-115842Y250014D01*
X-115842Y250005D01*
X-115809Y249895D01*
X-115780Y249786D01*
X-115775Y249778D01*
X-115772Y249769D01*
X-115706Y249676D01*
X-115643Y249582D01*
X-115634Y249574D01*
X-115630Y249568D01*
X-115611Y249554D01*
X-115516Y249472D01*
X-115346Y249357D01*
X-115327Y249348D01*
X-115298Y249327D01*
X-114615Y248933D01*
X-114611Y248924D01*
X-114568Y248878D01*
X-114533Y248825D01*
X-114466Y248768D01*
X-114444Y248744D01*
X-114428Y248735D01*
X-114406Y248716D01*
X-112681Y247541D01*
X-112649Y247526D01*
X-112622Y247505D01*
X-112539Y247475D01*
X-112458Y247437D01*
X-112423Y247433D01*
X-112391Y247422D01*
X-112312Y247416D01*
X-111840Y246978D01*
X-111812Y246960D01*
X-111751Y246907D01*
X-111221Y246547D01*
X-111191Y246482D01*
X-111160Y246398D01*
X-111139Y246371D01*
X-111124Y246340D01*
X-111014Y246213D01*
X-109398Y244714D01*
X-109369Y244695D01*
X-109345Y244670D01*
X-109267Y244628D01*
X-109193Y244578D01*
X-109159Y244569D01*
X-109129Y244553D01*
X-109052Y244535D01*
X-108650Y244032D01*
X-108626Y244010D01*
X-108573Y243949D01*
X-108103Y243513D01*
X-108083Y243445D01*
X-108065Y243358D01*
X-108048Y243328D01*
X-108038Y243294D01*
X-107948Y243153D01*
X-106573Y241430D01*
X-106548Y241406D01*
X-106528Y241378D01*
X-106457Y241324D01*
X-106391Y241265D01*
X-106359Y241251D01*
X-106331Y241230D01*
X-106257Y241201D01*
X-105935Y240644D01*
X-105914Y240618D01*
X-105871Y240550D01*
X-105472Y240049D01*
X-105462Y239979D01*
X-105457Y239890D01*
X-105445Y239857D01*
X-105440Y239823D01*
X-105372Y239669D01*
X-104270Y237761D01*
X-104248Y237734D01*
X-104232Y237703D01*
X-104170Y237640D01*
X-104114Y237571D01*
X-104084Y237552D01*
X-104060Y237527D01*
X-103991Y237488D01*
X-103756Y236889D01*
X-103739Y236860D01*
X-103707Y236786D01*
X-103386Y236232D01*
X-103387Y236160D01*
X-103396Y236072D01*
X-103388Y236038D01*
X-103388Y236003D01*
X-103344Y235841D01*
X-102538Y233790D01*
X-102521Y233760D01*
X-102510Y233727D01*
X-102458Y233655D01*
X-102413Y233578D01*
X-102386Y233556D01*
X-102366Y233528D01*
X-102304Y233478D01*
X-102160Y232851D01*
X-102148Y232820D01*
X-102127Y232742D01*
X-101893Y232146D01*
X-101904Y232075D01*
X-101926Y231989D01*
X-101923Y231954D01*
X-101929Y231920D01*
X-101910Y231754D01*
X-101459Y229781D01*
X-101417Y229680D01*
X-101380Y229577D01*
X-101371Y229566D01*
X-101366Y229553D01*
X-101295Y229471D01*
X-101226Y229385D01*
X-101214Y229378D01*
X-101205Y229367D01*
X-101112Y229311D01*
X-101019Y229252D01*
X-101006Y229249D01*
X-100994Y229242D01*
X-100887Y229219D01*
X-100781Y229192D01*
X-100767Y229193D01*
X-100753Y229190D01*
X-100644Y229203D01*
X-100536Y229211D01*
X-100523Y229217D01*
X-100509Y229218D01*
X-100410Y229265D01*
X-100309Y229308D01*
X-100296Y229318D01*
X-100286Y229323D01*
X-100265Y229343D01*
X-100178Y229412D01*
X-98308Y231283D01*
X-94539Y231283D01*
X-93262Y230006D01*
X-93188Y229953D01*
X-93119Y229894D01*
X-93089Y229882D01*
X-93063Y229863D01*
X-92976Y229836D01*
X-92891Y229802D01*
X-92850Y229797D01*
X-92827Y229790D01*
X-92795Y229791D01*
X-92724Y229783D01*
X-91556Y229783D01*
X-91465Y229798D01*
X-91375Y229805D01*
X-91345Y229818D01*
X-91313Y229823D01*
X-91232Y229866D01*
X-91148Y229901D01*
X-91116Y229927D01*
X-91095Y229938D01*
X-91073Y229961D01*
X-91017Y230006D01*
X-72357Y248667D01*
X-60993Y248667D01*
X-48386Y236060D01*
X-48386Y214609D01*
X-48372Y214519D01*
X-48364Y214428D01*
X-48352Y214399D01*
X-48347Y214367D01*
X-48304Y214286D01*
X-48268Y214202D01*
X-48242Y214170D01*
X-48231Y214149D01*
X-48208Y214127D01*
X-48163Y214071D01*
X-30848Y196756D01*
X-30774Y196703D01*
X-30705Y196644D01*
X-30675Y196631D01*
X-30649Y196613D01*
X-30562Y196586D01*
X-30477Y196552D01*
X-30436Y196547D01*
X-30413Y196540D01*
X-30381Y196541D01*
X-30310Y196533D01*
X-10101Y196533D01*
X-3295Y189727D01*
X-3295Y188061D01*
X-3292Y188041D01*
X-3294Y188022D01*
X-3272Y187920D01*
X-3255Y187818D01*
X-3246Y187801D01*
X-3241Y187781D01*
X-3188Y187692D01*
X-3140Y187601D01*
X-3126Y187587D01*
X-3115Y187570D01*
X-3037Y187503D01*
X-2962Y187431D01*
X-2944Y187423D01*
X-2928Y187410D01*
X-2832Y187371D01*
X-2739Y187328D01*
X-2719Y187326D01*
X-2700Y187318D01*
X-2534Y187300D01*
X1276Y187300D01*
X1285Y187294D01*
X1385Y187269D01*
X1484Y187239D01*
X1504Y187239D01*
X1523Y187234D01*
X1626Y187242D01*
G37*
G36*
X-67572Y-1269D02*
X-67572Y-1269D01*
X-67544Y-1271D01*
X-67476Y-1249D01*
X-67405Y-1235D01*
X-67382Y-1219D01*
X-67355Y-1210D01*
X-67300Y-1163D01*
X-67241Y-1122D01*
X-67226Y-1098D01*
X-67205Y-1080D01*
X-67173Y-1015D01*
X-67134Y-955D01*
X-67129Y-927D01*
X-67117Y-901D01*
X-67108Y-799D01*
X-67102Y-761D01*
X-29786Y-761D01*
X-29766Y-758D01*
X-29747Y-760D01*
X-29645Y-738D01*
X-29543Y-722D01*
X-29526Y-712D01*
X-29506Y-708D01*
X-29417Y-655D01*
X-29326Y-606D01*
X-29312Y-592D01*
X-29295Y-582D01*
X-29228Y-503D01*
X-29156Y-428D01*
X-29148Y-410D01*
X-29135Y-395D01*
X-29096Y-299D01*
X-29053Y-205D01*
X-29051Y-185D01*
X-29043Y-167D01*
X-29025Y0D01*
X-29025Y118D01*
X-29019Y125D01*
X-29001Y186D01*
X-28973Y242D01*
X-28956Y329D01*
X-28947Y360D01*
X-28947Y378D01*
X-28942Y407D01*
X-28786Y2486D01*
X-28789Y2521D01*
X-28784Y2555D01*
X-28800Y2643D01*
X-28807Y2731D01*
X-28821Y2763D01*
X-28828Y2797D01*
X-28862Y2869D01*
X-28719Y3496D01*
X-28717Y3529D01*
X-28702Y3609D01*
X-28654Y4247D01*
X-28613Y4306D01*
X-28556Y4374D01*
X-28543Y4407D01*
X-28524Y4435D01*
X-28468Y4593D01*
X-27978Y6740D01*
X-27976Y6775D01*
X-27966Y6808D01*
X-27969Y6897D01*
X-27963Y6986D01*
X-27972Y7019D01*
X-27973Y7054D01*
X-27997Y7130D01*
X-27762Y7729D01*
X-27755Y7761D01*
X-27728Y7837D01*
X-27586Y8462D01*
X-27536Y8514D01*
X-27470Y8573D01*
X-27452Y8603D01*
X-27428Y8628D01*
X-27350Y8776D01*
X-26546Y10826D01*
X-26539Y10860D01*
X-26524Y10891D01*
X-26513Y10980D01*
X-26494Y11067D01*
X-26498Y11101D01*
X-26494Y11135D01*
X-26506Y11214D01*
X-26184Y11771D01*
X-26172Y11802D01*
X-26135Y11874D01*
X-25901Y12470D01*
X-25844Y12514D01*
X-25770Y12562D01*
X-25748Y12590D01*
X-25721Y12611D01*
X-25621Y12746D01*
X-24520Y14653D01*
X-24508Y14685D01*
X-24489Y14714D01*
X-24465Y14800D01*
X-24433Y14883D01*
X-24432Y14918D01*
X-24423Y14951D01*
X-24423Y15031D01*
X-24022Y15534D01*
X-24012Y15551D01*
X-24005Y15558D01*
X-23999Y15572D01*
X-23957Y15628D01*
X-23637Y16182D01*
X-23575Y16218D01*
X-23494Y16254D01*
X-23468Y16278D01*
X-23438Y16295D01*
X-23320Y16414D01*
X-21947Y18135D01*
X-21930Y18166D01*
X-21906Y18191D01*
X-21870Y18272D01*
X-21827Y18350D01*
X-21820Y18384D01*
X-21806Y18416D01*
X-21794Y18494D01*
X-21323Y18932D01*
X-21302Y18958D01*
X-21245Y19015D01*
X-20846Y19516D01*
X-20779Y19542D01*
X-20693Y19566D01*
X-20665Y19585D01*
X-20632Y19598D01*
X-20498Y19697D01*
X-18883Y21195D01*
X-18862Y21222D01*
X-18835Y21244D01*
X-18787Y21319D01*
X-18733Y21389D01*
X-18721Y21422D01*
X-18702Y21451D01*
X-18679Y21527D01*
X-18147Y21890D01*
X-18123Y21912D01*
X-18058Y21961D01*
X-17589Y22396D01*
X-17519Y22412D01*
X-17431Y22423D01*
X-17399Y22438D01*
X-17365Y22445D01*
X-17217Y22524D01*
X-15398Y23764D01*
X-15373Y23788D01*
X-15343Y23806D01*
X-15284Y23872D01*
X-15220Y23934D01*
X-15204Y23964D01*
X-15181Y23990D01*
X-15147Y24062D01*
X-14567Y24341D01*
X-14540Y24360D01*
X-14468Y24398D01*
X-13939Y24759D01*
X-13867Y24764D01*
X-13779Y24761D01*
X-13745Y24772D01*
X-13711Y24774D01*
X-13553Y24830D01*
X-11569Y25785D01*
X-11540Y25805D01*
X-11508Y25818D01*
X-11440Y25875D01*
X-11367Y25926D01*
X-11347Y25954D01*
X-11320Y25976D01*
X-11276Y26042D01*
X-10661Y26232D01*
X-10631Y26247D01*
X-10555Y26273D01*
X-9978Y26551D01*
X-9906Y26545D01*
X-9819Y26530D01*
X-9784Y26535D01*
X-9750Y26532D01*
X-9585Y26564D01*
X-7481Y27213D01*
X-7450Y27228D01*
X-7416Y27236D01*
X-7340Y27282D01*
X-7261Y27322D01*
X-7236Y27347D01*
X-7207Y27365D01*
X-7153Y27423D01*
X-6516Y27519D01*
X-6485Y27529D01*
X-6405Y27544D01*
X-5793Y27733D01*
X-5724Y27717D01*
X-5639Y27688D01*
X-5605Y27688D01*
X-5571Y27680D01*
X-5403Y27687D01*
X-3226Y28015D01*
X-3193Y28026D01*
X-3158Y28028D01*
X-3077Y28063D01*
X-2992Y28090D01*
X-2964Y28111D01*
X-2932Y28125D01*
X-2870Y28174D01*
X-2227Y28174D01*
X-2194Y28180D01*
X-2113Y28183D01*
X-1480Y28278D01*
X-1413Y28251D01*
X-1334Y28211D01*
X-1300Y28206D01*
X-1268Y28193D01*
X-1101Y28174D01*
X1101Y28174D01*
X1135Y28180D01*
X1170Y28177D01*
X1256Y28200D01*
X1344Y28214D01*
X1374Y28230D01*
X1408Y28239D01*
X1477Y28279D01*
X2113Y28183D01*
X2146Y28183D01*
X2227Y28174D01*
X2867Y28174D01*
X2929Y28138D01*
X3001Y28086D01*
X3034Y28076D01*
X3064Y28058D01*
X3226Y28015D01*
X5403Y27687D01*
X5438Y27687D01*
X5472Y27680D01*
X5560Y27689D01*
X5649Y27690D01*
X5682Y27701D01*
X5717Y27705D01*
X5790Y27734D01*
X6405Y27544D01*
X6438Y27540D01*
X6516Y27519D01*
X7150Y27424D01*
X7205Y27378D01*
X7269Y27316D01*
X7300Y27301D01*
X7327Y27279D01*
X7481Y27213D01*
X9585Y26564D01*
X9619Y26559D01*
X9652Y26546D01*
X9741Y26542D01*
X9829Y26530D01*
X9863Y26536D01*
X9897Y26535D01*
X9975Y26553D01*
X10555Y26273D01*
X10586Y26264D01*
X10661Y26232D01*
X11272Y26043D01*
X11321Y25990D01*
X11374Y25919D01*
X11403Y25900D01*
X11426Y25874D01*
X11569Y25785D01*
X13553Y24830D01*
X13586Y24820D01*
X13616Y24803D01*
X13703Y24785D01*
X13788Y24760D01*
X13823Y24761D01*
X13857Y24755D01*
X13936Y24761D01*
X14468Y24398D01*
X14498Y24384D01*
X14567Y24341D01*
X15144Y24063D01*
X15183Y24004D01*
X15226Y23926D01*
X15251Y23902D01*
X15271Y23873D01*
X15398Y23764D01*
X17217Y22524D01*
X17249Y22509D01*
X17276Y22488D01*
X17360Y22457D01*
X17440Y22420D01*
X17475Y22416D01*
X17507Y22404D01*
X17587Y22398D01*
X18058Y21961D01*
X18086Y21942D01*
X18147Y21890D01*
X18676Y21529D01*
X18707Y21464D01*
X18737Y21381D01*
X18759Y21353D01*
X18774Y21322D01*
X18883Y21195D01*
X20498Y19697D01*
X20526Y19678D01*
X20550Y19653D01*
X20628Y19611D01*
X20703Y19561D01*
X20736Y19553D01*
X20766Y19536D01*
X20844Y19519D01*
X21245Y19015D01*
X21270Y18993D01*
X21323Y18932D01*
X21792Y18496D01*
X21813Y18428D01*
X21830Y18340D01*
X21848Y18310D01*
X21858Y18277D01*
X21947Y18135D01*
X23320Y16414D01*
X23346Y16391D01*
X23365Y16362D01*
X23436Y16308D01*
X23502Y16249D01*
X23534Y16235D01*
X23562Y16214D01*
X23636Y16185D01*
X23909Y15712D01*
X23939Y15675D01*
X23962Y15633D01*
X24016Y15581D01*
X24065Y15522D01*
X24105Y15496D01*
X24140Y15463D01*
X24209Y15432D01*
X24273Y15391D01*
X24320Y15380D01*
X24363Y15360D01*
X24438Y15351D01*
X24512Y15334D01*
X24560Y15338D01*
X24607Y15333D01*
X24682Y15349D01*
X24757Y15355D01*
X24801Y15375D01*
X24848Y15385D01*
X24913Y15424D01*
X24982Y15454D01*
X25018Y15487D01*
X25059Y15511D01*
X25108Y15569D01*
X25164Y15620D01*
X25188Y15661D01*
X25219Y15698D01*
X25247Y15768D01*
X25284Y15835D01*
X25293Y15882D01*
X25311Y15926D01*
X25325Y16054D01*
X25329Y16076D01*
X25328Y16083D01*
X25329Y16093D01*
X25329Y91622D01*
X25315Y91712D01*
X25307Y91803D01*
X25295Y91833D01*
X25290Y91865D01*
X25247Y91945D01*
X25211Y92029D01*
X25185Y92061D01*
X25174Y92082D01*
X25151Y92104D01*
X25106Y92160D01*
X17137Y100129D01*
X17079Y100171D01*
X17027Y100221D01*
X16980Y100243D01*
X16937Y100273D01*
X16869Y100294D01*
X16804Y100324D01*
X16752Y100330D01*
X16702Y100345D01*
X16630Y100343D01*
X16559Y100351D01*
X16508Y100340D01*
X16456Y100339D01*
X16389Y100314D01*
X16319Y100299D01*
X16274Y100272D01*
X16225Y100255D01*
X16169Y100210D01*
X16108Y100173D01*
X16074Y100133D01*
X16033Y100101D01*
X15995Y100041D01*
X15948Y99986D01*
X15928Y99938D01*
X15900Y99894D01*
X15883Y99824D01*
X15856Y99758D01*
X15848Y99687D01*
X15840Y99655D01*
X15842Y99632D01*
X15837Y99591D01*
X15837Y99393D01*
X14810Y98366D01*
X14757Y98292D01*
X14698Y98223D01*
X14686Y98193D01*
X14667Y98166D01*
X14640Y98079D01*
X14606Y97995D01*
X14601Y97954D01*
X14595Y97931D01*
X14595Y97899D01*
X14587Y97828D01*
X14587Y95148D01*
X-13390Y67171D01*
X-13443Y67097D01*
X-13502Y67028D01*
X-13515Y66998D01*
X-13533Y66971D01*
X-13560Y66884D01*
X-13594Y66800D01*
X-13599Y66759D01*
X-13606Y66736D01*
X-13605Y66704D01*
X-13613Y66633D01*
X-13613Y58431D01*
X-14506Y57538D01*
X-26769Y57538D01*
X-27662Y58431D01*
X-27662Y61235D01*
X-27665Y61255D01*
X-27663Y61275D01*
X-27685Y61376D01*
X-27702Y61478D01*
X-27711Y61496D01*
X-27716Y61515D01*
X-27769Y61604D01*
X-27817Y61696D01*
X-27831Y61709D01*
X-27842Y61726D01*
X-27920Y61794D01*
X-27995Y61865D01*
X-28013Y61873D01*
X-28029Y61886D01*
X-28125Y61925D01*
X-28218Y61969D01*
X-28238Y61971D01*
X-28257Y61978D01*
X-28423Y61997D01*
X-43688Y61997D01*
X-43757Y62025D01*
X-43798Y62029D01*
X-43820Y62036D01*
X-43853Y62035D01*
X-43924Y62043D01*
X-45358Y62043D01*
X-53026Y69711D01*
X-53084Y69753D01*
X-53136Y69802D01*
X-53183Y69824D01*
X-53225Y69854D01*
X-53294Y69876D01*
X-53359Y69906D01*
X-53411Y69911D01*
X-53461Y69927D01*
X-53532Y69925D01*
X-53603Y69933D01*
X-53654Y69922D01*
X-53706Y69920D01*
X-53774Y69896D01*
X-53844Y69881D01*
X-53889Y69854D01*
X-53937Y69836D01*
X-53993Y69791D01*
X-54055Y69754D01*
X-54089Y69715D01*
X-54129Y69682D01*
X-54168Y69622D01*
X-54215Y69567D01*
X-54234Y69519D01*
X-54262Y69475D01*
X-54280Y69406D01*
X-54307Y69339D01*
X-54315Y69268D01*
X-54323Y69237D01*
X-54321Y69214D01*
X-54325Y69173D01*
X-54325Y57850D01*
X-54336Y57839D01*
X-54358Y57792D01*
X-54388Y57750D01*
X-54409Y57681D01*
X-54439Y57616D01*
X-54445Y57564D01*
X-54460Y57515D01*
X-54458Y57443D01*
X-54466Y57372D01*
X-54455Y57321D01*
X-54454Y57269D01*
X-54429Y57201D01*
X-54414Y57131D01*
X-54387Y57086D01*
X-54370Y57038D01*
X-54325Y56982D01*
X-54288Y56920D01*
X-54248Y56886D01*
X-54216Y56846D01*
X-54156Y56807D01*
X-54101Y56760D01*
X-54053Y56741D01*
X-54009Y56713D01*
X-53939Y56695D01*
X-53873Y56668D01*
X-53802Y56660D01*
X-53770Y56652D01*
X-53747Y56654D01*
X-53706Y56650D01*
X-53218Y56650D01*
X-52325Y55757D01*
X-52325Y54272D01*
X-52322Y54253D01*
X-52324Y54233D01*
X-52302Y54132D01*
X-52286Y54030D01*
X-52276Y54012D01*
X-52272Y53993D01*
X-52219Y53904D01*
X-52170Y53812D01*
X-52156Y53799D01*
X-52146Y53782D01*
X-52067Y53714D01*
X-51992Y53643D01*
X-51974Y53635D01*
X-51959Y53622D01*
X-51863Y53583D01*
X-51769Y53539D01*
X-51749Y53537D01*
X-51731Y53530D01*
X-51564Y53511D01*
X-49019Y53511D01*
X-46501Y50993D01*
X-46501Y47432D01*
X-49019Y44914D01*
X-50831Y44914D01*
X-50921Y44899D01*
X-51012Y44892D01*
X-51042Y44879D01*
X-51074Y44874D01*
X-51154Y44831D01*
X-51157Y44830D01*
X-51564Y44830D01*
X-51584Y44827D01*
X-51603Y44829D01*
X-51705Y44807D01*
X-51807Y44791D01*
X-51824Y44781D01*
X-51844Y44777D01*
X-51933Y44724D01*
X-52024Y44675D01*
X-52038Y44661D01*
X-52055Y44651D01*
X-52122Y44572D01*
X-52194Y44497D01*
X-52202Y44479D01*
X-52215Y44464D01*
X-52254Y44368D01*
X-52297Y44274D01*
X-52299Y44254D01*
X-52307Y44236D01*
X-52325Y44069D01*
X-52325Y39493D01*
X-53218Y38600D01*
X-67482Y38600D01*
X-68375Y39493D01*
X-68375Y55757D01*
X-67857Y56274D01*
X-67845Y56290D01*
X-67830Y56303D01*
X-67774Y56390D01*
X-67714Y56474D01*
X-67708Y56493D01*
X-67697Y56510D01*
X-67672Y56610D01*
X-67641Y56709D01*
X-67642Y56729D01*
X-67637Y56748D01*
X-67645Y56851D01*
X-67648Y56955D01*
X-67654Y56974D01*
X-67656Y56994D01*
X-67696Y57088D01*
X-67732Y57186D01*
X-67744Y57202D01*
X-67752Y57220D01*
X-67857Y57351D01*
X-68375Y57868D01*
X-68375Y78025D01*
X-68378Y78045D01*
X-68376Y78064D01*
X-68398Y78166D01*
X-68414Y78268D01*
X-68424Y78285D01*
X-68428Y78305D01*
X-68481Y78394D01*
X-68530Y78485D01*
X-68544Y78499D01*
X-68554Y78516D01*
X-68633Y78583D01*
X-68708Y78655D01*
X-68726Y78663D01*
X-68741Y78676D01*
X-68837Y78715D01*
X-68931Y78758D01*
X-68951Y78760D01*
X-68969Y78768D01*
X-69136Y78786D01*
X-85914Y78786D01*
X-88331Y81203D01*
X-88405Y81256D01*
X-88474Y81316D01*
X-88504Y81328D01*
X-88530Y81347D01*
X-88617Y81374D01*
X-88702Y81408D01*
X-88743Y81412D01*
X-88765Y81419D01*
X-88798Y81418D01*
X-88869Y81426D01*
X-89189Y81426D01*
X-89259Y81415D01*
X-89331Y81413D01*
X-89380Y81395D01*
X-89431Y81387D01*
X-89495Y81353D01*
X-89562Y81328D01*
X-89603Y81296D01*
X-89649Y81271D01*
X-89698Y81219D01*
X-89754Y81175D01*
X-89782Y81131D01*
X-89818Y81093D01*
X-89848Y81028D01*
X-89887Y80968D01*
X-89900Y80917D01*
X-89922Y80870D01*
X-89930Y80799D01*
X-89947Y80729D01*
X-89943Y80677D01*
X-89949Y80626D01*
X-89934Y80555D01*
X-89928Y80484D01*
X-89908Y80436D01*
X-89897Y80385D01*
X-89860Y80324D01*
X-89832Y80258D01*
X-89787Y80202D01*
X-89770Y80174D01*
X-89753Y80159D01*
X-89727Y80127D01*
X-85793Y76193D01*
X-85793Y68612D01*
X-85779Y68522D01*
X-85771Y68431D01*
X-85759Y68401D01*
X-85754Y68369D01*
X-85711Y68288D01*
X-85675Y68205D01*
X-85649Y68172D01*
X-85638Y68152D01*
X-85615Y68130D01*
X-85570Y68074D01*
X-84289Y66793D01*
X-84289Y63231D01*
X-86807Y60713D01*
X-90369Y60713D01*
X-92887Y63231D01*
X-92887Y66793D01*
X-91606Y68074D01*
X-91553Y68148D01*
X-91493Y68217D01*
X-91481Y68247D01*
X-91462Y68273D01*
X-91435Y68360D01*
X-91401Y68445D01*
X-91397Y68486D01*
X-91390Y68508D01*
X-91391Y68541D01*
X-91383Y68612D01*
X-91383Y73563D01*
X-91397Y73653D01*
X-91405Y73744D01*
X-91417Y73773D01*
X-91422Y73805D01*
X-91465Y73886D01*
X-91501Y73970D01*
X-91527Y74002D01*
X-91538Y74023D01*
X-91561Y74045D01*
X-91606Y74101D01*
X-99033Y81528D01*
X-99033Y89922D01*
X-84560Y104395D01*
X-83737Y104395D01*
X-83666Y104406D01*
X-83594Y104408D01*
X-83545Y104426D01*
X-83494Y104434D01*
X-83431Y104468D01*
X-83363Y104493D01*
X-83323Y104525D01*
X-83277Y104550D01*
X-83227Y104602D01*
X-83171Y104646D01*
X-83143Y104690D01*
X-83107Y104728D01*
X-83077Y104793D01*
X-83038Y104853D01*
X-83026Y104904D01*
X-83004Y104951D01*
X-82996Y105022D01*
X-82978Y105092D01*
X-82982Y105144D01*
X-82977Y105195D01*
X-82992Y105266D01*
X-82997Y105337D01*
X-83018Y105385D01*
X-83029Y105436D01*
X-83066Y105497D01*
X-83094Y105563D01*
X-83139Y105619D01*
X-83155Y105647D01*
X-83173Y105662D01*
X-83199Y105694D01*
X-84655Y107151D01*
X-84655Y110712D01*
X-82137Y113230D01*
X-80326Y113230D01*
X-80235Y113245D01*
X-80145Y113252D01*
X-80115Y113265D01*
X-80083Y113270D01*
X-80002Y113313D01*
X-79918Y113349D01*
X-79886Y113374D01*
X-79865Y113385D01*
X-79843Y113409D01*
X-79787Y113453D01*
X-79321Y113920D01*
X-79286Y113920D01*
X-79266Y113923D01*
X-79247Y113921D01*
X-79145Y113943D01*
X-79043Y113959D01*
X-79026Y113969D01*
X-79006Y113973D01*
X-78917Y114026D01*
X-78826Y114075D01*
X-78812Y114089D01*
X-78795Y114099D01*
X-78728Y114178D01*
X-78656Y114253D01*
X-78648Y114271D01*
X-78635Y114286D01*
X-78596Y114382D01*
X-78553Y114476D01*
X-78551Y114496D01*
X-78543Y114514D01*
X-78525Y114681D01*
X-78525Y117257D01*
X-77632Y118150D01*
X-66368Y118150D01*
X-65475Y117257D01*
X-65475Y105156D01*
X-65472Y105136D01*
X-65474Y105117D01*
X-65452Y105015D01*
X-65436Y104913D01*
X-65426Y104896D01*
X-65422Y104876D01*
X-65369Y104787D01*
X-65320Y104696D01*
X-65306Y104682D01*
X-65296Y104665D01*
X-65217Y104598D01*
X-65142Y104526D01*
X-65124Y104518D01*
X-65109Y104505D01*
X-65013Y104466D01*
X-64919Y104423D01*
X-64899Y104421D01*
X-64881Y104413D01*
X-64714Y104395D01*
X-62286Y104395D01*
X-62266Y104398D01*
X-62247Y104396D01*
X-62145Y104418D01*
X-62043Y104434D01*
X-62026Y104444D01*
X-62006Y104448D01*
X-61917Y104501D01*
X-61826Y104550D01*
X-61812Y104564D01*
X-61795Y104574D01*
X-61728Y104653D01*
X-61656Y104728D01*
X-61648Y104746D01*
X-61635Y104761D01*
X-61596Y104857D01*
X-61553Y104951D01*
X-61551Y104971D01*
X-61543Y104989D01*
X-61525Y105156D01*
X-61525Y117257D01*
X-60632Y118150D01*
X-52243Y118150D01*
X-52153Y118164D01*
X-52062Y118172D01*
X-52032Y118184D01*
X-52000Y118189D01*
X-51943Y118220D01*
X-44831Y118220D01*
X-44760Y118231D01*
X-44688Y118233D01*
X-44640Y118251D01*
X-44588Y118259D01*
X-44525Y118293D01*
X-44457Y118318D01*
X-44417Y118350D01*
X-44371Y118375D01*
X-44321Y118427D01*
X-44265Y118471D01*
X-44237Y118515D01*
X-44201Y118553D01*
X-44171Y118618D01*
X-44132Y118678D01*
X-44120Y118729D01*
X-44098Y118776D01*
X-44090Y118847D01*
X-44072Y118917D01*
X-44076Y118969D01*
X-44071Y119020D01*
X-44086Y119091D01*
X-44091Y119162D01*
X-44112Y119210D01*
X-44123Y119261D01*
X-44160Y119322D01*
X-44188Y119388D01*
X-44212Y119419D01*
X-44212Y123000D01*
X-41694Y125518D01*
X-38133Y125518D01*
X-37787Y125172D01*
X-37728Y125130D01*
X-37677Y125081D01*
X-37629Y125059D01*
X-37587Y125029D01*
X-37519Y125007D01*
X-37453Y124977D01*
X-37402Y124972D01*
X-37352Y124956D01*
X-37280Y124958D01*
X-37209Y124950D01*
X-37158Y124961D01*
X-37106Y124963D01*
X-37039Y124987D01*
X-36969Y125002D01*
X-36924Y125029D01*
X-36875Y125047D01*
X-36819Y125092D01*
X-36758Y125129D01*
X-36724Y125168D01*
X-36683Y125201D01*
X-36644Y125261D01*
X-36598Y125315D01*
X-36578Y125364D01*
X-36550Y125408D01*
X-36533Y125477D01*
X-36506Y125544D01*
X-36498Y125615D01*
X-36490Y125646D01*
X-36492Y125669D01*
X-36487Y125710D01*
X-36487Y128909D01*
X-36482Y128917D01*
X-36456Y129018D01*
X-36426Y129116D01*
X-36427Y129136D01*
X-36422Y129156D01*
X-36430Y129259D01*
X-36432Y129362D01*
X-36439Y129381D01*
X-36441Y129401D01*
X-36481Y129496D01*
X-36487Y129512D01*
X-36487Y133911D01*
X-36482Y133919D01*
X-36457Y134019D01*
X-36427Y134118D01*
X-36427Y134138D01*
X-36422Y134157D01*
X-36430Y134260D01*
X-36433Y134364D01*
X-36440Y134383D01*
X-36441Y134402D01*
X-36482Y134497D01*
X-36487Y134512D01*
X-36487Y135665D01*
X-36499Y135736D01*
X-36501Y135808D01*
X-36519Y135857D01*
X-36527Y135908D01*
X-36561Y135971D01*
X-36585Y136039D01*
X-36618Y136079D01*
X-36642Y136126D01*
X-36694Y136175D01*
X-36739Y136231D01*
X-36783Y136259D01*
X-36820Y136295D01*
X-36885Y136325D01*
X-36946Y136364D01*
X-36996Y136377D01*
X-37043Y136399D01*
X-37115Y136406D01*
X-37184Y136424D01*
X-37236Y136420D01*
X-37288Y136426D01*
X-37358Y136410D01*
X-37429Y136405D01*
X-37477Y136384D01*
X-37528Y136373D01*
X-37590Y136337D01*
X-37656Y136308D01*
X-37712Y136264D01*
X-37739Y136247D01*
X-37755Y136229D01*
X-37787Y136204D01*
X-48028Y125962D01*
X-50037Y123953D01*
X-110986Y123953D01*
X-111076Y123939D01*
X-111167Y123931D01*
X-111197Y123919D01*
X-111229Y123914D01*
X-111310Y123871D01*
X-111393Y123835D01*
X-111426Y123809D01*
X-111446Y123798D01*
X-111468Y123775D01*
X-111524Y123730D01*
X-128129Y107126D01*
X-128182Y107052D01*
X-128242Y106982D01*
X-128254Y106952D01*
X-128273Y106926D01*
X-128299Y106839D01*
X-128318Y106793D01*
X-128324Y106780D01*
X-128324Y106777D01*
X-128334Y106754D01*
X-128338Y106713D01*
X-128345Y106691D01*
X-128344Y106659D01*
X-128352Y106587D01*
X-128352Y104450D01*
X-128390Y104393D01*
X-128453Y104305D01*
X-128457Y104291D01*
X-128465Y104278D01*
X-128493Y104174D01*
X-128525Y104070D01*
X-128525Y104055D01*
X-128529Y104041D01*
X-128522Y103932D01*
X-128519Y103824D01*
X-128514Y103810D01*
X-128513Y103795D01*
X-128472Y103694D01*
X-128435Y103593D01*
X-128425Y103581D01*
X-128420Y103567D01*
X-128349Y103486D01*
X-128281Y103401D01*
X-128268Y103393D01*
X-128259Y103381D01*
X-128165Y103326D01*
X-128074Y103268D01*
X-128060Y103264D01*
X-128047Y103257D01*
X-127885Y103213D01*
X-127777Y103197D01*
X-127744Y103197D01*
X-127663Y103188D01*
X-127023Y103188D01*
X-126961Y103152D01*
X-126889Y103100D01*
X-126856Y103090D01*
X-126826Y103072D01*
X-126664Y103029D01*
X-124484Y102700D01*
X-124450Y102700D01*
X-124416Y102693D01*
X-124327Y102702D01*
X-124238Y102703D01*
X-124205Y102714D01*
X-124171Y102718D01*
X-124097Y102747D01*
X-123482Y102557D01*
X-123450Y102552D01*
X-123371Y102532D01*
X-122738Y102436D01*
X-122683Y102391D01*
X-122619Y102329D01*
X-122588Y102314D01*
X-122561Y102292D01*
X-122407Y102225D01*
X-120301Y101574D01*
X-120266Y101570D01*
X-120234Y101557D01*
X-120145Y101553D01*
X-120057Y101541D01*
X-120023Y101547D01*
X-119988Y101546D01*
X-119911Y101563D01*
X-119331Y101284D01*
X-119300Y101275D01*
X-119225Y101242D01*
X-118613Y101053D01*
X-118565Y101000D01*
X-118511Y100929D01*
X-118483Y100910D01*
X-118459Y100884D01*
X-118317Y100795D01*
X-116332Y99838D01*
X-116299Y99829D01*
X-116268Y99811D01*
X-116181Y99794D01*
X-116096Y99769D01*
X-116061Y99770D01*
X-116027Y99763D01*
X-115948Y99769D01*
X-115416Y99407D01*
X-115386Y99393D01*
X-115318Y99350D01*
X-114741Y99072D01*
X-114701Y99012D01*
X-114659Y98934D01*
X-114633Y98910D01*
X-114614Y98881D01*
X-114487Y98772D01*
X-112666Y97530D01*
X-112634Y97515D01*
X-112607Y97494D01*
X-112524Y97464D01*
X-112443Y97426D01*
X-112408Y97422D01*
X-112376Y97410D01*
X-112297Y97405D01*
X-111825Y96967D01*
X-111798Y96948D01*
X-111736Y96896D01*
X-111207Y96535D01*
X-111177Y96470D01*
X-111146Y96386D01*
X-111125Y96359D01*
X-111110Y96328D01*
X-111000Y96201D01*
X-109385Y94701D01*
X-109356Y94682D01*
X-109332Y94657D01*
X-109254Y94614D01*
X-109180Y94565D01*
X-109147Y94556D01*
X-109116Y94540D01*
X-109039Y94522D01*
X-108637Y94019D01*
X-108613Y93996D01*
X-108560Y93935D01*
X-108091Y93500D01*
X-108070Y93431D01*
X-108053Y93344D01*
X-108035Y93314D01*
X-108025Y93280D01*
X-107936Y93138D01*
X-106562Y91415D01*
X-106537Y91392D01*
X-106517Y91363D01*
X-106446Y91309D01*
X-106380Y91250D01*
X-106348Y91236D01*
X-106320Y91215D01*
X-106246Y91186D01*
X-105925Y90629D01*
X-105904Y90603D01*
X-105861Y90535D01*
X-105462Y90034D01*
X-105452Y89963D01*
X-105447Y89874D01*
X-105435Y89842D01*
X-105430Y89807D01*
X-105362Y89654D01*
X-104261Y87744D01*
X-104239Y87718D01*
X-104224Y87686D01*
X-104161Y87623D01*
X-104105Y87554D01*
X-104076Y87536D01*
X-104052Y87511D01*
X-103983Y87471D01*
X-103748Y86872D01*
X-103731Y86844D01*
X-103698Y86770D01*
X-103378Y86215D01*
X-103379Y86143D01*
X-103388Y86055D01*
X-103380Y86021D01*
X-103381Y85986D01*
X-103337Y85824D01*
X-102532Y83772D01*
X-102515Y83742D01*
X-102504Y83709D01*
X-102452Y83637D01*
X-102407Y83561D01*
X-102380Y83538D01*
X-102360Y83510D01*
X-102298Y83461D01*
X-102155Y82833D01*
X-102143Y82802D01*
X-102121Y82724D01*
X-101888Y82128D01*
X-101899Y82057D01*
X-101921Y81971D01*
X-101918Y81937D01*
X-101924Y81902D01*
X-101905Y81736D01*
X-101415Y79587D01*
X-101402Y79555D01*
X-101397Y79520D01*
X-101356Y79441D01*
X-101322Y79359D01*
X-101300Y79332D01*
X-101284Y79302D01*
X-101230Y79244D01*
X-101182Y78602D01*
X-101174Y78570D01*
X-101165Y78489D01*
X-101023Y77865D01*
X-101044Y77796D01*
X-101079Y77714D01*
X-101082Y77680D01*
X-101092Y77647D01*
X-101098Y77479D01*
X-100934Y75281D01*
X-100926Y75248D01*
X-100926Y75213D01*
X-100897Y75128D01*
X-100876Y75042D01*
X-100858Y75013D01*
X-100847Y74980D01*
X-100802Y74914D01*
X-100850Y74273D01*
X-100847Y74240D01*
X-100850Y74159D01*
X-100803Y73520D01*
X-100834Y73456D01*
X-100881Y73380D01*
X-100889Y73346D01*
X-100904Y73315D01*
X-100909Y73286D01*
X-100910Y73285D01*
X-100910Y73281D01*
X-100935Y73150D01*
X-101100Y70952D01*
X-101097Y70918D01*
X-101102Y70883D01*
X-101087Y70796D01*
X-101079Y70707D01*
X-101065Y70675D01*
X-101059Y70641D01*
X-101024Y70570D01*
X-101168Y69942D01*
X-101170Y69909D01*
X-101185Y69830D01*
X-101233Y69191D01*
X-101274Y69133D01*
X-101331Y69064D01*
X-101344Y69032D01*
X-101363Y69004D01*
X-101419Y68845D01*
X-101910Y66696D01*
X-101912Y66662D01*
X-101922Y66629D01*
X-101919Y66540D01*
X-101925Y66451D01*
X-101916Y66417D01*
X-101915Y66383D01*
X-101892Y66307D01*
X-102127Y65708D01*
X-102133Y65681D01*
X-102137Y65673D01*
X-102137Y65666D01*
X-102160Y65599D01*
X-102303Y64975D01*
X-102352Y64923D01*
X-102419Y64864D01*
X-102436Y64834D01*
X-102460Y64809D01*
X-102538Y64660D01*
X-103344Y62609D01*
X-103352Y62575D01*
X-103367Y62544D01*
X-103377Y62455D01*
X-103396Y62368D01*
X-103392Y62334D01*
X-103396Y62299D01*
X-103385Y62221D01*
X-103707Y61664D01*
X-103718Y61633D01*
X-103756Y61561D01*
X-103990Y60965D01*
X-104047Y60921D01*
X-104121Y60873D01*
X-104143Y60846D01*
X-104170Y60824D01*
X-104270Y60689D01*
X-105372Y58781D01*
X-105385Y58748D01*
X-105404Y58719D01*
X-105428Y58634D01*
X-105459Y58551D01*
X-105461Y58516D01*
X-105470Y58482D01*
X-105470Y58403D01*
X-105871Y57900D01*
X-105887Y57871D01*
X-105935Y57806D01*
X-106256Y57252D01*
X-106318Y57216D01*
X-106399Y57180D01*
X-106425Y57156D01*
X-106455Y57139D01*
X-106573Y57020D01*
X-107948Y55297D01*
X-107965Y55267D01*
X-107989Y55242D01*
X-108025Y55161D01*
X-108068Y55083D01*
X-108075Y55049D01*
X-108089Y55017D01*
X-108101Y54939D01*
X-108573Y54501D01*
X-108593Y54475D01*
X-108650Y54418D01*
X-109050Y53917D01*
X-109116Y53892D01*
X-109202Y53868D01*
X-109231Y53848D01*
X-109263Y53836D01*
X-109398Y53736D01*
X-111014Y52237D01*
X-111035Y52210D01*
X-111063Y52188D01*
X-111111Y52113D01*
X-111165Y52043D01*
X-111177Y52010D01*
X-111195Y51981D01*
X-111219Y51905D01*
X-111751Y51543D01*
X-111775Y51520D01*
X-111840Y51472D01*
X-112309Y51036D01*
X-112379Y51021D01*
X-112467Y51010D01*
X-112499Y50995D01*
X-112533Y50988D01*
X-112681Y50909D01*
X-114406Y49734D01*
X-114451Y49690D01*
X-114503Y49655D01*
X-114540Y49606D01*
X-114584Y49564D01*
X-114606Y49523D01*
X-114673Y49484D01*
X-114690Y49470D01*
X-114711Y49461D01*
X-114785Y49392D01*
X-114863Y49328D01*
X-114875Y49309D01*
X-114892Y49294D01*
X-114940Y49205D01*
X-114994Y49120D01*
X-114999Y49098D01*
X-115010Y49079D01*
X-115028Y48979D01*
X-115052Y48881D01*
X-115050Y48859D01*
X-115054Y48837D01*
X-115039Y48736D01*
X-115030Y48636D01*
X-115021Y48615D01*
X-115018Y48593D01*
X-114950Y48440D01*
X-96124Y16266D01*
X-96314Y16176D01*
X-96336Y16159D01*
X-96363Y16149D01*
X-96415Y16100D01*
X-96473Y16057D01*
X-96487Y16032D01*
X-96508Y16013D01*
X-96537Y15947D01*
X-96573Y15885D01*
X-96576Y15857D01*
X-96588Y15831D01*
X-96589Y15759D01*
X-96598Y15688D01*
X-96590Y15661D01*
X-96591Y15632D01*
X-96555Y15537D01*
X-96544Y15497D01*
X-96537Y15488D01*
X-96533Y15476D01*
X-87033Y-1024D01*
X-86981Y-1082D01*
X-86935Y-1145D01*
X-86916Y-1156D01*
X-86901Y-1173D01*
X-86831Y-1207D01*
X-86764Y-1247D01*
X-86740Y-1251D01*
X-86722Y-1259D01*
X-86677Y-1261D01*
X-86600Y-1274D01*
X-67600Y-1274D01*
X-67572Y-1269D01*
G37*
G36*
X86676Y-1259D02*
X86676Y-1259D01*
X86754Y-1250D01*
X86773Y-1239D01*
X86795Y-1235D01*
X86859Y-1191D01*
X86927Y-1152D01*
X86943Y-1133D01*
X86959Y-1122D01*
X86983Y-1084D01*
X87033Y-1024D01*
X96533Y15476D01*
X96542Y15503D01*
X96558Y15527D01*
X96573Y15597D01*
X96596Y15665D01*
X96593Y15693D01*
X96599Y15721D01*
X96586Y15792D01*
X96580Y15863D01*
X96567Y15888D01*
X96561Y15916D01*
X96521Y15976D01*
X96488Y16039D01*
X96466Y16057D01*
X96450Y16081D01*
X96367Y16139D01*
X96335Y16166D01*
X96324Y16169D01*
X96314Y16176D01*
X95985Y16332D01*
X114606Y48747D01*
X114646Y48853D01*
X114689Y48958D01*
X114689Y48968D01*
X114693Y48977D01*
X114697Y49090D01*
X114703Y49204D01*
X114701Y49213D01*
X114701Y49223D01*
X114669Y49332D01*
X114639Y49441D01*
X114634Y49449D01*
X114631Y49458D01*
X114565Y49551D01*
X114502Y49646D01*
X114493Y49653D01*
X114489Y49659D01*
X114470Y49674D01*
X114375Y49755D01*
X112681Y50909D01*
X112649Y50924D01*
X112622Y50945D01*
X112538Y50975D01*
X112458Y51013D01*
X112423Y51017D01*
X112391Y51028D01*
X112312Y51034D01*
X111840Y51472D01*
X111812Y51490D01*
X111751Y51543D01*
X111221Y51903D01*
X111191Y51968D01*
X111160Y52052D01*
X111139Y52079D01*
X111124Y52110D01*
X111014Y52237D01*
X109398Y53736D01*
X109369Y53755D01*
X109345Y53780D01*
X109267Y53823D01*
X109193Y53872D01*
X109160Y53881D01*
X109129Y53897D01*
X109052Y53915D01*
X108650Y54418D01*
X108626Y54440D01*
X108573Y54501D01*
X108103Y54937D01*
X108083Y55005D01*
X108065Y55092D01*
X108048Y55122D01*
X108038Y55156D01*
X107948Y55297D01*
X106573Y57020D01*
X106548Y57044D01*
X106528Y57072D01*
X106457Y57126D01*
X106391Y57185D01*
X106359Y57199D01*
X106331Y57220D01*
X106257Y57249D01*
X105935Y57806D01*
X105914Y57832D01*
X105871Y57900D01*
X105472Y58401D01*
X105462Y58471D01*
X105457Y58560D01*
X105445Y58593D01*
X105440Y58627D01*
X105372Y58781D01*
X104270Y60689D01*
X104248Y60716D01*
X104232Y60747D01*
X104170Y60810D01*
X104114Y60879D01*
X104084Y60898D01*
X104060Y60923D01*
X103991Y60962D01*
X103756Y61561D01*
X103739Y61590D01*
X103707Y61664D01*
X103386Y62218D01*
X103387Y62290D01*
X103396Y62378D01*
X103388Y62412D01*
X103388Y62447D01*
X103344Y62609D01*
X102538Y64660D01*
X102521Y64690D01*
X102510Y64723D01*
X102458Y64795D01*
X102413Y64872D01*
X102386Y64894D01*
X102366Y64922D01*
X102304Y64972D01*
X102160Y65599D01*
X102148Y65630D01*
X102127Y65708D01*
X101893Y66304D01*
X101904Y66375D01*
X101926Y66461D01*
X101923Y66496D01*
X101929Y66530D01*
X101910Y66696D01*
X101419Y68845D01*
X101405Y68877D01*
X101400Y68912D01*
X101359Y68991D01*
X101326Y69073D01*
X101303Y69099D01*
X101287Y69130D01*
X101233Y69188D01*
X101185Y69830D01*
X101177Y69862D01*
X101168Y69942D01*
X101025Y70567D01*
X101047Y70635D01*
X101081Y70717D01*
X101084Y70752D01*
X101094Y70785D01*
X101100Y70952D01*
X100935Y73150D01*
X100927Y73184D01*
X100927Y73219D01*
X100898Y73303D01*
X100890Y73337D01*
X100885Y73360D01*
X100884Y73361D01*
X100877Y73389D01*
X100858Y73419D01*
X100847Y73451D01*
X100802Y73517D01*
X100850Y74159D01*
X100847Y74192D01*
X100850Y74273D01*
X100802Y74911D01*
X100834Y74976D01*
X100880Y75051D01*
X100888Y75085D01*
X100903Y75116D01*
X100934Y75281D01*
X101098Y77479D01*
X101095Y77514D01*
X101100Y77548D01*
X101084Y77636D01*
X101077Y77724D01*
X101063Y77756D01*
X101057Y77790D01*
X101022Y77862D01*
X101165Y78489D01*
X101167Y78522D01*
X101182Y78602D01*
X101230Y79240D01*
X101270Y79299D01*
X101328Y79367D01*
X101340Y79400D01*
X101360Y79428D01*
X101415Y79587D01*
X101905Y81736D01*
X101907Y81770D01*
X101917Y81803D01*
X101915Y81892D01*
X101920Y81981D01*
X101911Y82015D01*
X101910Y82049D01*
X101886Y82125D01*
X102121Y82724D01*
X102128Y82755D01*
X102136Y82771D01*
X102137Y82781D01*
X102155Y82833D01*
X102297Y83457D01*
X102346Y83509D01*
X102413Y83568D01*
X102430Y83598D01*
X102454Y83624D01*
X102532Y83772D01*
X103337Y85824D01*
X103344Y85858D01*
X103359Y85889D01*
X103370Y85978D01*
X103389Y86065D01*
X103385Y86099D01*
X103389Y86134D01*
X103377Y86212D01*
X103698Y86770D01*
X103710Y86800D01*
X103748Y86872D01*
X103982Y87468D01*
X104038Y87512D01*
X104113Y87561D01*
X104134Y87588D01*
X104162Y87609D01*
X104261Y87744D01*
X105362Y89654D01*
X105375Y89686D01*
X105394Y89715D01*
X105418Y89801D01*
X105449Y89884D01*
X105451Y89918D01*
X105460Y89952D01*
X105460Y90031D01*
X105861Y90535D01*
X105877Y90563D01*
X105925Y90629D01*
X106245Y91183D01*
X106307Y91219D01*
X106388Y91255D01*
X106414Y91279D01*
X106444Y91296D01*
X106562Y91415D01*
X107936Y93138D01*
X107953Y93169D01*
X107976Y93194D01*
X108013Y93276D01*
X108056Y93353D01*
X108063Y93387D01*
X108077Y93419D01*
X108088Y93497D01*
X108560Y93935D01*
X108580Y93961D01*
X108637Y94019D01*
X109037Y94520D01*
X109103Y94545D01*
X109189Y94569D01*
X109218Y94589D01*
X109250Y94601D01*
X109385Y94701D01*
X111000Y96201D01*
X111021Y96228D01*
X111048Y96250D01*
X111096Y96325D01*
X111151Y96395D01*
X111162Y96428D01*
X111181Y96457D01*
X111204Y96533D01*
X111736Y96896D01*
X111760Y96918D01*
X111825Y96967D01*
X111857Y96996D01*
X111900Y97052D01*
X111914Y97065D01*
X111918Y97073D01*
X111968Y97126D01*
X111984Y97161D01*
X112008Y97191D01*
X112036Y97271D01*
X112072Y97349D01*
X112076Y97387D01*
X112089Y97423D01*
X112090Y97508D01*
X112099Y97594D01*
X112091Y97631D01*
X112091Y97669D01*
X112065Y97750D01*
X112047Y97834D01*
X112027Y97867D01*
X112016Y97903D01*
X111965Y97971D01*
X111921Y98045D01*
X111892Y98070D01*
X111869Y98100D01*
X111799Y98149D01*
X111734Y98205D01*
X111698Y98219D01*
X111667Y98241D01*
X111585Y98265D01*
X111506Y98297D01*
X111457Y98302D01*
X111431Y98310D01*
X111401Y98308D01*
X111339Y98315D01*
X36422Y98315D01*
X36351Y98304D01*
X36279Y98302D01*
X36230Y98284D01*
X36179Y98276D01*
X36115Y98242D01*
X36048Y98217D01*
X36007Y98185D01*
X35961Y98161D01*
X35912Y98109D01*
X35856Y98064D01*
X35828Y98020D01*
X35792Y97982D01*
X35762Y97917D01*
X35723Y97857D01*
X35710Y97806D01*
X35688Y97759D01*
X35681Y97688D01*
X35663Y97618D01*
X35667Y97566D01*
X35661Y97515D01*
X35677Y97444D01*
X35682Y97373D01*
X35702Y97325D01*
X35714Y97274D01*
X35750Y97213D01*
X35778Y97147D01*
X35823Y97091D01*
X35840Y97063D01*
X35858Y97048D01*
X35883Y97016D01*
X36386Y96513D01*
X36386Y8816D01*
X36401Y8725D01*
X36408Y8635D01*
X36421Y8605D01*
X36426Y8573D01*
X36469Y8492D01*
X36504Y8408D01*
X36530Y8376D01*
X36541Y8355D01*
X36564Y8333D01*
X36609Y8277D01*
X38136Y6750D01*
X38136Y2775D01*
X35900Y538D01*
X35858Y480D01*
X35808Y428D01*
X35787Y381D01*
X35756Y339D01*
X35735Y270D01*
X35705Y205D01*
X35699Y153D01*
X35684Y103D01*
X35686Y32D01*
X35678Y-39D01*
X35689Y-90D01*
X35690Y-142D01*
X35715Y-210D01*
X35730Y-280D01*
X35757Y-325D01*
X35775Y-373D01*
X35819Y-429D01*
X35856Y-491D01*
X35896Y-525D01*
X35928Y-565D01*
X35989Y-604D01*
X36043Y-651D01*
X36091Y-670D01*
X36135Y-698D01*
X36205Y-716D01*
X36271Y-743D01*
X36343Y-751D01*
X36374Y-759D01*
X36397Y-757D01*
X36438Y-761D01*
X67105Y-761D01*
X67106Y-764D01*
X67101Y-792D01*
X67118Y-861D01*
X67126Y-933D01*
X67141Y-957D01*
X67147Y-985D01*
X67190Y-1043D01*
X67226Y-1105D01*
X67248Y-1122D01*
X67265Y-1145D01*
X67327Y-1182D01*
X67384Y-1225D01*
X67412Y-1232D01*
X67436Y-1247D01*
X67536Y-1263D01*
X67577Y-1274D01*
X67587Y-1272D01*
X67600Y-1274D01*
X86600Y-1274D01*
X86676Y-1259D01*
G37*
G36*
X-144982Y100729D02*
X-144982Y100729D01*
X-144904Y100737D01*
X-144862Y100755D01*
X-144818Y100765D01*
X-144751Y100805D01*
X-144679Y100837D01*
X-144646Y100868D01*
X-144607Y100891D01*
X-144556Y100950D01*
X-144498Y101003D01*
X-144476Y101043D01*
X-144447Y101078D01*
X-144417Y101150D01*
X-144380Y101219D01*
X-144372Y101264D01*
X-144355Y101306D01*
X-144340Y101443D01*
X-144336Y101461D01*
X-144337Y101466D01*
X-144336Y101473D01*
X-144336Y108448D01*
X-81463Y171322D01*
X-46937Y171322D01*
X-46866Y171333D01*
X-46794Y171335D01*
X-46745Y171353D01*
X-46694Y171361D01*
X-46631Y171395D01*
X-46563Y171420D01*
X-46523Y171452D01*
X-46477Y171477D01*
X-46427Y171529D01*
X-46371Y171573D01*
X-46343Y171617D01*
X-46307Y171655D01*
X-46277Y171720D01*
X-46238Y171780D01*
X-46226Y171831D01*
X-46204Y171878D01*
X-46196Y171949D01*
X-46178Y172019D01*
X-46182Y172071D01*
X-46177Y172122D01*
X-46192Y172193D01*
X-46197Y172264D01*
X-46218Y172312D01*
X-46229Y172363D01*
X-46266Y172424D01*
X-46294Y172490D01*
X-46339Y172546D01*
X-46355Y172574D01*
X-46373Y172589D01*
X-46399Y172621D01*
X-54910Y181132D01*
X-54984Y181185D01*
X-55053Y181245D01*
X-55083Y181257D01*
X-55109Y181276D01*
X-55196Y181303D01*
X-55281Y181337D01*
X-55322Y181341D01*
X-55344Y181348D01*
X-55377Y181347D01*
X-55448Y181355D01*
X-57426Y181355D01*
X-57541Y181336D01*
X-57657Y181319D01*
X-57662Y181317D01*
X-57669Y181316D01*
X-57771Y181261D01*
X-57876Y181208D01*
X-57880Y181203D01*
X-57886Y181200D01*
X-57966Y181116D01*
X-58048Y181032D01*
X-58052Y181026D01*
X-58055Y181022D01*
X-58063Y181005D01*
X-58129Y180885D01*
X-58922Y178970D01*
X-61495Y176397D01*
X-64856Y175005D01*
X-68494Y175005D01*
X-71855Y176397D01*
X-74428Y178970D01*
X-75820Y182331D01*
X-75820Y185969D01*
X-74428Y189330D01*
X-71855Y191903D01*
X-68494Y193295D01*
X-64856Y193295D01*
X-61495Y191903D01*
X-58922Y189330D01*
X-58129Y187415D01*
X-58067Y187315D01*
X-58008Y187215D01*
X-58003Y187211D01*
X-58000Y187206D01*
X-57909Y187131D01*
X-57821Y187055D01*
X-57815Y187053D01*
X-57810Y187049D01*
X-57702Y187007D01*
X-57593Y186963D01*
X-57585Y186962D01*
X-57580Y186961D01*
X-57562Y186960D01*
X-57426Y186945D01*
X-52817Y186945D01*
X-40340Y174468D01*
X-40266Y174415D01*
X-40197Y174355D01*
X-40167Y174343D01*
X-40141Y174324D01*
X-40054Y174297D01*
X-39969Y174263D01*
X-39928Y174259D01*
X-39906Y174252D01*
X-39873Y174253D01*
X-39802Y174245D01*
X-37248Y174245D01*
X-37229Y174248D01*
X-37209Y174246D01*
X-37108Y174268D01*
X-37006Y174284D01*
X-36988Y174294D01*
X-36969Y174298D01*
X-36880Y174351D01*
X-36788Y174400D01*
X-36775Y174414D01*
X-36758Y174424D01*
X-36690Y174503D01*
X-36619Y174578D01*
X-36611Y174596D01*
X-36598Y174611D01*
X-36559Y174707D01*
X-36515Y174801D01*
X-36513Y174821D01*
X-36506Y174839D01*
X-36487Y175006D01*
X-36487Y176739D01*
X-36502Y176829D01*
X-36509Y176920D01*
X-36522Y176950D01*
X-36527Y176982D01*
X-36570Y177062D01*
X-36605Y177146D01*
X-36631Y177178D01*
X-36642Y177199D01*
X-36665Y177221D01*
X-36710Y177277D01*
X-60948Y201515D01*
X-61029Y201574D01*
X-61085Y201621D01*
X-61104Y201629D01*
X-61137Y201653D01*
X-61143Y201655D01*
X-61148Y201659D01*
X-61259Y201693D01*
X-61283Y201701D01*
X-61313Y201713D01*
X-61323Y201714D01*
X-61371Y201729D01*
X-61377Y201729D01*
X-61383Y201731D01*
X-61461Y201729D01*
X-61479Y201731D01*
X-61503Y201731D01*
X-61524Y201728D01*
X-61617Y201727D01*
X-61624Y201725D01*
X-61629Y201725D01*
X-61646Y201718D01*
X-61730Y201694D01*
X-61746Y201692D01*
X-61754Y201687D01*
X-61778Y201680D01*
X-64856Y200405D01*
X-68494Y200405D01*
X-69647Y200883D01*
X-69761Y200910D01*
X-69875Y200938D01*
X-69881Y200938D01*
X-69887Y200939D01*
X-70003Y200928D01*
X-70120Y200919D01*
X-70125Y200917D01*
X-70132Y200916D01*
X-70239Y200868D01*
X-70346Y200823D01*
X-70352Y200818D01*
X-70356Y200816D01*
X-70370Y200803D01*
X-70477Y200718D01*
X-83689Y187506D01*
X-89052Y187506D01*
X-89071Y187503D01*
X-89091Y187505D01*
X-89192Y187483D01*
X-89294Y187466D01*
X-89312Y187457D01*
X-89331Y187452D01*
X-89420Y187399D01*
X-89512Y187351D01*
X-89525Y187337D01*
X-89542Y187326D01*
X-89610Y187248D01*
X-89681Y187173D01*
X-89689Y187155D01*
X-89702Y187139D01*
X-89741Y187043D01*
X-89785Y186950D01*
X-89787Y186930D01*
X-89794Y186911D01*
X-89813Y186745D01*
X-89813Y185431D01*
X-90706Y184538D01*
X-102969Y184538D01*
X-103862Y185431D01*
X-103862Y196694D01*
X-102969Y197587D01*
X-90706Y197587D01*
X-89813Y196694D01*
X-89813Y195380D01*
X-89810Y195361D01*
X-89812Y195341D01*
X-89790Y195240D01*
X-89773Y195138D01*
X-89764Y195120D01*
X-89759Y195101D01*
X-89706Y195012D01*
X-89658Y194920D01*
X-89644Y194907D01*
X-89633Y194890D01*
X-89555Y194822D01*
X-89480Y194751D01*
X-89462Y194743D01*
X-89446Y194730D01*
X-89350Y194691D01*
X-89257Y194647D01*
X-89237Y194645D01*
X-89218Y194638D01*
X-89052Y194619D01*
X-86951Y194619D01*
X-86861Y194634D01*
X-86770Y194641D01*
X-86740Y194654D01*
X-86708Y194659D01*
X-86628Y194702D01*
X-86544Y194737D01*
X-86512Y194763D01*
X-86491Y194774D01*
X-86469Y194797D01*
X-86413Y194842D01*
X-75507Y205748D01*
X-75439Y205843D01*
X-75369Y205937D01*
X-75367Y205943D01*
X-75363Y205948D01*
X-75329Y206059D01*
X-75319Y206090D01*
X-75317Y206094D01*
X-75317Y206096D01*
X-75293Y206171D01*
X-75293Y206177D01*
X-75291Y206183D01*
X-75294Y206300D01*
X-75294Y206303D01*
X-75290Y206338D01*
X-75295Y206359D01*
X-75295Y206416D01*
X-75297Y206424D01*
X-75297Y206429D01*
X-75304Y206446D01*
X-75342Y206578D01*
X-75820Y207731D01*
X-75820Y211369D01*
X-74428Y214730D01*
X-72843Y216314D01*
X-72802Y216372D01*
X-72752Y216424D01*
X-72730Y216472D01*
X-72700Y216514D01*
X-72679Y216582D01*
X-72649Y216648D01*
X-72643Y216699D01*
X-72627Y216749D01*
X-72629Y216821D01*
X-72621Y216892D01*
X-72632Y216943D01*
X-72634Y216995D01*
X-72658Y217062D01*
X-72674Y217132D01*
X-72700Y217177D01*
X-72718Y217226D01*
X-72763Y217282D01*
X-72800Y217343D01*
X-72839Y217377D01*
X-72872Y217418D01*
X-72932Y217457D01*
X-72987Y217503D01*
X-73035Y217523D01*
X-73079Y217551D01*
X-73148Y217568D01*
X-73215Y217595D01*
X-73286Y217603D01*
X-73317Y217611D01*
X-73341Y217609D01*
X-73382Y217614D01*
X-101093Y217614D01*
X-101150Y217604D01*
X-101208Y217605D01*
X-101271Y217585D01*
X-101335Y217574D01*
X-101387Y217547D01*
X-101442Y217529D01*
X-101495Y217490D01*
X-101553Y217459D01*
X-101593Y217417D01*
X-101639Y217382D01*
X-101677Y217328D01*
X-101722Y217281D01*
X-101747Y217228D01*
X-101780Y217180D01*
X-101812Y217086D01*
X-101826Y217058D01*
X-101827Y217043D01*
X-101835Y217022D01*
X-101905Y216714D01*
X-101907Y216680D01*
X-101917Y216647D01*
X-101915Y216558D01*
X-101920Y216469D01*
X-101911Y216435D01*
X-101910Y216401D01*
X-101886Y216325D01*
X-102121Y215726D01*
X-102128Y215693D01*
X-102142Y215653D01*
X-102149Y215639D01*
X-102150Y215632D01*
X-102155Y215617D01*
X-102297Y214993D01*
X-102346Y214941D01*
X-102413Y214882D01*
X-102430Y214852D01*
X-102454Y214826D01*
X-102532Y214678D01*
X-103337Y212626D01*
X-103342Y212600D01*
X-103345Y212594D01*
X-103346Y212588D01*
X-103359Y212561D01*
X-103370Y212472D01*
X-103389Y212385D01*
X-103385Y212351D01*
X-103389Y212316D01*
X-103377Y212238D01*
X-103698Y211680D01*
X-103710Y211650D01*
X-103748Y211578D01*
X-103982Y210982D01*
X-104038Y210938D01*
X-104113Y210889D01*
X-104134Y210862D01*
X-104162Y210841D01*
X-104261Y210706D01*
X-105362Y208796D01*
X-105375Y208764D01*
X-105394Y208735D01*
X-105418Y208649D01*
X-105449Y208566D01*
X-105451Y208532D01*
X-105460Y208498D01*
X-105460Y208419D01*
X-105861Y207915D01*
X-105877Y207887D01*
X-105925Y207821D01*
X-106245Y207267D01*
X-106307Y207231D01*
X-106388Y207195D01*
X-106414Y207171D01*
X-106444Y207154D01*
X-106562Y207035D01*
X-107936Y205312D01*
X-107953Y205281D01*
X-107976Y205256D01*
X-108013Y205174D01*
X-108056Y205097D01*
X-108063Y205063D01*
X-108077Y205031D01*
X-108088Y204953D01*
X-108560Y204515D01*
X-108580Y204489D01*
X-108637Y204431D01*
X-109037Y203930D01*
X-109103Y203905D01*
X-109189Y203881D01*
X-109218Y203861D01*
X-109250Y203849D01*
X-109385Y203749D01*
X-111000Y202249D01*
X-111021Y202222D01*
X-111048Y202200D01*
X-111096Y202125D01*
X-111151Y202055D01*
X-111162Y202022D01*
X-111181Y201993D01*
X-111204Y201917D01*
X-111736Y201554D01*
X-111760Y201532D01*
X-111825Y201483D01*
X-112294Y201048D01*
X-112364Y201032D01*
X-112453Y201021D01*
X-112484Y201006D01*
X-112518Y200999D01*
X-112666Y200920D01*
X-114487Y199678D01*
X-114512Y199654D01*
X-114542Y199636D01*
X-114600Y199570D01*
X-114665Y199508D01*
X-114681Y199478D01*
X-114704Y199451D01*
X-114738Y199380D01*
X-115318Y199100D01*
X-115345Y199082D01*
X-115416Y199043D01*
X-115945Y198683D01*
X-115956Y198682D01*
X-115996Y198686D01*
X-116003Y198686D01*
X-116050Y198679D01*
X-116106Y198680D01*
X-116139Y198670D01*
X-116174Y198667D01*
X-116222Y198651D01*
X-116246Y198647D01*
X-116272Y198633D01*
X-116332Y198612D01*
X-118317Y197655D01*
X-118346Y197635D01*
X-118378Y197622D01*
X-118446Y197564D01*
X-118519Y197514D01*
X-118539Y197486D01*
X-118566Y197463D01*
X-118610Y197398D01*
X-119225Y197208D01*
X-119255Y197193D01*
X-119331Y197166D01*
X-119908Y196888D01*
X-119980Y196894D01*
X-120067Y196909D01*
X-120101Y196904D01*
X-120136Y196907D01*
X-120301Y196876D01*
X-122407Y196225D01*
X-122438Y196210D01*
X-122472Y196202D01*
X-122548Y196155D01*
X-122627Y196116D01*
X-122651Y196091D01*
X-122681Y196073D01*
X-122735Y196015D01*
X-123371Y195918D01*
X-123403Y195908D01*
X-123482Y195893D01*
X-124094Y195704D01*
X-124164Y195721D01*
X-124248Y195749D01*
X-124283Y195749D01*
X-124317Y195757D01*
X-124484Y195750D01*
X-126664Y195421D01*
X-126697Y195410D01*
X-126731Y195408D01*
X-126813Y195373D01*
X-126898Y195346D01*
X-126926Y195325D01*
X-126958Y195311D01*
X-127019Y195262D01*
X-127663Y195262D01*
X-127696Y195256D01*
X-127777Y195253D01*
X-128410Y195157D01*
X-128476Y195184D01*
X-128555Y195225D01*
X-128590Y195230D01*
X-128622Y195243D01*
X-128789Y195261D01*
X-130993Y195260D01*
X-131027Y195255D01*
X-131062Y195257D01*
X-131148Y195235D01*
X-131235Y195221D01*
X-131266Y195204D01*
X-131300Y195196D01*
X-131368Y195156D01*
X-132005Y195252D01*
X-132038Y195251D01*
X-132118Y195260D01*
X-132759Y195260D01*
X-132821Y195296D01*
X-132893Y195348D01*
X-132926Y195358D01*
X-132956Y195376D01*
X-133118Y195419D01*
X-135298Y195747D01*
X-135332Y195746D01*
X-135366Y195754D01*
X-135455Y195745D01*
X-135543Y195744D01*
X-135576Y195732D01*
X-135611Y195729D01*
X-135684Y195699D01*
X-136300Y195889D01*
X-136332Y195893D01*
X-136411Y195914D01*
X-137044Y196009D01*
X-137100Y196055D01*
X-137163Y196117D01*
X-137194Y196132D01*
X-137221Y196154D01*
X-137375Y196220D01*
X-139482Y196869D01*
X-139516Y196874D01*
X-139548Y196887D01*
X-139637Y196891D01*
X-139725Y196903D01*
X-139759Y196896D01*
X-139794Y196898D01*
X-139871Y196880D01*
X-140451Y197159D01*
X-140483Y197169D01*
X-140557Y197201D01*
X-141169Y197389D01*
X-141218Y197442D01*
X-141271Y197513D01*
X-141300Y197533D01*
X-141323Y197558D01*
X-141466Y197647D01*
X-143346Y198552D01*
X-143407Y198570D01*
X-143464Y198597D01*
X-143524Y198605D01*
X-143582Y198622D01*
X-143630Y198620D01*
X-144322Y199019D01*
X-144341Y199027D01*
X-144372Y199046D01*
X-144457Y199087D01*
X-144569Y199120D01*
X-144677Y199154D01*
X-144686Y199154D01*
X-144693Y199156D01*
X-144808Y199152D01*
X-144923Y199150D01*
X-144931Y199147D01*
X-144939Y199147D01*
X-145046Y199106D01*
X-145155Y199068D01*
X-145162Y199062D01*
X-145169Y199060D01*
X-145257Y198987D01*
X-145349Y198915D01*
X-145354Y198908D01*
X-145359Y198904D01*
X-145371Y198885D01*
X-145448Y198780D01*
X-173698Y149604D01*
X-173722Y149540D01*
X-173755Y149479D01*
X-173765Y149425D01*
X-173784Y149374D01*
X-173786Y149305D01*
X-173799Y149237D01*
X-173791Y149183D01*
X-173793Y149128D01*
X-173773Y149062D01*
X-173763Y148994D01*
X-173735Y148932D01*
X-173734Y148925D01*
X-173730Y148919D01*
X-173722Y148892D01*
X-173710Y148875D01*
X-173695Y148841D01*
X-164945Y133887D01*
X-164133Y132476D01*
X-164114Y132454D01*
X-164101Y132428D01*
X-164080Y132409D01*
X-145755Y101089D01*
X-145725Y101053D01*
X-145704Y101013D01*
X-145647Y100959D01*
X-145598Y100899D01*
X-145559Y100875D01*
X-145526Y100843D01*
X-145455Y100811D01*
X-145389Y100770D01*
X-145344Y100759D01*
X-145302Y100740D01*
X-145225Y100731D01*
X-145149Y100713D01*
X-145103Y100718D01*
X-145058Y100713D01*
X-144982Y100729D01*
G37*
G36*
X21632Y119642D02*
X21632Y119642D01*
X21735Y119645D01*
X21754Y119652D01*
X21774Y119653D01*
X21868Y119694D01*
X21885Y119700D01*
X26284Y119700D01*
X26291Y119695D01*
X26392Y119669D01*
X26491Y119639D01*
X26511Y119640D01*
X26530Y119635D01*
X26633Y119643D01*
X26736Y119645D01*
X26755Y119652D01*
X26775Y119654D01*
X26870Y119694D01*
X26885Y119700D01*
X30352Y119700D01*
X30371Y119703D01*
X30391Y119701D01*
X30492Y119723D01*
X30594Y119739D01*
X30612Y119749D01*
X30631Y119753D01*
X30720Y119806D01*
X30812Y119855D01*
X30825Y119869D01*
X30842Y119879D01*
X30910Y119958D01*
X30981Y120033D01*
X30989Y120051D01*
X31002Y120066D01*
X31041Y120162D01*
X31085Y120256D01*
X31087Y120276D01*
X31094Y120294D01*
X31113Y120461D01*
X31113Y123908D01*
X31118Y123916D01*
X31143Y124016D01*
X31173Y124115D01*
X31173Y124135D01*
X31178Y124154D01*
X31170Y124258D01*
X31167Y124361D01*
X31160Y124380D01*
X31159Y124400D01*
X31118Y124494D01*
X31113Y124509D01*
X31113Y128909D01*
X31118Y128917D01*
X31144Y129018D01*
X31174Y129117D01*
X31173Y129137D01*
X31178Y129156D01*
X31170Y129259D01*
X31168Y129362D01*
X31161Y129381D01*
X31159Y129401D01*
X31119Y129496D01*
X31113Y129512D01*
X31113Y133911D01*
X31118Y133919D01*
X31143Y134019D01*
X31173Y134118D01*
X31173Y134138D01*
X31178Y134157D01*
X31170Y134261D01*
X31167Y134364D01*
X31160Y134383D01*
X31159Y134403D01*
X31118Y134497D01*
X31113Y134512D01*
X31113Y138912D01*
X31118Y138920D01*
X31143Y139020D01*
X31173Y139119D01*
X31173Y139139D01*
X31178Y139158D01*
X31170Y139262D01*
X31167Y139365D01*
X31160Y139384D01*
X31159Y139404D01*
X31118Y139498D01*
X31113Y139513D01*
X31113Y143913D01*
X31118Y143921D01*
X31143Y144021D01*
X31173Y144120D01*
X31173Y144140D01*
X31178Y144159D01*
X31170Y144263D01*
X31167Y144366D01*
X31160Y144385D01*
X31159Y144405D01*
X31118Y144499D01*
X31113Y144514D01*
X31113Y148914D01*
X31118Y148922D01*
X31144Y149023D01*
X31174Y149122D01*
X31173Y149142D01*
X31178Y149161D01*
X31170Y149264D01*
X31168Y149367D01*
X31161Y149386D01*
X31159Y149406D01*
X31119Y149501D01*
X31113Y149517D01*
X31113Y153916D01*
X31118Y153924D01*
X31143Y154024D01*
X31173Y154123D01*
X31173Y154143D01*
X31178Y154162D01*
X31170Y154266D01*
X31167Y154369D01*
X31160Y154388D01*
X31159Y154408D01*
X31118Y154502D01*
X31113Y154517D01*
X31113Y158917D01*
X31118Y158925D01*
X31143Y159025D01*
X31173Y159124D01*
X31173Y159144D01*
X31178Y159163D01*
X31170Y159267D01*
X31167Y159370D01*
X31160Y159389D01*
X31159Y159409D01*
X31118Y159503D01*
X31113Y159518D01*
X31113Y163918D01*
X31118Y163926D01*
X31143Y164026D01*
X31173Y164125D01*
X31173Y164145D01*
X31178Y164164D01*
X31170Y164268D01*
X31167Y164371D01*
X31160Y164390D01*
X31159Y164410D01*
X31118Y164504D01*
X31113Y164519D01*
X31113Y168919D01*
X31118Y168927D01*
X31144Y169028D01*
X31174Y169127D01*
X31173Y169147D01*
X31178Y169166D01*
X31170Y169269D01*
X31168Y169372D01*
X31161Y169391D01*
X31159Y169411D01*
X31119Y169506D01*
X31113Y169522D01*
X31113Y173921D01*
X31118Y173929D01*
X31143Y174029D01*
X31173Y174128D01*
X31173Y174148D01*
X31178Y174167D01*
X31170Y174271D01*
X31167Y174374D01*
X31160Y174393D01*
X31159Y174413D01*
X31118Y174507D01*
X31113Y174522D01*
X31113Y177989D01*
X31110Y178009D01*
X31112Y178028D01*
X31090Y178130D01*
X31073Y178232D01*
X31064Y178249D01*
X31059Y178269D01*
X31006Y178358D01*
X30958Y178449D01*
X30944Y178463D01*
X30933Y178480D01*
X30855Y178547D01*
X30780Y178619D01*
X30762Y178627D01*
X30746Y178640D01*
X30650Y178679D01*
X30557Y178722D01*
X30537Y178724D01*
X30518Y178732D01*
X30352Y178750D01*
X26904Y178750D01*
X26897Y178755D01*
X26796Y178781D01*
X26697Y178811D01*
X26677Y178810D01*
X26658Y178815D01*
X26555Y178807D01*
X26452Y178805D01*
X26433Y178798D01*
X26413Y178796D01*
X26318Y178756D01*
X26303Y178750D01*
X21904Y178750D01*
X21895Y178756D01*
X21795Y178781D01*
X21696Y178811D01*
X21676Y178811D01*
X21657Y178816D01*
X21553Y178808D01*
X21450Y178805D01*
X21431Y178798D01*
X21411Y178797D01*
X21317Y178756D01*
X21300Y178750D01*
X16901Y178750D01*
X16894Y178755D01*
X16793Y178781D01*
X16694Y178811D01*
X16674Y178810D01*
X16655Y178815D01*
X16552Y178807D01*
X16449Y178805D01*
X16430Y178798D01*
X16410Y178796D01*
X16315Y178756D01*
X16300Y178750D01*
X11900Y178750D01*
X11893Y178755D01*
X11792Y178781D01*
X11693Y178811D01*
X11673Y178810D01*
X11654Y178815D01*
X11551Y178807D01*
X11448Y178805D01*
X11429Y178798D01*
X11409Y178796D01*
X11314Y178756D01*
X11299Y178750D01*
X6899Y178750D01*
X6892Y178755D01*
X6791Y178781D01*
X6692Y178811D01*
X6672Y178810D01*
X6653Y178815D01*
X6550Y178807D01*
X6447Y178805D01*
X6428Y178798D01*
X6408Y178796D01*
X6313Y178756D01*
X6298Y178750D01*
X1899Y178750D01*
X1890Y178756D01*
X1790Y178781D01*
X1691Y178811D01*
X1671Y178811D01*
X1652Y178816D01*
X1548Y178808D01*
X1445Y178805D01*
X1426Y178798D01*
X1406Y178797D01*
X1312Y178756D01*
X1295Y178750D01*
X-3104Y178750D01*
X-3111Y178755D01*
X-3212Y178781D01*
X-3311Y178811D01*
X-3331Y178810D01*
X-3350Y178815D01*
X-3453Y178807D01*
X-3556Y178805D01*
X-3575Y178798D01*
X-3595Y178796D01*
X-3690Y178756D01*
X-3705Y178750D01*
X-8105Y178750D01*
X-8112Y178755D01*
X-8213Y178781D01*
X-8312Y178811D01*
X-8332Y178810D01*
X-8351Y178815D01*
X-8454Y178807D01*
X-8557Y178805D01*
X-8576Y178798D01*
X-8596Y178796D01*
X-8691Y178756D01*
X-8706Y178750D01*
X-13106Y178750D01*
X-13113Y178755D01*
X-13214Y178781D01*
X-13313Y178811D01*
X-13333Y178810D01*
X-13352Y178815D01*
X-13455Y178807D01*
X-13558Y178805D01*
X-13577Y178798D01*
X-13597Y178796D01*
X-13692Y178756D01*
X-13707Y178750D01*
X-18106Y178750D01*
X-18115Y178756D01*
X-18215Y178781D01*
X-18314Y178811D01*
X-18334Y178811D01*
X-18353Y178816D01*
X-18457Y178808D01*
X-18560Y178805D01*
X-18579Y178798D01*
X-18599Y178797D01*
X-18693Y178756D01*
X-18710Y178750D01*
X-23109Y178750D01*
X-23116Y178755D01*
X-23217Y178781D01*
X-23316Y178811D01*
X-23336Y178810D01*
X-23355Y178815D01*
X-23458Y178807D01*
X-23561Y178805D01*
X-23580Y178798D01*
X-23600Y178796D01*
X-23695Y178756D01*
X-23710Y178750D01*
X-27177Y178750D01*
X-27196Y178747D01*
X-27216Y178749D01*
X-27317Y178727D01*
X-27419Y178711D01*
X-27437Y178701D01*
X-27456Y178697D01*
X-27545Y178644D01*
X-27637Y178595D01*
X-27650Y178581D01*
X-27667Y178571D01*
X-27735Y178492D01*
X-27806Y178417D01*
X-27814Y178399D01*
X-27827Y178384D01*
X-27866Y178288D01*
X-27910Y178194D01*
X-27912Y178174D01*
X-27919Y178156D01*
X-27938Y177989D01*
X-27938Y174542D01*
X-27943Y174534D01*
X-27968Y174434D01*
X-27998Y174335D01*
X-27998Y174315D01*
X-28003Y174296D01*
X-27995Y174192D01*
X-27992Y174089D01*
X-27985Y174070D01*
X-27984Y174050D01*
X-27943Y173956D01*
X-27938Y173941D01*
X-27938Y169541D01*
X-27943Y169533D01*
X-27969Y169432D01*
X-27999Y169333D01*
X-27998Y169313D01*
X-28003Y169294D01*
X-27995Y169191D01*
X-27993Y169088D01*
X-27986Y169069D01*
X-27984Y169049D01*
X-27944Y168954D01*
X-27938Y168938D01*
X-27938Y164539D01*
X-27943Y164531D01*
X-27968Y164431D01*
X-27998Y164332D01*
X-27998Y164312D01*
X-28003Y164293D01*
X-27995Y164189D01*
X-27992Y164086D01*
X-27985Y164067D01*
X-27984Y164047D01*
X-27943Y163953D01*
X-27938Y163938D01*
X-27938Y159538D01*
X-27943Y159530D01*
X-27968Y159430D01*
X-27998Y159331D01*
X-27998Y159311D01*
X-28003Y159292D01*
X-27995Y159188D01*
X-27992Y159085D01*
X-27985Y159066D01*
X-27984Y159046D01*
X-27943Y158952D01*
X-27938Y158937D01*
X-27938Y154537D01*
X-27943Y154529D01*
X-27968Y154429D01*
X-27998Y154330D01*
X-27998Y154310D01*
X-28003Y154291D01*
X-27995Y154187D01*
X-27992Y154084D01*
X-27985Y154065D01*
X-27984Y154045D01*
X-27943Y153951D01*
X-27938Y153936D01*
X-27938Y149609D01*
X-28831Y148715D01*
X-30596Y148715D01*
X-30686Y148701D01*
X-30777Y148694D01*
X-30807Y148681D01*
X-30829Y148677D01*
X-47651Y148677D01*
X-49451Y150477D01*
X-49525Y150530D01*
X-49595Y150590D01*
X-49625Y150602D01*
X-49651Y150621D01*
X-49738Y150648D01*
X-49823Y150682D01*
X-49864Y150686D01*
X-49886Y150693D01*
X-49918Y150692D01*
X-49990Y150700D01*
X-71632Y150700D01*
X-72525Y151593D01*
X-72525Y152382D01*
X-72536Y152453D01*
X-72538Y152525D01*
X-72556Y152574D01*
X-72564Y152625D01*
X-72598Y152689D01*
X-72623Y152756D01*
X-72655Y152797D01*
X-72680Y152843D01*
X-72732Y152892D01*
X-72776Y152948D01*
X-72820Y152976D01*
X-72858Y153012D01*
X-72923Y153042D01*
X-72983Y153081D01*
X-73034Y153094D01*
X-73081Y153116D01*
X-73152Y153124D01*
X-73222Y153141D01*
X-73274Y153137D01*
X-73325Y153143D01*
X-73396Y153127D01*
X-73467Y153122D01*
X-73515Y153102D01*
X-73566Y153090D01*
X-73627Y153054D01*
X-73693Y153026D01*
X-73749Y152981D01*
X-73777Y152964D01*
X-73792Y152946D01*
X-73824Y152921D01*
X-75465Y151280D01*
X-75518Y151206D01*
X-75577Y151137D01*
X-75589Y151107D01*
X-75608Y151080D01*
X-75635Y150993D01*
X-75669Y150909D01*
X-75674Y150868D01*
X-75681Y150845D01*
X-75680Y150813D01*
X-75688Y150742D01*
X-75688Y148628D01*
X-78778Y145538D01*
X-83147Y145538D01*
X-86237Y148628D01*
X-86237Y152997D01*
X-83147Y156087D01*
X-81033Y156087D01*
X-80943Y156102D01*
X-80852Y156109D01*
X-80822Y156122D01*
X-80790Y156127D01*
X-80710Y156170D01*
X-80626Y156205D01*
X-80594Y156231D01*
X-80573Y156242D01*
X-80551Y156265D01*
X-80495Y156310D01*
X-74523Y162282D01*
X-73286Y162282D01*
X-73266Y162285D01*
X-73247Y162283D01*
X-73145Y162305D01*
X-73043Y162321D01*
X-73026Y162331D01*
X-73006Y162335D01*
X-72917Y162388D01*
X-72826Y162437D01*
X-72812Y162451D01*
X-72795Y162461D01*
X-72728Y162540D01*
X-72656Y162615D01*
X-72648Y162633D01*
X-72635Y162648D01*
X-72596Y162744D01*
X-72553Y162838D01*
X-72551Y162858D01*
X-72543Y162876D01*
X-72525Y163043D01*
X-72525Y164463D01*
X-72526Y164469D01*
X-72526Y164470D01*
X-72528Y164483D01*
X-72526Y164502D01*
X-72548Y164604D01*
X-72564Y164706D01*
X-72574Y164723D01*
X-72578Y164743D01*
X-72631Y164832D01*
X-72680Y164923D01*
X-72694Y164937D01*
X-72704Y164954D01*
X-72783Y165021D01*
X-72858Y165093D01*
X-72876Y165101D01*
X-72891Y165114D01*
X-72987Y165153D01*
X-73081Y165196D01*
X-73101Y165198D01*
X-73119Y165206D01*
X-73286Y165224D01*
X-78622Y165224D01*
X-78712Y165210D01*
X-78803Y165202D01*
X-78833Y165190D01*
X-78865Y165185D01*
X-78945Y165142D01*
X-79029Y165106D01*
X-79061Y165080D01*
X-79082Y165069D01*
X-79104Y165046D01*
X-79160Y165001D01*
X-112811Y131350D01*
X-112853Y131292D01*
X-112902Y131240D01*
X-112924Y131193D01*
X-112955Y131151D01*
X-112976Y131082D01*
X-113006Y131017D01*
X-113012Y130965D01*
X-113027Y130915D01*
X-113025Y130844D01*
X-113033Y130773D01*
X-113022Y130722D01*
X-113021Y130670D01*
X-112996Y130602D01*
X-112981Y130532D01*
X-112954Y130487D01*
X-112936Y130439D01*
X-112891Y130383D01*
X-112855Y130321D01*
X-112815Y130287D01*
X-112783Y130247D01*
X-112722Y130208D01*
X-112668Y130161D01*
X-112619Y130142D01*
X-112576Y130114D01*
X-112506Y130096D01*
X-112440Y130069D01*
X-112368Y130061D01*
X-112337Y130053D01*
X-112314Y130055D01*
X-112273Y130051D01*
X-52878Y130051D01*
X-52788Y130065D01*
X-52697Y130073D01*
X-52667Y130085D01*
X-52635Y130090D01*
X-52555Y130133D01*
X-52471Y130169D01*
X-52439Y130195D01*
X-52418Y130206D01*
X-52396Y130229D01*
X-52340Y130274D01*
X-38309Y144305D01*
X-36338Y144305D01*
X-36248Y144319D01*
X-36157Y144326D01*
X-36128Y144339D01*
X-36096Y144344D01*
X-36015Y144387D01*
X-35931Y144423D01*
X-35899Y144448D01*
X-35878Y144459D01*
X-35856Y144483D01*
X-35800Y144528D01*
X-35594Y144734D01*
X-33829Y144734D01*
X-33739Y144748D01*
X-33647Y144756D01*
X-33618Y144768D01*
X-33596Y144772D01*
X-30812Y144772D01*
X-30763Y144752D01*
X-30722Y144748D01*
X-30700Y144741D01*
X-30668Y144742D01*
X-30596Y144734D01*
X-28831Y144734D01*
X-27938Y143840D01*
X-27938Y139533D01*
X-27943Y139525D01*
X-27968Y139425D01*
X-27998Y139326D01*
X-27998Y139306D01*
X-28003Y139287D01*
X-27995Y139183D01*
X-27992Y139080D01*
X-27985Y139061D01*
X-27984Y139041D01*
X-27943Y138947D01*
X-27938Y138932D01*
X-27938Y134532D01*
X-27943Y134524D01*
X-27968Y134424D01*
X-27998Y134325D01*
X-27998Y134305D01*
X-28003Y134286D01*
X-27995Y134182D01*
X-27992Y134079D01*
X-27985Y134060D01*
X-27984Y134040D01*
X-27943Y133946D01*
X-27938Y133931D01*
X-27938Y129531D01*
X-27943Y129523D01*
X-27969Y129422D01*
X-27999Y129323D01*
X-27998Y129303D01*
X-28003Y129284D01*
X-27995Y129181D01*
X-27993Y129078D01*
X-27986Y129059D01*
X-27984Y129039D01*
X-27944Y128944D01*
X-27938Y128928D01*
X-27938Y124529D01*
X-27943Y124521D01*
X-27968Y124421D01*
X-27998Y124322D01*
X-27998Y124302D01*
X-28003Y124283D01*
X-27995Y124179D01*
X-27992Y124076D01*
X-27985Y124057D01*
X-27984Y124037D01*
X-27943Y123943D01*
X-27938Y123928D01*
X-27938Y120461D01*
X-27935Y120441D01*
X-27937Y120422D01*
X-27915Y120320D01*
X-27898Y120218D01*
X-27889Y120201D01*
X-27884Y120181D01*
X-27831Y120092D01*
X-27783Y120001D01*
X-27769Y119987D01*
X-27758Y119970D01*
X-27680Y119903D01*
X-27605Y119831D01*
X-27587Y119823D01*
X-27571Y119810D01*
X-27475Y119771D01*
X-27382Y119728D01*
X-27362Y119726D01*
X-27343Y119718D01*
X-27177Y119700D01*
X-23729Y119700D01*
X-23722Y119695D01*
X-23621Y119669D01*
X-23522Y119639D01*
X-23502Y119640D01*
X-23483Y119635D01*
X-23380Y119643D01*
X-23277Y119645D01*
X-23258Y119652D01*
X-23238Y119654D01*
X-23143Y119694D01*
X-23128Y119700D01*
X-18729Y119700D01*
X-18720Y119694D01*
X-18620Y119669D01*
X-18521Y119639D01*
X-18501Y119639D01*
X-18482Y119634D01*
X-18378Y119642D01*
X-18275Y119645D01*
X-18256Y119652D01*
X-18236Y119653D01*
X-18142Y119694D01*
X-18125Y119700D01*
X-13726Y119700D01*
X-13719Y119695D01*
X-13618Y119669D01*
X-13519Y119639D01*
X-13499Y119640D01*
X-13480Y119635D01*
X-13377Y119643D01*
X-13274Y119645D01*
X-13255Y119652D01*
X-13235Y119654D01*
X-13140Y119694D01*
X-13125Y119700D01*
X-8725Y119700D01*
X-8718Y119695D01*
X-8617Y119669D01*
X-8518Y119639D01*
X-8498Y119640D01*
X-8479Y119635D01*
X-8376Y119643D01*
X-8273Y119645D01*
X-8254Y119652D01*
X-8234Y119654D01*
X-8139Y119694D01*
X-8124Y119700D01*
X-3724Y119700D01*
X-3717Y119695D01*
X-3616Y119669D01*
X-3517Y119639D01*
X-3497Y119640D01*
X-3478Y119635D01*
X-3375Y119643D01*
X-3272Y119645D01*
X-3253Y119652D01*
X-3233Y119654D01*
X-3138Y119694D01*
X-3123Y119700D01*
X1276Y119700D01*
X1285Y119694D01*
X1385Y119669D01*
X1484Y119639D01*
X1504Y119639D01*
X1523Y119634D01*
X1627Y119642D01*
X1730Y119645D01*
X1749Y119652D01*
X1769Y119653D01*
X1863Y119694D01*
X1880Y119700D01*
X6279Y119700D01*
X6286Y119695D01*
X6387Y119669D01*
X6486Y119639D01*
X6506Y119640D01*
X6525Y119635D01*
X6628Y119643D01*
X6731Y119645D01*
X6750Y119652D01*
X6770Y119654D01*
X6865Y119694D01*
X6880Y119700D01*
X11280Y119700D01*
X11287Y119695D01*
X11388Y119670D01*
X11486Y119639D01*
X11506Y119640D01*
X11526Y119635D01*
X11629Y119643D01*
X11732Y119645D01*
X11751Y119652D01*
X11771Y119654D01*
X11866Y119694D01*
X11881Y119700D01*
X16281Y119700D01*
X16288Y119695D01*
X16389Y119669D01*
X16488Y119639D01*
X16508Y119640D01*
X16527Y119635D01*
X16630Y119643D01*
X16733Y119645D01*
X16752Y119652D01*
X16772Y119654D01*
X16867Y119694D01*
X16882Y119700D01*
X21281Y119700D01*
X21290Y119694D01*
X21390Y119669D01*
X21489Y119639D01*
X21509Y119639D01*
X21528Y119634D01*
X21632Y119642D01*
G37*
G36*
X143565Y99897D02*
X143565Y99897D01*
X143680Y99898D01*
X143687Y99901D01*
X143695Y99902D01*
X143803Y99942D01*
X143911Y99981D01*
X143918Y99986D01*
X143925Y99989D01*
X144014Y100062D01*
X144105Y100133D01*
X144111Y100141D01*
X144116Y100145D01*
X144127Y100163D01*
X144204Y100268D01*
X162841Y132711D01*
X163416Y132314D01*
X163443Y132303D01*
X163465Y132284D01*
X163534Y132264D01*
X163599Y132236D01*
X163628Y132236D01*
X163656Y132228D01*
X163727Y132236D01*
X163798Y132236D01*
X163825Y132247D01*
X163854Y132250D01*
X163916Y132285D01*
X163981Y132313D01*
X164002Y132333D01*
X164027Y132348D01*
X164090Y132425D01*
X164120Y132455D01*
X164124Y132465D01*
X164133Y132476D01*
X173633Y148976D01*
X173643Y149008D01*
X173652Y149021D01*
X173656Y149045D01*
X173657Y149049D01*
X173688Y149119D01*
X173688Y149143D01*
X173696Y149165D01*
X173690Y149241D01*
X173691Y149318D01*
X173681Y149342D01*
X173680Y149363D01*
X173659Y149402D01*
X173633Y149474D01*
X164133Y165974D01*
X164114Y165996D01*
X164101Y166022D01*
X164048Y166070D01*
X164001Y166123D01*
X163975Y166136D01*
X163954Y166155D01*
X163886Y166178D01*
X163822Y166209D01*
X163793Y166211D01*
X163766Y166220D01*
X163694Y166215D01*
X163623Y166218D01*
X163596Y166208D01*
X163567Y166206D01*
X163477Y166164D01*
X163437Y166149D01*
X163429Y166142D01*
X163416Y166136D01*
X162841Y165739D01*
X144204Y198182D01*
X144131Y198271D01*
X144060Y198362D01*
X144054Y198366D01*
X144049Y198372D01*
X143952Y198433D01*
X143855Y198497D01*
X143847Y198499D01*
X143840Y198504D01*
X143729Y198531D01*
X143617Y198560D01*
X143609Y198560D01*
X143601Y198562D01*
X143487Y198552D01*
X143372Y198544D01*
X143363Y198541D01*
X143356Y198540D01*
X143336Y198532D01*
X143214Y198488D01*
X141466Y197647D01*
X141437Y197627D01*
X141405Y197615D01*
X141337Y197557D01*
X141264Y197506D01*
X141244Y197478D01*
X141217Y197456D01*
X141172Y197390D01*
X140557Y197201D01*
X140528Y197186D01*
X140451Y197159D01*
X139874Y196882D01*
X139803Y196888D01*
X139715Y196903D01*
X139681Y196898D01*
X139647Y196901D01*
X139482Y196869D01*
X138527Y196575D01*
X138500Y196562D01*
X138471Y196556D01*
X138391Y196508D01*
X138307Y196466D01*
X138286Y196445D01*
X138260Y196429D01*
X138199Y196358D01*
X138133Y196292D01*
X138120Y196265D01*
X138100Y196243D01*
X138065Y196155D01*
X138023Y196071D01*
X138019Y196042D01*
X138008Y196014D01*
X137990Y195848D01*
X137990Y119365D01*
X135981Y117356D01*
X128910Y110284D01*
X128868Y110226D01*
X128818Y110174D01*
X128796Y110127D01*
X128766Y110085D01*
X128745Y110016D01*
X128715Y109951D01*
X128709Y109899D01*
X128694Y109850D01*
X128696Y109778D01*
X128688Y109707D01*
X128699Y109656D01*
X128700Y109604D01*
X128725Y109536D01*
X128740Y109466D01*
X128767Y109422D01*
X128785Y109373D01*
X128829Y109317D01*
X128866Y109255D01*
X128906Y109221D01*
X128938Y109181D01*
X128999Y109142D01*
X129053Y109095D01*
X129101Y109076D01*
X129145Y109048D01*
X129215Y109030D01*
X129281Y109003D01*
X129353Y108995D01*
X129384Y108988D01*
X129407Y108989D01*
X129448Y108985D01*
X135254Y108985D01*
X135345Y109000D01*
X135435Y109007D01*
X135465Y109019D01*
X135497Y109025D01*
X135578Y109067D01*
X135662Y109103D01*
X135694Y109129D01*
X135715Y109140D01*
X135737Y109163D01*
X135793Y109208D01*
X137722Y111137D01*
X141678Y111137D01*
X144475Y108340D01*
X144475Y104385D01*
X141838Y101748D01*
X141823Y101728D01*
X141804Y101712D01*
X141752Y101628D01*
X141694Y101548D01*
X141687Y101524D01*
X141674Y101504D01*
X141651Y101407D01*
X141622Y101313D01*
X141622Y101288D01*
X141617Y101264D01*
X141626Y101166D01*
X141628Y101067D01*
X141637Y101044D01*
X141639Y101019D01*
X141679Y100929D01*
X141713Y100836D01*
X141728Y100817D01*
X141738Y100794D01*
X141804Y100721D01*
X141866Y100644D01*
X141887Y100631D01*
X141904Y100612D01*
X142046Y100523D01*
X143214Y99962D01*
X143325Y99929D01*
X143434Y99894D01*
X143442Y99894D01*
X143450Y99892D01*
X143565Y99897D01*
G37*
G36*
X131941Y196792D02*
X131941Y196792D01*
X131984Y196791D01*
X135977Y197392D01*
X136007Y197403D01*
X136050Y197408D01*
X139909Y198597D01*
X139937Y198612D01*
X139978Y198624D01*
X143616Y200375D01*
X143638Y200392D01*
X143664Y200401D01*
X143717Y200451D01*
X143775Y200495D01*
X143788Y200519D01*
X143808Y200538D01*
X143838Y200604D01*
X143874Y200668D01*
X143877Y200695D01*
X143888Y200720D01*
X143889Y200793D01*
X143898Y200865D01*
X143890Y200891D01*
X143890Y200919D01*
X143854Y201017D01*
X143842Y201056D01*
X143836Y201064D01*
X143832Y201075D01*
X116832Y247875D01*
X116814Y247895D01*
X116803Y247920D01*
X116749Y247969D01*
X116701Y248024D01*
X116676Y248035D01*
X116656Y248054D01*
X116587Y248078D01*
X116521Y248109D01*
X116494Y248111D01*
X116469Y248120D01*
X116396Y248115D01*
X116323Y248118D01*
X116297Y248109D01*
X116270Y248107D01*
X116174Y248063D01*
X116136Y248049D01*
X116129Y248042D01*
X116119Y248038D01*
X112782Y245764D01*
X112760Y245741D01*
X112724Y245718D01*
X109763Y242972D01*
X109744Y242946D01*
X109712Y242918D01*
X107194Y239762D01*
X107179Y239733D01*
X107152Y239700D01*
X105132Y236204D01*
X105122Y236174D01*
X105099Y236137D01*
X103623Y232379D01*
X103618Y232347D01*
X103601Y232307D01*
X102701Y228371D01*
X102701Y228339D01*
X102690Y228297D01*
X102387Y224271D01*
X102390Y224248D01*
X102387Y224228D01*
X102389Y224218D01*
X102387Y224197D01*
X102688Y220170D01*
X102696Y220139D01*
X102699Y220096D01*
X103596Y216160D01*
X103609Y216131D01*
X103618Y216088D01*
X105092Y212329D01*
X105109Y212302D01*
X105124Y212262D01*
X107142Y208765D01*
X107163Y208741D01*
X107184Y208703D01*
X109700Y205545D01*
X109725Y205525D01*
X109751Y205491D01*
X112710Y202743D01*
X112737Y202727D01*
X112768Y202697D01*
X116104Y200421D01*
X116133Y200409D01*
X116168Y200384D01*
X119806Y198631D01*
X119836Y198623D01*
X119875Y198604D01*
X123733Y197412D01*
X123765Y197409D01*
X123806Y197396D01*
X127798Y196793D01*
X127830Y196794D01*
X127872Y196787D01*
X131910Y196786D01*
X131941Y196792D01*
G37*
G36*
X-127872Y196787D02*
X-127872Y196787D01*
X-127841Y196793D01*
X-127798Y196793D01*
X-123806Y197396D01*
X-123776Y197407D01*
X-123733Y197412D01*
X-119875Y198604D01*
X-119847Y198619D01*
X-119806Y198631D01*
X-116168Y200384D01*
X-116143Y200403D01*
X-116104Y200421D01*
X-112768Y202697D01*
X-112746Y202720D01*
X-112710Y202743D01*
X-109751Y205491D01*
X-109732Y205516D01*
X-109700Y205545D01*
X-107184Y208703D01*
X-107169Y208731D01*
X-107142Y208765D01*
X-105124Y212262D01*
X-105114Y212292D01*
X-105092Y212329D01*
X-103618Y216088D01*
X-103612Y216120D01*
X-103596Y216160D01*
X-102699Y220096D01*
X-102698Y220128D01*
X-102688Y220170D01*
X-102387Y224197D01*
X-102391Y224228D01*
X-102390Y224244D01*
X-102387Y224261D01*
X-102388Y224265D01*
X-102387Y224271D01*
X-102690Y228297D01*
X-102699Y228328D01*
X-102701Y228371D01*
X-103601Y232307D01*
X-103614Y232336D01*
X-103623Y232379D01*
X-105099Y236137D01*
X-105117Y236164D01*
X-105132Y236204D01*
X-107152Y239700D01*
X-107173Y239724D01*
X-107194Y239762D01*
X-109712Y242918D01*
X-109737Y242938D01*
X-109763Y242972D01*
X-112724Y245718D01*
X-112751Y245734D01*
X-112782Y245764D01*
X-116119Y248038D01*
X-116144Y248048D01*
X-116165Y248065D01*
X-116235Y248086D01*
X-116302Y248115D01*
X-116330Y248115D01*
X-116356Y248122D01*
X-116428Y248114D01*
X-116501Y248114D01*
X-116526Y248103D01*
X-116553Y248100D01*
X-116617Y248064D01*
X-116684Y248036D01*
X-116703Y248016D01*
X-116726Y248003D01*
X-116794Y247922D01*
X-116822Y247892D01*
X-116825Y247883D01*
X-116832Y247875D01*
X-143832Y201075D01*
X-143841Y201049D01*
X-143857Y201026D01*
X-143872Y200955D01*
X-143896Y200886D01*
X-143893Y200859D01*
X-143899Y200832D01*
X-143886Y200761D01*
X-143880Y200688D01*
X-143867Y200663D01*
X-143862Y200637D01*
X-143822Y200576D01*
X-143788Y200511D01*
X-143767Y200494D01*
X-143752Y200471D01*
X-143666Y200410D01*
X-143635Y200385D01*
X-143626Y200382D01*
X-143616Y200375D01*
X-139978Y198624D01*
X-139947Y198617D01*
X-139909Y198597D01*
X-136050Y197408D01*
X-136018Y197405D01*
X-135977Y197392D01*
X-131984Y196791D01*
X-131953Y196793D01*
X-131910Y196786D01*
X-127872Y196787D01*
G37*
G36*
X116428Y50336D02*
X116428Y50336D01*
X116501Y50336D01*
X116526Y50347D01*
X116553Y50350D01*
X116617Y50386D01*
X116684Y50414D01*
X116703Y50434D01*
X116726Y50447D01*
X116794Y50528D01*
X116822Y50558D01*
X116825Y50567D01*
X116832Y50576D01*
X143832Y97376D01*
X143841Y97401D01*
X143857Y97424D01*
X143872Y97495D01*
X143896Y97564D01*
X143893Y97591D01*
X143899Y97618D01*
X143886Y97689D01*
X143880Y97762D01*
X143867Y97787D01*
X143862Y97813D01*
X143822Y97874D01*
X143788Y97939D01*
X143767Y97956D01*
X143752Y97979D01*
X143666Y98040D01*
X143635Y98065D01*
X143626Y98068D01*
X143616Y98075D01*
X139978Y99826D01*
X139947Y99833D01*
X139909Y99853D01*
X136050Y101042D01*
X136018Y101045D01*
X135977Y101058D01*
X131984Y101659D01*
X131953Y101657D01*
X131910Y101664D01*
X127872Y101663D01*
X127841Y101657D01*
X127798Y101657D01*
X123806Y101054D01*
X123776Y101043D01*
X123733Y101038D01*
X119875Y99846D01*
X119847Y99831D01*
X119806Y99819D01*
X116168Y98066D01*
X116143Y98047D01*
X116104Y98029D01*
X112768Y95753D01*
X112746Y95730D01*
X112710Y95707D01*
X109751Y92959D01*
X109732Y92934D01*
X109700Y92905D01*
X107184Y89747D01*
X107169Y89719D01*
X107142Y89685D01*
X105124Y86188D01*
X105114Y86158D01*
X105092Y86121D01*
X103618Y82362D01*
X103612Y82330D01*
X103596Y82290D01*
X102699Y78354D01*
X102698Y78322D01*
X102688Y78280D01*
X102387Y74254D01*
X102391Y74222D01*
X102387Y74179D01*
X102690Y70153D01*
X102699Y70122D01*
X102701Y70079D01*
X103601Y66143D01*
X103614Y66114D01*
X103623Y66071D01*
X105099Y62313D01*
X105117Y62286D01*
X105132Y62246D01*
X107152Y58750D01*
X107173Y58726D01*
X107194Y58688D01*
X109712Y55532D01*
X109737Y55512D01*
X109763Y55478D01*
X112724Y52732D01*
X112751Y52716D01*
X112782Y52686D01*
X116119Y50412D01*
X116144Y50402D01*
X116165Y50385D01*
X116235Y50364D01*
X116302Y50335D01*
X116330Y50336D01*
X116356Y50328D01*
X116428Y50336D01*
G37*
G36*
X-116396Y50335D02*
X-116396Y50335D01*
X-116323Y50332D01*
X-116297Y50341D01*
X-116270Y50343D01*
X-116174Y50387D01*
X-116136Y50401D01*
X-116129Y50408D01*
X-116119Y50412D01*
X-112782Y52686D01*
X-112760Y52709D01*
X-112724Y52732D01*
X-109763Y55478D01*
X-109744Y55504D01*
X-109712Y55532D01*
X-107194Y58688D01*
X-107179Y58717D01*
X-107152Y58750D01*
X-105132Y62246D01*
X-105122Y62276D01*
X-105099Y62313D01*
X-103623Y66071D01*
X-103618Y66103D01*
X-103601Y66143D01*
X-102701Y70079D01*
X-102701Y70111D01*
X-102690Y70153D01*
X-102387Y74179D01*
X-102391Y74210D01*
X-102387Y74254D01*
X-102688Y78280D01*
X-102696Y78311D01*
X-102699Y78354D01*
X-103596Y82290D01*
X-103609Y82319D01*
X-103618Y82362D01*
X-105092Y86121D01*
X-105109Y86148D01*
X-105124Y86188D01*
X-107142Y89685D01*
X-107163Y89709D01*
X-107184Y89747D01*
X-109700Y92905D01*
X-109725Y92925D01*
X-109751Y92959D01*
X-112710Y95707D01*
X-112737Y95723D01*
X-112768Y95753D01*
X-116104Y98029D01*
X-116133Y98041D01*
X-116168Y98066D01*
X-119806Y99819D01*
X-119836Y99827D01*
X-119875Y99846D01*
X-123733Y101038D01*
X-123765Y101041D01*
X-123806Y101054D01*
X-127798Y101657D01*
X-127830Y101656D01*
X-127872Y101663D01*
X-131910Y101664D01*
X-131941Y101658D01*
X-131984Y101659D01*
X-135977Y101058D01*
X-136007Y101047D01*
X-136050Y101042D01*
X-139909Y99853D01*
X-139937Y99838D01*
X-139978Y99826D01*
X-143616Y98075D01*
X-143638Y98058D01*
X-143664Y98049D01*
X-143717Y97999D01*
X-143775Y97955D01*
X-143788Y97931D01*
X-143808Y97912D01*
X-143838Y97846D01*
X-143874Y97782D01*
X-143877Y97755D01*
X-143888Y97730D01*
X-143889Y97657D01*
X-143898Y97585D01*
X-143890Y97559D01*
X-143890Y97531D01*
X-143854Y97433D01*
X-143842Y97394D01*
X-143836Y97386D01*
X-143832Y97376D01*
X-116832Y50576D01*
X-116814Y50555D01*
X-116803Y50530D01*
X-116749Y50481D01*
X-116701Y50427D01*
X-116676Y50415D01*
X-116656Y50396D01*
X-116587Y50372D01*
X-116521Y50341D01*
X-116494Y50340D01*
X-116469Y50330D01*
X-116396Y50335D01*
G37*
G36*
X2049Y271808D02*
X2049Y271808D01*
X2092Y271807D01*
X6082Y272408D01*
X6112Y272419D01*
X6155Y272425D01*
X10011Y273614D01*
X10039Y273630D01*
X10081Y273642D01*
X13717Y275393D01*
X13742Y275412D01*
X13781Y275430D01*
X17115Y277703D01*
X17138Y277726D01*
X17174Y277750D01*
X20132Y280494D01*
X20151Y280520D01*
X20183Y280549D01*
X22699Y283704D01*
X22713Y283732D01*
X22741Y283766D01*
X24759Y287261D01*
X24769Y287291D01*
X24791Y287328D01*
X26265Y291084D01*
X26266Y291091D01*
X26268Y291092D01*
X26272Y291119D01*
X26287Y291156D01*
X27185Y295090D01*
X27186Y295122D01*
X27196Y295164D01*
X27498Y299188D01*
X27494Y299215D01*
X27499Y299242D01*
X27482Y299312D01*
X27473Y299385D01*
X27459Y299409D01*
X27453Y299435D01*
X27410Y299494D01*
X27373Y299557D01*
X27351Y299573D01*
X27335Y299595D01*
X27272Y299632D01*
X27214Y299676D01*
X27187Y299683D01*
X27164Y299697D01*
X27060Y299714D01*
X27021Y299724D01*
X27011Y299722D01*
X27000Y299724D01*
X-27000Y299724D01*
X-27027Y299719D01*
X-27054Y299721D01*
X-27123Y299699D01*
X-27195Y299685D01*
X-27217Y299669D01*
X-27243Y299661D01*
X-27299Y299613D01*
X-27359Y299572D01*
X-27373Y299549D01*
X-27394Y299531D01*
X-27427Y299466D01*
X-27466Y299405D01*
X-27470Y299378D01*
X-27482Y299353D01*
X-27492Y299249D01*
X-27499Y299208D01*
X-27497Y299199D01*
X-27498Y299188D01*
X-27196Y295164D01*
X-27188Y295133D01*
X-27185Y295090D01*
X-26287Y291156D01*
X-26274Y291127D01*
X-26265Y291084D01*
X-24791Y287328D01*
X-24774Y287301D01*
X-24759Y287261D01*
X-22741Y283766D01*
X-22720Y283742D01*
X-22699Y283704D01*
X-20183Y280549D01*
X-20158Y280529D01*
X-20132Y280494D01*
X-17174Y277750D01*
X-17147Y277733D01*
X-17115Y277703D01*
X-13781Y275430D01*
X-13752Y275417D01*
X-13717Y275393D01*
X-10081Y273642D01*
X-10050Y273634D01*
X-10011Y273614D01*
X-6155Y272425D01*
X-6124Y272422D01*
X-6082Y272408D01*
X-2092Y271807D01*
X-2060Y271808D01*
X-2018Y271801D01*
X2018Y271801D01*
X2049Y271808D01*
G37*
G36*
X27027Y-1269D02*
X27027Y-1269D01*
X27054Y-1271D01*
X27123Y-1249D01*
X27195Y-1235D01*
X27217Y-1219D01*
X27243Y-1211D01*
X27299Y-1163D01*
X27359Y-1122D01*
X27373Y-1099D01*
X27394Y-1081D01*
X27427Y-1016D01*
X27466Y-955D01*
X27470Y-928D01*
X27482Y-903D01*
X27492Y-799D01*
X27499Y-758D01*
X27497Y-749D01*
X27498Y-738D01*
X27196Y3286D01*
X27188Y3317D01*
X27185Y3360D01*
X26287Y7294D01*
X26274Y7323D01*
X26265Y7366D01*
X24791Y11122D01*
X24774Y11149D01*
X24759Y11190D01*
X22741Y14684D01*
X22720Y14708D01*
X22699Y14746D01*
X20183Y17901D01*
X20158Y17921D01*
X20132Y17956D01*
X17174Y20700D01*
X17147Y20717D01*
X17115Y20747D01*
X13781Y23020D01*
X13752Y23033D01*
X13717Y23058D01*
X10081Y24808D01*
X10050Y24816D01*
X10011Y24836D01*
X6155Y26025D01*
X6124Y26028D01*
X6082Y26042D01*
X2092Y26643D01*
X2060Y26642D01*
X2018Y26649D01*
X-2018Y26649D01*
X-2049Y26642D01*
X-2092Y26643D01*
X-6082Y26042D01*
X-6112Y26031D01*
X-6155Y26025D01*
X-10011Y24836D01*
X-10039Y24820D01*
X-10081Y24808D01*
X-13717Y23058D01*
X-13742Y23038D01*
X-13781Y23020D01*
X-17115Y20747D01*
X-17138Y20724D01*
X-17174Y20700D01*
X-20132Y17956D01*
X-20151Y17930D01*
X-20183Y17901D01*
X-22699Y14746D01*
X-22713Y14718D01*
X-22741Y14684D01*
X-24759Y11190D01*
X-24769Y11159D01*
X-24791Y11122D01*
X-26265Y7366D01*
X-26271Y7334D01*
X-26287Y7294D01*
X-27185Y3360D01*
X-27186Y3328D01*
X-27196Y3286D01*
X-27498Y-738D01*
X-27494Y-765D01*
X-27499Y-792D01*
X-27482Y-862D01*
X-27473Y-935D01*
X-27459Y-959D01*
X-27453Y-985D01*
X-27410Y-1044D01*
X-27373Y-1107D01*
X-27351Y-1123D01*
X-27335Y-1145D01*
X-27272Y-1182D01*
X-27214Y-1226D01*
X-27187Y-1233D01*
X-27164Y-1247D01*
X-27060Y-1264D01*
X-27021Y-1274D01*
X-27011Y-1272D01*
X-27000Y-1274D01*
X27000Y-1274D01*
X27027Y-1269D01*
G37*
G36*
X44524Y150450D02*
X44524Y150450D01*
X44599Y150463D01*
X44609Y150469D01*
X44619Y150472D01*
X44648Y150496D01*
X44719Y150544D01*
X54244Y160069D01*
X54253Y160084D01*
X54259Y160088D01*
X54265Y160103D01*
X54284Y160133D01*
X54328Y160195D01*
X54330Y160207D01*
X54335Y160216D01*
X54339Y160253D01*
X54355Y160338D01*
X54355Y217488D01*
X54344Y217537D01*
X54342Y217588D01*
X54324Y217620D01*
X54316Y217656D01*
X54283Y217696D01*
X54259Y217740D01*
X54229Y217762D01*
X54206Y217790D01*
X54159Y217811D01*
X54117Y217840D01*
X54075Y217848D01*
X54047Y217861D01*
X54017Y217860D01*
X53975Y217868D01*
X42863Y217868D01*
X42813Y217856D01*
X42762Y217854D01*
X42730Y217837D01*
X42694Y217828D01*
X42654Y217796D01*
X42610Y217771D01*
X42589Y217741D01*
X42560Y217718D01*
X42539Y217671D01*
X42510Y217630D01*
X42502Y217588D01*
X42489Y217560D01*
X42490Y217529D01*
X42482Y217488D01*
X42482Y165258D01*
X41118Y163893D01*
X39101Y163893D01*
X39027Y163875D01*
X38952Y163862D01*
X38942Y163856D01*
X38932Y163853D01*
X38903Y163830D01*
X38832Y163781D01*
X38769Y163718D01*
X33338Y163718D01*
X33288Y163707D01*
X33237Y163705D01*
X33205Y163687D01*
X33169Y163679D01*
X33129Y163646D01*
X33085Y163622D01*
X33064Y163592D01*
X33035Y163569D01*
X33014Y163522D01*
X32985Y163480D01*
X32977Y163439D01*
X32964Y163411D01*
X32965Y163380D01*
X32957Y163338D01*
X32957Y150813D01*
X32969Y150763D01*
X32971Y150712D01*
X32988Y150680D01*
X32997Y150644D01*
X33029Y150604D01*
X33054Y150560D01*
X33084Y150539D01*
X33107Y150510D01*
X33154Y150489D01*
X33195Y150460D01*
X33237Y150452D01*
X33265Y150439D01*
X33296Y150440D01*
X33338Y150432D01*
X44450Y150432D01*
X44524Y150450D01*
G37*
G36*
X71487Y159969D02*
X71487Y159969D01*
X71538Y159971D01*
X71570Y159988D01*
X71606Y159997D01*
X71646Y160029D01*
X71690Y160054D01*
X71712Y160084D01*
X71740Y160107D01*
X71761Y160154D01*
X71790Y160195D01*
X71798Y160237D01*
X71811Y160265D01*
X71810Y160296D01*
X71818Y160338D01*
X71818Y215900D01*
X71806Y215950D01*
X71804Y216001D01*
X71787Y216033D01*
X71778Y216069D01*
X71746Y216108D01*
X71721Y216153D01*
X71691Y216174D01*
X71668Y216202D01*
X71621Y216223D01*
X71580Y216253D01*
X71538Y216261D01*
X71510Y216273D01*
X71479Y216272D01*
X71438Y216280D01*
X61913Y216280D01*
X61863Y216269D01*
X61812Y216267D01*
X61780Y216249D01*
X61744Y216241D01*
X61704Y216208D01*
X61660Y216184D01*
X61639Y216154D01*
X61610Y216131D01*
X61589Y216084D01*
X61560Y216042D01*
X61552Y216000D01*
X61539Y215972D01*
X61540Y215942D01*
X61532Y215900D01*
X61532Y160338D01*
X61544Y160288D01*
X61546Y160237D01*
X61563Y160205D01*
X61572Y160169D01*
X61604Y160129D01*
X61629Y160085D01*
X61659Y160064D01*
X61682Y160035D01*
X61729Y160014D01*
X61770Y159985D01*
X61812Y159977D01*
X61840Y159964D01*
X61871Y159965D01*
X61913Y159957D01*
X71438Y159957D01*
X71487Y159969D01*
G37*
%LPC*%
G36*
X91462Y128968D02*
X91462Y128968D01*
X86105Y134325D01*
X86105Y141900D01*
X91462Y147257D01*
X99038Y147257D01*
X104395Y141900D01*
X104395Y134325D01*
X99038Y128968D01*
X91462Y128968D01*
G37*
%LPD*%
%LPC*%
G36*
X41493Y222638D02*
X41493Y222638D01*
X40600Y223531D01*
X40600Y234794D01*
X41493Y235687D01*
X53757Y235687D01*
X54650Y234794D01*
X54650Y223531D01*
X53757Y222638D01*
X41493Y222638D01*
G37*
%LPD*%
%LPC*%
G36*
X-26769Y40538D02*
X-26769Y40538D01*
X-27662Y41431D01*
X-27662Y52694D01*
X-26769Y53587D01*
X-14506Y53587D01*
X-13613Y52694D01*
X-13613Y41431D01*
X-14506Y40538D01*
X-26769Y40538D01*
G37*
%LPD*%
D10*
X65650Y165100D03*
X48650Y165100D03*
D11*
X47650Y185738D03*
X66650Y185738D03*
D12*
X-55000Y111125D03*
X-72000Y111125D03*
D13*
X65088Y151700D03*
X65088Y139700D03*
X65088Y127700D03*
D14*
X95250Y138113D03*
D12*
X-52388Y140725D03*
X-52388Y157725D03*
D10*
X65650Y174625D03*
X48650Y174625D03*
D11*
X47650Y200025D03*
X66650Y200025D03*
D10*
X-96838Y174063D03*
X-96838Y191063D03*
D15*
X-63500Y158725D03*
X-63500Y139725D03*
D10*
X66675Y229163D03*
X66675Y212163D03*
X47625Y229163D03*
X47625Y212163D03*
D11*
X-60350Y47625D03*
X-79350Y47625D03*
D16*
X82600Y292325D03*
X165200Y149225D03*
X82600Y6125D03*
X-82600Y6125D03*
X-165200Y149225D03*
X-82600Y292325D03*
X123900Y220725D03*
X123900Y77725D03*
X0Y6125D03*
X-123900Y77725D03*
X-123900Y220725D03*
X0Y292325D03*
D10*
X-20638Y47063D03*
X-20638Y64063D03*
X-78350Y73025D03*
X-61350Y73025D03*
X-78350Y63500D03*
X-61350Y63500D03*
D17*
X-66675Y234950D03*
X-66675Y209550D03*
X-66675Y184150D03*
D18*
X35388Y176732D03*
X35388Y171731D03*
X35388Y166729D03*
X35388Y161728D03*
X35388Y156727D03*
X35388Y151726D03*
X35388Y146724D03*
X35388Y141723D03*
X35388Y136722D03*
X35388Y131721D03*
X35388Y126719D03*
X35388Y121718D03*
D19*
X29095Y115425D03*
X24094Y115425D03*
X19092Y115425D03*
X14091Y115425D03*
X9090Y115425D03*
X4089Y115425D03*
X-914Y115425D03*
X-5915Y115425D03*
X-10916Y115425D03*
X-15917Y115425D03*
X-20919Y115425D03*
X-25920Y115425D03*
D18*
X-32213Y121718D03*
X-32213Y126719D03*
X-32213Y131721D03*
X-32213Y136722D03*
X-32213Y141723D03*
X-32213Y146724D03*
X-32213Y151726D03*
X-32213Y156727D03*
X-32213Y161728D03*
X-32213Y166729D03*
X-32213Y171731D03*
X-32213Y176732D03*
D19*
X-25920Y183025D03*
X-20919Y183025D03*
X-15917Y183025D03*
X-10916Y183025D03*
X-5915Y183025D03*
X-914Y183025D03*
X4089Y183025D03*
X9090Y183025D03*
X14091Y183025D03*
X19092Y183025D03*
X24094Y183025D03*
X29095Y183025D03*
D20*
X1588Y149225D03*
D21*
X-79350Y62500D02*
X-79350Y47625D01*
X-79350Y62500D02*
X-78350Y63500D01*
D22*
X-83783Y58067D01*
X-87313Y58067D01*
D21*
X-62500Y140725D02*
X-52388Y140725D01*
X-62500Y140725D02*
X-63500Y139725D01*
D22*
X-52388Y140725D02*
X-46389Y146724D01*
X-32957Y146724D01*
X-32781Y146900D01*
X-432Y146900D01*
X1588Y148920D02*
X1588Y149225D01*
X1588Y148920D02*
X-432Y146900D01*
D23*
X25400Y128588D03*
X-23813Y174625D03*
X-7938Y174625D03*
X-9525Y203200D03*
X-26988Y203200D03*
D24*
X-77788Y60325D03*
D23*
X41275Y12700D03*
X42863Y28575D03*
X19050Y42863D03*
X20638Y26988D03*
X52388Y93663D03*
X69850Y93663D03*
X76200Y122238D03*
X92075Y122238D03*
X115888Y193675D03*
X115888Y176213D03*
X147638Y166688D03*
X142875Y188913D03*
X38100Y271463D03*
X36513Y257175D03*
X15875Y269875D03*
X15875Y257175D03*
X-85725Y179388D03*
X-95250Y166688D03*
X25400Y141288D03*
X19050Y90488D03*
X11113Y82550D03*
X-60325Y139700D03*
D25*
X-106363Y109538D03*
D21*
X-61350Y73025D02*
X-61350Y63500D01*
D23*
X-60325Y63187D03*
D26*
X-20638Y47312D03*
D23*
X47625Y229875D03*
D27*
X-32213Y151726D02*
X-46389Y151726D01*
X-52388Y157725D01*
X-62500Y157725D01*
X-63500Y158725D01*
D22*
X47625Y229163D02*
X47625Y229875D01*
D28*
X-63500Y158725D02*
X-73050Y158725D01*
X-80963Y150813D01*
D23*
X-80963Y150813D03*
D22*
X-20638Y47312D02*
X-20638Y47063D01*
X-60638Y63500D02*
X-61350Y63500D01*
X-60638Y63500D02*
X-60325Y63187D01*
D24*
X-88900Y85725D03*
X11539Y101174D03*
D27*
X11539Y96411D01*
X-20638Y64235D01*
X-20638Y64063D01*
D22*
X-21366Y64791D01*
X-84756Y81581D02*
X-88900Y85725D01*
X-84756Y81581D02*
X-54377Y81581D01*
X-52294Y79498D01*
X-52294Y72932D01*
X-44201Y64838D02*
X-42451Y64838D01*
X-42404Y64791D01*
X-21366Y64791D01*
X-44201Y64838D02*
X-52294Y72932D01*
X9090Y103623D02*
X11539Y101174D01*
X9090Y103623D02*
X9090Y115425D01*
D24*
X4763Y98425D03*
D22*
X4264Y98724D01*
D24*
X-58738Y90488D03*
D22*
X-56675Y90488D01*
X-38656Y72469D01*
X4763Y98407D02*
X4763Y98425D01*
X-21176Y72469D02*
X-38656Y72469D01*
X-21176Y72469D02*
X4763Y98407D01*
X4763Y98425D02*
X4763Y114751D01*
X4089Y115425D01*
D24*
X-1588Y101600D03*
D22*
X-914Y102274D02*
X-914Y115425D01*
X-914Y102274D02*
X-1588Y101600D01*
D24*
X-39914Y121220D03*
D22*
X-34963Y121718D01*
X-32213Y121718D01*
D24*
X-43150Y85126D03*
D22*
X-38387Y89888D01*
X-30347Y89888D01*
X-11091Y109144D01*
X-10916Y109319D02*
X-10916Y115425D01*
X-10916Y109319D02*
X-11091Y109144D01*
D24*
X-88588Y65012D03*
D22*
X-96238Y82686D02*
X-96238Y88765D01*
X-88588Y75036D02*
X-88588Y65012D01*
X-88588Y75036D02*
X-96238Y82686D01*
X-96238Y88765D02*
X-83403Y101600D01*
X-30233Y101600D01*
X-20919Y110914D02*
X-20919Y115425D01*
X-20919Y110914D02*
X-30233Y101600D01*
D24*
X-50800Y49213D03*
D22*
X-52388Y47625D01*
X-60350Y47625D01*
X64179Y165100D02*
X65650Y165100D01*
D27*
X63085Y156748D02*
X56825Y156748D01*
X46801Y146724D02*
X35388Y146724D01*
X46801Y146724D02*
X56825Y156748D01*
X65650Y159313D02*
X65650Y165100D01*
X65650Y159313D02*
X63085Y156748D01*
D22*
X47428Y136722D02*
X57150Y127000D01*
X64387Y127000D01*
X65088Y127700D01*
X47428Y136722D02*
X35388Y136722D01*
X58037Y151700D02*
X65088Y151700D01*
X58037Y151700D02*
X48061Y141723D01*
X35388Y141723D01*
X35388Y131721D02*
X40332Y131721D01*
D26*
X61913Y121152D03*
D22*
X60325Y121152D02*
X60159Y121319D01*
X60325Y121152D02*
X61913Y121152D01*
X50734Y121319D02*
X40332Y131721D01*
X50734Y121319D02*
X60159Y121319D01*
D27*
X124822Y110508D02*
X134941Y120627D01*
X124822Y110508D02*
X44210Y110508D01*
X134941Y209684D02*
X123900Y220725D01*
X134941Y209684D02*
X134941Y120627D01*
D22*
X44210Y110508D02*
X35388Y119330D01*
X35388Y121718D01*
D29*
X127194Y191893D03*
D27*
X122928Y115080D02*
X50866Y115080D01*
X122928Y115080D02*
X127194Y119346D01*
X127194Y191893D01*
D22*
X39227Y126719D02*
X35388Y126719D01*
X39227Y126719D02*
X50866Y115080D01*
D25*
X139700Y106363D03*
D27*
X139274Y105936D02*
X37553Y105936D01*
X139274Y105936D02*
X139700Y106363D01*
X37553Y105936D02*
X29095Y114395D01*
X29095Y115425D01*
X24094Y111880D02*
X34609Y101364D01*
X24094Y111880D02*
X24094Y115425D01*
X116123Y101364D02*
X128588Y88900D01*
X128588Y82413D01*
X123900Y77725D01*
X116123Y101364D02*
X34609Y101364D01*
X-32213Y141723D02*
X-32680Y141256D01*
X-37046Y141256D01*
X-51300Y127002D01*
X-112564Y127002D02*
X-133127Y106440D01*
D25*
X-133127Y106440D03*
D27*
X-112564Y127002D02*
X-51300Y127002D01*
X-36579Y156727D02*
X-32213Y156727D01*
X-36579Y156727D02*
X-48125Y168273D01*
X-80200Y168273D02*
X-141288Y107186D01*
X-141288Y97997D02*
X-137347Y91172D01*
X-123900Y77725D01*
X-80200Y168273D02*
X-48125Y168273D01*
X-141288Y107186D02*
X-141288Y97997D01*
D29*
X33338Y4763D03*
D27*
X19092Y109496D02*
X19092Y115425D01*
X33338Y95250D02*
X33338Y4763D01*
X33338Y95250D02*
X19092Y109496D01*
X28378Y10691D02*
X23813Y6125D01*
X0Y6125D01*
X28378Y93200D02*
X14091Y107488D01*
X14091Y115425D01*
X28378Y93200D02*
X28378Y10691D01*
D24*
X-36475Y78776D03*
D22*
X-33300Y78776D02*
X-5915Y106161D01*
X-33300Y78776D02*
X-36475Y78776D01*
X-5915Y106161D02*
X-5915Y115425D01*
D27*
X-123838Y220663D02*
X-123900Y220725D01*
X-123838Y220663D02*
X-62701Y220663D01*
X-10916Y186570D02*
X-10916Y183025D01*
X-10916Y186570D02*
X-13258Y188913D01*
X-33782Y188913D02*
X-56007Y211138D01*
X-33782Y188913D02*
X-13258Y188913D01*
X-56007Y211138D02*
X-56007Y213969D01*
X-62701Y220663D01*
D26*
X-96423Y226735D03*
D27*
X-71094Y245618D02*
X-62256Y245618D01*
X-89977Y226735D02*
X-96423Y226735D01*
X-89977Y226735D02*
X-71094Y245618D01*
X-6344Y183454D02*
X-5915Y183025D01*
X-6344Y183454D02*
X-6344Y188464D01*
X-11364Y193485D01*
X-51435Y213031D02*
X-51435Y234797D01*
X-62256Y245618D01*
X-31888Y193485D02*
X-11364Y193485D01*
X-31888Y193485D02*
X-51435Y213031D01*
X34042Y278685D02*
X34042Y285490D01*
X30352Y289179D01*
X34042Y278685D02*
X29095Y273738D01*
X3146Y289179D02*
X0Y292325D01*
X29095Y273738D02*
X29095Y183025D01*
X30352Y289179D02*
X3146Y289179D01*
X24094Y277644D02*
X24094Y183025D01*
X24094Y277644D02*
X27744Y281294D01*
D25*
X27744Y281294D03*
D22*
X-50700Y115425D02*
X-55000Y111125D01*
X-50700Y115425D02*
X-25920Y115425D01*
D24*
X-80357Y108932D03*
D22*
X-78163Y111125D01*
X-72000Y111125D01*
D28*
X-85163Y191063D02*
X-96838Y191063D01*
X-85163Y191063D02*
X-66675Y209550D01*
D22*
X-65031Y209550D02*
X-32213Y176732D01*
X-65031Y209550D02*
X-66675Y209550D01*
X-66675Y184150D02*
X-53975Y184150D01*
X-41275Y171450D01*
X-32494Y171450D02*
X-32213Y171731D01*
X-32494Y171450D02*
X-41275Y171450D01*
M02*
