G04 EAGLE Gerber RS-274X export*
G75*
%MOMM*%
%FSLAX34Y34*%
%LPD*%
%INSilkscreen Top*%
%IPPOS*%
%AMOC8*
5,1,8,0,0,1.08239X$1,22.5*%
G01*
%ADD10C,0.101600*%
%ADD11C,0.152400*%
%ADD12C,0.304800*%
%ADD13C,0.127000*%
%ADD14C,0.076200*%
%ADD15C,0.254000*%
%ADD16C,0.200000*%
%ADD17C,0.150000*%
%ADD18R,0.259075X0.015238*%
%ADD19R,1.310638X0.015238*%
%ADD20R,0.015238X0.015238*%
%ADD21R,0.304800X0.015238*%
%ADD22R,1.356356X0.015238*%
%ADD23R,0.335275X0.015238*%
%ADD24R,1.402075X0.015238*%
%ADD25R,0.365756X0.015238*%
%ADD26R,1.417319X0.015238*%
%ADD27R,0.381000X0.015238*%
%ADD28R,1.447800X0.015238*%
%ADD29R,0.396238X0.015238*%
%ADD30R,1.463037X0.015238*%
%ADD31R,0.411475X0.015238*%
%ADD32R,1.478275X0.015238*%
%ADD33R,0.426719X0.015238*%
%ADD34R,1.493519X0.015238*%
%ADD35R,0.441956X0.015238*%
%ADD36R,1.508756X0.015238*%
%ADD37R,0.457200X0.015238*%
%ADD38R,1.524000X0.015238*%
%ADD39R,0.472438X0.015238*%
%ADD40R,1.539238X0.015238*%
%ADD41R,0.487675X0.015238*%
%ADD42R,1.554475X0.015238*%
%ADD43R,0.502919X0.015238*%
%ADD44R,1.569719X0.015238*%
%ADD45R,0.518156X0.015238*%
%ADD46R,1.584956X0.015238*%
%ADD47R,0.533400X0.015238*%
%ADD48R,1.600200X0.015238*%
%ADD49R,0.548638X0.015238*%
%ADD50R,1.615438X0.015238*%
%ADD51R,0.563875X0.015238*%
%ADD52R,1.630675X0.015238*%
%ADD53R,0.579119X0.015238*%
%ADD54R,1.645919X0.015238*%
%ADD55R,0.594356X0.015238*%
%ADD56R,1.661156X0.015238*%
%ADD57R,0.609600X0.015238*%
%ADD58R,1.676400X0.015238*%
%ADD59R,0.624838X0.015238*%
%ADD60R,1.691638X0.015238*%
%ADD61R,0.640075X0.015238*%
%ADD62R,1.706875X0.015238*%
%ADD63R,0.655319X0.015238*%
%ADD64R,1.722119X0.015238*%
%ADD65R,0.670556X0.015238*%
%ADD66R,1.737356X0.015238*%
%ADD67R,0.685800X0.015238*%
%ADD68R,1.752600X0.015238*%
%ADD69R,0.701037X0.015238*%
%ADD70R,0.716275X0.015238*%
%ADD71R,0.731519X0.015238*%
%ADD72R,1.767838X0.015238*%
%ADD73R,1.783075X0.015238*%
%ADD74R,0.746756X0.015238*%
%ADD75R,1.798319X0.015238*%
%ADD76R,0.030481X0.015238*%
%ADD77R,0.762000X0.015238*%
%ADD78R,0.807719X0.015238*%
%ADD79R,0.868681X0.015238*%
%ADD80R,0.777238X0.015238*%
%ADD81R,0.853438X0.015238*%
%ADD82R,0.838200X0.015238*%
%ADD83R,0.792475X0.015238*%
%ADD84R,0.822963X0.015238*%
%ADD85R,0.822956X0.015238*%
%ADD86R,0.868675X0.015238*%
%ADD87R,0.883919X0.015238*%
%ADD88R,0.899156X0.015238*%
%ADD89R,0.914400X0.015238*%
%ADD90R,0.929638X0.015238*%
%ADD91R,0.944875X0.015238*%
%ADD92R,0.960119X0.015238*%
%ADD93R,0.975356X0.015238*%
%ADD94R,0.990600X0.015238*%
%ADD95R,1.005837X0.015238*%
%ADD96R,1.021075X0.015238*%
%ADD97R,1.036319X0.015238*%
%ADD98R,1.051556X0.015238*%
%ADD99R,1.066800X0.015238*%
%ADD100R,1.082037X0.015238*%
%ADD101R,1.097275X0.015238*%
%ADD102R,1.112519X0.015238*%
%ADD103R,1.127756X0.015238*%
%ADD104R,1.143000X0.015238*%
%ADD105R,1.158238X0.015238*%
%ADD106R,1.173475X0.015238*%
%ADD107R,1.188719X0.015238*%
%ADD108R,1.203956X0.015238*%
%ADD109R,1.219200X0.015238*%
%ADD110R,1.234438X0.015238*%
%ADD111R,1.249675X0.015238*%
%ADD112R,1.264919X0.015238*%
%ADD113R,1.280156X0.015238*%
%ADD114R,1.295400X0.015238*%
%ADD115R,1.325875X0.015238*%
%ADD116R,0.670563X0.015238*%
%ADD117R,1.341119X0.015238*%
%ADD118R,1.371600X0.015238*%
%ADD119R,1.386838X0.015238*%
%ADD120R,0.045719X0.015238*%
%ADD121R,0.060956X0.015238*%
%ADD122R,1.432556X0.015238*%
%ADD123R,0.106681X0.015238*%
%ADD124R,0.121919X0.015238*%
%ADD125R,0.152400X0.015238*%
%ADD126R,0.182875X0.015238*%
%ADD127R,0.030475X0.015238*%
%ADD128R,0.213363X0.015238*%
%ADD129R,0.076200X0.015238*%
%ADD130R,0.320038X0.015238*%
%ADD131R,0.243838X0.015238*%
%ADD132R,0.106675X0.015238*%
%ADD133R,0.274319X0.015238*%
%ADD134R,0.259081X0.015238*%
%ADD135R,0.198119X0.015238*%
%ADD136R,0.228600X0.015238*%


D10*
X151892Y136137D02*
X151892Y139383D01*
X151890Y139496D01*
X151884Y139609D01*
X151874Y139722D01*
X151860Y139835D01*
X151843Y139947D01*
X151821Y140058D01*
X151796Y140168D01*
X151766Y140278D01*
X151733Y140386D01*
X151696Y140493D01*
X151656Y140599D01*
X151611Y140703D01*
X151563Y140806D01*
X151512Y140907D01*
X151457Y141006D01*
X151399Y141103D01*
X151337Y141198D01*
X151272Y141291D01*
X151204Y141381D01*
X151133Y141469D01*
X151058Y141555D01*
X150981Y141638D01*
X150901Y141718D01*
X150818Y141795D01*
X150732Y141870D01*
X150644Y141941D01*
X150554Y142009D01*
X150461Y142074D01*
X150366Y142136D01*
X150269Y142194D01*
X150170Y142249D01*
X150069Y142300D01*
X149966Y142348D01*
X149862Y142393D01*
X149756Y142433D01*
X149649Y142470D01*
X149541Y142503D01*
X149431Y142533D01*
X149321Y142558D01*
X149210Y142580D01*
X149098Y142597D01*
X148985Y142611D01*
X148872Y142621D01*
X148759Y142627D01*
X148646Y142629D01*
X148533Y142627D01*
X148420Y142621D01*
X148307Y142611D01*
X148194Y142597D01*
X148082Y142580D01*
X147971Y142558D01*
X147861Y142533D01*
X147751Y142503D01*
X147643Y142470D01*
X147536Y142433D01*
X147430Y142393D01*
X147326Y142348D01*
X147223Y142300D01*
X147122Y142249D01*
X147023Y142194D01*
X146926Y142136D01*
X146831Y142074D01*
X146738Y142009D01*
X146648Y141941D01*
X146560Y141870D01*
X146474Y141795D01*
X146391Y141718D01*
X146311Y141638D01*
X146234Y141555D01*
X146159Y141469D01*
X146088Y141381D01*
X146020Y141291D01*
X145955Y141198D01*
X145893Y141103D01*
X145835Y141006D01*
X145780Y140907D01*
X145729Y140806D01*
X145681Y140703D01*
X145636Y140599D01*
X145596Y140493D01*
X145559Y140386D01*
X145526Y140278D01*
X145496Y140168D01*
X145471Y140058D01*
X145449Y139947D01*
X145432Y139835D01*
X145418Y139722D01*
X145408Y139609D01*
X145402Y139496D01*
X145400Y139383D01*
X140208Y140032D02*
X140208Y136137D01*
X140208Y140032D02*
X140210Y140133D01*
X140216Y140233D01*
X140226Y140333D01*
X140239Y140433D01*
X140257Y140532D01*
X140278Y140631D01*
X140303Y140728D01*
X140332Y140825D01*
X140365Y140920D01*
X140401Y141014D01*
X140441Y141106D01*
X140484Y141197D01*
X140531Y141286D01*
X140581Y141373D01*
X140635Y141459D01*
X140692Y141542D01*
X140752Y141622D01*
X140815Y141701D01*
X140882Y141777D01*
X140951Y141850D01*
X141023Y141920D01*
X141097Y141988D01*
X141174Y142053D01*
X141254Y142114D01*
X141336Y142173D01*
X141420Y142228D01*
X141506Y142280D01*
X141594Y142329D01*
X141684Y142374D01*
X141776Y142416D01*
X141869Y142454D01*
X141964Y142488D01*
X142059Y142519D01*
X142156Y142546D01*
X142254Y142569D01*
X142353Y142589D01*
X142453Y142604D01*
X142553Y142616D01*
X142653Y142624D01*
X142754Y142628D01*
X142854Y142628D01*
X142955Y142624D01*
X143055Y142616D01*
X143155Y142604D01*
X143255Y142589D01*
X143354Y142569D01*
X143452Y142546D01*
X143549Y142519D01*
X143644Y142488D01*
X143739Y142454D01*
X143832Y142416D01*
X143924Y142374D01*
X144014Y142329D01*
X144102Y142280D01*
X144188Y142228D01*
X144272Y142173D01*
X144354Y142114D01*
X144434Y142053D01*
X144511Y141988D01*
X144585Y141920D01*
X144657Y141850D01*
X144726Y141777D01*
X144793Y141701D01*
X144856Y141622D01*
X144916Y141542D01*
X144973Y141459D01*
X145027Y141373D01*
X145077Y141286D01*
X145124Y141197D01*
X145167Y141106D01*
X145207Y141014D01*
X145243Y140920D01*
X145276Y140825D01*
X145305Y140728D01*
X145330Y140631D01*
X145351Y140532D01*
X145369Y140433D01*
X145382Y140333D01*
X145392Y140233D01*
X145398Y140133D01*
X145400Y140032D01*
X145401Y140032D02*
X145401Y137435D01*
X140208Y146918D02*
X151892Y150813D01*
X140208Y154707D01*
X151892Y158997D02*
X151892Y162242D01*
X151890Y162355D01*
X151884Y162468D01*
X151874Y162581D01*
X151860Y162694D01*
X151843Y162806D01*
X151821Y162917D01*
X151796Y163027D01*
X151766Y163137D01*
X151733Y163245D01*
X151696Y163352D01*
X151656Y163458D01*
X151611Y163562D01*
X151563Y163665D01*
X151512Y163766D01*
X151457Y163865D01*
X151399Y163962D01*
X151337Y164057D01*
X151272Y164150D01*
X151204Y164240D01*
X151133Y164328D01*
X151058Y164414D01*
X150981Y164497D01*
X150901Y164577D01*
X150818Y164654D01*
X150732Y164729D01*
X150644Y164800D01*
X150554Y164868D01*
X150461Y164933D01*
X150366Y164995D01*
X150269Y165053D01*
X150170Y165108D01*
X150069Y165159D01*
X149966Y165207D01*
X149862Y165252D01*
X149756Y165292D01*
X149649Y165329D01*
X149541Y165362D01*
X149431Y165392D01*
X149321Y165417D01*
X149210Y165439D01*
X149098Y165456D01*
X148985Y165470D01*
X148872Y165480D01*
X148759Y165486D01*
X148646Y165488D01*
X148533Y165486D01*
X148420Y165480D01*
X148307Y165470D01*
X148194Y165456D01*
X148082Y165439D01*
X147971Y165417D01*
X147861Y165392D01*
X147751Y165362D01*
X147643Y165329D01*
X147536Y165292D01*
X147430Y165252D01*
X147326Y165207D01*
X147223Y165159D01*
X147122Y165108D01*
X147023Y165053D01*
X146926Y164995D01*
X146831Y164933D01*
X146738Y164868D01*
X146648Y164800D01*
X146560Y164729D01*
X146474Y164654D01*
X146391Y164577D01*
X146311Y164497D01*
X146234Y164414D01*
X146159Y164328D01*
X146088Y164240D01*
X146020Y164150D01*
X145955Y164057D01*
X145893Y163962D01*
X145835Y163865D01*
X145780Y163766D01*
X145729Y163665D01*
X145681Y163562D01*
X145636Y163458D01*
X145596Y163352D01*
X145559Y163245D01*
X145526Y163137D01*
X145496Y163027D01*
X145471Y162917D01*
X145449Y162806D01*
X145432Y162694D01*
X145418Y162581D01*
X145408Y162468D01*
X145402Y162355D01*
X145400Y162242D01*
X140208Y162892D02*
X140208Y158997D01*
X140208Y162892D02*
X140210Y162993D01*
X140216Y163093D01*
X140226Y163193D01*
X140239Y163293D01*
X140257Y163392D01*
X140278Y163491D01*
X140303Y163588D01*
X140332Y163685D01*
X140365Y163780D01*
X140401Y163874D01*
X140441Y163966D01*
X140484Y164057D01*
X140531Y164146D01*
X140581Y164233D01*
X140635Y164319D01*
X140692Y164402D01*
X140752Y164482D01*
X140815Y164561D01*
X140882Y164637D01*
X140951Y164710D01*
X141023Y164780D01*
X141097Y164848D01*
X141174Y164913D01*
X141254Y164974D01*
X141336Y165033D01*
X141420Y165088D01*
X141506Y165140D01*
X141594Y165189D01*
X141684Y165234D01*
X141776Y165276D01*
X141869Y165314D01*
X141964Y165348D01*
X142059Y165379D01*
X142156Y165406D01*
X142254Y165429D01*
X142353Y165449D01*
X142453Y165464D01*
X142553Y165476D01*
X142653Y165484D01*
X142754Y165488D01*
X142854Y165488D01*
X142955Y165484D01*
X143055Y165476D01*
X143155Y165464D01*
X143255Y165449D01*
X143354Y165429D01*
X143452Y165406D01*
X143549Y165379D01*
X143644Y165348D01*
X143739Y165314D01*
X143832Y165276D01*
X143924Y165234D01*
X144014Y165189D01*
X144102Y165140D01*
X144188Y165088D01*
X144272Y165033D01*
X144354Y164974D01*
X144434Y164913D01*
X144511Y164848D01*
X144585Y164780D01*
X144657Y164710D01*
X144726Y164637D01*
X144793Y164561D01*
X144856Y164482D01*
X144916Y164402D01*
X144973Y164319D01*
X145027Y164233D01*
X145077Y164146D01*
X145124Y164057D01*
X145167Y163966D01*
X145207Y163874D01*
X145243Y163780D01*
X145276Y163685D01*
X145305Y163588D01*
X145330Y163491D01*
X145351Y163392D01*
X145369Y163293D01*
X145382Y163193D01*
X145392Y163093D01*
X145398Y162993D01*
X145400Y162892D01*
X145401Y162892D02*
X145401Y160295D01*
X66437Y8815D02*
X63951Y6729D01*
X66437Y8814D02*
X66523Y8889D01*
X66606Y8966D01*
X66686Y9046D01*
X66763Y9129D01*
X66838Y9214D01*
X66909Y9303D01*
X66977Y9393D01*
X67042Y9486D01*
X67104Y9581D01*
X67162Y9678D01*
X67217Y9777D01*
X67268Y9878D01*
X67316Y9981D01*
X67361Y10085D01*
X67401Y10191D01*
X67438Y10298D01*
X67471Y10406D01*
X67501Y10516D01*
X67526Y10626D01*
X67548Y10737D01*
X67565Y10849D01*
X67579Y10962D01*
X67589Y11075D01*
X67595Y11188D01*
X67597Y11301D01*
X67595Y11414D01*
X67589Y11527D01*
X67579Y11640D01*
X67565Y11753D01*
X67548Y11865D01*
X67526Y11976D01*
X67501Y12086D01*
X67471Y12196D01*
X67438Y12304D01*
X67401Y12411D01*
X67361Y12517D01*
X67316Y12621D01*
X67268Y12724D01*
X67217Y12825D01*
X67162Y12924D01*
X67104Y13021D01*
X67042Y13116D01*
X66977Y13209D01*
X66909Y13299D01*
X66838Y13387D01*
X66763Y13473D01*
X66686Y13556D01*
X66606Y13636D01*
X66523Y13713D01*
X66437Y13788D01*
X66349Y13859D01*
X66259Y13927D01*
X66166Y13992D01*
X66071Y14054D01*
X65974Y14112D01*
X65875Y14167D01*
X65774Y14218D01*
X65671Y14266D01*
X65567Y14311D01*
X65461Y14351D01*
X65354Y14388D01*
X65246Y14421D01*
X65136Y14451D01*
X65026Y14476D01*
X64915Y14498D01*
X64803Y14515D01*
X64690Y14529D01*
X64577Y14539D01*
X64464Y14545D01*
X64351Y14547D01*
X64238Y14545D01*
X64125Y14539D01*
X64012Y14529D01*
X63899Y14515D01*
X63787Y14498D01*
X63676Y14476D01*
X63566Y14451D01*
X63456Y14421D01*
X63348Y14388D01*
X63241Y14351D01*
X63135Y14311D01*
X63031Y14266D01*
X62928Y14218D01*
X62827Y14167D01*
X62728Y14112D01*
X62631Y14054D01*
X62536Y13992D01*
X62443Y13927D01*
X62353Y13859D01*
X62264Y13788D01*
X59424Y18183D02*
X56440Y15679D01*
X59424Y18183D02*
X59503Y18246D01*
X59583Y18306D01*
X59666Y18363D01*
X59752Y18417D01*
X59839Y18467D01*
X59928Y18514D01*
X60019Y18557D01*
X60111Y18597D01*
X60205Y18633D01*
X60300Y18666D01*
X60397Y18695D01*
X60494Y18720D01*
X60593Y18741D01*
X60692Y18759D01*
X60792Y18772D01*
X60892Y18782D01*
X60992Y18788D01*
X61093Y18790D01*
X61194Y18788D01*
X61294Y18782D01*
X61394Y18772D01*
X61494Y18759D01*
X61593Y18741D01*
X61692Y18720D01*
X61789Y18695D01*
X61886Y18666D01*
X61981Y18633D01*
X62075Y18597D01*
X62167Y18557D01*
X62258Y18514D01*
X62347Y18467D01*
X62434Y18417D01*
X62520Y18363D01*
X62603Y18306D01*
X62683Y18246D01*
X62762Y18183D01*
X62838Y18116D01*
X62911Y18047D01*
X62981Y17975D01*
X63049Y17901D01*
X63114Y17824D01*
X63175Y17744D01*
X63234Y17662D01*
X63289Y17578D01*
X63341Y17492D01*
X63390Y17404D01*
X63435Y17314D01*
X63477Y17222D01*
X63515Y17129D01*
X63549Y17034D01*
X63580Y16939D01*
X63607Y16842D01*
X63630Y16744D01*
X63650Y16645D01*
X63665Y16545D01*
X63677Y16445D01*
X63685Y16345D01*
X63689Y16244D01*
X63689Y16144D01*
X63685Y16043D01*
X63677Y15943D01*
X63665Y15843D01*
X63650Y15743D01*
X63630Y15644D01*
X63607Y15546D01*
X63580Y15449D01*
X63549Y15354D01*
X63515Y15259D01*
X63477Y15166D01*
X63435Y15074D01*
X63390Y14984D01*
X63341Y14896D01*
X63289Y14810D01*
X63234Y14726D01*
X63175Y14644D01*
X63114Y14564D01*
X63049Y14487D01*
X62981Y14413D01*
X62911Y14341D01*
X62838Y14272D01*
X62762Y14205D01*
X60773Y12536D01*
X64699Y22609D02*
X75193Y16162D01*
X70666Y27616D01*
X81462Y21423D02*
X83948Y23509D01*
X83948Y23508D02*
X84034Y23583D01*
X84117Y23660D01*
X84197Y23740D01*
X84274Y23823D01*
X84349Y23908D01*
X84420Y23997D01*
X84488Y24087D01*
X84553Y24180D01*
X84615Y24275D01*
X84673Y24372D01*
X84728Y24471D01*
X84779Y24572D01*
X84827Y24675D01*
X84872Y24779D01*
X84912Y24885D01*
X84949Y24992D01*
X84982Y25100D01*
X85012Y25210D01*
X85037Y25320D01*
X85059Y25431D01*
X85076Y25543D01*
X85090Y25656D01*
X85100Y25769D01*
X85106Y25882D01*
X85108Y25995D01*
X85106Y26108D01*
X85100Y26221D01*
X85090Y26334D01*
X85076Y26447D01*
X85059Y26559D01*
X85037Y26670D01*
X85012Y26780D01*
X84982Y26890D01*
X84949Y26998D01*
X84912Y27105D01*
X84872Y27211D01*
X84827Y27315D01*
X84779Y27418D01*
X84728Y27519D01*
X84673Y27618D01*
X84615Y27715D01*
X84553Y27810D01*
X84488Y27903D01*
X84420Y27993D01*
X84349Y28081D01*
X84274Y28167D01*
X84197Y28250D01*
X84117Y28330D01*
X84034Y28407D01*
X83948Y28482D01*
X83860Y28553D01*
X83770Y28621D01*
X83677Y28686D01*
X83582Y28748D01*
X83485Y28806D01*
X83386Y28861D01*
X83285Y28912D01*
X83182Y28960D01*
X83078Y29005D01*
X82972Y29045D01*
X82865Y29082D01*
X82757Y29115D01*
X82647Y29145D01*
X82537Y29170D01*
X82426Y29192D01*
X82314Y29209D01*
X82201Y29223D01*
X82088Y29233D01*
X81975Y29239D01*
X81862Y29241D01*
X81749Y29239D01*
X81636Y29233D01*
X81523Y29223D01*
X81410Y29209D01*
X81298Y29192D01*
X81187Y29170D01*
X81077Y29145D01*
X80967Y29115D01*
X80859Y29082D01*
X80752Y29045D01*
X80646Y29005D01*
X80542Y28960D01*
X80439Y28912D01*
X80338Y28861D01*
X80239Y28806D01*
X80142Y28748D01*
X80047Y28686D01*
X79954Y28621D01*
X79864Y28553D01*
X79775Y28482D01*
X76935Y32877D02*
X73952Y30373D01*
X76935Y32877D02*
X77014Y32940D01*
X77094Y33000D01*
X77177Y33057D01*
X77263Y33111D01*
X77350Y33161D01*
X77439Y33208D01*
X77530Y33251D01*
X77622Y33291D01*
X77716Y33327D01*
X77811Y33360D01*
X77908Y33389D01*
X78005Y33414D01*
X78104Y33435D01*
X78203Y33453D01*
X78303Y33466D01*
X78403Y33476D01*
X78503Y33482D01*
X78604Y33484D01*
X78705Y33482D01*
X78805Y33476D01*
X78905Y33466D01*
X79005Y33453D01*
X79104Y33435D01*
X79203Y33414D01*
X79300Y33389D01*
X79397Y33360D01*
X79492Y33327D01*
X79586Y33291D01*
X79678Y33251D01*
X79769Y33208D01*
X79858Y33161D01*
X79945Y33111D01*
X80031Y33057D01*
X80114Y33000D01*
X80194Y32940D01*
X80273Y32877D01*
X80349Y32810D01*
X80422Y32741D01*
X80492Y32669D01*
X80560Y32595D01*
X80625Y32518D01*
X80686Y32438D01*
X80745Y32356D01*
X80800Y32272D01*
X80852Y32186D01*
X80901Y32098D01*
X80946Y32008D01*
X80988Y31916D01*
X81026Y31823D01*
X81060Y31728D01*
X81091Y31633D01*
X81118Y31536D01*
X81141Y31438D01*
X81161Y31339D01*
X81176Y31239D01*
X81188Y31139D01*
X81196Y31039D01*
X81200Y30938D01*
X81200Y30838D01*
X81196Y30737D01*
X81188Y30637D01*
X81176Y30537D01*
X81161Y30437D01*
X81141Y30338D01*
X81118Y30240D01*
X81091Y30143D01*
X81060Y30048D01*
X81026Y29953D01*
X80988Y29860D01*
X80946Y29768D01*
X80901Y29678D01*
X80852Y29590D01*
X80800Y29504D01*
X80745Y29420D01*
X80686Y29338D01*
X80625Y29258D01*
X80560Y29181D01*
X80492Y29107D01*
X80422Y29035D01*
X80349Y28966D01*
X80273Y28899D01*
X78284Y27230D01*
X-84151Y22408D02*
X-86810Y24270D01*
X-84152Y22408D02*
X-84058Y22345D01*
X-83962Y22285D01*
X-83864Y22228D01*
X-83764Y22175D01*
X-83662Y22125D01*
X-83558Y22079D01*
X-83453Y22037D01*
X-83347Y21998D01*
X-83239Y21963D01*
X-83130Y21932D01*
X-83020Y21904D01*
X-82909Y21881D01*
X-82798Y21861D01*
X-82686Y21845D01*
X-82573Y21833D01*
X-82460Y21825D01*
X-82347Y21821D01*
X-82233Y21821D01*
X-82120Y21825D01*
X-82007Y21833D01*
X-81894Y21845D01*
X-81782Y21861D01*
X-81671Y21881D01*
X-81560Y21904D01*
X-81450Y21932D01*
X-81341Y21963D01*
X-81233Y21998D01*
X-81127Y22037D01*
X-81022Y22079D01*
X-80918Y22125D01*
X-80816Y22175D01*
X-80716Y22228D01*
X-80618Y22285D01*
X-80522Y22345D01*
X-80428Y22408D01*
X-80337Y22475D01*
X-80247Y22544D01*
X-80160Y22617D01*
X-80076Y22693D01*
X-79995Y22772D01*
X-79916Y22853D01*
X-79840Y22937D01*
X-79767Y23024D01*
X-79698Y23114D01*
X-79631Y23205D01*
X-79568Y23299D01*
X-79508Y23395D01*
X-79451Y23493D01*
X-79398Y23593D01*
X-79348Y23695D01*
X-79302Y23799D01*
X-79260Y23904D01*
X-79221Y24010D01*
X-79186Y24118D01*
X-79155Y24227D01*
X-79127Y24337D01*
X-79104Y24448D01*
X-79084Y24559D01*
X-79068Y24671D01*
X-79056Y24784D01*
X-79048Y24897D01*
X-79044Y25010D01*
X-79044Y25124D01*
X-79048Y25237D01*
X-79056Y25350D01*
X-79068Y25463D01*
X-79084Y25575D01*
X-79104Y25686D01*
X-79127Y25797D01*
X-79155Y25907D01*
X-79186Y26016D01*
X-79221Y26124D01*
X-79260Y26230D01*
X-79302Y26335D01*
X-79348Y26439D01*
X-79398Y26541D01*
X-79451Y26641D01*
X-79508Y26739D01*
X-79568Y26835D01*
X-79631Y26929D01*
X-79698Y27020D01*
X-79767Y27110D01*
X-79840Y27197D01*
X-79916Y27281D01*
X-79995Y27362D01*
X-80076Y27441D01*
X-80160Y27517D01*
X-80247Y27590D01*
X-80336Y27659D01*
X-80428Y27726D01*
X-76918Y31607D02*
X-80108Y33840D01*
X-76918Y31607D02*
X-76837Y31547D01*
X-76758Y31485D01*
X-76681Y31419D01*
X-76607Y31351D01*
X-76536Y31280D01*
X-76468Y31206D01*
X-76402Y31129D01*
X-76340Y31050D01*
X-76280Y30969D01*
X-76224Y30885D01*
X-76171Y30800D01*
X-76122Y30712D01*
X-76076Y30623D01*
X-76033Y30531D01*
X-75994Y30438D01*
X-75959Y30344D01*
X-75927Y30249D01*
X-75899Y30152D01*
X-75875Y30054D01*
X-75855Y29956D01*
X-75838Y29856D01*
X-75826Y29756D01*
X-75817Y29656D01*
X-75812Y29555D01*
X-75811Y29455D01*
X-75814Y29354D01*
X-75821Y29254D01*
X-75832Y29154D01*
X-75846Y29054D01*
X-75865Y28955D01*
X-75887Y28857D01*
X-75913Y28760D01*
X-75943Y28663D01*
X-75976Y28569D01*
X-76013Y28475D01*
X-76054Y28383D01*
X-76099Y28292D01*
X-76146Y28204D01*
X-76198Y28117D01*
X-76252Y28033D01*
X-76310Y27950D01*
X-76371Y27870D01*
X-76435Y27792D01*
X-76502Y27717D01*
X-76571Y27644D01*
X-76644Y27575D01*
X-76719Y27508D01*
X-76797Y27444D01*
X-76877Y27383D01*
X-76960Y27325D01*
X-77044Y27271D01*
X-77131Y27219D01*
X-77219Y27172D01*
X-77310Y27127D01*
X-77402Y27086D01*
X-77495Y27049D01*
X-77590Y27016D01*
X-77687Y26986D01*
X-77784Y26960D01*
X-77882Y26938D01*
X-77981Y26919D01*
X-78081Y26905D01*
X-78181Y26894D01*
X-78281Y26887D01*
X-78382Y26884D01*
X-78482Y26885D01*
X-78583Y26890D01*
X-78683Y26899D01*
X-78783Y26911D01*
X-78883Y26928D01*
X-78981Y26948D01*
X-79079Y26972D01*
X-79176Y27000D01*
X-79271Y27032D01*
X-79365Y27067D01*
X-79458Y27106D01*
X-79550Y27149D01*
X-79639Y27195D01*
X-79727Y27244D01*
X-79812Y27297D01*
X-79896Y27353D01*
X-82023Y28842D01*
X-71277Y27657D02*
X-74788Y15852D01*
X-64896Y23189D01*
X-68084Y11158D02*
X-65425Y9296D01*
X-65426Y9296D02*
X-65332Y9233D01*
X-65236Y9173D01*
X-65138Y9116D01*
X-65038Y9063D01*
X-64936Y9013D01*
X-64832Y8967D01*
X-64727Y8925D01*
X-64621Y8886D01*
X-64513Y8851D01*
X-64404Y8820D01*
X-64294Y8792D01*
X-64183Y8769D01*
X-64072Y8749D01*
X-63960Y8733D01*
X-63847Y8721D01*
X-63734Y8713D01*
X-63621Y8709D01*
X-63507Y8709D01*
X-63394Y8713D01*
X-63281Y8721D01*
X-63168Y8733D01*
X-63056Y8749D01*
X-62945Y8769D01*
X-62834Y8792D01*
X-62724Y8820D01*
X-62615Y8851D01*
X-62507Y8886D01*
X-62401Y8925D01*
X-62296Y8967D01*
X-62192Y9013D01*
X-62090Y9063D01*
X-61990Y9116D01*
X-61892Y9173D01*
X-61796Y9233D01*
X-61702Y9296D01*
X-61611Y9363D01*
X-61521Y9432D01*
X-61434Y9505D01*
X-61350Y9581D01*
X-61269Y9660D01*
X-61190Y9741D01*
X-61114Y9825D01*
X-61041Y9912D01*
X-60972Y10002D01*
X-60905Y10093D01*
X-60842Y10187D01*
X-60782Y10283D01*
X-60725Y10381D01*
X-60672Y10481D01*
X-60622Y10583D01*
X-60576Y10687D01*
X-60534Y10792D01*
X-60495Y10898D01*
X-60460Y11006D01*
X-60429Y11115D01*
X-60401Y11225D01*
X-60378Y11336D01*
X-60358Y11447D01*
X-60342Y11559D01*
X-60330Y11672D01*
X-60322Y11785D01*
X-60318Y11898D01*
X-60318Y12012D01*
X-60322Y12125D01*
X-60330Y12238D01*
X-60342Y12351D01*
X-60358Y12463D01*
X-60378Y12574D01*
X-60401Y12685D01*
X-60429Y12795D01*
X-60460Y12904D01*
X-60495Y13012D01*
X-60534Y13118D01*
X-60576Y13223D01*
X-60622Y13327D01*
X-60672Y13429D01*
X-60725Y13529D01*
X-60782Y13627D01*
X-60842Y13723D01*
X-60905Y13817D01*
X-60972Y13908D01*
X-61041Y13998D01*
X-61114Y14085D01*
X-61190Y14169D01*
X-61269Y14250D01*
X-61350Y14329D01*
X-61434Y14405D01*
X-61521Y14478D01*
X-61610Y14547D01*
X-61702Y14614D01*
X-58192Y18495D02*
X-61382Y20728D01*
X-58192Y18495D02*
X-58111Y18435D01*
X-58032Y18373D01*
X-57955Y18307D01*
X-57881Y18239D01*
X-57810Y18168D01*
X-57742Y18094D01*
X-57676Y18017D01*
X-57614Y17938D01*
X-57554Y17857D01*
X-57498Y17773D01*
X-57445Y17688D01*
X-57396Y17600D01*
X-57350Y17511D01*
X-57307Y17419D01*
X-57268Y17326D01*
X-57233Y17232D01*
X-57201Y17137D01*
X-57173Y17040D01*
X-57149Y16942D01*
X-57129Y16844D01*
X-57112Y16744D01*
X-57100Y16644D01*
X-57091Y16544D01*
X-57086Y16443D01*
X-57085Y16343D01*
X-57088Y16242D01*
X-57095Y16142D01*
X-57106Y16042D01*
X-57120Y15942D01*
X-57139Y15843D01*
X-57161Y15745D01*
X-57187Y15648D01*
X-57217Y15551D01*
X-57250Y15457D01*
X-57287Y15363D01*
X-57328Y15271D01*
X-57373Y15180D01*
X-57420Y15092D01*
X-57472Y15005D01*
X-57526Y14921D01*
X-57584Y14838D01*
X-57645Y14758D01*
X-57709Y14680D01*
X-57776Y14605D01*
X-57845Y14532D01*
X-57918Y14463D01*
X-57993Y14396D01*
X-58071Y14332D01*
X-58151Y14271D01*
X-58234Y14213D01*
X-58318Y14159D01*
X-58405Y14107D01*
X-58493Y14060D01*
X-58584Y14015D01*
X-58676Y13974D01*
X-58769Y13937D01*
X-58864Y13904D01*
X-58961Y13874D01*
X-59058Y13848D01*
X-59156Y13826D01*
X-59255Y13807D01*
X-59355Y13793D01*
X-59455Y13782D01*
X-59555Y13775D01*
X-59656Y13772D01*
X-59756Y13773D01*
X-59857Y13778D01*
X-59957Y13787D01*
X-60057Y13799D01*
X-60157Y13816D01*
X-60255Y13836D01*
X-60353Y13860D01*
X-60450Y13888D01*
X-60545Y13920D01*
X-60639Y13955D01*
X-60732Y13994D01*
X-60824Y14037D01*
X-60913Y14083D01*
X-61001Y14132D01*
X-61086Y14185D01*
X-61170Y14241D01*
X-63297Y15730D01*
X-140208Y136137D02*
X-140208Y139383D01*
X-140210Y139496D01*
X-140216Y139609D01*
X-140226Y139722D01*
X-140240Y139835D01*
X-140257Y139947D01*
X-140279Y140058D01*
X-140304Y140168D01*
X-140334Y140278D01*
X-140367Y140386D01*
X-140404Y140493D01*
X-140444Y140599D01*
X-140489Y140703D01*
X-140537Y140806D01*
X-140588Y140907D01*
X-140643Y141006D01*
X-140701Y141103D01*
X-140763Y141198D01*
X-140828Y141291D01*
X-140896Y141381D01*
X-140967Y141469D01*
X-141042Y141555D01*
X-141119Y141638D01*
X-141199Y141718D01*
X-141282Y141795D01*
X-141368Y141870D01*
X-141456Y141941D01*
X-141546Y142009D01*
X-141639Y142074D01*
X-141734Y142136D01*
X-141831Y142194D01*
X-141930Y142249D01*
X-142031Y142300D01*
X-142134Y142348D01*
X-142238Y142393D01*
X-142344Y142433D01*
X-142451Y142470D01*
X-142559Y142503D01*
X-142669Y142533D01*
X-142779Y142558D01*
X-142890Y142580D01*
X-143002Y142597D01*
X-143115Y142611D01*
X-143228Y142621D01*
X-143341Y142627D01*
X-143454Y142629D01*
X-143567Y142627D01*
X-143680Y142621D01*
X-143793Y142611D01*
X-143906Y142597D01*
X-144018Y142580D01*
X-144129Y142558D01*
X-144239Y142533D01*
X-144349Y142503D01*
X-144457Y142470D01*
X-144564Y142433D01*
X-144670Y142393D01*
X-144774Y142348D01*
X-144877Y142300D01*
X-144978Y142249D01*
X-145077Y142194D01*
X-145174Y142136D01*
X-145269Y142074D01*
X-145362Y142009D01*
X-145452Y141941D01*
X-145540Y141870D01*
X-145626Y141795D01*
X-145709Y141718D01*
X-145789Y141638D01*
X-145866Y141555D01*
X-145941Y141469D01*
X-146012Y141381D01*
X-146080Y141291D01*
X-146145Y141198D01*
X-146207Y141103D01*
X-146265Y141006D01*
X-146320Y140907D01*
X-146371Y140806D01*
X-146419Y140703D01*
X-146464Y140599D01*
X-146504Y140493D01*
X-146541Y140386D01*
X-146574Y140278D01*
X-146604Y140168D01*
X-146629Y140058D01*
X-146651Y139947D01*
X-146668Y139835D01*
X-146682Y139722D01*
X-146692Y139609D01*
X-146698Y139496D01*
X-146700Y139383D01*
X-151892Y140032D02*
X-151892Y136137D01*
X-151892Y140032D02*
X-151890Y140133D01*
X-151884Y140233D01*
X-151874Y140333D01*
X-151861Y140433D01*
X-151843Y140532D01*
X-151822Y140631D01*
X-151797Y140728D01*
X-151768Y140825D01*
X-151735Y140920D01*
X-151699Y141014D01*
X-151659Y141106D01*
X-151616Y141197D01*
X-151569Y141286D01*
X-151519Y141373D01*
X-151465Y141459D01*
X-151408Y141542D01*
X-151348Y141622D01*
X-151285Y141701D01*
X-151218Y141777D01*
X-151149Y141850D01*
X-151077Y141920D01*
X-151003Y141988D01*
X-150926Y142053D01*
X-150846Y142114D01*
X-150764Y142173D01*
X-150680Y142228D01*
X-150594Y142280D01*
X-150506Y142329D01*
X-150416Y142374D01*
X-150324Y142416D01*
X-150231Y142454D01*
X-150136Y142488D01*
X-150041Y142519D01*
X-149944Y142546D01*
X-149846Y142569D01*
X-149747Y142589D01*
X-149647Y142604D01*
X-149547Y142616D01*
X-149447Y142624D01*
X-149346Y142628D01*
X-149246Y142628D01*
X-149145Y142624D01*
X-149045Y142616D01*
X-148945Y142604D01*
X-148845Y142589D01*
X-148746Y142569D01*
X-148648Y142546D01*
X-148551Y142519D01*
X-148456Y142488D01*
X-148361Y142454D01*
X-148268Y142416D01*
X-148176Y142374D01*
X-148086Y142329D01*
X-147998Y142280D01*
X-147912Y142228D01*
X-147828Y142173D01*
X-147746Y142114D01*
X-147666Y142053D01*
X-147589Y141988D01*
X-147515Y141920D01*
X-147443Y141850D01*
X-147374Y141777D01*
X-147307Y141701D01*
X-147244Y141622D01*
X-147184Y141542D01*
X-147127Y141459D01*
X-147073Y141373D01*
X-147023Y141286D01*
X-146976Y141197D01*
X-146933Y141106D01*
X-146893Y141014D01*
X-146857Y140920D01*
X-146824Y140825D01*
X-146795Y140728D01*
X-146770Y140631D01*
X-146749Y140532D01*
X-146731Y140433D01*
X-146718Y140333D01*
X-146708Y140233D01*
X-146702Y140133D01*
X-146700Y140032D01*
X-146699Y140032D02*
X-146699Y137435D01*
X-151892Y146918D02*
X-140208Y150813D01*
X-151892Y154707D01*
X-140208Y158997D02*
X-140208Y162242D01*
X-140210Y162355D01*
X-140216Y162468D01*
X-140226Y162581D01*
X-140240Y162694D01*
X-140257Y162806D01*
X-140279Y162917D01*
X-140304Y163027D01*
X-140334Y163137D01*
X-140367Y163245D01*
X-140404Y163352D01*
X-140444Y163458D01*
X-140489Y163562D01*
X-140537Y163665D01*
X-140588Y163766D01*
X-140643Y163865D01*
X-140701Y163962D01*
X-140763Y164057D01*
X-140828Y164150D01*
X-140896Y164240D01*
X-140967Y164328D01*
X-141042Y164414D01*
X-141119Y164497D01*
X-141199Y164577D01*
X-141282Y164654D01*
X-141368Y164729D01*
X-141456Y164800D01*
X-141546Y164868D01*
X-141639Y164933D01*
X-141734Y164995D01*
X-141831Y165053D01*
X-141930Y165108D01*
X-142031Y165159D01*
X-142134Y165207D01*
X-142238Y165252D01*
X-142344Y165292D01*
X-142451Y165329D01*
X-142559Y165362D01*
X-142669Y165392D01*
X-142779Y165417D01*
X-142890Y165439D01*
X-143002Y165456D01*
X-143115Y165470D01*
X-143228Y165480D01*
X-143341Y165486D01*
X-143454Y165488D01*
X-143567Y165486D01*
X-143680Y165480D01*
X-143793Y165470D01*
X-143906Y165456D01*
X-144018Y165439D01*
X-144129Y165417D01*
X-144239Y165392D01*
X-144349Y165362D01*
X-144457Y165329D01*
X-144564Y165292D01*
X-144670Y165252D01*
X-144774Y165207D01*
X-144877Y165159D01*
X-144978Y165108D01*
X-145077Y165053D01*
X-145174Y164995D01*
X-145269Y164933D01*
X-145362Y164868D01*
X-145452Y164800D01*
X-145540Y164729D01*
X-145626Y164654D01*
X-145709Y164577D01*
X-145789Y164497D01*
X-145866Y164414D01*
X-145941Y164328D01*
X-146012Y164240D01*
X-146080Y164150D01*
X-146145Y164057D01*
X-146207Y163962D01*
X-146265Y163865D01*
X-146320Y163766D01*
X-146371Y163665D01*
X-146419Y163562D01*
X-146464Y163458D01*
X-146504Y163352D01*
X-146541Y163245D01*
X-146574Y163137D01*
X-146604Y163027D01*
X-146629Y162917D01*
X-146651Y162806D01*
X-146668Y162694D01*
X-146682Y162581D01*
X-146692Y162468D01*
X-146698Y162355D01*
X-146700Y162242D01*
X-151892Y162892D02*
X-151892Y158997D01*
X-151892Y162892D02*
X-151890Y162993D01*
X-151884Y163093D01*
X-151874Y163193D01*
X-151861Y163293D01*
X-151843Y163392D01*
X-151822Y163491D01*
X-151797Y163588D01*
X-151768Y163685D01*
X-151735Y163780D01*
X-151699Y163874D01*
X-151659Y163966D01*
X-151616Y164057D01*
X-151569Y164146D01*
X-151519Y164233D01*
X-151465Y164319D01*
X-151408Y164402D01*
X-151348Y164482D01*
X-151285Y164561D01*
X-151218Y164637D01*
X-151149Y164710D01*
X-151077Y164780D01*
X-151003Y164848D01*
X-150926Y164913D01*
X-150846Y164974D01*
X-150764Y165033D01*
X-150680Y165088D01*
X-150594Y165140D01*
X-150506Y165189D01*
X-150416Y165234D01*
X-150324Y165276D01*
X-150231Y165314D01*
X-150136Y165348D01*
X-150041Y165379D01*
X-149944Y165406D01*
X-149846Y165429D01*
X-149747Y165449D01*
X-149647Y165464D01*
X-149547Y165476D01*
X-149447Y165484D01*
X-149346Y165488D01*
X-149246Y165488D01*
X-149145Y165484D01*
X-149045Y165476D01*
X-148945Y165464D01*
X-148845Y165449D01*
X-148746Y165429D01*
X-148648Y165406D01*
X-148551Y165379D01*
X-148456Y165348D01*
X-148361Y165314D01*
X-148268Y165276D01*
X-148176Y165234D01*
X-148086Y165189D01*
X-147998Y165140D01*
X-147912Y165088D01*
X-147828Y165033D01*
X-147746Y164974D01*
X-147666Y164913D01*
X-147589Y164848D01*
X-147515Y164780D01*
X-147443Y164710D01*
X-147374Y164637D01*
X-147307Y164561D01*
X-147244Y164482D01*
X-147184Y164402D01*
X-147127Y164319D01*
X-147073Y164233D01*
X-147023Y164146D01*
X-146976Y164057D01*
X-146933Y163966D01*
X-146893Y163874D01*
X-146857Y163780D01*
X-146824Y163685D01*
X-146795Y163588D01*
X-146770Y163491D01*
X-146749Y163392D01*
X-146731Y163293D01*
X-146718Y163193D01*
X-146708Y163093D01*
X-146702Y162993D01*
X-146700Y162892D01*
X-146699Y162892D02*
X-146699Y160295D01*
D11*
X90251Y189548D02*
X90251Y207328D01*
X95190Y207328D01*
X95330Y207326D01*
X95469Y207320D01*
X95609Y207310D01*
X95748Y207296D01*
X95887Y207279D01*
X96025Y207257D01*
X96162Y207231D01*
X96299Y207202D01*
X96435Y207169D01*
X96569Y207132D01*
X96703Y207091D01*
X96835Y207046D01*
X96967Y206997D01*
X97096Y206945D01*
X97224Y206890D01*
X97351Y206830D01*
X97476Y206767D01*
X97599Y206701D01*
X97720Y206631D01*
X97839Y206558D01*
X97956Y206481D01*
X98070Y206401D01*
X98183Y206318D01*
X98293Y206232D01*
X98400Y206142D01*
X98505Y206050D01*
X98607Y205955D01*
X98707Y205857D01*
X98804Y205756D01*
X98898Y205652D01*
X98988Y205546D01*
X99076Y205437D01*
X99161Y205326D01*
X99242Y205212D01*
X99321Y205097D01*
X99396Y204979D01*
X99467Y204859D01*
X99535Y204736D01*
X99600Y204613D01*
X99661Y204487D01*
X99719Y204359D01*
X99773Y204231D01*
X99823Y204100D01*
X99870Y203968D01*
X99913Y203835D01*
X99952Y203701D01*
X99987Y203566D01*
X100018Y203430D01*
X100046Y203292D01*
X100069Y203155D01*
X100089Y203016D01*
X100105Y202877D01*
X100117Y202738D01*
X100125Y202599D01*
X100129Y202459D01*
X100129Y202319D01*
X100125Y202179D01*
X100117Y202040D01*
X100105Y201901D01*
X100089Y201762D01*
X100069Y201623D01*
X100046Y201486D01*
X100018Y201348D01*
X99987Y201212D01*
X99952Y201077D01*
X99913Y200943D01*
X99870Y200810D01*
X99823Y200678D01*
X99773Y200547D01*
X99719Y200419D01*
X99661Y200291D01*
X99600Y200165D01*
X99535Y200042D01*
X99467Y199920D01*
X99396Y199799D01*
X99321Y199681D01*
X99242Y199566D01*
X99161Y199452D01*
X99076Y199341D01*
X98988Y199232D01*
X98898Y199126D01*
X98804Y199022D01*
X98707Y198921D01*
X98607Y198823D01*
X98505Y198728D01*
X98400Y198636D01*
X98293Y198546D01*
X98183Y198460D01*
X98070Y198377D01*
X97956Y198297D01*
X97839Y198220D01*
X97720Y198147D01*
X97599Y198077D01*
X97476Y198011D01*
X97351Y197948D01*
X97224Y197888D01*
X97096Y197833D01*
X96967Y197781D01*
X96835Y197732D01*
X96703Y197687D01*
X96569Y197646D01*
X96435Y197609D01*
X96299Y197576D01*
X96162Y197547D01*
X96025Y197521D01*
X95887Y197499D01*
X95748Y197482D01*
X95609Y197468D01*
X95469Y197458D01*
X95330Y197452D01*
X95190Y197450D01*
X90251Y197450D01*
X106246Y203376D02*
X111185Y207328D01*
X111185Y189548D01*
X106246Y189548D02*
X116124Y189548D01*
X95637Y108903D02*
X95637Y91123D01*
X95637Y108903D02*
X100576Y108903D01*
X100716Y108901D01*
X100855Y108895D01*
X100995Y108885D01*
X101134Y108871D01*
X101273Y108854D01*
X101411Y108832D01*
X101548Y108806D01*
X101685Y108777D01*
X101821Y108744D01*
X101955Y108707D01*
X102089Y108666D01*
X102221Y108621D01*
X102353Y108572D01*
X102482Y108520D01*
X102610Y108465D01*
X102737Y108405D01*
X102862Y108342D01*
X102985Y108276D01*
X103106Y108206D01*
X103225Y108133D01*
X103342Y108056D01*
X103456Y107976D01*
X103569Y107893D01*
X103679Y107807D01*
X103786Y107717D01*
X103891Y107625D01*
X103993Y107530D01*
X104093Y107432D01*
X104190Y107331D01*
X104284Y107227D01*
X104374Y107121D01*
X104462Y107012D01*
X104547Y106901D01*
X104628Y106787D01*
X104707Y106672D01*
X104782Y106554D01*
X104853Y106434D01*
X104921Y106311D01*
X104986Y106188D01*
X105047Y106062D01*
X105105Y105934D01*
X105159Y105806D01*
X105209Y105675D01*
X105256Y105543D01*
X105299Y105410D01*
X105338Y105276D01*
X105373Y105141D01*
X105404Y105005D01*
X105432Y104867D01*
X105455Y104730D01*
X105475Y104591D01*
X105491Y104452D01*
X105503Y104313D01*
X105511Y104174D01*
X105515Y104034D01*
X105515Y103894D01*
X105511Y103754D01*
X105503Y103615D01*
X105491Y103476D01*
X105475Y103337D01*
X105455Y103198D01*
X105432Y103061D01*
X105404Y102923D01*
X105373Y102787D01*
X105338Y102652D01*
X105299Y102518D01*
X105256Y102385D01*
X105209Y102253D01*
X105159Y102122D01*
X105105Y101994D01*
X105047Y101866D01*
X104986Y101740D01*
X104921Y101617D01*
X104853Y101495D01*
X104782Y101374D01*
X104707Y101256D01*
X104628Y101141D01*
X104547Y101027D01*
X104462Y100916D01*
X104374Y100807D01*
X104284Y100701D01*
X104190Y100597D01*
X104093Y100496D01*
X103993Y100398D01*
X103891Y100303D01*
X103786Y100211D01*
X103679Y100121D01*
X103569Y100035D01*
X103456Y99952D01*
X103342Y99872D01*
X103225Y99795D01*
X103106Y99722D01*
X102985Y99652D01*
X102862Y99586D01*
X102737Y99523D01*
X102610Y99463D01*
X102482Y99408D01*
X102353Y99356D01*
X102221Y99307D01*
X102089Y99262D01*
X101955Y99221D01*
X101821Y99184D01*
X101685Y99151D01*
X101548Y99122D01*
X101411Y99096D01*
X101273Y99074D01*
X101134Y99057D01*
X100995Y99043D01*
X100855Y99033D01*
X100716Y99027D01*
X100576Y99025D01*
X95637Y99025D01*
X117065Y108903D02*
X117197Y108901D01*
X117328Y108895D01*
X117460Y108885D01*
X117591Y108872D01*
X117721Y108854D01*
X117851Y108833D01*
X117981Y108808D01*
X118109Y108779D01*
X118237Y108746D01*
X118363Y108709D01*
X118489Y108669D01*
X118613Y108625D01*
X118736Y108577D01*
X118857Y108526D01*
X118977Y108471D01*
X119095Y108413D01*
X119211Y108351D01*
X119325Y108285D01*
X119438Y108217D01*
X119548Y108145D01*
X119656Y108070D01*
X119762Y107991D01*
X119866Y107910D01*
X119967Y107825D01*
X120065Y107738D01*
X120161Y107647D01*
X120254Y107554D01*
X120345Y107458D01*
X120432Y107360D01*
X120517Y107259D01*
X120598Y107155D01*
X120677Y107049D01*
X120752Y106941D01*
X120824Y106831D01*
X120892Y106718D01*
X120958Y106604D01*
X121020Y106488D01*
X121078Y106370D01*
X121133Y106250D01*
X121184Y106129D01*
X121232Y106006D01*
X121276Y105882D01*
X121316Y105756D01*
X121353Y105630D01*
X121386Y105502D01*
X121415Y105374D01*
X121440Y105244D01*
X121461Y105114D01*
X121479Y104984D01*
X121492Y104853D01*
X121502Y104721D01*
X121508Y104590D01*
X121510Y104458D01*
X117065Y108903D02*
X116915Y108901D01*
X116766Y108895D01*
X116617Y108885D01*
X116468Y108872D01*
X116319Y108854D01*
X116171Y108833D01*
X116023Y108807D01*
X115877Y108778D01*
X115731Y108745D01*
X115586Y108708D01*
X115442Y108667D01*
X115299Y108623D01*
X115157Y108575D01*
X115017Y108523D01*
X114878Y108468D01*
X114740Y108409D01*
X114605Y108346D01*
X114470Y108280D01*
X114338Y108210D01*
X114208Y108137D01*
X114079Y108060D01*
X113952Y107980D01*
X113828Y107897D01*
X113706Y107811D01*
X113586Y107721D01*
X113469Y107628D01*
X113354Y107533D01*
X113241Y107434D01*
X113131Y107332D01*
X113024Y107228D01*
X112920Y107121D01*
X112818Y107011D01*
X112720Y106898D01*
X112624Y106783D01*
X112532Y106665D01*
X112442Y106545D01*
X112356Y106423D01*
X112273Y106299D01*
X112193Y106172D01*
X112117Y106044D01*
X112044Y105913D01*
X111974Y105780D01*
X111908Y105646D01*
X111846Y105510D01*
X111787Y105373D01*
X111731Y105234D01*
X111680Y105093D01*
X111632Y104952D01*
X120028Y101001D02*
X120124Y101094D01*
X120216Y101190D01*
X120306Y101289D01*
X120393Y101390D01*
X120478Y101493D01*
X120559Y101598D01*
X120637Y101706D01*
X120712Y101816D01*
X120785Y101928D01*
X120854Y102042D01*
X120920Y102158D01*
X120982Y102276D01*
X121041Y102395D01*
X121097Y102516D01*
X121150Y102639D01*
X121199Y102763D01*
X121244Y102888D01*
X121287Y103015D01*
X121325Y103142D01*
X121360Y103271D01*
X121391Y103400D01*
X121419Y103531D01*
X121443Y103662D01*
X121464Y103794D01*
X121480Y103926D01*
X121493Y104059D01*
X121503Y104192D01*
X121508Y104325D01*
X121510Y104458D01*
X120028Y101000D02*
X111632Y91123D01*
X121510Y91123D01*
X133880Y98037D02*
X133880Y103964D01*
X133880Y98037D02*
X137337Y93592D01*
X133880Y98037D02*
X130423Y93592D01*
X133880Y98037D02*
X139313Y100013D01*
X133880Y98037D02*
X128447Y100013D01*
X-9761Y37465D02*
X-9761Y19685D01*
X-9761Y37465D02*
X-4823Y37465D01*
X-4683Y37463D01*
X-4544Y37457D01*
X-4404Y37447D01*
X-4265Y37433D01*
X-4126Y37416D01*
X-3988Y37394D01*
X-3851Y37368D01*
X-3714Y37339D01*
X-3578Y37306D01*
X-3444Y37269D01*
X-3310Y37228D01*
X-3178Y37183D01*
X-3046Y37134D01*
X-2917Y37082D01*
X-2789Y37027D01*
X-2662Y36967D01*
X-2537Y36904D01*
X-2414Y36838D01*
X-2293Y36768D01*
X-2174Y36695D01*
X-2057Y36618D01*
X-1943Y36538D01*
X-1830Y36455D01*
X-1720Y36369D01*
X-1613Y36279D01*
X-1508Y36187D01*
X-1406Y36092D01*
X-1306Y35994D01*
X-1209Y35893D01*
X-1115Y35789D01*
X-1025Y35683D01*
X-937Y35574D01*
X-852Y35463D01*
X-771Y35349D01*
X-692Y35234D01*
X-617Y35116D01*
X-546Y34996D01*
X-478Y34873D01*
X-413Y34750D01*
X-352Y34624D01*
X-294Y34496D01*
X-240Y34368D01*
X-190Y34237D01*
X-143Y34105D01*
X-100Y33972D01*
X-61Y33838D01*
X-26Y33703D01*
X5Y33567D01*
X33Y33429D01*
X56Y33292D01*
X76Y33153D01*
X92Y33014D01*
X104Y32875D01*
X112Y32736D01*
X116Y32596D01*
X116Y32456D01*
X112Y32316D01*
X104Y32177D01*
X92Y32038D01*
X76Y31899D01*
X56Y31760D01*
X33Y31623D01*
X5Y31485D01*
X-26Y31349D01*
X-61Y31214D01*
X-100Y31080D01*
X-143Y30947D01*
X-190Y30815D01*
X-240Y30684D01*
X-294Y30556D01*
X-352Y30428D01*
X-413Y30302D01*
X-478Y30179D01*
X-546Y30057D01*
X-617Y29936D01*
X-692Y29818D01*
X-771Y29703D01*
X-852Y29589D01*
X-937Y29478D01*
X-1025Y29369D01*
X-1115Y29263D01*
X-1209Y29159D01*
X-1306Y29058D01*
X-1406Y28960D01*
X-1508Y28865D01*
X-1613Y28773D01*
X-1720Y28683D01*
X-1830Y28597D01*
X-1943Y28514D01*
X-2057Y28434D01*
X-2174Y28357D01*
X-2293Y28284D01*
X-2414Y28214D01*
X-2537Y28148D01*
X-2662Y28085D01*
X-2789Y28025D01*
X-2917Y27970D01*
X-3046Y27918D01*
X-3178Y27869D01*
X-3310Y27824D01*
X-3444Y27783D01*
X-3578Y27746D01*
X-3714Y27713D01*
X-3851Y27684D01*
X-3988Y27658D01*
X-4126Y27636D01*
X-4265Y27619D01*
X-4404Y27605D01*
X-4544Y27595D01*
X-4683Y27589D01*
X-4823Y27587D01*
X-9761Y27587D01*
X6234Y19685D02*
X11173Y19685D01*
X11313Y19687D01*
X11452Y19693D01*
X11592Y19703D01*
X11731Y19717D01*
X11870Y19734D01*
X12008Y19756D01*
X12145Y19782D01*
X12282Y19811D01*
X12418Y19844D01*
X12552Y19881D01*
X12686Y19922D01*
X12818Y19967D01*
X12950Y20016D01*
X13079Y20068D01*
X13207Y20123D01*
X13334Y20183D01*
X13459Y20246D01*
X13582Y20312D01*
X13703Y20382D01*
X13822Y20455D01*
X13939Y20532D01*
X14053Y20612D01*
X14166Y20695D01*
X14276Y20781D01*
X14383Y20871D01*
X14488Y20963D01*
X14590Y21058D01*
X14690Y21156D01*
X14787Y21257D01*
X14881Y21361D01*
X14971Y21467D01*
X15059Y21576D01*
X15144Y21687D01*
X15225Y21801D01*
X15304Y21916D01*
X15379Y22034D01*
X15450Y22155D01*
X15518Y22277D01*
X15583Y22400D01*
X15644Y22526D01*
X15702Y22654D01*
X15756Y22782D01*
X15806Y22913D01*
X15853Y23045D01*
X15896Y23178D01*
X15935Y23312D01*
X15970Y23447D01*
X16001Y23583D01*
X16029Y23721D01*
X16052Y23858D01*
X16072Y23997D01*
X16088Y24136D01*
X16100Y24275D01*
X16108Y24414D01*
X16112Y24554D01*
X16112Y24694D01*
X16108Y24834D01*
X16100Y24973D01*
X16088Y25112D01*
X16072Y25251D01*
X16052Y25390D01*
X16029Y25527D01*
X16001Y25665D01*
X15970Y25801D01*
X15935Y25936D01*
X15896Y26070D01*
X15853Y26203D01*
X15806Y26335D01*
X15756Y26466D01*
X15702Y26594D01*
X15644Y26722D01*
X15583Y26848D01*
X15518Y26971D01*
X15450Y27094D01*
X15379Y27214D01*
X15304Y27332D01*
X15225Y27447D01*
X15144Y27561D01*
X15059Y27672D01*
X14971Y27781D01*
X14881Y27887D01*
X14787Y27991D01*
X14690Y28092D01*
X14590Y28190D01*
X14488Y28285D01*
X14383Y28377D01*
X14276Y28467D01*
X14166Y28553D01*
X14053Y28636D01*
X13939Y28716D01*
X13822Y28793D01*
X13703Y28866D01*
X13582Y28936D01*
X13459Y29002D01*
X13334Y29065D01*
X13207Y29125D01*
X13079Y29180D01*
X12950Y29232D01*
X12818Y29281D01*
X12686Y29326D01*
X12552Y29367D01*
X12418Y29404D01*
X12282Y29437D01*
X12145Y29466D01*
X12008Y29492D01*
X11870Y29514D01*
X11731Y29531D01*
X11592Y29545D01*
X11452Y29555D01*
X11313Y29561D01*
X11173Y29563D01*
X12160Y37465D02*
X6234Y37465D01*
X12160Y37465D02*
X12284Y37463D01*
X12408Y37457D01*
X12532Y37447D01*
X12655Y37434D01*
X12778Y37416D01*
X12900Y37395D01*
X13022Y37370D01*
X13143Y37341D01*
X13262Y37308D01*
X13381Y37272D01*
X13498Y37231D01*
X13614Y37188D01*
X13729Y37140D01*
X13842Y37089D01*
X13954Y37034D01*
X14063Y36976D01*
X14171Y36915D01*
X14277Y36850D01*
X14381Y36782D01*
X14482Y36710D01*
X14582Y36636D01*
X14678Y36558D01*
X14773Y36478D01*
X14865Y36394D01*
X14954Y36308D01*
X15040Y36219D01*
X15124Y36127D01*
X15204Y36032D01*
X15282Y35936D01*
X15356Y35836D01*
X15428Y35735D01*
X15496Y35631D01*
X15561Y35525D01*
X15622Y35417D01*
X15680Y35308D01*
X15735Y35196D01*
X15786Y35083D01*
X15834Y34968D01*
X15877Y34852D01*
X15918Y34735D01*
X15954Y34616D01*
X15987Y34497D01*
X16016Y34376D01*
X16041Y34254D01*
X16062Y34132D01*
X16080Y34009D01*
X16093Y33886D01*
X16103Y33762D01*
X16109Y33638D01*
X16111Y33514D01*
X16109Y33390D01*
X16103Y33266D01*
X16093Y33142D01*
X16080Y33019D01*
X16062Y32896D01*
X16041Y32774D01*
X16016Y32652D01*
X15987Y32531D01*
X15954Y32412D01*
X15918Y32293D01*
X15877Y32176D01*
X15834Y32060D01*
X15786Y31945D01*
X15735Y31832D01*
X15680Y31720D01*
X15622Y31611D01*
X15561Y31503D01*
X15496Y31397D01*
X15428Y31293D01*
X15356Y31192D01*
X15282Y31092D01*
X15204Y30996D01*
X15124Y30901D01*
X15040Y30809D01*
X14954Y30720D01*
X14865Y30634D01*
X14773Y30550D01*
X14678Y30470D01*
X14582Y30392D01*
X14482Y30318D01*
X14381Y30246D01*
X14277Y30178D01*
X14171Y30113D01*
X14063Y30052D01*
X13954Y29994D01*
X13842Y29939D01*
X13729Y29888D01*
X13614Y29840D01*
X13498Y29797D01*
X13381Y29756D01*
X13262Y29720D01*
X13143Y29687D01*
X13022Y29658D01*
X12900Y29633D01*
X12778Y29612D01*
X12655Y29594D01*
X12532Y29581D01*
X12408Y29571D01*
X12284Y29565D01*
X12160Y29563D01*
X8209Y29563D01*
X-137725Y92710D02*
X-137725Y110490D01*
X-132786Y110490D01*
X-132646Y110488D01*
X-132507Y110482D01*
X-132367Y110472D01*
X-132228Y110458D01*
X-132089Y110441D01*
X-131951Y110419D01*
X-131814Y110393D01*
X-131677Y110364D01*
X-131541Y110331D01*
X-131407Y110294D01*
X-131273Y110253D01*
X-131141Y110208D01*
X-131009Y110159D01*
X-130880Y110107D01*
X-130752Y110052D01*
X-130625Y109992D01*
X-130500Y109929D01*
X-130377Y109863D01*
X-130256Y109793D01*
X-130137Y109720D01*
X-130020Y109643D01*
X-129906Y109563D01*
X-129793Y109480D01*
X-129683Y109394D01*
X-129576Y109304D01*
X-129471Y109212D01*
X-129369Y109117D01*
X-129269Y109019D01*
X-129172Y108918D01*
X-129078Y108814D01*
X-128988Y108708D01*
X-128900Y108599D01*
X-128815Y108488D01*
X-128734Y108374D01*
X-128655Y108259D01*
X-128580Y108141D01*
X-128509Y108021D01*
X-128441Y107898D01*
X-128376Y107775D01*
X-128315Y107649D01*
X-128257Y107521D01*
X-128203Y107393D01*
X-128153Y107262D01*
X-128106Y107130D01*
X-128063Y106997D01*
X-128024Y106863D01*
X-127989Y106728D01*
X-127958Y106592D01*
X-127930Y106454D01*
X-127907Y106317D01*
X-127887Y106178D01*
X-127871Y106039D01*
X-127859Y105900D01*
X-127851Y105761D01*
X-127847Y105621D01*
X-127847Y105481D01*
X-127851Y105341D01*
X-127859Y105202D01*
X-127871Y105063D01*
X-127887Y104924D01*
X-127907Y104785D01*
X-127930Y104648D01*
X-127958Y104510D01*
X-127989Y104374D01*
X-128024Y104239D01*
X-128063Y104105D01*
X-128106Y103972D01*
X-128153Y103840D01*
X-128203Y103709D01*
X-128257Y103581D01*
X-128315Y103453D01*
X-128376Y103327D01*
X-128441Y103204D01*
X-128509Y103082D01*
X-128580Y102961D01*
X-128655Y102843D01*
X-128734Y102728D01*
X-128815Y102614D01*
X-128900Y102503D01*
X-128988Y102394D01*
X-129078Y102288D01*
X-129172Y102184D01*
X-129269Y102083D01*
X-129369Y101985D01*
X-129471Y101890D01*
X-129576Y101798D01*
X-129683Y101708D01*
X-129793Y101622D01*
X-129906Y101539D01*
X-130020Y101459D01*
X-130137Y101382D01*
X-130256Y101309D01*
X-130377Y101239D01*
X-130500Y101173D01*
X-130625Y101110D01*
X-130752Y101050D01*
X-130880Y100995D01*
X-131009Y100943D01*
X-131141Y100894D01*
X-131273Y100849D01*
X-131407Y100808D01*
X-131541Y100771D01*
X-131677Y100738D01*
X-131814Y100709D01*
X-131951Y100683D01*
X-132089Y100661D01*
X-132228Y100644D01*
X-132367Y100630D01*
X-132507Y100620D01*
X-132646Y100614D01*
X-132786Y100612D01*
X-137725Y100612D01*
X-121730Y96661D02*
X-117779Y110490D01*
X-121730Y96661D02*
X-111852Y96661D01*
X-114816Y100612D02*
X-114816Y92710D01*
X-99483Y99624D02*
X-99483Y105551D01*
X-99483Y99624D02*
X-96025Y95179D01*
X-99483Y99624D02*
X-102940Y95179D01*
X-99483Y99624D02*
X-94050Y101600D01*
X-99483Y99624D02*
X-104915Y101600D01*
X-116124Y192723D02*
X-116124Y210503D01*
X-111185Y210503D01*
X-111045Y210501D01*
X-110906Y210495D01*
X-110766Y210485D01*
X-110627Y210471D01*
X-110488Y210454D01*
X-110350Y210432D01*
X-110213Y210406D01*
X-110076Y210377D01*
X-109940Y210344D01*
X-109806Y210307D01*
X-109672Y210266D01*
X-109540Y210221D01*
X-109408Y210172D01*
X-109279Y210120D01*
X-109151Y210065D01*
X-109024Y210005D01*
X-108899Y209942D01*
X-108776Y209876D01*
X-108655Y209806D01*
X-108536Y209733D01*
X-108419Y209656D01*
X-108305Y209576D01*
X-108192Y209493D01*
X-108082Y209407D01*
X-107975Y209317D01*
X-107870Y209225D01*
X-107768Y209130D01*
X-107668Y209032D01*
X-107571Y208931D01*
X-107477Y208827D01*
X-107387Y208721D01*
X-107299Y208612D01*
X-107214Y208501D01*
X-107133Y208387D01*
X-107054Y208272D01*
X-106979Y208154D01*
X-106908Y208034D01*
X-106840Y207911D01*
X-106775Y207788D01*
X-106714Y207662D01*
X-106656Y207534D01*
X-106602Y207406D01*
X-106552Y207275D01*
X-106505Y207143D01*
X-106462Y207010D01*
X-106423Y206876D01*
X-106388Y206741D01*
X-106357Y206605D01*
X-106329Y206467D01*
X-106306Y206330D01*
X-106286Y206191D01*
X-106270Y206052D01*
X-106258Y205913D01*
X-106250Y205774D01*
X-106246Y205634D01*
X-106246Y205494D01*
X-106250Y205354D01*
X-106258Y205215D01*
X-106270Y205076D01*
X-106286Y204937D01*
X-106306Y204798D01*
X-106329Y204661D01*
X-106357Y204523D01*
X-106388Y204387D01*
X-106423Y204252D01*
X-106462Y204118D01*
X-106505Y203985D01*
X-106552Y203853D01*
X-106602Y203722D01*
X-106656Y203594D01*
X-106714Y203466D01*
X-106775Y203340D01*
X-106840Y203217D01*
X-106908Y203095D01*
X-106979Y202974D01*
X-107054Y202856D01*
X-107133Y202741D01*
X-107214Y202627D01*
X-107299Y202516D01*
X-107387Y202407D01*
X-107477Y202301D01*
X-107571Y202197D01*
X-107668Y202096D01*
X-107768Y201998D01*
X-107870Y201903D01*
X-107975Y201811D01*
X-108082Y201721D01*
X-108192Y201635D01*
X-108305Y201552D01*
X-108419Y201472D01*
X-108536Y201395D01*
X-108655Y201322D01*
X-108776Y201252D01*
X-108899Y201186D01*
X-109024Y201123D01*
X-109151Y201063D01*
X-109279Y201008D01*
X-109408Y200956D01*
X-109540Y200907D01*
X-109672Y200862D01*
X-109806Y200821D01*
X-109940Y200784D01*
X-110076Y200751D01*
X-110213Y200722D01*
X-110350Y200696D01*
X-110488Y200674D01*
X-110627Y200657D01*
X-110766Y200643D01*
X-110906Y200633D01*
X-111045Y200627D01*
X-111185Y200625D01*
X-116124Y200625D01*
X-100129Y192723D02*
X-94202Y192723D01*
X-94078Y192725D01*
X-93954Y192731D01*
X-93830Y192741D01*
X-93707Y192754D01*
X-93584Y192772D01*
X-93462Y192793D01*
X-93340Y192818D01*
X-93219Y192847D01*
X-93100Y192880D01*
X-92981Y192916D01*
X-92864Y192957D01*
X-92748Y193000D01*
X-92633Y193048D01*
X-92520Y193099D01*
X-92408Y193154D01*
X-92299Y193212D01*
X-92191Y193273D01*
X-92085Y193338D01*
X-91981Y193406D01*
X-91880Y193478D01*
X-91780Y193552D01*
X-91684Y193630D01*
X-91589Y193710D01*
X-91497Y193794D01*
X-91408Y193880D01*
X-91322Y193969D01*
X-91238Y194061D01*
X-91158Y194156D01*
X-91080Y194252D01*
X-91006Y194352D01*
X-90934Y194453D01*
X-90866Y194557D01*
X-90801Y194663D01*
X-90740Y194771D01*
X-90682Y194880D01*
X-90627Y194992D01*
X-90576Y195105D01*
X-90528Y195220D01*
X-90485Y195336D01*
X-90444Y195453D01*
X-90408Y195572D01*
X-90375Y195691D01*
X-90346Y195812D01*
X-90321Y195934D01*
X-90300Y196056D01*
X-90282Y196179D01*
X-90269Y196302D01*
X-90259Y196426D01*
X-90253Y196550D01*
X-90251Y196674D01*
X-90251Y198649D01*
X-90253Y198773D01*
X-90259Y198897D01*
X-90269Y199021D01*
X-90282Y199144D01*
X-90300Y199267D01*
X-90321Y199389D01*
X-90346Y199511D01*
X-90375Y199632D01*
X-90408Y199751D01*
X-90444Y199870D01*
X-90485Y199987D01*
X-90528Y200103D01*
X-90576Y200218D01*
X-90627Y200331D01*
X-90682Y200443D01*
X-90740Y200552D01*
X-90801Y200660D01*
X-90866Y200766D01*
X-90934Y200870D01*
X-91006Y200971D01*
X-91080Y201071D01*
X-91158Y201167D01*
X-91238Y201262D01*
X-91322Y201354D01*
X-91408Y201443D01*
X-91497Y201529D01*
X-91589Y201613D01*
X-91684Y201693D01*
X-91780Y201771D01*
X-91880Y201845D01*
X-91981Y201917D01*
X-92085Y201985D01*
X-92191Y202050D01*
X-92299Y202111D01*
X-92408Y202169D01*
X-92520Y202224D01*
X-92633Y202275D01*
X-92748Y202323D01*
X-92864Y202366D01*
X-92981Y202407D01*
X-93100Y202443D01*
X-93219Y202476D01*
X-93340Y202505D01*
X-93462Y202530D01*
X-93584Y202551D01*
X-93707Y202569D01*
X-93830Y202582D01*
X-93954Y202592D01*
X-94078Y202598D01*
X-94202Y202600D01*
X-100129Y202600D01*
X-100129Y210503D01*
X-90251Y210503D01*
X-44499Y200787D02*
X-40548Y200787D01*
X-44499Y200787D02*
X-44623Y200789D01*
X-44747Y200795D01*
X-44871Y200805D01*
X-44994Y200818D01*
X-45117Y200836D01*
X-45239Y200857D01*
X-45361Y200882D01*
X-45482Y200911D01*
X-45601Y200944D01*
X-45720Y200980D01*
X-45837Y201021D01*
X-45953Y201064D01*
X-46068Y201112D01*
X-46181Y201163D01*
X-46293Y201218D01*
X-46402Y201276D01*
X-46510Y201337D01*
X-46616Y201402D01*
X-46720Y201470D01*
X-46821Y201542D01*
X-46921Y201616D01*
X-47017Y201694D01*
X-47112Y201774D01*
X-47204Y201858D01*
X-47293Y201944D01*
X-47379Y202033D01*
X-47463Y202125D01*
X-47543Y202220D01*
X-47621Y202316D01*
X-47695Y202416D01*
X-47767Y202517D01*
X-47835Y202621D01*
X-47900Y202727D01*
X-47961Y202835D01*
X-48019Y202944D01*
X-48074Y203056D01*
X-48125Y203169D01*
X-48173Y203284D01*
X-48216Y203400D01*
X-48257Y203517D01*
X-48293Y203636D01*
X-48326Y203755D01*
X-48355Y203876D01*
X-48380Y203998D01*
X-48401Y204120D01*
X-48419Y204243D01*
X-48432Y204366D01*
X-48442Y204490D01*
X-48448Y204614D01*
X-48450Y204738D01*
X-48451Y204738D02*
X-48451Y214616D01*
X-48450Y214616D02*
X-48448Y214740D01*
X-48442Y214864D01*
X-48432Y214988D01*
X-48419Y215111D01*
X-48401Y215234D01*
X-48380Y215356D01*
X-48355Y215478D01*
X-48326Y215599D01*
X-48293Y215718D01*
X-48257Y215837D01*
X-48216Y215954D01*
X-48173Y216070D01*
X-48125Y216185D01*
X-48074Y216298D01*
X-48019Y216410D01*
X-47961Y216519D01*
X-47900Y216627D01*
X-47835Y216733D01*
X-47767Y216837D01*
X-47695Y216938D01*
X-47621Y217038D01*
X-47543Y217134D01*
X-47463Y217229D01*
X-47379Y217321D01*
X-47293Y217410D01*
X-47204Y217496D01*
X-47112Y217580D01*
X-47017Y217660D01*
X-46921Y217738D01*
X-46821Y217812D01*
X-46720Y217884D01*
X-46616Y217952D01*
X-46510Y218017D01*
X-46402Y218078D01*
X-46293Y218136D01*
X-46181Y218191D01*
X-46068Y218242D01*
X-45954Y218290D01*
X-45837Y218333D01*
X-45720Y218374D01*
X-45601Y218410D01*
X-45482Y218443D01*
X-45361Y218472D01*
X-45239Y218497D01*
X-45117Y218518D01*
X-44994Y218536D01*
X-44871Y218549D01*
X-44747Y218559D01*
X-44623Y218565D01*
X-44499Y218567D01*
X-40548Y218567D01*
X-48451Y191580D02*
X-48451Y173800D01*
X-48451Y191580D02*
X-43512Y191580D01*
X-43373Y191578D01*
X-43235Y191572D01*
X-43097Y191563D01*
X-42959Y191549D01*
X-42822Y191532D01*
X-42685Y191510D01*
X-42548Y191485D01*
X-42413Y191456D01*
X-42278Y191423D01*
X-42145Y191387D01*
X-42012Y191347D01*
X-41881Y191303D01*
X-41751Y191255D01*
X-41622Y191204D01*
X-41495Y191149D01*
X-41369Y191091D01*
X-41245Y191029D01*
X-41123Y190964D01*
X-41003Y190895D01*
X-40884Y190823D01*
X-40768Y190748D01*
X-40654Y190669D01*
X-40542Y190587D01*
X-40433Y190502D01*
X-40325Y190415D01*
X-40221Y190324D01*
X-40119Y190230D01*
X-40020Y190133D01*
X-39923Y190034D01*
X-39829Y189932D01*
X-39738Y189828D01*
X-39651Y189720D01*
X-39566Y189611D01*
X-39484Y189499D01*
X-39405Y189385D01*
X-39330Y189269D01*
X-39258Y189150D01*
X-39189Y189030D01*
X-39124Y188908D01*
X-39062Y188784D01*
X-39004Y188658D01*
X-38949Y188531D01*
X-38898Y188402D01*
X-38850Y188272D01*
X-38806Y188141D01*
X-38766Y188008D01*
X-38730Y187875D01*
X-38697Y187740D01*
X-38668Y187605D01*
X-38643Y187468D01*
X-38621Y187331D01*
X-38604Y187194D01*
X-38590Y187056D01*
X-38581Y186918D01*
X-38575Y186780D01*
X-38573Y186641D01*
X-38573Y178738D01*
X-38575Y178599D01*
X-38581Y178461D01*
X-38590Y178323D01*
X-38604Y178185D01*
X-38621Y178048D01*
X-38643Y177911D01*
X-38668Y177774D01*
X-38697Y177639D01*
X-38730Y177504D01*
X-38766Y177371D01*
X-38806Y177238D01*
X-38850Y177107D01*
X-38898Y176977D01*
X-38949Y176848D01*
X-39004Y176721D01*
X-39062Y176595D01*
X-39124Y176471D01*
X-39189Y176349D01*
X-39258Y176229D01*
X-39330Y176110D01*
X-39405Y175994D01*
X-39484Y175880D01*
X-39566Y175768D01*
X-39651Y175659D01*
X-39738Y175551D01*
X-39829Y175447D01*
X-39923Y175345D01*
X-40020Y175246D01*
X-40119Y175149D01*
X-40221Y175055D01*
X-40325Y174964D01*
X-40433Y174877D01*
X-40542Y174792D01*
X-40654Y174710D01*
X-40768Y174631D01*
X-40884Y174556D01*
X-41003Y174484D01*
X-41123Y174415D01*
X-41245Y174350D01*
X-41369Y174288D01*
X-41495Y174230D01*
X-41622Y174175D01*
X-41751Y174124D01*
X-41881Y174076D01*
X-42012Y174032D01*
X-42145Y173992D01*
X-42278Y173956D01*
X-42413Y173923D01*
X-42548Y173894D01*
X-42685Y173869D01*
X-42822Y173847D01*
X-42959Y173830D01*
X-43097Y173816D01*
X-43235Y173807D01*
X-43373Y173801D01*
X-43512Y173799D01*
X-43512Y173800D02*
X-48451Y173800D01*
X-48451Y236065D02*
X-43512Y236065D01*
X-43372Y236063D01*
X-43233Y236057D01*
X-43093Y236047D01*
X-42954Y236033D01*
X-42815Y236016D01*
X-42677Y235994D01*
X-42540Y235968D01*
X-42403Y235939D01*
X-42267Y235906D01*
X-42133Y235869D01*
X-41999Y235828D01*
X-41867Y235783D01*
X-41735Y235734D01*
X-41606Y235682D01*
X-41478Y235627D01*
X-41351Y235567D01*
X-41226Y235504D01*
X-41103Y235438D01*
X-40982Y235368D01*
X-40863Y235295D01*
X-40746Y235218D01*
X-40632Y235138D01*
X-40519Y235055D01*
X-40409Y234969D01*
X-40302Y234879D01*
X-40197Y234787D01*
X-40095Y234692D01*
X-39995Y234594D01*
X-39898Y234493D01*
X-39804Y234389D01*
X-39714Y234283D01*
X-39626Y234174D01*
X-39541Y234063D01*
X-39460Y233949D01*
X-39381Y233834D01*
X-39306Y233716D01*
X-39235Y233596D01*
X-39167Y233473D01*
X-39102Y233350D01*
X-39041Y233224D01*
X-38983Y233096D01*
X-38929Y232968D01*
X-38879Y232837D01*
X-38832Y232705D01*
X-38789Y232572D01*
X-38750Y232438D01*
X-38715Y232303D01*
X-38684Y232167D01*
X-38656Y232029D01*
X-38633Y231892D01*
X-38613Y231753D01*
X-38597Y231614D01*
X-38585Y231475D01*
X-38577Y231336D01*
X-38573Y231196D01*
X-38573Y231056D01*
X-38577Y230916D01*
X-38585Y230777D01*
X-38597Y230638D01*
X-38613Y230499D01*
X-38633Y230360D01*
X-38656Y230223D01*
X-38684Y230085D01*
X-38715Y229949D01*
X-38750Y229814D01*
X-38789Y229680D01*
X-38832Y229547D01*
X-38879Y229415D01*
X-38929Y229284D01*
X-38983Y229156D01*
X-39041Y229028D01*
X-39102Y228902D01*
X-39167Y228779D01*
X-39235Y228657D01*
X-39306Y228536D01*
X-39381Y228418D01*
X-39460Y228303D01*
X-39541Y228189D01*
X-39626Y228078D01*
X-39714Y227969D01*
X-39804Y227863D01*
X-39898Y227759D01*
X-39995Y227658D01*
X-40095Y227560D01*
X-40197Y227465D01*
X-40302Y227373D01*
X-40409Y227283D01*
X-40519Y227197D01*
X-40632Y227114D01*
X-40746Y227034D01*
X-40863Y226957D01*
X-40982Y226884D01*
X-41103Y226814D01*
X-41226Y226748D01*
X-41351Y226685D01*
X-41478Y226625D01*
X-41606Y226570D01*
X-41735Y226518D01*
X-41867Y226469D01*
X-41999Y226424D01*
X-42133Y226383D01*
X-42267Y226346D01*
X-42403Y226313D01*
X-42540Y226284D01*
X-42677Y226258D01*
X-42815Y226236D01*
X-42954Y226219D01*
X-43093Y226205D01*
X-43233Y226195D01*
X-43372Y226189D01*
X-43512Y226187D01*
X-48451Y226187D01*
X-48451Y243967D01*
X-43512Y243967D01*
X-43388Y243965D01*
X-43264Y243959D01*
X-43140Y243949D01*
X-43017Y243936D01*
X-42894Y243918D01*
X-42772Y243897D01*
X-42650Y243872D01*
X-42529Y243843D01*
X-42410Y243810D01*
X-42291Y243774D01*
X-42174Y243733D01*
X-42058Y243690D01*
X-41943Y243642D01*
X-41830Y243591D01*
X-41718Y243536D01*
X-41609Y243478D01*
X-41501Y243417D01*
X-41395Y243352D01*
X-41291Y243284D01*
X-41190Y243212D01*
X-41090Y243138D01*
X-40994Y243060D01*
X-40899Y242980D01*
X-40807Y242896D01*
X-40718Y242810D01*
X-40632Y242721D01*
X-40548Y242629D01*
X-40468Y242534D01*
X-40390Y242438D01*
X-40316Y242338D01*
X-40244Y242237D01*
X-40176Y242133D01*
X-40111Y242027D01*
X-40050Y241919D01*
X-39992Y241810D01*
X-39937Y241698D01*
X-39886Y241585D01*
X-39838Y241470D01*
X-39795Y241354D01*
X-39754Y241237D01*
X-39718Y241118D01*
X-39685Y240999D01*
X-39656Y240878D01*
X-39631Y240756D01*
X-39610Y240634D01*
X-39592Y240511D01*
X-39579Y240388D01*
X-39569Y240264D01*
X-39563Y240140D01*
X-39561Y240016D01*
X-39563Y239892D01*
X-39569Y239768D01*
X-39579Y239644D01*
X-39592Y239521D01*
X-39610Y239398D01*
X-39631Y239276D01*
X-39656Y239154D01*
X-39685Y239033D01*
X-39718Y238914D01*
X-39754Y238795D01*
X-39795Y238678D01*
X-39838Y238562D01*
X-39886Y238447D01*
X-39937Y238334D01*
X-39992Y238222D01*
X-40050Y238113D01*
X-40111Y238005D01*
X-40176Y237899D01*
X-40244Y237795D01*
X-40316Y237694D01*
X-40390Y237594D01*
X-40468Y237498D01*
X-40548Y237403D01*
X-40632Y237311D01*
X-40718Y237222D01*
X-40807Y237136D01*
X-40899Y237052D01*
X-40994Y236972D01*
X-41090Y236894D01*
X-41190Y236820D01*
X-41291Y236748D01*
X-41395Y236680D01*
X-41501Y236615D01*
X-41609Y236554D01*
X-41718Y236496D01*
X-41830Y236441D01*
X-41943Y236390D01*
X-42058Y236342D01*
X-42174Y236299D01*
X-42291Y236258D01*
X-42410Y236222D01*
X-42529Y236189D01*
X-42650Y236160D01*
X-42772Y236135D01*
X-42894Y236114D01*
X-43017Y236096D01*
X-43140Y236083D01*
X-43264Y236073D01*
X-43388Y236067D01*
X-43512Y236065D01*
X67148Y145288D02*
X67148Y127508D01*
X67148Y145288D02*
X72087Y145288D01*
X72227Y145286D01*
X72366Y145280D01*
X72506Y145270D01*
X72645Y145256D01*
X72784Y145239D01*
X72922Y145217D01*
X73059Y145191D01*
X73196Y145162D01*
X73332Y145129D01*
X73466Y145092D01*
X73600Y145051D01*
X73732Y145006D01*
X73864Y144957D01*
X73993Y144905D01*
X74121Y144850D01*
X74248Y144790D01*
X74373Y144727D01*
X74496Y144661D01*
X74617Y144591D01*
X74736Y144518D01*
X74853Y144441D01*
X74967Y144361D01*
X75080Y144278D01*
X75190Y144192D01*
X75297Y144102D01*
X75402Y144010D01*
X75504Y143915D01*
X75604Y143817D01*
X75701Y143716D01*
X75795Y143612D01*
X75885Y143506D01*
X75973Y143397D01*
X76058Y143286D01*
X76139Y143172D01*
X76218Y143057D01*
X76293Y142939D01*
X76364Y142819D01*
X76432Y142696D01*
X76497Y142573D01*
X76558Y142447D01*
X76616Y142319D01*
X76670Y142191D01*
X76720Y142060D01*
X76767Y141928D01*
X76810Y141795D01*
X76849Y141661D01*
X76884Y141526D01*
X76915Y141390D01*
X76943Y141252D01*
X76966Y141115D01*
X76986Y140976D01*
X77002Y140837D01*
X77014Y140698D01*
X77022Y140559D01*
X77026Y140419D01*
X77026Y140279D01*
X77022Y140139D01*
X77014Y140000D01*
X77002Y139861D01*
X76986Y139722D01*
X76966Y139583D01*
X76943Y139446D01*
X76915Y139308D01*
X76884Y139172D01*
X76849Y139037D01*
X76810Y138903D01*
X76767Y138770D01*
X76720Y138638D01*
X76670Y138507D01*
X76616Y138379D01*
X76558Y138251D01*
X76497Y138125D01*
X76432Y138002D01*
X76364Y137880D01*
X76293Y137759D01*
X76218Y137641D01*
X76139Y137526D01*
X76058Y137412D01*
X75973Y137301D01*
X75885Y137192D01*
X75795Y137086D01*
X75701Y136982D01*
X75604Y136881D01*
X75504Y136783D01*
X75402Y136688D01*
X75297Y136596D01*
X75190Y136506D01*
X75080Y136420D01*
X74967Y136337D01*
X74853Y136257D01*
X74736Y136180D01*
X74617Y136107D01*
X74496Y136037D01*
X74373Y135971D01*
X74248Y135908D01*
X74121Y135848D01*
X73993Y135793D01*
X73864Y135741D01*
X73732Y135692D01*
X73600Y135647D01*
X73466Y135606D01*
X73332Y135569D01*
X73196Y135536D01*
X73059Y135507D01*
X72922Y135481D01*
X72784Y135459D01*
X72645Y135442D01*
X72506Y135428D01*
X72366Y135418D01*
X72227Y135412D01*
X72087Y135410D01*
X67148Y135410D01*
X73074Y135410D02*
X77026Y127508D01*
X-12936Y260985D02*
X-12936Y278765D01*
X-7998Y278765D01*
X-7858Y278763D01*
X-7719Y278757D01*
X-7579Y278747D01*
X-7440Y278733D01*
X-7301Y278716D01*
X-7163Y278694D01*
X-7026Y278668D01*
X-6889Y278639D01*
X-6753Y278606D01*
X-6619Y278569D01*
X-6485Y278528D01*
X-6353Y278483D01*
X-6221Y278434D01*
X-6092Y278382D01*
X-5964Y278327D01*
X-5837Y278267D01*
X-5712Y278204D01*
X-5589Y278138D01*
X-5468Y278068D01*
X-5349Y277995D01*
X-5232Y277918D01*
X-5118Y277838D01*
X-5005Y277755D01*
X-4895Y277669D01*
X-4788Y277579D01*
X-4683Y277487D01*
X-4581Y277392D01*
X-4481Y277294D01*
X-4384Y277193D01*
X-4290Y277089D01*
X-4200Y276983D01*
X-4112Y276874D01*
X-4027Y276763D01*
X-3946Y276649D01*
X-3867Y276534D01*
X-3792Y276416D01*
X-3721Y276296D01*
X-3653Y276173D01*
X-3588Y276050D01*
X-3527Y275924D01*
X-3469Y275796D01*
X-3415Y275668D01*
X-3365Y275537D01*
X-3318Y275405D01*
X-3275Y275272D01*
X-3236Y275138D01*
X-3201Y275003D01*
X-3170Y274867D01*
X-3142Y274729D01*
X-3119Y274592D01*
X-3099Y274453D01*
X-3083Y274314D01*
X-3071Y274175D01*
X-3063Y274036D01*
X-3059Y273896D01*
X-3059Y273756D01*
X-3063Y273616D01*
X-3071Y273477D01*
X-3083Y273338D01*
X-3099Y273199D01*
X-3119Y273060D01*
X-3142Y272923D01*
X-3170Y272785D01*
X-3201Y272649D01*
X-3236Y272514D01*
X-3275Y272380D01*
X-3318Y272247D01*
X-3365Y272115D01*
X-3415Y271984D01*
X-3469Y271856D01*
X-3527Y271728D01*
X-3588Y271602D01*
X-3653Y271479D01*
X-3721Y271357D01*
X-3792Y271236D01*
X-3867Y271118D01*
X-3946Y271003D01*
X-4027Y270889D01*
X-4112Y270778D01*
X-4200Y270669D01*
X-4290Y270563D01*
X-4384Y270459D01*
X-4481Y270358D01*
X-4581Y270260D01*
X-4683Y270165D01*
X-4788Y270073D01*
X-4895Y269983D01*
X-5005Y269897D01*
X-5118Y269814D01*
X-5232Y269734D01*
X-5349Y269657D01*
X-5468Y269584D01*
X-5589Y269514D01*
X-5712Y269448D01*
X-5837Y269385D01*
X-5964Y269325D01*
X-6092Y269270D01*
X-6221Y269218D01*
X-6353Y269169D01*
X-6485Y269124D01*
X-6619Y269083D01*
X-6753Y269046D01*
X-6889Y269013D01*
X-7026Y268984D01*
X-7163Y268958D01*
X-7301Y268936D01*
X-7440Y268919D01*
X-7579Y268905D01*
X-7719Y268895D01*
X-7858Y268889D01*
X-7998Y268887D01*
X-12936Y268887D01*
X3059Y270863D02*
X8985Y270863D01*
X9109Y270861D01*
X9233Y270855D01*
X9357Y270845D01*
X9480Y270832D01*
X9603Y270814D01*
X9725Y270793D01*
X9847Y270768D01*
X9968Y270739D01*
X10087Y270706D01*
X10206Y270670D01*
X10323Y270629D01*
X10439Y270586D01*
X10554Y270538D01*
X10667Y270487D01*
X10779Y270432D01*
X10888Y270374D01*
X10996Y270313D01*
X11102Y270248D01*
X11206Y270180D01*
X11307Y270108D01*
X11407Y270034D01*
X11503Y269956D01*
X11598Y269876D01*
X11690Y269792D01*
X11779Y269706D01*
X11865Y269617D01*
X11949Y269525D01*
X12029Y269430D01*
X12107Y269334D01*
X12181Y269234D01*
X12253Y269133D01*
X12321Y269029D01*
X12386Y268923D01*
X12447Y268815D01*
X12505Y268706D01*
X12560Y268594D01*
X12611Y268481D01*
X12659Y268366D01*
X12702Y268250D01*
X12743Y268133D01*
X12779Y268014D01*
X12812Y267895D01*
X12841Y267774D01*
X12866Y267652D01*
X12887Y267530D01*
X12905Y267407D01*
X12918Y267284D01*
X12928Y267160D01*
X12934Y267036D01*
X12936Y266912D01*
X12936Y265924D01*
X12937Y265924D02*
X12935Y265784D01*
X12929Y265645D01*
X12919Y265505D01*
X12905Y265366D01*
X12888Y265227D01*
X12866Y265089D01*
X12840Y264952D01*
X12811Y264815D01*
X12778Y264679D01*
X12741Y264545D01*
X12700Y264411D01*
X12655Y264279D01*
X12606Y264147D01*
X12554Y264018D01*
X12499Y263890D01*
X12439Y263763D01*
X12376Y263638D01*
X12310Y263515D01*
X12240Y263394D01*
X12167Y263275D01*
X12090Y263158D01*
X12010Y263044D01*
X11927Y262931D01*
X11841Y262821D01*
X11751Y262714D01*
X11659Y262609D01*
X11564Y262507D01*
X11466Y262407D01*
X11365Y262310D01*
X11261Y262216D01*
X11155Y262126D01*
X11046Y262038D01*
X10935Y261953D01*
X10821Y261872D01*
X10706Y261793D01*
X10588Y261718D01*
X10468Y261647D01*
X10345Y261579D01*
X10222Y261514D01*
X10096Y261453D01*
X9968Y261395D01*
X9840Y261341D01*
X9709Y261291D01*
X9577Y261244D01*
X9444Y261201D01*
X9310Y261162D01*
X9175Y261127D01*
X9039Y261096D01*
X8901Y261068D01*
X8764Y261045D01*
X8625Y261025D01*
X8486Y261009D01*
X8347Y260997D01*
X8208Y260989D01*
X8068Y260985D01*
X7928Y260985D01*
X7788Y260989D01*
X7649Y260997D01*
X7510Y261009D01*
X7371Y261025D01*
X7232Y261045D01*
X7095Y261068D01*
X6957Y261096D01*
X6821Y261127D01*
X6686Y261162D01*
X6552Y261201D01*
X6419Y261244D01*
X6287Y261291D01*
X6156Y261341D01*
X6028Y261395D01*
X5900Y261453D01*
X5774Y261514D01*
X5651Y261579D01*
X5529Y261647D01*
X5408Y261718D01*
X5290Y261793D01*
X5175Y261872D01*
X5061Y261953D01*
X4950Y262038D01*
X4841Y262126D01*
X4735Y262216D01*
X4631Y262310D01*
X4530Y262407D01*
X4432Y262507D01*
X4337Y262609D01*
X4245Y262714D01*
X4155Y262821D01*
X4069Y262931D01*
X3986Y263044D01*
X3906Y263158D01*
X3829Y263275D01*
X3756Y263394D01*
X3686Y263515D01*
X3620Y263638D01*
X3557Y263763D01*
X3497Y263890D01*
X3442Y264018D01*
X3390Y264147D01*
X3341Y264279D01*
X3296Y264411D01*
X3255Y264545D01*
X3218Y264679D01*
X3185Y264815D01*
X3156Y264952D01*
X3130Y265089D01*
X3108Y265227D01*
X3091Y265366D01*
X3077Y265505D01*
X3067Y265645D01*
X3061Y265784D01*
X3059Y265924D01*
X3059Y270863D01*
X3061Y271057D01*
X3069Y271251D01*
X3080Y271444D01*
X3097Y271638D01*
X3118Y271830D01*
X3145Y272022D01*
X3175Y272214D01*
X3211Y272405D01*
X3251Y272594D01*
X3296Y272783D01*
X3345Y272971D01*
X3399Y273157D01*
X3458Y273342D01*
X3521Y273525D01*
X3588Y273707D01*
X3661Y273887D01*
X3737Y274065D01*
X3818Y274242D01*
X3903Y274416D01*
X3992Y274588D01*
X4086Y274758D01*
X4183Y274925D01*
X4285Y275091D01*
X4391Y275253D01*
X4500Y275413D01*
X4614Y275570D01*
X4731Y275725D01*
X4853Y275876D01*
X4978Y276024D01*
X5106Y276170D01*
X5238Y276312D01*
X5373Y276451D01*
X5512Y276586D01*
X5654Y276718D01*
X5800Y276846D01*
X5948Y276971D01*
X6099Y277093D01*
X6254Y277210D01*
X6411Y277324D01*
X6571Y277433D01*
X6733Y277539D01*
X6899Y277641D01*
X7066Y277738D01*
X7236Y277832D01*
X7408Y277921D01*
X7582Y278006D01*
X7759Y278087D01*
X7937Y278163D01*
X8117Y278236D01*
X8299Y278303D01*
X8482Y278366D01*
X8667Y278425D01*
X8853Y278479D01*
X9041Y278528D01*
X9230Y278573D01*
X9419Y278613D01*
X9610Y278649D01*
X9802Y278679D01*
X9994Y278706D01*
X10186Y278727D01*
X10380Y278744D01*
X10573Y278755D01*
X10767Y278763D01*
X10961Y278765D01*
D10*
X-75862Y266471D02*
X-78521Y264609D01*
X-75862Y266471D02*
X-75771Y266538D01*
X-75681Y266607D01*
X-75594Y266680D01*
X-75510Y266756D01*
X-75429Y266835D01*
X-75350Y266916D01*
X-75274Y267000D01*
X-75201Y267087D01*
X-75132Y267176D01*
X-75065Y267268D01*
X-75002Y267362D01*
X-74942Y267458D01*
X-74885Y267556D01*
X-74832Y267656D01*
X-74782Y267758D01*
X-74736Y267862D01*
X-74694Y267967D01*
X-74655Y268073D01*
X-74620Y268181D01*
X-74589Y268290D01*
X-74561Y268400D01*
X-74538Y268511D01*
X-74518Y268622D01*
X-74502Y268734D01*
X-74490Y268847D01*
X-74482Y268960D01*
X-74478Y269073D01*
X-74478Y269187D01*
X-74482Y269300D01*
X-74490Y269413D01*
X-74502Y269526D01*
X-74518Y269638D01*
X-74538Y269749D01*
X-74561Y269860D01*
X-74589Y269970D01*
X-74620Y270079D01*
X-74655Y270187D01*
X-74694Y270293D01*
X-74736Y270398D01*
X-74782Y270502D01*
X-74832Y270604D01*
X-74885Y270704D01*
X-74942Y270802D01*
X-75002Y270898D01*
X-75065Y270992D01*
X-75132Y271083D01*
X-75201Y271173D01*
X-75274Y271260D01*
X-75350Y271344D01*
X-75429Y271425D01*
X-75510Y271504D01*
X-75594Y271580D01*
X-75681Y271653D01*
X-75771Y271722D01*
X-75862Y271789D01*
X-75956Y271852D01*
X-76052Y271912D01*
X-76150Y271969D01*
X-76250Y272022D01*
X-76352Y272072D01*
X-76456Y272118D01*
X-76561Y272160D01*
X-76667Y272199D01*
X-76775Y272234D01*
X-76884Y272265D01*
X-76994Y272293D01*
X-77105Y272316D01*
X-77216Y272336D01*
X-77328Y272352D01*
X-77441Y272364D01*
X-77554Y272372D01*
X-77667Y272376D01*
X-77781Y272376D01*
X-77894Y272372D01*
X-78007Y272364D01*
X-78120Y272352D01*
X-78232Y272336D01*
X-78343Y272316D01*
X-78454Y272293D01*
X-78564Y272265D01*
X-78673Y272234D01*
X-78781Y272199D01*
X-78887Y272160D01*
X-78992Y272118D01*
X-79096Y272072D01*
X-79198Y272022D01*
X-79298Y271969D01*
X-79396Y271912D01*
X-79492Y271852D01*
X-79586Y271789D01*
X-82032Y276414D02*
X-85222Y274180D01*
X-82032Y276414D02*
X-81948Y276470D01*
X-81863Y276523D01*
X-81775Y276572D01*
X-81686Y276618D01*
X-81594Y276661D01*
X-81501Y276700D01*
X-81407Y276735D01*
X-81312Y276767D01*
X-81215Y276795D01*
X-81117Y276819D01*
X-81019Y276839D01*
X-80919Y276856D01*
X-80819Y276868D01*
X-80719Y276877D01*
X-80619Y276882D01*
X-80518Y276883D01*
X-80417Y276880D01*
X-80317Y276873D01*
X-80217Y276862D01*
X-80117Y276848D01*
X-80018Y276829D01*
X-79920Y276807D01*
X-79823Y276781D01*
X-79726Y276751D01*
X-79632Y276718D01*
X-79538Y276681D01*
X-79446Y276640D01*
X-79355Y276595D01*
X-79267Y276548D01*
X-79180Y276496D01*
X-79096Y276442D01*
X-79013Y276384D01*
X-78933Y276323D01*
X-78855Y276259D01*
X-78780Y276192D01*
X-78707Y276123D01*
X-78638Y276050D01*
X-78571Y275975D01*
X-78507Y275897D01*
X-78446Y275817D01*
X-78388Y275734D01*
X-78334Y275650D01*
X-78282Y275563D01*
X-78235Y275475D01*
X-78190Y275384D01*
X-78149Y275292D01*
X-78112Y275198D01*
X-78079Y275104D01*
X-78049Y275007D01*
X-78023Y274910D01*
X-78001Y274812D01*
X-77982Y274713D01*
X-77968Y274613D01*
X-77957Y274513D01*
X-77950Y274413D01*
X-77947Y274312D01*
X-77948Y274211D01*
X-77953Y274111D01*
X-77962Y274011D01*
X-77974Y273911D01*
X-77991Y273811D01*
X-78011Y273713D01*
X-78035Y273615D01*
X-78063Y273518D01*
X-78095Y273423D01*
X-78130Y273329D01*
X-78169Y273236D01*
X-78212Y273144D01*
X-78258Y273055D01*
X-78307Y272967D01*
X-78360Y272882D01*
X-78416Y272798D01*
X-78476Y272717D01*
X-78538Y272638D01*
X-78604Y272561D01*
X-78672Y272487D01*
X-78743Y272416D01*
X-78817Y272348D01*
X-78894Y272282D01*
X-78973Y272220D01*
X-79054Y272160D01*
X-79053Y272161D02*
X-81180Y270671D01*
X-76391Y280364D02*
X-66499Y273027D01*
X-70010Y284832D01*
X-59795Y277721D02*
X-57136Y279583D01*
X-57136Y279582D02*
X-57045Y279649D01*
X-56955Y279718D01*
X-56868Y279791D01*
X-56784Y279867D01*
X-56703Y279946D01*
X-56624Y280027D01*
X-56548Y280111D01*
X-56475Y280198D01*
X-56406Y280287D01*
X-56339Y280379D01*
X-56276Y280473D01*
X-56216Y280569D01*
X-56159Y280667D01*
X-56106Y280767D01*
X-56056Y280869D01*
X-56010Y280973D01*
X-55968Y281078D01*
X-55929Y281184D01*
X-55894Y281292D01*
X-55863Y281401D01*
X-55835Y281511D01*
X-55812Y281622D01*
X-55792Y281733D01*
X-55776Y281845D01*
X-55764Y281958D01*
X-55756Y282071D01*
X-55752Y282184D01*
X-55752Y282298D01*
X-55756Y282411D01*
X-55764Y282524D01*
X-55776Y282637D01*
X-55792Y282749D01*
X-55812Y282860D01*
X-55835Y282971D01*
X-55863Y283081D01*
X-55894Y283190D01*
X-55929Y283298D01*
X-55968Y283404D01*
X-56010Y283509D01*
X-56056Y283613D01*
X-56106Y283715D01*
X-56159Y283815D01*
X-56216Y283913D01*
X-56276Y284009D01*
X-56339Y284103D01*
X-56406Y284194D01*
X-56475Y284284D01*
X-56548Y284371D01*
X-56624Y284455D01*
X-56703Y284536D01*
X-56784Y284615D01*
X-56868Y284691D01*
X-56955Y284764D01*
X-57045Y284833D01*
X-57136Y284900D01*
X-57230Y284963D01*
X-57326Y285023D01*
X-57424Y285080D01*
X-57524Y285133D01*
X-57626Y285183D01*
X-57730Y285229D01*
X-57835Y285271D01*
X-57941Y285310D01*
X-58049Y285345D01*
X-58158Y285376D01*
X-58268Y285404D01*
X-58379Y285427D01*
X-58490Y285447D01*
X-58602Y285463D01*
X-58715Y285475D01*
X-58828Y285483D01*
X-58941Y285487D01*
X-59055Y285487D01*
X-59168Y285483D01*
X-59281Y285475D01*
X-59394Y285463D01*
X-59506Y285447D01*
X-59617Y285427D01*
X-59728Y285404D01*
X-59838Y285376D01*
X-59947Y285345D01*
X-60055Y285310D01*
X-60161Y285271D01*
X-60266Y285229D01*
X-60370Y285183D01*
X-60472Y285133D01*
X-60572Y285080D01*
X-60670Y285023D01*
X-60766Y284963D01*
X-60860Y284900D01*
X-63306Y289526D02*
X-66496Y287292D01*
X-63306Y289526D02*
X-63222Y289582D01*
X-63137Y289635D01*
X-63049Y289684D01*
X-62960Y289730D01*
X-62868Y289773D01*
X-62775Y289812D01*
X-62681Y289847D01*
X-62586Y289879D01*
X-62489Y289907D01*
X-62391Y289931D01*
X-62293Y289951D01*
X-62193Y289968D01*
X-62093Y289980D01*
X-61993Y289989D01*
X-61893Y289994D01*
X-61792Y289995D01*
X-61691Y289992D01*
X-61591Y289985D01*
X-61491Y289974D01*
X-61391Y289960D01*
X-61292Y289941D01*
X-61194Y289919D01*
X-61097Y289893D01*
X-61000Y289863D01*
X-60906Y289830D01*
X-60812Y289793D01*
X-60720Y289752D01*
X-60629Y289707D01*
X-60541Y289660D01*
X-60454Y289608D01*
X-60370Y289554D01*
X-60287Y289496D01*
X-60207Y289435D01*
X-60129Y289371D01*
X-60054Y289304D01*
X-59981Y289235D01*
X-59912Y289162D01*
X-59845Y289087D01*
X-59781Y289009D01*
X-59720Y288929D01*
X-59662Y288846D01*
X-59608Y288762D01*
X-59556Y288675D01*
X-59509Y288587D01*
X-59464Y288496D01*
X-59423Y288404D01*
X-59386Y288310D01*
X-59353Y288216D01*
X-59323Y288119D01*
X-59297Y288022D01*
X-59275Y287924D01*
X-59256Y287825D01*
X-59242Y287725D01*
X-59231Y287625D01*
X-59224Y287525D01*
X-59221Y287424D01*
X-59222Y287323D01*
X-59227Y287223D01*
X-59236Y287123D01*
X-59248Y287023D01*
X-59265Y286923D01*
X-59285Y286825D01*
X-59309Y286727D01*
X-59337Y286630D01*
X-59369Y286535D01*
X-59404Y286441D01*
X-59443Y286348D01*
X-59486Y286256D01*
X-59532Y286167D01*
X-59581Y286079D01*
X-59634Y285994D01*
X-59690Y285910D01*
X-59750Y285829D01*
X-59812Y285750D01*
X-59878Y285673D01*
X-59946Y285599D01*
X-60017Y285528D01*
X-60091Y285460D01*
X-60168Y285394D01*
X-60247Y285332D01*
X-60328Y285272D01*
X-62454Y283783D01*
X54478Y281445D02*
X57136Y279583D01*
X57230Y279520D01*
X57326Y279460D01*
X57424Y279403D01*
X57524Y279350D01*
X57626Y279300D01*
X57730Y279254D01*
X57835Y279212D01*
X57941Y279173D01*
X58049Y279138D01*
X58158Y279107D01*
X58268Y279079D01*
X58379Y279056D01*
X58490Y279036D01*
X58602Y279020D01*
X58715Y279008D01*
X58828Y279000D01*
X58941Y278996D01*
X59055Y278996D01*
X59168Y279000D01*
X59281Y279008D01*
X59394Y279020D01*
X59506Y279036D01*
X59617Y279056D01*
X59728Y279079D01*
X59838Y279107D01*
X59947Y279138D01*
X60055Y279173D01*
X60161Y279212D01*
X60266Y279254D01*
X60370Y279300D01*
X60472Y279350D01*
X60572Y279403D01*
X60670Y279460D01*
X60766Y279520D01*
X60860Y279583D01*
X60951Y279650D01*
X61041Y279719D01*
X61128Y279792D01*
X61212Y279868D01*
X61293Y279947D01*
X61372Y280028D01*
X61448Y280112D01*
X61521Y280199D01*
X61590Y280289D01*
X61657Y280380D01*
X61720Y280474D01*
X61780Y280570D01*
X61837Y280668D01*
X61890Y280768D01*
X61940Y280870D01*
X61986Y280974D01*
X62028Y281079D01*
X62067Y281185D01*
X62102Y281293D01*
X62133Y281402D01*
X62161Y281512D01*
X62184Y281623D01*
X62204Y281734D01*
X62220Y281846D01*
X62232Y281959D01*
X62240Y282072D01*
X62244Y282185D01*
X62244Y282299D01*
X62240Y282412D01*
X62232Y282525D01*
X62220Y282638D01*
X62204Y282750D01*
X62184Y282861D01*
X62161Y282972D01*
X62133Y283082D01*
X62102Y283191D01*
X62067Y283299D01*
X62028Y283405D01*
X61986Y283510D01*
X61940Y283614D01*
X61890Y283716D01*
X61837Y283816D01*
X61780Y283914D01*
X61720Y284010D01*
X61657Y284104D01*
X61590Y284195D01*
X61521Y284285D01*
X61448Y284372D01*
X61372Y284456D01*
X61293Y284537D01*
X61212Y284616D01*
X61128Y284692D01*
X61041Y284765D01*
X60952Y284834D01*
X60860Y284901D01*
X64370Y288782D02*
X61179Y291015D01*
X64369Y288782D02*
X64450Y288722D01*
X64529Y288660D01*
X64606Y288594D01*
X64680Y288526D01*
X64751Y288455D01*
X64819Y288381D01*
X64885Y288304D01*
X64947Y288225D01*
X65007Y288144D01*
X65063Y288060D01*
X65116Y287975D01*
X65165Y287887D01*
X65211Y287798D01*
X65254Y287706D01*
X65293Y287613D01*
X65328Y287519D01*
X65360Y287424D01*
X65388Y287327D01*
X65412Y287229D01*
X65432Y287131D01*
X65449Y287031D01*
X65461Y286931D01*
X65470Y286831D01*
X65475Y286731D01*
X65476Y286630D01*
X65473Y286529D01*
X65466Y286429D01*
X65455Y286329D01*
X65441Y286229D01*
X65422Y286130D01*
X65400Y286032D01*
X65374Y285935D01*
X65344Y285838D01*
X65311Y285744D01*
X65274Y285650D01*
X65233Y285558D01*
X65188Y285467D01*
X65141Y285379D01*
X65089Y285292D01*
X65035Y285208D01*
X64977Y285125D01*
X64916Y285045D01*
X64852Y284967D01*
X64785Y284892D01*
X64716Y284819D01*
X64643Y284750D01*
X64568Y284683D01*
X64490Y284619D01*
X64410Y284558D01*
X64327Y284500D01*
X64243Y284446D01*
X64156Y284394D01*
X64068Y284347D01*
X63977Y284302D01*
X63885Y284261D01*
X63791Y284224D01*
X63697Y284191D01*
X63600Y284161D01*
X63503Y284135D01*
X63405Y284113D01*
X63306Y284094D01*
X63206Y284080D01*
X63106Y284069D01*
X63006Y284062D01*
X62905Y284059D01*
X62804Y284060D01*
X62704Y284065D01*
X62604Y284074D01*
X62504Y284086D01*
X62404Y284103D01*
X62306Y284123D01*
X62208Y284147D01*
X62111Y284175D01*
X62016Y284207D01*
X61922Y284242D01*
X61829Y284281D01*
X61737Y284324D01*
X61648Y284370D01*
X61560Y284419D01*
X61475Y284472D01*
X61391Y284528D01*
X59264Y286017D01*
X70010Y284832D02*
X66499Y273027D01*
X76391Y280364D01*
X73203Y268333D02*
X75862Y266471D01*
X75956Y266408D01*
X76052Y266348D01*
X76150Y266291D01*
X76250Y266238D01*
X76352Y266188D01*
X76456Y266142D01*
X76561Y266100D01*
X76667Y266061D01*
X76775Y266026D01*
X76884Y265995D01*
X76994Y265967D01*
X77105Y265944D01*
X77216Y265924D01*
X77328Y265908D01*
X77441Y265896D01*
X77554Y265888D01*
X77667Y265884D01*
X77781Y265884D01*
X77894Y265888D01*
X78007Y265896D01*
X78120Y265908D01*
X78232Y265924D01*
X78343Y265944D01*
X78454Y265967D01*
X78564Y265995D01*
X78673Y266026D01*
X78781Y266061D01*
X78887Y266100D01*
X78992Y266142D01*
X79096Y266188D01*
X79198Y266238D01*
X79298Y266291D01*
X79396Y266348D01*
X79492Y266408D01*
X79586Y266471D01*
X79677Y266538D01*
X79767Y266607D01*
X79854Y266680D01*
X79938Y266756D01*
X80019Y266835D01*
X80098Y266916D01*
X80174Y267000D01*
X80247Y267087D01*
X80316Y267177D01*
X80383Y267268D01*
X80446Y267362D01*
X80506Y267458D01*
X80563Y267556D01*
X80616Y267656D01*
X80666Y267758D01*
X80712Y267862D01*
X80754Y267967D01*
X80793Y268073D01*
X80828Y268181D01*
X80859Y268290D01*
X80887Y268400D01*
X80910Y268511D01*
X80930Y268622D01*
X80946Y268734D01*
X80958Y268847D01*
X80966Y268960D01*
X80970Y269073D01*
X80970Y269187D01*
X80966Y269300D01*
X80958Y269413D01*
X80946Y269526D01*
X80930Y269638D01*
X80910Y269749D01*
X80887Y269860D01*
X80859Y269970D01*
X80828Y270079D01*
X80793Y270187D01*
X80754Y270293D01*
X80712Y270398D01*
X80666Y270502D01*
X80616Y270604D01*
X80563Y270704D01*
X80506Y270802D01*
X80446Y270898D01*
X80383Y270992D01*
X80316Y271083D01*
X80247Y271173D01*
X80174Y271260D01*
X80098Y271344D01*
X80019Y271425D01*
X79938Y271504D01*
X79854Y271580D01*
X79767Y271653D01*
X79678Y271722D01*
X79586Y271789D01*
X83095Y275670D02*
X79905Y277903D01*
X83095Y275670D02*
X83176Y275610D01*
X83255Y275548D01*
X83332Y275482D01*
X83406Y275414D01*
X83477Y275343D01*
X83545Y275269D01*
X83611Y275192D01*
X83673Y275113D01*
X83733Y275032D01*
X83789Y274948D01*
X83842Y274863D01*
X83891Y274775D01*
X83937Y274686D01*
X83980Y274594D01*
X84019Y274501D01*
X84054Y274407D01*
X84086Y274312D01*
X84114Y274215D01*
X84138Y274117D01*
X84158Y274019D01*
X84175Y273919D01*
X84187Y273819D01*
X84196Y273719D01*
X84201Y273619D01*
X84202Y273518D01*
X84199Y273417D01*
X84192Y273317D01*
X84181Y273217D01*
X84167Y273117D01*
X84148Y273018D01*
X84126Y272920D01*
X84100Y272823D01*
X84070Y272726D01*
X84037Y272632D01*
X84000Y272538D01*
X83959Y272446D01*
X83914Y272355D01*
X83867Y272267D01*
X83815Y272180D01*
X83761Y272096D01*
X83703Y272013D01*
X83642Y271933D01*
X83578Y271855D01*
X83511Y271780D01*
X83442Y271707D01*
X83369Y271638D01*
X83294Y271571D01*
X83216Y271507D01*
X83136Y271446D01*
X83053Y271388D01*
X82969Y271334D01*
X82882Y271282D01*
X82794Y271235D01*
X82703Y271190D01*
X82611Y271149D01*
X82517Y271112D01*
X82423Y271079D01*
X82326Y271049D01*
X82229Y271023D01*
X82131Y271001D01*
X82032Y270982D01*
X81932Y270968D01*
X81832Y270957D01*
X81732Y270950D01*
X81631Y270947D01*
X81530Y270948D01*
X81430Y270953D01*
X81330Y270962D01*
X81230Y270974D01*
X81130Y270991D01*
X81032Y271011D01*
X80934Y271035D01*
X80837Y271063D01*
X80742Y271095D01*
X80648Y271130D01*
X80555Y271169D01*
X80463Y271212D01*
X80374Y271258D01*
X80286Y271307D01*
X80201Y271360D01*
X80117Y271416D01*
X77990Y272905D01*
D12*
X-64351Y112039D02*
X-64351Y93599D01*
X-64351Y112039D02*
X-45187Y112039D01*
X-64224Y111912D02*
X-75502Y123139D01*
X-75971Y123139D02*
X-74486Y117043D01*
X-75730Y123622D02*
X-68948Y122771D01*
X-67869Y98577D02*
X-64834Y93243D01*
X-64465Y92875D02*
X-60833Y98336D01*
X-49187Y108636D02*
X-45072Y112039D01*
X-45187Y112522D02*
X-49073Y115672D01*
D10*
X-41770Y108979D02*
X-35900Y117784D01*
X-41770Y117784D02*
X-35900Y108979D01*
X-56800Y91431D02*
X-58268Y91431D01*
X-56800Y91431D02*
X-52397Y104639D01*
X-58268Y104639D02*
X-55333Y95834D01*
X-60081Y129265D02*
X-65951Y129265D01*
X-60081Y129265D02*
X-65951Y120459D01*
X-60081Y120459D01*
D12*
X33807Y167869D02*
X33807Y190805D01*
X33807Y167869D02*
X53594Y167881D01*
X33934Y167996D02*
X20993Y156172D01*
X20523Y156172D02*
X22212Y163081D01*
X20764Y155689D02*
X27546Y156540D01*
X30289Y185826D02*
X33325Y191160D01*
X33693Y191529D02*
X37325Y186068D01*
X49593Y171285D02*
X53708Y167881D01*
X53594Y167399D02*
X49708Y164249D01*
D10*
X56782Y163474D02*
X62652Y172280D01*
X56782Y172280D02*
X62652Y163474D01*
X41841Y181767D02*
X40373Y181767D01*
X41841Y181767D02*
X46244Y194975D01*
X40373Y194975D02*
X43308Y186169D01*
X23142Y175417D02*
X17272Y175417D01*
X23142Y175417D02*
X17272Y166611D01*
X23142Y166611D01*
D13*
X-99338Y118388D02*
X-99338Y115888D01*
X-99338Y113388D01*
X-99338Y115888D02*
X-94338Y118388D01*
X-94338Y113388D02*
X-99338Y115888D01*
X-94338Y113388D02*
X-94338Y118388D01*
X-84338Y120888D02*
X-84338Y110888D01*
X-109338Y110888D01*
X-109338Y120888D01*
X-84338Y120888D01*
D14*
X-103757Y123649D02*
X-103757Y133047D01*
X-101146Y133047D01*
X-101046Y133045D01*
X-100946Y133039D01*
X-100847Y133030D01*
X-100747Y133016D01*
X-100649Y132999D01*
X-100551Y132978D01*
X-100454Y132954D01*
X-100358Y132925D01*
X-100263Y132893D01*
X-100170Y132858D01*
X-100078Y132819D01*
X-99987Y132776D01*
X-99899Y132730D01*
X-99812Y132680D01*
X-99727Y132628D01*
X-99644Y132572D01*
X-99563Y132513D01*
X-99485Y132450D01*
X-99409Y132385D01*
X-99335Y132317D01*
X-99265Y132247D01*
X-99197Y132173D01*
X-99132Y132097D01*
X-99069Y132019D01*
X-99010Y131938D01*
X-98954Y131855D01*
X-98902Y131770D01*
X-98852Y131683D01*
X-98806Y131595D01*
X-98763Y131504D01*
X-98724Y131412D01*
X-98689Y131319D01*
X-98657Y131224D01*
X-98628Y131128D01*
X-98604Y131031D01*
X-98583Y130933D01*
X-98566Y130835D01*
X-98552Y130735D01*
X-98543Y130636D01*
X-98537Y130536D01*
X-98535Y130436D01*
X-98535Y126259D01*
X-98537Y126159D01*
X-98543Y126059D01*
X-98552Y125960D01*
X-98566Y125860D01*
X-98583Y125762D01*
X-98604Y125664D01*
X-98628Y125567D01*
X-98657Y125471D01*
X-98689Y125376D01*
X-98724Y125283D01*
X-98763Y125191D01*
X-98806Y125100D01*
X-98852Y125012D01*
X-98902Y124925D01*
X-98954Y124840D01*
X-99010Y124757D01*
X-99069Y124676D01*
X-99132Y124598D01*
X-99197Y124522D01*
X-99265Y124448D01*
X-99335Y124378D01*
X-99409Y124310D01*
X-99485Y124245D01*
X-99563Y124182D01*
X-99644Y124123D01*
X-99727Y124067D01*
X-99812Y124015D01*
X-99899Y123965D01*
X-99987Y123919D01*
X-100078Y123876D01*
X-100170Y123837D01*
X-100263Y123802D01*
X-100358Y123770D01*
X-100454Y123741D01*
X-100551Y123717D01*
X-100649Y123696D01*
X-100747Y123679D01*
X-100847Y123665D01*
X-100946Y123656D01*
X-101046Y123650D01*
X-101146Y123648D01*
X-101146Y123649D02*
X-103757Y123649D01*
X-94308Y130958D02*
X-91697Y133047D01*
X-91697Y123649D01*
X-89087Y123649D02*
X-94308Y123649D01*
D11*
X88900Y150813D02*
X101600Y150813D01*
X107950Y144463D01*
X107950Y131763D01*
X101600Y125413D01*
X82550Y131763D02*
X82550Y144463D01*
X88900Y150813D01*
X82550Y131763D02*
X88900Y125413D01*
X101600Y125413D01*
D15*
X38227Y128588D02*
X31623Y128588D01*
D14*
X30727Y135319D02*
X32815Y135319D01*
X30727Y135319D02*
X30638Y135321D01*
X30550Y135327D01*
X30462Y135336D01*
X30374Y135349D01*
X30287Y135366D01*
X30201Y135386D01*
X30116Y135411D01*
X30031Y135438D01*
X29948Y135470D01*
X29867Y135504D01*
X29787Y135543D01*
X29709Y135584D01*
X29632Y135629D01*
X29558Y135677D01*
X29485Y135728D01*
X29415Y135782D01*
X29348Y135840D01*
X29282Y135900D01*
X29220Y135962D01*
X29160Y136028D01*
X29102Y136095D01*
X29048Y136165D01*
X28997Y136238D01*
X28949Y136312D01*
X28904Y136389D01*
X28863Y136467D01*
X28824Y136547D01*
X28790Y136628D01*
X28758Y136711D01*
X28731Y136796D01*
X28706Y136881D01*
X28686Y136967D01*
X28669Y137054D01*
X28656Y137142D01*
X28647Y137230D01*
X28641Y137318D01*
X28639Y137407D01*
X28639Y142628D01*
X28641Y142719D01*
X28647Y142810D01*
X28657Y142901D01*
X28671Y142991D01*
X28688Y143080D01*
X28710Y143168D01*
X28736Y143256D01*
X28765Y143342D01*
X28798Y143427D01*
X28835Y143510D01*
X28875Y143592D01*
X28919Y143672D01*
X28966Y143750D01*
X29017Y143826D01*
X29070Y143899D01*
X29127Y143970D01*
X29188Y144039D01*
X29251Y144104D01*
X29316Y144167D01*
X29385Y144227D01*
X29456Y144285D01*
X29529Y144338D01*
X29605Y144389D01*
X29683Y144436D01*
X29763Y144480D01*
X29845Y144520D01*
X29928Y144557D01*
X30013Y144590D01*
X30099Y144619D01*
X30187Y144645D01*
X30275Y144667D01*
X30364Y144684D01*
X30454Y144698D01*
X30545Y144708D01*
X30636Y144714D01*
X30727Y144716D01*
X30727Y144717D02*
X32815Y144717D01*
X36284Y142628D02*
X38895Y144717D01*
X38895Y135319D01*
X41505Y135319D02*
X36284Y135319D01*
D16*
X18780Y139425D02*
X18782Y139458D01*
X18788Y139490D01*
X18798Y139521D01*
X18811Y139550D01*
X18828Y139578D01*
X18848Y139604D01*
X18871Y139627D01*
X18897Y139647D01*
X18925Y139664D01*
X18954Y139677D01*
X18985Y139687D01*
X19017Y139693D01*
X19050Y139695D01*
X19083Y139693D01*
X19115Y139687D01*
X19146Y139677D01*
X19175Y139664D01*
X19203Y139647D01*
X19229Y139627D01*
X19252Y139604D01*
X19272Y139578D01*
X19289Y139550D01*
X19302Y139521D01*
X19312Y139490D01*
X19318Y139458D01*
X19320Y139425D01*
X19318Y139392D01*
X19312Y139360D01*
X19302Y139329D01*
X19289Y139300D01*
X19272Y139272D01*
X19252Y139246D01*
X19229Y139223D01*
X19203Y139203D01*
X19175Y139186D01*
X19146Y139173D01*
X19115Y139163D01*
X19083Y139157D01*
X19050Y139155D01*
X19017Y139157D01*
X18985Y139163D01*
X18954Y139173D01*
X18925Y139186D01*
X18897Y139203D01*
X18871Y139223D01*
X18848Y139246D01*
X18828Y139272D01*
X18811Y139300D01*
X18798Y139329D01*
X18788Y139360D01*
X18782Y139392D01*
X18780Y139425D01*
D14*
X-21822Y142949D02*
X-28609Y142949D01*
X-21822Y142949D02*
X-21721Y142951D01*
X-21620Y142957D01*
X-21519Y142967D01*
X-21419Y142980D01*
X-21319Y142998D01*
X-21220Y143019D01*
X-21122Y143045D01*
X-21025Y143074D01*
X-20929Y143106D01*
X-20835Y143143D01*
X-20742Y143183D01*
X-20650Y143227D01*
X-20561Y143274D01*
X-20473Y143325D01*
X-20387Y143379D01*
X-20304Y143436D01*
X-20222Y143496D01*
X-20144Y143560D01*
X-20067Y143626D01*
X-19994Y143696D01*
X-19923Y143768D01*
X-19855Y143843D01*
X-19790Y143921D01*
X-19728Y144001D01*
X-19669Y144083D01*
X-19613Y144168D01*
X-19561Y144254D01*
X-19512Y144343D01*
X-19466Y144434D01*
X-19425Y144526D01*
X-19386Y144620D01*
X-19352Y144715D01*
X-19321Y144811D01*
X-19294Y144909D01*
X-19270Y145007D01*
X-19251Y145107D01*
X-19235Y145207D01*
X-19223Y145307D01*
X-19215Y145408D01*
X-19211Y145509D01*
X-19211Y145611D01*
X-19215Y145712D01*
X-19223Y145813D01*
X-19235Y145913D01*
X-19251Y146013D01*
X-19270Y146113D01*
X-19294Y146211D01*
X-19321Y146309D01*
X-19352Y146405D01*
X-19386Y146500D01*
X-19425Y146594D01*
X-19466Y146686D01*
X-19512Y146777D01*
X-19561Y146865D01*
X-19613Y146952D01*
X-19669Y147037D01*
X-19728Y147119D01*
X-19790Y147199D01*
X-19855Y147277D01*
X-19923Y147352D01*
X-19994Y147424D01*
X-20067Y147494D01*
X-20144Y147560D01*
X-20222Y147624D01*
X-20304Y147684D01*
X-20387Y147741D01*
X-20473Y147795D01*
X-20561Y147846D01*
X-20650Y147893D01*
X-20742Y147937D01*
X-20835Y147977D01*
X-20929Y148014D01*
X-21025Y148046D01*
X-21122Y148075D01*
X-21220Y148101D01*
X-21319Y148122D01*
X-21419Y148140D01*
X-21519Y148153D01*
X-21620Y148163D01*
X-21721Y148169D01*
X-21822Y148171D01*
X-21822Y148170D02*
X-28609Y148170D01*
X-28610Y155270D02*
X-28608Y155365D01*
X-28602Y155459D01*
X-28593Y155553D01*
X-28580Y155647D01*
X-28563Y155740D01*
X-28542Y155832D01*
X-28517Y155924D01*
X-28489Y156014D01*
X-28457Y156103D01*
X-28422Y156191D01*
X-28383Y156277D01*
X-28341Y156362D01*
X-28295Y156445D01*
X-28246Y156526D01*
X-28194Y156605D01*
X-28139Y156682D01*
X-28080Y156756D01*
X-28019Y156828D01*
X-27955Y156898D01*
X-27888Y156965D01*
X-27818Y157029D01*
X-27746Y157090D01*
X-27672Y157149D01*
X-27595Y157204D01*
X-27516Y157256D01*
X-27435Y157305D01*
X-27352Y157351D01*
X-27267Y157393D01*
X-27181Y157432D01*
X-27093Y157467D01*
X-27004Y157499D01*
X-26914Y157527D01*
X-26822Y157552D01*
X-26730Y157573D01*
X-26637Y157590D01*
X-26543Y157603D01*
X-26449Y157612D01*
X-26355Y157618D01*
X-26260Y157620D01*
X-28609Y155270D02*
X-28607Y155162D01*
X-28601Y155053D01*
X-28591Y154945D01*
X-28578Y154838D01*
X-28560Y154731D01*
X-28539Y154624D01*
X-28514Y154519D01*
X-28485Y154414D01*
X-28453Y154311D01*
X-28416Y154209D01*
X-28376Y154108D01*
X-28333Y154009D01*
X-28286Y153911D01*
X-28235Y153815D01*
X-28181Y153721D01*
X-28124Y153629D01*
X-28063Y153539D01*
X-27999Y153451D01*
X-27933Y153366D01*
X-27863Y153283D01*
X-27790Y153203D01*
X-27714Y153125D01*
X-27636Y153050D01*
X-27555Y152978D01*
X-27471Y152909D01*
X-27385Y152843D01*
X-27297Y152780D01*
X-27206Y152721D01*
X-27114Y152664D01*
X-27019Y152611D01*
X-26923Y152562D01*
X-26824Y152516D01*
X-26725Y152473D01*
X-26623Y152434D01*
X-26521Y152399D01*
X-24432Y156836D02*
X-24501Y156905D01*
X-24572Y156971D01*
X-24645Y157035D01*
X-24721Y157096D01*
X-24800Y157154D01*
X-24880Y157208D01*
X-24963Y157260D01*
X-25047Y157308D01*
X-25133Y157354D01*
X-25221Y157395D01*
X-25311Y157434D01*
X-25402Y157469D01*
X-25494Y157500D01*
X-25587Y157528D01*
X-25681Y157552D01*
X-25776Y157572D01*
X-25872Y157589D01*
X-25969Y157602D01*
X-26066Y157611D01*
X-26163Y157617D01*
X-26260Y157619D01*
X-24432Y156836D02*
X-19211Y152398D01*
X-19211Y157619D01*
D15*
X-19050Y120777D02*
X-19050Y114427D01*
D14*
X-8192Y109919D02*
X1207Y109919D01*
X-8192Y109919D02*
X-8192Y112529D01*
X-8190Y112630D01*
X-8184Y112731D01*
X-8174Y112832D01*
X-8161Y112932D01*
X-8143Y113032D01*
X-8122Y113131D01*
X-8096Y113229D01*
X-8067Y113326D01*
X-8035Y113422D01*
X-7998Y113516D01*
X-7958Y113609D01*
X-7914Y113701D01*
X-7867Y113790D01*
X-7816Y113878D01*
X-7762Y113964D01*
X-7705Y114047D01*
X-7645Y114129D01*
X-7581Y114207D01*
X-7515Y114284D01*
X-7445Y114357D01*
X-7373Y114428D01*
X-7298Y114496D01*
X-7220Y114561D01*
X-7140Y114623D01*
X-7058Y114682D01*
X-6973Y114738D01*
X-6886Y114790D01*
X-6798Y114839D01*
X-6707Y114885D01*
X-6615Y114926D01*
X-6521Y114965D01*
X-6426Y114999D01*
X-6330Y115030D01*
X-6232Y115057D01*
X-6134Y115081D01*
X-6034Y115100D01*
X-5934Y115116D01*
X-5834Y115128D01*
X-5733Y115136D01*
X-5632Y115140D01*
X-5530Y115140D01*
X-5429Y115136D01*
X-5328Y115128D01*
X-5228Y115116D01*
X-5128Y115100D01*
X-5028Y115081D01*
X-4930Y115057D01*
X-4832Y115030D01*
X-4736Y114999D01*
X-4641Y114965D01*
X-4547Y114926D01*
X-4455Y114885D01*
X-4364Y114839D01*
X-4276Y114790D01*
X-4189Y114738D01*
X-4104Y114682D01*
X-4022Y114623D01*
X-3942Y114561D01*
X-3864Y114496D01*
X-3789Y114428D01*
X-3717Y114357D01*
X-3647Y114284D01*
X-3581Y114207D01*
X-3517Y114129D01*
X-3457Y114047D01*
X-3400Y113964D01*
X-3346Y113878D01*
X-3295Y113790D01*
X-3248Y113701D01*
X-3204Y113609D01*
X-3164Y113516D01*
X-3127Y113422D01*
X-3095Y113326D01*
X-3066Y113229D01*
X-3040Y113131D01*
X-3019Y113032D01*
X-3001Y112932D01*
X-2988Y112832D01*
X-2978Y112731D01*
X-2972Y112630D01*
X-2970Y112529D01*
X-2970Y109919D01*
X-2970Y113051D02*
X1207Y115140D01*
X1207Y119005D02*
X1207Y122138D01*
X1206Y122138D02*
X1204Y122227D01*
X1198Y122315D01*
X1189Y122403D01*
X1176Y122491D01*
X1159Y122578D01*
X1139Y122664D01*
X1114Y122749D01*
X1087Y122834D01*
X1055Y122917D01*
X1021Y122998D01*
X982Y123078D01*
X941Y123156D01*
X896Y123233D01*
X848Y123307D01*
X797Y123380D01*
X743Y123450D01*
X685Y123517D01*
X625Y123583D01*
X563Y123645D01*
X497Y123705D01*
X430Y123763D01*
X360Y123817D01*
X287Y123868D01*
X213Y123916D01*
X136Y123961D01*
X58Y124002D01*
X-22Y124041D01*
X-103Y124075D01*
X-186Y124107D01*
X-271Y124134D01*
X-356Y124159D01*
X-442Y124179D01*
X-529Y124196D01*
X-617Y124209D01*
X-705Y124218D01*
X-793Y124224D01*
X-882Y124226D01*
X-882Y124227D02*
X-1926Y124227D01*
X-1926Y124226D02*
X-2015Y124224D01*
X-2103Y124218D01*
X-2191Y124209D01*
X-2279Y124196D01*
X-2366Y124179D01*
X-2452Y124159D01*
X-2537Y124134D01*
X-2622Y124107D01*
X-2705Y124075D01*
X-2786Y124041D01*
X-2866Y124002D01*
X-2944Y123961D01*
X-3021Y123916D01*
X-3095Y123868D01*
X-3168Y123817D01*
X-3238Y123763D01*
X-3305Y123705D01*
X-3371Y123645D01*
X-3433Y123583D01*
X-3493Y123517D01*
X-3551Y123450D01*
X-3605Y123380D01*
X-3656Y123307D01*
X-3704Y123233D01*
X-3749Y123156D01*
X-3790Y123078D01*
X-3829Y122998D01*
X-3863Y122917D01*
X-3895Y122834D01*
X-3922Y122749D01*
X-3947Y122664D01*
X-3967Y122578D01*
X-3984Y122491D01*
X-3997Y122403D01*
X-4006Y122315D01*
X-4012Y122227D01*
X-4014Y122138D01*
X-4015Y122138D02*
X-4015Y119005D01*
X-8192Y119005D01*
X-8192Y124227D01*
D15*
X-8065Y169863D02*
X-1461Y169863D01*
D14*
X-11317Y186119D02*
X-13406Y186119D01*
X-13495Y186121D01*
X-13583Y186127D01*
X-13671Y186136D01*
X-13759Y186149D01*
X-13846Y186166D01*
X-13932Y186186D01*
X-14017Y186211D01*
X-14102Y186238D01*
X-14185Y186270D01*
X-14266Y186304D01*
X-14346Y186343D01*
X-14424Y186384D01*
X-14501Y186429D01*
X-14575Y186477D01*
X-14648Y186528D01*
X-14718Y186582D01*
X-14785Y186640D01*
X-14851Y186700D01*
X-14913Y186762D01*
X-14973Y186828D01*
X-15031Y186895D01*
X-15085Y186965D01*
X-15136Y187038D01*
X-15184Y187112D01*
X-15229Y187189D01*
X-15270Y187267D01*
X-15309Y187347D01*
X-15343Y187428D01*
X-15375Y187511D01*
X-15402Y187596D01*
X-15427Y187681D01*
X-15447Y187767D01*
X-15464Y187854D01*
X-15477Y187942D01*
X-15486Y188030D01*
X-15492Y188118D01*
X-15494Y188207D01*
X-15494Y193428D01*
X-15492Y193517D01*
X-15486Y193605D01*
X-15477Y193693D01*
X-15464Y193781D01*
X-15447Y193868D01*
X-15427Y193954D01*
X-15402Y194039D01*
X-15375Y194124D01*
X-15343Y194207D01*
X-15309Y194288D01*
X-15270Y194368D01*
X-15229Y194446D01*
X-15184Y194523D01*
X-15136Y194597D01*
X-15085Y194670D01*
X-15031Y194740D01*
X-14973Y194807D01*
X-14913Y194873D01*
X-14851Y194935D01*
X-14785Y194995D01*
X-14718Y195053D01*
X-14648Y195107D01*
X-14575Y195158D01*
X-14501Y195206D01*
X-14424Y195251D01*
X-14346Y195292D01*
X-14266Y195331D01*
X-14185Y195365D01*
X-14102Y195397D01*
X-14017Y195424D01*
X-13932Y195449D01*
X-13846Y195469D01*
X-13759Y195486D01*
X-13671Y195499D01*
X-13583Y195508D01*
X-13495Y195514D01*
X-13406Y195516D01*
X-13406Y195517D02*
X-11317Y195517D01*
X-7848Y193428D02*
X-5238Y195517D01*
X-5238Y186119D01*
X-7848Y186119D02*
X-2627Y186119D01*
X1295Y190818D02*
X1297Y191003D01*
X1304Y191188D01*
X1315Y191372D01*
X1330Y191556D01*
X1350Y191740D01*
X1374Y191924D01*
X1403Y192106D01*
X1436Y192288D01*
X1473Y192469D01*
X1515Y192649D01*
X1561Y192829D01*
X1611Y193007D01*
X1665Y193183D01*
X1724Y193359D01*
X1786Y193533D01*
X1853Y193705D01*
X1924Y193876D01*
X1999Y194045D01*
X2078Y194212D01*
X2108Y194292D01*
X2141Y194371D01*
X2178Y194448D01*
X2218Y194524D01*
X2261Y194598D01*
X2307Y194670D01*
X2357Y194739D01*
X2409Y194807D01*
X2465Y194872D01*
X2523Y194935D01*
X2585Y194994D01*
X2648Y195052D01*
X2715Y195106D01*
X2783Y195157D01*
X2854Y195205D01*
X2927Y195250D01*
X3001Y195292D01*
X3078Y195330D01*
X3156Y195365D01*
X3235Y195397D01*
X3316Y195425D01*
X3398Y195449D01*
X3482Y195470D01*
X3565Y195487D01*
X3650Y195500D01*
X3735Y195509D01*
X3820Y195515D01*
X3906Y195517D01*
X3992Y195515D01*
X4077Y195509D01*
X4162Y195500D01*
X4247Y195487D01*
X4330Y195470D01*
X4414Y195449D01*
X4496Y195425D01*
X4577Y195397D01*
X4656Y195365D01*
X4734Y195330D01*
X4811Y195292D01*
X4885Y195250D01*
X4958Y195205D01*
X5029Y195157D01*
X5097Y195106D01*
X5164Y195052D01*
X5227Y194994D01*
X5289Y194935D01*
X5347Y194872D01*
X5403Y194807D01*
X5455Y194739D01*
X5505Y194670D01*
X5551Y194598D01*
X5594Y194524D01*
X5634Y194448D01*
X5671Y194371D01*
X5704Y194292D01*
X5734Y194212D01*
X5813Y194045D01*
X5888Y193876D01*
X5959Y193705D01*
X6026Y193533D01*
X6088Y193359D01*
X6147Y193183D01*
X6201Y193007D01*
X6251Y192829D01*
X6297Y192649D01*
X6339Y192469D01*
X6376Y192288D01*
X6409Y192106D01*
X6438Y191924D01*
X6462Y191740D01*
X6482Y191556D01*
X6497Y191372D01*
X6508Y191188D01*
X6515Y191003D01*
X6517Y190818D01*
X1296Y190818D02*
X1298Y190633D01*
X1305Y190448D01*
X1316Y190264D01*
X1331Y190080D01*
X1351Y189896D01*
X1375Y189712D01*
X1404Y189530D01*
X1437Y189348D01*
X1474Y189167D01*
X1516Y188987D01*
X1562Y188807D01*
X1612Y188629D01*
X1666Y188453D01*
X1725Y188277D01*
X1787Y188103D01*
X1854Y187931D01*
X1925Y187760D01*
X2000Y187591D01*
X2079Y187424D01*
X2078Y187423D02*
X2108Y187343D01*
X2141Y187264D01*
X2178Y187187D01*
X2218Y187111D01*
X2261Y187037D01*
X2307Y186965D01*
X2357Y186896D01*
X2410Y186828D01*
X2465Y186763D01*
X2524Y186700D01*
X2585Y186641D01*
X2648Y186583D01*
X2715Y186529D01*
X2783Y186478D01*
X2854Y186430D01*
X2927Y186385D01*
X3001Y186343D01*
X3078Y186305D01*
X3156Y186270D01*
X3235Y186238D01*
X3316Y186210D01*
X3398Y186186D01*
X3482Y186165D01*
X3565Y186148D01*
X3650Y186135D01*
X3735Y186126D01*
X3820Y186120D01*
X3906Y186118D01*
X5734Y187424D02*
X5813Y187591D01*
X5888Y187760D01*
X5959Y187931D01*
X6026Y188103D01*
X6088Y188277D01*
X6147Y188453D01*
X6201Y188629D01*
X6251Y188807D01*
X6297Y188987D01*
X6339Y189167D01*
X6376Y189348D01*
X6409Y189530D01*
X6438Y189712D01*
X6462Y189896D01*
X6482Y190080D01*
X6497Y190264D01*
X6508Y190448D01*
X6515Y190633D01*
X6517Y190818D01*
X5734Y187423D02*
X5704Y187343D01*
X5671Y187264D01*
X5634Y187187D01*
X5594Y187111D01*
X5551Y187037D01*
X5505Y186965D01*
X5455Y186896D01*
X5403Y186828D01*
X5347Y186763D01*
X5289Y186700D01*
X5227Y186641D01*
X5164Y186583D01*
X5097Y186529D01*
X5029Y186478D01*
X4958Y186430D01*
X4885Y186385D01*
X4811Y186343D01*
X4734Y186305D01*
X4656Y186270D01*
X4577Y186238D01*
X4496Y186210D01*
X4414Y186186D01*
X4330Y186165D01*
X4247Y186148D01*
X4162Y186135D01*
X4077Y186126D01*
X3992Y186120D01*
X3906Y186118D01*
X1818Y188207D02*
X5995Y193428D01*
D15*
X-1461Y179388D02*
X-8065Y179388D01*
D14*
X-11317Y198819D02*
X-13406Y198819D01*
X-13495Y198821D01*
X-13583Y198827D01*
X-13671Y198836D01*
X-13759Y198849D01*
X-13846Y198866D01*
X-13932Y198886D01*
X-14017Y198911D01*
X-14102Y198938D01*
X-14185Y198970D01*
X-14266Y199004D01*
X-14346Y199043D01*
X-14424Y199084D01*
X-14501Y199129D01*
X-14575Y199177D01*
X-14648Y199228D01*
X-14718Y199282D01*
X-14785Y199340D01*
X-14851Y199400D01*
X-14913Y199462D01*
X-14973Y199528D01*
X-15031Y199595D01*
X-15085Y199665D01*
X-15136Y199738D01*
X-15184Y199812D01*
X-15229Y199889D01*
X-15270Y199967D01*
X-15309Y200047D01*
X-15343Y200128D01*
X-15375Y200211D01*
X-15402Y200296D01*
X-15427Y200381D01*
X-15447Y200467D01*
X-15464Y200554D01*
X-15477Y200642D01*
X-15486Y200730D01*
X-15492Y200818D01*
X-15494Y200907D01*
X-15494Y206128D01*
X-15492Y206217D01*
X-15486Y206305D01*
X-15477Y206393D01*
X-15464Y206481D01*
X-15447Y206568D01*
X-15427Y206654D01*
X-15402Y206739D01*
X-15375Y206824D01*
X-15343Y206907D01*
X-15309Y206988D01*
X-15270Y207068D01*
X-15229Y207146D01*
X-15184Y207223D01*
X-15136Y207297D01*
X-15085Y207370D01*
X-15031Y207440D01*
X-14973Y207507D01*
X-14913Y207573D01*
X-14851Y207635D01*
X-14785Y207695D01*
X-14718Y207753D01*
X-14648Y207807D01*
X-14575Y207858D01*
X-14501Y207906D01*
X-14424Y207951D01*
X-14346Y207992D01*
X-14266Y208031D01*
X-14185Y208065D01*
X-14102Y208097D01*
X-14017Y208124D01*
X-13932Y208149D01*
X-13846Y208169D01*
X-13759Y208186D01*
X-13671Y208199D01*
X-13583Y208208D01*
X-13495Y208214D01*
X-13406Y208216D01*
X-13406Y208217D02*
X-11317Y208217D01*
X-7848Y206128D02*
X-5238Y208217D01*
X-5238Y198819D01*
X-7848Y198819D02*
X-2627Y198819D01*
X1296Y206128D02*
X3906Y208217D01*
X3906Y198819D01*
X1296Y198819D02*
X6517Y198819D01*
D17*
X-61113Y88113D02*
X-88113Y88113D01*
X-61113Y88113D02*
X-61113Y61113D01*
X-88113Y61113D01*
X-88113Y88113D01*
D11*
X-56620Y82487D02*
X-56618Y82543D01*
X-56612Y82599D01*
X-56602Y82654D01*
X-56589Y82708D01*
X-56572Y82762D01*
X-56551Y82814D01*
X-56526Y82864D01*
X-56498Y82913D01*
X-56467Y82959D01*
X-56432Y83003D01*
X-56395Y83045D01*
X-56354Y83084D01*
X-56311Y83120D01*
X-56266Y83153D01*
X-56219Y83182D01*
X-56169Y83209D01*
X-56118Y83232D01*
X-56065Y83251D01*
X-56011Y83266D01*
X-55956Y83278D01*
X-55901Y83286D01*
X-55845Y83290D01*
X-55789Y83290D01*
X-55733Y83286D01*
X-55678Y83278D01*
X-55623Y83266D01*
X-55569Y83251D01*
X-55516Y83232D01*
X-55465Y83209D01*
X-55416Y83182D01*
X-55368Y83153D01*
X-55323Y83120D01*
X-55280Y83084D01*
X-55239Y83045D01*
X-55202Y83003D01*
X-55167Y82959D01*
X-55136Y82913D01*
X-55108Y82864D01*
X-55083Y82814D01*
X-55062Y82762D01*
X-55045Y82708D01*
X-55032Y82654D01*
X-55022Y82599D01*
X-55016Y82543D01*
X-55014Y82487D01*
X-55016Y82431D01*
X-55022Y82375D01*
X-55032Y82320D01*
X-55045Y82266D01*
X-55062Y82212D01*
X-55083Y82160D01*
X-55108Y82110D01*
X-55136Y82061D01*
X-55167Y82015D01*
X-55202Y81971D01*
X-55239Y81929D01*
X-55280Y81890D01*
X-55323Y81854D01*
X-55368Y81821D01*
X-55415Y81792D01*
X-55465Y81765D01*
X-55516Y81742D01*
X-55569Y81723D01*
X-55623Y81708D01*
X-55678Y81696D01*
X-55733Y81688D01*
X-55789Y81684D01*
X-55845Y81684D01*
X-55901Y81688D01*
X-55956Y81696D01*
X-56011Y81708D01*
X-56065Y81723D01*
X-56118Y81742D01*
X-56169Y81765D01*
X-56219Y81792D01*
X-56266Y81821D01*
X-56311Y81854D01*
X-56354Y81890D01*
X-56395Y81929D01*
X-56432Y81971D01*
X-56467Y82015D01*
X-56498Y82061D01*
X-56526Y82110D01*
X-56551Y82160D01*
X-56572Y82212D01*
X-56589Y82266D01*
X-56602Y82320D01*
X-56612Y82375D01*
X-56618Y82431D01*
X-56620Y82487D01*
D14*
X-81044Y55282D02*
X-81044Y48610D01*
X-81042Y48511D01*
X-81036Y48411D01*
X-81027Y48312D01*
X-81013Y48214D01*
X-80996Y48116D01*
X-80975Y48018D01*
X-80950Y47922D01*
X-80921Y47827D01*
X-80889Y47732D01*
X-80853Y47640D01*
X-80814Y47548D01*
X-80771Y47458D01*
X-80725Y47370D01*
X-80675Y47284D01*
X-80622Y47200D01*
X-80566Y47118D01*
X-80506Y47038D01*
X-80444Y46961D01*
X-80378Y46886D01*
X-80310Y46813D01*
X-80239Y46744D01*
X-80165Y46677D01*
X-80089Y46613D01*
X-80010Y46552D01*
X-79929Y46494D01*
X-79846Y46439D01*
X-79761Y46388D01*
X-79674Y46340D01*
X-79585Y46295D01*
X-79494Y46254D01*
X-79402Y46216D01*
X-79309Y46182D01*
X-79214Y46152D01*
X-79118Y46125D01*
X-79021Y46102D01*
X-78924Y46083D01*
X-78825Y46068D01*
X-78726Y46056D01*
X-78627Y46048D01*
X-78528Y46044D01*
X-78428Y46044D01*
X-78329Y46048D01*
X-78230Y46056D01*
X-78131Y46068D01*
X-78032Y46083D01*
X-77935Y46102D01*
X-77838Y46125D01*
X-77742Y46152D01*
X-77647Y46182D01*
X-77554Y46216D01*
X-77462Y46254D01*
X-77371Y46295D01*
X-77282Y46340D01*
X-77195Y46388D01*
X-77110Y46439D01*
X-77027Y46494D01*
X-76946Y46552D01*
X-76867Y46613D01*
X-76791Y46677D01*
X-76717Y46744D01*
X-76646Y46813D01*
X-76578Y46886D01*
X-76512Y46961D01*
X-76450Y47038D01*
X-76390Y47118D01*
X-76334Y47200D01*
X-76281Y47284D01*
X-76231Y47370D01*
X-76185Y47458D01*
X-76142Y47548D01*
X-76103Y47640D01*
X-76067Y47732D01*
X-76035Y47827D01*
X-76006Y47922D01*
X-75981Y48018D01*
X-75960Y48116D01*
X-75943Y48214D01*
X-75929Y48312D01*
X-75920Y48411D01*
X-75914Y48511D01*
X-75912Y48610D01*
X-75912Y55282D01*
X-71744Y46044D02*
X-69178Y46044D01*
X-69079Y46046D01*
X-68979Y46052D01*
X-68880Y46061D01*
X-68782Y46075D01*
X-68684Y46092D01*
X-68586Y46113D01*
X-68490Y46138D01*
X-68395Y46167D01*
X-68300Y46199D01*
X-68208Y46235D01*
X-68116Y46274D01*
X-68026Y46317D01*
X-67938Y46363D01*
X-67852Y46413D01*
X-67768Y46466D01*
X-67686Y46522D01*
X-67606Y46582D01*
X-67529Y46644D01*
X-67454Y46710D01*
X-67381Y46778D01*
X-67312Y46849D01*
X-67245Y46923D01*
X-67181Y46999D01*
X-67120Y47078D01*
X-67062Y47159D01*
X-67007Y47242D01*
X-66956Y47327D01*
X-66908Y47414D01*
X-66863Y47503D01*
X-66822Y47594D01*
X-66784Y47686D01*
X-66750Y47779D01*
X-66720Y47874D01*
X-66693Y47970D01*
X-66670Y48067D01*
X-66651Y48164D01*
X-66636Y48263D01*
X-66624Y48362D01*
X-66616Y48461D01*
X-66612Y48560D01*
X-66612Y48660D01*
X-66616Y48759D01*
X-66624Y48858D01*
X-66636Y48957D01*
X-66651Y49056D01*
X-66670Y49153D01*
X-66693Y49250D01*
X-66720Y49346D01*
X-66750Y49441D01*
X-66784Y49534D01*
X-66822Y49626D01*
X-66863Y49717D01*
X-66908Y49806D01*
X-66956Y49893D01*
X-67007Y49978D01*
X-67062Y50061D01*
X-67120Y50142D01*
X-67181Y50221D01*
X-67245Y50297D01*
X-67312Y50371D01*
X-67381Y50442D01*
X-67454Y50510D01*
X-67529Y50576D01*
X-67606Y50638D01*
X-67686Y50698D01*
X-67768Y50754D01*
X-67852Y50807D01*
X-67938Y50857D01*
X-68026Y50903D01*
X-68116Y50946D01*
X-68208Y50985D01*
X-68300Y51021D01*
X-68395Y51053D01*
X-68490Y51082D01*
X-68586Y51107D01*
X-68684Y51128D01*
X-68782Y51145D01*
X-68880Y51159D01*
X-68979Y51168D01*
X-69079Y51174D01*
X-69178Y51176D01*
X-68665Y55282D02*
X-71744Y55282D01*
X-68665Y55282D02*
X-68575Y55280D01*
X-68486Y55274D01*
X-68397Y55264D01*
X-68309Y55251D01*
X-68221Y55233D01*
X-68134Y55212D01*
X-68048Y55187D01*
X-67963Y55158D01*
X-67879Y55126D01*
X-67797Y55090D01*
X-67717Y55050D01*
X-67639Y55007D01*
X-67562Y54960D01*
X-67487Y54911D01*
X-67415Y54858D01*
X-67345Y54802D01*
X-67278Y54743D01*
X-67213Y54681D01*
X-67151Y54616D01*
X-67092Y54549D01*
X-67036Y54479D01*
X-66983Y54407D01*
X-66934Y54332D01*
X-66887Y54255D01*
X-66844Y54177D01*
X-66804Y54097D01*
X-66768Y54015D01*
X-66736Y53931D01*
X-66707Y53846D01*
X-66682Y53760D01*
X-66661Y53673D01*
X-66643Y53585D01*
X-66630Y53497D01*
X-66620Y53408D01*
X-66614Y53319D01*
X-66612Y53229D01*
X-66614Y53139D01*
X-66620Y53050D01*
X-66630Y52961D01*
X-66643Y52873D01*
X-66661Y52785D01*
X-66682Y52698D01*
X-66707Y52612D01*
X-66736Y52527D01*
X-66768Y52443D01*
X-66804Y52361D01*
X-66844Y52281D01*
X-66887Y52203D01*
X-66934Y52126D01*
X-66983Y52051D01*
X-67036Y51979D01*
X-67092Y51909D01*
X-67151Y51842D01*
X-67213Y51777D01*
X-67278Y51715D01*
X-67345Y51656D01*
X-67415Y51600D01*
X-67487Y51547D01*
X-67562Y51498D01*
X-67639Y51451D01*
X-67717Y51408D01*
X-67797Y51368D01*
X-67879Y51332D01*
X-67963Y51300D01*
X-68048Y51271D01*
X-68134Y51246D01*
X-68221Y51225D01*
X-68309Y51207D01*
X-68397Y51194D01*
X-68486Y51184D01*
X-68575Y51178D01*
X-68665Y51176D01*
X-70718Y51176D01*
D11*
X-53975Y228600D02*
X-53975Y241300D01*
X-53975Y228600D02*
X-60325Y222250D01*
X-73025Y222250D01*
X-79375Y228600D01*
X-60325Y222250D02*
X-53975Y215900D01*
X-53975Y203200D01*
X-60325Y196850D01*
X-73025Y196850D01*
X-79375Y203200D01*
X-79375Y215900D01*
X-73025Y222250D01*
X-73025Y247650D02*
X-60325Y247650D01*
X-53975Y241300D01*
X-73025Y247650D02*
X-79375Y241300D01*
X-79375Y228600D01*
X-60325Y196850D02*
X-53975Y190500D01*
X-53975Y177800D01*
X-60325Y171450D01*
X-73025Y171450D01*
X-79375Y177800D01*
X-79375Y190500D01*
X-73025Y196850D01*
D18*
X37656Y43015D03*
D19*
X49009Y43015D03*
D20*
X35827Y43167D03*
X39027Y43167D03*
X55944Y43167D03*
D21*
X37427Y43167D03*
D22*
X49086Y43167D03*
D20*
X35522Y43320D03*
X39027Y43320D03*
D23*
X37275Y43320D03*
D24*
X49314Y43320D03*
D20*
X39027Y43472D03*
X56553Y43472D03*
D25*
X37122Y43472D03*
D26*
X49390Y43472D03*
D20*
X39027Y43624D03*
D27*
X37046Y43624D03*
D28*
X49543Y43624D03*
D20*
X34912Y43777D03*
X39027Y43777D03*
D29*
X36970Y43777D03*
D30*
X49619Y43777D03*
D20*
X39027Y43929D03*
D31*
X36894Y43929D03*
D32*
X49695Y43929D03*
D20*
X39027Y44082D03*
X57163Y44082D03*
D33*
X36817Y44082D03*
D32*
X49695Y44082D03*
D20*
X34608Y44234D03*
X39027Y44234D03*
D33*
X36817Y44234D03*
D34*
X49771Y44234D03*
D20*
X39027Y44386D03*
D35*
X36741Y44386D03*
D36*
X49848Y44386D03*
D20*
X39027Y44539D03*
X57468Y44539D03*
D37*
X36665Y44539D03*
D36*
X49848Y44539D03*
D20*
X34303Y44691D03*
X39027Y44691D03*
D37*
X36665Y44691D03*
D38*
X49924Y44691D03*
D20*
X39027Y44844D03*
X57620Y44844D03*
D39*
X36589Y44844D03*
D38*
X49924Y44844D03*
D20*
X34150Y44996D03*
X39027Y44996D03*
D39*
X36589Y44996D03*
D40*
X50000Y44996D03*
D20*
X39027Y45148D03*
D41*
X36513Y45148D03*
D42*
X50076Y45148D03*
D20*
X39027Y45301D03*
X57925Y45301D03*
D43*
X36436Y45301D03*
D42*
X50076Y45301D03*
D20*
X39027Y45453D03*
D43*
X36436Y45453D03*
D44*
X50152Y45453D03*
D20*
X39027Y45606D03*
X58077Y45606D03*
D45*
X36360Y45606D03*
D44*
X50152Y45606D03*
D20*
X33693Y45758D03*
X39027Y45758D03*
D45*
X36360Y45758D03*
D46*
X50229Y45758D03*
D20*
X39027Y45910D03*
X58230Y45910D03*
D47*
X36284Y45910D03*
D46*
X50229Y45910D03*
D20*
X33541Y46063D03*
X39027Y46063D03*
D47*
X36284Y46063D03*
D48*
X50305Y46063D03*
D20*
X39027Y46215D03*
D49*
X36208Y46215D03*
D50*
X50381Y46215D03*
D20*
X39027Y46368D03*
X58534Y46368D03*
D51*
X36132Y46368D03*
D50*
X50381Y46368D03*
D20*
X33236Y46520D03*
X39027Y46520D03*
D51*
X36132Y46520D03*
D52*
X50457Y46520D03*
D20*
X39027Y46672D03*
X58687Y46672D03*
D53*
X36055Y46672D03*
D52*
X50457Y46672D03*
D20*
X33084Y46825D03*
X39027Y46825D03*
D53*
X36055Y46825D03*
D54*
X50533Y46825D03*
D20*
X39027Y46977D03*
D55*
X35979Y46977D03*
D56*
X50610Y46977D03*
D20*
X32931Y47130D03*
X39027Y47130D03*
D55*
X35979Y47130D03*
D56*
X50610Y47130D03*
D20*
X39027Y47282D03*
D57*
X35903Y47282D03*
D58*
X50686Y47282D03*
D20*
X39027Y47434D03*
X59144Y47434D03*
D59*
X35827Y47434D03*
D58*
X50686Y47434D03*
D20*
X32626Y47587D03*
X39027Y47587D03*
D59*
X35827Y47587D03*
D60*
X50762Y47587D03*
D20*
X39027Y47739D03*
X59296Y47739D03*
D61*
X35751Y47739D03*
D60*
X50762Y47739D03*
D20*
X32474Y47892D03*
X39027Y47892D03*
D61*
X35751Y47892D03*
D62*
X50838Y47892D03*
D20*
X39027Y48044D03*
D63*
X35674Y48044D03*
D64*
X50914Y48044D03*
D20*
X32322Y48196D03*
X39027Y48196D03*
D63*
X35674Y48196D03*
D64*
X50914Y48196D03*
D20*
X39027Y48349D03*
D65*
X35598Y48349D03*
D66*
X50991Y48349D03*
D20*
X39027Y48501D03*
X59754Y48501D03*
D67*
X35522Y48501D03*
D66*
X50991Y48501D03*
D20*
X32017Y48654D03*
X39027Y48654D03*
D67*
X35522Y48654D03*
D68*
X51067Y48654D03*
D20*
X39027Y48806D03*
X42380Y48806D03*
X59906Y48806D03*
D69*
X35446Y48806D03*
D66*
X51143Y48806D03*
D20*
X31864Y48958D03*
X39027Y48958D03*
X42380Y48958D03*
D69*
X35446Y48958D03*
D68*
X51219Y48958D03*
D20*
X39027Y49111D03*
X42380Y49111D03*
X60058Y49111D03*
D70*
X35370Y49111D03*
D68*
X51219Y49111D03*
D20*
X39027Y49263D03*
X42380Y49263D03*
D71*
X35293Y49263D03*
D72*
X51295Y49263D03*
D20*
X39027Y49416D03*
X42380Y49416D03*
D71*
X35293Y49416D03*
D73*
X51372Y49416D03*
D20*
X39027Y49568D03*
X42380Y49568D03*
X60363Y49568D03*
D74*
X35217Y49568D03*
D73*
X51372Y49568D03*
D20*
X31407Y49720D03*
X39027Y49720D03*
X42380Y49720D03*
D74*
X35217Y49720D03*
D75*
X51448Y49720D03*
D20*
X39027Y49873D03*
X42380Y49873D03*
D76*
X50686Y49873D03*
D20*
X51676Y49873D03*
X60516Y49873D03*
D77*
X35141Y49873D03*
D78*
X46495Y49873D03*
D79*
X56096Y49873D03*
D20*
X31255Y50025D03*
X39027Y50025D03*
X42380Y50025D03*
X50305Y50025D03*
X51981Y50025D03*
D77*
X35141Y50025D03*
D80*
X46342Y50025D03*
D81*
X56325Y50025D03*
D20*
X39027Y50178D03*
X42380Y50178D03*
X50152Y50178D03*
X60668Y50178D03*
D80*
X35065Y50178D03*
D77*
X46266Y50178D03*
D82*
X56401Y50178D03*
D20*
X39027Y50330D03*
X42380Y50330D03*
X52438Y50330D03*
X60820Y50330D03*
D83*
X34989Y50330D03*
D74*
X46190Y50330D03*
D84*
X56629Y50330D03*
D20*
X30950Y50482D03*
X39027Y50482D03*
X42380Y50482D03*
X49848Y50482D03*
D83*
X34989Y50482D03*
D71*
X46114Y50482D03*
D82*
X56706Y50482D03*
D20*
X39027Y50635D03*
X42380Y50635D03*
X60973Y50635D03*
D78*
X34912Y50635D03*
D71*
X46114Y50635D03*
D85*
X56782Y50635D03*
D20*
X30798Y50787D03*
X39027Y50787D03*
X42380Y50787D03*
D78*
X34912Y50787D03*
D70*
X46038Y50787D03*
D82*
X56858Y50787D03*
D20*
X39027Y50940D03*
X42380Y50940D03*
X52743Y50940D03*
X61125Y50940D03*
D85*
X34836Y50940D03*
D70*
X46038Y50940D03*
D85*
X56934Y50940D03*
D20*
X30645Y51092D03*
X39027Y51092D03*
X42380Y51092D03*
X49543Y51092D03*
D85*
X34836Y51092D03*
D69*
X45961Y51092D03*
D82*
X57010Y51092D03*
D20*
X39027Y51244D03*
X42380Y51244D03*
X49543Y51244D03*
X61278Y51244D03*
D82*
X34760Y51244D03*
D69*
X45961Y51244D03*
D82*
X57010Y51244D03*
D20*
X39027Y51397D03*
X42380Y51397D03*
X49543Y51397D03*
D81*
X34684Y51397D03*
D69*
X45961Y51397D03*
D81*
X57087Y51397D03*
D20*
X30340Y51549D03*
X39027Y51549D03*
X42380Y51549D03*
X49543Y51549D03*
X61430Y51549D03*
D81*
X34684Y51549D03*
D69*
X45961Y51549D03*
D81*
X57087Y51549D03*
D20*
X39027Y51702D03*
X42380Y51702D03*
X49543Y51702D03*
D86*
X34608Y51702D03*
D69*
X45961Y51702D03*
D79*
X57163Y51702D03*
D20*
X30188Y51854D03*
X39027Y51854D03*
X42380Y51854D03*
X49543Y51854D03*
D86*
X34608Y51854D03*
D69*
X45961Y51854D03*
D87*
X57239Y51854D03*
D20*
X39027Y52006D03*
X42380Y52006D03*
X49543Y52006D03*
X61735Y52006D03*
D87*
X34531Y52006D03*
D69*
X45961Y52006D03*
D87*
X57239Y52006D03*
D20*
X30036Y52159D03*
X39027Y52159D03*
X42380Y52159D03*
X49543Y52159D03*
D87*
X34531Y52159D03*
D69*
X45961Y52159D03*
D88*
X57315Y52159D03*
D20*
X39027Y52311D03*
X42380Y52311D03*
X49543Y52311D03*
X61887Y52311D03*
D88*
X34455Y52311D03*
D69*
X45961Y52311D03*
D88*
X57315Y52311D03*
D20*
X39027Y52464D03*
X42380Y52464D03*
X49543Y52464D03*
D89*
X34379Y52464D03*
D69*
X45961Y52464D03*
D89*
X57391Y52464D03*
D20*
X29731Y52616D03*
X39027Y52616D03*
X42380Y52616D03*
X49543Y52616D03*
X52896Y52616D03*
X62040Y52616D03*
D89*
X34379Y52616D03*
D69*
X45961Y52616D03*
D88*
X57468Y52616D03*
D20*
X39027Y52768D03*
X42380Y52768D03*
X49543Y52768D03*
X52896Y52768D03*
D90*
X34303Y52768D03*
D69*
X45961Y52768D03*
D89*
X57544Y52768D03*
D20*
X29578Y52921D03*
X39027Y52921D03*
X42380Y52921D03*
X49543Y52921D03*
X52896Y52921D03*
D90*
X34303Y52921D03*
D69*
X45961Y52921D03*
D90*
X57620Y52921D03*
D20*
X39027Y53073D03*
X42380Y53073D03*
X49543Y53073D03*
X52896Y53073D03*
X62344Y53073D03*
D91*
X34227Y53073D03*
D69*
X45961Y53073D03*
D90*
X57620Y53073D03*
D20*
X29426Y53226D03*
X39027Y53226D03*
X42380Y53226D03*
X49543Y53226D03*
X52896Y53226D03*
D91*
X34227Y53226D03*
D69*
X45961Y53226D03*
D91*
X57696Y53226D03*
D20*
X39027Y53378D03*
X42380Y53378D03*
X49543Y53378D03*
X52896Y53378D03*
X62497Y53378D03*
D92*
X34150Y53378D03*
D69*
X45961Y53378D03*
D91*
X57696Y53378D03*
D20*
X39027Y53530D03*
X42380Y53530D03*
X49543Y53530D03*
X52896Y53530D03*
D93*
X34074Y53530D03*
D69*
X45961Y53530D03*
D92*
X57772Y53530D03*
D20*
X29121Y53683D03*
X39027Y53683D03*
X42380Y53683D03*
X52896Y53683D03*
D93*
X34074Y53683D03*
D69*
X45961Y53683D03*
D93*
X57849Y53683D03*
D20*
X39027Y53835D03*
X42380Y53835D03*
X52896Y53835D03*
X62802Y53835D03*
D94*
X33998Y53835D03*
D69*
X45961Y53835D03*
D93*
X57849Y53835D03*
D20*
X28969Y53988D03*
X39027Y53988D03*
X42380Y53988D03*
X52896Y53988D03*
D94*
X33998Y53988D03*
D69*
X45961Y53988D03*
D94*
X57925Y53988D03*
D20*
X39027Y54140D03*
X42380Y54140D03*
X52896Y54140D03*
X62954Y54140D03*
D95*
X33922Y54140D03*
D69*
X45961Y54140D03*
D94*
X57925Y54140D03*
D20*
X28816Y54292D03*
X39027Y54292D03*
X42380Y54292D03*
X52896Y54292D03*
D95*
X33922Y54292D03*
D69*
X45961Y54292D03*
D95*
X58001Y54292D03*
D20*
X39027Y54445D03*
X42380Y54445D03*
X52896Y54445D03*
X63106Y54445D03*
D96*
X33846Y54445D03*
D69*
X45961Y54445D03*
D95*
X58001Y54445D03*
D20*
X39027Y54597D03*
X42380Y54597D03*
X52896Y54597D03*
D97*
X33769Y54597D03*
D69*
X45961Y54597D03*
D96*
X58077Y54597D03*
D20*
X28512Y54750D03*
X39027Y54750D03*
X42380Y54750D03*
X52896Y54750D03*
D97*
X33769Y54750D03*
D69*
X45961Y54750D03*
D97*
X58153Y54750D03*
D20*
X39027Y54902D03*
X42380Y54902D03*
X52896Y54902D03*
X63411Y54902D03*
D98*
X33693Y54902D03*
D69*
X45961Y54902D03*
D97*
X58153Y54902D03*
D20*
X28359Y55054D03*
X39027Y55054D03*
X42380Y55054D03*
X52896Y55054D03*
D98*
X33693Y55054D03*
D69*
X45961Y55054D03*
D98*
X58230Y55054D03*
D20*
X39027Y55207D03*
X42380Y55207D03*
X52896Y55207D03*
X63564Y55207D03*
D99*
X33617Y55207D03*
D69*
X45961Y55207D03*
D98*
X58230Y55207D03*
D20*
X28207Y55359D03*
X39027Y55359D03*
X42380Y55359D03*
X52896Y55359D03*
D99*
X33617Y55359D03*
D69*
X45961Y55359D03*
D99*
X58306Y55359D03*
D20*
X39027Y55512D03*
X42380Y55512D03*
X52896Y55512D03*
X63716Y55512D03*
D100*
X33541Y55512D03*
D69*
X45961Y55512D03*
D99*
X58306Y55512D03*
D20*
X39027Y55664D03*
X42380Y55664D03*
X52896Y55664D03*
D101*
X33465Y55664D03*
D69*
X45961Y55664D03*
D100*
X58382Y55664D03*
D20*
X27902Y55816D03*
X39027Y55816D03*
X42380Y55816D03*
X52896Y55816D03*
D101*
X33465Y55816D03*
D69*
X45961Y55816D03*
D101*
X58458Y55816D03*
D20*
X39027Y55969D03*
X42380Y55969D03*
X52896Y55969D03*
X64021Y55969D03*
D102*
X33388Y55969D03*
D69*
X45961Y55969D03*
D101*
X58458Y55969D03*
D20*
X27750Y56121D03*
X39027Y56121D03*
X42380Y56121D03*
X52896Y56121D03*
D102*
X33388Y56121D03*
D69*
X45961Y56121D03*
D102*
X58534Y56121D03*
D20*
X39027Y56274D03*
X42380Y56274D03*
X52896Y56274D03*
X64173Y56274D03*
D103*
X33312Y56274D03*
D69*
X45961Y56274D03*
D102*
X58534Y56274D03*
D20*
X39027Y56426D03*
X42380Y56426D03*
X52896Y56426D03*
D104*
X33236Y56426D03*
D69*
X45961Y56426D03*
D103*
X58611Y56426D03*
D20*
X27445Y56578D03*
X39027Y56578D03*
X42380Y56578D03*
X52896Y56578D03*
X64326Y56578D03*
D104*
X33236Y56578D03*
D69*
X45961Y56578D03*
D103*
X58611Y56578D03*
D20*
X39027Y56731D03*
X42380Y56731D03*
X52896Y56731D03*
X64478Y56731D03*
D105*
X33160Y56731D03*
D69*
X45961Y56731D03*
D104*
X58687Y56731D03*
D20*
X27292Y56883D03*
X39027Y56883D03*
X42380Y56883D03*
X52896Y56883D03*
D105*
X33160Y56883D03*
D69*
X45961Y56883D03*
D105*
X58763Y56883D03*
D20*
X39027Y57036D03*
X42380Y57036D03*
X52896Y57036D03*
X64630Y57036D03*
D106*
X33084Y57036D03*
D69*
X45961Y57036D03*
D105*
X58763Y57036D03*
D20*
X27140Y57188D03*
X39027Y57188D03*
X42380Y57188D03*
X52896Y57188D03*
D106*
X33084Y57188D03*
D69*
X45961Y57188D03*
D106*
X58839Y57188D03*
D20*
X39027Y57340D03*
X42380Y57340D03*
X52896Y57340D03*
X64783Y57340D03*
D107*
X33007Y57340D03*
D69*
X45961Y57340D03*
D106*
X58839Y57340D03*
D20*
X39027Y57493D03*
X42380Y57493D03*
X52896Y57493D03*
D108*
X32931Y57493D03*
D69*
X45961Y57493D03*
D107*
X58915Y57493D03*
D20*
X26835Y57645D03*
X39027Y57645D03*
X42380Y57645D03*
X52896Y57645D03*
D108*
X32931Y57645D03*
D69*
X45961Y57645D03*
D108*
X58992Y57645D03*
D20*
X39027Y57798D03*
X42380Y57798D03*
X52896Y57798D03*
X65088Y57798D03*
D109*
X32855Y57798D03*
D69*
X45961Y57798D03*
D108*
X58992Y57798D03*
D20*
X26683Y57950D03*
X39027Y57950D03*
X42380Y57950D03*
X52896Y57950D03*
D109*
X32855Y57950D03*
D69*
X45961Y57950D03*
D109*
X59068Y57950D03*
D20*
X39027Y58102D03*
X42380Y58102D03*
X52896Y58102D03*
X65240Y58102D03*
D110*
X32779Y58102D03*
D69*
X45961Y58102D03*
D109*
X59068Y58102D03*
D20*
X26530Y58255D03*
X39027Y58255D03*
X42380Y58255D03*
X52896Y58255D03*
D110*
X32779Y58255D03*
D69*
X45961Y58255D03*
D110*
X59144Y58255D03*
D20*
X39027Y58407D03*
X42380Y58407D03*
X52896Y58407D03*
X65392Y58407D03*
D111*
X32703Y58407D03*
D69*
X45961Y58407D03*
D110*
X59144Y58407D03*
D20*
X39027Y58560D03*
X42380Y58560D03*
X52896Y58560D03*
D112*
X32626Y58560D03*
D69*
X45961Y58560D03*
D111*
X59220Y58560D03*
D20*
X26226Y58712D03*
X39027Y58712D03*
X42380Y58712D03*
X52896Y58712D03*
D112*
X32626Y58712D03*
D69*
X45961Y58712D03*
D112*
X59296Y58712D03*
D20*
X42380Y58864D03*
X52896Y58864D03*
X65697Y58864D03*
D113*
X32550Y58864D03*
D69*
X45961Y58864D03*
D112*
X59296Y58864D03*
D20*
X26073Y59017D03*
X42380Y59017D03*
X52896Y59017D03*
D113*
X32550Y59017D03*
D69*
X45961Y59017D03*
D113*
X59373Y59017D03*
D20*
X42380Y59169D03*
X52896Y59169D03*
X65850Y59169D03*
D114*
X32474Y59169D03*
D69*
X45961Y59169D03*
D113*
X59373Y59169D03*
D20*
X25921Y59322D03*
X42380Y59322D03*
X52896Y59322D03*
D114*
X32474Y59322D03*
D69*
X45961Y59322D03*
D114*
X59449Y59322D03*
D20*
X42380Y59474D03*
X52896Y59474D03*
X66002Y59474D03*
D19*
X32398Y59474D03*
D69*
X45961Y59474D03*
D114*
X59449Y59474D03*
D20*
X42532Y59626D03*
X49390Y59626D03*
X52896Y59626D03*
X66154Y59626D03*
D115*
X32322Y59626D03*
D116*
X45961Y59626D03*
D19*
X59525Y59626D03*
D20*
X25616Y59779D03*
X52896Y59779D03*
D115*
X32322Y59779D03*
X59601Y59779D03*
D20*
X52896Y59931D03*
X66307Y59931D03*
D117*
X32245Y59931D03*
D115*
X59601Y59931D03*
D20*
X25464Y60084D03*
X52896Y60084D03*
D117*
X32245Y60084D03*
X59677Y60084D03*
D20*
X52896Y60236D03*
X66459Y60236D03*
D22*
X32169Y60236D03*
D117*
X59677Y60236D03*
D20*
X25311Y60388D03*
X52896Y60388D03*
D22*
X32169Y60388D03*
X59754Y60388D03*
D20*
X52896Y60541D03*
X66612Y60541D03*
D118*
X32093Y60541D03*
D22*
X59754Y60541D03*
D20*
X25159Y60693D03*
X52896Y60693D03*
D118*
X32093Y60693D03*
X59830Y60693D03*
D20*
X25159Y60846D03*
X52896Y60846D03*
D118*
X32093Y60846D03*
X59830Y60846D03*
D20*
X52896Y60998D03*
D119*
X32017Y60998D03*
D118*
X59830Y60998D03*
D20*
X52896Y61150D03*
X66764Y61150D03*
D119*
X32017Y61150D03*
D118*
X59830Y61150D03*
D20*
X52896Y61303D03*
X66764Y61303D03*
D119*
X32017Y61303D03*
D118*
X59830Y61303D03*
D20*
X52896Y61455D03*
X66764Y61455D03*
D119*
X32017Y61455D03*
D118*
X59830Y61455D03*
D20*
X52896Y61608D03*
X66764Y61608D03*
D119*
X32017Y61608D03*
D118*
X59830Y61608D03*
D20*
X52896Y61760D03*
X66764Y61760D03*
D119*
X32017Y61760D03*
D118*
X59830Y61760D03*
D20*
X52896Y61912D03*
D119*
X32017Y61912D03*
D118*
X59830Y61912D03*
D20*
X25159Y62065D03*
X52896Y62065D03*
D118*
X32093Y62065D03*
X59830Y62065D03*
D20*
X52896Y62217D03*
X66612Y62217D03*
D118*
X32093Y62217D03*
D22*
X59754Y62217D03*
D20*
X52896Y62370D03*
X66612Y62370D03*
D118*
X32093Y62370D03*
D22*
X59754Y62370D03*
D20*
X25311Y62522D03*
X52896Y62522D03*
D22*
X32169Y62522D03*
X59754Y62522D03*
D20*
X52896Y62674D03*
X66459Y62674D03*
D22*
X32169Y62674D03*
D117*
X59677Y62674D03*
D20*
X25464Y62827D03*
X52896Y62827D03*
D117*
X32245Y62827D03*
X59677Y62827D03*
D20*
X52896Y62979D03*
D117*
X32245Y62979D03*
D115*
X59601Y62979D03*
D20*
X52896Y63132D03*
X66154Y63132D03*
D115*
X32322Y63132D03*
D19*
X59525Y63132D03*
D20*
X25768Y63284D03*
X52896Y63284D03*
D19*
X32398Y63284D03*
D69*
X45961Y63284D03*
D19*
X59525Y63284D03*
D20*
X42380Y63436D03*
X52896Y63436D03*
X66002Y63436D03*
D19*
X32398Y63436D03*
D69*
X45961Y63436D03*
D114*
X59449Y63436D03*
D20*
X25921Y63589D03*
X42380Y63589D03*
X52896Y63589D03*
D114*
X32474Y63589D03*
D69*
X45961Y63589D03*
D114*
X59449Y63589D03*
D20*
X42380Y63741D03*
X52896Y63741D03*
X65850Y63741D03*
D114*
X32474Y63741D03*
D69*
X45961Y63741D03*
D113*
X59373Y63741D03*
D20*
X26073Y63894D03*
X42380Y63894D03*
X52896Y63894D03*
X65697Y63894D03*
D113*
X32550Y63894D03*
D69*
X45961Y63894D03*
D112*
X59296Y63894D03*
D20*
X26226Y64046D03*
X42380Y64046D03*
X52896Y64046D03*
D112*
X32626Y64046D03*
D69*
X45961Y64046D03*
D112*
X59296Y64046D03*
D20*
X42380Y64198D03*
X52896Y64198D03*
X65545Y64198D03*
D112*
X32626Y64198D03*
D69*
X45961Y64198D03*
D111*
X59220Y64198D03*
D20*
X26378Y64351D03*
X42380Y64351D03*
X52896Y64351D03*
D111*
X32703Y64351D03*
D69*
X45961Y64351D03*
D111*
X59220Y64351D03*
D20*
X42380Y64503D03*
X52896Y64503D03*
X65392Y64503D03*
D111*
X32703Y64503D03*
D69*
X45961Y64503D03*
D110*
X59144Y64503D03*
D20*
X26530Y64656D03*
X42380Y64656D03*
X52896Y64656D03*
D110*
X32779Y64656D03*
D69*
X45961Y64656D03*
D110*
X59144Y64656D03*
D20*
X42380Y64808D03*
X52896Y64808D03*
X65240Y64808D03*
D110*
X32779Y64808D03*
D69*
X45961Y64808D03*
D109*
X59068Y64808D03*
D20*
X42380Y64960D03*
X52896Y64960D03*
X65088Y64960D03*
D109*
X32855Y64960D03*
D69*
X45961Y64960D03*
D108*
X58992Y64960D03*
D20*
X26835Y65113D03*
X42380Y65113D03*
X52896Y65113D03*
D108*
X32931Y65113D03*
D69*
X45961Y65113D03*
D108*
X58992Y65113D03*
D20*
X42380Y65265D03*
X52896Y65265D03*
X64935Y65265D03*
D108*
X32931Y65265D03*
D69*
X45961Y65265D03*
D107*
X58915Y65265D03*
D20*
X26988Y65418D03*
X42380Y65418D03*
X52896Y65418D03*
D107*
X33007Y65418D03*
D69*
X45961Y65418D03*
D107*
X58915Y65418D03*
D20*
X42380Y65570D03*
X52896Y65570D03*
X64783Y65570D03*
D107*
X33007Y65570D03*
D69*
X45961Y65570D03*
D106*
X58839Y65570D03*
D20*
X27140Y65722D03*
X42380Y65722D03*
X52896Y65722D03*
D106*
X33084Y65722D03*
D69*
X45961Y65722D03*
D106*
X58839Y65722D03*
D20*
X42380Y65875D03*
X52896Y65875D03*
D106*
X33084Y65875D03*
D69*
X45961Y65875D03*
D105*
X58763Y65875D03*
D20*
X42380Y66027D03*
X52896Y66027D03*
X64478Y66027D03*
D105*
X33160Y66027D03*
D69*
X45961Y66027D03*
D104*
X58687Y66027D03*
D20*
X27445Y66180D03*
X42380Y66180D03*
X52896Y66180D03*
D104*
X33236Y66180D03*
D69*
X45961Y66180D03*
D104*
X58687Y66180D03*
D20*
X42380Y66332D03*
X52896Y66332D03*
X64326Y66332D03*
D104*
X33236Y66332D03*
D69*
X45961Y66332D03*
D103*
X58611Y66332D03*
D20*
X27597Y66484D03*
X42380Y66484D03*
X52896Y66484D03*
D103*
X33312Y66484D03*
D69*
X45961Y66484D03*
D103*
X58611Y66484D03*
D20*
X42380Y66637D03*
X52896Y66637D03*
X64173Y66637D03*
D103*
X33312Y66637D03*
D69*
X45961Y66637D03*
D102*
X58534Y66637D03*
D20*
X27750Y66789D03*
X42380Y66789D03*
X52896Y66789D03*
D102*
X33388Y66789D03*
D69*
X45961Y66789D03*
D102*
X58534Y66789D03*
D20*
X42380Y66942D03*
X52896Y66942D03*
D102*
X33388Y66942D03*
D69*
X45961Y66942D03*
D101*
X58458Y66942D03*
D20*
X42380Y67094D03*
X52896Y67094D03*
X63868Y67094D03*
D101*
X33465Y67094D03*
D69*
X45961Y67094D03*
D100*
X58382Y67094D03*
D20*
X28054Y67246D03*
X42380Y67246D03*
X52896Y67246D03*
D100*
X33541Y67246D03*
D69*
X45961Y67246D03*
D100*
X58382Y67246D03*
D20*
X42380Y67399D03*
X52896Y67399D03*
X63716Y67399D03*
D100*
X33541Y67399D03*
D69*
X45961Y67399D03*
D99*
X58306Y67399D03*
D20*
X42380Y67551D03*
X52896Y67551D03*
D99*
X33617Y67551D03*
D69*
X45961Y67551D03*
D99*
X58306Y67551D03*
D20*
X28359Y67704D03*
X42380Y67704D03*
X52896Y67704D03*
X63564Y67704D03*
D98*
X33693Y67704D03*
D69*
X45961Y67704D03*
D98*
X58230Y67704D03*
D20*
X42380Y67856D03*
X52896Y67856D03*
X63411Y67856D03*
D98*
X33693Y67856D03*
D69*
X45961Y67856D03*
D97*
X58153Y67856D03*
D20*
X28512Y68008D03*
X42380Y68008D03*
X52896Y68008D03*
D97*
X33769Y68008D03*
D69*
X45961Y68008D03*
D97*
X58153Y68008D03*
D20*
X42380Y68161D03*
X52896Y68161D03*
X63259Y68161D03*
D97*
X33769Y68161D03*
D69*
X45961Y68161D03*
D96*
X58077Y68161D03*
D20*
X28664Y68313D03*
X39027Y68313D03*
X42380Y68313D03*
X52896Y68313D03*
D96*
X33846Y68313D03*
D69*
X45961Y68313D03*
D96*
X58077Y68313D03*
D20*
X28816Y68466D03*
X39027Y68466D03*
X42380Y68466D03*
X52896Y68466D03*
X63106Y68466D03*
D95*
X33922Y68466D03*
D69*
X45961Y68466D03*
D95*
X58001Y68466D03*
D20*
X39027Y68618D03*
X42380Y68618D03*
X52896Y68618D03*
D95*
X33922Y68618D03*
D69*
X45961Y68618D03*
D95*
X58001Y68618D03*
D20*
X28969Y68770D03*
X39027Y68770D03*
X42380Y68770D03*
X52896Y68770D03*
X62954Y68770D03*
D94*
X33998Y68770D03*
D69*
X45961Y68770D03*
D94*
X57925Y68770D03*
D20*
X39027Y68923D03*
X42380Y68923D03*
X52896Y68923D03*
X62802Y68923D03*
D94*
X33998Y68923D03*
D69*
X45961Y68923D03*
D93*
X57849Y68923D03*
D20*
X29121Y69075D03*
X39027Y69075D03*
X42380Y69075D03*
X52896Y69075D03*
D93*
X34074Y69075D03*
D69*
X45961Y69075D03*
D93*
X57849Y69075D03*
D20*
X39027Y69228D03*
X42380Y69228D03*
X52896Y69228D03*
X62649Y69228D03*
D93*
X34074Y69228D03*
D69*
X45961Y69228D03*
D92*
X57772Y69228D03*
D20*
X29274Y69380D03*
X39027Y69380D03*
X42380Y69380D03*
X52896Y69380D03*
D92*
X34150Y69380D03*
D69*
X45961Y69380D03*
D92*
X57772Y69380D03*
D20*
X29426Y69532D03*
X39027Y69532D03*
X42380Y69532D03*
X52896Y69532D03*
X62497Y69532D03*
D91*
X34227Y69532D03*
D69*
X45961Y69532D03*
D91*
X57696Y69532D03*
D20*
X39027Y69685D03*
X42380Y69685D03*
X52896Y69685D03*
D91*
X34227Y69685D03*
D69*
X45961Y69685D03*
D91*
X57696Y69685D03*
D20*
X29578Y69837D03*
X39027Y69837D03*
X42380Y69837D03*
X52896Y69837D03*
D90*
X34303Y69837D03*
D69*
X45961Y69837D03*
D90*
X57620Y69837D03*
D20*
X39027Y69990D03*
X42380Y69990D03*
X52896Y69990D03*
X62192Y69990D03*
D90*
X34303Y69990D03*
D69*
X45961Y69990D03*
D89*
X57544Y69990D03*
D20*
X29731Y70142D03*
X39027Y70142D03*
X42380Y70142D03*
X52896Y70142D03*
D89*
X34379Y70142D03*
D69*
X45961Y70142D03*
D89*
X57544Y70142D03*
D20*
X39027Y70294D03*
X42380Y70294D03*
X52896Y70294D03*
X62040Y70294D03*
D89*
X34379Y70294D03*
D69*
X45961Y70294D03*
D88*
X57468Y70294D03*
D20*
X29883Y70447D03*
X39027Y70447D03*
X42380Y70447D03*
X52896Y70447D03*
D88*
X34455Y70447D03*
D69*
X45961Y70447D03*
D88*
X57468Y70447D03*
D20*
X30036Y70599D03*
X39027Y70599D03*
X42380Y70599D03*
X52896Y70599D03*
X61887Y70599D03*
D87*
X34531Y70599D03*
D69*
X45961Y70599D03*
D87*
X57391Y70599D03*
D20*
X39027Y70752D03*
X42380Y70752D03*
X52896Y70752D03*
X61735Y70752D03*
D87*
X34531Y70752D03*
D69*
X45961Y70752D03*
D86*
X57315Y70752D03*
D20*
X30188Y70904D03*
X39027Y70904D03*
X42380Y70904D03*
X52896Y70904D03*
D86*
X34608Y70904D03*
D69*
X45961Y70904D03*
D86*
X57315Y70904D03*
D20*
X39027Y71056D03*
X42380Y71056D03*
X52896Y71056D03*
X61582Y71056D03*
D86*
X34608Y71056D03*
D69*
X45961Y71056D03*
D81*
X57239Y71056D03*
D20*
X30340Y71209D03*
X39027Y71209D03*
X42380Y71209D03*
X52896Y71209D03*
D81*
X34684Y71209D03*
D69*
X45961Y71209D03*
D81*
X57239Y71209D03*
D20*
X39027Y71361D03*
X42380Y71361D03*
X52896Y71361D03*
X61430Y71361D03*
D81*
X34684Y71361D03*
D69*
X45961Y71361D03*
D82*
X57163Y71361D03*
D20*
X39027Y71514D03*
X42380Y71514D03*
X52896Y71514D03*
D82*
X34760Y71514D03*
D69*
X45961Y71514D03*
D82*
X57163Y71514D03*
D20*
X30645Y71666D03*
X39027Y71666D03*
X42380Y71666D03*
X52896Y71666D03*
X61278Y71666D03*
D85*
X34836Y71666D03*
D69*
X45961Y71666D03*
D85*
X57087Y71666D03*
D20*
X39027Y71818D03*
X52896Y71818D03*
X61125Y71818D03*
D85*
X34836Y71818D03*
D70*
X45885Y71818D03*
D78*
X57010Y71818D03*
D20*
X30798Y71971D03*
X52896Y71971D03*
D85*
X34989Y71971D03*
D70*
X45885Y71971D03*
D78*
X57010Y71971D03*
D20*
X39180Y72123D03*
X42228Y72123D03*
X52896Y72123D03*
X60973Y72123D03*
D85*
X34989Y72123D03*
D70*
X45885Y72123D03*
D83*
X56934Y72123D03*
D20*
X30950Y72276D03*
X52896Y72276D03*
D85*
X35141Y72276D03*
D71*
X45809Y72276D03*
D83*
X56934Y72276D03*
D20*
X31102Y72428D03*
X39332Y72428D03*
X52896Y72428D03*
X60820Y72428D03*
D78*
X35217Y72428D03*
D74*
X45733Y72428D03*
D80*
X56858Y72428D03*
D20*
X39484Y72580D03*
X41923Y72580D03*
X52896Y72580D03*
D84*
X35293Y72580D03*
D74*
X45733Y72580D03*
D80*
X56858Y72580D03*
D20*
X31255Y72733D03*
X39637Y72733D03*
X41770Y72733D03*
X52896Y72733D03*
X60668Y72733D03*
D85*
X35446Y72733D03*
D77*
X45657Y72733D03*
X56782Y72733D03*
D20*
X39942Y72885D03*
X41466Y72885D03*
X52896Y72885D03*
X60516Y72885D03*
D81*
X35598Y72885D03*
D83*
X45504Y72885D03*
D74*
X56706Y72885D03*
D20*
X31407Y73038D03*
D120*
X40399Y73038D03*
X41008Y73038D03*
D20*
X52896Y73038D03*
D79*
X35827Y73038D03*
D85*
X45352Y73038D03*
D74*
X56706Y73038D03*
D20*
X52896Y73190D03*
X60363Y73190D03*
D75*
X40475Y73190D03*
D71*
X56629Y73190D03*
D20*
X31560Y73342D03*
X52896Y73342D03*
D73*
X40551Y73342D03*
D71*
X56629Y73342D03*
D20*
X31712Y73495D03*
X52896Y73495D03*
X60211Y73495D03*
D72*
X40627Y73495D03*
D70*
X56553Y73495D03*
D20*
X52896Y73647D03*
D72*
X40627Y73647D03*
D70*
X56553Y73647D03*
D20*
X31864Y73800D03*
X52896Y73800D03*
D68*
X40704Y73800D03*
D69*
X56477Y73800D03*
D20*
X52896Y73952D03*
X59906Y73952D03*
D68*
X40704Y73952D03*
D67*
X56401Y73952D03*
D20*
X32017Y74104D03*
X52896Y74104D03*
D66*
X40780Y74104D03*
D67*
X56401Y74104D03*
D20*
X52896Y74257D03*
X59754Y74257D03*
D66*
X40780Y74257D03*
D65*
X56325Y74257D03*
D20*
X32169Y74409D03*
X52896Y74409D03*
D64*
X40856Y74409D03*
D65*
X56325Y74409D03*
D20*
X32322Y74562D03*
X52896Y74562D03*
X59601Y74562D03*
D62*
X40932Y74562D03*
D63*
X56248Y74562D03*
D20*
X52896Y74714D03*
X59449Y74714D03*
D62*
X40932Y74714D03*
D61*
X56172Y74714D03*
D20*
X32474Y74866D03*
X52896Y74866D03*
D60*
X41008Y74866D03*
D61*
X56172Y74866D03*
D20*
X52896Y75019D03*
X59296Y75019D03*
D60*
X41008Y75019D03*
D59*
X56096Y75019D03*
D20*
X32626Y75171D03*
X52896Y75171D03*
D58*
X41085Y75171D03*
D59*
X56096Y75171D03*
D20*
X32779Y75324D03*
X52896Y75324D03*
X59144Y75324D03*
D56*
X41161Y75324D03*
D57*
X56020Y75324D03*
D20*
X52896Y75476D03*
D56*
X41161Y75476D03*
D57*
X56020Y75476D03*
D20*
X32931Y75628D03*
X52896Y75628D03*
X58992Y75628D03*
D54*
X41237Y75628D03*
D55*
X55944Y75628D03*
D20*
X52896Y75781D03*
X58839Y75781D03*
D54*
X41237Y75781D03*
D53*
X55867Y75781D03*
D20*
X33084Y75933D03*
X52896Y75933D03*
D52*
X41313Y75933D03*
D53*
X55867Y75933D03*
D20*
X52896Y76086D03*
X58687Y76086D03*
D52*
X41313Y76086D03*
D51*
X55791Y76086D03*
D20*
X33236Y76238D03*
X52896Y76238D03*
D50*
X41389Y76238D03*
D51*
X55791Y76238D03*
D20*
X33388Y76390D03*
X52896Y76390D03*
X58534Y76390D03*
D48*
X41466Y76390D03*
D49*
X55715Y76390D03*
D20*
X52896Y76543D03*
D48*
X41466Y76543D03*
D49*
X55715Y76543D03*
D20*
X33541Y76695D03*
X52896Y76695D03*
X58382Y76695D03*
D46*
X41542Y76695D03*
D47*
X55639Y76695D03*
D20*
X52896Y76848D03*
X58230Y76848D03*
D46*
X41542Y76848D03*
D45*
X55563Y76848D03*
D20*
X33693Y77000D03*
X52896Y77000D03*
D44*
X41618Y77000D03*
D45*
X55563Y77000D03*
D20*
X52896Y77152D03*
X58077Y77152D03*
D44*
X41618Y77152D03*
D43*
X55486Y77152D03*
D20*
X33846Y77305D03*
X52896Y77305D03*
D42*
X41694Y77305D03*
D43*
X55486Y77305D03*
D20*
X33998Y77457D03*
X52896Y77457D03*
X57925Y77457D03*
D40*
X41770Y77457D03*
D41*
X55410Y77457D03*
D20*
X52896Y77610D03*
X57772Y77610D03*
D40*
X41770Y77610D03*
D39*
X55334Y77610D03*
D20*
X34150Y77762D03*
X52896Y77762D03*
D38*
X41847Y77762D03*
D39*
X55334Y77762D03*
D20*
X52896Y77914D03*
X57620Y77914D03*
D38*
X41847Y77914D03*
D37*
X55258Y77914D03*
D76*
X34531Y78067D03*
D20*
X34303Y78067D03*
X52896Y78067D03*
D32*
X42075Y78067D03*
D37*
X55258Y78067D03*
D121*
X34836Y78219D03*
D20*
X52896Y78219D03*
X57468Y78219D03*
X34455Y78219D03*
D122*
X42304Y78219D03*
D35*
X55182Y78219D03*
D123*
X35065Y78372D03*
D20*
X34455Y78372D03*
X52896Y78372D03*
D119*
X42532Y78372D03*
D35*
X55182Y78372D03*
D124*
X35293Y78524D03*
D20*
X34608Y78524D03*
X52896Y78524D03*
X57315Y78524D03*
D22*
X42685Y78524D03*
D33*
X55105Y78524D03*
D125*
X35598Y78676D03*
D20*
X52896Y78676D03*
X57163Y78676D03*
X34760Y78676D03*
D19*
X42913Y78676D03*
D31*
X55029Y78676D03*
D126*
X35751Y78829D03*
D127*
X53124Y78829D03*
D20*
X34760Y78829D03*
X52896Y78829D03*
D113*
X43066Y78829D03*
D27*
X55182Y78829D03*
D128*
X36055Y78981D03*
D129*
X53353Y78981D03*
D20*
X34912Y78981D03*
X52896Y78981D03*
D110*
X43294Y78981D03*
D130*
X55334Y78981D03*
D131*
X36360Y79134D03*
D132*
X53505Y79134D03*
D20*
X35065Y79134D03*
X52896Y79134D03*
D107*
X43523Y79134D03*
D133*
X55410Y79134D03*
D134*
X36589Y79286D03*
D125*
X53734Y79286D03*
D20*
X35217Y79286D03*
X52896Y79286D03*
X56553Y79286D03*
D105*
X43675Y79286D03*
D135*
X55486Y79286D03*
D133*
X36970Y79438D03*
D126*
X53886Y79438D03*
D20*
X35522Y79438D03*
X52896Y79438D03*
X56401Y79438D03*
D102*
X43904Y79438D03*
D125*
X55563Y79438D03*
D133*
X37275Y79591D03*
D136*
X54115Y79591D03*
D20*
X35827Y79591D03*
X52896Y79591D03*
X56096Y79591D03*
D100*
X44056Y79591D03*
D129*
X55639Y79591D03*
D131*
X37884Y79743D03*
D136*
X54115Y79743D03*
D120*
X36284Y79743D03*
D20*
X52896Y79743D03*
D127*
X55563Y79743D03*
D20*
X36589Y79743D03*
D97*
X44285Y79743D03*
D20*
X55334Y79743D03*
M02*
