G04 EAGLE Gerber RS-274X export*
G75*
%MOMM*%
%FSLAX34Y34*%
%LPD*%
%INSilkscreen Bottom*%
%IPPOS*%
%AMOC8*
5,1,8,0,0,1.08239X$1,22.5*%
G01*
%ADD10C,0.101600*%
%ADD11C,0.152400*%
%ADD12C,0.076200*%
%ADD13C,0.254000*%
%ADD14C,0.304800*%
%ADD15C,0.406400*%
%ADD16C,0.150000*%

G36*
X-38543Y144694D02*
X-38543Y144694D01*
X-38540Y144693D01*
X-38497Y144713D01*
X-38454Y144731D01*
X-38453Y144733D01*
X-38451Y144734D01*
X-38418Y144819D01*
X-38418Y148629D01*
X-38419Y148631D01*
X-38418Y148633D01*
X-38438Y148676D01*
X-38457Y148720D01*
X-38459Y148720D01*
X-38460Y148722D01*
X-38545Y148755D01*
X-41085Y148755D01*
X-41087Y148754D01*
X-41089Y148755D01*
X-41132Y148735D01*
X-41175Y148717D01*
X-41176Y148715D01*
X-41178Y148714D01*
X-41211Y148629D01*
X-41211Y144819D01*
X-41210Y144817D01*
X-41211Y144815D01*
X-41191Y144772D01*
X-41172Y144728D01*
X-41170Y144728D01*
X-41169Y144726D01*
X-41085Y144693D01*
X-38545Y144693D01*
X-38543Y144694D01*
G37*
G36*
X44262Y129691D02*
X44262Y129691D01*
X44264Y129690D01*
X44307Y129710D01*
X44350Y129728D01*
X44351Y129730D01*
X44353Y129731D01*
X44386Y129816D01*
X44386Y133626D01*
X44385Y133628D01*
X44386Y133630D01*
X44366Y133673D01*
X44347Y133717D01*
X44345Y133717D01*
X44344Y133719D01*
X44260Y133752D01*
X41720Y133752D01*
X41718Y133751D01*
X41715Y133752D01*
X41672Y133732D01*
X41629Y133714D01*
X41628Y133712D01*
X41626Y133711D01*
X41593Y133626D01*
X41593Y129816D01*
X41594Y129814D01*
X41593Y129812D01*
X41613Y129769D01*
X41632Y129725D01*
X41634Y129725D01*
X41635Y129723D01*
X41720Y129690D01*
X44260Y129690D01*
X44262Y129691D01*
G37*
G36*
X-4008Y106428D02*
X-4008Y106428D01*
X-4005Y106427D01*
X-3962Y106447D01*
X-3919Y106465D01*
X-3918Y106467D01*
X-3916Y106468D01*
X-3883Y106553D01*
X-3883Y109093D01*
X-3884Y109095D01*
X-3883Y109097D01*
X-3903Y109140D01*
X-3922Y109184D01*
X-3924Y109184D01*
X-3925Y109186D01*
X-4010Y109219D01*
X-7820Y109219D01*
X-7822Y109218D01*
X-7824Y109219D01*
X-7867Y109199D01*
X-7910Y109181D01*
X-7911Y109179D01*
X-7913Y109178D01*
X-7946Y109093D01*
X-7946Y106553D01*
X-7945Y106551D01*
X-7946Y106549D01*
X-7926Y106506D01*
X-7907Y106462D01*
X-7905Y106462D01*
X-7904Y106460D01*
X-7820Y106427D01*
X-4010Y106427D01*
X-4008Y106428D01*
G37*
D10*
X146699Y139919D02*
X146699Y141866D01*
X140208Y141866D01*
X140208Y137971D01*
X140210Y137872D01*
X140216Y137772D01*
X140225Y137673D01*
X140238Y137575D01*
X140255Y137477D01*
X140276Y137379D01*
X140301Y137283D01*
X140329Y137188D01*
X140361Y137094D01*
X140396Y137001D01*
X140435Y136909D01*
X140478Y136819D01*
X140523Y136731D01*
X140573Y136644D01*
X140625Y136560D01*
X140681Y136477D01*
X140739Y136397D01*
X140801Y136319D01*
X140866Y136244D01*
X140934Y136171D01*
X141004Y136101D01*
X141077Y136033D01*
X141152Y135968D01*
X141230Y135906D01*
X141310Y135848D01*
X141393Y135792D01*
X141477Y135740D01*
X141564Y135690D01*
X141652Y135645D01*
X141742Y135602D01*
X141834Y135563D01*
X141927Y135528D01*
X142021Y135496D01*
X142116Y135468D01*
X142212Y135443D01*
X142310Y135422D01*
X142408Y135405D01*
X142506Y135392D01*
X142605Y135383D01*
X142705Y135377D01*
X142804Y135375D01*
X149296Y135375D01*
X149395Y135377D01*
X149495Y135383D01*
X149594Y135392D01*
X149692Y135405D01*
X149790Y135422D01*
X149888Y135443D01*
X149984Y135468D01*
X150079Y135496D01*
X150173Y135528D01*
X150266Y135563D01*
X150358Y135602D01*
X150448Y135645D01*
X150536Y135690D01*
X150623Y135740D01*
X150707Y135792D01*
X150790Y135848D01*
X150870Y135906D01*
X150948Y135968D01*
X151023Y136033D01*
X151096Y136101D01*
X151166Y136171D01*
X151234Y136244D01*
X151299Y136319D01*
X151361Y136397D01*
X151419Y136477D01*
X151475Y136560D01*
X151527Y136644D01*
X151577Y136731D01*
X151622Y136819D01*
X151665Y136909D01*
X151704Y137001D01*
X151739Y137093D01*
X151771Y137188D01*
X151799Y137283D01*
X151824Y137379D01*
X151845Y137477D01*
X151862Y137575D01*
X151875Y137673D01*
X151884Y137772D01*
X151890Y137872D01*
X151892Y137971D01*
X151892Y141866D01*
X151892Y147567D02*
X140208Y147567D01*
X140208Y154058D02*
X151892Y147567D01*
X151892Y154058D02*
X140208Y154058D01*
X140208Y159759D02*
X151892Y159759D01*
X151892Y163004D01*
X151890Y163117D01*
X151884Y163230D01*
X151874Y163343D01*
X151860Y163456D01*
X151843Y163568D01*
X151821Y163679D01*
X151796Y163789D01*
X151766Y163899D01*
X151733Y164007D01*
X151696Y164114D01*
X151656Y164220D01*
X151611Y164324D01*
X151563Y164427D01*
X151512Y164528D01*
X151457Y164627D01*
X151399Y164724D01*
X151337Y164819D01*
X151272Y164912D01*
X151204Y165002D01*
X151133Y165090D01*
X151058Y165176D01*
X150981Y165259D01*
X150901Y165339D01*
X150818Y165416D01*
X150732Y165491D01*
X150644Y165562D01*
X150554Y165630D01*
X150461Y165695D01*
X150366Y165757D01*
X150269Y165815D01*
X150170Y165870D01*
X150069Y165921D01*
X149966Y165969D01*
X149862Y166014D01*
X149756Y166054D01*
X149649Y166091D01*
X149541Y166124D01*
X149431Y166154D01*
X149321Y166179D01*
X149210Y166201D01*
X149098Y166218D01*
X148985Y166232D01*
X148872Y166242D01*
X148759Y166248D01*
X148646Y166250D01*
X143454Y166250D01*
X143341Y166248D01*
X143228Y166242D01*
X143115Y166232D01*
X143002Y166218D01*
X142890Y166201D01*
X142779Y166179D01*
X142669Y166154D01*
X142559Y166124D01*
X142451Y166091D01*
X142344Y166054D01*
X142238Y166014D01*
X142134Y165969D01*
X142031Y165921D01*
X141930Y165870D01*
X141831Y165815D01*
X141734Y165757D01*
X141639Y165695D01*
X141546Y165630D01*
X141456Y165562D01*
X141368Y165491D01*
X141282Y165416D01*
X141199Y165339D01*
X141119Y165259D01*
X141042Y165176D01*
X140967Y165090D01*
X140896Y165002D01*
X140828Y164912D01*
X140763Y164819D01*
X140701Y164724D01*
X140643Y164627D01*
X140588Y164528D01*
X140537Y164427D01*
X140489Y164324D01*
X140444Y164220D01*
X140404Y164114D01*
X140367Y164007D01*
X140334Y163899D01*
X140304Y163789D01*
X140279Y163679D01*
X140257Y163568D01*
X140240Y163456D01*
X140226Y163343D01*
X140216Y163230D01*
X140210Y163117D01*
X140208Y163004D01*
X140208Y159759D01*
X79365Y28137D02*
X77874Y26885D01*
X82046Y21913D01*
X85030Y24416D01*
X85105Y24482D01*
X85177Y24550D01*
X85247Y24621D01*
X85314Y24694D01*
X85378Y24770D01*
X85439Y24849D01*
X85497Y24930D01*
X85552Y25013D01*
X85604Y25097D01*
X85652Y25184D01*
X85697Y25273D01*
X85739Y25363D01*
X85777Y25455D01*
X85812Y25548D01*
X85843Y25643D01*
X85870Y25738D01*
X85894Y25835D01*
X85914Y25932D01*
X85930Y26031D01*
X85942Y26129D01*
X85951Y26228D01*
X85956Y26328D01*
X85957Y26427D01*
X85954Y26527D01*
X85948Y26626D01*
X85937Y26725D01*
X85923Y26823D01*
X85905Y26921D01*
X85884Y27018D01*
X85858Y27114D01*
X85829Y27209D01*
X85797Y27303D01*
X85760Y27396D01*
X85721Y27487D01*
X85678Y27577D01*
X85631Y27665D01*
X85581Y27751D01*
X85528Y27835D01*
X85472Y27917D01*
X85412Y27996D01*
X85350Y28074D01*
X81177Y33047D01*
X81112Y33122D01*
X81044Y33195D01*
X80973Y33264D01*
X80899Y33331D01*
X80823Y33396D01*
X80745Y33457D01*
X80664Y33515D01*
X80581Y33570D01*
X80496Y33622D01*
X80409Y33670D01*
X80320Y33715D01*
X80230Y33757D01*
X80138Y33795D01*
X80045Y33830D01*
X79950Y33861D01*
X79855Y33888D01*
X79758Y33912D01*
X79661Y33932D01*
X79563Y33948D01*
X79464Y33960D01*
X79365Y33969D01*
X79265Y33974D01*
X79166Y33975D01*
X79066Y33972D01*
X78967Y33966D01*
X78868Y33955D01*
X78770Y33941D01*
X78672Y33923D01*
X78575Y33902D01*
X78479Y33876D01*
X78383Y33847D01*
X78289Y33815D01*
X78197Y33778D01*
X78106Y33739D01*
X78016Y33695D01*
X77928Y33649D01*
X77842Y33599D01*
X77758Y33546D01*
X77676Y33489D01*
X77596Y33430D01*
X77519Y33367D01*
X74536Y30863D01*
X70169Y27199D02*
X77679Y18248D01*
X72707Y14076D02*
X70169Y27199D01*
X65196Y23026D02*
X72707Y14076D01*
X68339Y10412D02*
X60829Y19362D01*
X58343Y17276D01*
X58343Y17277D02*
X58257Y17202D01*
X58174Y17125D01*
X58094Y17045D01*
X58017Y16962D01*
X57942Y16877D01*
X57871Y16788D01*
X57803Y16698D01*
X57738Y16605D01*
X57676Y16510D01*
X57618Y16413D01*
X57563Y16314D01*
X57512Y16213D01*
X57464Y16110D01*
X57419Y16006D01*
X57379Y15900D01*
X57342Y15793D01*
X57309Y15685D01*
X57279Y15575D01*
X57254Y15465D01*
X57232Y15354D01*
X57215Y15242D01*
X57201Y15129D01*
X57191Y15016D01*
X57185Y14903D01*
X57183Y14790D01*
X57185Y14677D01*
X57191Y14564D01*
X57201Y14451D01*
X57215Y14338D01*
X57232Y14226D01*
X57254Y14115D01*
X57279Y14005D01*
X57309Y13895D01*
X57342Y13787D01*
X57379Y13680D01*
X57419Y13574D01*
X57464Y13470D01*
X57512Y13367D01*
X57563Y13266D01*
X57618Y13167D01*
X57676Y13070D01*
X57738Y12975D01*
X57803Y12882D01*
X57871Y12792D01*
X57942Y12704D01*
X57943Y12703D02*
X61281Y8725D01*
X61280Y8725D02*
X61355Y8639D01*
X61432Y8556D01*
X61512Y8476D01*
X61595Y8399D01*
X61681Y8324D01*
X61769Y8253D01*
X61859Y8185D01*
X61952Y8120D01*
X62047Y8058D01*
X62144Y8000D01*
X62243Y7945D01*
X62344Y7894D01*
X62447Y7846D01*
X62551Y7801D01*
X62657Y7761D01*
X62764Y7724D01*
X62872Y7691D01*
X62982Y7661D01*
X63092Y7636D01*
X63203Y7614D01*
X63315Y7597D01*
X63428Y7583D01*
X63541Y7573D01*
X63654Y7567D01*
X63767Y7565D01*
X63880Y7567D01*
X63993Y7573D01*
X64106Y7583D01*
X64219Y7597D01*
X64331Y7614D01*
X64442Y7636D01*
X64552Y7661D01*
X64662Y7691D01*
X64770Y7724D01*
X64877Y7761D01*
X64983Y7801D01*
X65087Y7846D01*
X65190Y7894D01*
X65291Y7945D01*
X65390Y8000D01*
X65487Y8058D01*
X65582Y8120D01*
X65675Y8185D01*
X65765Y8253D01*
X65854Y8324D01*
X65853Y8325D02*
X68339Y10412D01*
X-62142Y14921D02*
X-63737Y16038D01*
X-67460Y10721D01*
X-64270Y8487D01*
X-64269Y8487D02*
X-64186Y8432D01*
X-64102Y8380D01*
X-64015Y8331D01*
X-63927Y8285D01*
X-63837Y8243D01*
X-63745Y8204D01*
X-63652Y8169D01*
X-63558Y8137D01*
X-63463Y8109D01*
X-63366Y8085D01*
X-63269Y8064D01*
X-63171Y8048D01*
X-63072Y8035D01*
X-62973Y8025D01*
X-62874Y8020D01*
X-62774Y8018D01*
X-62675Y8020D01*
X-62576Y8026D01*
X-62477Y8036D01*
X-62378Y8049D01*
X-62280Y8067D01*
X-62183Y8088D01*
X-62087Y8112D01*
X-61991Y8141D01*
X-61897Y8173D01*
X-61804Y8208D01*
X-61713Y8247D01*
X-61623Y8290D01*
X-61535Y8336D01*
X-61449Y8385D01*
X-61364Y8438D01*
X-61282Y8494D01*
X-61202Y8553D01*
X-61124Y8615D01*
X-61049Y8680D01*
X-60976Y8747D01*
X-60906Y8818D01*
X-60838Y8891D01*
X-60774Y8967D01*
X-60712Y9045D01*
X-60653Y9125D01*
X-60653Y9124D02*
X-56930Y14441D01*
X-56930Y14442D02*
X-56875Y14525D01*
X-56823Y14609D01*
X-56774Y14696D01*
X-56728Y14784D01*
X-56686Y14874D01*
X-56647Y14966D01*
X-56612Y15059D01*
X-56580Y15153D01*
X-56552Y15248D01*
X-56528Y15345D01*
X-56507Y15442D01*
X-56491Y15540D01*
X-56478Y15639D01*
X-56468Y15738D01*
X-56463Y15837D01*
X-56461Y15937D01*
X-56463Y16036D01*
X-56469Y16135D01*
X-56479Y16234D01*
X-56492Y16333D01*
X-56510Y16431D01*
X-56531Y16528D01*
X-56555Y16624D01*
X-56584Y16720D01*
X-56616Y16814D01*
X-56651Y16907D01*
X-56690Y16998D01*
X-56733Y17088D01*
X-56779Y17176D01*
X-56828Y17262D01*
X-56881Y17347D01*
X-56937Y17429D01*
X-56996Y17509D01*
X-57058Y17587D01*
X-57123Y17662D01*
X-57190Y17735D01*
X-57261Y17805D01*
X-57334Y17873D01*
X-57410Y17937D01*
X-57488Y17999D01*
X-57568Y18058D01*
X-60758Y20292D01*
X-65428Y23561D02*
X-72130Y13990D01*
X-77447Y17714D02*
X-65428Y23561D01*
X-70745Y27285D02*
X-77447Y17714D01*
X-82117Y20983D02*
X-75415Y30554D01*
X-78074Y32416D01*
X-78168Y32479D01*
X-78264Y32539D01*
X-78362Y32596D01*
X-78462Y32649D01*
X-78564Y32699D01*
X-78668Y32745D01*
X-78773Y32787D01*
X-78879Y32826D01*
X-78987Y32861D01*
X-79096Y32892D01*
X-79206Y32920D01*
X-79317Y32943D01*
X-79428Y32963D01*
X-79540Y32979D01*
X-79653Y32991D01*
X-79766Y32999D01*
X-79879Y33003D01*
X-79993Y33003D01*
X-80106Y32999D01*
X-80219Y32991D01*
X-80332Y32979D01*
X-80444Y32963D01*
X-80555Y32943D01*
X-80666Y32920D01*
X-80776Y32892D01*
X-80885Y32861D01*
X-80993Y32826D01*
X-81099Y32787D01*
X-81204Y32745D01*
X-81308Y32699D01*
X-81410Y32649D01*
X-81510Y32596D01*
X-81608Y32539D01*
X-81704Y32479D01*
X-81798Y32416D01*
X-81889Y32349D01*
X-81979Y32280D01*
X-82066Y32207D01*
X-82150Y32131D01*
X-82231Y32052D01*
X-82310Y31971D01*
X-82386Y31887D01*
X-82459Y31800D01*
X-82528Y31711D01*
X-82595Y31619D01*
X-82594Y31619D02*
X-85573Y27365D01*
X-85573Y27366D02*
X-85636Y27272D01*
X-85696Y27176D01*
X-85753Y27078D01*
X-85806Y26978D01*
X-85856Y26876D01*
X-85902Y26772D01*
X-85944Y26667D01*
X-85983Y26561D01*
X-86018Y26453D01*
X-86049Y26344D01*
X-86077Y26234D01*
X-86100Y26123D01*
X-86120Y26012D01*
X-86136Y25900D01*
X-86148Y25787D01*
X-86156Y25674D01*
X-86160Y25561D01*
X-86160Y25447D01*
X-86156Y25334D01*
X-86148Y25221D01*
X-86136Y25108D01*
X-86120Y24996D01*
X-86100Y24885D01*
X-86077Y24774D01*
X-86049Y24664D01*
X-86018Y24555D01*
X-85983Y24447D01*
X-85944Y24341D01*
X-85902Y24236D01*
X-85856Y24132D01*
X-85806Y24030D01*
X-85753Y23930D01*
X-85696Y23832D01*
X-85636Y23736D01*
X-85573Y23642D01*
X-85506Y23550D01*
X-85437Y23461D01*
X-85364Y23374D01*
X-85288Y23290D01*
X-85209Y23209D01*
X-85128Y23130D01*
X-85044Y23054D01*
X-84957Y22981D01*
X-84867Y22912D01*
X-84776Y22845D01*
X-82117Y20983D01*
X-145401Y139919D02*
X-145401Y141866D01*
X-151892Y141866D01*
X-151892Y137971D01*
X-151890Y137872D01*
X-151884Y137772D01*
X-151875Y137673D01*
X-151862Y137575D01*
X-151845Y137477D01*
X-151824Y137379D01*
X-151799Y137283D01*
X-151771Y137188D01*
X-151739Y137094D01*
X-151704Y137001D01*
X-151665Y136909D01*
X-151622Y136819D01*
X-151577Y136731D01*
X-151527Y136644D01*
X-151475Y136560D01*
X-151419Y136477D01*
X-151361Y136397D01*
X-151299Y136319D01*
X-151234Y136244D01*
X-151166Y136171D01*
X-151096Y136101D01*
X-151023Y136033D01*
X-150948Y135968D01*
X-150870Y135906D01*
X-150790Y135848D01*
X-150707Y135792D01*
X-150623Y135740D01*
X-150536Y135690D01*
X-150448Y135645D01*
X-150358Y135602D01*
X-150266Y135563D01*
X-150173Y135528D01*
X-150079Y135496D01*
X-149984Y135468D01*
X-149888Y135443D01*
X-149790Y135422D01*
X-149692Y135405D01*
X-149594Y135392D01*
X-149495Y135383D01*
X-149395Y135377D01*
X-149296Y135375D01*
X-142804Y135375D01*
X-142705Y135377D01*
X-142605Y135383D01*
X-142506Y135392D01*
X-142408Y135405D01*
X-142310Y135423D01*
X-142212Y135443D01*
X-142116Y135468D01*
X-142020Y135496D01*
X-141926Y135528D01*
X-141833Y135563D01*
X-141742Y135602D01*
X-141652Y135645D01*
X-141563Y135690D01*
X-141477Y135740D01*
X-141392Y135792D01*
X-141310Y135848D01*
X-141230Y135907D01*
X-141152Y135968D01*
X-141076Y136033D01*
X-141003Y136101D01*
X-140933Y136171D01*
X-140865Y136244D01*
X-140800Y136320D01*
X-140739Y136398D01*
X-140680Y136478D01*
X-140624Y136560D01*
X-140572Y136645D01*
X-140523Y136731D01*
X-140477Y136820D01*
X-140434Y136910D01*
X-140395Y137001D01*
X-140360Y137094D01*
X-140328Y137188D01*
X-140300Y137284D01*
X-140275Y137380D01*
X-140255Y137478D01*
X-140237Y137576D01*
X-140224Y137674D01*
X-140215Y137773D01*
X-140209Y137872D01*
X-140207Y137972D01*
X-140208Y137971D02*
X-140208Y141866D01*
X-140208Y147567D02*
X-151892Y147567D01*
X-151892Y154058D02*
X-140208Y147567D01*
X-140208Y154058D02*
X-151892Y154058D01*
X-151892Y159759D02*
X-140208Y159759D01*
X-140208Y163004D01*
X-140210Y163117D01*
X-140216Y163230D01*
X-140226Y163343D01*
X-140240Y163456D01*
X-140257Y163568D01*
X-140279Y163679D01*
X-140304Y163789D01*
X-140334Y163899D01*
X-140367Y164007D01*
X-140404Y164114D01*
X-140444Y164220D01*
X-140489Y164324D01*
X-140537Y164427D01*
X-140588Y164528D01*
X-140643Y164627D01*
X-140701Y164724D01*
X-140763Y164819D01*
X-140828Y164912D01*
X-140896Y165002D01*
X-140967Y165090D01*
X-141042Y165176D01*
X-141119Y165259D01*
X-141199Y165339D01*
X-141282Y165416D01*
X-141368Y165491D01*
X-141456Y165562D01*
X-141546Y165630D01*
X-141639Y165695D01*
X-141734Y165757D01*
X-141831Y165815D01*
X-141930Y165870D01*
X-142031Y165921D01*
X-142134Y165969D01*
X-142238Y166014D01*
X-142344Y166054D01*
X-142451Y166091D01*
X-142559Y166124D01*
X-142669Y166154D01*
X-142779Y166179D01*
X-142890Y166201D01*
X-143002Y166218D01*
X-143115Y166232D01*
X-143228Y166242D01*
X-143341Y166248D01*
X-143454Y166250D01*
X-148646Y166250D01*
X-148646Y166251D02*
X-148759Y166249D01*
X-148872Y166243D01*
X-148985Y166233D01*
X-149098Y166219D01*
X-149210Y166202D01*
X-149321Y166180D01*
X-149431Y166155D01*
X-149541Y166125D01*
X-149649Y166092D01*
X-149756Y166055D01*
X-149862Y166015D01*
X-149966Y165970D01*
X-150069Y165922D01*
X-150170Y165871D01*
X-150269Y165816D01*
X-150366Y165758D01*
X-150461Y165696D01*
X-150554Y165631D01*
X-150644Y165563D01*
X-150732Y165492D01*
X-150818Y165417D01*
X-150901Y165340D01*
X-150981Y165260D01*
X-151058Y165177D01*
X-151133Y165091D01*
X-151204Y165003D01*
X-151272Y164913D01*
X-151337Y164820D01*
X-151399Y164725D01*
X-151457Y164628D01*
X-151512Y164529D01*
X-151563Y164428D01*
X-151611Y164325D01*
X-151656Y164221D01*
X-151696Y164115D01*
X-151733Y164008D01*
X-151766Y163900D01*
X-151796Y163790D01*
X-151821Y163680D01*
X-151843Y163569D01*
X-151860Y163457D01*
X-151874Y163344D01*
X-151884Y163231D01*
X-151890Y163118D01*
X-151892Y163005D01*
X-151892Y163004D02*
X-151892Y159759D01*
D11*
X108186Y219710D02*
X108186Y237490D01*
X103248Y237490D01*
X103108Y237488D01*
X102969Y237482D01*
X102829Y237472D01*
X102690Y237458D01*
X102551Y237441D01*
X102413Y237419D01*
X102276Y237393D01*
X102139Y237364D01*
X102003Y237331D01*
X101869Y237294D01*
X101735Y237253D01*
X101603Y237208D01*
X101471Y237159D01*
X101342Y237107D01*
X101214Y237052D01*
X101087Y236992D01*
X100962Y236929D01*
X100839Y236863D01*
X100718Y236793D01*
X100599Y236720D01*
X100482Y236643D01*
X100368Y236563D01*
X100255Y236480D01*
X100145Y236394D01*
X100038Y236304D01*
X99933Y236212D01*
X99831Y236117D01*
X99731Y236019D01*
X99634Y235918D01*
X99540Y235814D01*
X99450Y235708D01*
X99362Y235599D01*
X99277Y235488D01*
X99196Y235374D01*
X99117Y235259D01*
X99042Y235141D01*
X98971Y235021D01*
X98903Y234898D01*
X98838Y234775D01*
X98777Y234649D01*
X98719Y234521D01*
X98665Y234393D01*
X98615Y234262D01*
X98568Y234130D01*
X98525Y233997D01*
X98486Y233863D01*
X98451Y233728D01*
X98420Y233592D01*
X98392Y233454D01*
X98369Y233317D01*
X98349Y233178D01*
X98333Y233039D01*
X98321Y232900D01*
X98313Y232761D01*
X98309Y232621D01*
X98309Y232481D01*
X98313Y232341D01*
X98321Y232202D01*
X98333Y232063D01*
X98349Y231924D01*
X98369Y231785D01*
X98392Y231648D01*
X98420Y231510D01*
X98451Y231374D01*
X98486Y231239D01*
X98525Y231105D01*
X98568Y230972D01*
X98615Y230840D01*
X98665Y230709D01*
X98719Y230581D01*
X98777Y230453D01*
X98838Y230327D01*
X98903Y230204D01*
X98971Y230081D01*
X99042Y229961D01*
X99117Y229843D01*
X99196Y229728D01*
X99277Y229614D01*
X99362Y229503D01*
X99450Y229394D01*
X99540Y229288D01*
X99634Y229184D01*
X99731Y229083D01*
X99831Y228985D01*
X99933Y228890D01*
X100038Y228798D01*
X100145Y228708D01*
X100255Y228622D01*
X100368Y228539D01*
X100482Y228459D01*
X100599Y228382D01*
X100718Y228309D01*
X100839Y228239D01*
X100962Y228173D01*
X101087Y228110D01*
X101214Y228050D01*
X101342Y227995D01*
X101471Y227943D01*
X101603Y227894D01*
X101735Y227849D01*
X101869Y227808D01*
X102003Y227771D01*
X102139Y227738D01*
X102276Y227709D01*
X102413Y227683D01*
X102551Y227661D01*
X102690Y227644D01*
X102829Y227630D01*
X102969Y227620D01*
X103108Y227614D01*
X103248Y227612D01*
X108186Y227612D01*
X92191Y233539D02*
X87252Y237490D01*
X87252Y219710D01*
X82314Y219710D02*
X92191Y219710D01*
X109150Y99378D02*
X109150Y81598D01*
X109150Y99378D02*
X104211Y99378D01*
X104071Y99376D01*
X103932Y99370D01*
X103792Y99360D01*
X103653Y99346D01*
X103514Y99329D01*
X103376Y99307D01*
X103239Y99281D01*
X103102Y99252D01*
X102966Y99219D01*
X102832Y99182D01*
X102698Y99141D01*
X102566Y99096D01*
X102434Y99047D01*
X102305Y98995D01*
X102177Y98940D01*
X102050Y98880D01*
X101925Y98817D01*
X101802Y98751D01*
X101681Y98681D01*
X101562Y98608D01*
X101445Y98531D01*
X101331Y98451D01*
X101218Y98368D01*
X101108Y98282D01*
X101001Y98192D01*
X100896Y98100D01*
X100794Y98005D01*
X100694Y97907D01*
X100597Y97806D01*
X100503Y97702D01*
X100413Y97596D01*
X100325Y97487D01*
X100240Y97376D01*
X100159Y97262D01*
X100080Y97147D01*
X100005Y97029D01*
X99934Y96908D01*
X99866Y96786D01*
X99801Y96663D01*
X99740Y96537D01*
X99682Y96409D01*
X99628Y96281D01*
X99578Y96150D01*
X99531Y96018D01*
X99488Y95885D01*
X99449Y95751D01*
X99414Y95616D01*
X99383Y95480D01*
X99355Y95342D01*
X99332Y95205D01*
X99312Y95066D01*
X99296Y94927D01*
X99284Y94788D01*
X99276Y94649D01*
X99272Y94509D01*
X99272Y94369D01*
X99276Y94229D01*
X99284Y94090D01*
X99296Y93951D01*
X99312Y93812D01*
X99332Y93673D01*
X99355Y93536D01*
X99383Y93398D01*
X99414Y93262D01*
X99449Y93127D01*
X99488Y92993D01*
X99531Y92860D01*
X99578Y92728D01*
X99628Y92597D01*
X99682Y92469D01*
X99740Y92341D01*
X99801Y92215D01*
X99866Y92092D01*
X99934Y91969D01*
X100005Y91849D01*
X100080Y91731D01*
X100159Y91616D01*
X100240Y91502D01*
X100325Y91391D01*
X100413Y91282D01*
X100503Y91176D01*
X100597Y91072D01*
X100694Y90971D01*
X100794Y90873D01*
X100896Y90778D01*
X101001Y90686D01*
X101108Y90596D01*
X101218Y90510D01*
X101331Y90427D01*
X101445Y90347D01*
X101562Y90270D01*
X101681Y90197D01*
X101802Y90127D01*
X101925Y90061D01*
X102050Y89998D01*
X102177Y89938D01*
X102305Y89883D01*
X102434Y89831D01*
X102566Y89782D01*
X102698Y89737D01*
X102832Y89696D01*
X102966Y89659D01*
X103102Y89626D01*
X103239Y89597D01*
X103376Y89571D01*
X103514Y89549D01*
X103653Y89532D01*
X103792Y89518D01*
X103932Y89508D01*
X104071Y89502D01*
X104211Y89500D01*
X109150Y89500D01*
X87722Y99378D02*
X87590Y99376D01*
X87459Y99370D01*
X87327Y99360D01*
X87196Y99347D01*
X87066Y99329D01*
X86936Y99308D01*
X86806Y99283D01*
X86678Y99254D01*
X86550Y99221D01*
X86424Y99184D01*
X86298Y99144D01*
X86174Y99100D01*
X86051Y99052D01*
X85930Y99001D01*
X85810Y98946D01*
X85692Y98888D01*
X85576Y98826D01*
X85462Y98760D01*
X85349Y98692D01*
X85239Y98620D01*
X85131Y98545D01*
X85025Y98466D01*
X84921Y98385D01*
X84820Y98300D01*
X84722Y98213D01*
X84626Y98122D01*
X84533Y98029D01*
X84442Y97933D01*
X84355Y97835D01*
X84270Y97734D01*
X84189Y97630D01*
X84110Y97524D01*
X84035Y97416D01*
X83963Y97306D01*
X83895Y97193D01*
X83829Y97079D01*
X83767Y96963D01*
X83709Y96845D01*
X83654Y96725D01*
X83603Y96604D01*
X83555Y96481D01*
X83511Y96357D01*
X83471Y96231D01*
X83434Y96105D01*
X83401Y95977D01*
X83372Y95849D01*
X83347Y95719D01*
X83326Y95589D01*
X83308Y95459D01*
X83295Y95328D01*
X83285Y95196D01*
X83279Y95065D01*
X83277Y94933D01*
X87722Y99378D02*
X87872Y99376D01*
X88021Y99370D01*
X88170Y99360D01*
X88319Y99347D01*
X88468Y99329D01*
X88616Y99308D01*
X88764Y99282D01*
X88910Y99253D01*
X89056Y99220D01*
X89201Y99183D01*
X89345Y99142D01*
X89488Y99098D01*
X89630Y99050D01*
X89770Y98998D01*
X89909Y98943D01*
X90047Y98884D01*
X90182Y98821D01*
X90317Y98755D01*
X90449Y98685D01*
X90579Y98612D01*
X90708Y98535D01*
X90835Y98455D01*
X90959Y98372D01*
X91081Y98286D01*
X91201Y98196D01*
X91318Y98103D01*
X91433Y98008D01*
X91546Y97909D01*
X91656Y97807D01*
X91763Y97703D01*
X91867Y97596D01*
X91969Y97486D01*
X92067Y97373D01*
X92163Y97258D01*
X92255Y97140D01*
X92345Y97020D01*
X92431Y96898D01*
X92514Y96774D01*
X92594Y96647D01*
X92670Y96519D01*
X92743Y96388D01*
X92813Y96255D01*
X92879Y96121D01*
X92941Y95985D01*
X93000Y95848D01*
X93056Y95709D01*
X93107Y95568D01*
X93155Y95427D01*
X84760Y91476D02*
X84664Y91569D01*
X84572Y91665D01*
X84482Y91764D01*
X84395Y91865D01*
X84311Y91968D01*
X84229Y92073D01*
X84151Y92181D01*
X84076Y92291D01*
X84003Y92403D01*
X83934Y92517D01*
X83868Y92633D01*
X83806Y92751D01*
X83747Y92870D01*
X83691Y92991D01*
X83638Y93114D01*
X83589Y93238D01*
X83544Y93363D01*
X83501Y93490D01*
X83463Y93617D01*
X83428Y93746D01*
X83397Y93875D01*
X83369Y94006D01*
X83345Y94137D01*
X83324Y94269D01*
X83308Y94401D01*
X83295Y94534D01*
X83285Y94667D01*
X83280Y94800D01*
X83278Y94933D01*
X84759Y91475D02*
X93155Y81598D01*
X83277Y81598D01*
X70908Y88512D02*
X70908Y94439D01*
X70908Y88512D02*
X67450Y84067D01*
X70908Y88512D02*
X74365Y84067D01*
X70908Y88512D02*
X65475Y90488D01*
X70908Y88512D02*
X76340Y90488D01*
X9761Y35878D02*
X9761Y18098D01*
X9761Y35878D02*
X4823Y35878D01*
X4683Y35876D01*
X4544Y35870D01*
X4404Y35860D01*
X4265Y35846D01*
X4126Y35829D01*
X3988Y35807D01*
X3851Y35781D01*
X3714Y35752D01*
X3578Y35719D01*
X3444Y35682D01*
X3310Y35641D01*
X3178Y35596D01*
X3046Y35547D01*
X2917Y35495D01*
X2789Y35440D01*
X2662Y35380D01*
X2537Y35317D01*
X2414Y35251D01*
X2293Y35181D01*
X2174Y35108D01*
X2057Y35031D01*
X1943Y34951D01*
X1830Y34868D01*
X1720Y34782D01*
X1613Y34692D01*
X1508Y34600D01*
X1406Y34505D01*
X1306Y34407D01*
X1209Y34306D01*
X1115Y34202D01*
X1025Y34096D01*
X937Y33987D01*
X852Y33876D01*
X771Y33762D01*
X692Y33647D01*
X617Y33529D01*
X546Y33408D01*
X478Y33286D01*
X413Y33163D01*
X352Y33037D01*
X294Y32909D01*
X240Y32781D01*
X190Y32650D01*
X143Y32518D01*
X100Y32385D01*
X61Y32251D01*
X26Y32116D01*
X-5Y31980D01*
X-33Y31842D01*
X-56Y31705D01*
X-76Y31566D01*
X-92Y31427D01*
X-104Y31288D01*
X-112Y31149D01*
X-116Y31009D01*
X-116Y30869D01*
X-112Y30729D01*
X-104Y30590D01*
X-92Y30451D01*
X-76Y30312D01*
X-56Y30173D01*
X-33Y30036D01*
X-5Y29898D01*
X26Y29762D01*
X61Y29627D01*
X100Y29493D01*
X143Y29360D01*
X190Y29228D01*
X240Y29097D01*
X294Y28969D01*
X352Y28841D01*
X413Y28715D01*
X478Y28592D01*
X546Y28469D01*
X617Y28349D01*
X692Y28231D01*
X771Y28116D01*
X852Y28002D01*
X937Y27891D01*
X1025Y27782D01*
X1115Y27676D01*
X1209Y27572D01*
X1306Y27471D01*
X1406Y27373D01*
X1508Y27278D01*
X1613Y27186D01*
X1720Y27096D01*
X1830Y27010D01*
X1943Y26927D01*
X2057Y26847D01*
X2174Y26770D01*
X2293Y26697D01*
X2414Y26627D01*
X2537Y26561D01*
X2662Y26498D01*
X2789Y26438D01*
X2917Y26383D01*
X3046Y26331D01*
X3178Y26282D01*
X3310Y26237D01*
X3444Y26196D01*
X3578Y26159D01*
X3714Y26126D01*
X3851Y26097D01*
X3988Y26071D01*
X4126Y26049D01*
X4265Y26032D01*
X4404Y26018D01*
X4544Y26008D01*
X4683Y26002D01*
X4823Y26000D01*
X9761Y26000D01*
X-6234Y18098D02*
X-11173Y18098D01*
X-11173Y18097D02*
X-11313Y18099D01*
X-11452Y18105D01*
X-11592Y18115D01*
X-11731Y18129D01*
X-11870Y18146D01*
X-12008Y18168D01*
X-12145Y18194D01*
X-12282Y18223D01*
X-12418Y18256D01*
X-12552Y18293D01*
X-12686Y18334D01*
X-12818Y18379D01*
X-12950Y18428D01*
X-13079Y18480D01*
X-13207Y18535D01*
X-13334Y18595D01*
X-13459Y18658D01*
X-13582Y18724D01*
X-13703Y18794D01*
X-13822Y18867D01*
X-13939Y18944D01*
X-14053Y19024D01*
X-14166Y19107D01*
X-14276Y19193D01*
X-14383Y19283D01*
X-14488Y19375D01*
X-14590Y19470D01*
X-14690Y19568D01*
X-14787Y19669D01*
X-14881Y19773D01*
X-14971Y19879D01*
X-15059Y19988D01*
X-15144Y20099D01*
X-15225Y20213D01*
X-15304Y20328D01*
X-15379Y20446D01*
X-15450Y20566D01*
X-15518Y20689D01*
X-15583Y20812D01*
X-15644Y20938D01*
X-15702Y21066D01*
X-15756Y21194D01*
X-15806Y21325D01*
X-15853Y21457D01*
X-15896Y21590D01*
X-15935Y21724D01*
X-15970Y21859D01*
X-16001Y21995D01*
X-16029Y22133D01*
X-16052Y22270D01*
X-16072Y22409D01*
X-16088Y22548D01*
X-16100Y22687D01*
X-16108Y22826D01*
X-16112Y22966D01*
X-16112Y23106D01*
X-16108Y23246D01*
X-16100Y23385D01*
X-16088Y23524D01*
X-16072Y23663D01*
X-16052Y23802D01*
X-16029Y23939D01*
X-16001Y24077D01*
X-15970Y24213D01*
X-15935Y24348D01*
X-15896Y24482D01*
X-15853Y24615D01*
X-15806Y24747D01*
X-15756Y24878D01*
X-15702Y25006D01*
X-15644Y25134D01*
X-15583Y25260D01*
X-15518Y25383D01*
X-15450Y25505D01*
X-15379Y25626D01*
X-15304Y25744D01*
X-15225Y25859D01*
X-15144Y25973D01*
X-15059Y26084D01*
X-14971Y26193D01*
X-14881Y26299D01*
X-14787Y26403D01*
X-14690Y26504D01*
X-14590Y26602D01*
X-14488Y26697D01*
X-14383Y26789D01*
X-14276Y26879D01*
X-14166Y26965D01*
X-14053Y27048D01*
X-13939Y27128D01*
X-13822Y27205D01*
X-13703Y27278D01*
X-13582Y27348D01*
X-13459Y27414D01*
X-13334Y27477D01*
X-13207Y27537D01*
X-13079Y27592D01*
X-12950Y27644D01*
X-12818Y27693D01*
X-12686Y27738D01*
X-12552Y27779D01*
X-12418Y27816D01*
X-12282Y27849D01*
X-12145Y27878D01*
X-12008Y27904D01*
X-11870Y27926D01*
X-11731Y27943D01*
X-11592Y27957D01*
X-11452Y27967D01*
X-11313Y27973D01*
X-11173Y27975D01*
X-12160Y35878D02*
X-6234Y35878D01*
X-12160Y35877D02*
X-12284Y35875D01*
X-12408Y35869D01*
X-12532Y35859D01*
X-12655Y35846D01*
X-12778Y35828D01*
X-12900Y35807D01*
X-13022Y35782D01*
X-13143Y35753D01*
X-13262Y35720D01*
X-13381Y35684D01*
X-13498Y35643D01*
X-13614Y35600D01*
X-13729Y35552D01*
X-13842Y35501D01*
X-13954Y35446D01*
X-14063Y35388D01*
X-14171Y35327D01*
X-14277Y35262D01*
X-14381Y35194D01*
X-14482Y35122D01*
X-14582Y35048D01*
X-14678Y34970D01*
X-14773Y34890D01*
X-14865Y34806D01*
X-14954Y34720D01*
X-15040Y34631D01*
X-15124Y34539D01*
X-15204Y34444D01*
X-15282Y34348D01*
X-15356Y34248D01*
X-15428Y34147D01*
X-15496Y34043D01*
X-15561Y33937D01*
X-15622Y33829D01*
X-15680Y33720D01*
X-15735Y33608D01*
X-15786Y33495D01*
X-15834Y33380D01*
X-15877Y33264D01*
X-15918Y33147D01*
X-15954Y33028D01*
X-15987Y32909D01*
X-16016Y32788D01*
X-16041Y32666D01*
X-16062Y32544D01*
X-16080Y32421D01*
X-16093Y32298D01*
X-16103Y32174D01*
X-16109Y32050D01*
X-16111Y31926D01*
X-16109Y31802D01*
X-16103Y31678D01*
X-16093Y31554D01*
X-16080Y31431D01*
X-16062Y31308D01*
X-16041Y31186D01*
X-16016Y31064D01*
X-15987Y30943D01*
X-15954Y30824D01*
X-15918Y30705D01*
X-15877Y30588D01*
X-15834Y30472D01*
X-15786Y30357D01*
X-15735Y30244D01*
X-15680Y30132D01*
X-15622Y30023D01*
X-15561Y29915D01*
X-15496Y29809D01*
X-15428Y29705D01*
X-15356Y29604D01*
X-15282Y29504D01*
X-15204Y29408D01*
X-15124Y29313D01*
X-15040Y29221D01*
X-14954Y29132D01*
X-14865Y29046D01*
X-14773Y28962D01*
X-14678Y28882D01*
X-14582Y28804D01*
X-14482Y28730D01*
X-14381Y28658D01*
X-14277Y28590D01*
X-14171Y28525D01*
X-14063Y28464D01*
X-13954Y28406D01*
X-13842Y28351D01*
X-13729Y28300D01*
X-13614Y28252D01*
X-13498Y28209D01*
X-13381Y28168D01*
X-13262Y28132D01*
X-13143Y28099D01*
X-13022Y28070D01*
X-12900Y28045D01*
X-12778Y28024D01*
X-12655Y28006D01*
X-12532Y27993D01*
X-12408Y27983D01*
X-12284Y27977D01*
X-12160Y27975D01*
X-8209Y27975D01*
X-90251Y91123D02*
X-90251Y108903D01*
X-95190Y108903D01*
X-95330Y108901D01*
X-95469Y108895D01*
X-95609Y108885D01*
X-95748Y108871D01*
X-95887Y108854D01*
X-96025Y108832D01*
X-96162Y108806D01*
X-96299Y108777D01*
X-96435Y108744D01*
X-96569Y108707D01*
X-96703Y108666D01*
X-96835Y108621D01*
X-96967Y108572D01*
X-97096Y108520D01*
X-97224Y108465D01*
X-97351Y108405D01*
X-97476Y108342D01*
X-97599Y108276D01*
X-97720Y108206D01*
X-97839Y108133D01*
X-97956Y108056D01*
X-98070Y107976D01*
X-98183Y107893D01*
X-98293Y107807D01*
X-98400Y107717D01*
X-98505Y107625D01*
X-98607Y107530D01*
X-98707Y107432D01*
X-98804Y107331D01*
X-98898Y107227D01*
X-98988Y107121D01*
X-99076Y107012D01*
X-99161Y106901D01*
X-99242Y106787D01*
X-99321Y106672D01*
X-99396Y106554D01*
X-99467Y106433D01*
X-99535Y106311D01*
X-99600Y106188D01*
X-99661Y106062D01*
X-99719Y105934D01*
X-99773Y105806D01*
X-99823Y105675D01*
X-99870Y105543D01*
X-99913Y105410D01*
X-99952Y105276D01*
X-99987Y105141D01*
X-100018Y105005D01*
X-100046Y104867D01*
X-100069Y104730D01*
X-100089Y104591D01*
X-100105Y104452D01*
X-100117Y104313D01*
X-100125Y104174D01*
X-100129Y104034D01*
X-100129Y103894D01*
X-100125Y103754D01*
X-100117Y103615D01*
X-100105Y103476D01*
X-100089Y103337D01*
X-100069Y103198D01*
X-100046Y103061D01*
X-100018Y102923D01*
X-99987Y102787D01*
X-99952Y102652D01*
X-99913Y102518D01*
X-99870Y102385D01*
X-99823Y102253D01*
X-99773Y102122D01*
X-99719Y101994D01*
X-99661Y101866D01*
X-99600Y101740D01*
X-99535Y101617D01*
X-99467Y101494D01*
X-99396Y101374D01*
X-99321Y101256D01*
X-99242Y101141D01*
X-99161Y101027D01*
X-99076Y100916D01*
X-98988Y100807D01*
X-98898Y100701D01*
X-98804Y100597D01*
X-98707Y100496D01*
X-98607Y100398D01*
X-98505Y100303D01*
X-98400Y100211D01*
X-98293Y100121D01*
X-98183Y100035D01*
X-98070Y99952D01*
X-97956Y99872D01*
X-97839Y99795D01*
X-97720Y99722D01*
X-97599Y99652D01*
X-97476Y99586D01*
X-97351Y99523D01*
X-97224Y99463D01*
X-97096Y99408D01*
X-96967Y99356D01*
X-96835Y99307D01*
X-96703Y99262D01*
X-96569Y99221D01*
X-96435Y99184D01*
X-96299Y99151D01*
X-96162Y99122D01*
X-96025Y99096D01*
X-95887Y99074D01*
X-95748Y99057D01*
X-95609Y99043D01*
X-95469Y99033D01*
X-95330Y99027D01*
X-95190Y99025D01*
X-90251Y99025D01*
X-106246Y95074D02*
X-110197Y108903D01*
X-106246Y95074D02*
X-116124Y95074D01*
X-113161Y99025D02*
X-113161Y91123D01*
X-82314Y221298D02*
X-82314Y239078D01*
X-87253Y239078D01*
X-87393Y239076D01*
X-87532Y239070D01*
X-87672Y239060D01*
X-87811Y239046D01*
X-87950Y239029D01*
X-88088Y239007D01*
X-88225Y238981D01*
X-88362Y238952D01*
X-88498Y238919D01*
X-88632Y238882D01*
X-88766Y238841D01*
X-88898Y238796D01*
X-89030Y238747D01*
X-89159Y238695D01*
X-89287Y238640D01*
X-89414Y238580D01*
X-89539Y238517D01*
X-89662Y238451D01*
X-89783Y238381D01*
X-89902Y238308D01*
X-90019Y238231D01*
X-90133Y238151D01*
X-90246Y238068D01*
X-90356Y237982D01*
X-90463Y237892D01*
X-90568Y237800D01*
X-90670Y237705D01*
X-90770Y237607D01*
X-90867Y237506D01*
X-90961Y237402D01*
X-91051Y237296D01*
X-91139Y237187D01*
X-91224Y237076D01*
X-91305Y236962D01*
X-91384Y236847D01*
X-91459Y236729D01*
X-91530Y236609D01*
X-91598Y236486D01*
X-91663Y236363D01*
X-91724Y236237D01*
X-91782Y236109D01*
X-91836Y235981D01*
X-91886Y235850D01*
X-91933Y235718D01*
X-91976Y235585D01*
X-92015Y235451D01*
X-92050Y235316D01*
X-92081Y235180D01*
X-92109Y235042D01*
X-92132Y234905D01*
X-92152Y234766D01*
X-92168Y234627D01*
X-92180Y234488D01*
X-92188Y234349D01*
X-92192Y234209D01*
X-92192Y234069D01*
X-92188Y233929D01*
X-92180Y233790D01*
X-92168Y233651D01*
X-92152Y233512D01*
X-92132Y233373D01*
X-92109Y233236D01*
X-92081Y233098D01*
X-92050Y232962D01*
X-92015Y232827D01*
X-91976Y232693D01*
X-91933Y232560D01*
X-91886Y232428D01*
X-91836Y232297D01*
X-91782Y232169D01*
X-91724Y232041D01*
X-91663Y231915D01*
X-91598Y231792D01*
X-91530Y231669D01*
X-91459Y231549D01*
X-91384Y231431D01*
X-91305Y231316D01*
X-91224Y231202D01*
X-91139Y231091D01*
X-91051Y230982D01*
X-90961Y230876D01*
X-90867Y230772D01*
X-90770Y230671D01*
X-90670Y230573D01*
X-90568Y230478D01*
X-90463Y230386D01*
X-90356Y230296D01*
X-90246Y230210D01*
X-90133Y230127D01*
X-90019Y230047D01*
X-89902Y229970D01*
X-89783Y229897D01*
X-89662Y229827D01*
X-89539Y229761D01*
X-89414Y229698D01*
X-89287Y229638D01*
X-89159Y229583D01*
X-89030Y229531D01*
X-88898Y229482D01*
X-88766Y229437D01*
X-88632Y229396D01*
X-88498Y229359D01*
X-88362Y229326D01*
X-88225Y229297D01*
X-88088Y229271D01*
X-87950Y229249D01*
X-87811Y229232D01*
X-87672Y229218D01*
X-87532Y229208D01*
X-87393Y229202D01*
X-87253Y229200D01*
X-82314Y229200D01*
X-98309Y221298D02*
X-104235Y221298D01*
X-104359Y221300D01*
X-104483Y221306D01*
X-104607Y221316D01*
X-104730Y221329D01*
X-104853Y221347D01*
X-104975Y221368D01*
X-105097Y221393D01*
X-105218Y221422D01*
X-105337Y221455D01*
X-105456Y221491D01*
X-105573Y221532D01*
X-105689Y221575D01*
X-105804Y221623D01*
X-105917Y221674D01*
X-106029Y221729D01*
X-106138Y221787D01*
X-106246Y221848D01*
X-106352Y221913D01*
X-106456Y221981D01*
X-106557Y222053D01*
X-106657Y222127D01*
X-106753Y222205D01*
X-106848Y222285D01*
X-106940Y222369D01*
X-107029Y222455D01*
X-107115Y222544D01*
X-107199Y222636D01*
X-107279Y222731D01*
X-107357Y222827D01*
X-107431Y222927D01*
X-107503Y223028D01*
X-107571Y223132D01*
X-107636Y223238D01*
X-107697Y223346D01*
X-107755Y223455D01*
X-107810Y223567D01*
X-107861Y223680D01*
X-107909Y223795D01*
X-107952Y223911D01*
X-107993Y224028D01*
X-108029Y224147D01*
X-108062Y224266D01*
X-108091Y224387D01*
X-108116Y224509D01*
X-108137Y224631D01*
X-108155Y224754D01*
X-108168Y224877D01*
X-108178Y225001D01*
X-108184Y225125D01*
X-108186Y225249D01*
X-108186Y227224D01*
X-108184Y227348D01*
X-108178Y227472D01*
X-108168Y227596D01*
X-108155Y227719D01*
X-108137Y227842D01*
X-108116Y227964D01*
X-108091Y228086D01*
X-108062Y228207D01*
X-108029Y228326D01*
X-107993Y228445D01*
X-107952Y228562D01*
X-107909Y228678D01*
X-107861Y228793D01*
X-107810Y228906D01*
X-107755Y229018D01*
X-107697Y229127D01*
X-107636Y229235D01*
X-107571Y229341D01*
X-107503Y229445D01*
X-107431Y229546D01*
X-107357Y229646D01*
X-107279Y229742D01*
X-107199Y229837D01*
X-107115Y229929D01*
X-107029Y230018D01*
X-106940Y230104D01*
X-106848Y230188D01*
X-106753Y230268D01*
X-106657Y230346D01*
X-106557Y230420D01*
X-106456Y230492D01*
X-106352Y230560D01*
X-106246Y230625D01*
X-106138Y230686D01*
X-106029Y230744D01*
X-105917Y230799D01*
X-105804Y230850D01*
X-105689Y230898D01*
X-105573Y230941D01*
X-105456Y230982D01*
X-105337Y231018D01*
X-105218Y231051D01*
X-105097Y231080D01*
X-104975Y231105D01*
X-104853Y231126D01*
X-104730Y231144D01*
X-104607Y231157D01*
X-104483Y231167D01*
X-104359Y231173D01*
X-104235Y231175D01*
X-98309Y231175D01*
X-98309Y239078D01*
X-108186Y239078D01*
X36261Y235903D02*
X36261Y218123D01*
X36261Y228000D02*
X26383Y228000D01*
X26383Y235903D02*
X26383Y218123D01*
X18952Y227013D02*
X18948Y227363D01*
X18935Y227712D01*
X18914Y228061D01*
X18885Y228410D01*
X18848Y228758D01*
X18802Y229105D01*
X18748Y229450D01*
X18686Y229794D01*
X18615Y230137D01*
X18536Y230478D01*
X18450Y230817D01*
X18355Y231153D01*
X18252Y231488D01*
X18141Y231819D01*
X18023Y232149D01*
X17896Y232475D01*
X17762Y232798D01*
X17620Y233117D01*
X17470Y233434D01*
X17470Y233433D02*
X17430Y233546D01*
X17386Y233656D01*
X17338Y233766D01*
X17287Y233873D01*
X17232Y233979D01*
X17174Y234084D01*
X17112Y234186D01*
X17047Y234286D01*
X16979Y234384D01*
X16908Y234480D01*
X16833Y234573D01*
X16756Y234664D01*
X16676Y234752D01*
X16593Y234837D01*
X16507Y234920D01*
X16418Y235000D01*
X16327Y235077D01*
X16233Y235151D01*
X16137Y235222D01*
X16039Y235290D01*
X15939Y235354D01*
X15836Y235416D01*
X15732Y235473D01*
X15626Y235528D01*
X15518Y235579D01*
X15408Y235626D01*
X15297Y235670D01*
X15185Y235710D01*
X15071Y235746D01*
X14957Y235779D01*
X14841Y235808D01*
X14724Y235833D01*
X14607Y235854D01*
X14489Y235872D01*
X14370Y235885D01*
X14251Y235895D01*
X14132Y235901D01*
X14013Y235903D01*
X13894Y235901D01*
X13775Y235895D01*
X13656Y235885D01*
X13537Y235872D01*
X13419Y235854D01*
X13302Y235833D01*
X13185Y235808D01*
X13069Y235779D01*
X12955Y235746D01*
X12841Y235710D01*
X12729Y235670D01*
X12618Y235626D01*
X12508Y235579D01*
X12400Y235528D01*
X12294Y235473D01*
X12190Y235416D01*
X12087Y235354D01*
X11987Y235290D01*
X11889Y235222D01*
X11793Y235151D01*
X11699Y235077D01*
X11608Y235000D01*
X11519Y234920D01*
X11434Y234837D01*
X11350Y234752D01*
X11270Y234664D01*
X11193Y234573D01*
X11118Y234480D01*
X11047Y234384D01*
X10979Y234286D01*
X10914Y234186D01*
X10852Y234084D01*
X10794Y233979D01*
X10739Y233874D01*
X10688Y233766D01*
X10640Y233656D01*
X10596Y233546D01*
X10556Y233433D01*
X10556Y233434D02*
X10406Y233117D01*
X10264Y232798D01*
X10130Y232475D01*
X10003Y232149D01*
X9885Y231819D01*
X9774Y231488D01*
X9671Y231153D01*
X9576Y230817D01*
X9490Y230478D01*
X9411Y230137D01*
X9340Y229794D01*
X9278Y229450D01*
X9224Y229105D01*
X9178Y228758D01*
X9141Y228410D01*
X9112Y228061D01*
X9091Y227712D01*
X9078Y227363D01*
X9074Y227013D01*
X18952Y227013D02*
X18948Y226663D01*
X18935Y226314D01*
X18914Y225965D01*
X18885Y225616D01*
X18848Y225268D01*
X18802Y224921D01*
X18748Y224576D01*
X18686Y224232D01*
X18615Y223889D01*
X18536Y223548D01*
X18450Y223209D01*
X18355Y222873D01*
X18252Y222538D01*
X18141Y222207D01*
X18023Y221878D01*
X17896Y221551D01*
X17762Y221228D01*
X17620Y220909D01*
X17470Y220593D01*
X17470Y220592D02*
X17430Y220479D01*
X17386Y220369D01*
X17338Y220259D01*
X17287Y220152D01*
X17232Y220046D01*
X17174Y219941D01*
X17112Y219839D01*
X17047Y219739D01*
X16979Y219641D01*
X16908Y219545D01*
X16833Y219452D01*
X16756Y219361D01*
X16676Y219273D01*
X16593Y219188D01*
X16507Y219105D01*
X16418Y219025D01*
X16327Y218948D01*
X16233Y218874D01*
X16137Y218803D01*
X16039Y218735D01*
X15939Y218671D01*
X15836Y218609D01*
X15732Y218552D01*
X15626Y218497D01*
X15518Y218446D01*
X15408Y218399D01*
X15297Y218355D01*
X15185Y218315D01*
X15071Y218279D01*
X14957Y218246D01*
X14841Y218217D01*
X14724Y218192D01*
X14607Y218171D01*
X14489Y218153D01*
X14370Y218140D01*
X14251Y218130D01*
X14132Y218124D01*
X14013Y218122D01*
X10556Y220593D02*
X10406Y220909D01*
X10264Y221228D01*
X10130Y221551D01*
X10003Y221878D01*
X9885Y222207D01*
X9774Y222538D01*
X9671Y222873D01*
X9576Y223209D01*
X9490Y223548D01*
X9411Y223889D01*
X9340Y224232D01*
X9278Y224576D01*
X9224Y224921D01*
X9178Y225268D01*
X9141Y225616D01*
X9112Y225965D01*
X9091Y226314D01*
X9078Y226663D01*
X9074Y227013D01*
X10556Y220592D02*
X10596Y220479D01*
X10640Y220369D01*
X10688Y220259D01*
X10739Y220151D01*
X10794Y220045D01*
X10852Y219941D01*
X10914Y219839D01*
X10979Y219739D01*
X11047Y219641D01*
X11118Y219545D01*
X11193Y219452D01*
X11270Y219361D01*
X11350Y219273D01*
X11434Y219188D01*
X11519Y219105D01*
X11608Y219025D01*
X11699Y218948D01*
X11793Y218874D01*
X11889Y218803D01*
X11987Y218735D01*
X12087Y218671D01*
X12190Y218609D01*
X12294Y218551D01*
X12400Y218497D01*
X12508Y218446D01*
X12618Y218399D01*
X12729Y218355D01*
X12841Y218315D01*
X12955Y218279D01*
X13069Y218246D01*
X13185Y218217D01*
X13302Y218192D01*
X13419Y218171D01*
X13537Y218153D01*
X13656Y218140D01*
X13775Y218130D01*
X13894Y218124D01*
X14013Y218122D01*
X17964Y222074D02*
X10062Y231951D01*
X1446Y228000D02*
X-3493Y228000D01*
X-3633Y227998D01*
X-3772Y227992D01*
X-3912Y227982D01*
X-4051Y227968D01*
X-4190Y227951D01*
X-4328Y227929D01*
X-4465Y227903D01*
X-4602Y227874D01*
X-4738Y227841D01*
X-4872Y227804D01*
X-5006Y227763D01*
X-5138Y227718D01*
X-5270Y227669D01*
X-5399Y227617D01*
X-5527Y227562D01*
X-5654Y227502D01*
X-5779Y227439D01*
X-5902Y227373D01*
X-6023Y227303D01*
X-6142Y227230D01*
X-6259Y227153D01*
X-6373Y227073D01*
X-6486Y226990D01*
X-6596Y226904D01*
X-6703Y226814D01*
X-6808Y226722D01*
X-6910Y226627D01*
X-7010Y226529D01*
X-7107Y226428D01*
X-7201Y226324D01*
X-7291Y226218D01*
X-7379Y226109D01*
X-7464Y225998D01*
X-7545Y225884D01*
X-7624Y225769D01*
X-7699Y225651D01*
X-7770Y225531D01*
X-7838Y225408D01*
X-7903Y225285D01*
X-7964Y225159D01*
X-8022Y225031D01*
X-8076Y224903D01*
X-8126Y224772D01*
X-8173Y224640D01*
X-8216Y224507D01*
X-8255Y224373D01*
X-8290Y224238D01*
X-8321Y224102D01*
X-8349Y223964D01*
X-8372Y223827D01*
X-8392Y223688D01*
X-8408Y223549D01*
X-8420Y223410D01*
X-8428Y223271D01*
X-8432Y223131D01*
X-8432Y222991D01*
X-8428Y222851D01*
X-8420Y222712D01*
X-8408Y222573D01*
X-8392Y222434D01*
X-8372Y222295D01*
X-8349Y222158D01*
X-8321Y222020D01*
X-8290Y221884D01*
X-8255Y221749D01*
X-8216Y221615D01*
X-8173Y221482D01*
X-8126Y221350D01*
X-8076Y221219D01*
X-8022Y221091D01*
X-7964Y220963D01*
X-7903Y220837D01*
X-7838Y220714D01*
X-7770Y220591D01*
X-7699Y220471D01*
X-7624Y220353D01*
X-7545Y220238D01*
X-7464Y220124D01*
X-7379Y220013D01*
X-7291Y219904D01*
X-7201Y219798D01*
X-7107Y219694D01*
X-7010Y219593D01*
X-6910Y219495D01*
X-6808Y219400D01*
X-6703Y219308D01*
X-6596Y219218D01*
X-6486Y219132D01*
X-6373Y219049D01*
X-6259Y218969D01*
X-6142Y218892D01*
X-6023Y218819D01*
X-5902Y218749D01*
X-5779Y218683D01*
X-5654Y218620D01*
X-5527Y218560D01*
X-5399Y218505D01*
X-5270Y218453D01*
X-5138Y218404D01*
X-5006Y218359D01*
X-4872Y218318D01*
X-4738Y218281D01*
X-4602Y218248D01*
X-4465Y218219D01*
X-4328Y218193D01*
X-4190Y218171D01*
X-4051Y218154D01*
X-3912Y218140D01*
X-3772Y218130D01*
X-3633Y218124D01*
X-3493Y218122D01*
X-3493Y218123D02*
X1446Y218123D01*
X1446Y235903D01*
X-3493Y235903D01*
X-3493Y235902D02*
X-3617Y235900D01*
X-3741Y235894D01*
X-3865Y235884D01*
X-3988Y235871D01*
X-4111Y235853D01*
X-4233Y235832D01*
X-4355Y235807D01*
X-4476Y235778D01*
X-4595Y235745D01*
X-4714Y235709D01*
X-4831Y235668D01*
X-4947Y235625D01*
X-5062Y235577D01*
X-5175Y235526D01*
X-5287Y235471D01*
X-5396Y235413D01*
X-5504Y235352D01*
X-5610Y235287D01*
X-5714Y235219D01*
X-5815Y235147D01*
X-5915Y235073D01*
X-6011Y234995D01*
X-6106Y234915D01*
X-6198Y234831D01*
X-6287Y234745D01*
X-6373Y234656D01*
X-6457Y234564D01*
X-6537Y234469D01*
X-6615Y234373D01*
X-6689Y234273D01*
X-6761Y234172D01*
X-6829Y234068D01*
X-6894Y233962D01*
X-6955Y233854D01*
X-7013Y233745D01*
X-7068Y233633D01*
X-7119Y233520D01*
X-7167Y233405D01*
X-7210Y233289D01*
X-7251Y233172D01*
X-7287Y233053D01*
X-7320Y232934D01*
X-7349Y232813D01*
X-7374Y232691D01*
X-7395Y232569D01*
X-7413Y232446D01*
X-7426Y232323D01*
X-7436Y232199D01*
X-7442Y232075D01*
X-7444Y231951D01*
X-7442Y231827D01*
X-7436Y231703D01*
X-7426Y231579D01*
X-7413Y231456D01*
X-7395Y231333D01*
X-7374Y231211D01*
X-7349Y231089D01*
X-7320Y230968D01*
X-7287Y230849D01*
X-7251Y230730D01*
X-7210Y230613D01*
X-7167Y230497D01*
X-7119Y230382D01*
X-7068Y230269D01*
X-7013Y230157D01*
X-6955Y230048D01*
X-6894Y229940D01*
X-6829Y229834D01*
X-6761Y229730D01*
X-6689Y229629D01*
X-6615Y229529D01*
X-6537Y229433D01*
X-6457Y229338D01*
X-6373Y229246D01*
X-6287Y229157D01*
X-6198Y229071D01*
X-6106Y228987D01*
X-6011Y228907D01*
X-5915Y228829D01*
X-5815Y228755D01*
X-5714Y228683D01*
X-5610Y228615D01*
X-5504Y228550D01*
X-5396Y228489D01*
X-5287Y228431D01*
X-5175Y228376D01*
X-5062Y228325D01*
X-4947Y228277D01*
X-4831Y228234D01*
X-4714Y228193D01*
X-4595Y228157D01*
X-4476Y228124D01*
X-4355Y228095D01*
X-4233Y228070D01*
X-4111Y228049D01*
X-3988Y228031D01*
X-3865Y228018D01*
X-3741Y228008D01*
X-3617Y228002D01*
X-3493Y228000D01*
X-15193Y235903D02*
X-15193Y218123D01*
X-15193Y235903D02*
X-20132Y235903D01*
X-20272Y235901D01*
X-20411Y235895D01*
X-20551Y235885D01*
X-20690Y235871D01*
X-20829Y235854D01*
X-20967Y235832D01*
X-21104Y235806D01*
X-21241Y235777D01*
X-21377Y235744D01*
X-21511Y235707D01*
X-21645Y235666D01*
X-21777Y235621D01*
X-21909Y235572D01*
X-22038Y235520D01*
X-22166Y235465D01*
X-22293Y235405D01*
X-22418Y235342D01*
X-22541Y235276D01*
X-22662Y235206D01*
X-22781Y235133D01*
X-22898Y235056D01*
X-23012Y234976D01*
X-23125Y234893D01*
X-23235Y234807D01*
X-23342Y234717D01*
X-23447Y234625D01*
X-23549Y234530D01*
X-23649Y234432D01*
X-23746Y234331D01*
X-23840Y234227D01*
X-23930Y234121D01*
X-24018Y234012D01*
X-24103Y233901D01*
X-24184Y233787D01*
X-24263Y233672D01*
X-24338Y233554D01*
X-24409Y233434D01*
X-24477Y233311D01*
X-24542Y233188D01*
X-24603Y233062D01*
X-24661Y232934D01*
X-24715Y232806D01*
X-24765Y232675D01*
X-24812Y232543D01*
X-24855Y232410D01*
X-24894Y232276D01*
X-24929Y232141D01*
X-24960Y232005D01*
X-24988Y231867D01*
X-25011Y231730D01*
X-25031Y231591D01*
X-25047Y231452D01*
X-25059Y231313D01*
X-25067Y231174D01*
X-25071Y231034D01*
X-25071Y230894D01*
X-25067Y230754D01*
X-25059Y230615D01*
X-25047Y230476D01*
X-25031Y230337D01*
X-25011Y230198D01*
X-24988Y230061D01*
X-24960Y229923D01*
X-24929Y229787D01*
X-24894Y229652D01*
X-24855Y229518D01*
X-24812Y229385D01*
X-24765Y229253D01*
X-24715Y229122D01*
X-24661Y228994D01*
X-24603Y228866D01*
X-24542Y228740D01*
X-24477Y228617D01*
X-24409Y228494D01*
X-24338Y228374D01*
X-24263Y228256D01*
X-24184Y228141D01*
X-24103Y228027D01*
X-24018Y227916D01*
X-23930Y227807D01*
X-23840Y227701D01*
X-23746Y227597D01*
X-23649Y227496D01*
X-23549Y227398D01*
X-23447Y227303D01*
X-23342Y227211D01*
X-23235Y227121D01*
X-23125Y227035D01*
X-23012Y226952D01*
X-22898Y226872D01*
X-22781Y226795D01*
X-22662Y226722D01*
X-22541Y226652D01*
X-22418Y226586D01*
X-22293Y226523D01*
X-22166Y226463D01*
X-22038Y226408D01*
X-21909Y226356D01*
X-21777Y226307D01*
X-21645Y226262D01*
X-21511Y226221D01*
X-21377Y226184D01*
X-21241Y226151D01*
X-21104Y226122D01*
X-20967Y226096D01*
X-20829Y226074D01*
X-20690Y226057D01*
X-20551Y226043D01*
X-20411Y226033D01*
X-20272Y226027D01*
X-20132Y226025D01*
X-15193Y226025D01*
X-21119Y226025D02*
X-25070Y218123D01*
X-31858Y222074D02*
X-35809Y235903D01*
X-31858Y222074D02*
X-41735Y222074D01*
X-38772Y226025D02*
X-38772Y218123D01*
X-48608Y231951D02*
X-53547Y235903D01*
X-53547Y218123D01*
X-48608Y218123D02*
X-58486Y218123D01*
X11349Y262573D02*
X11349Y280353D01*
X6410Y280353D01*
X6270Y280351D01*
X6131Y280345D01*
X5991Y280335D01*
X5852Y280321D01*
X5713Y280304D01*
X5575Y280282D01*
X5438Y280256D01*
X5301Y280227D01*
X5165Y280194D01*
X5031Y280157D01*
X4897Y280116D01*
X4765Y280071D01*
X4633Y280022D01*
X4504Y279970D01*
X4376Y279915D01*
X4249Y279855D01*
X4124Y279792D01*
X4001Y279726D01*
X3880Y279656D01*
X3761Y279583D01*
X3644Y279506D01*
X3530Y279426D01*
X3417Y279343D01*
X3307Y279257D01*
X3200Y279167D01*
X3095Y279075D01*
X2993Y278980D01*
X2893Y278882D01*
X2796Y278781D01*
X2702Y278677D01*
X2612Y278571D01*
X2524Y278462D01*
X2439Y278351D01*
X2358Y278237D01*
X2279Y278122D01*
X2204Y278004D01*
X2133Y277884D01*
X2065Y277761D01*
X2000Y277638D01*
X1939Y277512D01*
X1881Y277384D01*
X1827Y277256D01*
X1777Y277125D01*
X1730Y276993D01*
X1687Y276860D01*
X1648Y276726D01*
X1613Y276591D01*
X1582Y276455D01*
X1554Y276317D01*
X1531Y276180D01*
X1511Y276041D01*
X1495Y275902D01*
X1483Y275763D01*
X1475Y275624D01*
X1471Y275484D01*
X1471Y275344D01*
X1475Y275204D01*
X1483Y275065D01*
X1495Y274926D01*
X1511Y274787D01*
X1531Y274648D01*
X1554Y274511D01*
X1582Y274373D01*
X1613Y274237D01*
X1648Y274102D01*
X1687Y273968D01*
X1730Y273835D01*
X1777Y273703D01*
X1827Y273572D01*
X1881Y273444D01*
X1939Y273316D01*
X2000Y273190D01*
X2065Y273067D01*
X2133Y272945D01*
X2204Y272824D01*
X2279Y272706D01*
X2358Y272591D01*
X2439Y272477D01*
X2524Y272366D01*
X2612Y272257D01*
X2702Y272151D01*
X2796Y272047D01*
X2893Y271946D01*
X2993Y271848D01*
X3095Y271753D01*
X3200Y271661D01*
X3307Y271571D01*
X3417Y271485D01*
X3530Y271402D01*
X3644Y271322D01*
X3761Y271245D01*
X3880Y271172D01*
X4001Y271102D01*
X4124Y271036D01*
X4249Y270973D01*
X4376Y270913D01*
X4504Y270858D01*
X4633Y270806D01*
X4765Y270757D01*
X4897Y270712D01*
X5031Y270671D01*
X5165Y270634D01*
X5301Y270601D01*
X5438Y270572D01*
X5575Y270546D01*
X5713Y270524D01*
X5852Y270507D01*
X5991Y270493D01*
X6131Y270483D01*
X6270Y270477D01*
X6410Y270475D01*
X11349Y270475D01*
X-4646Y272450D02*
X-10573Y272450D01*
X-10697Y272448D01*
X-10821Y272442D01*
X-10945Y272432D01*
X-11068Y272419D01*
X-11191Y272401D01*
X-11313Y272380D01*
X-11435Y272355D01*
X-11556Y272326D01*
X-11675Y272293D01*
X-11794Y272257D01*
X-11911Y272216D01*
X-12027Y272173D01*
X-12142Y272125D01*
X-12255Y272074D01*
X-12367Y272019D01*
X-12476Y271961D01*
X-12584Y271900D01*
X-12690Y271835D01*
X-12794Y271767D01*
X-12895Y271695D01*
X-12995Y271621D01*
X-13091Y271543D01*
X-13186Y271463D01*
X-13278Y271379D01*
X-13367Y271293D01*
X-13453Y271204D01*
X-13537Y271112D01*
X-13617Y271017D01*
X-13695Y270921D01*
X-13769Y270821D01*
X-13841Y270720D01*
X-13909Y270616D01*
X-13974Y270510D01*
X-14035Y270402D01*
X-14093Y270293D01*
X-14148Y270181D01*
X-14199Y270068D01*
X-14247Y269953D01*
X-14290Y269837D01*
X-14331Y269720D01*
X-14367Y269601D01*
X-14400Y269482D01*
X-14429Y269361D01*
X-14454Y269239D01*
X-14475Y269117D01*
X-14493Y268994D01*
X-14506Y268871D01*
X-14516Y268747D01*
X-14522Y268623D01*
X-14524Y268499D01*
X-14524Y267511D01*
X-14522Y267371D01*
X-14516Y267232D01*
X-14506Y267092D01*
X-14492Y266953D01*
X-14475Y266814D01*
X-14453Y266676D01*
X-14427Y266539D01*
X-14398Y266402D01*
X-14365Y266266D01*
X-14328Y266132D01*
X-14287Y265998D01*
X-14242Y265866D01*
X-14193Y265734D01*
X-14141Y265605D01*
X-14086Y265477D01*
X-14026Y265350D01*
X-13963Y265225D01*
X-13897Y265102D01*
X-13827Y264981D01*
X-13754Y264862D01*
X-13677Y264745D01*
X-13597Y264631D01*
X-13514Y264518D01*
X-13428Y264408D01*
X-13338Y264301D01*
X-13246Y264196D01*
X-13151Y264094D01*
X-13053Y263994D01*
X-12952Y263897D01*
X-12848Y263803D01*
X-12742Y263713D01*
X-12633Y263625D01*
X-12522Y263540D01*
X-12408Y263459D01*
X-12293Y263380D01*
X-12175Y263305D01*
X-12054Y263234D01*
X-11932Y263166D01*
X-11809Y263101D01*
X-11683Y263040D01*
X-11555Y262982D01*
X-11427Y262928D01*
X-11296Y262878D01*
X-11164Y262831D01*
X-11031Y262788D01*
X-10897Y262749D01*
X-10762Y262714D01*
X-10626Y262683D01*
X-10488Y262655D01*
X-10351Y262632D01*
X-10212Y262612D01*
X-10073Y262596D01*
X-9934Y262584D01*
X-9795Y262576D01*
X-9655Y262572D01*
X-9515Y262572D01*
X-9375Y262576D01*
X-9236Y262584D01*
X-9097Y262596D01*
X-8958Y262612D01*
X-8819Y262632D01*
X-8682Y262655D01*
X-8544Y262683D01*
X-8408Y262714D01*
X-8273Y262749D01*
X-8139Y262788D01*
X-8006Y262831D01*
X-7874Y262878D01*
X-7743Y262928D01*
X-7615Y262982D01*
X-7487Y263040D01*
X-7361Y263101D01*
X-7238Y263166D01*
X-7115Y263234D01*
X-6995Y263305D01*
X-6877Y263380D01*
X-6762Y263459D01*
X-6648Y263540D01*
X-6537Y263625D01*
X-6428Y263713D01*
X-6322Y263803D01*
X-6218Y263897D01*
X-6117Y263994D01*
X-6019Y264094D01*
X-5924Y264196D01*
X-5832Y264301D01*
X-5742Y264408D01*
X-5656Y264518D01*
X-5573Y264631D01*
X-5493Y264745D01*
X-5416Y264862D01*
X-5343Y264981D01*
X-5273Y265102D01*
X-5207Y265225D01*
X-5144Y265350D01*
X-5084Y265477D01*
X-5029Y265605D01*
X-4977Y265734D01*
X-4928Y265866D01*
X-4883Y265998D01*
X-4842Y266132D01*
X-4805Y266266D01*
X-4772Y266402D01*
X-4743Y266539D01*
X-4717Y266676D01*
X-4695Y266814D01*
X-4678Y266953D01*
X-4664Y267092D01*
X-4654Y267232D01*
X-4648Y267371D01*
X-4646Y267511D01*
X-4646Y272450D01*
X-4648Y272644D01*
X-4656Y272838D01*
X-4667Y273031D01*
X-4684Y273225D01*
X-4705Y273417D01*
X-4732Y273609D01*
X-4762Y273801D01*
X-4798Y273992D01*
X-4838Y274181D01*
X-4883Y274370D01*
X-4932Y274558D01*
X-4986Y274744D01*
X-5045Y274929D01*
X-5108Y275112D01*
X-5175Y275294D01*
X-5248Y275474D01*
X-5324Y275652D01*
X-5405Y275829D01*
X-5490Y276003D01*
X-5579Y276175D01*
X-5673Y276345D01*
X-5770Y276512D01*
X-5872Y276678D01*
X-5978Y276840D01*
X-6087Y277000D01*
X-6201Y277157D01*
X-6318Y277312D01*
X-6440Y277463D01*
X-6565Y277611D01*
X-6693Y277757D01*
X-6825Y277899D01*
X-6960Y278038D01*
X-7099Y278173D01*
X-7241Y278305D01*
X-7387Y278433D01*
X-7535Y278558D01*
X-7686Y278680D01*
X-7841Y278797D01*
X-7998Y278911D01*
X-8158Y279020D01*
X-8320Y279126D01*
X-8486Y279228D01*
X-8653Y279325D01*
X-8823Y279419D01*
X-8995Y279508D01*
X-9169Y279593D01*
X-9346Y279674D01*
X-9524Y279750D01*
X-9704Y279823D01*
X-9886Y279890D01*
X-10069Y279953D01*
X-10254Y280012D01*
X-10440Y280066D01*
X-10628Y280115D01*
X-10817Y280160D01*
X-11006Y280200D01*
X-11197Y280236D01*
X-11389Y280266D01*
X-11581Y280293D01*
X-11773Y280314D01*
X-11967Y280331D01*
X-12160Y280342D01*
X-12354Y280350D01*
X-12548Y280352D01*
D10*
X-61299Y284593D02*
X-62894Y283476D01*
X-59171Y278158D01*
X-55981Y280392D01*
X-55901Y280451D01*
X-55823Y280513D01*
X-55747Y280577D01*
X-55674Y280645D01*
X-55603Y280715D01*
X-55536Y280788D01*
X-55471Y280863D01*
X-55409Y280941D01*
X-55350Y281021D01*
X-55294Y281103D01*
X-55241Y281188D01*
X-55192Y281274D01*
X-55146Y281362D01*
X-55103Y281452D01*
X-55064Y281543D01*
X-55029Y281636D01*
X-54997Y281730D01*
X-54968Y281826D01*
X-54944Y281922D01*
X-54923Y282019D01*
X-54905Y282117D01*
X-54892Y282216D01*
X-54882Y282315D01*
X-54876Y282414D01*
X-54874Y282513D01*
X-54876Y282613D01*
X-54881Y282712D01*
X-54891Y282811D01*
X-54904Y282910D01*
X-54920Y283008D01*
X-54941Y283105D01*
X-54965Y283202D01*
X-54993Y283297D01*
X-55025Y283391D01*
X-55060Y283484D01*
X-55099Y283576D01*
X-55141Y283666D01*
X-55187Y283754D01*
X-55236Y283841D01*
X-55288Y283925D01*
X-55343Y284008D01*
X-59066Y289326D01*
X-59066Y289325D02*
X-59125Y289405D01*
X-59187Y289483D01*
X-59251Y289559D01*
X-59319Y289632D01*
X-59389Y289703D01*
X-59462Y289770D01*
X-59537Y289835D01*
X-59615Y289897D01*
X-59695Y289956D01*
X-59777Y290012D01*
X-59862Y290065D01*
X-59948Y290114D01*
X-60036Y290160D01*
X-60126Y290203D01*
X-60217Y290242D01*
X-60310Y290277D01*
X-60404Y290309D01*
X-60500Y290338D01*
X-60596Y290362D01*
X-60693Y290383D01*
X-60791Y290401D01*
X-60890Y290414D01*
X-60989Y290424D01*
X-61088Y290430D01*
X-61187Y290432D01*
X-61287Y290430D01*
X-61386Y290425D01*
X-61485Y290415D01*
X-61584Y290402D01*
X-61682Y290386D01*
X-61779Y290365D01*
X-61876Y290341D01*
X-61971Y290313D01*
X-62065Y290281D01*
X-62158Y290246D01*
X-62250Y290207D01*
X-62340Y290165D01*
X-62428Y290119D01*
X-62515Y290070D01*
X-62599Y290018D01*
X-62682Y289963D01*
X-65872Y287729D01*
X-70542Y284459D02*
X-63841Y274889D01*
X-69158Y271165D02*
X-70542Y284459D01*
X-75860Y280736D02*
X-69158Y271165D01*
X-73828Y267895D02*
X-80530Y277466D01*
X-83188Y275605D01*
X-83189Y275605D02*
X-83280Y275538D01*
X-83370Y275469D01*
X-83457Y275396D01*
X-83541Y275320D01*
X-83622Y275241D01*
X-83701Y275160D01*
X-83777Y275076D01*
X-83850Y274989D01*
X-83919Y274899D01*
X-83986Y274808D01*
X-84049Y274714D01*
X-84109Y274618D01*
X-84166Y274520D01*
X-84219Y274420D01*
X-84269Y274318D01*
X-84315Y274214D01*
X-84357Y274109D01*
X-84396Y274003D01*
X-84431Y273895D01*
X-84462Y273786D01*
X-84490Y273676D01*
X-84513Y273565D01*
X-84533Y273454D01*
X-84549Y273342D01*
X-84561Y273229D01*
X-84569Y273116D01*
X-84573Y273003D01*
X-84573Y272889D01*
X-84569Y272776D01*
X-84561Y272663D01*
X-84549Y272550D01*
X-84533Y272438D01*
X-84513Y272327D01*
X-84490Y272216D01*
X-84462Y272106D01*
X-84431Y271997D01*
X-84396Y271889D01*
X-84357Y271783D01*
X-84315Y271678D01*
X-84269Y271574D01*
X-84219Y271472D01*
X-84166Y271372D01*
X-84109Y271274D01*
X-84049Y271178D01*
X-83986Y271084D01*
X-83985Y271085D02*
X-81007Y266831D01*
X-81007Y266830D02*
X-80940Y266739D01*
X-80871Y266649D01*
X-80798Y266562D01*
X-80722Y266478D01*
X-80643Y266397D01*
X-80562Y266318D01*
X-80478Y266242D01*
X-80391Y266169D01*
X-80301Y266100D01*
X-80210Y266033D01*
X-80116Y265970D01*
X-80020Y265910D01*
X-79922Y265853D01*
X-79822Y265800D01*
X-79720Y265750D01*
X-79616Y265704D01*
X-79511Y265662D01*
X-79405Y265623D01*
X-79297Y265588D01*
X-79188Y265557D01*
X-79078Y265529D01*
X-78967Y265506D01*
X-78856Y265486D01*
X-78744Y265470D01*
X-78631Y265458D01*
X-78518Y265450D01*
X-78405Y265446D01*
X-78291Y265446D01*
X-78178Y265450D01*
X-78065Y265458D01*
X-77952Y265470D01*
X-77840Y265486D01*
X-77729Y265506D01*
X-77618Y265529D01*
X-77508Y265557D01*
X-77399Y265588D01*
X-77291Y265623D01*
X-77185Y265662D01*
X-77080Y265704D01*
X-76976Y265750D01*
X-76874Y265800D01*
X-76774Y265853D01*
X-76676Y265910D01*
X-76580Y265970D01*
X-76486Y266033D01*
X-76486Y266034D02*
X-73828Y267895D01*
X77551Y273213D02*
X79146Y272096D01*
X77551Y273213D02*
X73828Y267896D01*
X77018Y265662D01*
X77101Y265607D01*
X77185Y265555D01*
X77272Y265506D01*
X77360Y265460D01*
X77450Y265418D01*
X77542Y265379D01*
X77635Y265344D01*
X77729Y265312D01*
X77824Y265284D01*
X77921Y265260D01*
X78018Y265239D01*
X78116Y265223D01*
X78215Y265209D01*
X78314Y265200D01*
X78413Y265195D01*
X78513Y265193D01*
X78612Y265195D01*
X78711Y265201D01*
X78810Y265211D01*
X78909Y265224D01*
X79007Y265242D01*
X79104Y265263D01*
X79200Y265287D01*
X79296Y265316D01*
X79390Y265348D01*
X79483Y265383D01*
X79574Y265422D01*
X79664Y265465D01*
X79752Y265511D01*
X79838Y265560D01*
X79923Y265613D01*
X80005Y265669D01*
X80085Y265728D01*
X80163Y265790D01*
X80238Y265855D01*
X80311Y265922D01*
X80381Y265993D01*
X80449Y266066D01*
X80513Y266142D01*
X80575Y266220D01*
X80634Y266300D01*
X80634Y266299D02*
X84357Y271616D01*
X84357Y271617D02*
X84412Y271700D01*
X84464Y271784D01*
X84513Y271871D01*
X84559Y271959D01*
X84601Y272049D01*
X84640Y272141D01*
X84675Y272234D01*
X84707Y272328D01*
X84735Y272423D01*
X84759Y272520D01*
X84780Y272617D01*
X84796Y272715D01*
X84810Y272814D01*
X84819Y272913D01*
X84824Y273012D01*
X84826Y273112D01*
X84824Y273211D01*
X84818Y273310D01*
X84808Y273409D01*
X84795Y273508D01*
X84777Y273606D01*
X84756Y273703D01*
X84732Y273799D01*
X84703Y273895D01*
X84671Y273989D01*
X84636Y274082D01*
X84597Y274173D01*
X84554Y274263D01*
X84508Y274351D01*
X84459Y274437D01*
X84406Y274522D01*
X84350Y274604D01*
X84291Y274684D01*
X84229Y274762D01*
X84164Y274837D01*
X84097Y274910D01*
X84026Y274980D01*
X83953Y275048D01*
X83877Y275112D01*
X83799Y275174D01*
X83719Y275233D01*
X83720Y275233D02*
X80529Y277467D01*
X75860Y280736D02*
X69158Y271165D01*
X63841Y274889D02*
X75860Y280736D01*
X70542Y284460D02*
X63841Y274889D01*
X59171Y278158D02*
X65872Y287729D01*
X63214Y289591D01*
X63120Y289654D01*
X63024Y289714D01*
X62926Y289771D01*
X62826Y289824D01*
X62724Y289874D01*
X62620Y289920D01*
X62515Y289962D01*
X62409Y290001D01*
X62301Y290036D01*
X62192Y290067D01*
X62082Y290095D01*
X61971Y290118D01*
X61860Y290138D01*
X61748Y290154D01*
X61635Y290166D01*
X61522Y290174D01*
X61409Y290178D01*
X61295Y290178D01*
X61182Y290174D01*
X61069Y290166D01*
X60956Y290154D01*
X60844Y290138D01*
X60733Y290118D01*
X60622Y290095D01*
X60512Y290067D01*
X60403Y290036D01*
X60295Y290001D01*
X60189Y289962D01*
X60084Y289920D01*
X59980Y289874D01*
X59878Y289824D01*
X59778Y289771D01*
X59680Y289714D01*
X59584Y289654D01*
X59490Y289591D01*
X59399Y289524D01*
X59309Y289455D01*
X59222Y289382D01*
X59138Y289306D01*
X59057Y289227D01*
X58978Y289146D01*
X58902Y289062D01*
X58829Y288975D01*
X58760Y288886D01*
X58693Y288794D01*
X58694Y288794D02*
X55715Y284540D01*
X55715Y284541D02*
X55652Y284447D01*
X55592Y284351D01*
X55535Y284253D01*
X55482Y284153D01*
X55432Y284051D01*
X55386Y283947D01*
X55344Y283842D01*
X55305Y283736D01*
X55270Y283628D01*
X55239Y283519D01*
X55211Y283409D01*
X55188Y283298D01*
X55168Y283187D01*
X55152Y283075D01*
X55140Y282962D01*
X55132Y282849D01*
X55128Y282736D01*
X55128Y282622D01*
X55132Y282509D01*
X55140Y282396D01*
X55152Y282283D01*
X55168Y282171D01*
X55188Y282060D01*
X55211Y281949D01*
X55239Y281839D01*
X55270Y281730D01*
X55305Y281622D01*
X55344Y281516D01*
X55386Y281411D01*
X55432Y281307D01*
X55482Y281205D01*
X55535Y281105D01*
X55592Y281007D01*
X55652Y280911D01*
X55715Y280817D01*
X55782Y280725D01*
X55851Y280636D01*
X55924Y280549D01*
X56000Y280465D01*
X56079Y280384D01*
X56160Y280305D01*
X56244Y280229D01*
X56331Y280156D01*
X56421Y280087D01*
X56512Y280020D01*
X59171Y278158D01*
D12*
X21844Y106617D02*
X21844Y99829D01*
X21842Y99728D01*
X21836Y99627D01*
X21826Y99526D01*
X21813Y99426D01*
X21795Y99326D01*
X21774Y99227D01*
X21748Y99129D01*
X21719Y99032D01*
X21687Y98936D01*
X21650Y98842D01*
X21610Y98749D01*
X21566Y98657D01*
X21519Y98568D01*
X21468Y98480D01*
X21414Y98394D01*
X21357Y98311D01*
X21297Y98229D01*
X21233Y98151D01*
X21167Y98074D01*
X21097Y98001D01*
X21025Y97930D01*
X20950Y97862D01*
X20872Y97797D01*
X20792Y97735D01*
X20710Y97676D01*
X20625Y97620D01*
X20538Y97568D01*
X20450Y97519D01*
X20359Y97473D01*
X20267Y97432D01*
X20173Y97393D01*
X20078Y97359D01*
X19982Y97328D01*
X19884Y97301D01*
X19786Y97277D01*
X19686Y97258D01*
X19586Y97242D01*
X19486Y97230D01*
X19385Y97222D01*
X19284Y97218D01*
X19182Y97218D01*
X19081Y97222D01*
X18980Y97230D01*
X18880Y97242D01*
X18780Y97258D01*
X18680Y97277D01*
X18582Y97301D01*
X18484Y97328D01*
X18388Y97359D01*
X18293Y97393D01*
X18199Y97432D01*
X18107Y97473D01*
X18016Y97519D01*
X17927Y97568D01*
X17841Y97620D01*
X17756Y97676D01*
X17674Y97735D01*
X17594Y97797D01*
X17516Y97862D01*
X17441Y97930D01*
X17369Y98001D01*
X17299Y98074D01*
X17233Y98151D01*
X17169Y98229D01*
X17109Y98311D01*
X17052Y98394D01*
X16998Y98480D01*
X16947Y98568D01*
X16900Y98657D01*
X16856Y98749D01*
X16816Y98842D01*
X16779Y98936D01*
X16747Y99032D01*
X16718Y99129D01*
X16692Y99227D01*
X16671Y99326D01*
X16653Y99426D01*
X16640Y99526D01*
X16630Y99627D01*
X16624Y99728D01*
X16622Y99829D01*
X16623Y99829D02*
X16623Y106617D01*
X12395Y104528D02*
X9785Y106617D01*
X9785Y97219D01*
X12395Y97219D02*
X7174Y97219D01*
D13*
X53848Y165100D02*
X60452Y165100D01*
D12*
X85295Y158814D02*
X87383Y158814D01*
X87472Y158816D01*
X87560Y158822D01*
X87648Y158831D01*
X87736Y158844D01*
X87823Y158861D01*
X87909Y158881D01*
X87994Y158906D01*
X88079Y158933D01*
X88162Y158965D01*
X88243Y158999D01*
X88323Y159038D01*
X88401Y159079D01*
X88478Y159124D01*
X88552Y159172D01*
X88625Y159223D01*
X88695Y159277D01*
X88762Y159335D01*
X88828Y159395D01*
X88890Y159457D01*
X88950Y159523D01*
X89008Y159590D01*
X89062Y159660D01*
X89113Y159733D01*
X89161Y159807D01*
X89206Y159884D01*
X89247Y159962D01*
X89286Y160042D01*
X89320Y160123D01*
X89352Y160206D01*
X89379Y160291D01*
X89404Y160376D01*
X89424Y160462D01*
X89441Y160549D01*
X89454Y160637D01*
X89463Y160725D01*
X89469Y160813D01*
X89471Y160902D01*
X89472Y160902D02*
X89472Y166123D01*
X89471Y166123D02*
X89469Y166212D01*
X89463Y166300D01*
X89454Y166388D01*
X89441Y166476D01*
X89424Y166563D01*
X89404Y166649D01*
X89379Y166734D01*
X89352Y166819D01*
X89320Y166902D01*
X89286Y166983D01*
X89247Y167063D01*
X89206Y167141D01*
X89161Y167218D01*
X89113Y167292D01*
X89062Y167365D01*
X89008Y167435D01*
X88950Y167502D01*
X88890Y167568D01*
X88828Y167630D01*
X88762Y167690D01*
X88695Y167748D01*
X88625Y167802D01*
X88552Y167853D01*
X88478Y167901D01*
X88401Y167946D01*
X88323Y167987D01*
X88243Y168026D01*
X88162Y168060D01*
X88079Y168092D01*
X87994Y168119D01*
X87909Y168144D01*
X87823Y168164D01*
X87736Y168181D01*
X87648Y168194D01*
X87560Y168203D01*
X87472Y168209D01*
X87383Y168211D01*
X87383Y168212D02*
X85295Y168212D01*
X81826Y164035D02*
X78693Y164035D01*
X78693Y164034D02*
X78604Y164032D01*
X78516Y164026D01*
X78428Y164017D01*
X78340Y164004D01*
X78253Y163987D01*
X78167Y163967D01*
X78082Y163942D01*
X77997Y163915D01*
X77914Y163883D01*
X77833Y163849D01*
X77753Y163810D01*
X77675Y163769D01*
X77598Y163724D01*
X77524Y163676D01*
X77451Y163625D01*
X77381Y163571D01*
X77314Y163513D01*
X77248Y163453D01*
X77186Y163391D01*
X77126Y163325D01*
X77068Y163258D01*
X77014Y163188D01*
X76963Y163115D01*
X76915Y163041D01*
X76870Y162964D01*
X76829Y162886D01*
X76790Y162806D01*
X76756Y162725D01*
X76724Y162642D01*
X76697Y162557D01*
X76672Y162472D01*
X76652Y162386D01*
X76635Y162299D01*
X76622Y162211D01*
X76613Y162123D01*
X76607Y162035D01*
X76605Y161946D01*
X76605Y161424D01*
X76604Y161424D02*
X76606Y161323D01*
X76612Y161222D01*
X76622Y161121D01*
X76635Y161021D01*
X76653Y160921D01*
X76674Y160822D01*
X76700Y160724D01*
X76729Y160627D01*
X76761Y160531D01*
X76798Y160437D01*
X76838Y160344D01*
X76882Y160252D01*
X76929Y160163D01*
X76980Y160075D01*
X77034Y159989D01*
X77091Y159906D01*
X77151Y159824D01*
X77215Y159746D01*
X77281Y159669D01*
X77351Y159596D01*
X77423Y159525D01*
X77498Y159457D01*
X77576Y159392D01*
X77656Y159330D01*
X77738Y159271D01*
X77823Y159215D01*
X77910Y159163D01*
X77998Y159114D01*
X78089Y159068D01*
X78181Y159027D01*
X78275Y158988D01*
X78370Y158954D01*
X78466Y158923D01*
X78564Y158896D01*
X78662Y158872D01*
X78762Y158853D01*
X78862Y158837D01*
X78962Y158825D01*
X79063Y158817D01*
X79164Y158813D01*
X79266Y158813D01*
X79367Y158817D01*
X79468Y158825D01*
X79568Y158837D01*
X79668Y158853D01*
X79768Y158872D01*
X79866Y158896D01*
X79964Y158923D01*
X80060Y158954D01*
X80155Y158988D01*
X80249Y159027D01*
X80341Y159068D01*
X80432Y159114D01*
X80520Y159163D01*
X80607Y159215D01*
X80692Y159271D01*
X80774Y159330D01*
X80854Y159392D01*
X80932Y159457D01*
X81007Y159525D01*
X81079Y159596D01*
X81149Y159669D01*
X81215Y159746D01*
X81279Y159824D01*
X81339Y159906D01*
X81396Y159989D01*
X81450Y160075D01*
X81501Y160163D01*
X81548Y160252D01*
X81592Y160344D01*
X81632Y160437D01*
X81669Y160531D01*
X81701Y160627D01*
X81730Y160724D01*
X81756Y160822D01*
X81777Y160921D01*
X81795Y161021D01*
X81808Y161121D01*
X81818Y161222D01*
X81824Y161323D01*
X81826Y161424D01*
X81826Y164035D01*
X81824Y164161D01*
X81818Y164287D01*
X81809Y164413D01*
X81796Y164538D01*
X81778Y164663D01*
X81758Y164788D01*
X81733Y164912D01*
X81705Y165035D01*
X81673Y165157D01*
X81637Y165278D01*
X81598Y165398D01*
X81555Y165516D01*
X81508Y165633D01*
X81458Y165749D01*
X81404Y165864D01*
X81348Y165976D01*
X81287Y166087D01*
X81224Y166196D01*
X81157Y166303D01*
X81087Y166408D01*
X81013Y166511D01*
X80937Y166611D01*
X80858Y166709D01*
X80776Y166805D01*
X80690Y166898D01*
X80603Y166989D01*
X80512Y167076D01*
X80419Y167162D01*
X80323Y167244D01*
X80225Y167323D01*
X80125Y167399D01*
X80022Y167473D01*
X79917Y167543D01*
X79810Y167610D01*
X79701Y167673D01*
X79590Y167734D01*
X79478Y167790D01*
X79363Y167844D01*
X79247Y167894D01*
X79130Y167941D01*
X79012Y167984D01*
X78892Y168023D01*
X78771Y168059D01*
X78649Y168091D01*
X78526Y168119D01*
X78402Y168144D01*
X78277Y168164D01*
X78152Y168182D01*
X78027Y168195D01*
X77901Y168204D01*
X77775Y168210D01*
X77649Y168212D01*
D11*
X36995Y175781D02*
X36995Y195910D01*
D13*
X53848Y185738D02*
X60452Y185738D01*
D12*
X84953Y186119D02*
X87042Y186119D01*
X87131Y186121D01*
X87219Y186127D01*
X87307Y186136D01*
X87395Y186149D01*
X87482Y186166D01*
X87568Y186186D01*
X87653Y186211D01*
X87738Y186238D01*
X87821Y186270D01*
X87902Y186304D01*
X87982Y186343D01*
X88060Y186384D01*
X88137Y186429D01*
X88211Y186477D01*
X88284Y186528D01*
X88354Y186582D01*
X88421Y186640D01*
X88487Y186700D01*
X88549Y186762D01*
X88609Y186828D01*
X88667Y186895D01*
X88721Y186965D01*
X88772Y187038D01*
X88820Y187112D01*
X88865Y187189D01*
X88906Y187267D01*
X88945Y187347D01*
X88979Y187428D01*
X89011Y187511D01*
X89038Y187596D01*
X89063Y187681D01*
X89083Y187767D01*
X89100Y187854D01*
X89113Y187942D01*
X89122Y188030D01*
X89128Y188118D01*
X89130Y188207D01*
X89130Y193428D01*
X89128Y193517D01*
X89122Y193605D01*
X89113Y193693D01*
X89100Y193781D01*
X89083Y193868D01*
X89063Y193954D01*
X89038Y194039D01*
X89011Y194124D01*
X88979Y194207D01*
X88945Y194288D01*
X88906Y194368D01*
X88865Y194446D01*
X88820Y194523D01*
X88772Y194597D01*
X88721Y194670D01*
X88667Y194740D01*
X88609Y194807D01*
X88549Y194873D01*
X88487Y194935D01*
X88421Y194995D01*
X88354Y195053D01*
X88284Y195107D01*
X88211Y195158D01*
X88137Y195206D01*
X88060Y195251D01*
X87982Y195292D01*
X87902Y195331D01*
X87821Y195365D01*
X87738Y195397D01*
X87653Y195424D01*
X87568Y195449D01*
X87482Y195469D01*
X87395Y195486D01*
X87307Y195499D01*
X87219Y195508D01*
X87131Y195514D01*
X87042Y195516D01*
X87042Y195517D02*
X84953Y195517D01*
X81485Y186119D02*
X78874Y186119D01*
X78874Y186118D02*
X78773Y186120D01*
X78672Y186126D01*
X78571Y186136D01*
X78471Y186149D01*
X78371Y186167D01*
X78272Y186188D01*
X78174Y186214D01*
X78077Y186243D01*
X77981Y186275D01*
X77887Y186312D01*
X77794Y186352D01*
X77702Y186396D01*
X77613Y186443D01*
X77525Y186494D01*
X77439Y186548D01*
X77356Y186605D01*
X77274Y186665D01*
X77196Y186729D01*
X77119Y186795D01*
X77046Y186865D01*
X76975Y186937D01*
X76907Y187012D01*
X76842Y187090D01*
X76780Y187170D01*
X76721Y187252D01*
X76665Y187337D01*
X76613Y187424D01*
X76564Y187512D01*
X76518Y187603D01*
X76477Y187695D01*
X76438Y187789D01*
X76404Y187884D01*
X76373Y187980D01*
X76346Y188078D01*
X76322Y188176D01*
X76303Y188276D01*
X76287Y188376D01*
X76275Y188476D01*
X76267Y188577D01*
X76263Y188678D01*
X76263Y188780D01*
X76267Y188881D01*
X76275Y188982D01*
X76287Y189082D01*
X76303Y189182D01*
X76322Y189282D01*
X76346Y189380D01*
X76373Y189478D01*
X76404Y189574D01*
X76438Y189669D01*
X76477Y189763D01*
X76518Y189855D01*
X76564Y189946D01*
X76613Y190035D01*
X76665Y190121D01*
X76721Y190206D01*
X76780Y190288D01*
X76842Y190368D01*
X76907Y190446D01*
X76975Y190521D01*
X77046Y190593D01*
X77119Y190663D01*
X77196Y190729D01*
X77274Y190793D01*
X77356Y190853D01*
X77439Y190910D01*
X77525Y190964D01*
X77613Y191015D01*
X77702Y191062D01*
X77794Y191106D01*
X77887Y191146D01*
X77981Y191183D01*
X78077Y191215D01*
X78174Y191244D01*
X78272Y191270D01*
X78371Y191291D01*
X78471Y191309D01*
X78571Y191322D01*
X78672Y191332D01*
X78773Y191338D01*
X78874Y191340D01*
X78352Y195517D02*
X81485Y195517D01*
X78352Y195516D02*
X78262Y195514D01*
X78173Y195508D01*
X78083Y195499D01*
X77994Y195485D01*
X77906Y195468D01*
X77819Y195447D01*
X77732Y195422D01*
X77647Y195393D01*
X77563Y195361D01*
X77481Y195326D01*
X77400Y195286D01*
X77321Y195244D01*
X77244Y195198D01*
X77169Y195148D01*
X77096Y195096D01*
X77025Y195040D01*
X76957Y194982D01*
X76892Y194920D01*
X76829Y194856D01*
X76769Y194789D01*
X76712Y194720D01*
X76658Y194648D01*
X76607Y194574D01*
X76559Y194498D01*
X76515Y194420D01*
X76474Y194340D01*
X76436Y194258D01*
X76402Y194175D01*
X76372Y194090D01*
X76345Y194004D01*
X76322Y193918D01*
X76303Y193830D01*
X76288Y193741D01*
X76276Y193652D01*
X76268Y193563D01*
X76264Y193473D01*
X76264Y193383D01*
X76268Y193293D01*
X76276Y193204D01*
X76288Y193115D01*
X76303Y193026D01*
X76322Y192938D01*
X76345Y192852D01*
X76372Y192766D01*
X76402Y192681D01*
X76436Y192598D01*
X76474Y192516D01*
X76515Y192436D01*
X76559Y192358D01*
X76607Y192282D01*
X76658Y192208D01*
X76712Y192136D01*
X76769Y192067D01*
X76829Y192000D01*
X76892Y191936D01*
X76957Y191874D01*
X77025Y191816D01*
X77096Y191760D01*
X77169Y191708D01*
X77244Y191658D01*
X77321Y191612D01*
X77400Y191570D01*
X77481Y191530D01*
X77563Y191495D01*
X77647Y191463D01*
X77732Y191434D01*
X77819Y191409D01*
X77906Y191388D01*
X77994Y191371D01*
X78083Y191357D01*
X78173Y191348D01*
X78262Y191342D01*
X78352Y191340D01*
X80440Y191340D01*
D13*
X-60452Y111125D02*
X-66802Y111125D01*
D12*
X-55944Y101854D02*
X-55944Y92456D01*
X-55944Y101854D02*
X-58554Y101854D01*
X-58655Y101852D01*
X-58756Y101846D01*
X-58857Y101836D01*
X-58957Y101823D01*
X-59057Y101805D01*
X-59156Y101784D01*
X-59254Y101758D01*
X-59351Y101729D01*
X-59447Y101697D01*
X-59541Y101660D01*
X-59634Y101620D01*
X-59726Y101576D01*
X-59815Y101529D01*
X-59903Y101478D01*
X-59989Y101424D01*
X-60072Y101367D01*
X-60154Y101307D01*
X-60232Y101243D01*
X-60309Y101177D01*
X-60382Y101107D01*
X-60453Y101035D01*
X-60521Y100960D01*
X-60586Y100882D01*
X-60648Y100802D01*
X-60707Y100720D01*
X-60763Y100635D01*
X-60815Y100549D01*
X-60864Y100460D01*
X-60910Y100369D01*
X-60951Y100277D01*
X-60990Y100183D01*
X-61024Y100088D01*
X-61055Y99992D01*
X-61082Y99894D01*
X-61106Y99796D01*
X-61125Y99696D01*
X-61141Y99596D01*
X-61153Y99496D01*
X-61161Y99395D01*
X-61165Y99294D01*
X-61165Y99192D01*
X-61161Y99091D01*
X-61153Y98990D01*
X-61141Y98890D01*
X-61125Y98790D01*
X-61106Y98690D01*
X-61082Y98592D01*
X-61055Y98494D01*
X-61024Y98398D01*
X-60990Y98303D01*
X-60951Y98209D01*
X-60910Y98117D01*
X-60864Y98026D01*
X-60815Y97938D01*
X-60763Y97851D01*
X-60707Y97766D01*
X-60648Y97684D01*
X-60586Y97604D01*
X-60521Y97526D01*
X-60453Y97451D01*
X-60382Y97379D01*
X-60309Y97309D01*
X-60232Y97243D01*
X-60154Y97179D01*
X-60072Y97119D01*
X-59989Y97062D01*
X-59903Y97008D01*
X-59815Y96957D01*
X-59726Y96910D01*
X-59634Y96866D01*
X-59541Y96826D01*
X-59447Y96789D01*
X-59351Y96757D01*
X-59254Y96728D01*
X-59156Y96702D01*
X-59057Y96681D01*
X-58957Y96663D01*
X-58857Y96650D01*
X-58756Y96640D01*
X-58655Y96634D01*
X-58554Y96632D01*
X-58554Y96633D02*
X-55944Y96633D01*
X-59076Y96633D02*
X-61165Y92456D01*
X-65030Y99766D02*
X-67641Y101854D01*
X-67641Y92456D01*
X-65030Y92456D02*
X-70252Y92456D01*
D13*
X54928Y121920D02*
X54928Y157480D01*
X54928Y121920D02*
X75248Y121920D01*
X75248Y157480D01*
X54928Y157480D01*
D12*
X78804Y130782D02*
X88202Y137047D01*
X88202Y130782D02*
X78804Y137047D01*
X86113Y140448D02*
X88202Y143058D01*
X78804Y143058D01*
X78804Y140448D02*
X78804Y145669D01*
D13*
X-52388Y145923D02*
X-52388Y152527D01*
D12*
X-57087Y123303D02*
X-57087Y121214D01*
X-57086Y121214D02*
X-57084Y121125D01*
X-57078Y121037D01*
X-57069Y120949D01*
X-57056Y120861D01*
X-57039Y120774D01*
X-57019Y120688D01*
X-56994Y120603D01*
X-56967Y120518D01*
X-56935Y120435D01*
X-56901Y120354D01*
X-56862Y120274D01*
X-56821Y120196D01*
X-56776Y120119D01*
X-56728Y120045D01*
X-56677Y119972D01*
X-56623Y119902D01*
X-56565Y119835D01*
X-56505Y119769D01*
X-56443Y119707D01*
X-56377Y119647D01*
X-56310Y119589D01*
X-56240Y119535D01*
X-56167Y119484D01*
X-56093Y119436D01*
X-56016Y119391D01*
X-55938Y119350D01*
X-55858Y119311D01*
X-55777Y119277D01*
X-55694Y119245D01*
X-55609Y119218D01*
X-55524Y119193D01*
X-55438Y119173D01*
X-55351Y119156D01*
X-55263Y119143D01*
X-55175Y119134D01*
X-55087Y119128D01*
X-54998Y119126D01*
X-49777Y119126D01*
X-49686Y119128D01*
X-49595Y119134D01*
X-49504Y119144D01*
X-49414Y119158D01*
X-49325Y119176D01*
X-49236Y119197D01*
X-49149Y119223D01*
X-49063Y119252D01*
X-48978Y119285D01*
X-48894Y119322D01*
X-48812Y119362D01*
X-48733Y119406D01*
X-48655Y119453D01*
X-48579Y119504D01*
X-48505Y119558D01*
X-48434Y119615D01*
X-48366Y119675D01*
X-48300Y119738D01*
X-48237Y119804D01*
X-48177Y119872D01*
X-48120Y119943D01*
X-48066Y120017D01*
X-48015Y120093D01*
X-47968Y120170D01*
X-47924Y120250D01*
X-47884Y120332D01*
X-47847Y120416D01*
X-47814Y120500D01*
X-47785Y120587D01*
X-47759Y120674D01*
X-47738Y120763D01*
X-47720Y120852D01*
X-47706Y120942D01*
X-47696Y121033D01*
X-47690Y121124D01*
X-47688Y121215D01*
X-47689Y121214D02*
X-47689Y123303D01*
X-54476Y126771D02*
X-54375Y126773D01*
X-54274Y126779D01*
X-54173Y126789D01*
X-54073Y126802D01*
X-53973Y126820D01*
X-53874Y126841D01*
X-53776Y126867D01*
X-53679Y126896D01*
X-53583Y126928D01*
X-53489Y126965D01*
X-53396Y127005D01*
X-53304Y127049D01*
X-53215Y127096D01*
X-53127Y127147D01*
X-53041Y127201D01*
X-52958Y127258D01*
X-52876Y127318D01*
X-52798Y127382D01*
X-52721Y127448D01*
X-52648Y127518D01*
X-52577Y127590D01*
X-52509Y127665D01*
X-52444Y127743D01*
X-52382Y127823D01*
X-52323Y127905D01*
X-52267Y127990D01*
X-52215Y128076D01*
X-52166Y128165D01*
X-52120Y128256D01*
X-52079Y128348D01*
X-52040Y128442D01*
X-52006Y128537D01*
X-51975Y128633D01*
X-51948Y128731D01*
X-51924Y128829D01*
X-51905Y128929D01*
X-51889Y129029D01*
X-51877Y129129D01*
X-51869Y129230D01*
X-51865Y129331D01*
X-51865Y129433D01*
X-51869Y129534D01*
X-51877Y129635D01*
X-51889Y129735D01*
X-51905Y129835D01*
X-51924Y129935D01*
X-51948Y130033D01*
X-51975Y130131D01*
X-52006Y130227D01*
X-52040Y130322D01*
X-52079Y130416D01*
X-52120Y130508D01*
X-52166Y130599D01*
X-52215Y130687D01*
X-52267Y130774D01*
X-52323Y130859D01*
X-52382Y130941D01*
X-52444Y131021D01*
X-52509Y131099D01*
X-52577Y131174D01*
X-52648Y131246D01*
X-52721Y131316D01*
X-52798Y131382D01*
X-52876Y131446D01*
X-52958Y131506D01*
X-53041Y131563D01*
X-53127Y131617D01*
X-53215Y131668D01*
X-53304Y131715D01*
X-53396Y131759D01*
X-53489Y131799D01*
X-53583Y131836D01*
X-53679Y131868D01*
X-53776Y131897D01*
X-53874Y131923D01*
X-53973Y131944D01*
X-54073Y131962D01*
X-54173Y131975D01*
X-54274Y131985D01*
X-54375Y131991D01*
X-54476Y131993D01*
X-54577Y131991D01*
X-54678Y131985D01*
X-54779Y131975D01*
X-54879Y131962D01*
X-54979Y131944D01*
X-55078Y131923D01*
X-55176Y131897D01*
X-55273Y131868D01*
X-55369Y131836D01*
X-55463Y131799D01*
X-55556Y131759D01*
X-55648Y131715D01*
X-55737Y131668D01*
X-55825Y131617D01*
X-55911Y131563D01*
X-55994Y131506D01*
X-56076Y131446D01*
X-56154Y131382D01*
X-56231Y131316D01*
X-56304Y131246D01*
X-56375Y131174D01*
X-56443Y131099D01*
X-56508Y131021D01*
X-56570Y130941D01*
X-56629Y130859D01*
X-56685Y130774D01*
X-56737Y130688D01*
X-56786Y130599D01*
X-56832Y130508D01*
X-56873Y130416D01*
X-56912Y130322D01*
X-56946Y130227D01*
X-56977Y130131D01*
X-57004Y130033D01*
X-57028Y129935D01*
X-57047Y129835D01*
X-57063Y129735D01*
X-57075Y129635D01*
X-57083Y129534D01*
X-57087Y129433D01*
X-57087Y129331D01*
X-57083Y129230D01*
X-57075Y129129D01*
X-57063Y129029D01*
X-57047Y128929D01*
X-57028Y128829D01*
X-57004Y128731D01*
X-56977Y128633D01*
X-56946Y128537D01*
X-56912Y128442D01*
X-56873Y128348D01*
X-56832Y128256D01*
X-56786Y128165D01*
X-56737Y128077D01*
X-56685Y127990D01*
X-56629Y127905D01*
X-56570Y127823D01*
X-56508Y127743D01*
X-56443Y127665D01*
X-56375Y127590D01*
X-56304Y127518D01*
X-56231Y127448D01*
X-56154Y127382D01*
X-56076Y127318D01*
X-55994Y127258D01*
X-55911Y127201D01*
X-55825Y127147D01*
X-55737Y127096D01*
X-55648Y127049D01*
X-55556Y127005D01*
X-55463Y126965D01*
X-55369Y126928D01*
X-55273Y126896D01*
X-55176Y126867D01*
X-55078Y126841D01*
X-54979Y126820D01*
X-54879Y126802D01*
X-54779Y126789D01*
X-54678Y126779D01*
X-54577Y126773D01*
X-54476Y126771D01*
X-49777Y127294D02*
X-49687Y127296D01*
X-49598Y127302D01*
X-49508Y127311D01*
X-49419Y127325D01*
X-49331Y127342D01*
X-49244Y127363D01*
X-49157Y127388D01*
X-49072Y127417D01*
X-48988Y127449D01*
X-48906Y127484D01*
X-48825Y127524D01*
X-48746Y127566D01*
X-48669Y127612D01*
X-48594Y127662D01*
X-48521Y127714D01*
X-48450Y127770D01*
X-48382Y127828D01*
X-48317Y127890D01*
X-48254Y127954D01*
X-48194Y128021D01*
X-48137Y128090D01*
X-48083Y128162D01*
X-48032Y128236D01*
X-47984Y128312D01*
X-47940Y128390D01*
X-47899Y128470D01*
X-47861Y128552D01*
X-47827Y128635D01*
X-47797Y128720D01*
X-47770Y128806D01*
X-47747Y128892D01*
X-47728Y128980D01*
X-47713Y129069D01*
X-47701Y129158D01*
X-47693Y129247D01*
X-47689Y129337D01*
X-47689Y129427D01*
X-47693Y129517D01*
X-47701Y129606D01*
X-47713Y129695D01*
X-47728Y129784D01*
X-47747Y129872D01*
X-47770Y129958D01*
X-47797Y130044D01*
X-47827Y130129D01*
X-47861Y130212D01*
X-47899Y130294D01*
X-47940Y130374D01*
X-47984Y130452D01*
X-48032Y130528D01*
X-48083Y130602D01*
X-48137Y130674D01*
X-48194Y130743D01*
X-48254Y130810D01*
X-48317Y130874D01*
X-48382Y130936D01*
X-48450Y130994D01*
X-48521Y131050D01*
X-48594Y131102D01*
X-48669Y131152D01*
X-48746Y131198D01*
X-48825Y131240D01*
X-48906Y131280D01*
X-48988Y131315D01*
X-49072Y131347D01*
X-49157Y131376D01*
X-49244Y131401D01*
X-49331Y131422D01*
X-49419Y131439D01*
X-49508Y131453D01*
X-49598Y131462D01*
X-49687Y131468D01*
X-49777Y131470D01*
X-49867Y131468D01*
X-49956Y131462D01*
X-50046Y131453D01*
X-50135Y131439D01*
X-50223Y131422D01*
X-50310Y131401D01*
X-50397Y131376D01*
X-50482Y131347D01*
X-50566Y131315D01*
X-50648Y131280D01*
X-50729Y131240D01*
X-50808Y131198D01*
X-50885Y131152D01*
X-50960Y131102D01*
X-51033Y131050D01*
X-51104Y130994D01*
X-51172Y130936D01*
X-51237Y130874D01*
X-51300Y130810D01*
X-51360Y130743D01*
X-51417Y130674D01*
X-51471Y130602D01*
X-51522Y130528D01*
X-51570Y130452D01*
X-51614Y130374D01*
X-51655Y130294D01*
X-51693Y130212D01*
X-51727Y130129D01*
X-51757Y130044D01*
X-51784Y129958D01*
X-51807Y129872D01*
X-51826Y129784D01*
X-51841Y129695D01*
X-51853Y129606D01*
X-51861Y129517D01*
X-51865Y129427D01*
X-51865Y129337D01*
X-51861Y129247D01*
X-51853Y129158D01*
X-51841Y129069D01*
X-51826Y128980D01*
X-51807Y128892D01*
X-51784Y128806D01*
X-51757Y128720D01*
X-51727Y128635D01*
X-51693Y128552D01*
X-51655Y128470D01*
X-51614Y128390D01*
X-51570Y128312D01*
X-51522Y128236D01*
X-51471Y128162D01*
X-51417Y128090D01*
X-51360Y128021D01*
X-51300Y127954D01*
X-51237Y127890D01*
X-51172Y127828D01*
X-51104Y127770D01*
X-51033Y127714D01*
X-50960Y127662D01*
X-50885Y127612D01*
X-50808Y127566D01*
X-50729Y127524D01*
X-50648Y127484D01*
X-50566Y127449D01*
X-50482Y127417D01*
X-50397Y127388D01*
X-50310Y127363D01*
X-50223Y127342D01*
X-50135Y127325D01*
X-50046Y127311D01*
X-49956Y127302D01*
X-49867Y127296D01*
X-49777Y127294D01*
D13*
X53848Y174625D02*
X60452Y174625D01*
D12*
X84342Y171831D02*
X86431Y171831D01*
X86520Y171833D01*
X86608Y171839D01*
X86696Y171848D01*
X86784Y171861D01*
X86871Y171878D01*
X86957Y171898D01*
X87042Y171923D01*
X87127Y171950D01*
X87210Y171982D01*
X87291Y172016D01*
X87371Y172055D01*
X87449Y172096D01*
X87526Y172141D01*
X87600Y172189D01*
X87673Y172240D01*
X87743Y172294D01*
X87810Y172352D01*
X87876Y172412D01*
X87938Y172474D01*
X87998Y172540D01*
X88056Y172607D01*
X88110Y172677D01*
X88161Y172750D01*
X88209Y172824D01*
X88254Y172901D01*
X88295Y172979D01*
X88334Y173059D01*
X88368Y173140D01*
X88400Y173223D01*
X88427Y173308D01*
X88452Y173393D01*
X88472Y173479D01*
X88489Y173566D01*
X88502Y173654D01*
X88511Y173742D01*
X88517Y173830D01*
X88519Y173919D01*
X88519Y179141D01*
X88517Y179230D01*
X88511Y179318D01*
X88502Y179406D01*
X88489Y179494D01*
X88472Y179581D01*
X88452Y179667D01*
X88427Y179752D01*
X88400Y179837D01*
X88368Y179920D01*
X88334Y180001D01*
X88295Y180081D01*
X88254Y180159D01*
X88209Y180236D01*
X88161Y180310D01*
X88110Y180383D01*
X88056Y180453D01*
X87998Y180520D01*
X87938Y180586D01*
X87876Y180648D01*
X87810Y180708D01*
X87743Y180766D01*
X87673Y180820D01*
X87600Y180871D01*
X87526Y180919D01*
X87449Y180964D01*
X87371Y181005D01*
X87291Y181044D01*
X87210Y181078D01*
X87127Y181110D01*
X87042Y181137D01*
X86957Y181162D01*
X86871Y181182D01*
X86784Y181199D01*
X86696Y181212D01*
X86608Y181221D01*
X86520Y181227D01*
X86431Y181229D01*
X84342Y181229D01*
X80873Y181229D02*
X80873Y180185D01*
X80873Y181229D02*
X75652Y181229D01*
X78263Y171831D01*
D11*
X36995Y190068D02*
X36995Y210198D01*
D13*
X53848Y200025D02*
X60452Y200025D01*
D12*
X85271Y199771D02*
X87359Y199771D01*
X87448Y199773D01*
X87536Y199779D01*
X87624Y199788D01*
X87712Y199801D01*
X87799Y199818D01*
X87885Y199838D01*
X87970Y199863D01*
X88055Y199890D01*
X88138Y199922D01*
X88219Y199956D01*
X88299Y199995D01*
X88377Y200036D01*
X88454Y200081D01*
X88528Y200129D01*
X88601Y200180D01*
X88671Y200234D01*
X88738Y200292D01*
X88804Y200352D01*
X88866Y200414D01*
X88926Y200480D01*
X88984Y200547D01*
X89038Y200617D01*
X89089Y200690D01*
X89137Y200764D01*
X89182Y200841D01*
X89223Y200919D01*
X89262Y200999D01*
X89296Y201080D01*
X89328Y201163D01*
X89355Y201248D01*
X89380Y201333D01*
X89400Y201419D01*
X89417Y201506D01*
X89430Y201594D01*
X89439Y201682D01*
X89445Y201770D01*
X89447Y201859D01*
X89448Y201859D02*
X89448Y207081D01*
X89447Y207081D02*
X89445Y207170D01*
X89439Y207258D01*
X89430Y207346D01*
X89417Y207434D01*
X89400Y207521D01*
X89380Y207607D01*
X89355Y207692D01*
X89328Y207777D01*
X89296Y207860D01*
X89262Y207941D01*
X89223Y208021D01*
X89182Y208099D01*
X89137Y208176D01*
X89089Y208250D01*
X89038Y208323D01*
X88984Y208393D01*
X88926Y208460D01*
X88866Y208526D01*
X88804Y208588D01*
X88738Y208648D01*
X88671Y208706D01*
X88601Y208760D01*
X88528Y208811D01*
X88454Y208859D01*
X88377Y208904D01*
X88299Y208945D01*
X88219Y208984D01*
X88138Y209018D01*
X88055Y209050D01*
X87970Y209077D01*
X87885Y209102D01*
X87799Y209122D01*
X87712Y209139D01*
X87624Y209152D01*
X87536Y209161D01*
X87448Y209167D01*
X87359Y209169D01*
X85271Y209169D01*
X78931Y209170D02*
X78836Y209168D01*
X78742Y209162D01*
X78648Y209153D01*
X78554Y209140D01*
X78461Y209123D01*
X78369Y209102D01*
X78277Y209077D01*
X78187Y209049D01*
X78098Y209017D01*
X78010Y208982D01*
X77924Y208943D01*
X77839Y208901D01*
X77756Y208855D01*
X77675Y208806D01*
X77596Y208754D01*
X77519Y208699D01*
X77445Y208640D01*
X77373Y208579D01*
X77303Y208515D01*
X77236Y208448D01*
X77172Y208378D01*
X77111Y208306D01*
X77052Y208232D01*
X76997Y208155D01*
X76945Y208076D01*
X76896Y207995D01*
X76850Y207912D01*
X76808Y207827D01*
X76769Y207741D01*
X76734Y207653D01*
X76702Y207564D01*
X76674Y207474D01*
X76649Y207382D01*
X76628Y207290D01*
X76611Y207197D01*
X76598Y207103D01*
X76589Y207009D01*
X76583Y206915D01*
X76581Y206820D01*
X78931Y209169D02*
X79039Y209167D01*
X79148Y209161D01*
X79256Y209151D01*
X79363Y209138D01*
X79470Y209120D01*
X79577Y209099D01*
X79682Y209074D01*
X79787Y209045D01*
X79890Y209013D01*
X79992Y208976D01*
X80093Y208936D01*
X80192Y208893D01*
X80290Y208846D01*
X80386Y208795D01*
X80480Y208741D01*
X80572Y208684D01*
X80662Y208623D01*
X80750Y208559D01*
X80835Y208493D01*
X80918Y208423D01*
X80998Y208350D01*
X81076Y208274D01*
X81151Y208196D01*
X81223Y208115D01*
X81292Y208031D01*
X81358Y207945D01*
X81421Y207857D01*
X81480Y207766D01*
X81537Y207674D01*
X81590Y207579D01*
X81639Y207482D01*
X81685Y207384D01*
X81728Y207285D01*
X81767Y207183D01*
X81802Y207081D01*
X77364Y204992D02*
X77295Y205061D01*
X77229Y205132D01*
X77165Y205205D01*
X77104Y205281D01*
X77046Y205360D01*
X76992Y205440D01*
X76940Y205523D01*
X76892Y205607D01*
X76846Y205693D01*
X76805Y205781D01*
X76766Y205871D01*
X76731Y205962D01*
X76700Y206054D01*
X76672Y206147D01*
X76648Y206241D01*
X76628Y206336D01*
X76611Y206432D01*
X76598Y206529D01*
X76589Y206626D01*
X76583Y206723D01*
X76581Y206820D01*
X77364Y204992D02*
X81802Y199771D01*
X76581Y199771D01*
D13*
X-96838Y185865D02*
X-96838Y179515D01*
D12*
X-104839Y177081D02*
X-114237Y177081D01*
X-104839Y177081D02*
X-104839Y179692D01*
X-104838Y179692D02*
X-104840Y179793D01*
X-104846Y179894D01*
X-104856Y179995D01*
X-104869Y180095D01*
X-104887Y180195D01*
X-104908Y180294D01*
X-104934Y180392D01*
X-104963Y180489D01*
X-104995Y180585D01*
X-105032Y180679D01*
X-105072Y180772D01*
X-105116Y180864D01*
X-105163Y180953D01*
X-105214Y181041D01*
X-105268Y181127D01*
X-105325Y181210D01*
X-105385Y181292D01*
X-105449Y181370D01*
X-105515Y181447D01*
X-105585Y181520D01*
X-105657Y181591D01*
X-105732Y181659D01*
X-105810Y181724D01*
X-105890Y181786D01*
X-105972Y181845D01*
X-106057Y181901D01*
X-106144Y181953D01*
X-106232Y182002D01*
X-106323Y182048D01*
X-106415Y182089D01*
X-106509Y182128D01*
X-106604Y182162D01*
X-106700Y182193D01*
X-106798Y182220D01*
X-106896Y182244D01*
X-106996Y182263D01*
X-107096Y182279D01*
X-107196Y182291D01*
X-107297Y182299D01*
X-107398Y182303D01*
X-107500Y182303D01*
X-107601Y182299D01*
X-107702Y182291D01*
X-107802Y182279D01*
X-107902Y182263D01*
X-108002Y182244D01*
X-108100Y182220D01*
X-108198Y182193D01*
X-108294Y182162D01*
X-108389Y182128D01*
X-108483Y182089D01*
X-108575Y182048D01*
X-108666Y182002D01*
X-108755Y181953D01*
X-108841Y181901D01*
X-108926Y181845D01*
X-109008Y181786D01*
X-109088Y181724D01*
X-109166Y181659D01*
X-109241Y181591D01*
X-109313Y181520D01*
X-109383Y181447D01*
X-109449Y181370D01*
X-109513Y181292D01*
X-109573Y181210D01*
X-109630Y181127D01*
X-109684Y181041D01*
X-109735Y180953D01*
X-109782Y180864D01*
X-109826Y180772D01*
X-109866Y180679D01*
X-109903Y180585D01*
X-109935Y180489D01*
X-109964Y180392D01*
X-109990Y180294D01*
X-110011Y180195D01*
X-110029Y180095D01*
X-110042Y179995D01*
X-110052Y179894D01*
X-110058Y179793D01*
X-110060Y179692D01*
X-110060Y177081D01*
X-110060Y180214D02*
X-114237Y182302D01*
X-107188Y191390D02*
X-107093Y191388D01*
X-106999Y191382D01*
X-106905Y191373D01*
X-106811Y191360D01*
X-106718Y191343D01*
X-106626Y191322D01*
X-106534Y191297D01*
X-106444Y191269D01*
X-106355Y191237D01*
X-106267Y191202D01*
X-106181Y191163D01*
X-106096Y191121D01*
X-106013Y191075D01*
X-105932Y191026D01*
X-105853Y190974D01*
X-105776Y190919D01*
X-105702Y190860D01*
X-105630Y190799D01*
X-105560Y190735D01*
X-105493Y190668D01*
X-105429Y190598D01*
X-105368Y190526D01*
X-105309Y190452D01*
X-105254Y190375D01*
X-105202Y190296D01*
X-105153Y190215D01*
X-105107Y190132D01*
X-105065Y190047D01*
X-105026Y189961D01*
X-104991Y189873D01*
X-104959Y189784D01*
X-104931Y189694D01*
X-104906Y189602D01*
X-104885Y189510D01*
X-104868Y189417D01*
X-104855Y189323D01*
X-104846Y189229D01*
X-104840Y189135D01*
X-104838Y189040D01*
X-104839Y189040D02*
X-104841Y188932D01*
X-104847Y188823D01*
X-104857Y188715D01*
X-104870Y188608D01*
X-104888Y188501D01*
X-104909Y188394D01*
X-104934Y188289D01*
X-104963Y188184D01*
X-104995Y188081D01*
X-105032Y187979D01*
X-105072Y187878D01*
X-105115Y187779D01*
X-105162Y187681D01*
X-105213Y187585D01*
X-105267Y187491D01*
X-105324Y187399D01*
X-105385Y187309D01*
X-105449Y187221D01*
X-105515Y187136D01*
X-105585Y187053D01*
X-105658Y186973D01*
X-105734Y186895D01*
X-105812Y186820D01*
X-105893Y186748D01*
X-105977Y186679D01*
X-106063Y186613D01*
X-106151Y186550D01*
X-106242Y186491D01*
X-106334Y186434D01*
X-106429Y186381D01*
X-106526Y186332D01*
X-106624Y186286D01*
X-106723Y186243D01*
X-106825Y186204D01*
X-106927Y186169D01*
X-109016Y190606D02*
X-108947Y190675D01*
X-108876Y190741D01*
X-108803Y190805D01*
X-108727Y190866D01*
X-108648Y190924D01*
X-108568Y190978D01*
X-108485Y191030D01*
X-108401Y191078D01*
X-108315Y191124D01*
X-108227Y191165D01*
X-108137Y191204D01*
X-108046Y191239D01*
X-107954Y191270D01*
X-107861Y191298D01*
X-107767Y191322D01*
X-107672Y191342D01*
X-107576Y191359D01*
X-107479Y191372D01*
X-107382Y191381D01*
X-107285Y191387D01*
X-107188Y191389D01*
X-109015Y190606D02*
X-114237Y186168D01*
X-114237Y191389D01*
D11*
X-73457Y169380D02*
X-53327Y169380D01*
D13*
X-63500Y152527D02*
X-63500Y145923D01*
D12*
X-69469Y122692D02*
X-69469Y120603D01*
X-69467Y120514D01*
X-69461Y120426D01*
X-69452Y120338D01*
X-69439Y120250D01*
X-69422Y120163D01*
X-69402Y120077D01*
X-69377Y119992D01*
X-69350Y119907D01*
X-69318Y119824D01*
X-69284Y119743D01*
X-69245Y119663D01*
X-69204Y119585D01*
X-69159Y119508D01*
X-69111Y119434D01*
X-69060Y119361D01*
X-69006Y119291D01*
X-68948Y119224D01*
X-68888Y119158D01*
X-68826Y119096D01*
X-68760Y119036D01*
X-68693Y118978D01*
X-68623Y118924D01*
X-68550Y118873D01*
X-68476Y118825D01*
X-68399Y118780D01*
X-68321Y118739D01*
X-68241Y118700D01*
X-68160Y118666D01*
X-68077Y118634D01*
X-67992Y118607D01*
X-67907Y118582D01*
X-67821Y118562D01*
X-67734Y118545D01*
X-67646Y118532D01*
X-67558Y118523D01*
X-67470Y118517D01*
X-67381Y118515D01*
X-62159Y118515D01*
X-62159Y118514D02*
X-62068Y118516D01*
X-61977Y118522D01*
X-61886Y118532D01*
X-61796Y118546D01*
X-61707Y118564D01*
X-61618Y118585D01*
X-61531Y118611D01*
X-61445Y118640D01*
X-61360Y118673D01*
X-61276Y118710D01*
X-61194Y118750D01*
X-61115Y118794D01*
X-61037Y118841D01*
X-60961Y118892D01*
X-60887Y118946D01*
X-60816Y119003D01*
X-60748Y119063D01*
X-60682Y119126D01*
X-60619Y119192D01*
X-60559Y119260D01*
X-60502Y119331D01*
X-60448Y119405D01*
X-60397Y119481D01*
X-60350Y119558D01*
X-60306Y119638D01*
X-60266Y119720D01*
X-60229Y119804D01*
X-60196Y119888D01*
X-60167Y119975D01*
X-60141Y120062D01*
X-60120Y120151D01*
X-60102Y120240D01*
X-60088Y120330D01*
X-60078Y120421D01*
X-60072Y120512D01*
X-60070Y120603D01*
X-60071Y120603D02*
X-60071Y122692D01*
X-60071Y128249D02*
X-67381Y126160D01*
X-67381Y131382D01*
X-69469Y129815D02*
X-65292Y129815D01*
D13*
X66675Y217361D02*
X66675Y223711D01*
D12*
X71057Y237724D02*
X61659Y237724D01*
X71057Y237724D02*
X71057Y240334D01*
X71055Y240435D01*
X71049Y240536D01*
X71039Y240637D01*
X71026Y240737D01*
X71008Y240837D01*
X70987Y240936D01*
X70961Y241034D01*
X70932Y241131D01*
X70900Y241227D01*
X70863Y241321D01*
X70823Y241414D01*
X70779Y241506D01*
X70732Y241595D01*
X70681Y241683D01*
X70627Y241769D01*
X70570Y241852D01*
X70510Y241934D01*
X70446Y242012D01*
X70380Y242089D01*
X70310Y242162D01*
X70238Y242233D01*
X70163Y242301D01*
X70085Y242366D01*
X70005Y242428D01*
X69923Y242487D01*
X69838Y242543D01*
X69752Y242595D01*
X69663Y242644D01*
X69572Y242690D01*
X69480Y242731D01*
X69386Y242770D01*
X69291Y242804D01*
X69195Y242835D01*
X69097Y242862D01*
X68999Y242886D01*
X68899Y242905D01*
X68799Y242921D01*
X68699Y242933D01*
X68598Y242941D01*
X68497Y242945D01*
X68395Y242945D01*
X68294Y242941D01*
X68193Y242933D01*
X68093Y242921D01*
X67993Y242905D01*
X67893Y242886D01*
X67795Y242862D01*
X67697Y242835D01*
X67601Y242804D01*
X67506Y242770D01*
X67412Y242731D01*
X67320Y242690D01*
X67229Y242644D01*
X67141Y242595D01*
X67054Y242543D01*
X66969Y242487D01*
X66887Y242428D01*
X66807Y242366D01*
X66729Y242301D01*
X66654Y242233D01*
X66582Y242162D01*
X66512Y242089D01*
X66446Y242012D01*
X66382Y241934D01*
X66322Y241852D01*
X66265Y241769D01*
X66211Y241683D01*
X66160Y241595D01*
X66113Y241506D01*
X66069Y241414D01*
X66029Y241321D01*
X65992Y241227D01*
X65960Y241131D01*
X65931Y241034D01*
X65905Y240936D01*
X65884Y240837D01*
X65866Y240737D01*
X65853Y240637D01*
X65843Y240536D01*
X65837Y240435D01*
X65835Y240334D01*
X65835Y237724D01*
X65835Y240856D02*
X61659Y242945D01*
X61659Y246810D02*
X61659Y249421D01*
X61658Y249421D02*
X61660Y249522D01*
X61666Y249623D01*
X61676Y249724D01*
X61689Y249824D01*
X61707Y249924D01*
X61728Y250023D01*
X61754Y250121D01*
X61783Y250218D01*
X61815Y250314D01*
X61852Y250408D01*
X61892Y250501D01*
X61936Y250593D01*
X61983Y250682D01*
X62034Y250770D01*
X62088Y250856D01*
X62145Y250939D01*
X62205Y251021D01*
X62269Y251099D01*
X62335Y251176D01*
X62405Y251249D01*
X62477Y251320D01*
X62552Y251388D01*
X62630Y251453D01*
X62710Y251515D01*
X62792Y251574D01*
X62877Y251630D01*
X62964Y251682D01*
X63052Y251731D01*
X63143Y251777D01*
X63235Y251818D01*
X63329Y251857D01*
X63424Y251891D01*
X63520Y251922D01*
X63618Y251949D01*
X63716Y251973D01*
X63816Y251992D01*
X63916Y252008D01*
X64016Y252020D01*
X64117Y252028D01*
X64218Y252032D01*
X64320Y252032D01*
X64421Y252028D01*
X64522Y252020D01*
X64622Y252008D01*
X64722Y251992D01*
X64822Y251973D01*
X64920Y251949D01*
X65018Y251922D01*
X65114Y251891D01*
X65209Y251857D01*
X65303Y251818D01*
X65395Y251777D01*
X65486Y251731D01*
X65575Y251682D01*
X65661Y251630D01*
X65746Y251574D01*
X65828Y251515D01*
X65908Y251453D01*
X65986Y251388D01*
X66061Y251320D01*
X66133Y251249D01*
X66203Y251176D01*
X66269Y251099D01*
X66333Y251021D01*
X66393Y250939D01*
X66450Y250856D01*
X66504Y250770D01*
X66555Y250682D01*
X66602Y250593D01*
X66646Y250501D01*
X66686Y250408D01*
X66723Y250314D01*
X66755Y250218D01*
X66784Y250121D01*
X66810Y250023D01*
X66831Y249924D01*
X66849Y249824D01*
X66862Y249724D01*
X66872Y249623D01*
X66878Y249522D01*
X66880Y249421D01*
X71057Y249943D02*
X71057Y246810D01*
X71056Y249943D02*
X71054Y250033D01*
X71048Y250122D01*
X71039Y250212D01*
X71025Y250301D01*
X71008Y250389D01*
X70987Y250476D01*
X70962Y250563D01*
X70933Y250648D01*
X70901Y250732D01*
X70866Y250814D01*
X70826Y250895D01*
X70784Y250974D01*
X70738Y251051D01*
X70688Y251126D01*
X70636Y251199D01*
X70580Y251270D01*
X70522Y251338D01*
X70460Y251403D01*
X70396Y251466D01*
X70329Y251526D01*
X70260Y251583D01*
X70188Y251637D01*
X70114Y251688D01*
X70038Y251736D01*
X69960Y251780D01*
X69880Y251821D01*
X69798Y251859D01*
X69715Y251893D01*
X69630Y251923D01*
X69544Y251950D01*
X69458Y251973D01*
X69370Y251992D01*
X69281Y252007D01*
X69192Y252019D01*
X69103Y252027D01*
X69013Y252031D01*
X68923Y252031D01*
X68833Y252027D01*
X68744Y252019D01*
X68655Y252007D01*
X68566Y251992D01*
X68478Y251973D01*
X68392Y251950D01*
X68306Y251923D01*
X68221Y251893D01*
X68138Y251859D01*
X68056Y251821D01*
X67976Y251780D01*
X67898Y251736D01*
X67822Y251688D01*
X67748Y251637D01*
X67676Y251583D01*
X67607Y251526D01*
X67540Y251466D01*
X67476Y251403D01*
X67414Y251338D01*
X67356Y251270D01*
X67300Y251199D01*
X67248Y251126D01*
X67198Y251051D01*
X67152Y250974D01*
X67110Y250895D01*
X67070Y250814D01*
X67035Y250732D01*
X67003Y250648D01*
X66974Y250563D01*
X66949Y250476D01*
X66928Y250389D01*
X66911Y250301D01*
X66897Y250212D01*
X66888Y250122D01*
X66882Y250033D01*
X66880Y249943D01*
X66880Y247855D01*
D14*
X47879Y227521D02*
X47879Y213805D01*
D12*
X52007Y237366D02*
X42609Y237366D01*
X52007Y237366D02*
X52007Y241543D01*
X47830Y241543D02*
X47830Y237366D01*
X47830Y245405D02*
X47830Y248016D01*
X47828Y248117D01*
X47822Y248218D01*
X47812Y248319D01*
X47799Y248419D01*
X47781Y248519D01*
X47760Y248618D01*
X47734Y248716D01*
X47705Y248813D01*
X47673Y248909D01*
X47636Y249003D01*
X47596Y249096D01*
X47552Y249188D01*
X47505Y249277D01*
X47454Y249365D01*
X47400Y249451D01*
X47343Y249534D01*
X47283Y249616D01*
X47219Y249694D01*
X47153Y249771D01*
X47083Y249844D01*
X47011Y249915D01*
X46936Y249983D01*
X46858Y250048D01*
X46778Y250110D01*
X46696Y250169D01*
X46611Y250225D01*
X46525Y250277D01*
X46436Y250326D01*
X46345Y250372D01*
X46253Y250413D01*
X46159Y250452D01*
X46064Y250486D01*
X45968Y250517D01*
X45870Y250544D01*
X45772Y250568D01*
X45672Y250587D01*
X45572Y250603D01*
X45472Y250615D01*
X45371Y250623D01*
X45270Y250627D01*
X45168Y250627D01*
X45067Y250623D01*
X44966Y250615D01*
X44866Y250603D01*
X44766Y250587D01*
X44666Y250568D01*
X44568Y250544D01*
X44470Y250517D01*
X44374Y250486D01*
X44279Y250452D01*
X44185Y250413D01*
X44093Y250372D01*
X44002Y250326D01*
X43914Y250277D01*
X43827Y250225D01*
X43742Y250169D01*
X43660Y250110D01*
X43580Y250048D01*
X43502Y249983D01*
X43427Y249915D01*
X43355Y249844D01*
X43285Y249771D01*
X43219Y249694D01*
X43155Y249616D01*
X43095Y249534D01*
X43038Y249451D01*
X42984Y249365D01*
X42933Y249277D01*
X42886Y249188D01*
X42842Y249096D01*
X42802Y249003D01*
X42765Y248909D01*
X42733Y248813D01*
X42704Y248716D01*
X42678Y248618D01*
X42657Y248519D01*
X42639Y248419D01*
X42626Y248319D01*
X42616Y248218D01*
X42610Y248117D01*
X42608Y248016D01*
X42609Y248016D02*
X42609Y245405D01*
X52007Y245405D01*
X52007Y248016D01*
X52006Y248016D02*
X52004Y248106D01*
X51998Y248195D01*
X51989Y248285D01*
X51975Y248374D01*
X51958Y248462D01*
X51937Y248549D01*
X51912Y248636D01*
X51883Y248721D01*
X51851Y248805D01*
X51816Y248887D01*
X51776Y248968D01*
X51734Y249047D01*
X51688Y249124D01*
X51638Y249199D01*
X51586Y249272D01*
X51530Y249343D01*
X51472Y249411D01*
X51410Y249476D01*
X51346Y249539D01*
X51279Y249599D01*
X51210Y249656D01*
X51138Y249710D01*
X51064Y249761D01*
X50988Y249809D01*
X50910Y249853D01*
X50830Y249894D01*
X50748Y249932D01*
X50665Y249966D01*
X50580Y249996D01*
X50494Y250023D01*
X50408Y250046D01*
X50320Y250065D01*
X50231Y250080D01*
X50142Y250092D01*
X50053Y250100D01*
X49963Y250104D01*
X49873Y250104D01*
X49783Y250100D01*
X49694Y250092D01*
X49605Y250080D01*
X49516Y250065D01*
X49428Y250046D01*
X49342Y250023D01*
X49256Y249996D01*
X49171Y249966D01*
X49088Y249932D01*
X49006Y249894D01*
X48926Y249853D01*
X48848Y249809D01*
X48772Y249761D01*
X48698Y249710D01*
X48626Y249656D01*
X48557Y249599D01*
X48490Y249539D01*
X48426Y249476D01*
X48364Y249411D01*
X48306Y249343D01*
X48250Y249272D01*
X48198Y249199D01*
X48148Y249124D01*
X48102Y249047D01*
X48060Y248968D01*
X48020Y248887D01*
X47985Y248805D01*
X47953Y248721D01*
X47924Y248636D01*
X47899Y248549D01*
X47878Y248462D01*
X47861Y248374D01*
X47847Y248285D01*
X47838Y248195D01*
X47832Y248106D01*
X47830Y248016D01*
X49918Y254113D02*
X52007Y256723D01*
X42609Y256723D01*
X42609Y254113D02*
X42609Y259334D01*
D11*
X-49695Y57582D02*
X-49695Y37452D01*
D13*
X-66548Y47625D02*
X-73152Y47625D01*
D12*
X-91369Y44831D02*
X-93458Y44831D01*
X-91369Y44831D02*
X-91280Y44833D01*
X-91192Y44839D01*
X-91104Y44848D01*
X-91016Y44861D01*
X-90929Y44878D01*
X-90843Y44898D01*
X-90758Y44923D01*
X-90673Y44950D01*
X-90590Y44982D01*
X-90509Y45016D01*
X-90429Y45055D01*
X-90351Y45096D01*
X-90274Y45141D01*
X-90200Y45189D01*
X-90127Y45240D01*
X-90057Y45294D01*
X-89990Y45352D01*
X-89924Y45412D01*
X-89862Y45474D01*
X-89802Y45540D01*
X-89744Y45607D01*
X-89690Y45677D01*
X-89639Y45750D01*
X-89591Y45824D01*
X-89546Y45901D01*
X-89505Y45979D01*
X-89466Y46059D01*
X-89432Y46140D01*
X-89400Y46223D01*
X-89373Y46308D01*
X-89348Y46393D01*
X-89328Y46479D01*
X-89311Y46566D01*
X-89298Y46654D01*
X-89289Y46742D01*
X-89283Y46830D01*
X-89281Y46919D01*
X-89281Y52141D01*
X-89283Y52232D01*
X-89289Y52323D01*
X-89299Y52414D01*
X-89313Y52504D01*
X-89330Y52593D01*
X-89352Y52681D01*
X-89378Y52769D01*
X-89407Y52855D01*
X-89440Y52940D01*
X-89477Y53023D01*
X-89517Y53105D01*
X-89561Y53185D01*
X-89608Y53263D01*
X-89659Y53339D01*
X-89712Y53412D01*
X-89769Y53483D01*
X-89830Y53552D01*
X-89893Y53617D01*
X-89958Y53680D01*
X-90027Y53740D01*
X-90098Y53798D01*
X-90171Y53851D01*
X-90247Y53902D01*
X-90325Y53949D01*
X-90405Y53993D01*
X-90487Y54033D01*
X-90570Y54070D01*
X-90655Y54103D01*
X-90741Y54132D01*
X-90829Y54158D01*
X-90917Y54180D01*
X-91006Y54197D01*
X-91096Y54211D01*
X-91187Y54221D01*
X-91278Y54227D01*
X-91369Y54229D01*
X-93458Y54229D01*
X-96927Y52141D02*
X-99537Y54229D01*
X-99537Y44831D01*
X-96927Y44831D02*
X-102148Y44831D01*
X-106071Y46919D02*
X-108159Y54229D01*
X-106071Y46919D02*
X-111292Y46919D01*
X-109725Y44831D02*
X-109725Y49008D01*
D13*
X-20638Y52515D02*
X-20638Y58865D01*
D12*
X-12319Y48006D02*
X-2921Y48006D01*
X-2921Y50617D01*
X-2923Y50718D01*
X-2929Y50819D01*
X-2939Y50920D01*
X-2952Y51020D01*
X-2970Y51120D01*
X-2991Y51219D01*
X-3017Y51317D01*
X-3046Y51414D01*
X-3078Y51510D01*
X-3115Y51604D01*
X-3155Y51697D01*
X-3199Y51789D01*
X-3246Y51878D01*
X-3297Y51966D01*
X-3351Y52052D01*
X-3408Y52135D01*
X-3468Y52217D01*
X-3532Y52295D01*
X-3598Y52372D01*
X-3668Y52445D01*
X-3740Y52516D01*
X-3815Y52584D01*
X-3893Y52649D01*
X-3973Y52711D01*
X-4055Y52770D01*
X-4140Y52826D01*
X-4227Y52878D01*
X-4315Y52927D01*
X-4406Y52973D01*
X-4498Y53014D01*
X-4592Y53053D01*
X-4687Y53087D01*
X-4783Y53118D01*
X-4881Y53145D01*
X-4979Y53169D01*
X-5079Y53188D01*
X-5179Y53204D01*
X-5279Y53216D01*
X-5380Y53224D01*
X-5481Y53228D01*
X-5583Y53228D01*
X-5684Y53224D01*
X-5785Y53216D01*
X-5885Y53204D01*
X-5985Y53188D01*
X-6085Y53169D01*
X-6183Y53145D01*
X-6281Y53118D01*
X-6377Y53087D01*
X-6472Y53053D01*
X-6566Y53014D01*
X-6658Y52973D01*
X-6749Y52927D01*
X-6837Y52878D01*
X-6924Y52826D01*
X-7009Y52770D01*
X-7091Y52711D01*
X-7171Y52649D01*
X-7249Y52584D01*
X-7324Y52516D01*
X-7396Y52445D01*
X-7466Y52372D01*
X-7532Y52295D01*
X-7596Y52217D01*
X-7656Y52135D01*
X-7713Y52052D01*
X-7767Y51966D01*
X-7818Y51878D01*
X-7865Y51789D01*
X-7909Y51697D01*
X-7949Y51604D01*
X-7986Y51510D01*
X-8018Y51414D01*
X-8047Y51317D01*
X-8073Y51219D01*
X-8094Y51120D01*
X-8112Y51020D01*
X-8125Y50920D01*
X-8135Y50819D01*
X-8141Y50718D01*
X-8143Y50617D01*
X-8142Y50617D02*
X-8142Y48006D01*
X-8142Y51139D02*
X-12319Y53227D01*
X-10231Y57093D02*
X-2921Y59181D01*
X-10231Y57093D02*
X-10231Y62314D01*
X-8142Y60748D02*
X-12319Y60748D01*
D13*
X-66548Y73025D02*
X-73152Y73025D01*
D12*
X-89234Y71184D02*
X-91323Y71184D01*
X-89234Y71184D02*
X-89145Y71186D01*
X-89057Y71192D01*
X-88969Y71201D01*
X-88881Y71214D01*
X-88794Y71231D01*
X-88708Y71251D01*
X-88623Y71276D01*
X-88538Y71303D01*
X-88455Y71335D01*
X-88374Y71369D01*
X-88294Y71408D01*
X-88216Y71449D01*
X-88139Y71494D01*
X-88065Y71542D01*
X-87992Y71593D01*
X-87922Y71647D01*
X-87855Y71705D01*
X-87789Y71765D01*
X-87727Y71827D01*
X-87667Y71893D01*
X-87609Y71960D01*
X-87555Y72030D01*
X-87504Y72103D01*
X-87456Y72177D01*
X-87411Y72254D01*
X-87370Y72332D01*
X-87331Y72412D01*
X-87297Y72493D01*
X-87265Y72576D01*
X-87238Y72661D01*
X-87213Y72746D01*
X-87193Y72832D01*
X-87176Y72919D01*
X-87163Y73007D01*
X-87154Y73095D01*
X-87148Y73183D01*
X-87146Y73272D01*
X-87146Y78493D01*
X-87148Y78584D01*
X-87154Y78675D01*
X-87164Y78766D01*
X-87178Y78856D01*
X-87195Y78945D01*
X-87217Y79033D01*
X-87243Y79121D01*
X-87272Y79207D01*
X-87305Y79292D01*
X-87342Y79375D01*
X-87382Y79457D01*
X-87426Y79537D01*
X-87473Y79615D01*
X-87524Y79691D01*
X-87577Y79764D01*
X-87634Y79835D01*
X-87695Y79904D01*
X-87758Y79969D01*
X-87823Y80032D01*
X-87892Y80092D01*
X-87963Y80150D01*
X-88036Y80203D01*
X-88112Y80254D01*
X-88190Y80301D01*
X-88270Y80345D01*
X-88352Y80385D01*
X-88435Y80422D01*
X-88520Y80455D01*
X-88606Y80484D01*
X-88694Y80510D01*
X-88782Y80532D01*
X-88871Y80549D01*
X-88961Y80563D01*
X-89052Y80573D01*
X-89143Y80579D01*
X-89234Y80581D01*
X-89234Y80582D02*
X-91323Y80582D01*
X-94791Y78493D02*
X-97402Y80582D01*
X-97402Y71184D01*
X-94791Y71184D02*
X-100013Y71184D01*
X-109157Y78232D02*
X-109155Y78327D01*
X-109149Y78421D01*
X-109140Y78515D01*
X-109127Y78609D01*
X-109110Y78702D01*
X-109089Y78794D01*
X-109064Y78886D01*
X-109036Y78976D01*
X-109004Y79065D01*
X-108969Y79153D01*
X-108930Y79239D01*
X-108888Y79324D01*
X-108842Y79407D01*
X-108793Y79488D01*
X-108741Y79567D01*
X-108686Y79644D01*
X-108627Y79718D01*
X-108566Y79790D01*
X-108502Y79860D01*
X-108435Y79927D01*
X-108365Y79991D01*
X-108293Y80052D01*
X-108219Y80111D01*
X-108142Y80166D01*
X-108063Y80218D01*
X-107982Y80267D01*
X-107899Y80313D01*
X-107814Y80355D01*
X-107728Y80394D01*
X-107640Y80429D01*
X-107551Y80461D01*
X-107461Y80489D01*
X-107369Y80514D01*
X-107277Y80535D01*
X-107184Y80552D01*
X-107090Y80565D01*
X-106996Y80574D01*
X-106902Y80580D01*
X-106807Y80582D01*
X-106807Y80581D02*
X-106699Y80579D01*
X-106590Y80573D01*
X-106482Y80563D01*
X-106375Y80550D01*
X-106268Y80532D01*
X-106161Y80511D01*
X-106056Y80486D01*
X-105951Y80457D01*
X-105848Y80425D01*
X-105746Y80388D01*
X-105645Y80348D01*
X-105546Y80305D01*
X-105448Y80258D01*
X-105352Y80207D01*
X-105258Y80153D01*
X-105166Y80096D01*
X-105076Y80035D01*
X-104988Y79971D01*
X-104903Y79905D01*
X-104820Y79835D01*
X-104740Y79762D01*
X-104662Y79686D01*
X-104587Y79608D01*
X-104515Y79527D01*
X-104446Y79443D01*
X-104380Y79357D01*
X-104317Y79269D01*
X-104258Y79178D01*
X-104201Y79086D01*
X-104148Y78991D01*
X-104099Y78895D01*
X-104053Y78796D01*
X-104010Y78697D01*
X-103971Y78595D01*
X-103936Y78493D01*
X-108374Y76404D02*
X-108443Y76473D01*
X-108509Y76544D01*
X-108573Y76617D01*
X-108634Y76693D01*
X-108692Y76772D01*
X-108746Y76852D01*
X-108798Y76935D01*
X-108846Y77019D01*
X-108892Y77105D01*
X-108933Y77193D01*
X-108972Y77283D01*
X-109007Y77374D01*
X-109038Y77466D01*
X-109066Y77559D01*
X-109090Y77653D01*
X-109110Y77748D01*
X-109127Y77844D01*
X-109140Y77941D01*
X-109149Y78038D01*
X-109155Y78135D01*
X-109157Y78232D01*
X-108373Y76405D02*
X-103935Y71184D01*
X-109157Y71184D01*
D13*
X-73152Y63500D02*
X-66548Y63500D01*
D12*
X-90822Y58484D02*
X-92910Y58484D01*
X-90822Y58484D02*
X-90733Y58486D01*
X-90645Y58492D01*
X-90557Y58501D01*
X-90469Y58514D01*
X-90382Y58531D01*
X-90296Y58551D01*
X-90211Y58576D01*
X-90126Y58603D01*
X-90043Y58635D01*
X-89962Y58669D01*
X-89882Y58708D01*
X-89804Y58749D01*
X-89727Y58794D01*
X-89653Y58842D01*
X-89580Y58893D01*
X-89510Y58947D01*
X-89443Y59005D01*
X-89377Y59065D01*
X-89315Y59127D01*
X-89255Y59193D01*
X-89197Y59260D01*
X-89143Y59330D01*
X-89092Y59403D01*
X-89044Y59477D01*
X-88999Y59554D01*
X-88958Y59632D01*
X-88919Y59712D01*
X-88885Y59793D01*
X-88853Y59876D01*
X-88826Y59961D01*
X-88801Y60046D01*
X-88781Y60132D01*
X-88764Y60219D01*
X-88751Y60307D01*
X-88742Y60395D01*
X-88736Y60483D01*
X-88734Y60572D01*
X-88733Y60572D02*
X-88733Y65793D01*
X-88734Y65793D02*
X-88736Y65884D01*
X-88742Y65975D01*
X-88752Y66066D01*
X-88766Y66156D01*
X-88783Y66245D01*
X-88805Y66333D01*
X-88831Y66421D01*
X-88860Y66507D01*
X-88893Y66592D01*
X-88930Y66675D01*
X-88970Y66757D01*
X-89014Y66837D01*
X-89061Y66915D01*
X-89112Y66991D01*
X-89165Y67064D01*
X-89222Y67135D01*
X-89283Y67204D01*
X-89346Y67269D01*
X-89411Y67332D01*
X-89480Y67392D01*
X-89551Y67450D01*
X-89624Y67503D01*
X-89700Y67554D01*
X-89778Y67601D01*
X-89858Y67645D01*
X-89940Y67685D01*
X-90023Y67722D01*
X-90108Y67755D01*
X-90194Y67784D01*
X-90282Y67810D01*
X-90370Y67832D01*
X-90459Y67849D01*
X-90549Y67863D01*
X-90640Y67873D01*
X-90731Y67879D01*
X-90822Y67881D01*
X-90822Y67882D02*
X-92910Y67882D01*
X-96379Y65793D02*
X-98989Y67882D01*
X-98989Y58484D01*
X-96379Y58484D02*
X-101600Y58484D01*
X-105523Y58484D02*
X-108133Y58484D01*
X-108133Y58483D02*
X-108234Y58485D01*
X-108335Y58491D01*
X-108436Y58501D01*
X-108536Y58514D01*
X-108636Y58532D01*
X-108735Y58553D01*
X-108833Y58579D01*
X-108930Y58608D01*
X-109026Y58640D01*
X-109120Y58677D01*
X-109213Y58717D01*
X-109305Y58761D01*
X-109394Y58808D01*
X-109482Y58859D01*
X-109568Y58913D01*
X-109651Y58970D01*
X-109733Y59030D01*
X-109811Y59094D01*
X-109888Y59160D01*
X-109961Y59230D01*
X-110032Y59302D01*
X-110100Y59377D01*
X-110165Y59455D01*
X-110227Y59535D01*
X-110286Y59617D01*
X-110342Y59702D01*
X-110394Y59789D01*
X-110443Y59877D01*
X-110489Y59968D01*
X-110530Y60060D01*
X-110569Y60154D01*
X-110603Y60249D01*
X-110634Y60345D01*
X-110661Y60443D01*
X-110685Y60541D01*
X-110704Y60641D01*
X-110720Y60741D01*
X-110732Y60841D01*
X-110740Y60942D01*
X-110744Y61043D01*
X-110744Y61145D01*
X-110740Y61246D01*
X-110732Y61347D01*
X-110720Y61447D01*
X-110704Y61547D01*
X-110685Y61647D01*
X-110661Y61745D01*
X-110634Y61843D01*
X-110603Y61939D01*
X-110569Y62034D01*
X-110530Y62128D01*
X-110489Y62220D01*
X-110443Y62311D01*
X-110394Y62400D01*
X-110342Y62486D01*
X-110286Y62571D01*
X-110227Y62653D01*
X-110165Y62733D01*
X-110100Y62811D01*
X-110032Y62886D01*
X-109961Y62958D01*
X-109888Y63028D01*
X-109811Y63094D01*
X-109733Y63158D01*
X-109651Y63218D01*
X-109568Y63275D01*
X-109482Y63329D01*
X-109394Y63380D01*
X-109305Y63427D01*
X-109213Y63471D01*
X-109120Y63511D01*
X-109026Y63548D01*
X-108930Y63580D01*
X-108833Y63609D01*
X-108735Y63635D01*
X-108636Y63656D01*
X-108536Y63674D01*
X-108436Y63687D01*
X-108335Y63697D01*
X-108234Y63703D01*
X-108133Y63705D01*
X-108656Y67882D02*
X-105523Y67882D01*
X-108656Y67881D02*
X-108746Y67879D01*
X-108835Y67873D01*
X-108925Y67864D01*
X-109014Y67850D01*
X-109102Y67833D01*
X-109189Y67812D01*
X-109276Y67787D01*
X-109361Y67758D01*
X-109445Y67726D01*
X-109527Y67691D01*
X-109608Y67651D01*
X-109687Y67609D01*
X-109764Y67563D01*
X-109839Y67513D01*
X-109912Y67461D01*
X-109983Y67405D01*
X-110051Y67347D01*
X-110116Y67285D01*
X-110179Y67221D01*
X-110239Y67154D01*
X-110296Y67085D01*
X-110350Y67013D01*
X-110401Y66939D01*
X-110449Y66863D01*
X-110493Y66785D01*
X-110534Y66705D01*
X-110572Y66623D01*
X-110606Y66540D01*
X-110636Y66455D01*
X-110663Y66369D01*
X-110686Y66283D01*
X-110705Y66195D01*
X-110720Y66106D01*
X-110732Y66017D01*
X-110740Y65928D01*
X-110744Y65838D01*
X-110744Y65748D01*
X-110740Y65658D01*
X-110732Y65569D01*
X-110720Y65480D01*
X-110705Y65391D01*
X-110686Y65303D01*
X-110663Y65217D01*
X-110636Y65131D01*
X-110606Y65046D01*
X-110572Y64963D01*
X-110534Y64881D01*
X-110493Y64801D01*
X-110449Y64723D01*
X-110401Y64647D01*
X-110350Y64573D01*
X-110296Y64501D01*
X-110239Y64432D01*
X-110179Y64365D01*
X-110116Y64301D01*
X-110051Y64239D01*
X-109983Y64181D01*
X-109912Y64125D01*
X-109839Y64073D01*
X-109764Y64023D01*
X-109687Y63977D01*
X-109608Y63935D01*
X-109527Y63895D01*
X-109445Y63860D01*
X-109361Y63828D01*
X-109276Y63799D01*
X-109189Y63774D01*
X-109102Y63753D01*
X-109014Y63736D01*
X-108925Y63722D01*
X-108835Y63713D01*
X-108746Y63707D01*
X-108656Y63705D01*
X-106567Y63705D01*
D11*
X33438Y112395D02*
X38418Y112395D01*
X-35243Y112395D02*
X-35243Y117375D01*
X-35243Y186055D02*
X-30263Y186055D01*
X38418Y186055D02*
X38418Y181075D01*
X38418Y117375D02*
X38418Y112395D01*
X-30263Y112395D02*
X-35243Y112395D01*
X-35243Y181075D02*
X-35243Y186055D01*
X33438Y186055D02*
X38418Y186055D01*
D15*
X32266Y183071D02*
X32268Y183167D01*
X32274Y183263D01*
X32284Y183359D01*
X32298Y183454D01*
X32315Y183549D01*
X32337Y183642D01*
X32362Y183735D01*
X32391Y183827D01*
X32424Y183917D01*
X32461Y184006D01*
X32501Y184093D01*
X32545Y184179D01*
X32592Y184263D01*
X32643Y184345D01*
X32696Y184424D01*
X32754Y184501D01*
X32814Y184576D01*
X32877Y184649D01*
X32943Y184719D01*
X33013Y184785D01*
X33084Y184850D01*
X33159Y184911D01*
X33235Y184969D01*
X33314Y185023D01*
X33396Y185075D01*
X33479Y185123D01*
X33564Y185167D01*
X33651Y185209D01*
X33740Y185246D01*
X33830Y185280D01*
X33921Y185310D01*
X34013Y185336D01*
X34107Y185359D01*
X34201Y185377D01*
X34296Y185392D01*
X34392Y185403D01*
X34488Y185410D01*
X34584Y185413D01*
X34680Y185412D01*
X34776Y185407D01*
X34872Y185398D01*
X34967Y185385D01*
X35062Y185369D01*
X35156Y185348D01*
X35249Y185324D01*
X35341Y185295D01*
X35432Y185263D01*
X35521Y185228D01*
X35609Y185188D01*
X35695Y185146D01*
X35779Y185099D01*
X35861Y185049D01*
X35941Y184996D01*
X36019Y184940D01*
X36095Y184880D01*
X36168Y184818D01*
X36238Y184752D01*
X36306Y184684D01*
X36371Y184613D01*
X36433Y184539D01*
X36491Y184463D01*
X36547Y184385D01*
X36599Y184304D01*
X36648Y184221D01*
X36694Y184136D01*
X36736Y184050D01*
X36774Y183962D01*
X36809Y183872D01*
X36840Y183781D01*
X36867Y183689D01*
X36891Y183595D01*
X36910Y183501D01*
X36926Y183406D01*
X36938Y183311D01*
X36946Y183215D01*
X36950Y183119D01*
X36950Y183023D01*
X36946Y182927D01*
X36938Y182831D01*
X36926Y182736D01*
X36910Y182641D01*
X36891Y182547D01*
X36867Y182453D01*
X36840Y182361D01*
X36809Y182270D01*
X36774Y182180D01*
X36736Y182092D01*
X36694Y182006D01*
X36648Y181921D01*
X36599Y181838D01*
X36547Y181757D01*
X36491Y181679D01*
X36433Y181603D01*
X36371Y181529D01*
X36306Y181458D01*
X36238Y181390D01*
X36168Y181324D01*
X36095Y181262D01*
X36019Y181202D01*
X35941Y181146D01*
X35861Y181093D01*
X35779Y181043D01*
X35695Y180996D01*
X35609Y180954D01*
X35521Y180914D01*
X35432Y180879D01*
X35341Y180847D01*
X35249Y180818D01*
X35156Y180794D01*
X35062Y180773D01*
X34967Y180757D01*
X34872Y180744D01*
X34776Y180735D01*
X34680Y180730D01*
X34584Y180729D01*
X34488Y180732D01*
X34392Y180739D01*
X34296Y180750D01*
X34201Y180765D01*
X34107Y180783D01*
X34013Y180806D01*
X33921Y180832D01*
X33830Y180862D01*
X33740Y180896D01*
X33651Y180933D01*
X33564Y180975D01*
X33479Y181019D01*
X33396Y181067D01*
X33314Y181119D01*
X33235Y181173D01*
X33159Y181231D01*
X33084Y181292D01*
X33013Y181357D01*
X32943Y181423D01*
X32877Y181493D01*
X32814Y181566D01*
X32754Y181641D01*
X32696Y181718D01*
X32643Y181797D01*
X32592Y181879D01*
X32545Y181963D01*
X32501Y182049D01*
X32461Y182136D01*
X32424Y182225D01*
X32391Y182315D01*
X32362Y182407D01*
X32337Y182500D01*
X32315Y182593D01*
X32298Y182688D01*
X32284Y182783D01*
X32274Y182879D01*
X32268Y182975D01*
X32266Y183071D01*
D16*
X-74463Y157975D02*
X-74463Y140475D01*
X-87463Y140475D02*
X-87463Y157975D01*
D12*
X-71082Y132106D02*
X-61844Y132106D01*
X-61844Y134672D01*
X-61846Y134770D01*
X-61852Y134868D01*
X-61861Y134966D01*
X-61874Y135064D01*
X-61891Y135161D01*
X-61911Y135257D01*
X-61936Y135352D01*
X-61964Y135446D01*
X-61995Y135539D01*
X-62030Y135631D01*
X-62069Y135722D01*
X-62110Y135811D01*
X-62156Y135898D01*
X-62204Y135983D01*
X-62256Y136067D01*
X-62311Y136148D01*
X-62369Y136228D01*
X-62430Y136305D01*
X-62494Y136379D01*
X-62561Y136451D01*
X-62631Y136521D01*
X-62703Y136588D01*
X-62777Y136652D01*
X-62854Y136713D01*
X-62934Y136771D01*
X-63015Y136826D01*
X-63099Y136878D01*
X-63184Y136926D01*
X-63271Y136972D01*
X-63360Y137013D01*
X-63451Y137052D01*
X-63543Y137087D01*
X-63636Y137118D01*
X-63730Y137146D01*
X-63825Y137171D01*
X-63921Y137191D01*
X-64018Y137208D01*
X-64116Y137221D01*
X-64214Y137230D01*
X-64312Y137236D01*
X-64410Y137238D01*
X-68515Y137238D01*
X-68613Y137236D01*
X-68711Y137230D01*
X-68809Y137221D01*
X-68907Y137208D01*
X-69004Y137191D01*
X-69100Y137171D01*
X-69195Y137146D01*
X-69289Y137118D01*
X-69382Y137087D01*
X-69474Y137052D01*
X-69565Y137013D01*
X-69654Y136972D01*
X-69741Y136926D01*
X-69826Y136878D01*
X-69910Y136826D01*
X-69991Y136771D01*
X-70071Y136713D01*
X-70148Y136652D01*
X-70222Y136588D01*
X-70294Y136521D01*
X-70364Y136451D01*
X-70431Y136379D01*
X-70495Y136305D01*
X-70556Y136228D01*
X-70614Y136148D01*
X-70669Y136067D01*
X-70721Y135983D01*
X-70769Y135898D01*
X-70815Y135811D01*
X-70856Y135722D01*
X-70895Y135631D01*
X-70930Y135539D01*
X-70961Y135446D01*
X-70989Y135352D01*
X-71014Y135257D01*
X-71034Y135161D01*
X-71051Y135064D01*
X-71064Y134966D01*
X-71073Y134868D01*
X-71079Y134770D01*
X-71081Y134672D01*
X-71082Y134672D02*
X-71082Y132106D01*
X-61843Y144229D02*
X-61845Y144325D01*
X-61851Y144420D01*
X-61861Y144515D01*
X-61875Y144609D01*
X-61892Y144703D01*
X-61914Y144796D01*
X-61939Y144888D01*
X-61968Y144979D01*
X-62001Y145069D01*
X-62038Y145157D01*
X-62078Y145244D01*
X-62121Y145328D01*
X-62169Y145411D01*
X-62219Y145492D01*
X-62273Y145571D01*
X-62330Y145648D01*
X-62390Y145722D01*
X-62454Y145794D01*
X-62520Y145862D01*
X-62589Y145929D01*
X-62660Y145992D01*
X-62734Y146052D01*
X-62811Y146109D01*
X-62890Y146163D01*
X-62971Y146213D01*
X-63054Y146261D01*
X-63138Y146304D01*
X-63225Y146344D01*
X-63313Y146381D01*
X-63403Y146414D01*
X-63494Y146443D01*
X-63586Y146468D01*
X-63679Y146490D01*
X-63773Y146507D01*
X-63867Y146521D01*
X-63962Y146531D01*
X-64058Y146537D01*
X-64153Y146539D01*
X-61843Y144229D02*
X-61845Y144123D01*
X-61851Y144016D01*
X-61860Y143910D01*
X-61874Y143804D01*
X-61891Y143699D01*
X-61912Y143594D01*
X-61936Y143491D01*
X-61965Y143388D01*
X-61997Y143286D01*
X-62032Y143186D01*
X-62072Y143087D01*
X-62115Y142989D01*
X-62161Y142893D01*
X-62211Y142799D01*
X-62264Y142706D01*
X-62320Y142616D01*
X-62380Y142527D01*
X-62442Y142441D01*
X-62508Y142357D01*
X-62577Y142276D01*
X-62648Y142197D01*
X-62723Y142120D01*
X-62800Y142047D01*
X-62880Y141976D01*
X-62962Y141908D01*
X-63046Y141843D01*
X-63133Y141781D01*
X-63222Y141723D01*
X-63313Y141667D01*
X-63406Y141615D01*
X-63501Y141566D01*
X-63598Y141521D01*
X-63696Y141479D01*
X-63795Y141441D01*
X-63896Y141406D01*
X-65950Y145769D02*
X-65882Y145837D01*
X-65812Y145902D01*
X-65740Y145965D01*
X-65665Y146025D01*
X-65588Y146082D01*
X-65509Y146135D01*
X-65428Y146186D01*
X-65345Y146234D01*
X-65261Y146278D01*
X-65174Y146319D01*
X-65086Y146357D01*
X-64997Y146391D01*
X-64906Y146422D01*
X-64815Y146449D01*
X-64722Y146473D01*
X-64628Y146493D01*
X-64534Y146510D01*
X-64439Y146522D01*
X-64344Y146532D01*
X-64249Y146537D01*
X-64153Y146539D01*
X-65949Y145768D02*
X-71082Y141406D01*
X-71082Y146538D01*
M02*
