M48
;GenerationSoftware,Autodesk,EAGLE,9.6.1*%
;CreationDate,2024-04-17T19:18:39Z*%
FMAT,2
ICI,OFF
METRIC,TZ,000.000
T4C0.250
T3C0.300
T2C0.350
T1C1.016
%
G90
M71
T1
X-6667Y18415
X9525Y13811
X-6667Y23495
X-6667Y20955
T2
X-952Y20320
X-2699Y20320
X4128Y1270
X4286Y2857
X1905Y4286
X2064Y2699
X5239Y9366
X6985Y9366
X7620Y12224
X9208Y12224
X11589Y19368
X11589Y17621
X14764Y16669
X14287Y18891
X3810Y27146
X3651Y25717
X1587Y26987
X1587Y25717
X-8573Y17939
X-9684Y16669
X2540Y14129
X1905Y9049
X1111Y8255
X-6032Y13970
X-6032Y6319
X4763Y22987
X-8096Y15081
X12719Y19189
X3334Y476
X2540Y12859
X-2381Y17463
X-794Y17463
T3
X-10636Y10954
X13970Y10636
X-13313Y10644
X-2064Y4731
X6191Y12115
X2774Y28129
X-9642Y22673
T4
X-5874Y9049
X-159Y10160
X-3991Y12122
X-4315Y8513
X-8859Y6501
X-5080Y4921
X-7779Y6032
X-3647Y7878
X-8036Y10893
X-8890Y8573
X1154Y10117
X476Y9843
M30