M48
;GenerationSoftware,Autodesk,EAGLE,9.6.2*%
;CreationDate,2022-10-30T11:11:04Z*%
FMAT,2
ICI,OFF
METRIC,TZ,000.000
T2C0.350
T1C1.016
%
G90
M71
T1
X27940Y37624
X46196Y33814
X27940Y42704
X27940Y40164
T2
X42545Y26194
X44450Y28892
X37624Y23971
X35084Y23971
X35560Y44450
X32861Y44450
X25717Y43180
X26352Y40323
X22701Y34131
X31274Y24099
X28203Y34438
X25717Y27781
X35285Y27580
X34766Y28575
X28734Y28257
X25876Y25174
X30140Y31331
X30769Y28356
X25590Y26186
X29527Y24130
X38100Y42228
X40428Y30792
X44628Y39986
X44414Y27740
X24447Y28734
X36830Y22066
X31595Y27563
X25369Y42060
X33848Y45859
X26572Y30102
X32385Y36195
X43498Y36830
X45879Y36830
X33655Y28416
M30