M48
;GenerationSoftware,Autodesk,EAGLE,9.6.2*%
;CreationDate,2022-04-27T21:16:15Z*%
FMAT,2
ICI,OFF
METRIC,TZ,000.000
T2C0.350
T1C1.016
%
G90
M71
T1
X45053Y37624
X24289Y37465
X24289Y34925
X24289Y32385
T2
X30956Y24289
X26511Y42545
X26511Y39370
X47466Y32702
X44946Y32702
X36513Y44132
X34131Y44132
X33338Y24289
X28099Y30956
X34161Y41087
X39370Y26035
X43815Y24765
X33496Y22860
X25241Y40958
X29527Y28257
X29845Y25559
X32385Y46196
X41275Y32226
X34774Y35084
X32861Y38576
X33208Y36542
X36453Y35084
X35243Y39370
X30162Y35401
X31274Y35401
X28575Y37941
M30