M48
;GenerationSoftware,Autodesk,EAGLE,9.3.0*%
;CreationDate,2019-03-21T09:37:30Z*%
FMAT,2
ICI,OFF
METRIC,TZ,000.000
T1C0.350
%
G90
M71
T1
X45036Y36225
X45027Y37635
X34874Y34366
X27648Y25747
X37069Y25491
X49348Y35831
X26177Y32413
X30315Y26382
X24981Y26636
X24981Y29049
X46935Y35831
X39751Y40138
X30990Y38749
X31323Y30959
X26159Y33819
X24090Y27470
X22710Y40105
X25822Y36170
X45937Y32717
X33877Y47429
X36354Y46359
X46219Y37299
X44921Y27474
X35407Y21781
X46946Y39895
X28448Y42723
X31325Y45263
X33557Y25091
X33530Y28209
X32841Y28945
X29860Y32441
X29657Y33682
X35653Y29865
X30428Y31380
M30